<svg id="Слой_1" enable-background="new 0 0 230.3999939 230.3999939" height="512" viewBox="0 0 230.3999939 230.3999939" width="512" xmlns="http://www.w3.org/2000/svg"><g><g><path d="m196.4486237 121.2399063c0 20.7737198-9.3811798 39.3569565-24.1379089 51.7432175-11.7345886 9.849472-26.8674622 15.7811737-43.3864594 15.7811737s-31.6527481-5.9317017-43.3873291-15.7811737c-14.7567215-12.386261-24.1379013-30.9694977-24.1379013-51.7432175 0-37.2927094 30.2325134-67.5252228 67.5252304-67.5252228s67.5243683 30.2325135 67.5243683 67.5252228z" fill="#ffd394"/></g><g><g><path d="m81.533432 85.1594772s-3.653595-8.360817-14.5437927-12.2250671c0 0 10.2580872 7.1663895 12.7170029 12.8573837z" fill="#a4b17c"/></g></g><g><g><path d="m115.999588 82.8600769c2.0939255.0136414 3.4403687.2699585 3.4403687.2699585-17.801796-1.1257858-24.2951508 16.3608017-24.2951508 16.3608017h-.71138c.016861-.1361694.129837-6.7434082 7.6266708-12.3492203 4.8814621-3.6500091 10.4495621-4.3041916 13.9394913-4.2815399z" fill="#a4b17c"/></g></g><g><g><path d="m93.0159073 90.9995575s-.6368484-18.7213669 7.0680389-27.3816376c0 0-7.0680389 4.4574814-8.8511124 21.9689789l.3181534 8.5329056z" fill="#a4b17c"/></g></g><g><g><path d="m82.9584961 149.9628143s2.9018173-4.7315826 2.5697708-11.0386353l.4177322-.2477112s1.2171936 6.3625183 0 11.4523621z" fill="#d59970"/></g></g><g><g><path d="m84.6357422 150.0113068s4.90242-11.8079987 4.9718781-27.6900635c.0690384-15.8820648 1.1429291-23.3186569 1.1429291-23.3186569l.6942291.2108994s1.4081116 13.6476364 1.5461731 22.9006729c.1380539 9.2530289-.276123 20.922966-3.176239 28.2423019z" fill="#d59970"/></g></g><g><g><path d="m90.4726791 108.4952087s-3.0731354-.7431564-3.5576477-10.1443405l.437767-.0503693s1.1027298 5.8371048 2.9988632 7.2491608z" fill="#d59970"/></g></g><g><g><path d="m91.4447784 105.9131546s3.0455322-.983345 3.0857239-7.0759506l.6776886-.4544754s.5539932 8.1757202-2.996666 10.031662z" fill="#d59970"/></g></g><g><g><path d="m87.2923508 100.2773514s-11.8141327-28.1553421-33.1109772-21.0262451c0 0 24.9883652-8.8436966 33.6514359 20.8457718z" fill="#5d6a24"/></g></g><g><g><path d="m91.3998108 101.66436s4.2888718-28.0840225-13.9954376-37.9496231c0 0 15.4440231 11.6414108 13.1420898 37.8180847z" fill="#a4b17c"/></g></g><g><g><path d="m87.7616882 100.1803741s1.3026733-12.3648682-6.5239029-24.795517c-7.8265686-12.4306029-14.2719802-14.6010551-14.2719802-14.6010551s14.5348358 12.8252449 16.3769073 28.741726z" fill="#5d6a24"/></g></g><g><g><path d="m86.3420792 95.5764008s-1.1841507-12.5621338-10.7864304-21.3753815-14.2719879-7.8267288-14.2719879-7.8267288 11.3121338 2.9596939 17.8233948 17.8238144z" fill="#5d6a24"/></g></g><g><g><path d="m90.7078705 101.3355026s-2.3677826-17.6264954-9.4052734-20.6519318c0 0 7.1033325.2630692 10.2602005 13.9433441z" fill="#5d6a24"/></g></g><g><g><path d="m91.5046387 100.8598404s9.8946228-26.7969666 26.1309357-24.9502258c-4.5627136-.5189743-9.399086.1779861-13.5941849 2.1736374-4.7315369 2.2508392-7.9242401 6.114975-10.5102844 10.5738373-1.2483521 2.15242-2.3047028 4.4244003-3.0589142 6.7978439z" fill="#5d6a24"/></g></g><g><g><path d="m95.2339172 99.1593628s1.5307693-14.7432251 25.0912476-10.3570709c0 0-4.8258972-3.207222-14.4454575-1.8561935-9.6191254 1.3510361-10.9085388 8.7774353-11.0707779 10.8849945-.1617202 2.1076125.4249878 1.3282699.4249878 1.3282699z" fill="#5d6a24"/></g></g><g><g><path d="m109.4036255 65.8627548c-15.4795838 7.2472458-18.0828247 32.3676682-18.0828247 32.3676682l.0068436.0016327c-.0126419.0450897-.0236969.0876999-.0379257.1366348l-1.1472778-.0625763.2633743-4.5087357.98452-3.9407806c4.7139586-20.6160049 18.0132903-23.9938431 18.0132903-23.9938431z" fill="#5d6a24"/></g></g><g><g><path d="m91.947113 93.4208527c.1011429-.7104874 2.0675278-21.2173538-8.6304092-34.8444862 0 0 8.2460938 19.4421196 7.0891113 35.2210121 0-.0000001 1.4396363.3340225 1.5412979-.3765259z" fill="#5d6a24"/></g></g><g><g><path d="m87.466713 146.569397s14.5376663-.609314 19.5335922-.8591919c0 0 .549408 4.4562225-.0998535 5.8049316-.649765 1.3491974-1.3988724 1.3491974-1.3988724 1.3491974s-3.7967377 20.7322693-3.7470703 22.0814667c.0501785 1.3487091-6.9442062 3.3210602-14.6876907 3.2212219-7.7434921-.0998535-11.9401245-1.9221802-13.288826-2.9216766-1.3486938-.9989777-3.9467545-23.2806396-3.9467545-23.2806396s-.6231461-.3369293-1.4224319-1.2857208c-.7992859-.9493256-.4756775-4.0594177-.525856-4.9590454-.0501786-.8991395 4.1464538.4495543 19.5837631.8494567z" fill="#e55e4a"/></g></g><g><g><path d="m88.8539352 156.3858185c8.928772 0 15.7998962-1.0856934 15.9116516-1.1037598.1702652-.0276184.285965-.1883545.2583618-.3586121-.0276108-.170929-.1893311-.285965-.358284-.2586823-.1814423.0299072-18.31707 2.892868-33.9565582-.7520752-.1689529-.0417328-.336586.0654144-.3753738.2333832-.039444.1682892.0650864.3362579.2333755.3753662 6.1203766 1.4265595 12.6187516 1.86438 18.2868271 1.86438z" fill="#fff"/></g></g><g><g><g><path d="m91.073967 174.3952332c.1433182 0 .268219-.0973053.3030624-.2363434l3.8628693-15.3699493c.0420685-.1676331-.0598221-.3372498-.2268066-.3793182-.1696091-.0427246-.3372421.0598297-.3793182.2268066l-3.8030396 15.1316376-6.6107941-.0558777-3.569664-15.3692932c-.039444-.1673126-.2005081-.2731476-.3753738-.2337036-.1676407.0391083-.2721634.207077-.2333755.3750458l3.6255417 15.6089172c.0328751.140686.1571198.2406006.3017502.2419281l7.1025238.0601501z" fill="#fff"/></g></g><g><g><path d="m85.3381729 172.0627899h.001976l4.1008453-.0299225c.1426544-.0009766.2668991-.0986023.3010864-.2366638l3.2094193-12.8320618c.0420685-.1676483-.0598297-.3372498-.2274628-.3789978-.1643524-.0424042-.336586.0598297-.3786621.2271271l-3.1509018 12.5973816-3.6071472.0263062-2.8859711-12.6772614c-.0387878-.1682892-.2044525-.2724915-.3747177-.2353516-.1682968.0384674-.2734756.2057648-.2353516.3740692l2.9418564 12.9221344c.0328675.1423188.1590882.2432404.3050309.2432404z" fill="#fff"/></g></g><g><g><path d="m88.1321182 169.3713989c.1505432 0 .2800446-.1074829.3069992-.2560577l1.8420334-9.9914551c.0315552-.1696167-.080864-.3326416-.250473-.3638763-.1669769-.0328674-.3319855.0802002-.3635406.2508087l-1.7940369 9.7307892-1.1445312-.0207062-1.7966614-9.6890564c-.030899-.1699371-.1926193-.2813568-.3642044-.2504578-.1696091.0315552-.2813644.1945801-.2498093.3641968l1.8426895 9.9401703c.026947.1462708.1531677.2527771.3010864.2557373l1.6645279.0299072z" fill="#fff"/></g></g><g><g><path d="m87.2991943 165.5160828c.1715775 0 .3116074-.1390381.3122635-.3109436l.0302353-6.0763245c.0013199-.1725616-.1380463-.3132477-.3109436-.3142395 0 0-.0006561 0-.0013199 0-.1715775 0-.3115997.1390381-.3122635.3109589l-.0302353 6.0763245c-.0013199.1725616.1380539.3132477.3109436.3142242z" fill="#fff"/></g></g></g><g><g><g><path d="m94.4937515 174.4037781c.1426544 0 .2715073-.0982819.3043747-.2432404l3.463829-15.1881866 5.65625-.8578949c.1709213-.0259705.2879333-.1850586.2622986-.3559875-.0262985-.1705933-.1866989-.2849731-.3556519-.2619781l-5.8666153.889801c-.1268768.0193787-.2294312.1143799-.2576981.2396088l-3.5111618 15.3959198c-.0387878.1683044.0663986.3356018.2346878.3740692.0236665.0052489.0466768.0078887.069687.0078887z" fill="#fff"/></g></g><g><g><path d="m97.2061768 174.0418854c.1446228 0 .2747879-.1009216.305687-.2481689l2.678894-12.6815338 3.4256973-.4631348c.1709213-.0230103.2905731-.1804504.2675629-.3513794-.0230103-.1719055-.1847305-.2892609-.3517075-.2678833l-3.6439514.4927063c-.1308289.0177612-.2366638.1157074-.2636185.2452087l-2.7242584 12.8971558c-.0354996.1686249.0723114.3346252.2412643.3701172.021698.0046081.0433884.0069122.0644303.0069122z" fill="#fff"/></g></g><g><g><path d="m99.6280289 173.3601532c.1479111 0 .2793884-.105835.3069992-.2570343l1.7822037-9.867218 1.2852173-.2498016c.1689529-.0328674.2800522-.1968994.2471771-.3661804-.0341797-.1702576-.2011642-.2767639-.3668213-.2471771l-1.4949265.2905731c-.1262207.0246429-.2248306.1242523-.2478409.2511292l-1.8203278 10.0775757c-.0302429.1699371.0821686.3323059.2524338.363205.0184098.0032957.0374756.0049284.0558854.0049284z" fill="#fff"/></g></g></g><g><g><g><path d="m81.0026398 173.8870544c.0230103 0 .0460205-.0026245.0696869-.0078888.1682892-.0384521.2734756-.2057648.2346878-.374054l-3.5105057-15.3955841c-.0282669-.1252441-.1308212-.2202301-.2576981-.239624l-5.8666153-.8901215c-.1676331-.0240021-.3293533.0913849-.3556519.2619781-.0256348.1709137.0913773.3300018.2622986.3559723l5.65625.8582306 3.4631729 15.1878662c.0328675.1449434.1617204.2432252.3043748.2432252z" fill="#fff"/></g></g><g><g><path d="m78.2908707 173.5251617c.0210419 0 .0427322-.0023041.0644302-.006897.1689529-.0355072.2767639-.2014923.2412643-.3701172l-2.7242584-12.8971558c-.0269547-.1295013-.1327896-.2274628-.2636185-.2452087l-3.6439514-.4923859c-.1689529-.0213776-.3286972.0962982-.3517075.2678833-.0230103.170929.0966415.3283691.2675629.3513794l3.4256973.4628143 2.678894 12.6815186c.0308992.1472627.1610643.248169.3056871.248169z" fill="#fff"/></g></g><g><g><path d="m75.8683624 172.8437653c.0190659 0 .0374756-.0016327.0558777-.0049286.1702652-.030899.2826843-.1932678.2524414-.363205l-1.8203354-10.0779114c-.0230026-.1268768-.1216125-.2267914-.2478333-.2511292l-1.4949265-.2902374c-.1682892-.0322113-.3339539.0772552-.3668289.2471924-.0328674.1692657.0782318.3332977.2471848.3661652l1.2852097.2494812 1.7822113 9.8675385c.0276108.1511993.1590882.2570343.3069992.2570343z" fill="#fff"/></g></g></g><g><g><path d="m89.4058456 145.2351379c1.0586014 0 1.9109879-.2612762 1.9642944-.2779694.1581726-.0495148.246048-.2173462.1968384-.3755188-.0497971-.1581726-.219101-.2440033-.3760986-.1971436-.0175781.0058594-1.8160858.5541992-3.3111267.0049896-.1540756-.0571289-.3274765.0225525-.3848877.1780853-.0568314.1555481.0228424.327774.1786728.384903.5770493.2120668 1.1828003.2826539 1.7323074.2826539z" fill="#a57555"/></g></g><g><g><path d="m90.1721115 143.0874786c.8676224 0 1.5588989-.2404785 1.6034241-.2563019.1558304-.0556488.2372589-.2267151.1816101-.382843-.055069-.1558228-.2255478-.2384338-.3825531-.1824799-.0140533.0049744-1.4956284.5155334-2.706543-.0377808-.1493835-.0685425-.3274765-.0038147-.3971939.1476288-.0691223.1508484-.0029297.3286438.1476364.3977661.5172882.2372743 1.0638657.3140107 1.5536194.3140107z" fill="#a57555"/></g></g><g><g><path d="m90.3789139 141.0851135c.8676147 0 1.5594864-.2404938 1.6040039-.2563019.155838-.0556641.2372665-.2267151.1816101-.382843-.055069-.155838-.2261276-.2387238-.3825455-.1824951-.014061.0049896-1.4968033.5155334-2.7071304-.0377808-.1493912-.0682526-.328064-.0038147-.3971939.1476288-.0691299.1505585-.0029297.3286591.1476288.3977814.5172882.2372589 1.0638733.3140106 1.553627.3140106z" fill="#a57555"/></g></g><g><g><path d="m90.673584 138.9266052c.8676224 0 1.5594864-.2404785 1.6040115-.2563019.1558304-.0556488.2372589-.2267151.1816101-.3828278-.055069-.155838-.2261353-.237854-.3825531-.1824951-.014061.0046844-1.4962158.5167084-2.7071304-.0374908-.1482162-.0688324-.328064-.0035095-.3971939.1476288-.0691223.1508484-.0029297.3286591.1476288.3977814.5172958.236969 1.0632858.3137054 1.553627.3137054z" fill="#a57555"/></g></g><g><g><path d="m90.8546066 136.7089386c.8676224 0 1.5594864-.2404785 1.6040115-.2563019.1558304-.0556488.2372589-.2267151.1816025-.3828278-.0544815-.1555481-.2255402-.2381439-.3825455-.1824951-.014061.0049744-1.4968033.5155334-2.7071304-.0377808-.1487961-.0682526-.328064-.0038147-.3971939.1476288-.0691223.1505585-.0029297.3286438.1476288.3977814.5172959.2372589 1.0638733.3139954 1.553627.3139954z" fill="#a57555"/></g></g><g><g><path d="m91.2922287 130.9089203c.760994 0 1.3684998-.2492676 1.4071655-.2656708.1529007-.063858.2243729-.2393188.1605148-.391922-.0638504-.1523285-.2390137-.2243805-.391922-.1614075-.0122986.0046844-1.2443008.5049896-2.2413864-.0284119-.1447067-.0776215-.3274841-.0237274-.405983.1230316-.0785065.145874-.0234375.327774.1224365.4059753.4493333.2404787.9232713.3184053 1.3491746.3184053z" fill="#a57555"/></g></g><g><g><path d="m91.2840271 133.5861664c.760994 0 1.3684998-.2492676 1.407753-.2656708.1523132-.063858.2243729-.2393188.1605148-.391922-.063858-.1520233-.2384338-.2249603-.391922-.1613922-.0122986.0046844-1.2443085.5055695-2.2419739-.0284119-.1452866-.0776367-.3274841-.0237274-.405983.1230164-.0785065.145874-.0234375.327774.1224365.4059753.4493333.2404938.9232713.3184052 1.3491746.3184052z" fill="#a57555"/></g></g><g><g><path d="m91.7239838 128.1147919c.5167007 0 .9267883-.131813.9531479-.1403046.1570053-.0518494.2425308-.2208633.190979-.377861-.0509644-.1570053-.2173386-.2428284-.377861-.1921539-.0076141.0020523-.8172302.2598114-1.4710236-.0181656-.1540756-.0650253-.3286514.0058594-.3936768.1584702-.0650253.1523132.0058594.3286514.1581726.3933868.3140106.1335678.6444168.1766281.9402619.1766281z" fill="#a57555"/></g></g><g><g><path d="m91.7239838 124.9530563c.5167007 0 .9267883-.131813.9531479-.1403046.1570053-.0518494.2425308-.2208633.190979-.377861-.0509644-.1567154-.2173386-.2437057-.377861-.1921539-.0076141.0020523-.8172302.2603989-1.4710236-.018158-.1540756-.0653229-.3286514.0055618-.3936768.1584625-.0650253.1523209.0058594.3286514.1581726.3933868.3140106.1335679.6444168.1766282.9402619.1766282z" fill="#a57555"/></g></g><g><g><path d="m91.4586029 122.0942001c.4797974 0 .8564835-.0691299.8810883-.0738144.1628647-.0304642.2700729-.186882.2396088-.3497467-.0304642-.1625671-.1845398-.2683105-.3497467-.2398987-.0082016.0020523-.8564835.1561279-1.5524521-.0228424-.1593475-.0424728-.323967.0556488-.364975.2158737-.041008.1605225.0556564.323967.2161713.3652725.3110809.0799638.6397323.105156.9303054.105156z" fill="#a57555"/></g></g><g><g><path d="m91.8680954 118.9134216c.2794418 0 .497963-.0398331.5120163-.0427628.1628647-.0304642.2700729-.1865845.2396088-.3494492s-.1892242-.2686005-.3491592-.2401886c-.0046844.0005798-.445816.0802536-.8002396-.0105438-.1587677-.0424728-.323967.0556488-.364975.2161713-.041008.1602249.0556488.3236694.2161713.3649673.1833648.047165.3761062.0618058.5465774.0618058z" fill="#a57555"/></g></g><g><g><path d="m91.7509308 116.1301346c.2788544 0 .496788-.0398331.510849-.0427628.1628571-.0304642.2700653-.186882.2396011-.3494492-.0298767-.1628647-.1839523-.2686005-.3497391-.2401886-.0035172.0011673-.4464035.0802536-.7984924-.0108414-.1611023-.0407104-.3239594.0556564-.3655548.2158813-.041008.1605148.0556488.323967.2155838.3652649.1839523.0471574.3772736.0620958.5477524.0620958z" fill="#a57555"/></g></g><g><g><path d="m91.4246216 112.8995667c.2337494 0 .4177017-.0448151.4487457-.0530167.159935-.0412979.256012-.2041626.215004-.3640976-.041008-.1605148-.2091446-.2560043-.3638-.2167511-.0902176.0222549-.3679047.0659027-.574707-.0055695-.1558304-.0536041-.328064.0298767-.3807907.1865845-.053894.1570053.0298843.3274841.1862946.3810883.1593474.0544815.3239668.0717621.4692534.0717621z" fill="#a57555"/></g></g><g><g><path d="m91.2769928 109.6886215c.2343369 0 .4182816-.0448151.4493332-.0530167.159935-.0412979.256012-.2038651.215004-.36409-.041008-.1605225-.2050476-.255722-.3638077-.2167587-.0902176.0222626-.367897.0659027-.5752869-.0055695-.1569977-.0527267-.3274765.0295868-.3807907.1865921-.053894.1569977.0298767.3274765.1862946.3810806.1593475.0544816.3239669.0717622.4692535.0717622z" fill="#a57555"/></g></g><g><g><path d="m91.2769928 106.6258926c.2343369 0 .4182816-.0448151.4493332-.0530167.159935-.0412979.256012-.2038651.215004-.36409-.041008-.1605225-.2050476-.2565994-.3638077-.2167587-.0902176.0225525-.367897.0661926-.5752869-.0055695-.1569977-.0530167-.3274765.0298767-.3807907.1865921-.053894.1569977.0298767.3274765.1862946.3810806.1593475.0544817.3239669.0717622.4692535.0717622z" fill="#a57555"/></g></g><g><g><g><path d="m85.739151 140.7822418s2.644371-9.4655762-1.4342117-23.6615372-6.9608002-19.0683365-6.9608002-19.0683365 4.5273056 19.279808 3.3429108 25.2551041z" fill="#a4b17c"/></g></g><g><g><path d="m85.6506805 138.240921s.2426376-21.0974579 19.282814-26.2184525c0 0-11.5396118.638031-18.3787918 13.3320847.0000001 0-1.1885833 10.592453-.9040222 12.8863678z" fill="#a4b17c"/></g></g><g><g><path d="m86.2435837 141.4669952s-1.7295685-28.1540909-33.4326439-29.4445267c0 0 25.7283058 2.9750748 32.7957344 29.3528671z" fill="#a4b17c"/></g></g><g><g><path d="m85.5180893 140.756485s1.6277237-9.2049713-5.8950195-22.938446c-7.5233307-13.7340698-14.3115845-16.9811172-14.3115845-16.9811172s12.8420258 16.774437 14.0264206 25.4593964z" fill="#5d6a24"/></g></g><g><g><path d="m85.4647675 140.6863861s-12.430542-19.4852982-38.1804848-13.8490906c0 0 20.232357-8.0583191 35.6780205 5.8381042z" fill="#5d6a24"/></g></g><g><g><path d="m85.4647675 140.6863861s4.2882614-11.1573944 2.9750671-24.6021042c-1.3125992-13.4453125-2.3574066-15.9512863-2.3574066-15.9512863s-1.3653183 24.8213654-2.1411362 27.088913 1.5234757 13.4644775 1.5234757 13.4644775z" fill="#5d6a24"/></g></g><g><g><path d="m85.0699692 139.5870667s1.4929199-13.8952255 15.1131744-17.8851395c0 0-11.9182434 1.6660538-15.3755722 13.0415115z" fill="#5d6a24"/></g></g></g><g><path d="m142.2827606 118.9244385s7.8511353 23.5248566 5.3583221 37.3477325c-2.4927673 13.8229065-1.0766907 16.6193695-1.0766907 16.6193695l12.6453552.1529846s17.0762482-6.4207001 18.1257477-14.4509888c-1.0998688-7.4215698-1.9015503-14.9329834-3.897171-22.1724091-.9194489-3.335434-2.2688293-6.521347-3.6810455-9.6654587-.8799591-1.9590912-2.0405426-4.6346283-4.3144684-5.1509247-.2689056-.061058-.5454712-.0866547-.8207245-.0837479-3.7679443.0398256-19.3795165 3.2087786-22.3393249-2.5965574z" fill="#381952"/></g><g><path d="m169.022934 173.1239319c-1.6582031 4.0613098-8.8672791-.7367554-9.5445404-13.3068085 0 0-1.9238434-7.7167816-6.5228424-9.5869904 3.0488739-2.9697266 6.6496429-2.6875458 7.2964478-7.9568024 1.6248932 2.6071625 2.3334045 3.1501465 3.5604095 6.2220001-.0000001.0000001 6.8692932 20.5679322 5.2105255 24.6286012z" fill="#f09997"/></g><g><path d="m152.0166016 82.9695816s-27.3355484-8.7105713-27.1085281-20.2959175c0 0-13.2500916 7.5748482-14.6889267 17.5699043l1.1351242 4.8463516s-4.0347214 21.6321716 13.8037033 25.0754318c1.3133926 3.2150345.3362503 6.0708237.3362503 6.0708237s1.124649 1.9037552 5.8011856 1.7153397c4.6761017-.1879807 6.4890442-2.4890213 6.4890442-2.4890213-1.5053711-1.9505157-1.5074921-4.9314575-1.3811951-6.5019073 5.1087952-2.1333084 11.4089661-7.0293808 13.4171906-18.2674408-.0000001 0 5.8306884-5.4515839 2.1961517-7.7235642z" fill="#f09997"/></g><g><path d="m124.2519836 100.528923s.4867783 3.7429886 3.9668579 3.4876404c3.4805145-.2553024 4.166153-4.6407318 2.8876495-4.2551651-4.4809798 1.3513718-6.8545074.7675247-6.8545074.7675247z" fill="#fff"/></g><g><path d="m161.2857056 45.3813248c-6.0422821-5.7797165-16.4632721-9.8955269-26.5341949-5.5169601-12.5113449 5.4398193-7.9201584 17.2879143-7.9201584 17.2879143-11.4961319 1.7368164-14.2434845 9.1203575-15.2877579 10.8460045-1.0447311 1.7256393-3.053833 6.7905197-3.053833 6.7905197-1.9454346 2.5056763-2.7859421 5.6780472-3.0141449 8.7980804-.3984604 5.4482651.6846237 11.356842 2.8279877 16.3700256 1.7014084 3.9794769 4.1061783 7.8442535 6.9489899 11.1196289-3.1428375-4.0527115-6.4509125-15.4657516-6.4509125-15.4657516-1.9310379-8.367691-2.6086884-16.2650146 5.6552429-22.0945129-.9780502 1.3463287-2.271759 3.0175095-4.4320755 6.42173-4.4073105 6.9448929.9348526 20.3670425.9348526 20.3670425-2.8712997-10.0164413-2.0699387-16.0932312 6.0100403-25.1752548 2.3132706-2.5999222 3.9359741-4.6626434 5.0752563-6.2838974.5596161 1.4942627 1.3694382 2.8981323 2.3914108 4.1283798 3.1067581 3.7399063 8.0127335 4.9304047 11.9659958 7.508461 2.2183685 1.4466705 4.316864 3.0996475 6.1349335 5.0309906 4.4066925 4.6812515 5.8096008 10.2197037 6.7796631 16.3695068 0 0 1.041748-9.5875168-4.4900208-16.4132767-1.9586945-2.4168701-4.8365631-4.2374039-7.3500366-6.0415726-2.7532349-1.9762421-5.6858368-3.6553802-8.4781952-5.5617676-2.2261658-1.5198517-4.3430405-3.6715088-4.9505386-6.3800964-.1137543-.5069962-.1715164-1.0220413-.1919937-1.5403137.0662537-.1258926.1277161-.2464066.1842346-.3611221.212677 2.4070511 2.7187271 7.326561 16.8963776 13.6603241 10.5465393 4.711586 6.7682648 14.7059021 9.4529724 12.8266602 3.3473511-2.3430939 5.8573608-5.6439743 7.0135498-9.5707092.5601044-1.9023209.8328857-3.8832321.895401-5.8628845.0171661-.5435715-.4385834-5.4603424-.3406677-5.5112686.0018921-.0009842 4.379364-2.2778778 7.4434357-7.093277 3.0651702-4.8163873 1.9264525-12.8729363-4.1158143-18.6526032z" fill="#381952"/></g><g><path d="m120.2672577 172.9831238h-12.8204346-21.9098968c11.734581 9.849472 26.8683167 15.7811737 43.3873291 15.7811737s31.6518707-5.9317017 43.3864594-15.7811737z" fill="#d59970"/></g><g><path d="m120.2672577 172.9831238h-12.8204346c-.5962372-2.0011139-1.1114502-5.1145325-.6934891-9.4315033 0 0-4.5029297-13.8926544-3.4264526-24.1319275 1.0773239-10.2401428 2.2032776-12.1952057 6.3215027-14.5997925 4.1182404-2.403717 8.91716-4.0141602 8.91716-4.0141602s-.0196304.0639725-.0545959.1876602c-.3403397.0673828-2.1222382.8018036-3.4759293 8.740593-.797554 4.6777802 1.827095 16.6204987 4.4654007 26.7975159-1.0653839 1.2786255-2.2041245 2.5069427-3.0170288 3.0067902 0 0 2.6877747 12.9569244 3.7838669 13.4448242z" fill="#381952"/></g><g><path d="m149.9282684 115.4608994c-5.4198914.9186783-12.1406097-.063118-12.1406097-.063118s-.4981537.9928818-4.8424225 2.16745c-4.3442688 1.1754227-7.4073563-1.3494263-7.4073563-1.3494263-1.6957397 4.045723-6.9689331 4.7707672-6.9689331 4.7707672s-.0204697-.0008545-.0579987.0068283c-.3403397.0673828-2.1222382.8018036-3.4759293 8.740593-.797554 4.6777802 1.827095 16.6204987 4.4654007 26.7975159 2.3337784 8.9990387 4.6777878 16.6179504 4.6777878 16.6179504l24.5268707-.2141113.3710632-13.684494s.0289917-8.6109467-.7148132-11.9171295c-.7438049-3.3061981 6.2353516-2.1290588 9.807663-4.2947998 3.5723419-2.1665955 7.1233215-18.7726135 7.1233215-18.7726135-1.9371337-5.6834566-9.9441527-9.7240831-15.3640441-8.8054124z" fill="#fff"/></g><g><path d="m101.8908234 175.8730316 22.4882965 3.978241s6.3069763.3881989 1.9409943 2.620224c-4.3664474 2.2315826-21.6383286 9.8970337-21.6383286 9.8970337z" fill="#8c8eb6"/></g><g><g><path d="m141.3488922 86.3986893s-.0025482.0042648-.0076752.0128021c-.0844421.1373291-.8896637 1.4185181-2.2962494 2.4642868-.5859985.4367294-1.2769165.831665-2.0642242 1.0858536 0 .0008545-.0008545.0008545-.0008545.0008545-.1416016.0460587-.2866211.0878525-.4341736.1236801-1.7477875.4256439-3.1901855.0835953-4.1045837-.2874603-.6832428-.2763672-1.0713654-.5689392-1.0713654-.5689392s.0366821-.5535889.2576141-1.2991028c.3249969-1.0995026 1.0491791-2.6169739 2.6468201-3.3931961 0 0 .0059662-.0025558.0170593-.0076752.0827332-.0349731.4682922-.1902161 1.0551453-.2934265 1.3298187-.2345734 3.6934509-.2013092 5.9393768 2.097496.0204621.0213242.0417939.0426483.0631104.064827z" fill="#fff"/></g><g><path d="m131.3438721 89.1871109c-.2458649-2.9850998 2.1728058-5.3136597 5.0873871-5.4056473 1.9071045-.0463791 3.7861481.8733292 5.0331421 2.2974548.0009918.0005417-.4390259-.0182343-.438858-.0180588.1459503-.1780014.3074646-.340416.4710999-.5007095.5028534-.4737167 1.0322571-.9189606 1.5998535-1.3155746.1046753-.0739365.243927.0591049.1675568.167572-.536499.746521-1.121521 1.466774-1.8162537 2.070961-.1238098.1287079-.3321075.1325531-.4391937-.0184326-.3487549-.3688507-.7921295-.6989059-1.2260742-.976059-1.8147583-1.1637497-4.0376129-1.3915405-5.9146729-.2371368-1.3755493.8607864-2.1271973 2.3434296-2.4816437 3.9362411-.0017395.0121384-.0135956.0206451-.02565.0179214-.0092012-.0019912-.0157167-.0096663-.0166932-.0185317z" fill="#35284c"/></g><g><path d="m141.3954315 83.2303848c-.318222.6461868-.6848145 1.2801819-1.1823883 1.8041077-.2539825.2420197-.6442261-.0696335-.4690247-.3695602.1882782-.3077545.4281158-.5750198.677887-.8337326.2524567-.2607346.5126495-.511734.7995453-.7378998.091217-.0733414.2239075.0325393.1739807.1370849z" fill="#35284c"/></g><g><path d="m137.9650879 87.6645279c0 .9041672-.3778687 1.7196274-.9843445 2.2971039 0 .0008545-.0008545.0008545-.0008545.0008545-.1416016.0460587-.2866211.0878525-.4341736.1236801-1.7477875.4256439-3.1901855.0835953-4.1045837-.2874603-.4563599-.5024033-.7540436-1.1506805-.8137512-1.868042.3249969-1.0995026 1.0491791-2.6169739 2.6468201-3.3931961 0 0 .0059662-.0025558.0170593-.0076752.1629181-.025589.3301086-.039238.4998474-.039238 1.7528991 0 3.1739807 1.4210816 3.1739807 3.1739731z" fill="#381952"/></g><g><circle cx="133.75" cy="88.724" fill="#fff" r=".716"/></g></g><g><path d="m122.8100128 89.0770798s-.3275375.3599625-.9468079.7583084c-.5885773.3787308-1.4398575.7924271-2.5257111.9681473-.4461136.0725021-.9314575.1040573-1.4543381.076767-.1518402-.0076752-.3019638-.0213242-.4495316-.0400925 0 0-.0008545 0-.0008545-.0008545-.8205719-.1040649-1.5729141-.3633728-2.2305679-.6832428-.6209793-.3019562-1.156662-.6567993-1.5848541-.9843521-.6593704-.5024109-1.0628281-.9382858-1.1293564-1.010788-.0059662-.0068283-.0093842-.0110931-.0093842-.0110931.0170593-.025589.0332642-.0503235.0494766-.075058.6755676-1.0167618 1.4296112-1.7153625 2.177681-2.19133.6678848-.4247894 1.3323669-.6730118 1.9337311-.8129044.0008545-.0008469.0008545-.0008469.001709 0 .4981308-.1151505.9536362-.1560974 1.3332138-.1603622.5962372-.0076752 1.0039673.0733566 1.0918274.0921249.0110931.0025635.0179138.0042648.0179138.0042648 1.7136612.4657288 2.7073898 1.821991 3.2311249 2.8421631.3556978.6917725.4947282 1.2283021.4947282 1.2283021z" fill="#fff"/></g><g><path d="m122.785881 89.0391235c-.6439896-1.4990616-1.6584396-2.8164825-3.1698761-3.4065552-2.0601349-.7854691-4.2002487-.1485214-5.7675705 1.3321838-.3748779.3528671-.7493591.7597656-1.0233688 1.1868744-.0758133.167572-.2838364.203537-.4280777.0997009-.7950134-.4645309-1.5035095-1.0635147-2.1695099-1.6973419-.0915375-.0915756.0134506-.2496033.133522-.1957855.6313705.2842026 1.2343445.6233444 1.8164597.9953461.1905746.1270981.3794556.2566681.5559387.4044418.000145-.000206-.4287491.1000214-.4278336.0993195 1.0335312-1.7520218 2.9038925-3.0870132 4.9592361-3.2414856 2.0439148-.1785736 4.2125702.8864212 5.0901642 2.7827911.2502365.5165024.4274673 1.0663452.4724121 1.6320267.0009384.0117264-.0078201.0219955-.0195465.0229263-.0102233.0007478-.0186309-.0054015-.0219497-.0144424z" fill="#35284c"/></g><g><path d="m111.9894409 84.8785324c.6297607.349617 1.244957.7469482 1.7437668 1.2696915.229248.2655792-.1012344.640007-.3921738.450264-.2981262-.2031784-.5532608-.455864-.7993927-.718071-.2479858-.2649765-.4859009-.5371857-.6976776-.8348618-.0687713-.0947265.0435181-.2220383.1454773-.1670227z" fill="#35284c"/></g><g><path d="m126.4633102 85.6252747c.0674362-1.3024216.0250397 5.9594727-2.3164139 7.9340515 0 0 1.1800995 2.4881363 4.7515869 2.2753906 0 0-3.8204727.889389-5.5046387-1.3551788-.6564102-.8740311-.9766998-1.4228363.1552048-2.1041412 1.8044129-1.0862504 2.8463746-5.4475861 2.9142609-6.7501221z" fill="#e55e4a"/></g><g><path d="m144.82901 85.4822159c-.0671539-1.4568634-.1376495-2.3899918-.1912537-2.9590073.0711975.006546.1901093-.0990295.0389404-1.0197144-.2035217-1.2395401-6.2170868-.6040039-9.2702942.0919342-3.0531921.6959381-6.7659302 2.3461533-6.7659302 2.3461533l-.9667053-.1845932c-.7211838-.1377029-1.4628677-.1270294-2.1797867.0313797l-.9952545.2199173s-3.7950821-1.4508514-6.8809128-1.9837646c-3.0858459-.5329132-9.1246719-.8483887-9.2621155.4001999-.1020966.9274139.0222626 1.0265274.0930176 1.0162125-.0233383.5710526-.0442123 1.5066147-.0339508 2.9649811.0197067 2.7927628.8272095 4.9470596 2.0571976 5.4883194 2.957283 1.3015137 6.683136 1.2297668 9.2283859 1.0626373.1549683-.0102158.3069611-.025444.4558182-.0457153 1.3045425-.1776428 2.3729095-.7421112 3.1804657-1.6818314.5792084-.6740341 1.327652-1.9190674 1.6039047-4.0228348.102829-.783226.1100311-1.4504776.1003494-1.8482742l.125-.0362167c.9262772-.2683563 1.9074936-.2839813 2.8418503-.0452576l.1629791.0416412c.0114441.3977509.0540466 1.0636749.1983032 1.8403397.3875122 2.0861435 1.2009735 3.2897034 1.815155 3.9320526.8562927.8955307 1.9530945 1.402504 3.2652435 1.5106583.1497345.0123367.3023071.0194855.4576111.0214615 2.5505066.0318146 6.2749176-.0942917 9.1589661-1.5509186 1.1995241-.605774 1.8915559-2.7998963 1.7630159-5.5897599zm-20.4823608 1.6607971c-.1428452 1.0769043-.5128403 2.5928116-1.4644089 3.6989212-.7911301.9196167-1.8751907 1.4305344-3.2210007 1.5190887-5.1837463.3404541-7.5898819-.4152603-8.9487686-1.0132751-1.1480179-.5052185-1.6863251-2.9180374-1.7006378-4.9460449-.0112305-1.597496.0157928-2.5641403.0411148-3.1001053 7.5150986-1.5042267 13.9924698 1.2891312 15.3869476 1.9538727.0126725.350914.0169525 1.0565185-.0932464 1.8875427zm18.45018 3.3960037c-1.3252563.6693039-3.6878662 1.551651-8.8824005 1.4867859-1.3486023-.0169983-2.458252-.4696579-3.2970734-1.345993-1.0089264-1.0540466-1.4588623-2.5481796-1.6586609-3.6159897-.1541443-.8240051-.1873169-1.5288391-.1932831-1.8799286 1.3572235-.7378159 7.6772156-3.8710022 15.2615662-2.7677536.0537109.5338593.132019 1.4977188.2055969 3.0935593.0933228 2.0259094-.316162 4.46389-1.4357452 5.0293197z" fill="#fff"/></g><g><path d="m120.3005219 88.4407501c0 .9186707-.3676453 1.753746-.963028 2.3627853-.4461136.0725021-.9314575.1040573-1.4543381.076767-.1518402-.0076752-.3019638-.0213242-.4495316-.0400925 0 0-.0008545 0-.0008545-.0008545-.8205719-.1040649-1.5729141-.3633728-2.2305679-.6832428-.6209793-.3019562-1.156662-.6567993-1.5848541-.9843521-.0528793-.2354279-.0801849-.4802322-.0801849-.7310104 0-1.0218811.4529419-1.9371338 1.168602-2.5572586.527153-.4572067 1.1975937-.7531967 1.9337311-.8129044.0008545-.0008469.0008545-.0008469.001709 0 .0912552-.0085297.1842346-.01194.2772217-.01194 1.8680419.0000001 3.3820953 1.514061 3.3820953 3.382103z" fill="#381952"/></g><g><circle cx="116.051" cy="89.065" fill="#fff" r=".716"/></g><g><path d="m139.5415649 164.9378052c-2.6131744-.0045319-5.2256012.0116425-7.8427429.0485382 0 0 .0140228 2.1569214.1387329 4.9766998-.5199585-.3008423-3.3434143-1.7659912-3.894577 1.5409393-.5552597 3.3316498 1.749527 7.2155457 4.4273224 5.4993286.3679352 3.0697479.9364624 5.6077271 1.8144684 5.9342804 1.8320923.681839 3.728775.7062531 4.5007019.681839.7719269.0244141 2.6686249 0 4.5007019-.681839 2.3753357-.8834686 2.4859314-17.9512482 2.4859161-17.9512482-2.0433502-.028778-4.0869751-.0449981-6.1305237-.0485381zm-9.6100769 9.1072082c-.7181854-2.6516266-.1105652-3.6456604.8838806-2.4859314.3833466.4473877.7992859.6886902 1.1470337.7665253.0518341.8347015.1137238 1.6890106.1877441 2.5329895-.7539367.3518219-1.6330566 1.3481293-2.2186584-.8135834z" fill="#e55e4a"/></g><g><path d="m138.7660522 173.8225403s0-3.6523285 1.9453888-2.4089966c1.9450378 1.2433472-1.1528168 4.6621704-1.8012848 6.2940674-.6481171 1.6315155-3.4581146-2.6421204-2.3773499-5.3615417 1.0807801-2.719452 1.9453889-.6216736 2.2332459 1.4764709z" fill="#ff7061"/></g><g><path d="m104.6817856 192.3685303-9.6243515-56.8831482s-.4018173-3.8583832-3.40979-3.8583832-55.5015221-1.4556274-55.5015221-1.4556274-2.6197777-.6792297-2.1348686 1.9409943c.485363 2.6197815 10.3823853 49.1945343 10.3823853 49.1945343z" fill="#6767a4"/></g><g><path d="m63.8578873 154.6194611s0-4.3746185 2.5130768-2.885376c2.512619 1.4892273-1.4892273 5.5841522-2.3269196 7.5387726-.8372383 1.9541626-4.4672356-3.1646118-3.0710907-6.4218445 1.3961601-3.2572479 2.5130806-.7446289 2.8849335 1.7684479z" fill="#8c8eb6"/></g><g><path d="m164.775116 120.1813354-14.3614807-.9311142-15.2546997-1.091301c-.4809723-.0346832-.8985443.3262405-.9352417.8064804-.0118103.156517-.0237427.3120956-.0348663.4661484-.972168 13.2821045.7484283 16.4796753.7484283 16.4796753.2961121.8591614.6506348 1.704834 1.0622406 2.5198822.1007385.2004089.2050781.3985138.312973.5942993 1.9976044 3.6366882 5.1644745 6.5704498 9.346756 7.2775116 1.0342407.1751251 2.0150604.272644 2.9460602.2993774 13.1382751.3734894 16.2853241-13.4443359 17.3927765-24.9845505.0710449-.7383727-.4827729-1.3885497-1.2229462-1.4364089z" fill="#6767a4"/></g><g><g><path d="m163.7542877 131.8889008c-.0514984-.0453186-.1166229-.0661774-.1803284-.0623474-.0633392.0038757-.1253662.0332184-.1706848.0847168-1.0890656 1.2323151-2.1781006 2.4642487-3.2675781 3.6965179-.2694244.3049622-.5396881.610199-.8087158.9152222-.0818176.0921936-.1628571.184494-.2447205.2770691-.0122833-.0129395-.0249176-.0263062-.0372162-.0392456-.1119843-.1146393-.2239685-.2292786-.3355255-.3442535-.3478241-.3572083-.6951599-.7151337-1.0429535-1.0723267-.8194275-.8426819-1.638504-1.6849518-2.4583893-2.5273132-.1861877-.1915283-.372345-.3834534-.5589142-.5750275-.0943756-.0967255-.1866913-.2236328-.3381348-.2168732-.1291656.0054626-.2280579.1213226-.3171387.2015839-.0278778.0247345-.0553131.049118-.0831909.0738525-.2348022.2106628-.4706726.4204102-.7054596.6310577-.9819031.8790588-1.962738 1.7590332-2.9442444 2.6381226-.3180237.2848969-.6360016.5694122-.9536285.8543549-.08638.0774231-.17276.1548462-.25914.2322693-.0557861-.0754852-.1107941-.1508789-.1665802-.2263641-.2421112-.3255463-.4837952-.6510315-.7258911-.9765778-.8582611-1.1553497-1.7172546-2.3111877-2.5755157-3.4665375-.253952-.34198-.5079041-.6839752-.7619171-1.0255737-.0360413-.048996-.072113-.0976105-.1082001-.146225-.0245514-.0325928-.049469-.0656128-.0736389-.0981598-.0299988-.039978-.0608215-.0895386-.0992584-.1218109-.0266113-.022171-.0569305-.0396423-.0900574-.0503387-.0578766-.0184021-.1197205-.0171204-.1761322.0049896-.0402374.0157318-.0802612.0461273-.115921.069931-.0421753.0285339-.0844269.0578766-.1266022.0864258-.0421295.0281677-.0830841.0564728-.1248627.0850677-.3776703.2548218-.7556458.5088043-1.133316.7636261-1.0750122.7255707-2.1508789 1.4517975-3.2261963 2.1769257-.3553314.2397003-.7105865.4790344-1.0658875.7187347-.101532.0684967-.2022705.1370697-.3037872.2055664-.033371-.0546112-.0679474-.1093597-.1013184-.1639709-.1359558-.2214966-.2715607-.4425507-.4075012-.6640472-.5411224-.8820801-1.0822754-1.7637787-1.6237793-2.6459198-.5113373-.8334503-1.023468-1.6669922-1.5351562-2.5008698-.0678101-.1105347-.2123566-.1448517-.322937-.0766754-.1109161.0677643-.1448517.2123566-.0770416.3228912.9806824 1.5986023 1.9606171 3.1967163 2.9416504 4.7957611.2332001.379837.4663544.7600555.6995392 1.140274.0254822.0414124.0508575.0835876.0767365.1250458.0326996.0537415.0704803.1278534.1204834.1690216.0500183.0411987.1135406.0622406.1780243.0585022.0952301-.0059814.1797791-.0780792.2554626-.1291046.0313568-.020752.0627136-.0415192.0941162-.0626526.0305481-.0208588.0606995-.0413513.091217-.0618286.2623749-.1769104.5242767-.3530884.7862701-.5300446 1.0240936-.6901398 2.0485992-1.3802338 3.0726929-2.0703735.4554901-.3071747.9114075-.6143036 1.3668671-.9210815.1544189-.1040649.3092651-.2084503.4636841-.3125153.0211182-.0144653.0422058-.0289307.0632629-.0430298.0395203.0529785.0785522.1066895.1180725.1596527.1568756.2117462.314209.4231567.4710999.6348877.458786.6187897.91745 1.2387543 1.376236 1.8575439.6639862.8960266 1.3280182 1.7916718 1.9919891 2.6876831.0605927.081604.1216125.1628418.1822662.2440491.0479126.0654449.096283.1301575.1442413.1952057.0364227.0490417.0725098.0976562.108551.1466522.0758972.1024017.1422882.2214508.2859802.233139.0238647.0020752.0462036.000412.0696564-.0039062.1015167-.0190735.2029266-.1294708.275528-.1943207.0274963-.024765.0553589-.0494995.0828552-.0742798.2076569-.1854553.4153137-.3708954.6226196-.556778.7886505-.7049255 1.577774-1.4105835 2.3664246-2.1154938.4565582-.4082642.9135132-.8164673 1.3700562-1.2247314.1519165-.1360016.3042755-.2723236.4566193-.4086456.0239105-.0212555.0478363-.0428925.0717468-.0641632.0201111.0202026.0398865.039978.0596161.0601349.1119232.1150208.2238312.2304382.3353882.3454285.3477631.3575745.6955414.7151642 1.042923 1.0727081.7693329.7920074 1.5392303 1.5829163 2.3086395 2.3745422.2112122.2170715.4215698.434433.6324005.6514587.0249634.0259247.0499725.0514526.0749817.0769958.0640106.0661774.1526642.1776276.2457123.2061768.0331726.0102997.0679169.0140686.1022644.0110779.124649-.0107727.1938477-.1064606.2688904-.1915588.035202-.0396729.0708313-.0796814.1060333-.119339.2575073-.2913818.5154572-.5830841.7730255-.8748322 1.1717377-1.3248138 2.3430786-2.6496735 3.5148468-3.9748688.0905914-.1026152.0817413-.2598418-.0212098-.3508604z" fill="#fff"/></g><g><path d="m164.7206268 129.2704468c-.0289764-.007431-.0593109-.0094757-.0905762-.0037384-.8211975.15065-1.6479187.268631-2.4734497.3796234-1.3920288.1870117-2.7875214.3360596-4.1852722.4433136-1.488205.1146088-2.9789886.1838226-4.4691467.1811676-1.1396179-.0021667-2.2796021-.0439148-3.4130859-.1520844-1.2940216-.1234741-2.5804443-.3345795-3.8557281-.5870667-1.3364868-.2641754-2.6646881-.5732117-3.9852448-.9125671-1.6575317-.4259949-3.30336-.8976517-4.9399719-1.4037781-1.0306702-.3188477-2.059906-.6466217-3.079071-1.0040131-.1131897-.0396576-.2364349.028595-.2752838.1524277-.0388184.1234512.0207062.2555313.1342621.2952271 1.0236664.3591309 2.0578918.6878815 3.0931396 1.0080795 1.6607666.5141602 3.3315887.9931488 5.0133362 1.4264069 1.3095398.3372498 2.6256409.644043 3.9504395.9083862 1.2885895.2568512 2.5879669.47229 3.8954468.5989532 1.2858429.1248474 2.580246.1661224 3.8733215.1578217 1.4248962-.0087128 2.8504791-.0778503 4.2733154-.1907959 1.3416138-.1064758 2.6812286-.2511444 4.0176849-.430191.8321838-.1117706 1.6647034-.2294464 2.4929047-.3808594.1250763-.0229492.2122345-.1516876.1934662-.2867737-.0140687-.1013183-.0843354-.1773528-.1704866-.1995391z" fill="#fff"/></g></g><g><path d="m116.0648117 159.072876s4.0458984-2.6429291 7.5510406-9.3095093c3.5056-6.6661072 6.8427505-10.6048584 8.7837448-14.2094269 1.9405212-3.6045685 4.4908295-8.1113129 7.1482849-8.9844131 2.6570282-.8731079 4.9398956-1.645874 5.0429535-.3323593.1035156 1.3135223-.3341675 1.8084259-1.8460846 2.1012726-1.5114899.2928467-2.9012909.6815033-4.3314819 2.5671082-1.4297485 1.8851471-1.3838959 2.2665253-1.3838959 2.2665253s1.8892365-2.6592712 4.4899292-3.0833435c2.6011658-.4245148 3.3898163-.2987518 3.3898163-.2987518s.6742401 1.4660797-.6960297 2.0177307c-1.3698273.5521088-4.4345551 1.2535858-5.7753143 2.9621124-1.340744 1.7089844-1.7176056 2.2515564-1.7176056 2.2515564s2.9657593-2.5085297 5.210495-3.0215912c0 0 .8762817-.304657.8000031.8762817s-.4572144 1.5618744-2.4000244 2.8572388c-1.9428101 1.2948914-2.5139771 2.0949097-3.1237488 3.9237518-.609314 1.8283997-2.0949097 3.7711945-3.6186523 5.0665741 0 0-6.3809814 17.8884583-7.8742981 22.3684082s-2.924881 4.8704224-5.2645187 4.1734772c-2.3396302-.6964875-10.1630936-6.7328645-4.3846131-14.1926423z" fill="#f09997"/></g><g><g><path d="m147.5806274 108.9169693s-2.7260132-5.8979034-7.566925-5.3971024c-4.8404694.5007935-5.1741791 1.3353119-5.1741791 1.3353119s4.3955078 7.7340088 11.4057922 5.3970947z" fill="#a1af7b"/></g><g><path d="m154.2826843 115.7202072s-.5691071-6.8879623 6.2030792-6.8696747c6.7718964.0188904 6.7726746 6.2379684 9.6517792 7.1118469 2.1077728.5346222 3.1107025-.3009415 3.1107025-.3009415s-3.9192963 5.9388428-9.5371704 1.8495178c-5.6178589-4.0893248-9.4283905-1.7907485-9.4283905-1.7907485z" fill="#434c0f"/></g><g><path d="m145.7663422 112.7323151s-4.7995911 3.742691-12.8370819.0428696c0 0 1.2248535-3.7503052 4.9497833-4.3204117 3.7252502-.569519 6.1651306 1.4235458 7.6437531 2.6108475 1.4786376 1.1873016.2435455 1.6666946.2435455 1.6666946z" fill="#434c0f"/></g><g><path d="m149.7715607 111.2614136s.6212769 5.9796906-5.7875061 8.8391647c-6.4092407 2.8590393-9.4581146 1.2261734-11.3049011 3.8473129 0 0-.4499664-7.3866043 4.3538513-9.9645233 4.8042907-2.5779571 8.9190063-3.6546707 12.7385559-2.7219543z" fill="#a1af7b"/></g><g><path d="m155.0404968 111.2857971s-6.1570435-2.5191193-8.9558716 3.70784c-2.7987976 6.227562.4894867 11.0547943.4894867 11.0547943s6.2975006-3.2183533 7.836441-8.186058c1.5395661-4.9676972.6299439-6.5765763.6299439-6.5765763z" fill="#5d6a24"/></g><g><path d="m158.3245697 114.8691788s-5.2571259-2.6772995-7.5111694 1.8830185c-2.2545624 4.560318 7.2634888 8.9485474 12.0098114 11.4303894 0 0 3.1895905-1.7044601 4.0594788-7.0297241.8693848-5.325264-1.9307556-7.9980927-4.0709229-8.1154709-2.1406403-.1173783-3.3885193-.3227845-4.4871979 1.8317871z" fill="#a1af7b"/></g><g><g><path d="m151.3056335 105.8156433s-2.1504364-3.6393585-6.085556-4.9869003c-3.9347076-1.3474731-6.593277-2.3422394-7.0241394-3.1779327-.430954-.8352661.0727844 6.896286 4.2369537 8.4493027 4.1646729 1.5526733 5.2595978 2.569931 5.2595978 2.569931s-4.1604462-2.4127045-9.3089142 2.8353882c0 0 2.4854279 4.1336899 7.1600189 3.3110886 4.6744995-.8221817 6.8579407-2.3919601 6.8579407-2.3919601s1.7553406 3.4555054 7.8200836 2.9539719c6.0643158-.5016098 7.8470764-1.6644287 7.8470764-1.6644287s-5.9410858-.9800797-8.6737518-3.5484161c0 0 7.145752.0286636 10.08255-3.2242126 0 0-8.3206177-3.4270401-12.6797791-.6084824 0 0 2.21521-2.8540497 1.4549255-6.1723251-.7602844-3.3182831-.8919373-4.31147-.8919373-4.31147s-4.7358551 3.6601028-5.4355469 7.0207825c-.6992033 3.3603283-.6195219 2.9456631-.6195219 2.9456631z" fill="#ff7061"/></g><g><g><circle cx="154.548" cy="107.499" fill="#ffd394" r=".791"/></g><g><circle cx="152.009" cy="107.16" fill="#ffd394" r=".791"/></g><g><circle cx="153.06" cy="110.383" fill="#ffd394" r=".791"/></g><g><circle cx="151.153" cy="109.185" fill="#ffd394" r=".791"/></g><g><circle cx="155.307" cy="109.178" fill="#ffd394" r=".791"/></g><g><circle cx="153.119" cy="108.547" fill="#ffd394" r=".791"/></g></g></g></g><g><g><path d="m183.8499146 164.6311646-13.406723.272171-14.2489624.1933899c-.4492798.0058289-.807251.3769073-.8018951.8293304.0018768.1474457.0035706.2940063.0058899.4390869.1876068 12.5093689 2.0470734 15.3652344 2.0470734 15.3652344.3453674.7805939.7438354 1.5438995 1.1927643 2.2740021.1099548.1795654.2230682.3566742.3392639.5313416 2.1526337 3.2448273 5.3328705 5.7386017 9.2728882 6.0673523.97435.081543 1.892746.0947113 2.7590942.0455933 12.2255859-.696701 14.0127258-13.8806915 14.0936279-24.7704163.0053405-.6967774-.5620576-1.2612305-1.2530213-1.2470856z" fill="#8c8eb6"/></g><g><g><path d="m181.9260864 181.6138153c-.045166-.0325012-.0993805-.0441742-.1504974-.036026-.0508118.0081482-.0985413.0367432-.1310272.0818939-.7812958 1.0809174-1.5626068 2.1615295-2.344223 3.2424316-.1932678.2674866-.3871918.5352783-.5801544.8027802-.0587311.0808868-.1168213.1618042-.1755524.2430267-.0109406-.0094757-.0222015-.0192566-.0331421-.0287323-.099472-.0836487-.1989441-.1672974-.2980957-.2512512-.3090363-.2607269-.6177368-.5220642-.9267578-.7827759-.7281494-.6151733-1.4559784-1.2300415-2.1844635-1.8449097-.165451-.1398163-.3309174-.2799683-.4966736-.4197998-.083847-.0705719-.1684113-.1656799-.2901001-.1482239-.1038208.0146484-.1744385.1159973-.2399902.1878357-.0205383.022171-.040741.0440369-.0612793.0661926-.1728058.1886444-.3465424.3766174-.5193481.5652466-.7227936.7873077-1.4446564 1.5752716-2.1671448 2.3625793-.2340851.2551575-.4681702.5099792-.7019348.7651367-.0635834.0693359-.1271667.1386719-.1907349.2079926-.0510101-.056488-.1013947-.1129761-.1523895-.1694794-.2212219-.2435455-.4420776-.4870911-.6632843-.7306519-.7842712-.8644409-1.5691833-1.7292023-2.3534546-2.5936432-.2320709-.2558746-.4641418-.5117645-.696228-.767334-.0329742-.0366821-.0659332-.0730591-.0989227-.109436-.0223999-.024353-.0451202-.0490417-.0671997-.0733948-.0273895-.0298767-.0561981-.0674286-.0897827-.0904388-.0232239-.0157776-.0490875-.0274811-.0766602-.0334778-.048172-.0102692-.0979919-.0043335-.1417694.0179749-.0312195.0158844-.0611115.0435944-.0880127.0656281-.0317688.0263824-.0635529.0534058-.0953217.0797882-.0317688.0260773-.0625916.0521698-.0940399.0785522-.2846222.235611-.5695343.4705658-.8541565.7061615-.8101044.6708069-1.6208649 1.3422241-2.4312744 2.0127106-.2677765.2216187-.5355225.4429474-.8032837.664566-.0765076.063324-.1523743.1266632-.2288818.1899872-.0312653-.0414276-.0635071-.0828705-.0947723-.1242981-.1272888-.167984-.2542572-.3356628-.3815308-.5036469-.5066528-.6690216-1.0133057-1.337738-1.5202637-2.0067749-.478775-.6321411-.9581757-1.2642975-1.4372559-1.8967438-.0634918-.0838318-.1828766-.1000824-.2667236-.0362854-.084137.0634918-.1000671.1828766-.0365753.2667084.9182129 1.2124786 1.8358002 2.4246216 2.7543182 3.6374207.2183228.2880859.4366455.5764771.6549835.8648529.0238495.0314178.0476685.063446.0718384.0948486.0306549.0407715.0670166.0975952.1106567.1268768.0436249.0292664.0965576.0412292.1483154.0330963.0763702-.0123749.1389008-.0772705.1959381-.1244507.0236664-.0192413.0473328-.0384827.0709839-.0580292.0230103-.0192566.0457306-.0381927.0687256-.0571289.1977386-.1635742.3951569-.3265381.5925903-.4901123.7718201-.6381836 1.5439758-1.2763672 2.3158112-1.9145508.343277-.2840271.6869049-.5680389 1.0301819-.8517456.1163635-.0962219.233078-.192749.3494415-.2889862.0158997-.0133514.0317841-.0267029.0476532-.0397339.036087.0396118.0718689.0798798.1079559.1194916.1434021.1584625.2871399.3166199.430542.4750671.4193268.4630585.8386536.927063 1.2579956 1.3901215.6069183.6705322 1.2138367 1.3407593 1.820755 2.0112915.0553741.0610504.1110687.1217804.1664429.1825256.043869.0490112.0880432.0974121.131897.1461029.0332794.0366974.0662689.0730743.0992279.1097565.0693817.0766296.1324005.16745.2492981.1654968.0194397-.0002136.037323-.0033264.0559082-.008667.0804291-.0234375.1535187-.1205902.2069855-.1786804.0202179-.022171.040741-.044342.0609741-.0665131.1528931-.1661377.3057861-.3322754.458374-.4987335.5806274-.6314392 1.1615906-1.2635193 1.7422333-1.8949738.3361053-.3656921.6725464-.731369 1.008667-1.0970612.1118317-.1218109.2239838-.2439117.3361359-.3660126.0176086-.0190582.0352173-.0384064.0528259-.0574646.0178223.0147095.0353546.0290985.0528717.043808.0994568.0839539.1989288.1682434.2980804.2521973.3090057.2610321.618042.5220642.9267578.7830963.6837006.5782471 1.3677826 1.1555481 2.0514984 1.7334747.1876831.1584473.3746948.317215.5620575.4756622.0222015.0189362.0444031.0375671.0666199.0561829.0569.0483551.1372986.1312714.2146454.1469421.0275879.0056763.0559235.0059662.0834198.000824.0997467-.0185699.1480103-.1012878.201828-.1759186.0252686-.0348053.0508575-.069931.0761261-.1047211.1847382-.2555847.3697968-.5114594.5545502-.7673492.840683-1.1621094 1.6810303-2.3242493 2.5217133-3.4866791.0649718-.0900111.0453643-.2162013-.044922-.2814937z" fill="#fff"/></g><g><path d="m182.4984436 179.4238892c-.0239868-.0036926-.0486298-.0029602-.07341.0041656-.6508179.186676-1.3087158.3474274-1.9661865.5024567-1.1086731.2612762-2.2231445.4921875-3.3427582.6895447-1.1920319.2104645-2.3897247.3845062-3.5926361.500473-.9199524.0885925-1.8433228.1452637-2.7667236.1477966-1.0541687.0029297-2.1091614-.0654755-3.1584473-.1681671-1.0996094-.1072693-2.1960754-.2514038-3.2887878-.4206238-1.3715363-.2124329-2.7372589-.4626312-4.0982666-.741394-.8571167-.1756287-1.7137909-.3585815-2.5646667-.5662537-.0945129-.0230255-.1885529.0418243-.2101135.1448517-.0215454.1027069.0369873.2045898.1317749.2276306.85466.2087097 1.7154236.3920593 2.576355.5684204 1.381134.2833252 2.7676086.5374756 4.1592712.7538452 1.0836487.1683807 2.170166.3116608 3.2603607.4199982 1.0603638.1051636 2.1261597.1760406 3.191452.1746216 1.0476837-.0011597 2.0956573-.0704498 3.1386261-.179657 1.1493225-.1199799 2.2944183-.2887726 3.4338226-.4927216 1.0743561-.192276 2.1440887-.4152222 3.2085266-.6656799.662796-.1561737 1.3253784-.3171387 1.9818115-.5049896.0991211-.0284424.159256-.1392517.1334076-.2467957-.019394-.0806579-.0821228-.1364441-.1534119-.1475219z" fill="#fff"/></g></g><g><path d="m165.7914276 162.8557892s-4.4841614-2.7637787-7.6215668 2.0415039c-3.1374054 4.8052673 2.3455505 11.8423309 4.8508911 15.2153473 0 0 4.8137817-3.0950012 7.9648743-7.516098 3.1510925-4.4211273-.3614502-7.9892426-2.5485229-8.9115906z" fill="#434c0f"/></g><g><path d="m167.1209564 166.4643707s-4.0081635-8.3620911 5.8218079-13.9646606c9.8295441-5.6024323 11.5731354-3.0442352 12.1955414-6.2950134.6222534-3.2511749 3.0259247 6.1009369-6.1715698 10.7381744-9.1973572 4.6376343-11.6296082 5.5996857-11.8457795 9.5214996z" fill="#434c0f"/></g><g><path d="m173.2048492 162.6141357s-5.3517761.9599609-4.0762939 8.6856537c1.2754822 7.725708 10.1071472 5.1027527 14.2538757 4.8781891 4.147171-.2245941 7.6461334.804718 8.5158386 1.4661865.8701324.6614532-1.7008209-6.7102814-1.8267365-10.2449341-.1259308-3.5350647-2.0793915-8.6973267-7.3433838-9.5873413-3.4909819-.589859-7.4839782-.5795288-9.5233001 4.8022461z" fill="#a1af7b"/></g><g><path d="m163.4100494 159.8081512s5.16745 4.6635437-1.9192963 8.7629547c-7.0863495 4.0993652-12.800354 5.6882629-13.8958893 9.4973907 0 0-1.4590912-8.5657349 1.1841431-14.2763977 0 0 4.4494781-9.0071869 11.7880859-6.0368805z" fill="#a1af7b"/></g><g><path d="m150.4433899 152.9885712s6.1689148-5.4947815 13.3907776 1.5371399c7.2216492 7.0316162 5.4621124 9.1555023 8.3984375 8.8860168 2.9366302-.2697144-4.4757233 4.0959167-10.7151642-2.632843-6.2397614-6.7285309-7.663559-8.5731659-11.0740509-7.7903137z" fill="#a1af7b"/></g><g><g><path d="m165.3968658 156.8170013s-2.362381-4.4795074 2.1379547-9.7033539c0 0 2.735672 3.2018585 1.4181824 8.5049744 0 0 1.089325-4.2044373 6.3822174-6.1186066 0 0 2.1797943 4.4260864-2.3804321 7.6621094 0 0 5.3289032-2.8362274 11.2487183-.7555695l3.8452454 1.999054s-4.3213806 5.368988-16.1472778 2.0389099c0 0 2.8739777 3.2068481.6102448 7.9189148-2.2642059 4.7120514-4.2990112 5.9705963-4.2990112 5.9705963s-4.7349701-4.0192413-3.3024139-8.7180176c1.4320984-4.6987762.9989319-4.2541809.9989319-4.2541809s-.2779236 1.1895142-5.2098694.9944305c-4.9324036-.1950989-9.2204285-2.6734009-11.2301483-2.0602875-2.0092621.6131287 4.5122986-3.1917419 7.7928009-3.2466583 3.2800598-.0549774 5.6477051.7774658 5.6477051.7774658s-3.337616-.8246307-4.58078-5.5830536c-.0000003.0000001 5.3418576.3498079 7.0679318 4.5732728z" fill="#ff7061"/></g><g><g><circle cx="170.027" cy="157.742" fill="#ffd394" r=".847"/></g><g><circle cx="167.285" cy="157.79" fill="#ffd394" r=".847"/></g><g><circle cx="168.915" cy="161.034" fill="#ffd394" r=".847"/></g><g><circle cx="166.704" cy="160.072" fill="#ffd394" r=".847"/></g><g><circle cx="171.101" cy="159.398" fill="#ffd394" r=".847"/></g><g><circle cx="168.683" cy="159.081" fill="#ffd394" r=".847"/></g></g></g></g><g><g><path d="m162.5402222 144.723877c.0007629-.7747955.3595428-4.2947693-1.1576538-5.1887817-.0246124-.0144958-1.1265717 1.1941681-2.7882843 2.5335083-1.1705017.9434509-2.6187592 1.9517365-4.1638336 2.6430511-2.8198395 1.261673-6.8627014 1.8021088-9.1040344.8986664-1.5924072-.6419373-4.0529938-1.4614563-5.3447266-1.882309-.4285431-.1396332-.7887421.3398438-.5391235.7151337.2968292.4462891.8433228 1.0559082 1.8379364 1.8541718 2.5391846 2.0373993 9.4811707 6.4628754 14.6033325 3.510437 2.7036743-1.5581818 5.1364136-2.8114319 6.8313599-3.6477356-.1137391-.4754639-.1754609-.9592896-.1749726-1.436142z" fill="#f09997"/></g><g><path d="m158.1689911 143.0389252s-.0497894-3.8321228-1.9581604-5.6375732 1.0649414-3.1674805 1.4557343-2.0570984c.3907776 1.1103973 2.8041687 2.8466797 3.7160034 4.1908417.91185 1.344162-.0715485 4.5340881-.6495819 4.7048798-.5780182.1708068-2.5639954-1.2010499-2.5639954-1.2010499z" fill="#f09997"/></g></g><g><g><path d="m148.6534119 76.6027908c-1.5500336-1.2803268-3.5070648-1.8568039-5.2603912-2.7454147-3.4111938-1.6446381-6.5623016-3.7929916-9.397644-6.3037872-1.7646637-1.5852661-3.6244354-3.368454-4.1319885-5.7765198-.1112213 2.593689 1.6083069 4.8224487 3.2647858 6.6532593 1.3932495 1.5243454 2.9601898 2.9022217 4.6387939 4.1044922 1.5435486 1.0940857 3.1873627 2.0545425 4.905838 2.8458099 1.2491302.5924301 2.6467896 1.0438461 3.8799591 1.6105347 3.0878601 1.4403839 5.1480408 4.5208664 5.588501 7.8994522.3960875-3.1111298-1.05925-6.3384857-3.4878541-8.2878266z" fill="#6767a4"/></g><g><path d="m142.5037384 59.8405838c-.1098175-1.5185966.0049591-3.0406609.1934204-4.5485954.2239838-1.6817703.572403-3.347435 1.0908661-4.9628716.9927063-3.0638847 2.8005676-6.6899529 6.3588257-7.1279068-6.0699768.1040344-8.1474304 9.8077126-7.9195099 14.6318169.0276489.662529.0819855 1.3269997.2011871 1.9783134-.2677307-.1035881-.5358582-.205162-.8041992-.3044395-1.0455627-.3834991-2.2011414-.7792511-3.2575989-1.1154213-1.479599-.4717484-2.981842-.923233-4.5057068-1.2600555-.2721405-2.852829-.3547821-5.7500076.3943481-8.5305023.7379761-2.7618103 2.3090515-5.33078 4.709198-6.9640388-1.3145294.6354675-2.444397 1.6529541-3.3148804 2.8435211-2.6542511 3.5978241-2.8208008 8.4400749-1.7958527 12.6494102-1.2862091-.2839775-2.5877686-.4864426-3.9046326-.5474663 3.7767792 1.0195045 7.6052704 2.6461906 11.256958 4.0253563 2.6229095 1.0164986 5.2384796 2.131649 7.6814117 3.5316849 1.9646149 1.1357193 3.7699432 2.4865417 5.3993073 4.0874252-.6266327-.9638824-1.3731689-1.8565598-2.19664-2.6769714-2.6999052-2.6153413-6.1034849-4.3557015-9.5865019-5.7092591z" fill="#6767a4"/></g><g><path d="m159.7851105 48.4499817c.0439758.8500824.0706329 1.6839066.0499878 2.5124588-.0915833 2.857914-.7402802 5.6910095-2.0049286 8.2552414-1.2290192 2.5243835-3.0331421 5.0333176-5.7906799 5.9730606 3.9056244-.2088852 6.5622711-4.166256 7.7404633-7.5397987.2731934-.8225975.4820709-1.6739235.6195221-2.5288582.0211029-.1620636.0596161-.4828606.0808868-.645462.0336456-.2285652.0579529-.7294769.0741882-.97089.0608825-1.7162896-.1675873-3.4514924-.7694397-5.0557519z" fill="#6767a4"/></g></g></g></svg>