<svg id="Слой_1" enable-background="new 0 0 230.3999939 230.3999939" height="512" viewBox="0 0 230.3999939 230.3999939" width="512" xmlns="http://www.w3.org/2000/svg"><g><circle cx="116.992" cy="120.639" fill="#ffd394" r="68.987"/></g><g><path d="m105.3238831 157.385437-.2317963 3.1520538-.2126312 2.870575-.5943375 8.0714264-.0017471.0296173-.0087204.1150208-.133316 1.7943573-.2135239 2.8993378c-.0740585.9925537.0871429 2.1673126.4409637 3.324585-3.6592484-.4984894-8.6265411-1.3498535-14.0487366-2.7738495-11.0762177-2.908905-13.1877518-2.9768524-18.3877258-2.8104401 0 0 2.6379013-8.2945099 3.559906-11.3655243 0 0-11.4099808-.8200226-18.032177-5.7193451 0 0-.0200424.0662079-.0575066.1925812-.5133018-.3633881-.7930336-.5873566-.7930336-.5873566s3.5023766-10.9908142 10.3529015-20.6003571c5.524147-7.7489777 14.9123611-4.799118 14.9123611-4.799118.0165558.1054688.0331039.2091675.0496597.3128662 1.552063 9.2818756 9.3611908 10.8975525 9.3611908 10.8975525l.1071854.3999939.0566406.21875.5307236 1.9999847c.9777679 4.5359344 4.7110748 8.544632 9.2557297 8.4618225 4.1367951-.0749207 5.6801453 3.3289795 4.0879899 3.9154663z" fill="#6767a4"/></g><g><path d="m160.0016479 175.8175812-.5734253-6.3982239-.0758209-.8496704v-.0008698l-.2884369-3.2113037v-.0008698l-.3189697-3.5616455-.343338-3.8387756v-.0008392l-.1141663-1.2784424v-.0008698l-.1002197-1.112854v-.0008698l-.0461884-.5158997-1.5145721-16.9088593c-.0784454-.8888855-.8244171-1.5686188-1.7159119-1.5651398l-35.5981064-.1045685-.4758072-.0017395-10.3127975-.0305176c-.9342194.004364-1.7080612.7241974-1.7777786 1.655777l-1.0492401 14.2326202-.1298447 1.765564-.0941238 1.2671051-.0705719.9594727-.041832.569046-.0366135.5002289-.2317963 3.1520538-.2126312 2.870575-.5943375 8.0714264-.0017471.0296173-.0087204.1150208-.133316 1.7943573-.2135239 2.8993378c-.0740585.9925537.0871429 2.1673126.4409637 3.324585.7163315 2.3459625 2.2239532 4.6213226 4.1681747 5.1590424 4.8374557 1.335907 12.662262 4.1097565 23.5955429 4.0409088 10.4766388.0392303 18.0164795-2.0845184 22.6761475-4.0688171 3.4204713-1.4570618 5.5180665-5.2522735 5.1930085-8.9559631z" fill="#381952"/></g><g><path d="m121.2758865 122.6622696c-.6649094 5.1032486-2.0775604 9.9494247-.1298447 12.6073685-.5708084.3869171-1.1808243.7860565-1.8335495 1.1982422l-10.7886047-.0322571c-.9342194.004364-1.7080612.7241974-1.7777786 1.655777l-1.0492401 14.2326202c-.4470673.2612-.3241806 1.0710297-4.4609756 1.1459503-4.5446548.0828094-8.2779617-3.9258881-9.2557297-8.4618225l-.5307236-1.9999847c-.0139389-.0732117-.0261536-.1437988-.0392151-.2117767-.0061035-.002594-.0121918-.0043335-.0174255-.0069733-3.4439926-1.2540283-5.287117-2.9803619-5.287117-2.9803619-2.3599091-2.4435577-3.6932373-5.321106-4.3145981-8.3677216.0610199.0217896.1054688.0383453.1333389.0505371.0226593.0087128.0348663.0139313.0348663.0139313-1.9355011-7.7402573 6.3145676-26.3606491 6.3145676-26.3606491 2.4435654-3.6670914 9.4709778-5.3978119 9.4709778-5.3978119 6.7267838-1.5180664 9.7864532-3.4866943 11.1624832-5.0858002-2.1716614 8.1358948 3.6566238 13.7751083 7.1694717 16.8190918 3.9102097 3.3873443 6.0365754 4.7529068 5.1990967 11.1816406z" fill="#f09997"/></g><g><path d="m183.713089 180.7212677c-5.9502869-9.7559204-23.4970551-18.2291107-24.9680939-18.9262695l-.343338-3.8387756v-.0008392l-.1141663-1.2784424v-.0008698l-.1002197-1.112854v-.0008698l-.0461884-.5158997-1.5145721-16.9088593c-.0784454-.8888855-.8244171-1.5686188-1.7159119-1.5651398l-35.5981064-.1045685-.4758072-.0017395c1.1965027-.562088 2.2239532-1.105896 2.0130692-1.3934631-2.2204666-3.0309143-.6047821-7.7725067-.0087204-11.0744629.9542389-5.2801361-1.3324585-7.061409-4.7624969-10.3476639-4.4148102-4.2291794-10.548111-9.9232559-7.1712189-18.9890137-1.37603 1.5991058-4.4356995 3.5677338-11.1624832 5.0858002 0 0-7.0274124 1.7307205-9.4709778 5.3978119 0 0-8.2500687 18.6203918-6.3145676 26.3606491 0 0-.0575256-.0243835-.1682053-.0644684-1.6801453-.6135101-15.6243134-4.8182831-22.8774605 21.5232239 0 0-6.4043045 22.9776611-5.388195 31.7200928 0 0-13.3184662-6.6073608-10.0644455-17.9946747 3.2522583-11.3864441 11.5903625-11.0814362 9.1494141-20.6386871-2.4400749-9.5563965-4.1681786-14.0295715 5.287117-19.8247528 9.454422-5.7943039 15.2496033-11.2844772 18.6038361-20.5358658 3.3559799-9.252243 8.0322266-17.6896667 20.4356461-23.3828888 12.4043045-5.6940994 23.9929276-3.7620697 30.8050919 1.1180801 6.8113174 4.8801575 12.1986313 4.9995346 15.7036514 11.7289124 3.5049896 6.7276382.3093414 13.6618195 4.7084503 16.8705215 4.3991089 3.210434 5.9668884 7.2287216 7.470993 13.0282669 1.5041504 5.8003998 7.0291748 6.4818726 14.6213074 8.7180328s11.4927521 7.9084473 10.7406921 16.3581085c-.750351 8.448761-1.2880249 12.9437408 3.4901733 18.5227966 4.7075959 5.4980013 3.3516083 6.9829714-.7642669 12.0687716z" fill="#ff7061"/></g><g><path d="m131.8779755 117.1963425s.8837738-15.5617981 13.6707306-16.1091537c12.7869415-.5473709 15.4625702 9.221199 15.0389709 11.7600632s-3.295578 4.8231735-11.7144012-.377861c-8.4186707-5.2001115-15.039444 2.8474959-16.9953003 4.7269515z" fill="#434c0f"/></g><g><path d="m130.1746063 87.6489868.3831787 48.7866364 4.8227234.1258698.3109741-50.0860214" fill="#d19671"/></g><g><path d="m130.7932739 106.8588333s-5.9055634-17.3759842-10.3349304-24.8711548c-1.9294281-3.2648849-3.9230118-7.3418121-7.1643524-9.5267105-3.8880386-2.6208191-7.5298462-.3340378-11.5267258.7535553-6.2158432 1.6914062-8.7344589 6.2048492-5.1247482 12.2741013 1.7083817 2.8723297 4.4987183 5.399704 7.7497787 6.3385162 6.9047775 1.9938965 14.9860992.1195526 20.1546555 6.6276855 3.0664902 3.8612824 6.2463226 8.404007 6.2463226 8.404007z" fill="#5d6a24"/></g><g><path d="m132.2507324 110.0379028c-.2598267-.9306793.2837982-2.5058136.2212067-3.5656967-.0793762-1.3441696-.3478241-2.6799622-.8066101-3.9721985-.8993683-2.533165-2.5272064-4.8646164-4.6638412-6.8316498-4.1355209-3.8072662-11.8900604-8.2121124-17.1631165-3.242012-4.0359421 3.8040695-2.1465607 7.5375977.9446335 8.2419739 3.0912018.7043762 6.354393-1.7609482 9.5315857-.9154739 3.1772003.8454666 1.3739395 3.4518814 2.1472473 5.0017319.7726288 1.5492935 8.8448944 1.9020309 9.7888946 5.2833251z" fill="#a4b17c"/></g><g><path d="m134.6459045 137.3699188s-5.0381012-6.0778961-8.0475388-7.9325104c-3.0099945-1.8544006-7.7448349-3.8596802-9.8788376 1.7903442-2.1343918 5.6507568 3.2648621 6.9512787 7.403717 6.1517639 4.1383058-.799301 8.0559541-1.2859496 10.5226594-.0095977z" fill="#5d6a24"/></g><g><path d="m130.8648224 108.4449997s2.7189789-27.9274368-1.3083038-34.5988541c-.0003662-.0006104-.0007324-.0012131-.0010986-.0018158-3.1106567-5.1511917-7.6516876-9.0129471-11.3601685-13.6495934-3.3016052-4.1279259-5.9349213-11.3494415-11.3063889-13.1270981-4.4135742-1.4605904-13.4816513-3.1221275-17.3327103 8.1333771-3.8509903 11.2554512 10.8043747 16.3321877 17.9632492 16.3853874 7.1589356.0531465 17.6716233 20.0298539 23.3454209 36.8585969z" fill="#a4b17c"/></g><g><path d="m131.888092 111.0886536s10.5021667-16.7626038 32.8362885-12.2227783c7.8674164 1.5991974 18.5415039-.1714859 20.2633514-9.456604 2.1347046-11.5114059-9.931839-16.9638367-19.5773315-15.1743851-14.4676361 2.6846924-26.1529236 15.189209-28.4839478 19.8346176-5.5108032 10.0910034-5.0383606 17.0191498-5.0383606 17.0191498z" fill="#5d6a24"/></g><g><path d="m184.9877625 89.4092712c-6.2155609-.9055634-12.5492096-1.0518799-18.8016205-.4743423-10.4661713.9814301-21.1675873 4.5130234-28.2444458 12.6429749-2.0404205 2.3328705-3.7114105 4.9649887-5.041748 7.7693176-.2928925.6141815-1.2232513.2283859-.951889-.4330368.142395-.3187637.4711609-1.005043.6068726-1.3056259.1296082-.248291.5242767-1.0162201.6640472-1.2789688.1854706-.3245468.541687-.9450989.7218933-1.2483673.1271515-.2056961.3865051-.6084671.5139465-.813179.1521912-.2505798.6308594-.9387589.8096313-1.1950302.0695343-.1022797.2057495-.2938461.2819672-.3900452 7.0665283-9.689827 18.9765778-13.8466797 30.5705566-14.590271 6.3065033-.4016114 12.6903076-.0169373 18.8707886 1.316574z" fill="#434c0f"/></g><g><path d="m116.9920959 96.6239319c.974556-.6164551 2.3279724-.6769333 3.4868622-.4289627.2768021.0539169.6081085.1504517.8735886.2365417.0992737.0362549.3969803.1491852.501709.1879349.1550827.068306.4134445.1852341.5637665.2526093.0452728.0203094.3332901.177124.3850937.2028046.1798172.0872345.4242172.2452469.5951309.3484726.0847549.05233.2110062.126503.2892914.1830292l.5572739.3861771c.176918.1358109.3505249.2746964.5260773.4121857.1500092.1121063.3618698.3076401.5041275.4287186.8298416.717041 1.5603409 1.5112 2.2499619 2.31987.2518616.2809372.5555573.6947861.7930603.9874344.1156769.1428223.2662354.3574753.3748779.5039062 1.3589935 1.8437958 2.5009308 3.808403 3.4954224 5.796402.1802216.3914642-.4965515.6472549-.733902.2611771-1.4042969-2.4464417-2.8444519-4.8870697-4.6508789-7.1503525-.6407852-.8005142-1.3258591-1.5804672-2.0882568-2.3063354-.748558-.7240295-1.5867615-1.4018784-2.5264664-1.94944-.1621246-.0988464-.4087067-.2193604-.57724-.3118744-.0836029-.0369263-.3684998-.1665878-.453392-.204483-.1240921-.0506363-.3464279-.1298294-.469162-.1778717-.1609192-.04879-.3218155-.1021957-.4850311-.1455307-1.0397264-.2666095-2.2425844-.2882617-3.2119143.167587z" fill="#5d6a24"/></g><g><path d="m94.6987991 55.5329208c3.8005066 1.28162 7.3455811 3.2844238 10.6702042 5.5598602 6.5184479 4.5238037 12.0570679 10.5170517 16.2505798 17.3947678 3.1231842 5.1187286 5.5207138 10.7394867 7.1840515 16.5555649.6673126 2.3039017 1.2221222 4.7141724 1.6720276 7.0767517.258316 1.3382797.4758301 2.7566071.6712189 4.1058426.0578308.4515228-.5822449.6069489-.6877136.1238556-.1130219-.6815186-.2199402-1.3641281-.3377075-2.0444794-.3241882-1.8273163-.7117004-3.7442627-1.1537018-5.543045-.5245972-2.1452942-1.1450119-4.3234787-1.8437958-6.4126205-4.6872864-14.2940216-14.241272-26.8929291-27.021431-34.2027779-1.7420196-.9922524-3.5325546-1.9081269-5.4037323-2.61372z" fill="#5d6a24"/></g><g><path d="m132.8605652 107.1430206s7.1343536-13.2541046 19.1246796-29.4524078c11.9909821-16.1981354 13.9082184-18.3619843 12.5933075-26.9292183-1.3142548-8.5673409-2.9693756-13.3595009-9.0321808-13.9031334-6.0628357-.5436287-.9065094.0548096-7.343689-1.0350456-6.4371796-1.0897903-7.7633209-.4407501-13.1981812 3.7561226-5.434845 4.1968727-13.8148575 14.2604942-11.772438 23.5801849 2.0430908 9.3196564 9.0226212 11.8557816 6.9297867 16.7607956-2.0928192 4.9050064-5.4314728 6.1308365-2.3405762 12.0874634 3.090271 5.9573288 5.0392914 15.1352386 5.0392914 15.1352386z" fill="#a4b17c"/></g><g><path d="m148.8217621 39.1277847c-1.3121948 2.8455849-2.4334259 5.9493828-3.4774017 8.9033279-3.8335114 11.1742935-6.63237 22.814003-8.9182587 34.4001541-.3070068 1.6899567-.9390411 5.0914688-1.2514801 6.7865295-.8712311 5.1231155-1.7059021 10.6036835-2.4452972 15.7391663-.0283203.2216644-.2352905.3795395-.457016.3449554-.215744-.0327454-.3648529-.2325439-.3365173-.4478989l.2790527-2.1102142c.2076416-1.5396805.5083008-3.7451019.7157898-5.2736206.2640533-1.9288712.864151-5.4498672 1.1623383-7.360321.3091125-1.9222641.9865417-5.3965378 1.3409882-7.3306808 2.1352844-10.7424316 4.818924-21.5448341 8.4714508-31.8726349.9266357-2.5868378 2.0102234-5.4069328 3.1030579-7.9291801.5546873-1.2506485 1.1728209-2.6399269 1.8132933-3.8495827z" fill="#5d6a24"/></g><g><path d="m132.5986633 173.5946655c-1.3385773-3.1766052-2.8379364-6.4655914-4.1676636-9.6505127.7802429-2.7570801 1.7398529-6.1353912 2.5457458-8.8687897.1793518-.6058655.9461517-3.2389374 1.1134033-3.8054047l.3013458.866806c1.2550049 3.6040497 2.615509 7.5228882 3.8258667 11.1361542-1.1274718 3.3430329-2.4805602 6.9868928-3.618698 10.3217469zm0 0c.7655334-2.4194489 1.6401672-5.4154968 2.3794708-7.8544617.2561493-.8536224.5220032-1.6983948.7867584-2.5455322l.0016479.1602631c-1.2957458-3.5446014-2.6730499-7.4342346-3.9295502-11.0016632-.0000153.0000153.5594635-.0153809.5594635-.0153809l-.8694611 2.9185181c-.8001556 2.694046-1.8182983 6.0415192-2.6525116 8.7410736l-.0078888-.160553c1.2375643 3.138031 2.4922793 6.616272 3.7320711 9.7577362z" fill="#fff"/></g><g><path d="m142.535675 172.3524933c-1.3385925-3.0090179-2.8379669-6.1244812-4.1676636-9.1413727.7801819-2.6116486 1.7398682-5.8116913 2.5457458-8.4008942.1793365-.5738983.9461212-3.0680542 1.1133881-3.6046448l.3013611.8210907c1.2549896 3.4138947 2.6154938 7.1259918 3.8258667 10.5486298-1.1275481 3.1666565-2.4805602 6.6182709-3.6186981 9.7771912zm0 0c.7655182-2.2918091 1.6401672-5.1297913 2.3794556-7.4400787.2561493-.8085938.5220032-1.6087952.7867737-2.4112396l.0016327.151825c-1.2957611-3.357605-2.6730347-7.0420227-3.9295502-10.4212494 0 .0000153.5594788-.0145721.5594788-.0145721l-.8694916 2.7645416c-.8001251 2.5519104-1.8182831 5.7227936-2.6525116 8.2799072l-.0078583-.1520844c1.2375336 2.9724883 2.4922791 6.2672119 3.7320709 9.2429504z" fill="#fff"/></g><g><path d="m122.6024323 172.9015503c-1.3385391-3.0090332-2.8379364-6.1244812-4.1676331-9.1413727.7801743-2.6116486 1.7398758-5.8116913 2.545723-8.4008942.1793442-.5738983.9461517-3.0680695 1.1134033-3.6046448l.3013687.8210754c1.2550049 3.4139099 2.6154785 7.1260071 3.8258667 10.5486298-1.127533 3.1666413-2.4805374 6.6183015-3.6187286 9.7772065zm0 0c.7655792-2.2918243 1.640152-5.1297913 2.3794937-7.440094.2561264-.8085785.5220032-1.6087799.7867737-2.4112244l.0016327.1518097c-1.2957687-3.3575897-2.6730499-7.0420074-3.9295502-10.4212341 0 0 .5594711-.0145721.5594711-.0145721l-.8694839 2.7645416c-.8001251 2.5519104-1.8182831 5.7227936-2.6525116 8.2799072.0000076 0-.0078659-.1520844-.0078659-.1520844 1.2375106 2.9724885 2.4922943 6.267212 3.7320404 9.2429505z" fill="#fff"/></g><g><path d="m151.7980804 171.9251099c-1.1962585-3.0098114-2.5564575-6.1265869-3.7470703-9.1425934.6926727-2.6078339 1.5463104-5.8050385 2.265564-8.3912811.1795807-.6445923.8541718-3.1013641 1.0240936-3.7126617-.0000153-.0000153.3050232.9304504.3050232.9304504 1.1203766 3.4111786 2.3345032 7.1207123 3.4100494 10.5391235-1.0098419 3.1651306-2.2403716 6.6180267-3.2576599 9.7769623zm0 0c.9453735-3.1726532 1.8629608-6.6747284 2.8053589-9.8442688l.0013428.1373444c-.2986145-.8668823-.6003265-1.7327576-.8930054-2.6016083-.8290863-2.4231567-1.8183441-5.3919983-2.6273956-7.8219757l.5653992-.0134583c-.9869537 3.5253601-2.124115 7.5310364-3.1572266 11.046524l-.0065155-.1373749c.2779541.7503662.5514832 1.5013123.8199615 2.2585602.7741089 2.1687622 1.6885529 4.8255463 2.4920807 6.9762574z" fill="#fff"/></g><g><path d="m113.7875748 172.7333221c-1.1289825-3.0101013-2.4236374-6.127594-3.5485535-9.143158.6513519-2.6060181 1.4550858-5.8018341 2.1334381-8.3866425.1791-.6820068.811348-3.1223755.9818344-3.7729645l.3066864.9914246c1.0568466 3.4098663 2.2018967 7.1181793 3.2138519 10.5345306-.9543075 3.1643678-2.1270904 6.6179658-3.0872573 9.7768098zm0 0c.8925705-3.1716156 1.7472305-6.671814 2.6349945-9.8408508l.0012283.1303711c-.2825775-.8670654-.5681915-1.7331848-.8447495-2.6021423-.7841492-2.4235687-1.7184219-5.3925171-2.482399-7.8225708l.5680389-.0129089c-.9319687 3.5254364-2.0065842 7.5313873-2.9849548 11.0475616.0000076 0-.0059128-.1303101-.0059128-.1303101.2618332.7499695.5189743 1.5004883.771019 2.2571259.7269517 2.1681824 1.5839845 4.8236542 2.3427354 6.9737243z" fill="#fff"/></g><g><path d="m106.8716125 146.36203c6.3710327.4902954 12.8537674.7465973 19.2428513.8353577 8.9607315.0892029 17.9972458-.2059784 26.9109879-1.1680298.7511749-.0850372 2.3125-.2525635 3.0680237-.3297577-1.4277954.2496033-3.1466217.546402-4.5667877.769928-1.4377289.1855774-3.1684723.415741-4.5969391.58078-.8856354.0830688-3.3986359.315155-4.2303009.3915405-1.2695465.0850677-2.9724579.184433-4.2405396.2636719-2.67099.1216583-5.8295441.1960144-8.4940491.201355-7.7114639-.0434265-15.4572754-.4382629-23.0932465-1.5448456z" fill="#fff"/></g><g><path d="m152.3461914 178.3598785s-.2059937-2.6296844-3.413269-2.1969757c-3.2082214.4326935-7.2247009 1.8106079-10.4497223 1.7002258-3.2240143-.1103973-15.7987595-3.834137-15.0763016-6.1996613.7224808-2.3645477 3.8765182-2.8159485 3.6527786-5.3401794-.2227554-2.524231-1.6617737-2.2985077-3.2043076-1.4232483-1.5415268.8752289-2.5025253 1.0871582-3.7976608 4.0075836-1.294136 2.9184875-2.1812057 3.1441803-3.6143265 4.2697906-1.4331207 1.1265717-4.8069534 2.6158752-5.8655243 7.1202393 0 0-.2099533-.0118408-.6042099-.0423737-2.2147217-.1695251-10.2515869-.9176331-19.653595-3.3866577-11.0765762-2.9086151-13.3849564-2.9766235-18.5851746-2.8100586 0 0 2.9939957-3.0205383 3.9543839-11.3663788 0 0-11.6068573-.8200226-18.2293472-5.7186584 0 0-.0197105.0660553-.0571747.192215-.6239166 2.1102448-6.0872955 21.0867157-3.3225784 29.509964 0 0 13.6244583 6.4026947 35.6534424 7.1931763 22.0289917.7914429 23.5734711-.6781006 27.9575882-1.6696625 4.3821564-.9915619 30.1890717-5.2948608 34.0498352-8.3197784 3.8607331-3.0258789 4.4629364-6.599823.6051636-5.5195618z" fill="#f09997"/></g><g><path d="m183.7131042 180.7214813c-6.2124634-10.1865692-24.9681549-18.9735107-24.9681549-18.9735107l-.017746.6554413-.5046539 15.2290802c-3.1234741 1.0585632-7.57164 3.1766968-11.7537231 4.7645721-4.1830292 1.5888367-4.3417053-.4238281-5.3480377-2.8583527-1.0053711-2.4364929-4.340744-5.0306854-6.0360718-6.8304596-1.6933136-1.800766-5.8763428-3.7060089-8.3118515-2.6474152-2.4355316 1.058548-7.2010727 1.746521-6.6185684 2.8583527.5825272 1.1127625.5825272 3.071228 4.5536652 2.1191101 3.9711151-.9541016 5.4002838 1.7997589 5.4002838 1.7997589s.4238281.4238281-5.7176819.953125c-6.1424713.5292816-8.8421478-4.871994-8.8421478-4.871994-2.5941772-.0522614-3.3886108 2.7538605-3.3886108 2.7538605-2.276825 1.0063324-1.5356293 4.8710175-1.5356293 4.8710175.4760742 4.8710022 8.3128738 7.1478424 8.3128738 7.1478424-4.0243683 1.0063171-4.8187943-.370636-4.8187943-.370636-1.1118011-1.9062042-2.1831741-2.7252655-3.5473099-3.7591858-1.3641052-1.0349121-4.6275558-.7086792-3.1362762 1.4764862 1.4902725 2.1861115 3.7069702 6.3800354 3.7069702 6.3800354.2552872.8367767 2.5803909 1.3463898 3.7227478 1.2724609 1.7189484-.1114044 4.4688873-1.8816071 5.8753738-1.4429779 12.7650146 3.9789734 41.272583 5.0060577 51.0845795 2.2373657 12.023819-3.3935242 13.1700897-10.1648712 13.1700897-10.1648712-.3252868-.8732604-.7589569-1.7416076-1.2813263-2.5991058z" fill="#ffa9a9"/></g><g><g><path d="m113.6353073 127.4824219c-.3913345-.4835892-.7263107-1.0063705-1.0298386-1.5472336-.0982895-.1804657-.1919632-.3633957-.2702789-.554451-.064209-.1566086.010704-.3356247.1673126-.3998337.1375885-.056427.2924957-.0053024.3716431.1140976.4384308.7003326.7599792 1.4685822 1.0099564 2.2555237.0434036.1480866-.1519699.2502518-.2487946.131897z" fill="#35284c"/></g><g><path d="m103.9381104 118.6045914c-.26091 2.5014191 1.283905 4.5098953 3.4626923 5.5492401 1.839653.9069214 4.0118332 1.0276337 5.9906845.5355453.2807999-.0725708.5687256-.1549301.8172684-.2611389.1352615-.0638733.2937851-.0196533.3779221.0977631.2872086.3999939.5474854.8185654.7998428 1.2426758.2495651.4237976.4926376.8520737.7106476 1.2977219.0248718.0508423.00383.1122055-.0470123.1370773-.041275.0201874-.0895996.0099792-.1195755-.0217667-.3402863-.3610306-.6554871-.7393951-.9641953-1.1222763-.306839-.3841553-.6059341-.7736893-.8781815-1.1818085l.3810272.1022339c-.3054657.1473846-.6001434.2497482-.9057922.3392181-2.1236038.613533-4.4944763.4694824-6.4704742-.5501709-1.1276474-.5822601-2.1662903-1.4133301-2.8159409-2.5188065-.6541138-1.1070709-.8419189-2.4908295-.41819-3.6686783.0077209-.0214233.0313416-.032547.0527649-.0248489.0205306.0075074.0301436.0277939.0265121.0480195z" fill="#35284c"/></g></g><g><g><path d="m86.7161713 109.8501205c.4660873-.1136856.9419479-.1604996 1.4191818-.1702728.1575012-.000679.3149414.0038986.4721909.0258331.1682129.023468.2855682.1788406.2621002.3470459-.019722.1414642-.1329956.2468872-.2684784.2629318-.4736023.0475082-.9480438-.0075073-1.4165421-.0816116-.1572037-.0269165-.3143692-.0577698-.4713898-.1023636-.0775223-.0220184-.1225204-.1027222-.100502-.1802444.0145951-.0514297.0552521-.0885773.1034394-.1013184z" fill="#35284c"/></g><g><path d="m96.2202988 113.6297226c-1.6608353 1.8167572-4.3559494 1.0687866-5.9806366-.4296646-1.2638397-1.153801-2.0922012-2.8326797-2.1869736-4.5470123 0-.0000992.2657852.2915344.2657852.2915115-.3739014-.0397797-.7436066-.1119919-1.1121292-.1935043-.3682175-.0837784-.7354202-.1753922-1.0987244-.2972641-.1027145-.0319366-.0875015-.1957474.0259476-.200943.7640228-.0403137 1.5257721-.016777 2.2804108.0893402.1448135.0219955.2485123.1468124.2483521.2889404.0163803.1984787.0633392.42173.1131439.6349335.3659286 1.4985962 1.2000809 2.916275 2.4453583 3.8411255 1.0435791.7898941 2.3824539 1.2552719 3.6887131.9596939.4313583-.0929565.8615341-.2566528 1.2537537-.4969406.0191269-.0148239.0485229-.0100174.060997.0111237.0096358.0157241.0074462.0354003-.0039979.0486602z" fill="#35284c"/></g></g><g><path d="m98.4823608 128.4623871c-.1247787-.4848328-.5120468-.845871-.9846802-.9832916-.0747986-.0151062-.1582184-.0365753-.2324905-.0540619l-.0811005-.009285c-.1586075-.0273361-.3313446-.0213776-.4892578-.0269012-.8512726.0465546-1.7218857.232048-2.6048813.1721725-1.5860596-.0667496-2.7840805-1.1657791-2.9135666-2.7559433-.0294876-.2632904-.04142-.5119171-.0560532-.7373657-.034523-.4158554-.0554047-.7507401-.409729-.9761124-.169754-.1177368-.3971024-.1976089-.6332474-.2790604-.0530853-.0183334-.0812683-.0762329-.0629272-.1293182.0114288-.0331116.038887-.056694.0703583-.0651855.2541809-.0665588.5240326-.0903549.81604-.0343399 1.2649994.2619934 1.076889 1.7534103 1.4577179 2.6654663.1812973.4147263.5125427.7542725.8961182.9782867.0643311.0289459.1309586.0618668.1934433.0937271.0832901.0286179.1967468.0779572.2818832.0962067 1.1619186.3337021 2.4424286-.033226 3.6158829.3510284.1295776.0372238.2661667.1044083.3874207.161377l.1814117.1136017c.0890808.0525513.1700287.1337662.2513733.1984787.034935.0382614.1102982.1186981.1440353.1585999.0613556.0810318.1274261.1751785.172348.2666016.1294556.2501373.1902466.5181274.1662979.7931976-.0039673.0457764-.0443192.0796509-.0900879.0756836-.0413817-.0035554-.0697096-.03537-.0763091-.0735627z" fill="#c14c40"/></g><g><path d="m86.9691772 126.8973541c2.6078339 3.1860352 5.3672791 5.2661743 9.4103241 6.2232819.4582062.1162109 1.1460876.2423248 1.614975.3273773.2728348.0437469.4577103.3046265.4071045.5765839-.0459824.2495117-.2723007.4202423-.519577.4026031-1.4527359-.1012268-2.9058151-.4320679-4.269783-.9647522-2.4340057-.9848785-4.6968079-2.6317902-6.0678711-4.9019775-.2930298-.5063171-.5475464-1.0352783-.6932755-1.6087799-.0089722-.035347.0123901-.0712509.0477219-.0802231.0275802-.0069046.0546341.0042648.0703811.0258865z" fill="#c14c40"/></g><g><path d="m90.6160965 142.0684967s7.3574066 4.1744537 15.9014969-1.1688538v1.2604523s-7.9507523 5.4186859-15.9014969-.0915985z" fill="#c14c40"/></g><g><path d="m76.0397415 158.506958s-2.1707153 12.8573303-4.4249191 15.4454803h2.2124634c0 .0000001 2.2959442-5.9277191 2.2124557-15.4454803z" fill="#381952"/></g><g><path d="m112.1302338 175.5339355c.3081207 1.3778229 1.1774139 2.494751 2.2957687 3.3123169 1.9192047 1.3671875 4.0098801 2.4421539 6.0184631 3.6923676-1.8851929-.4219818-3.6518097-1.2412415-5.2925262-2.2495422-1.6700287-1.0128174-3.2470017-2.6532135-3.0217056-4.7551423z" fill="#c14c40"/></g><g><path d="m129.9561157 177.1820221c-.606369-.788147-1.5561981-.9337158-2.4611969-1.154541-.9208527-.20961-1.7696304-.3698425-2.7119522-.3546143-.709465.0021515-1.5389252.0048981-2.2690125-.1863403-.5279312-.1316833-1.0370026-.3478546-1.4673157-.6904449-.6193848-.4851227-1.0970306-1.3416901-.8346634-2.1264801.1969452.9435425.9982071 1.4670258 1.8551636 1.6788177 1.3751297.3493958 2.8697052-.0528412 4.270752.3142242 1.2254334.3208161 3.4258423 1.0841523 3.6182251 2.5193787z" fill="#c14c40"/></g><g><path d="m110.8968887 181.4424438c.7614365 1.6901093 2.1926804 2.8304291 3.7953033 3.6991882 1.6100922.8802948 3.3053513 1.6997528 4.815155 2.7853394-.908989-.2514343-1.7838135-.5745087-2.6481934-.9194794-2.5217513-.9915008-5.6499098-2.518753-5.9622649-5.5650482z" fill="#c14c40"/></g><g><path d="m107.4924927 185.1171112c1.3132858 1.0014191 1.9836273 2.6310577 2.7600327 4.025528 1.8978806 3.4223328 3.7432098 3.5422668 7.2362518 2.4576263 1.8042679-.5210876 3.7298813-.4290619 5.5372696-.0237579-1.8026886-.0313721-3.6350327.0368958-5.3337708.6531372-3.7344437 1.4309845-6.1999054 1.0090942-7.9901581-2.8089905-.6856079-1.4865723-1.1227035-3.0486908-2.2096252-4.3035431z" fill="#c14c40"/></g><g><path d="m168.6865692 176.2673187c-3.2979889.4384613-6.7299042.8048401-9.8833008 1.8584442-2.0594177.7484283-4.1153259 1.8796234-6.1400299 2.7449646-2.1032867.9096375-4.34758 1.5016327-6.6053162 1.8641052-.8449554.1352539-1.6959991.2249146-2.5494843.2763977-.2845612.0141754-.5688171.0262146-.8535309.0290985 2.2026825-.56604 4.3578491-1.1919556 6.4597626-1.9536438 2.6695709-.9100494 5.1039581-2.3346558 7.7155151-3.392807 1.6007843-.658432 3.3394318-1.0659943 5.0374908-1.2553558 2.2665102-.270401 4.5452883-.3251342 6.8188936-.1712036z" fill="#c14c40"/></g><g><path d="m107.7831421 115.6704712c-.2656555.635849 1.3161163.8592834 3.3498459 1.7089767s5.4001923 3.6151886 5.6658478 2.9793396-2.4715271-3.5538177-4.4064331-4.6093597c-2.9813233-1.6264038-4.3435975-.7148056-4.6092606-.0789566z" fill="#e55e4a"/></g><g><path d="m98.2906113 109.2596893c-.3882065.5693665-1.4378891-.6348419-3.2589645-1.8764877-1.8210754-1.2416534-5.9747925-2.5560684-5.5865936-3.1254349.3882065-.5693665 4.3266678.1343994 6.2664337 1.1809769 2.9888305 1.6125793 2.9673308 3.2515869 2.5791244 3.8209457z" fill="#e55e4a"/></g><g><path d="m104.6151581 93.8981934c-4.0330811 2.3523712-8.4437943 4.1882629-13.0353546 5.1516724-2.9971542.5906219-6.6311569.8177643-8.5564346 3.4632416-1.3534775 1.8158035-1.5115051 4.1449356-1.702507 6.3318787-.7075729 6.530571-3.5342636 11.7591934-8.6946869 15.8373413-2.1676025 1.7161942-4.5800095 3.108139-7.0643311 4.2966919-1.0313873.4996643-2.1431503.9451599-3.1240578 1.490799-2.05299 1.0779572-3.1762619 3.1164246-3.5622902 5.3524017-.4025993 2.2763062-.2118607 4.6301422.1882401 6.8983612-.424057-1.5028076-.7080574-3.046936-.7891312-4.6116791-.1840248-3.291153.7027588-6.6361542 3.699131-8.4153137 1.0272675-.6413422 2.0790138-1.0862427 3.1249046-1.6417389.8431625-.4408951 1.6948166-.917717 2.5124588-1.4071884 7.2650681-4.3502884 11.5978928-9.9418106 12.4351654-18.5184631.2668228-3.4233398 1.1460114-6.6623993 4.4266052-8.3585434 2.5183868-1.2902679 5.3787918-1.2554398 8.0801926-1.8033752 4.1804428-.8170931 8.185402-2.2736208 12.0620957-4.066086z" fill="#ffd394"/></g><g><path d="m113.9562378 103.3454132c-.2419968 1.672348.7031631 3.399826 2.24897 4.0028305 1.1384811.4505386 2.3835526.4596329 3.5873871.7217407 1.023941.2097778 2.0515823.6326218 2.7739105 1.4178925.9909668 1.0954514 1.4220963 2.5668869 1.8040085 3.9286423.6424255 2.405777.8387527 4.9890442 2.2667313 7.0644989 2.3115921 3.1478271 6.7407455 4.2677765 10.4341507 3.0356293-3.6524811 2.4900742-9.128273 1.489151-11.8781738-1.9424133-1.9870682-2.4915466-2.1413498-5.7882156-2.9771576-8.7156754-.2853088-.8868713-.555336-1.8650436-1.2652512-2.4915695-.4340286-.3898926-.9947433-.6072159-1.5480118-.7889175-.8393936-.2595062-1.7315598-.4333191-2.5762558-.7393646-.5817337-.2011719-1.1567383-.4908905-1.6417465-.8735352-1.3436585-1.090294-1.9410248-3.0354005-1.2285614-4.6197587z" fill="#ffd394"/></g><g><path d="m142.3916321 115.1552505c2.891861.905983 6.2310944 2.1183624 7.7239838 4.9712296.6081085 1.1355362.6753387 2.4933395.7110291 3.7355194.0160522 3.0491486 1.8968658 5.68396 4.2012634 7.5439911 3.8250732 3.1448822 8.8844604 4.5904999 12.3210754 8.2696991 3.4571075 3.7171783 4.9921265 8.7640228 5.7999573 13.6721649.2751923 1.8458862.3796387 3.7419739.0593872 5.5885773-.1114197.6121826-.2620544 1.2160645-.4662323 1.8003845.6138458-2.4026337.42453-4.9036713-.0697784-7.3049469-.7574921-3.5727539-1.8635406-7.1383057-3.7907104-10.2613373-1.2654877-2.0704956-2.9639893-3.8027496-4.9837646-5.1479645-4.1003265-2.7409668-9.1526489-4.4745941-12.051651-8.7082672-.83078-1.1814117-1.4322205-2.561554-1.6265106-3.9989014-.1726379-1.0695953-.05336-2.2003708-.1631012-3.2537613-.4025271-3.859085-4.4917299-5.6098327-7.6649477-6.9063873z" fill="#ffd394"/></g><g><path d="m105.4732361 155.3570862-.070961.9590302-.0413895.5687103c.3025742.9560699.602211 1.8904724.8821411 2.7558441.2700653.8486328.5480194 1.6933289.8249664 2.539978.0059204-.0226593.012825-.0453339.0187454-.0679932l.0009842.1301117c-.0069046-.0207214-.0138092-.0414276-.0197296-.0621185-.8811569 3.1510773-1.7297745 6.6235046-2.6168518 9.772583.9609985-3.1589508 2.1329117-6.6126251 3.0879898-9.7765198-.6534652-2.2048645-1.3621597-4.5309753-2.065895-6.8196258zm-1.1896668 16.1516418c.0561829.148819.1123734.2966614.167572.4445038-.0551987-.1557159-.1103973-.3134308-.1656036-.4740753z" fill="#fff"/></g><g><path d="m158.4452362 166.0346375c-.2444458-.734314-1.3117981-3.4833832-1.5661011-4.2107697-.0059204.0216827-.0118408.0423737-.0177307.0630646l-.0059204-.1300812c.0078735.0226593.0157623.0443268.0236511.0670166.4573364-1.6430817.9343872-3.3916016 1.4084778-5.1470032v-.0010071l-.1005249-1.1127625v-.0009918l-.0463257-.5154877c-.5756226 2.2314758-1.196579 4.7054443-1.7199402 6.7979431.9541016 2.5577241 2.5822907 5.8548127 2.0244141 4.1900789z" fill="#fff"/></g><g><path d="m105.6968689 152.3240204-.1298447 1.765564-.0941238 1.2671051-.0705719.9594727-.041832.569046s-2.172554 1.2462006-2.3825684 1.2679901c-13.4134369 1.3951874-15.7916489-9.8439789-15.812561-14.2936249-.0052338-1.1355286.0226593-2.2727509.0200424-3.4082642 2.1193848 1.5233002 4.0313568 1.9198151 4.0313568 1.9198151l.1063156.3999786.0575104.2187653.5298462 1.9999695c.9777756 4.5359497 4.7110977 8.5446472 9.2566071 8.4618378 1.8213501-.0330964 3.3507385-.5359345 4.5298233-1.1276551z" fill="#8c8eb6"/></g><g><path d="m75.1763306 162.936554c.5608063-1.5531616 1.0048981-3.1524658 1.3506317-4.7638855-.1472931.0188293-.3002472.0150909-.4521332-.0127869-1.5144501-.2778473-5.7623367-.7315521-9.3055649-2.2735138-5.9494972-2.5891266-6.4075432-3.180542-7.588459-3.8679962-1.2931213 3.101181-1.9162788 5.6215515-1.9162788 5.6215515s4.028656 2.5131073 8.0387726 3.4289093c7.1110687 1.6239777 9.8198623 1.8612061 9.8730316 1.8677216z" fill="#8c8eb6"/></g><g><path d="m134.9438324 138.4239044s-2.7121887-6.5646515 2.2096252-11.8809433c4.9216003-5.3156509 9.5471497-4.1276016 11.8076019-.9363022 2.2598419 3.1910858-1.878006 6.3071747-5.7222748 7.0498657-3.8442687.7427064-8.5189361 3.3010712-8.2949523 5.7673798z" fill="#434c0f"/></g></svg>