<svg id="Слой_1" enable-background="new 0 0 230.3999939 230.3999939" height="512" viewBox="0 0 230.3999939 230.3999939" width="512" xmlns="http://www.w3.org/2000/svg"><g><g><path d="m111.3987885 159.1904602c-.0535736 0-.1081009-.0082092-.1619339-.0254059-.2791901-.0894318-.4331741-.3882446-.3438263-.6675262 1.9610748-6.1282654 4.6854935-12.074234 8.0974808-17.6726379 2.7289124-4.4776001 5.9013672-8.744339 9.429306-12.6815338 6.0122375-6.7097244 11.0557251-10.1923065 11.1059265-10.2266998.2418671-.1656494.5723877-.103775.737854.1381683.165741.2418671.1038666.5722122-.1379089.7379456-.0494232.0338745-5.0081482 3.4614105-10.9387207 10.0856018-3.480423 3.8874969-6.6100159 8.0993652-9.3017731 12.5188141-3.3625565 5.5207214-6.0477448 11.3830414-7.9808197 17.4240417-.0721512.2254485-.2808304.3692321-.5055847.3692321z" fill="#434c0f"/></g><path d="m139.3121796 117.7172165s-8.0240326 7.2798767 5.4102325 9.188385c10.672821 1.5161972 24.0713654-.5316238 32.0469971.3824768 1.0265045.1176529 1.5565643-1.1886139.7356873-1.8160858-5.1022186-3.9000702-13.5034485-10.3050613-17.5623322-13.3057785-6.0576935-4.4781723-21.0193176-9.3896637-20.6305847 5.5510025z" fill="#a4b17c"/><g><path d="m141.0228577 116.8111572c12.0830841.1674423 24.6556702 2.1516953 35.2135162 8.3447189.6455231.397522.0762939 1.406395-.6008148 1.0384369-10.6161041-5.751892-22.7501526-7.8492431-34.6127014-9.3831558z" fill="#434c0f"/></g><g><path d="m111.1325607 158.1226959c-.0134811 0-.0269623-.0005188-.0406189-.0014801-.2923203-.02211-.5114594-.2770233-.4894257-.5694427.519928-6.8807373 2.0118027-15.1033325 4.4342194-24.4392395 1.9354095-7.458725 4.4662704-15.6433029 7.5223312-24.3262939 5.2017899-14.7798157 10.1922302-26.0354919 10.2419891-26.1474762.1191711-.2679596.4329224-.3883286.700882-.2693405.267868.1191559.3884888.4329147.2693329.7008667-.0496826.1116409-5.0256042 11.3352585-10.2135696 26.0768814-3.045517 8.6536102-5.5669556 16.8080292-7.4944153 24.2367859-2.4059143 9.2729034-3.8868942 17.4311218-4.4019012 24.2478333-.02108.2787627-.2538681.4909056-.5288239.4909056z" fill="#434c0f"/></g><g><path d="m110.1978607 157.1883392c-.0031128 0-.006218 0-.0093307-.0000916-.29319-.0050964-.5267563-.2468719-.5216599-.539978.151741-8.77388-.5240707-19.6127167-2.0087662-32.2153473-1.1887436-10.0903549-2.8954315-21.3253708-5.072876-33.3931274-3.7079315-20.5502701-7.5459213-36.5953064-7.584198-36.7549896-.0684357-.2850685.1071472-.5716896.3923035-.6401253.2846298-.0691299.5716858.1071472.6401215.3922997.0384521.1599464 3.8834381 16.2345276 7.5967331 36.81427 2.1812439 12.0890121 3.8912125 23.3456345 5.0824585 33.4574127 1.4902267 12.6498184 2.168457 23.5366898 2.0158615 32.357933-.0050125.2899933-.2416916.5217438-.5306473.5217438z" fill="#434c0f"/></g><g><path d="m109.3962326 158.2561951c-.2721024 0-.5038528-.2080841-.5282211-.4842377-.6822052-7.7317047-3.4709167-22.5862732-12.8822556-49.4455032-5.634964-16.0817566-11.0469894-29.0080795-11.1009979-29.1367493-.1134567-.2703781.0136566-.5815353.2840271-.6949921.2706375-.1138.581543.0137405.6949997.2840271.0541763.1289215 5.4766617 13.0799637 11.121994 29.1907501 3.3166733 9.4651718 6.0607986 18.1545563 8.1562347 25.8267288 2.623497 9.6056671 4.2329636 17.6409302 4.7836533 23.8824158.0257568.2920532-.1901016.5497284-.4821625.5754852-.0158996.0013886-.0316314.0020753-.0472717.0020753z" fill="#434c0f"/></g><g><path d="m108.462059 159.3238678c-.2592316 0-.4860535-.190094-.5245972-.4542542-.7841721-5.3684692-2.6304016-11.2454681-5.4873734-17.4676819-2.2911606-4.9898224-5.2329025-10.2095032-8.7435684-15.5141296-5.9807739-9.0368347-11.6051102-15.2554169-11.6611938-15.3171158-.1971893-.2170563-.1811142-.5527649.0358582-.7499466.2171478-.1972733.5530243-.1809464.7499542.0358582.0566864.0623856 5.7357178 6.3412781 11.7608261 15.4452591 3.5407333 5.3499069 6.5091782 10.6177139 8.8230591 15.6569595 2.899231 6.3142395 4.7742386 12.28862 5.5730972 17.7573395.0423431.2901611-.1584778.5596771-.4486389.6020203-.0260086.0037994-.0518493.0056915-.0774231.0056915z" fill="#434c0f"/></g><g><path d="m110.8656387 157.5889282c-.024025 0-.0483932-.0016327-.0728455-.0050049-.2905121-.0398407-.49366-.3076172-.4538269-.5981293.9507675-6.9310303 3.3063965-14.552475 7.0016251-22.6528015 2.9502945-6.4672623 6.7571716-13.2548523 11.3148651-20.1739578 7.756424-11.7752533 15.1065369-19.9676132 15.1799011-20.0490112.1963196-.2177505.5319366-.2352905.7497711-.0389709.2178497.1962433.2353058.5319443.0389709.7497787-.0728455.0808792-7.3781128 8.2245026-15.0912323 19.9363327-4.5256348 6.8719254-8.3040009 13.6093063-11.2301865 20.0252457-3.6499557 8.0027771-5.9754181 15.5216522-6.9117584 22.3476868-.0364607.2659759-.2641524.4588317-.5252837.4588317z" fill="#434c0f"/></g><g><path d="m109.2628174 157.9892731c-.2555084 0-.4807816-.1850891-.5233002-.4455261-1.149765-7.0498505-3.8356476-15.5815277-7.9828949-25.3579559-3.3241882-7.8359985-7.5880051-16.4807968-12.672966-25.6942596-8.6632919-15.6968842-16.8139114-27.7566833-16.8952179-27.876709-.1645279-.2427292-.1011047-.5728149.1416245-.7373352.2428131-.1646957.5728989-.1010132.7373352.1416245.0815735.120285 8.2550888 12.2134399 16.9412766 27.9510269 5.1036301 9.2465515 9.3843765 17.9257431 12.7234344 25.7963867 4.1815491 9.8563538 6.8917084 18.4716034 8.0553894 25.6062927.0471802.2893982-.1491394.5622711-.43853.6094513-.0289459.0046691-.057724.0070037-.0861511.0070037z" fill="#434c0f"/></g><g><path d="m116.368309 158.819931c-.2567215 0-.4824295-.186554-.523819-.4481201-1.5689468-9.9238434-2.4728775-23.2600098-2.6865692-39.6381454-.1708298-13.0918884.0962601-28.1490784.7937622-44.7533569 1.1875305-28.2668533 3.2401962-51.5312653 3.2607651-51.762928.0260086-.2920647.2821274-.507225.5758362-.4818211.2920685.0260086.5077438.2837696.4818192.5758362-.0205612.2314911-2.0713272 23.4751644-3.2577362 51.7181702-.69664 16.584053-.9633026 31.6208572-.7927246 44.6926956.2131729 16.3262939 1.1127014 29.6105347 2.6736908 39.4837341.0457153.2896423-.1519089.5615692-.4415512.6073761-.028.0043926-.0559922.0065593-.0834733.0065593z" fill="#434c0f"/></g><g><path d="m112.1188431 150.1017609c-.273056 0-.5051575-.2416687-.5283966-.5614014l-3.9524765-54.2354889c-.0246277-.337204.1923447-.6336136.4844971-.6619339.2913742-.027626.5490494.2220078.5735016.5592041l3.9524765 54.2354813c.0246277.337204-.1923447.6336212-.4844971.6619415-.0151215.0014954-.030159.0021973-.045105.0021973z" fill="#434c0f"/></g><path d="m110.8279953 158.4536743 31.4627304-.2108612c1.6210938-.0108643 2.930191 1.3204803 2.8909302 2.9419098-.657135 27.1339264-6.0090027 60.3277283-40.5009232 57.0040436-11.7584381-1.1330719-20.4868011-10.4025269-25.0028-20.988205 0 0-4.3498459-6.860733-4.1998138-36.8419647.0052719-1.0531616.8600311-1.9049225 1.913208-1.9049225z" fill="#d59970"/><path d="m118.9265366 145.4289703s5.2929459-9.6109772 14.3468552-3.3428802c9.053894 6.2680969 1.5322113 16.4363556.2786407 19.2221527-1.036972 2.3044739-7.5070419 11.9483032-10.7368393 16.7890015-.5993423.8982697-1.9640274.7345123-2.3347244-.2797394-1.0296021-2.8170471-3.1163254-7.3865051-6.7078857-10.7984467-5.5716019-5.2929535-8.357399-12.6753998-6.4073257-17.8291473 1.9500884-5.1537323 5.8502425-6.4075317 11.5612792-3.7609406z" fill="#434c0f"/><path d="m129.3469086 131.2054443s-9.8125-6.4073029-12.8769455 4.4574585c-3.0644379 10.8647614 10.2305756 9.8896179 14.8270187 11.2826233 3.9727631 1.2037506 14.9165802 2.7197876 20.3320618 5.6269989.7964325.4275513 1.7220154-.2995911 1.5038605-1.1768036-.9525299-3.8301392-3.1186218-10.9835968-6.9317627-15.8722534-5.4323883-6.964386-13.0932923-12.3967666-16.8542328-4.3180237z" fill="#5d6a24"/><path d="m93.713768 137.8551636s-.5572968-9.471756 10.8645401-8.3573914c11.4220581 1.1143646 4.5966721 18.3864441 3.4822998 25.072403-.6834412 4.1004944-.6857376 7.8866577-.5853195 10.2016907.0492935 1.1363983-1.0748825 1.9540863-2.1408386 1.5571442-3.450798-1.2850037-10.1805573-4.263443-16.0781326-9.6695404-8.357399-7.6608887-9.4717636-10.8645477-6.4073257-16.5755768 3.0644454-5.7110291 10.8647765-2.2287293 10.8647765-2.2287293z" fill="#a4b17c"/><path d="m80.0378113 125.3552094s9.0539017-5.9894485 11.5612717 2.9252319c2.5071564 8.9146881-5.5718155 14.2076416-12.6756287 16.1577148-7.1038208 1.9500885-12.9540634 4.7358704-13.9289932 11.0039825-.9751511 6.2680969-5.4323883-15.3220062.4178543-26.6046295 5.8502426-11.2824096 13.7897796-9.6109695 14.6254959-3.4822997z" fill="#5d6a24"/><path d="m85.3735504 110.413063c-1.3955383.771698-2.4636688 2.030304-3.60466 3.1897507-3.4904785 3.546936-7.7995834 6.6782227-12.7535019 7.1502914-7.7334366.7369385-13.4754677-5.2140579-15.4325638-12.1832428-.8855515-3.1534271-.1729126-6.2505188-.4454193-9.4657364-.2906189-3.428894-1.2138252-6.5462418-1.8529205-8.3739243-.2656097-.7595901.3681259-1.5295258 1.1648026-1.4162598 3.8686333.5500488 13.2463074 1.7242126 21.3441849 1.4848022 10.5005341-.3102112 16.3115005 6.2052307 16.5206985 10.8160858.0991135 2.1845245.5283203 5.0712357-.9909821 6.8991394-.9854584 1.1856155-2.1952133 1.0962524-3.4567642 1.6540375-.1689835.0747149-.3330765.1566927-.4928742.2450563z" fill="#a4b17c"/><path d="m88.8876877 75.3458557s1.036232-7.950119-8.2887878-6.6203384c-9.3250733 1.3299865-14.3331299 18.4438324-16.4439393 21.9075165-2.1109619 3.4634018 14.3215103 3.0819092 19.8082047 2.5719604 5.4866943-.5099411 15.612648-4.2198181 14.7274704-10.9659271-.88517-6.746109-9.802948-6.8932114-9.802948-6.8932114z" fill="#5d6a24"/><path d="m72.8663864 76.7977448s7.9754257 4.8809967 11.6253586-7.0954666c3.6499252-11.9764595-22.2838669-19.6407509-24.2174492-27.0235634-.4297562-1.6408882-.6294708-1.3271103-1.321991-.283596-1.2143784 1.8298683-1.1176033 5.708252-1.4160347 7.8124847-.7399445 5.2173347-1.7512207 10.3902245-2.6026039 15.5894775-.7251015 4.4280853-1.3547897 9.0518417 1.1691093 13.0590286 2.227169 3.5360641 6.1461563 5.2946548 10.0937576 3.4195786 6.3359147-3.0096665 6.6698533-5.4779434 6.6698533-5.4779434z" fill="#a4b17c"/><path d="m144.6412506 94.6547775s1.3027496 10.4205551 10.5834808 4.5591125c9.2807159-5.8616638 18.887085-15.3053131 23.2832794-16.9334946 4.3961792-1.6281738-14.0025635-.651268-22.306366 0-8.303833.6512756-13.839859 1.465477-14.1654816 6.8385696-.3256377 5.3731004 2.6050874 5.5358125 2.6050874 5.5358125z" fill="#5d6a24"/><path d="m135.1978149 82.6060333s24.911438 19.3756561 27.6794586-13.0256424c1.6174316-18.9336357.1627197-33.2154922-.4885559-39.8911285s-5.8614502 1.628397-18.887085 7.4898376c-13.02565 5.86166-24.9116821 13.1885681-24.9116821 27.5167618s7.9781953 17.5845337 16.6078644 17.9101715z" fill="#a4b17c"/><path d="m139.7117004 102.2035522c-.0998688-.1058121-.1847382-.2272491-.2516632-.3669052-.3238525-.6758957-.3282318-1.5359955-.6704865-2.2425995-1.2202301-2.5193253-3.739151-3.2736511-6.3766632-2.7125244-6.8170471 1.4505386-5.2215881 17.4051437-4.351181 20.1608582.8701935 2.7559433 13.6338806 1.305397 18.4203491-3.6259766 1.4254913-1.4687653 2.1872101-3.3805008 1.7644653-5.4199829-.5583801-2.6938019-2.0215912-4.537384-4.8067627-4.930275-1.1916045-.1680984-2.9337768-.0209884-3.7280578-.8625946z" fill="#ff847d"/><path d="m114.4902115 128.8174591s7.9773102 0 7.3971786-8.5574341c-.5801239-8.5574417-7.1071167-8.7023544-11.7483444-9.2826996-3.6753922-.4593811-10.3519135-1.0097733-12.9719849-1.2189865-.5671616-.0452881-1.0332184.4394608-.9663544 1.0044785.4019547 3.3963089 1.585228 13.7339859 1.4647141 16.7494583-.1451492 3.6259079 4.2062454 9.2827072 11.3131409 7.6872482 7.1071091-1.5956878 5.5116501-6.3820648 5.5116501-6.3820648z" fill="#ff847d"/><path d="m90.9975586 53.9467964s-9.2826996 1.7406006-3.3358383 9.5727654c5.94664 7.8323822 17.840126 1.0153351 24.0768356-1.01511 6.2369156-2.0306702 15.9545975-3.3360634 15.9545975-3.3360634s-8.2215424-12.3988342-19.8707962-18.1301956c-13.0528717-6.0609016-19.0003815-3.6261292-21.0310516 3.1909218-2.0304413 6.8170432 4.206253 9.7176818 4.206253 9.7176818z" fill="#ff847d"/><path d="m117.3942871 21.0016041s-8.6282578-2.0515652-9.3278503 6.4111462 14.9245682 11.796505 28.4499512 10.2578316 15.6241608.7693367 15.6241608.7693367-8.3950653-12.8222885-15.8573608-20.77211c-7.4622804-7.9498444-17.9561159-8.2062903-18.8889009 3.3337955z" fill="#ff847d"/><path d="m127.8349152 88.8946304c.393692 1.423439 1.676651 2.4176559 3.1532288 2.4475937 5.1513062.1044464 16.007782-.7200775 18.9897919-9.1690979 3.9524078-11.1985245-12.9551697-9.2223129-12.9551697-9.2223129s-2.6349487-6.5873718-11.4181061-3.2936859c-7.9218369 2.9706878.2325439 12.0146255 2.2302551 19.237503z" fill="#ff847d"/><path d="m107.7856827 95.7879944s-15.6006393 5.0145187-14.9041367-6.1288986c.6965027-11.1431885 12.6938782-16.3311691 15.4798965-21.7635574 2.7857895-5.4321632 2.5071487-.0605774 8.0539932 10.1491165 3.8053895 5.773529 18.1143037 23.8722228-8.629753 17.7433395z" fill="#ff847d"/><g fill="none" stroke="#fff" stroke-linecap="round" stroke-linejoin="round" stroke-width=".928"><path d="m78.5879059 179.8114166s33.7294922 5.461319 63.1786041-1.4021149"/><path d="m79.5088882 192.4691925s31.240654 6.6004333 60.8476639-.7010651"/><path d="m113.0496674 191.4263916c-2.6216278 1.7987823-5.9234085 1.4388733-7.4450302-1.4488983-1.0724716-2.0353699-.1024094-4.8252106 2.0665665-5.6531525 1.5577164-.5946198 3.4671173.0752716 4.454689 1.4109955 1.129509 1.5276947.5611115 3.6910248-1.1757355 4.4936523-1.5322952.7080994-3.6914902-.5037994-3.3603134-2.3253937.3730164-2.0517731 3.9826965-1.8434296 3.1925201.244751-.1194077.3155518-.3806076.5743408-.6972656.6908264-.375206.1380157-.8360367.059082-1.1054993-.2362366-.2694702-.2953339-.2906723-.8031006-.0091095-1.0869141.2815628-.2837982.8354721-.2370148 1.0277176.1135254.1170502.2134094.0733566.5155182-.1265106.6544495-.1997299.1388397-.5307007.0432281-.5916824-.1921539-.2280121-.8800659.9661102.0402527.3030319.0160828-.0988235-.0036011-.1860809-.1176147-.1410522-.2053223.0197754-.0385284.0918503-.0469818.1271439-.0416107.063942.0423737.0464325.079361.0372925.1442413"/><path d="m119.6128082 192.9668427c-3.1630325-.3221588-5.4496384-2.7310333-4.7439728-5.917984.4973679-2.2462158 3.0408783-3.747818 5.2309952-2.9775085 1.5728912.5532074 2.5967331 2.298584 2.4868393 3.9561005-.1256866 1.8957367-1.9577484 3.1789551-3.8017807 2.6686554-1.6268539-.4501953-2.4909439-2.7705841-1.0607834-3.9463806 1.6108856-1.3243866 4.2303925 1.1678772 2.2776871 2.2503815-.2950897.1635895-.6616669.192215-.978569.0764008-.3754883-.1372223-.6760788-.4953461-.6907883-.8948517-.0147018-.3995209.297348-.8006592.6956329-.8351898.3982849-.0345459.7906647.3592072.7107697.7509155-.048645.2385101-.2772598.4407654-.5195618.417572-.2421494-.0231628-.4328766-.3100586-.3272476-.529068.3949051-.8188782.7111206.6551971.2208099.2081451-.0730743-.0666199-.0659485-.210022.0251007-.2478333.0399933-.0166168.1004486.0235291.123909.0504456.0214005.0736542-.0158691.0905609-.0647812.1341553"/><path d="m132.7538605 184.8334961c.6651154 3.1090546-.9248352 6.0251007-4.174469 6.3325806-2.29039.2167206-4.5007401-1.7425079-4.4404907-4.0633545.0432739-1.6667786 1.3897247-3.1772919 3.0008469-3.5819092 1.8426743-.4627533 3.6266556.8865204 3.7075272 2.7981415.0713348 1.6864929-1.8713989 3.2216187-3.4296875 2.221817-1.7552032-1.1261444-.1881714-4.384613 1.441864-2.8588715.2463226.2305756.3861694.5706329.3733215.9077759-.0152435.3995056-.2637024.7955627-.6393738.9322968-.3756866.1367188-.8532791-.0370178-1.0085068-.405426-.1552277-.3684235.0989456-.862793.4962692-.9070892.2419128-.0269623.5046082.1284485.5569916.3661652.0523376.2375488-.1620941.5071869-.4029694.4739532-.9005966-.1242523.4050751-.8780212.130249-.2740784-.0409546.0900116-.1796112.1272736-.2435608.0522461-.0281067-.032959-.0084686-.1028137.0099335-.1334076.0635223-.0429993.0910645-.0127258.147583.0204315"/><path d="m142.0685883 182.6725159c.4291992 3.0119171-1.1135559 5.947403-3.984436 6.4108276-2.0234528.3266449-3.8679199-1.4819183-3.6990814-3.7580566.1212616-1.6346741 1.3798523-3.181366 2.8157959-3.6581116 1.6423187-.5452576 3.1425629.6871796 3.1181641 2.5554657-.0215149 1.6482544-1.8053131 3.2488251-3.1246948 2.3473969-1.4861145-1.0153351.0535889-4.2850494 1.4097595-2.8720856.2049408.2135315.3108521.5396118.2827148.8704681-.0333405.3920441-.2714539.7923737-.6083832.9450531-.3369446.1526642-.7479553.0063629-.8659668-.3467255-.1179962-.3530884.1300354-.8499908.4813843-.9132233.2139282-.0384979.4370117.1006165.4711609.3308258.0341187.2300568-.1677551.5048523-.3777618.4843292-.7851715-.0767212.3997803-.880188.1281433-.2749481-.0404816.0901947-.1641846.1336365-.2166443.0633392-.0230408-.0308838-.0022888-.1002808.0153961-.1311646.0579681-.0452881.080658-.0170135.1286621.0126495"/><path d="m99.1741257 192.3240509c2.9308929-.2901306 5.0496902-2.45961 4.3958054-5.3298187-.4608612-2.0229797-2.8177032-3.3753204-4.8470764-2.6815796-1.4574585.49823-2.4061584 2.0701447-2.3043289 3.562912.1164627 1.7073364 1.8140717 2.8630066 3.5227661 2.4034271 1.5074539-.4054565 2.3081207-2.495224.9829254-3.5541687-1.4926529-1.192749-3.9199219 1.0518188-2.110527 2.0267334.2734375.1473389.6131058.173111.9067535.0688019.3479309-.1235809.6264648-.446106.6400909-.8059082.0136185-.3598175-.2755203-.7210846-.644577-.752182-.3690567-.0311127-.7326431.3235016-.6586075.6762848.0450745.214798.2569122.3969574.4814301.3760681.2243729-.0208588.4011078-.2792358.3032303-.4764862-.365921-.7375031-.6589279.5900879-.2046051.1874695.0677109-.0600128.0611115-.1891632-.023262-.2232208-.037056-.0149536-.093071.0211945-.1148148.0454407-.0198288.06633.0147095.0815582.0600357.1208191"/><path d="m86.8465347 184.9105682c-.6163025 2.8000488.8569565 5.4262848 3.8680954 5.7032013 2.1222916.1951904 4.1704254-1.5693207 4.1145935-3.6595001-.0400925-1.5011292-1.2877274-2.8615265-2.7806015-3.2259216-1.7074509-.4167633-3.3604889.7984009-3.4354248 2.52005-.0661087 1.5188599 1.7340469 2.9014282 3.1779709 2.0009918 1.6263885-1.0142212.1743622-3.9488373-1.3360443-2.5747375-.2282486.2076569-.3578262.513916-.3459167.8175659.014122.359787.2443466.7164917.592453.8396149.3480988.1231384.7906494-.0333252.9344864-.3651276.1438293-.3318024-.0916901-.7770233-.4598465-.816925-.2241592-.024292-.4675827.1156769-.5161133.3297729-.0484924.2139435.1501923.4567719.3733902.4268494.8345032-.111908-.3753357-.7907562-.120697-.2468414.0379486.0810547.1664276.114624.2257004.0470581.0260315-.0296783.0078354-.0926056-.0092163-.120163-.0588608-.0387115-.0843811-.0114441-.1367416.0184174"/><path d="m77.8809814 183.6819153c-.3976974 2.7125702 1.0318222 5.356308 3.6920166 5.7736816 1.8749466.2941742 3.5840378-1.3346405 3.4275894-3.3845673-.1123581-1.4721985-1.2785797-2.8651733-2.6091309-3.2945404-1.5217896-.4910736-2.9119339.6188965-2.889328 2.3014832.0199509 1.484436 1.672821 2.9259338 2.8953781 2.1141052 1.377037-.9144287-.0496674-3.8591766-1.3062973-2.5866394-.1899033.1923065-.2880402.4859772-.2619629.7839508.0308914.3530884.2515182.713623.563736.85112.3122101.1374969.6930542.0057373.8023987-.3122559.1093369-.3180084-.120491-.7655182-.4460526-.822464-.1982193-.034668-.4049377.0906219-.4365768.2979431-.0316238.2071991.1554413.4546814.3500366.436203.7275467-.0691071-.3704453-.7927094-.1187363-.2476349.0375061.0812378.1521301.1203613.200737.0570526.0213547-.0278168.0021286-.0903168-.014267-.1181335-.0537109-.0407867-.0747299-.0153198-.1192093.0113983"/></g><g fill="#d85c59"><path d="m107.2018051 90.2003403c.0980453-.0324936.1911926-.0705719.2885742-.1040497.0850983-.0285263.1676254-.0610809.2520065-.091095-.1793213.0665588-.3631134.1260529-.5531921.1700821-.0076141.0016861-.0102844.0095062-.0069351.0165024.0028153.0069809.0119934.0107574.0195465.0085602z"/><path d="m111.0051575 88.5952301c.3266907-.1839752.6391907-.3856659.9352188-.6056519.9886246-.7337418 1.8173218-1.6517868 2.3610764-2.705925.3274994-.6358566.5370178-1.3251114.679039-2.0270691.1540833-.7630615.2313995-1.543129.219162-2.3351974.0054169.756897-.0862198 1.498497-.3198242 2.204155-.2200623.662796-.5621262 1.2769775-.9534073 1.858902-.3897476.5805054-.8306503 1.1321487-1.3237152 1.6425552-.5582886.5775681-1.1765213 1.1077194-1.8197784 1.6098938-.4177628.3259811-.8462448.642746-1.3047867.9249725-.3827515.2351532-.7865372.4439774-1.2068024.6280823-.1730499.0756454-.3490524.1487198-.5289536.2152481.5183792-.1826401 1.0301514-.3783035 1.532341-.5890808.5925369-.24897 1.1795501-.5108871 1.7304306-.8208847z"/><path d="m107.8302002 92.0772095c.0028687.0074844.0120926.0122223.0196991.0100479.0988617-.0290451.1931992-.0660629.2914886-.0956039.0982285-.0300446.195076-.0635529.2932434-.0945435-.1938858.0645523-.3917465.1216049-.5952759.163681-.0075759.0021668-.0125045.0093765-.0091552.0164185z"/><path d="m111.8708115 90.5808411c.3556747-.1750488.6974335-.3712845 1.0233917-.583847 1.0750351-.7006683 2.0101471-1.5908508 2.6505737-2.6405869.3114929-.5104065.5439453-1.0585403.7215576-1.6268158.2892609-.9266968.4315033-1.902832.4230881-2.8931885.0000839.7261658-.0934601 1.4386978-.3241196 2.1134109-.2596283.758873-.6868744 1.4463882-1.1795959 2.0862732-.4418335.573288-.9387512 1.1106339-1.4847107 1.6044159-.6287537.5691757-1.316246 1.0850677-2.0253067 1.5751038-.3877411.2679443-.7834702.5267563-1.197052.7642975-.4458084.2555695-.9156723.4822693-1.4035721.6783066-.1874619.0751266-.376152.1487198-.5699081.215271.6131134-.1955566 1.2194138-.4056168 1.8154068-.6332703.5284195-.2015152 1.050476-.4130402 1.5502472-.6593704z"/><path d="m118.4244156 87.1915131c-.3288116.8711624-.882103 1.6201935-1.5348511 2.3061752-.5398178.566864-1.1400986 1.0863266-1.7840347 1.5604248-.7149048.5257416-1.4833145.9945068-2.2668457 1.4415436-.6006851.3431625-1.2128067.675621-1.8547211.9627228-.4349594.1939163-.8834152.3652191-1.3429031.5174484-.4330902.1433029-.8738632.2809296-1.3362579.3591995-.0082016.0011673-.01194.0094299-.0091553.0164185.0028152.0069809.0103989.011673.018013.0099792.1052094-.0263214.2082367-.05867.3127899-.0859833.2513962-.0654907.5036926-.1270447.7537689-.1950531.5645599-.1534271 1.1229858-.3209 1.6782074-.4933472.6054382-.1879578 1.2080002-.3833923 1.7872925-.6185226.4095459-.1667862.807373-.3541641 1.1898499-.5597839 1.1738663-.6317139 2.2438202-1.4325256 3.0497055-2.4173355.4389191-.5359497.785614-1.1278381 1.0551147-1.7554016.3409653-.7924347.5445709-1.63797.611618-2.5074615-.0476303.5009688-.1509704.9911117-.3275909 1.4589767z"/><path d="m118.7520065 85.7325363c.0170441-.185997.0279465-.3726807.030426-.5606766-.0008163.1880341-.0161666.3745881-.030426.5606766z"/><path d="m105.1511002 89.3554916c.4932098.2890625.9998016.5525436 1.5317764.769165-.4654236-.1955643-.9067535-.4336166-1.3042526-.7365646-.5264893-.4015121-.9513474-.8984146-1.3571091-1.3921967-.2868195-.3492813-.5612259-.7030487-.8231201-1.0657349-.2981949-.4127045-.5751038-.8354874-.861557-1.2536621-.1987839-.2900696-.3987656-.5816422-.5724716-.8831558-.1497345-.2602844-.2783737-.5261993-.3887253-.7984085-.0851974-.2102585-.1666718-.4223328-.2059555-.6393509-.0017242-.0074387-.010582-.0136719-.0182343-.0129547-.0082703.0007095-.0126266.0079269-.0109406.0148849.0181808.0518265.0396194.1028137.0578308.1546631.0501328.1420593.0894928.287674.1347275.4305649.0946274.2962494.1903458.592041.2838974.8887329.1400223.441124.279129.8841705.4839325 1.3122711.203476.425148.4587784.8348541.7516251 1.2232285.3009262.399025.6427612.7778091 1.0347519 1.1135483.3858948.3301163.8194656.6141511 1.2638245.8749695z"/><path d="m102.726593 90.4794464c.4147186.3232574.8593521.6140823 1.3362274.8533554.5190048.2599869 1.0725861.450264 1.6291504.6096573.5797043.165596 1.1638641.2978897 1.7556686.3831863-.5418243-.083519-1.073967-.2164459-1.5849152-.4328003-.5820923-.2464523-1.1118774-.5885086-1.6259918-.9418488-.4101028-.2817383-.8118515-.5755081-1.1971512-.8849258-.4809418-.3866119-.940712-.7917175-1.4031525-1.1954041-.2759705-.240593-.5511475-.4846191-.806427-.7421875-.2335739-.2366486-.4494553-.4864426-.647316-.7459717-.1617889-.2124481-.3195343-.4296951-.4327316-.6630783-.0038528-.006546-.0140686-.0093536-.0215836-.006691-.0069656.0027237-.0091324.0100403-.005249.016571.0323563.0493851.0685501.0979233.1019974.146843.0921021.1341858.1747589.2744598.2631607.4104843.1831818.2826309.370636.5634308.5569916.8442001.289093.4359894.5792847.8720474.9319763 1.2743378.3416749.3896257.7311174.7484438 1.1493455 1.0742723z"/><path d="m106.7727966 94.2198868c-.6568527-.1082535-1.2988815-.3164215-1.9320831-.5321503-.456543-.1553802-.9101028-.3214798-1.3556366-.504509-.582695-.2400818-1.1519928-.5052567-1.7196426-.7777405-.3588486-.172142-.7179871-.3477097-1.0598831-.549263-.3023453-.1785355-.5903015-.3767014-.8615189-.5934982-.2088852-.1668243-.416214-.3415298-.5820847-.5432816-.0055084-.0060959-.0145645-.0084152-.0208664-.0041733-.0062943.0042038-.0071182.0140152-.0016327.0201187.0469208.0444794.0974197.0856323.1454315.1296463.1331558.1218796.2612.2489624.3948898.3708191.272171.2478561.5495453.4914474.8294296.7321854.4075623.3505554.8256226.693634 1.2884674.9836197.4599533.2884216.9519272.5297241 1.4592514.7296829.5222931.2064438 1.0634842.3682251 1.6122131.4677734.5459137.0989456 1.0952454.1330261 1.6414185.1561508.5906067.024704 1.1799316.034111 1.765831.0158157-.5322722.0108263-1.0667876-.0118941-1.6035842-.1011961z"/></g><path d="m110.1861343 93.1678619-1.0643539-11.163475c-.0926743-.5251083-.5425339-.6614532-.5688934-.1289062l-1.6301117 11.2019119c-.3596573 1.8894958 3.5971069 2.3517914 3.263359.0904693z" fill="#fff"/><g fill="#d85c59"><path d="m138.453598 106.8413162c-.082016-.0102997-.1625061-.0152512-.2444-.0246735-.0712891-.0087128-.1421814-.0139008-.213501-.0213852.1525421.0140533.3057709.0343018.457962.0669785.006073.001358.010788-.003006.0108948-.0087891.0004883-.0055999-.0047455-.0111312-.0109558-.0121307z"/><path d="m135.1487579 106.6728363c-.3003998.0164261-.5969696.0493622-.8882751.0999527-.9725342.1683273-1.8963623.5124893-2.664505 1.0410614-.4629974.3190002-.8604584.7123795-1.2140503 1.1363449-.38414.4609833-.7192993.9584656-.9944916 1.4932938.2674866-.5090256.5991211-.9760513 1.0197601-1.3725433.3955383-.3721924.8612213-.6718979 1.350647-.9338913.4878082-.2615433 1.0019836-.4869995 1.5388184-.6677704.6077118-.2044373 1.2414398-.3574905 1.8831024-.4836044.4166565-.0818024.8377228-.153923 1.2679596-.1930618.3589783-.0323868.7236176-.0402374 1.091217-.0261459.1513062.0059204.3038025.0145187.4567566.0287857-.4374847-.0471725-.8748932-.0834656-1.3108368-.1064835-.5144806-.0269853-1.0296325-.04348-1.5361023-.0159379z"/><path d="m138.6755524 105.3779297c.0006104-.0059586-.004303-.0121536-.0105438-.013176-.0813599-.0128784-.162323-.0189285-.243454-.0312805-.0812683-.012001-.1627808-.0212326-.2443237-.0325699.1622772.0201645.3247223.0466537.4858551.0850296.0062255.00103.0123443-.0021896.0124664-.0080032z"/><path d="m135.2394257 105.05896c-.3179932.0009613-.633606.0206757-.9437256.0564957-1.0226898.117897-2.0128937.4085693-2.8488312.9025726-.4065247.2401657-.7698517.5314636-1.101059.8542023-.5398102.5264206-.9918671 1.1340714-1.3408813 1.8005219.2602844-.4866791.5828705-.9335938.9902954-1.3103104.4583893-.423645 1.0114899-.7446365 1.5944824-1.0122833.5225983-.2396698 1.0718536-.4372177 1.6406708-.5895386.6552734-.175766 1.3336029-.296608 2.0181274-.3930588.3743134-.0527267.7510834-.0967255 1.1330566-.1206284.4115448-.0254364.8300018-.0236588 1.250412.00457.1614685.0109787.3232574.0233841.4861603.0421677-.5100861-.069519-1.0204926-.1270752-1.5298157-.1694717-.4514465-.037819-.9019317-.0668336-1.3488921-.065239z"/><path d="m129.3212585 105.1865311c.5482941-.476265 1.2138977-.7972488 1.9282532-1.0434418.5906219-.2033081 1.2076416-.3550644 1.8397217-.4621429.7015228-.1184692 1.4210052-.1812592 2.1435699-.2245331.5540924-.0334778 1.1125641-.0560455 1.6761475-.0384598.3816528.0123215.7648926.0442276 1.1492157.092514.3621674.0456467.7278137.0975952 1.0877075.1964035.0063019.0018997.0119476-.0024109.0124512-.0080109.0004883-.0056-.0032806-.0112228-.0093384-.0125809-.0849457-.0167694-.1704712-.028801-.2552948-.044693-.2038879-.0383453-.4070129-.079628-.6108551-.11586-.460144-.0818558-.920929-.152298-1.3811951-.2183609-.5018616-.0720901-1.0043488-.1382294-1.504364-.1701584-.3536987-.0221939-.7063599-.0267563-1.0545654-.0140762-1.0688782.0393524-2.1237946.2260208-3.0552063.6223907-.5071259.2155914-.9681244.498848-1.3865204.8312607-.5287933.4195251-.9780426.9195709-1.3378906 1.4803467.2137909-.3201522.4636688-.6148223.7581634-.8705977z"/><path d="m128.5630951 106.0571289c-.0789185.1190796-.1536713.2406158-.2228546.365799.0680084-.1257477.1459045-.2457505.2228546-.365799z"/><path d="m139.6223297 108.0783463c-.2503052-.3550644-.5193787-.6973572-.8234711-1.0165558.2638855.2833176.4952545.5872192.6718903.9202805.2338715.4413071.3605957.9132996.474762 1.3769531.0805969.3279037.1506805.6547546.2086029.98349.0660248.3741302.1131592.7480469.1687927 1.1220016.0386658.2594223.0776367.5202484.0941925.7791367.0141449.2234116.0111084.4437027-.0072784.6622314-.0142517.1687775-.0318146.3375549-.0814362.495842-.0014191.0055542.0027008.0126266.0084534.0146484.0061798.0022354.0119019-.0011749.0131836-.0063934.0055237-.0406799.0084229-.0818634.0139465-.1225739.0149536-.1116028.0389099-.2220612.0576782-.3326187.0383148-.2294922.0756683-.4590302.1148987-.6884766.0576782-.3414307.1166992-.6838531.1231995-1.0377502.0064087-.3514862-.0299072-.7095718-.1008301-1.0656509-.0728912-.3658524-.1823883-.7315216-.3433228-1.0847549-.1585693-.3474732-.3678741-.6796571-.5932617-.9998093z"/><path d="m141.7651825 108.1182251c-.1817169-.3523026-.3965302-.6926575-.6529541-1.0090103-.2792511-.3440094-.6082916-.652626-.9505463-.9415131-.3566437-.3006134-.7284241-.580368-1.1225281-.8311234.3588867.2332153.6931.4963837.9822083.8085175.329361.3555832.5869141.7581253.8291626 1.1631012.1932983.3229675.3762817.651268.5418396.9846725.2065277.4164276.3912354.8383179.5783691 1.2601318.1117706.2515182.2217712.5050735.3126068.7611923.0827789.2350082.1481476.4730301.1970825.7116852.0399475.1952972.0752563.3924942.0728149.5859375.000412.0056458.0067444.0108719.013092.0115433.0059662.0004501.0101471-.003746.0097046-.0093918-.0055084-.0436783-.0140839-.0880508-.0205536-.1317749-.0179749-.1200562-.0270081-.2411041-.0416718-.3611755-.0301361-.2493362-.0639801-.4988403-.0970459-.7479706-.0511475-.3867569-.1030579-.7739182-.2119293-1.1588974-.1055143-.372879-.2563322-.7407455-.4396513-1.0959243z"/><path d="m140.2025604 104.2878799c.4325562.2874146.8186646.6369476 1.1957245.9886627.2719116.253479.5378418.5131607.7919617.7815704.332077.3515091.6455536.7154541.9552155 1.0837555.1958008.2327576.3905792.4678955.5636749.7148132.1529541.2185593.288559.4455643.4054565.6795731.0900879.1801376.176239.365036.2229462.554512.00177.0058823.007431.0103989.0134735.009613.0060272-.0007477.0101318-.0070572.0083923-.0129395-.0177307-.045166-.0392151-.0892563-.0578918-.1344681-.0518494-.1252365-.0981903-.2522888-.1504364-.3776855-.1064453-.2551422-.2181702-.5091248-.3327026-.7620163-.1668091-.3682556-.343811-.7349396-.571991-1.0806885-.2266693-.34375-.4932098-.6664047-.7855835-.9663696-.3007965-.3092041-.6311646-.5946655-.9892578-.8408813-.3562927-.2448959-.7382812-.4474335-1.121933-.6416016-.414978-.2097549-.8345184-.408844-1.2615356-.5882492.3858489.1668703.7612914.356949 1.1144866.5923997z"/></g><path d="m140.2558594 104.0952835-6.9802551-5.4815216c-.352478-.232666-.6851196-.04142-.395813.2656631l5.4763947 7.0950623c.8757781 1.2468185 3.3805236-.8386764 1.8996734-1.8792038z" fill="#fff"/><g fill="#d85c59"><path d="m110.161438 125.1943741c.0649261-.0690002.1238937-.1402054.1879349-.2096863.0562363-.0601425.1089249-.1223068.164032-.1832962-.1160583.1317902-.2383194.260025-.3713913.3789062-.0053635.0047073-.004509.0120239.0007858.0160294.0048599.0042267.0135193.0031204.0186386-.0019531z"/><path d="m112.5499496 122.2473068c.1877136-.2893219.3575439-.5862427.5074615-.8902206.5010605-1.0144424.806366-2.1025543.8357086-3.1710587.0173111-.6443024-.078537-1.2781677-.2323532-1.8920441-.1674576-.6671829-.4018097-1.3136597-.7112579-1.9298172.2907639.5915833.4992752 1.2142258.5823593 1.8716354.0775223.617775.040535 1.2515335-.0474319 1.8818054-.0872955.628479-.2258072 1.2570038-.4210205 1.8763199-.2211761.700943-.507515 1.3912811-.8241577 2.0707626-.2057037.4411697-.4233398.8798599-.6777267 1.3047867-.2125015.3543549-.4515457.6973801-.7129135 1.0283127-.1076889.1361389-.2186737.2715759-.3352127.4036026.3392258-.3733215.6683044-.7539291.9841232-1.1421432.3725281-.4582748.7358017-.9242553 1.0524215-1.4119415z"/><path d="m111.3668594 126.3884811c.0050964.0045929.0141525.0042267.0193253-.0008621.0668793-.0666504.127182-.137558.193428-.2043457.0660095-.0671616.1296158-.1364212.1952133-.2042999-.1282959.1366806-.2625656.2692337-.4069672.3925629-.0051498.0050582-.0063018.0129013-.0009994.0169448z"/><path d="m113.9834366 123.4214859c.2139206-.2951736.4088669-.6007996.5851822-.9122314.5816422-1.026825.9813232-2.1402893 1.0884781-3.2482224.0521851-.5387573.0278168-1.0720444-.0473633-1.5968094-.1229019-.8555756-.3803253-1.6847229-.7618103-2.4581833.2749252.5698318.470932 1.1705017.5446167 1.80233.0827255.7107315.0063934 1.439827-.1395416 2.1605911-.1310501.6459274-.3191147 1.2880859-.5622787 1.9178085-.2798615.7256317-.626152 1.4355087-.9992294 2.1346588-.2040253.3823013-.4177933.7609787-.6536789 1.1308975-.2544479.3983459-.5387726.7847137-.8489075 1.1550293-.1192398.142128-.2400208.2835922-.3674622.4217834.4089584-.4254761.8070526-.8593292 1.1903763-1.3024063.3399886-.3925856.6711654-.7902067.9716186-1.2052458z"/><path d="m117.8630981 117.8540192c.0707245.8295441-.0816116 1.6628342-.3361588 2.4907761-.2106705.6843567-.4869156 1.3583374-.8147202 2.0160828-.3641663.7297745-.7920456 1.4385605-1.2400589 2.1370163-.3432922.5358047-.699646 1.0682907-1.0966339 1.578392-.2692413.3451538-.5576706.6785583-.8620071 1.0018768-.2869263.3046112-.5820465.6081772-.9166718.8747482-.0060196.0045547-.0058365.0126953-.0009918.0169449.0048599.0042267.0126038.0045471.0179672-.0001602.0729141-.067337.1418304-.1384277.2138519-.2062531.1732407-.1629333.3486862-.3231735.5199432-.4874878.3866501-.3708878.7631607-.7500687 1.1352615-1.1317368.4057846-.4161148.8064728-.8368301 1.1738129-1.2783585.2594833-.3125992.5019455-.6361465.7254105-.9672089.6855927-1.0165558 1.2253265-2.1197052 1.4873962-3.2500992.1428909-.6153336.1919708-1.2336426.1667252-1.8457031-.0313568-.7731552-.1910095-1.5270309-.467308-2.2391281.1521074.4142762.2562257.8447648.2941819 1.2902986z"/><path d="m117.5689163 116.5637207c-.0569687-.1535263-.1190491-.304863-.1882553-.4534988.0705338.1479263.1290512.3011322.1882553.4534988z"/><path d="m108.2262192 125.4412003c.4979401.0080261.9967346-.009964 1.4977875-.0759888-.4406586.0530243-.878418.0620117-1.3062134.0006256-.5667191-.0815048-1.0894775-.282959-1.5960159-.4904404-.3581467-.1468506-.7082138-.3027267-1.0518036-.4711609-.3911133-.1915741-.7692719-.4005051-1.1532059-.6015854-.2663803-.1394424-.5342789-.2795334-.7852402-.4390793-.2164764-.1378326-.4184647-.289444-.608429-.4541016-.146698-.1272049-.291153-.2574844-.4042358-.4103622-.0041733-.0050735-.0135117-.0060349-.0192642-.0020752-.0062485.0042191-.006958.0118179-.0029907.0165329.0339432.0326004.0701294.0631027.1041031.0957184.0932617.089241.1793823.1860504.269104.2781143.1866684.190506.3740311.3801651.5600281.5714951.2772675.28405.5545502.5700226.8779221.8151169.3212128.2433624.6773987.451622 1.0550919.6264801.388092.1796265.8007431.3252182 1.2366104.4147873.4289397.0878525.8779906.1183929 1.3267516.1259232z"/><path d="m106.7417603 127.3989182c.4490509.0696869.9093857.100647 1.3756104.0768509.5072479-.0262451 1.0153503-.1225281 1.5141144-.2443695.5193329-.127243 1.0295792-.2825928 1.5280533-.4782257-.4584351.1748505-.9279404.3066254-1.412323.363533-.5518265.0648499-1.0986328.0314636-1.6373672-.0177307-.4296951-.0391464-.8573685-.0914459-1.2780075-.1633224-.5251923-.0900192-1.0407104-.2039413-1.5577927-.3155746-.3084564-.0663681-.6175919-.135788-.9161835-.2246552-.2735672-.0820923-.5381775-.1823349-.7922745-.2982178-.2078629-.0949402-.4143524-.1954498-.5918655-.3283768-.0055084-.0034256-.0146179-.0010986-.0195312.0043259-.0044556.0052261-.0033951.0119324.0021362.0153351.0441818.0243988.0910645.0464325.1359329.0699844.1233444.0644379.2415466.1378479.3626709.2053757.2512817.1405258.5052338.2777176.7583008.4153824.3927612.2138824.7864075.4273453 1.2165146.5865631.4166258.1541747.8592222.2629851 1.3120116.3331222z"/><path d="m111.3449249 128.5391083c-.558403.2064819-1.142952.3279724-1.7234116.4396057-.4184494.0806122-.8386078.1514893-1.2588577.2055359-.549881.0701141-1.0987167.1145935-1.6490173.1526031-.3478394.0241241-.697197.0456696-1.0428162.0391998-.305748-.0059814-.6075897-.0337372-.9032974-.0835419-.2276917-.0382385-.4571457-.0833588-.6641769-.1680908-.0066452-.0023346-.0146561-.0001373-.018013.0059814-.0033722.0060883-.0003052.0141602.0063248.01651.0538025.0140991.1091537.0239868.1636429.0372314.1510162.0365601.2999878.079483.4514236.115799.3082199.073761.6189194.141861.9305191.206604.453743.0942841.9129257.1780396 1.387291.2002563.4714966.0222778.9503784-.0066376 1.4257126-.0747986.4895706-.0697174.9771271-.1828613 1.4470673-.3481903.4674911-.164566.9131165-.3815308 1.3521194-.6057129.4745941-.2426453.9423904-.4967346 1.3970032-.7710266-.4151918.2446443-.8448564.4639589-1.3015138.6320345z"/></g><path d="m113.9542313 126.4123077-2.9987717-10.8057098c-.1830139-.5008392-.6497726-.5564728-.5826645-.0275192l.3524857 11.314415c-.0239411 1.9232635 3.9527282 1.6870117 3.2289505-.481186z" fill="#fff"/><g fill="#d85c59"><path d="m136.958725 76.8346176c-.1045837-.0103989-.2072601-.0146942-.3117065-.0240784-.0909271-.0087738-.1813507-.0134964-.2723083-.0208511.1945648.0134888.3899994.0340729.5841064.068924.0077362.0014572.0137634-.0036316.0139008-.0102692.0006102-.0064316-.0060731-.0126877-.0139924-.0137253z"/><path d="m132.7435913 76.6983337c-.3831482.0240173-.7613983.0669022-1.1329346.1299515-1.240387.2098083-2.4186554.6204376-3.3983459 1.2398987-.5904999.3738327-1.0974197.8318481-1.5483704 1.3241882-.4899216.5353165-.917366 1.1116486-1.2683182 1.7297821.3411102-.5884094.7640762-1.1297455 1.3005371-1.5917282.5044785-.4336853 1.0983963-.7854462 1.7226181-1.0943527.6221619-.3083649 1.2779541-.5758057 1.9626312-.7923813.7750854-.2449341 1.5833588-.4313889 2.4017487-.5870895.5314178-.1009979 1.0684509-.1909714 1.6172028-.2432709.4578552-.0433273.9229279-.0586166 1.3917694-.04879.1929779.0041809.3874969.0114136.5825806.0251465-.5579834-.0465698-1.1158752-.0806503-1.6719208-.0995407-.6561737-.0220795-1.3132324-.0321274-1.959198.0081863z"/><path d="m137.2417297 75.1524429c.0007782-.0068359-.0054932-.0138626-.013443-.0149307-.103775-.0133667-.2070465-.0189056-.3105164-.0316849-.103653-.0123596-.2076111-.0215378-.3116302-.0331345.2069702.0203247.4141693.0479126.6196899.0891495.0079346.0010682.0157319-.0027313.0158997-.0093994z"/><path d="m132.8591309 74.8458328c-.4055939.0065842-.808136.0346222-1.2036743.0810547-1.3043518.152832-2.567276.503273-3.6334381 1.0842438-.5184937.2824478-.9818802.6228027-1.4042816.9986572-.6884766.6130447-1.2649918 1.3177414-1.7101135 2.0881119.331955-.5626526.7433624-1.08078 1.2629852-1.5198517.5846176-.4937744 1.2900391-.8714447 2.0335999-1.1884613.6665344-.2838745 1.3670654-.5199127 2.0925598-.7044144.8357391-.2128677 1.7008972-.3631516 2.5739594-.4855652.477417-.066925.957962-.1238785 1.4451447-.1578674.5249023-.0362701 1.0586243-.0414429 1.5948334-.0163116.2059326.0098038.4122925.0212479.6200714.039978-.6506042-.0709305-1.3016052-.1281509-1.9512024-.1679993-.5758059-.0355911-1.1503756-.0611038-1.7204439-.0515747z"/><path d="m125.3108673 75.0941162c.6992798-.5556641 1.5481949-.9352722 2.4593124-1.2299347.7532883-.2433548 1.5402451-.4280396 2.3464127-.5617371.8947449-.1479645 1.8124084-.2323685 2.7339783-.2944565.7067261-.0479431 1.4190063-.0834427 2.1378174-.0729904.4868011.0075607.9756012.0375443 1.4657745.0863037.4619293.0461044.928299.0993958 1.3873291.2065048.0080414.0020828.0152283-.0029678.0158844-.0093994.0006104-.006424-.0041809-.0128098-.0119324-.014267-.1083374-.0177689-.2174225-.0300903-.3256073-.0468597-.2600555-.0404663-.5191193-.0843124-.7791138-.1223526-.5868988-.0859528-1.1746063-.1587982-1.7616577-.2266312-.6400909-.0740356-1.2809906-.1412277-1.9187317-.1692352-.4511108-.0193558-.9009247-.0185165-1.3450317.0020294-1.3632812.0635529-2.7087708.2958221-3.8966904.7664566-.6467972.256012-1.2347641.5888138-1.7683792.9772644-.674408.4902649-1.2473755 1.0715103-1.7062988 1.7208633.2726517-.3708724.5913391-.7131346.9669342-1.0115584z"/><path d="m124.3439331 76.1056747c-.100647.1379242-.1959839.2786026-.2842102.4233627.0867157-.1453857.1860733-.2843551.2842102-.4233627z"/><path d="m138.4494629 78.233223c-.3192596-.4029083-.6624908-.7908478-1.050354-1.1516953.3365784.3203888.6316986.6649475.8570099 1.0438843.2983246.5021133.4599915 1.0412521.6056213 1.5710449.1028137.3746796.1922302.7483368.2661133 1.1243668.0842438.427948.1443939.8559799.2153778 1.283905.0493164.2968674.0990448.5953293.1201935.8919601.0180359.2559967.0141907.5086975-.0092621.7596436-.018158.1938171-.0405426.3876877-.1038208.5700836-.0018158.0063858.0034332.0144348.0107727.0166473.0078888.0024567.0151825-.0015488.0168152-.0075607.0070496-.0467453.0107422-.0940323.0177917-.1408081.0190582-.1282578.0496216-.2553558.0735474-.3824844.0488434-.2638626.0964661-.5277634.1464996-.7915878.0735321-.3925705.1487885-.7863159.1570587-1.1923065.0081482-.4032288-.0381927-.8132935-.1286621-1.2204514-.0930023-.4183426-.2326965-.8358383-.437973-1.2381897-.2022705-.3957825-.4692535-.7731552-.7567291-1.1364517z"/><path d="m141.1825409 78.2420349c-.231781-.4009247-.5057983-.7875671-.8328705-1.1459732-.3561859-.38974-.7758789-.7380142-1.2124329-1.0634384-.4548798-.3386307-.9290771-.6530685-1.4317627-.9338684.4577484.2612915.8840485.5573502 1.2527924.9103546.420105.4021454.7486267.8593826 1.0576477 1.3196716.2465515.3670807.47995.740448.6911469 1.1199799.2634277.4740372.4990387.9547195.7377319 1.4352722.1425934.2865372.2828979.5754395.3987885.8676224.1055756.2680969.1889648.5399628.2514038.8128281.0509491.2232971.095993.4488525.0928955.6707535.0005341.0064697.008606.0123444.0167084.0130081.0076141.0004196.0129395-.0044632.0123749-.0109329-.0070343-.0500031-.0179749-.1007385-.0262146-.1507797-.0229492-.1373825-.0344696-.2760544-.0531921-.4135132-.0384369-.2854462-.0816193-.5710144-.1238251-.856163-.0652618-.442688-.131485-.8858337-.2703705-1.3254929-.1345979-.4258347-.3269807-.8451386-.5608216-1.2493287z"/><path d="m139.18927 73.8759537c.5517273.3221893 1.0441895.7164154 1.5251312 1.1132889.3468323.286026.6860352.579277 1.0101471.8827362.4235687.3974228.82341.8094254 1.218399 1.2264938.2497559.2635727.4981995.5298996.7189789.8101044.1950989.248024.3680573.5060349.5171814.7724075.1149139.2050476.2248077.4156265.2843781.6321259.0022736.0067139.009491.011795.0171967.0107956.0076904-.0009689.0129242-.0082703.0106964-.0149918-.0225983-.0514908-.0500183-.1016922-.0738373-.1532135-.0661469-.1427383-.1252441-.2876587-.1918945-.4305801-.135788-.2907867-.2783051-.5801468-.424408-.8682175-.2127686-.4194794-.4385529-.8369675-.729599-1.2295761-.2891235-.3903427-.6291046-.7557983-1.0020294-1.0947876-.383667-.3494492-.8050537-.6711426-1.261795-.9473648-.4544373-.2747192-.9416656-.5004349-1.4309998-.716507-.5292969-.2334213-1.0644073-.4545212-1.6090546-.6529236.4921418.1847305.9710083.3962631 1.4215088.6602097z"/></g><path d="m139.2301178 74.4669495-1.0643463-11.163475c-.0926819-.5251122-.5425415-.6614571-.5688934-.1289101l-1.6301117 11.2019157c-.359665 1.8894959 3.5971069 2.3517914 3.2633514.0904694z" fill="#fff"/><g fill="#d85c59"><path d="m96.4861221 51.3669395c.068161.1038361.1409531.2007484.2099991.3035965.0595245.0900497.1226959.1761971.1836472.2650681-.1326141-.1881905-.2588043-.3831978-.3697739-.589138-.004364-.0082664-.0139542-.0094147-.0206757-.003891-.006874.0049057-.0081024.0162849-.0031967.0243644z"/><path d="m99.5147629 55.3114891c.3116074.3276176.6383591.6347466.9801788.9186478 1.1405029.9483757 2.4346695 1.6696587 3.7880402 2.0331001.8161926.2186699 1.653595.2898827 2.483223.2810783.901741-.009922 1.797493-.1114578 2.6775055-.3179932-.8429794.1902122-1.7004623.2660751-2.564003.171402-.8113022-.0896645-1.6080475-.3302002-2.3847961-.6346703-.7746582-.3030663-1.5337524-.6714592-2.2638016-1.1093216-.8262024-.4958725-1.6189957-1.0715981-2.38871-1.6826439-.4997101-.3968811-.99263-.8082237-1.4567795-1.2622223-.3869553-.379055-.7513657-.7885017-1.0935516-1.2227287-.1407166-.1788368-.2795334-.3616638-.4123001-.5505333.3724747.5464134.7573242 1.0821266 1.1559296 1.6032448.470619.6147958.9538878 1.2201539 1.4790648 1.7726403z"/><path d="m94.5958405 52.5394707c-.0074081.0050964-.0097046.016758-.0047989.0248947.0645752.1056137.1365814.2041359.2015228.3089752.0654907.1046562.1343842.2068901.2009125.3112297-.1351242-.2052803-.2631531-.4169197-.3763275-.6386566-.0048829-.0081101-.014534-.0119705-.0213089-.006443z"/><path d="m97.580307 56.7808838c.3110657.362812.6412506.7046242.98452 1.0244484 1.1316986 1.0548973 2.42939 1.9042358 3.809288 2.3789291.6709824.2309227 1.358345.3625832 2.050354.4268494 1.1283417.1043663 2.2640457.0291519 3.3666-.2212257-.8104172.176651-1.6360703.2432785-2.4641266.1444283-.9314041-.111393-1.8376999-.4311867-2.7121353-.8371773-.7835464-.3641853-1.5449066-.7999001-2.2735977-1.3020859-.8397675-.5782318-1.639183-1.2363548-2.416748-1.925354-.4251785-.3767776-.8427582-.7648773-1.2424164-1.1784973-.4302444-.4459648-.8361053-.9263649-1.2136078-1.4347801-.1448288-.1953964-.2883453-.3925591-.4256516-.5972099.4176941.6512451.8493729 1.2911911 1.2973251 1.9151154.3967973.5532721.8027039 1.0968474 1.2401963 1.6065596z"/><path d="m103.4949112 63.4261971c-1.0792313-.1629486-2.0951843-.6114349-3.0731201-1.1886139-.8082581-.4774208-1.5832825-1.0352783-2.3218765-1.6539307-.8193207-.6869774-1.5924606-1.4487915-2.3462677-2.23312-.578392-.6011848-1.1485672-1.2180099-1.6777954-1.8798141-.3579178-.4485893-.6949921-.9180679-1.0143585-1.404747-.3008194-.4587708-.5978012-.9276733-.8355789-1.4356461-.0039673-.0090714-.0144043-.011322-.0213013-.006443-.0068741.0049057-.0096436.0146904-.0052795.0229568.0636063.1135101.1332245.2230721.1977158.3355942.1548691.2705917.3056412.5431824.4628906.8116684.3548889.606144.7234573 1.2018814 1.0965347 1.7927628.406723.6443405.8208618 1.2835846 1.2717209 1.8866615.3193741.4262161.6579132.8340836 1.0118179 1.2200127 1.0868988 1.1843071 2.3287048 2.2090607 3.6899719 2.8881149.7409363.3699455 1.5142975.6211815 2.3023682.7757568.9953156.1959343 2.0052109.2224159 2.9974289.0874214-.5746079.067524-1.155243.0689164-1.734871-.0186347z"/><path d="m105.2297821 63.4448318c.2131271-.0257912.4250259-.0587578.635643-.1016426-.2101211.0447922-.4233169.0726509-.635643.1016426z"/><path d="m96.7619171 48.8242531c-.1621628.6324158-.2914276 1.2738609-.3601379 1.9328384.066864-.5780106.1889725-1.1388893.3977737-1.6655884.2768402-.6976852.6932068-1.3027191 1.1122971-1.8852425.2965164-.4118156.6020737-.810585.9216614-1.197258.3635941-.4402084.745369-.8586044 1.1188889-1.2867546.2590714-.2970886.5194321-.5959053.7994232-.8671951.2417831-.2339401.4967194-.4452095.7646179-.6371689.2069473-.1482239.4171295-.2926445.646553-.3901825.0077438-.0037689.0118179-.0153809.0085297-.0239296-.003479-.0092545-.0129471-.0124702-.0201721-.0088539-.0519257.033329-.1018524.0701599-.153801.1035194-.1422424.0916786-.2919464.1719398-.4367065.2582397-.2998505.1798744-.5988312.3608818-.8995285.5396538-.4467621.2668343-.8959808.5331001-1.3071442.8706131-.4082947.3352776-.7825012.7258644-1.1206894 1.1540642-.3474426.439991-.6589813.9216919-.9061737 1.4500847-.2428971.5200807-.4188538 1.0832978-.5653916 1.6531602z"/><path d="m94.7188187 46.3342323c-.2258682.5512657-.4057999 1.1287422-.5177155 1.7304268-.1213226.654747-.1536026 1.3319435-.150444 2.0050316.0037613.7009735.0461426 1.3989258.1434631 2.0941658-.0830383-.6378441-.1077957-1.2766647-.032547-1.9116135.085701-.7233582.2951126-1.4103394.5222168-2.0821953.1810303-.5359116.3782043-1.0652275.5981979-1.5796013.275032-.6421432.5775757-1.2646561.8776855-1.8898697.1787415-.3730278.3615723-.7459908.5659866-1.0995636.1881409-.3237457.3966904-.6305351.6219788-.9191437.1844711-.2360497.375618-.4686546.5992661-.6544151.0060501-.0059814.005867-.0183067.0004425-.0262299-.0053024-.0072746-.0141754-.0079613-.0202026-.0019493-.0445862.0488815-.0869827.1019402-.1306992.1519547-.1198044.1375961-.2494659.2659073-.3725204.3997307-.2558365.2775002-.5082474.5594215-.7609863.8400764-.39254.4355011-.7848129.872261-1.1190567 1.3720551-.3237.4841423-.5974732 1.0152474-.8250656 1.5711403z"/><path d="m91.8605194 51.8552742c-.092865-.7749557-.0693893-1.5573158-.0346146-2.3314514.0249023-.5581131.0627441-1.1154366.1220703-1.6677322.0783997-.7224884.1891479-1.4358177.3086014-2.1490402.0753784-.4508476.1544952-.9028511.2682266-1.341526.1008987-.3880043.2283936-.7643776.3821182-1.1262054.1182404-.2786331.2457733-.557415.4169846-.795517.0050049-.0077629.0046463-.0186424-.0021362-.0247955-.0067368-.0061569-.017952-.0047073-.0229797.0030251-.0343857.0642929-.0638809.131855-.0973892.1972847-.0927048.1813889-.1928787.3582268-.2853851.5402298-.1880951.3704643-.3697205.7458191-.5473557 1.1233444-.2586517.5497513-.5055542 1.109642-.6786346 1.7076645-.1722717.5943527-.2815323 1.2137451-.3396606 1.84058-.0605011.6454659-.0650101 1.3016167.002388 1.9512291.0671692.6462555.2078323 1.280632.3596878 1.9087486.1645584.679142.3457794 1.3531075.5567856 2.0164261-.1852342-.6040194-.3337556-1.2187502-.4087068-1.8522646z"/></g><path d="m96.5307541 53.1666565 1.6296158-13.6682396c.0255432-.654026-.4785843-.9346962-.6488495-.3027458l-4.8717728 13.0128593c-.9233398 2.1729088 3.7026367 3.7575836 3.8910065.9581261z" fill="#fff"/><g fill="#d85c59"><path d="m123.0869522 23.2548237c-.0321274.1022701-.0545959.2034988-.0851593.3057613-.0275192.0889473-.0487518.1779671-.0741119.2671413.0507965-.1910686.1126022-.3819923.196106-.5695763.0034256-.0074711-.0034485-.0141678-.0136108-.0152416-.0097734-.001522-.0204011.0042096-.023224.0119153z"/><path d="m122.2258759 27.4164639c-.0224152.3834629-.0151138.7647552.024147 1.1422539.1300583 1.2601986.577858 2.4873428 1.3767776 3.547224.4822464.6389008 1.1065826 1.2068748 1.7922516 1.7242126.7455597.5621071 1.5637436 1.0680771 2.4578781 1.5041199-.8500519-.4220543-1.6152191-.918602-2.2410812-1.5164413-.5873871-.562088-1.0352325-1.2012367-1.4126511-1.8643475-.3769073-.6609936-.6858063-1.3495216-.9122009-2.0594711-.255928-.8036537-.4169922-1.6319103-.5293045-2.465826-.0727615-.5414944-.127739-1.0869789-.1231079-1.6387272.0043335-.46031.0528107-.9237957.1404114-1.3874531.0362625-.1908226.077446-.3827286.128685-.5742817-.157753.5468502-.2963409 1.095377-.4113312 1.6442223-.1353684.6477355-.2524185 1.2980441-.2904739 1.9445152z"/><path d="m120.5497131 22.734827c-.0103683-.0017548-.02211.0034657-.0249863.0112076-.0365601.1010265-.0610352.2026768-.0966415.3034954-.034996.1010532-.0651627.2028694-.0990448.3043976.0632019-.2024155.1375732-.4040012.2326355-.602005.0028763-.0077076-.0017471-.0159893-.0119629-.0170956z"/><path d="m119.4013901 27.0383358c-.0526352.403244-.0718689.8065186-.0618134 1.2054634.032753 1.3155422.3750916 2.6181011 1.1015854 3.7582798.3531723.5544701.8037109 1.0625229 1.3150635 1.534977.8341293.7701111 1.8261948 1.4422073 2.9393463 1.9933128-.8119583-.4093056-1.5432968-.8910904-2.1366043-1.4689713-.6671906-.6501274-1.1375504-1.4035645-1.5089417-2.1862049-.3324661-.7015247-.5862732-1.4299622-.7571411-2.1758232-.1973419-.8592701-.2941132-1.7387943-.3468933-2.6222115-.0288391-.4830723-.0418854-.9678345-.018692-1.4558983.0255432-.5258141.1001587-1.055954.2216568-1.5842533.0469055-.202877.0963669-.4059372.1572571-.6093674-.2094727.6352444-.3979568 1.2728367-.5595779 1.91152-.1436692.5660859-.2716904 1.1323663-.3452454 1.6991769z"/><path d="m118.6148148 34.5608406c-.7444153-.7726707-1.195549-1.6687126-1.5067368-2.6143742-.2568665-.7818089-.4185181-1.5886631-.4989548-2.4073296-.0886307-.908556-.0761948-1.8308029-.0289154-2.7537498.0357513-.7078171.0914536-1.4193935.2186737-2.1309032.0868988-.4817734.2085037-.9623585.3591461-1.4416275.142189-.4516392.2960815-.9066544.5314331-1.3467216.004425-.0076828-.0022049-.0155411-.0119705-.0170975-.0097656-.0015202-.0203018.0023289-.023735.0098-.0440292.1049309-.0798035.2113895-.1222687.3163128-.1023026.2521858-.2096558.5029259-.3082352.7553997-.2226562.5699234-.4253387 1.1425095-.6202164 1.7151585-.2125931.6243896-.4148254 1.250536-.5564346 1.8791313-.0994797.4447136-.1677704.8910046-.2049332 1.3344345-.1133575 1.3612995.0349045 2.7289371.5732803 3.9741955.2927551.6779823.7124329 1.3085327 1.225914 1.8930893.6479187.7386894 1.4511108 1.3897057 2.3764496 1.9372902-.526863-.3232042-1.002716-.6880037-1.4024962-1.1030084z"/><path d="m120.0173111 35.6638489c.1960526.1194534.3971634.2340279.605629.3421326-.2096634-.106701-.4075241-.2250138-.605629-.3421326z"/><path d="m125.4634628 21.9751015c-.6675797.2593746-1.3158951.5446301-1.9295425.8780346.5436401-.28829 1.1179504-.5319996 1.7342224-.7015839.8165436-.2244797 1.6687622-.3081474 2.5041733-.3772354.5907822-.0486889 1.1779251-.0842304 1.766304-.1040211.6696472-.0226822 1.3356934-.0214539 2.0032501-.0309944.4631348-.0066891.928772-.0135574 1.3871613.0076714.3955688.0185204.7826996.058279 1.1641083.1172409.2945709.045578.5885773.0953674.8586426.1840744.0095215.0027199.0226746-.0013523.0272064-.0083122.0049896-.0074787-.0000305-.0152798-.0089874-.0177612-.0706482-.0136433-.1426239-.0240288-.2133179-.0376682-.1938324-.0371552-.3841095-.0855427-.57547-.1273594-.3972931-.0859871-.7948456-.1707745-1.1918945-.257925-.5909729-.1287823-1.1834564-.2594357-1.8051147-.3254032-.6174164-.0654373-1.2537537-.0777988-1.8924713-.0459843-.65625.0327301-1.3184433.111908-1.9675369.2582874-.6385347.1443366-1.2588502.3554744-1.8607332.5889396z"/><path d="m125.8997192 19.2653999c-.651001.1728802-1.2866287.3896675-1.8871307.6631165-.6530762.2978573-1.2523575.6646137-1.819191 1.0513344-.5899277.4030399-1.1457367.8286686-1.6543274 1.2873363.4717102-.4168739.9919052-.7976017 1.5905685-1.1131516.6819992-.3595047 1.4343643-.6203213 2.1884003-.8613548.6013565-.1923389 1.2103348-.3707428 1.825325-.5262375.768074-.1938705 1.542038-.3591957 2.3162918-.5275993.4617004-.1006775.9266663-.1987419 1.3928986-.272131.4276886-.0665913.8577118-.1106339 1.2860413-.1337509.3504944-.0187702.703537-.0313702 1.0435181.0032692.0100098.000391.0202789-.006773.0225525-.0147152.0018158-.007494-.0048523-.0134754-.0148621-.0138321-.0778046-.0001373-.1573486.0034981-.2354126.0045586-.214325.0032177-.4288788-.0050812-.6426849-.0060692-.4439087-.0024738-.8887482-.0002594-1.3327942.0010281-.6893311.0017643-1.3795013.0044212-2.0755539.0796432-.6741944.072918-1.3473053.2041111-2.0036393.3785553z"/><path d="m118.892395 20.62146c.5796814-.5014286 1.2607269-.9338379 1.9440536-1.3544273.4925079-.3033352.9949188-.5980721 1.5106583-.8764019.675293-.3636055 1.3692856-.7016048 2.0703049-1.0340652.4430313-.2102356.8900986-.4187832 1.3541718-.5979176.4107285-.158247.8333588-.2931061 1.2651291-.4031277.3323822-.084816.6724777-.163866 1.0138702-.1921597.0106659-.0012875.019577-.0077286.0192261-.0155182-.0002899-.0077591-.0106812-.0139923-.021347-.0127411-.0824966.0151005-.1637573.0351486-.2465057.0514469-.2292404.0453091-.4607315.0833111-.6903229.129097-.4671707.0933247-.9331894.1935139-1.397789.2974548-.6765213.1513748-1.3520126.3159428-1.9994202.54879-.6436386.2312584-1.2569504.5164986-1.8347626.8381901-.5955048.3308487-1.154274.7030621-1.648735 1.1168137-.491806.411684-.9134827.862854-1.3207092 1.3174992-.4400101.491806-.8620224.9911404-1.2506714 1.503149.359558-.4618836.7581862-.9067765 1.232849-1.316082z"/></g><path d="m122.7794952 24.3390007 4.4274368-10.3030996c.1708832-.5051041-.1582336-.8407335-.437088-.3862715l-6.8093338 9.0428562c-1.2228546 1.4846401 2.0257874 3.7902927 2.818985 1.6465149z" fill="#fff"/><g><path d="m93.4667892 138.5070801c.3083725 9.2265015 5.4931946 17.4812469 12.1318893 23.5741425.5233078.5381165-.2606659 1.3664551-.8268051.8651581-7.0623702-5.8720704-12.4180297-15.0238038-11.3050842-24.4393006z" fill="#434c0f"/></g><g><path d="m84.0743027 111.241333c-4.7432327-7.9199371-13.2802353-12.6254501-22.0405769-14.7355042-.7186546-.2170029-.4344063-1.3215256.3036842-1.157547 9.023735 1.7114106 18.1451187 7.1188126 21.7368927 15.8930512z" fill="#434c0f"/></g><g><path d="m72.9661713 75.9663086c-7.3974152-7.7166367-14.1243248-18.1248322-13.1287766-29.2553787.0926895-.7692032 1.2677689-.6516876 1.1933212.1288376-.49403 10.8714256 5.7422562 20.6581573 11.9354554 29.1265411z" fill="#434c0f"/></g></g></svg>