<svg id="Слой_1" enable-background="new 0 0 230.3999939 230.3999939" height="512" viewBox="0 0 230.3999939 230.3999939" width="512" xmlns="http://www.w3.org/2000/svg"><g><path d="m145.7556915 116.1220856c-.3734894-.0209045-.7415314.1799316-.9169159.537056-.2380829.4843597-.4443665.9850693-.6479187 1.4848709-.2853394.7024384-.5506897 1.413063-.8033295 2.1273193-.7206116 2.0337372-1.3358154 4.1029129-1.8774261 6.1902618-1.1995239 4.6263428-2.0228271 9.3499146-2.5362549 14.0998383-.3468933 3.2124176-.4875946 5.8109894-.57341 7.7723541-.0236206.5597687.4116516 1.0350494.9714355 1.0595703.5597687.0236359 1.0323029-.4116364 1.0559387-.9714203.3007965-7.1053467 1.1604462-14.2097931 2.8743134-21.1197662.5352325-2.1564102 1.155899-4.2937469 1.8965149-6.389267.2589874-.7324371.5325165-1.4621506.8269348-2.1809464.1690216-.4125671.3425903-.8260422.5397949-1.2267838.2335358-.4761734.0354462-1.0495911-.4407349-1.2831268-.119049-.0590667-.2444457-.0926894-.3689422-.0999602z" fill="#434c0f"/><g><path d="m151.7498322 78.3005524s1.503952-7.9268341 7.1071777-9.1564407c5.6032104-1.2299576 5.6032104 5.3297882 6.4228821 10.3868637.8196716 5.0561676-.1372223 4.0992737 4.510025 9.8397141 4.6463318 5.7395248 6.8327332 7.1062546 5.7395325 11.7525864s-3.9629669 7.1062698-1.2295074 11.2064514c2.7325439 4.1001816 1.6393433 4.9198456 1.9128723 10.3867645.2735291 5.4660034-.4098358 7.9259338-.4098358 7.9259338s-3.6903534-14.0762024-9.5661926-17.9028702c-5.8767548-3.8266602-7.7905273-4.7826309-7.9268341-7.9259338-.1363068-3.1432877-2.3236237-2.7334518-5.7395325-4.7835464-3.4168243-2.050087-9.5671082-7.9268417-8.2003784-13.3928452 1.3667449-5.4669038 3.2805175-7.3797837 7.3797912-8.3366776z" fill="#434c0f"/></g><g><path d="m143.3784485 114.485466s14.4860535 14.7604752 24.872818 23.3697739c10.385849 8.610199 10.385849 10.2495575 10.6593781 12.5731659.2735291 2.3236237-.2735291-13.2565308-4.7826385-17.7665558-4.5100098-4.510025-5.1933746-5.7395248-6.9699402-9.1563416-1.7765656-3.416832-.8205872-2.0500946-4.236496-4.2365036-3.4168091-2.1863937-5.1933899-1.9128647-6.4238129-4.5100098-1.2294922-2.5962448-.6833649-.5461502-3.8266449-3.1433029-3.1432953-2.5962295-7.242569-5.3296966-9.2926636 2.8697739z" fill="#ff9f9f"/></g><g><path d="m89.7943573 84.3511047s6.9962997-5.2470016 10.6893768.8751068c3.6921539 6.1212006-1.8465424 8.9391632-5.7331772 12.243309-3.8866348 3.3032303-8.0653305 5.3442307-8.2597046 9.1336365-.1942825 3.7893906.4855347 7.6769333-2.8178787 10.008728-3.303772 2.3317947-5.7329865 1.9437714-6.1217422 5.7331772-.3886642 3.7893906 1.2632294 5.344223-2.0405502 7.8704987-3.303772 2.5262604-2.8178787 1.0686646-4.7612839 5.7331696-1.9434052 4.6635895-2.9151077 2.9151917-2.3320694 8.8419342.5830383 5.9276276.4858017 6.1221008.4858017 6.1221008l1.0689392 3.9838562s-7.384964-12.3405304-5.2471771-24.9727783c2.1376953-12.632225 7.0933533-25.749733 7.0933533-25.749733z" fill="#ff9f9f"/></g><g fill="#434c0f"><path d="m127.4675217 55.7770424c-.1244965-.0101776-.2517242.0039101-.3780365.0454369-.5034256.1662025-.779686.7088051-.6133881 1.2126045.1672134.5037117.3080597 1.01651.4489136 1.5277596.2308121.8369408.4470901 1.680603.6506424 2.5246277.5525208 2.2932701 1.0241394 4.6029816 1.4476166 6.9228745 1.2031555 6.5873795 2.0010223 13.2510834 2.5362549 19.9247894.6760864 8.4266434.921463 16.885994.8496552 25.3389893-.1008606 11.7344131-.8296661 23.4552002-2.0228271 35.1278229-.0563354.5579529.3489532 1.0532074.9060059 1.1104584.5579529.057251 1.0568542-.3480377 1.1131897-.9059906 1.3421936-13.1983795 2.0973511-26.459465 2.0028381-39.7287216-.0517883-7.2271118-.3471222-14.4533234-.9541626-21.6559067-.5579529-6.6064682-1.3667297-13.2001953-2.5680695-19.7221451-.4225616-2.2990799-.8969116-4.5910759-1.4448853-6.8637199-.2189941-.9061813-.4488983-1.8081894-.6988068-2.7062836-.1390381-.5001602-.2771606-1.0035057-.4398193-1.4965858-.1244965-.3778498-.4616395-.6255648-.8351212-.6560099z"/><path d="m105.0728149 71.2336044c-.1235962-.0118103-.25354.0009079-.3798523.0399933-.5070648.1581192-.7887802.6978989-.6306686 1.2040634.5697784 1.8292694 1.0941162 3.6730728 1.612999 5.5177994.8578415 3.0533218 1.6711502 6.1175537 2.4472122 9.1927032 1.9937515 7.8959427 3.739418 15.8564072 5.1715775 23.874115 1.1577148 6.4783325 2.0991592 12.9993744 2.7234573 19.5513077.6133881 6.4446869.9069061 12.9311981.593399 19.4013519-.0263519.5597687.4061966 1.0350494.9659805 1.0623016.5588684.0263519 1.0350418-.4062042 1.0613861-.9659729.2989807-6.2438812.0418091-12.5022888-.5225143-18.7252655-.636116-7.0217514-1.6684265-14.0017014-2.9242859-20.9380188-1.4194336-7.8350601-3.1478348-15.6165009-5.0979614-23.337059-.7915115-3.1333084-1.6202774-6.2584229-2.4926529-9.3708191-.5470581-1.9501343-1.1004639-3.9020767-1.7047729-5.8358536-.1181412-.3798446-.4507294-.6333846-.8233033-.6706466z"/><path d="m96.9115143 82.3746185c-.1244965.0072784-.2499008.0381699-.3689499.0963287-.4761734.2344513-.6715393.8105927-.437088 1.2867661.4788971.9732437.9150848 1.9701157 1.3485489 2.9642715.6870041 1.5766449 1.3421936 3.166008 1.9737549 4.7653656 1.7311325 4.3855286 3.2841492 8.8410263 4.6826859 13.3437805 4.4545898 14.3488159 7.376152 29.1947174 8.4966125 44.1814728.0418091.5588837.5288849.978714 1.0877457.9369049.5588684-.0418091.9759827-.5288849.9341736-1.0877533-.2889709-3.8230133-.6860809-7.6369476-1.2040634-11.4354401-1.5702896-11.5072327-4.1846924-22.8745117-7.7014771-33.9410172-1.3876343-4.3673553-2.9115601-8.6929016-4.6036148-12.9521103-.630661-1.5902786-1.287674-3.1696472-1.9737625-4.7372055-.4234619-.9677963-.8505707-1.9392242-1.3176575-2.8879318-.1753769-.3571318-.5434189-.5552443-.9169083-.5334319z"/><path d="m144.7333679 88.2586365c-.3734894.0227203-.7133484.2635345-.8460388.6388397-.3125916.8832779-.5870361 1.7829208-.8551025 2.680748-.4107513 1.3758163-.7915039 2.7616272-1.153183 4.1519852-1.0086823 3.8866348-1.8510742 7.8150711-2.560791 11.7680435-1.7847443 9.9369431-2.6934662 20.0465469-2.6380463 30.1443405.019989 3.753952.1781158 7.505188.465271 11.2482452.0427094.5579681.5288849.9741516 1.0877533.9314575.5588684-.0436249.9768829-.5298004.9341736-1.0877686-1.0377808-13.411911-.3371429-26.9510651 1.9392242-40.20578.6979065-4.0629272 1.5484772-8.1022339 2.5762482-12.0942688.3707581-1.4430618.7669678-2.8779526 1.1922607-4.3055573.2589874-.8669357.5197906-1.735672.8205719-2.5898819.1772003-.499794-.0845032-1.0495834-.5843048-1.2267838-.125412-.0436171-.25354-.0617979-.3780365-.0536192z"/><path d="m145.5257721 129.8302612c-.3716583-.0418091-.7506104.1353912-.9459839.4825287-.3762054.6697235-.6942596 1.3749084-.999588 2.0782623-.4825439 1.1150055-.9087372 2.2527466-1.2922211 3.405014-.950531 2.8633881-1.6111755 5.8303986-1.9246826 8.8319244-.1590271 1.5175781-.2262726 3.0406036-.2162781 4.5663605.0045319.5606995.4625397 1.0123291 1.0223083 1.007782.5606842-.0036316 1.0095978-.4616241 1.0050507-1.0223236-.0372467-4.2583008.6088562-8.515686 1.891983-12.5767975.3689423-1.1686249.7942352-2.3227081 1.2803955-3.4477234.2771606-.6424561.5643158-1.2912903.9087372-1.9028625.2598877-.4625549.0963287-1.0459595-.3662262-1.3058624-.1154174-.0654297-.2399139-.1026764-.3634948-.1163025z"/><path d="m116.4719009 50.4524384c-.1244965-.0129967-.25354-.0017242-.3807526.0368958-.5070724.1547546-.7933273.6910858-.6388397 1.1984291.4761734 1.5609245.8841934 3.1441116 1.2867508 4.7253876.6406631 2.5219078 1.2313385 5.0590744 1.7829437 7.6020622 1.5175705 6.9939423 2.7443542 14.0502167 3.723053 21.1392136 1.2222366 8.8482895 2.0573654 17.7520142 2.4962769 26.6739197.4425507 8.9955063.4843521 18.0146408.0854187 27.0119553-.1617508 3.6349182-.3989258 7.262558-.7015381 10.888382-.0463486.5579681.3671265 1.0495911.9260025 1.095932.5579605.0463409 1.0495682-.368042 1.0959167-.9259949.3943939-4.7508392.6770096-9.5107574.8287582-14.2752228.5470581-17.1477127-.4716187-34.3472214-2.8852081-51.3295364-1.0041428-7.0662766-2.2445602-14.0980148-3.771225-21.0708771-.5506821-2.5187225-1.1404495-5.0305405-1.7801971-7.5282745-.3916702-1.5279312-.7896805-3.0575066-1.2495041-4.5663605-.1163177-.3805735-.4452819-.6369249-.8178558-.6759111z"/><path d="m110.7123795 68.2320786c-.1235886-.0127258-.25354-.0018234-.3798523.0372543-.5079803.1544876-.7942276.6906357-.6388321 1.198616.4934387 1.6184464.9432602 3.2505264 1.3858109 4.8844223.7242584 2.6771088 1.4076233 5.3651276 2.0555496 8.0613251 1.7120361 7.1217117 3.1869049 14.3006668 4.4018707 21.5232391 1.3013077 7.7350998 2.3063583 15.5274506 2.8797684 23.3516006.5534134 7.5560837.7033539 15.1466904.2008286 22.7091293-.0363541.5597839.3871155 1.0423279.9459915 1.0795746.5588684.037262 1.042305-.3871155 1.079567-.9459839.5325165-8.1004028.3289566-16.2289886-.3244247-24.3166733-.6152115-7.618782-1.6384277-15.2039337-2.9360962-22.7354813-1.2422333-7.2098618-2.7398148-14.3788147-4.4664001-21.4887085-.6488342-2.6698456-1.3267441-5.3306046-2.0482788-7.9822769-.4271011-1.5720978-.8614731-3.1451111-1.3376465-4.7026749-.1154101-.3807524-.4452822-.6342848-.817856-.6733625z"/></g><g><path d="m120.6029816 108.4942093s7.7814484 2.8724899-2.2745438 10.0550919c0 0-3.351387.2389908-4.7880936 4.5481796-1.4357986 4.3101044.359848 6.1048355-4.4291458 9.2172318-4.7880859 3.1123962-4.6681366.718811-6.822731 5.506897-2.1546021 4.7881012-.8378525 5.5059814-4.5491028 7.0626373-3.7103348 1.5557404-3.7103348-.2398987-5.8649368 4.3092041-2.1545944 4.5491028-1.6765976 4.5491028-4.6690445 8.738327-2.9923553 4.190155-3.1120377 2.2745514-2.9923553 6.2247925.1196823 3.9502563-2.6334915-13.6463776-1.0773849-18.3145142 1.5561981-4.6690521 1.4365158-4.4291382.2394485-8.3793793s-.2394485-6.8236542 1.6758804-9.0982056c1.9154205-2.2745438 4.3090134-2.9924393 5.0278168-7.4215851.7178879-4.4291458 1.3167496-5.3869476 4.5481796-7.6605759 3.2323532-2.2745514 5.6268539-2.3945084 7.5415421-6.2247925 1.9156036-3.8302917 2.2745514-4.3091965 6.7036896-7.062645 4.4291458-2.7534409 4.9080505-2.6334991 7.0626373-5.6259308 2.1546097-2.9933624 5.1470413-4.310112 8.4993439-1.675705 3.3513946 2.6334917 5.1470412 10.653023-3.8311997 15.8009722z" fill="#5d6a24"/></g><g><path d="m101.1734543 59.7522774s-9.1227264-15.4337578 6.3192902-20.4798393c15.4420395-5.0461731 14.7323227 4.8317986 10.0768967 13.431282-4.6545029 8.5994835-1.7283936 5.8986511-1.9901047 11.1471024-.2617188 5.2481842-3.8321152 5.2081985-8.4966125 7.0565567-4.6645126 1.8483505-3.3586731 3.5067749-4.7099533 6.6936951-1.3512726 3.1869049-2.3972244 2.9052048-7.0008392 5.3842163-4.6045303 2.4790039-2.0600891 3.7648621-4.9262238 7.097168-2.866127 3.3314056-.0317993 7.6469574-7.1003494 10.9992599-7.0682755 3.3522873-7.8136139 3.5513077-13.239357 9.4216919-5.4256592 5.8703842-6.6746178 8.7928619-10.5625229 12.0951767-3.8879929 3.30233-5.8783798 2.4744797-7.3421593 8.4748077-1.4636879 6.0003357-1.1041069-7.5388107 3.3894691-13.8290329 4.49366-6.2911224.9883308-6.9744873 5.2105598-14.7686615 4.2223167-7.793251 7.7330055-8.3839264 9.2987404-14.6496048 1.565834-6.2647858 2.0345612-6.6918869 6.8841705-10.5967026 4.8495178-3.9038925 5.1920166-4.3191757 8.7830429-12.0522766 3.5906601-7.7331924 8.4350891-10.3629646 15.4059525-5.424839z" fill="#5d6a24"/></g><g><path d="m134.3583984 36.4511986s-9.7024765-3.1432915-11.2064285 8.4730797c-1.5030441 11.6163712 2.8697586 10.7964249 6.9699478 13.1196785 4.100174 2.3232574 2.5971527 2.5966034 1.9137878 5.6032219-.6833649 3.0065231-2.8706818 3.9633255.2726135 6.9694061 3.1432953 3.0069809 4.6472473 2.1873093 5.0570831 5.6032181.4098358 3.4168243 2.1863861 3.8266525 4.2364807 6.1502762 2.0500946 2.323616-1.6402588 3.1432953 1.2295074 6.4228897 2.8706818 3.2805176 4.9198608 3.1433029 6.5601196 9.1563492 1.6402588 6.0130615 2.1864014 7.6533279 2.1864014 7.6533279s-.9559784-10.6593933 3.1432953-16.8096771c4.1001892-6.1493607 7.379776-8.3366776 5.6032104-14.622345-1.7765503-6.2865906-3.9629669-1.9137878-.6833496-10.2500992 3.2805023-8.3364983 5.4669037-8.8831902.9568787-13.2563515-4.510025-4.3732567-6.4228821-6.9698601-6.9699402-11.7530441-.5461426-4.7832794-2.8697662-5.3298759-4.9198608-7.2432079-2.0500946-1.9132328-.8196716-2.3232536-5.7395325-5.1931992-4.9198608-2.869854-7.6533203-3.0065308-11.2064362 1.5033073-3.5531309 4.5099316 2.5962221 8.4731694 2.5962221 8.4731694z" fill="#5d6a24"/></g><g><path d="m148.7081451 133.2089081s-8.3366699-4.3737183-2.3236084-10.5230713c6.0139465-6.1502838 7.5169983-1.7765732 9.8406067.2735214 2.3227234 2.0491791 5.7395325.4098434 6.9690552 3.6894379 1.2304077 3.2795944.4107361 5.1933823 3.14328 7.3797836 2.7334595 2.1864014 4.7835541 6.0130615 3.9638824 9.2935638-.8205872 3.2796021-.4107513 5.1924896.8196716 9.8397217 1.230423 4.6463318 2.0500793 3.1432953.1363068 8.0631561-1.9128723 4.9198608-1.2295074 6.8327332-1.2295074 9.9760132 0 3.1432953-3.5531311-2.4599152-6.9699554-7.3797913-3.4168091-4.9198456-2.8697662-3.4168091-3.9629517-6.2865753-1.0932159-2.8697662-.8205872-.8196716-3.8266602-3.5531311-3.0069885-2.7334595-8.6102142-3.2796021-7.6533203-7.2434845.9568939-3.9629517-4.510025-1.3667145-4.6463318-6.0130463-.1372222-4.6463317-.6833495-7.2425689 5.7395325-7.5160979z" fill="#5d6a24"/></g><g><path d="m130.473587 42.4688034c-1.7638245.5781326-.7233429 3.2891388 1.0205078 3.201992 2.8706818-.1435813 2.837967-4.4668541-1.0205078-3.201992z" fill="#f1fde5"/></g><g><path d="m133.730484 48.7898254c-1.1113892 1.9263229 1.2404022 3.0932236 2.4008484 1.3525543 1.0823059-1.6230811-1.5184784-2.8833999-2.4008484-1.3525543z" fill="#f1fde5"/></g><g><path d="m137.3735657 31.7313557c-1.0750122 1.476862 1.5157623 2.0576305 2.180954.8004971.9759826-1.8426286-1.2077027-2.1373273-2.180954-.8004971z" fill="#f1fde5"/></g><g><path d="m145.0477753 36.561882c-.0118103 1.9544945 3.3950195 2.1848564 3.3950195.1655693 0-1.8998794-3.3841095-2.1944885-3.3950195-.1655693z" fill="#f1fde5"/></g><g><path d="m146.3727112 43.2969246c1.2276917.850296 2.8170624 1.1927071 2.2354736-.5520515-.8950958-2.6842003-3.471344-.3034249-2.2354736.5520515z" fill="#f1fde5"/></g><g><path d="m137.1809235 57.8712044c.2389984 1.9400482 3.6267395.2532616 2.5944061-1.4353333-1.4966736-2.4487533-2.8270416-.4519119-2.5944061 1.4353333z" fill="#f1fde5"/></g><g><path d="m150.2093658 48.7070389c.9923401 1.265316 2.8943024-.67173 1.6557007-1.8217278-1.3013-1.2086067-2.474472.7781487-1.6557007 1.8217278z" fill="#f1fde5"/></g><g><path d="m150.4301758 58.8648987c.057251 1.3027534 3.162384 1.2465096 2.7598267-.6624603-.1181488-.5625038-.8414917-1.0534897-1.3249359-1.2145157-1.9019624-.6341133-1.4566956 1.3910827-1.4348908 1.876976z" fill="#f1fde5"/></g><g><path d="m139.2510071 65.5999451c.3371429.8764648 3.2050781-.2957001 1.4630585-1.7114067-.3498688-.2840729-1.2695007-.5632286-1.7111511-.3863907-1.3112946.5242424.0518035 1.5884514.2480926 2.0977974z" fill="#f1fde5"/></g><g><path d="m142.6187592 74.2396851c.4734344 1.073204 2.7234497.030899 1.7938232-1.1313705-.0372467-.0472565-1.13591-.5470581-1.1595459-.5525055-1.5184784-.3798524-.8687286 1.1522597-.6342773 1.683876z" fill="#f1fde5"/></g><g><path d="m152.7765198 74.4332504c-.3916626 1.5393753 1.6348114 1.1976929 2.0700989.1099472.5188751-1.2976684-1.6884308-1.6111755-2.0700989-.1099472z" fill="#f1fde5"/></g><g><path d="m150.0712433 82.7135849c-1.8292847 1.8192673 2.8388672 2.2045746 2.4017639-.2762604-.25354-1.4330673-1.7974701-.3253174-2.4017639.2762604z" fill="#f1fde5"/></g><g><path d="m149.431488 70.0840607c1.250412.2226486 2.3890533-1.3721695.9896088-1.935585-1.1922455-.4798127-2.2136688 1.7165908-.9896088 1.935585z" fill="#f1fde5"/></g><g><path d="m158.7779541 81.1357956c1.0359344.7969589 2.0864258-1.2695007.8887177-1.638443-1.0868378-.3344193-1.8074646.9305344-.8887177 1.638443z" fill="#f1fde5"/></g><g><path d="m163.2597961 89.6133194c.174469.8514786 1.7720184.262619 1.3394623-.774231-.4788971-1.1450042-1.5657348-.3271484-1.3394623.774231z" fill="#5d6a24"/></g><g><path d="m157.7069702 97.6673126c.0690613 1.9592133 1.8538055.3943863 1.3594513-.3216934-.6579132-.9532547-2.2663727.4979782-1.0777435.9996033" fill="#5d6a24"/></g><g><path d="m167.7575684 105.867981c.2453461 1.0114136 1.6711426.2671661 1.2885742-.5516052-.4261933-.9096375-1.5112152-.3671189-1.2885742.5516052z" fill="#5d6a24"/></g><g><path d="m166.823822 94.9839096c-.2671661 1.2376938 1.6884308 1.0195923 1.5921021.0054474-.1017762-1.0695725-1.3740082-1.0123215-1.5921021-.0054474z" fill="#5d6a24"/></g><g><path d="m149.0861816 127.2994537c-.3235168 1.7974548 2.860672 1.0986481 2.0219116-1.0477676-.690628-1.7674866-1.8656158.1762848-2.0219116 1.0477676z" fill="#f1fde5"/></g><g><path d="m147.8339539 138.7639618c-.2471771 1.9419556 2.0046539.5788574 1.7302094-.4134674-.0099945-.037262-.571579-.659729-.6170197-.6924438-.8651124-.6179352-1.0459443.5770416-1.1131897 1.1059112z" fill="#f1fde5"/></g><g><path d="m154.0996246 132.156601c.0418091 1.21315 1.9619598.2253571 1.8183746-.6379242-.2199096-1.3222046-1.8592529-.5207062-1.8183746.6379242z" fill="#f1fde5"/></g><g><path d="m159.68013 133.2570648c-.6833649 1.5511932 1.1686249 1.9174194 1.5848389.4689178.3843841-1.3394775-1.1431885-1.4694213-1.5848389-.4689178z" fill="#f1fde5"/></g><g><path d="m151.88414 142.6097107c.2380981 1.4830475 1.5484772.6370239 1.0923004-.6006622-.3698425-1.005066-1.233139-.2799073-1.0923004.6006622z" fill="#f1fde5"/></g><g><path d="m161.3512878 140.5323639c.7106171.9614258 1.5730133-.0354462 1.3503723-.6851959-.4380035-1.27948-2.0110168-.2080994-1.3503723.6851959z" fill="#f1fde5"/></g><g><path d="m165.3978577 143.85466c-.1045074 1.0323181 1.2522278 1.0532227 1.6120911.2553558.450714-1.001419-1.453064-1.8210906-1.6120911-.2553558z" fill="#f1fde5"/></g><g><path d="m156.5104828 147.5304718c.0190887.65065.9541626.7297058 1.0795746.0717926.2380829-1.2513275-1.1195526-1.4366913-1.0795746-.0717926z" fill="#f1fde5"/></g><g><path d="m160.7951508 152.4039764c1.1522675 1.2249756 1.4939423-1.0077667.6615448-1.4285126-.9160004-.4625396-1.2740326.7787781-.6615448 1.4285126z" fill="#f1fde5"/></g><g><path d="m166.7618561 155.1983185c.2208252 1.1095734 2.5671692-.1308441.9232635-1.4930267-.9559784-.7924195-1.105011.5733947-.9232635 1.4930267z" fill="#f1fde5"/></g><g><path d="m110.3168182 117.4802475c-1.7611237 2.5135345 1.4575882 3.2078094 2.4680939.934166.9032822-2.0328217-1.5221176-2.2845307-2.4680939-.934166z" fill="#f1fde5"/></g><g><path d="m105.4818573 124.5809631c-.7696915 2.0564423 1.8865204 2.7561722 2.4408417.1735611.40802-1.8965225-1.8946991-1.6311645-2.4408417-.1735611z" fill="#f1fde5"/></g><g><path d="m94.783905 134.5647278c-1.6338882 2.1564178 1.4303513 2.6380463 2.5035553.8405762 1.3458329-2.2527466-.9059982-2.9497223-2.5035553-.8405762z" fill="#f1fde5"/></g><g><path d="m90.5556107 140.0430908c-.9632568 1.1777191-.7887802 3.3223114 1.1213684 2.3636017 2.3117981-1.1604462.8814621-4.8117065-1.1213684-2.3636017z" fill="#f1fde5"/></g><g><path d="m88.0132446 129.4849396c-1.0847473 1.6929626 1.6766052 1.7075043 2.2545547.1017761.7069932-1.9619446-1.6193542-1.0932007-2.2545547-.1017761z" fill="#f1fde5"/></g><g><path d="m99.0470276 126.0662994c-.765152.4607315-.2099228 1.4376144.2399063 1.6602478.8869171.4380035 3.3959198-.919632 3.1178436-2.0346451-.4180145-1.678421-2.4108505-.1953735-3.3577499.3743973z" fill="#f1fde5"/></g><g><path d="m96.3988113 118.2408676c-.1372147.7306213-.9532547 1.8819733.3044281 1.7620239 1.0186768-.0972443 3.7666702-2.4771957 2.2209244-3.4695282-.7733307-.4961624-2.3481521.7678757-2.5253525 1.7075043z" fill="#f1fde5"/></g><g><path d="m105.225174 108.8736191c-2.7970657.7451477-.2208252 3.0696869 1.5330276 1.2649536 2.1464157-2.2082138-1.4430618-1.9737701-2.6062393-.565239" fill="#f1fde5"/></g><g><path d="m111.6192856 105.0483093c-.5579605.1517639-.8641968.5052567-.4452744 1.0205154.5188904.6370087 2.9479218.5988464 3.4795227.0472412.2871628-.2980576.0127258-.8841934-.1081314-1.1295471-.5388794-1.0904693-2.0628204-.1726608-2.9261169.0617905z" fill="#f1fde5"/></g><g><path d="m116.140213 100.6537018c-.4498138 1.0032349 2.6180573 2.8106995 2.7725296.6033936.0981445-1.3976212-2.1027984-2.0973435-2.7725296-.6033936z" fill="#f1fde5"/></g><g><path d="m66.2627335 102.9355164c-.736618.2889786-1.0075989 2.6943817.4718094 2.2009506 1.2630462-.4207459 1.7949218-3.0914993-.4718094-2.2009506z" fill="#f1fde5"/></g><g><path d="m74.6606598 96.5189819c-1.9663086 1.1304626 2.0914383 2.3681564 1.69841-.2517166-.0325317-.2162781-.046257-.4625397-.1887436-.6288376-.7999496-.9332657-.9161758.5388718-1.5096664.8805542z" fill="#f1fde5"/></g><g><path d="m84.8197861 88.7502594c-.7417908.4807205-1.8181839 1.7284088-.0943222 1.4149017 2.0481872-.3725891 2.2863617-2.837059.0943222-1.4149017z" fill="#f1fde5"/></g><g><path d="m79.252739 85.2898254c-.6179428 2.0191956 2.0758057 1.2222366 2.0758057-.3453217-.0000001-1.5203017-1.8516236-.3871154-2.0758057.3453217z" fill="#f1fde5"/></g><g><path d="m92.3369751 77.112175c-.8960037.388031-1.8147354 1.0922928-1.3839874 1.6675186.2671585.3562241 1.1477203-.0508957 1.3212814-.1263123 2.0092011-.873291 1.5993652-2.2045822.062706-1.5412063z" fill="#f1fde5"/></g><g><path d="m91.7081375 70.8219604c-1.4267044 1.0277634-.3916626 3.0360565 1.0695724 1.4784927.9459916-1.0105056-.0218047-2.2327422-1.0695724-1.4784927z" fill="#f1fde5"/></g><g><path d="m100.9553604 70.5075302c-.9923401.4025726-1.5112152 2.3890533-.0636063 1.855629 1.1604386-.4271088 1.853798-2.5826111.0636063-1.855629z" fill="#f1fde5"/></g><g><path d="m108.9757996 62.424118c-1.9664917 1.1375465.3535004 2.1869507 1.9183273.8177681 1.2822113-1.1223716-.8496628-1.4362449-1.9183273-.8177681z" fill="#f1fde5"/></g><g><path d="m108.774971 53.1509094c-.2162781.9138145-.0590668 1.0951996.4625397 1.2137871.9096451.2066422 2.8688583-1.1398201 2.0228348-2.1963959-.7787857-.974247-2.2245636-.1135025-2.4853745.9826088z" fill="#f1fde5"/></g><g><path d="m109.1221008 44.8566666c.6497498-.0476151.0590744 1.0421333.5207062 1.0692978.4861603.0286255 1.6684189-1.0171394 1.4448776-1.5606461-.8678436-2.1076126-3.051506.5708618-1.9655838.4913483z" fill="#f1fde5"/></g><g><path d="m104.678421 28.1198864c-2.1754913.8134003.9532547 3.8187447 2.0846252.7489738.4970704-1.3501033-.6052169-1.3020267-2.0846252-.7489738z" fill="#5d6a24"/></g><g><path d="m94.9741135 39.9089088c.3689346 1.2228813 2.5526123 1.3965378 2.409935-.0325279-.2080918-2.0751724-2.8852082-1.5418396-2.409935.0325279z" fill="#f1fde5"/></g><g><path d="m78.4626007 52.5122528c.970787.5759544 2.1792145-.0059967 1.7260361-.977066-.6475601-1.3875389-3.0007172.2207298-1.7260361.977066z" fill="#f1fde5"/></g><g><path d="m150.369812 92.8033218c-1.848465-12.6887817-6.0117798-48.850193-16.308136-55.8309517-.6976471-.3729744-.1044617-1.4623947.593811-1.0424232 11.4738465 7.3134689 14.9275208 43.5228653 15.714325 56.8733749z" fill="#434c0f"/></g><g><path d="m86.3950424 151.6856384c.9296494-20.2889099 14.1252975-38.4641113 34.0377655-43.7665176.3183212-.0917511.6507187.0922089.7422714.4106903.0902176.3138428-.0918274.6427002-.4017715.7397461-4.6174698 1.4420166-9.0321655 3.4871826-13.0624161 6.1229248-12.2145004 8.0774612-19.5668258 22.1359177-21.3158493 36.4931564z" fill="#434c0f"/></g><g><path d="m170.027832 171.2010193c-3.712204-11.4166718-9.8457336-31.0549469-20.5407257-37.2925415-.6855774-.3476105-.167511-1.4168091.5365601-1.0730286 11.3701019 5.9875946 17.5232239 26.4316254 20.0041656 38.3655701z" fill="#434c0f"/></g><g><path d="m101.2047424 59.6297379c3.4112015.9661179 3.6556778 5.3914185 3.0912552 8.2974701-.2202148.6009064-.1219254 1.8905487-1.057312 1.7215652-.3060455-.0844498-.4872742-.3914719-.4288483-.6946945.4384537-2.9903336 1.4102478-7.2202301-1.6883774-9.0901566-.1276016-.0597534-.0541534-.2685661.0832825-.2341842z" fill="#434c0f"/></g><g><g><path d="m110.0479965 33.3799057s6.8533401 3.1522636 13.0084305-5.7726383c6.1551056-8.9249878-1.6990356-11.3865509-5.4789505-12.2260275-3.7807999-.8397303-5.658226 3.0415487-8.6851654 3.651763-3.0260391.6103802-5.4201202-1.4320183-8.2851944 2.2679863-2.8646317 3.7000847-3.201004 5.5327263-7.3293228 5.7950916-4.1282959.2622738-7.3099365 1.7183895-8.920372 6.5229683-1.6104584 4.8046646.2052765 7.6151161-3.3877258 9.7243195-3.5929947 2.1092072-6.4150085 3.1941376-7.0877457 6.8594322-.6727142 3.6651955.3114166 5.4487152-2.3090515 8.6108131-2.620491 3.1622734-5.0571899 3.7350349-6.0144196 8.9503479-.9573975 5.2162018-.5282898 9.2298889-.5282898 9.2298889s9.3050308-14.1759605 15.9127579-17.6262283c6.607811-3.4502373 13.797348-2.1306534 16.512413-8.1896706 2.7150726-6.0590134-.5298004-5.0517006 4.883728-7.5553589 5.4144211-2.5034981 8.1040878-1.2812309 8.045723-4.9349136-.0574417-3.6536102-.3368149-5.3077736-.3368149-5.3077736z" fill="#5d6a24"/></g><g><path d="m115.9731827 22.1034069c-.0793076 1.3029385 2.8843765 1.2738914 1.8678207-.6173935-.8939438-1.6633015-1.8051147-.4289741-1.8678207.6173935z" fill="#f1fde5"/></g><g><path d="m107.4860611 25.0486984c.2214661 1.48139 2.6548996.7623329 2.4090347-.3193245-.2826156-1.2439022-2.6098938-1.0226593-2.4090347.3193245z" fill="#f1fde5"/></g><g><path d="m94.1391373 33.7241211c-.6565628 1.9769478 2.3925552 1.7864723 2.4350281.0827255.0366897-1.469944-2.0590668-1.2144356-2.4350281-.0827255z" fill="#f1fde5"/></g><g><path d="m93.910881 43.0856743c-.0592728 1.5486794 1.7934418 1.2426376 1.8907013-.0171814.0930024-1.2114525-1.8434524-1.2147675-1.8907013.0171814z" fill="#f1fde5"/></g><g><path d="m109.0296097 33.2576065c-4.6857529-3.1361637-9.7892532 1.3864708-12.8105545 4.8684807-.1067123.1390533-.3348541-.0231628-.2300797-.1694603 2.6774063-4.5513763 8.6465302-9.6701126 13.8399963-5.5940247.6010972.530304-.1992339 1.4240456-.7993621.8950043z" fill="#434c0f"/></g></g><g><path d="m123.5218124 149.1316528s-25.8287888-.6415558-27.2945709-.5497742c-1.4648743.0917816-.6406479 1.4657745-.0917816 3.2059937.5497818 1.7402039-9.5250168 27.8434448-9.2502213 36.4527283.2747116 8.6092987 5.1291351 11.9979553 7.0520096 13.7381744 1.9237747 1.7402191 3.6839905 6.8972473 5.1497574 7.5388184 1.4648819.6406555 6.8418274 5.2887878 26.3358765 5.6195679 0 0 16.962326-.1317596 21.789505-5.2651672 0 0 2.8016052-6.2602234 4.3673401-7.9686432s7.9359283-7.0908203 7.5088196-13.6382141c-.4270935-6.5482941-9.5770874-36.9316254-9.5770874-36.9316254s1.638443-2.6616821.5852203-2.9388428c-1.0523071-.2762451-20.4055023.3653106-26.5748673.7369842z" fill="#381952"/><g fill="#fff"><path d="m153.8261108 172.0379639c-.0890656-.0099792-.1817474 0-.2726135.028183-.7769775.2389984-1.5484772.5079803-2.3145447.7806091-1.2849426.4579926-2.5589752.9441528-3.8248444 1.4512329-3.3886414 1.3576355-6.7164154 2.8697662-9.9560242 4.5518341-2.1273346 1.1040955-4.2146759 2.2836151-6.2502289 3.5476532-1.0668488.6615601-2.1300659 1.3358459-3.1523895 2.063736-.7524338.5352325-1.4812241 1.1013794-2.1927643 1.6902313-2.0264587 1.6775055-3.9002533 3.5367889-5.6677399 5.4832764-2.1018906 2.3136139-4.0565643 4.7608185-5.904007 7.2816315-1.6511688 2.2527466-3.2169037 4.5654449-4.7053986 6.9290466-.5761337.9132843-1.1404495 1.8383636-1.690239 2.7689056-.3444061.5834198-.6851807 1.1686249-1.0105057 1.7629395-.1726608.3171539-.0581589.7133484.2580795.8860168.3171463.1735535.7133484.0581512.8860092-.2580872.3353271-.6133881.6924515-1.2195129 1.0477676-1.8201904.5534134-.9341736 1.1213684-1.8601685 1.7011337-2.7779694 1.446701-2.2891083 2.9697342-4.5327454 4.572731-6.7155151 1.8219986-2.4817505 3.7485046-4.8898773 5.8240433-7.1653137 1.7293091-1.8956146 3.5622101-3.7057953 5.5432434-5.3387756.6870041-.5661469 1.3921661-1.1095886 2.1182556-1.6239166 1.0014038-.7097168 2.0410004-1.3685455 3.0842133-2.0137329 2.009201-1.241333 4.0702057-2.3963318 6.168457-3.4813385 3.2023621-1.6566162 6.488327-3.1532898 9.8360748-4.4927521 1.250412-.4998016 2.5090027-.9768829 3.7775879-1.4285278.7469788-.2653656 1.4993896-.5279694 2.2572784-.7606049.3644104-.1117859.5670471-.4989014.4543762-.8632965-.0836177-.2735291-.3198848-.4580079-.5879512-.4852753z"/><path d="m93.0376053 166.3584137c-.0836105.0136414-.1681137.0445557-.2435455.0935974-.3044205.1944885-.3934708.5988617-.1990051.9023895.3407745.5325012.65065 1.0841064.9568939 1.6357117.4679947.8441925.9150848 1.7002258 1.3431015 2.5644226 1.2485962 2.5189972 2.3517838 5.1088715 3.3223114 7.7469177 2.7416382 7.4497528 4.4355087 15.3120728 4.8453369 23.2434692.1263123 2.4499207.1235962 4.9025879.0027237 7.3525085-.0190811.3807526.2726212.7051849.6533813.7242584.3807526.0181732.7051773-.2753448.7233505-.6560974.1690216-3.4549866.1017761-6.91362-.2126389-10.3595123-.6470184-7.0926361-2.3063583-14.0825653-4.7762909-20.7589874-.9914093-2.6798401-2.1146088-5.3142548-3.3850098-7.8741455-.4543686-.9150848-.9278107-1.8201904-1.4257889-2.7125549-.3026199-.5434113-.6106644-1.0859222-.9450836-1.61026-.1463012-.2280884-.4080199-.3353424-.6597365-.2917175z"/><path d="m135.2262421 149.0925751c-.1681061.0018158-.3316803.0663452-.4579926.1953888-.3925781.4043732-.8214874.7805939-1.2467804 1.1504364-.6988068.6070404-1.4212494 1.1867981-2.1573181 1.7492981-2.1291656 1.6230011-4.3809814 3.0824127-6.7109604 4.3982544-6.8609009 3.8748169-14.4160767 6.4855957-22.1584473 7.9004974-2.4462967.4470825-4.9134979.7669525-7.3888702.9850616-.3798523.0345306-.6588287.3707428-.625206.7505951.0336227.378952.3671265.6579437.7469711.6242981 3.6358261-.3235016 7.2525711-.8696594 10.811142-1.6893311 6.6491776-1.5330048 13.096611-3.9575043 19.0487823-7.3016205 2.4571991-1.3803711 4.8308029-2.9152069 7.0708084-4.6254272.7851562-.599762 1.5539246-1.2222443 2.2981873-1.8719788.4261932-.3725891.853302-.7524261 1.2494965-1.1586304.2517242-.2580872.2444458-.670639-.0145416-.9223633-.1290436-.1263121-.2980652-.1872099-.465271-.1844786z"/><path d="m123.7762604 159.5366058c-.357132.0527039-.6043015.3843842-.55159.7415161.1190414.8014984.3098679 1.5957336.5116043 2.3799438.3098755 1.204071.6806488 2.3936005 1.1104736 3.5604248 1.4339676 3.8957062 3.516777 7.6069641 6.4319687 10.5903015.8887482.9087372 1.8529053 1.7338562 2.8761292 2.4871979.3071594.2253723.7369843.1599426.9632568-.1481018.2253723-.3071747.1590271-.7397308-.1481171-.9650879-.8787384-.6443024-1.7102356-1.3431091-2.4844666-2.1100616-2.9551849-2.9270172-5.072525-6.6455536-6.4865112-10.5357971-.4189224-1.1531982-.7815018-2.3272705-1.0759277-3.5186005-.1572113-.6370087-.3071518-1.2803955-.4034729-1.9301453-.0527114-.3571319-.3871154-.604309-.7433471-.5515899z"/><path d="m90.7830582 171.6572113c-.0836105.0118256-.1663055.0418091-.2444534.08815-.3089752.185379-.4089279.5843201-.2235489.8941956.2717133.454361.5216141.9241638.7687836 1.3912659.3907547.7360535.765152 1.4812317 1.1250076 2.2327271.9541626 1.9883118 1.8138199 4.0229492 2.5898743 6.0884857 1.2931213 3.4431915 2.340889 6.9817657 3.1042175 10.5803528.7487946 3.5358429 1.2240601 7.1353302 1.3430939 10.7484436.0518036 1.5684662.0263596 3.1332855-.0545197 4.6999359-.0190811.3807526.2726212.707901.6533813.7269897.3807526.019989.7051773-.2753448.7242584-.6560974.1117706-2.1955109.1081314-4.392807-.0345383-6.5882874-.4334641-6.6955261-2.0191879-13.2937927-4.3528137-19.5740356-.8314819-2.2381897-1.761116-4.4382172-2.7943344-6.5910034-.3816681-.796051-.7778702-1.5875549-1.193161-2.3663177-.2444458-.4589081-.4934387-.9160004-.7606125-1.3630981-.1390381-.2317201-.3980179-.3471376-.6506347-.3117067z"/><path d="m89.3490753 176.7851868c-.0845108.0018005-.1699295.0209045-.2526245.0572357-.33078.1445007-.4798126.5298004-.3353195.8605652.2344513.5352631.4507294 1.0777588.665184 1.6211853.3471298.8832855.6788177 1.772934.9959641 2.667099.8024139 2.2609253 1.5130386 4.5554657 2.1155243 6.8772736.5261612 2.0264587.9696198 4.0765533 1.2894897 6.1457214.3616714 2.3390656.5625 4.7008514.4825287 7.0681-.0118103.3807526.2835236.7006226.665184.7124481.3807678.0127106.6997299-.2862549.7124557-.6670074.0908737-2.8170624-.1935577-5.6286621-.6897354-8.4002838-.3534851-1.9719391-.8105774-3.9266205-1.3403702-5.8585815-.6288376-2.2900085-1.3558197-4.5518188-2.1673203-6.7836609-.4770813-1.3140259-.9714279-2.6271362-1.53302-3.9075317-.1090468-.2480928-.3535003-.3952944-.6079406-.392563z"/><path d="m158.2761536 188.5341187c-.1763.0063782-.3498535.0818024-.4798126.2208405-1.318573 1.4230652-2.7071075 2.7797852-4.1656036 4.0583801-6.9844971 6.1212006-15.3866119 10.4912567-24.1213074 13.5345917-1.8538055.6452026-3.7276077 1.2331543-5.6168442 1.7629547-3.1223907.8760071-6.2856827 1.6002502-9.479866 2.1609497-1.1649857.2053528-2.3336105.388916-3.5067825.542511-.6879044.0908813-1.3785477.1781158-2.0700836.2335358-.3598557.0281677-.6279221.3444061-.5988541.7042542.0281677.3598785.3444138.6279449.7033615.5988617.7606049-.0608673 1.5193863-.1581116 2.2754593-.2580872 1.1449966-.1526489 2.2863541-.3316803 3.4240799-.5315857 3.2368927-.5679626 6.442894-1.2976685 9.6070938-2.180954 4.9525604-1.3821716 9.8015442-3.142395 14.4542236-5.3333282 5.6950073-2.6798553 11.0955811-6.0457611 15.8382416-10.1968536 1.4957581-1.3094788 2.9161072-2.6980133 4.2682953-4.1547089.2589874-.2798767.2417297-.7178802-.037262-.9768829-.1399384-.129944-.3180542-.1917269-.494339-.1844789z"/><path d="m111.3003235 164.9635315c-.0890503.0036316-.1808395.0272675-.2662506.0681458-.9923325.4707184-1.9455948 1.010498-2.8543167 1.627533-2.2990952 1.561203-4.2901077 3.5476837-6.0121536 5.7222595-.636116.8033295-1.2358704 1.6366272-1.7947388 2.4953918-.3162384.4888763-.6270294.9850464-.8996429 1.4994049-.1690292.3189392-.0490646.7142487.2698975.8832703s.7142563.0463562.88237-.2726135c.2544479-.4798126.547966-.941452.8442154-1.3967285.5197906-.7987671 1.082283-1.570282 1.6747818-2.3172607 2.289093-2.8861237 5.1306915-5.4151154 8.4802628-6.9944763.3443985-.162674.4916153-.5752411.3289566-.9196472-.1217806-.2589723-.384392-.4062044-.6533815-.3952791z"/><path d="m122.3104858 164.208374c-.0899658-.0045471-.1826553.0072784-.2726212.039978-2.1300507.7705994-4.2055969 1.678421-6.1939011 2.7680054-3.8211975 2.0964203-7.2961731 4.8144379-10.205925 8.0622406-1.115921 1.2467651-2.1500549 2.5707703-3.0669556 3.9702301-.3371506.514328-.6579208 1.0386658-.9568939 1.5766296-.1681137.3016968-.3344193.6079559-.4770813.9223633-.1490326.328949-.0027313.7142487.3262253.8632965.3289642.1490173.7179031.0054626.8669357-.3235168.1263123-.2816925.2753448-.5570374.4252853-.8260345.2544403-.4561615.5261459-.902359.8096695-1.3412628.9059982-1.4003601 1.9365082-2.7216644 3.0524292-3.9611511 3.1142044-3.4586334 6.9154205-6.2675018 11.0664902-8.3575897 1.5639267-.786972 3.1760101-1.4621429 4.8226318-2.055542.3580322-.1299438.5434189-.5252533.4143753-.8832855-.0972288-.268982-.3416822-.4398347-.6106642-.4543611z"/><path d="m124.8431091 169.3508759c-.0890503-.0054626-.1826553.0081635-.2726135.039978-2.129158.7569733-4.1983261 1.6638794-6.1757202 2.7598114-4.1038208 2.2745361-7.7805328 5.3015137-10.8311462 8.8637238-1.062294 1.2404327-2.0509949 2.5435333-2.9424591 3.9129944-.345314.5307007-.6751785 1.0723114-.9850616 1.6239166-.1608429.2862396-.3198776.5751953-.4598236.8723602-.1535645.3262329-.0118027.7151794.3153381.8687439.3262329.1535797.7151718.0145416.8687363-.3125916.1408615-.3062592.310791-.601593.4770889-.8941956.2471695-.4343719.507988-.8605652.7778778-1.2804108.8869171-1.3794403 1.8792419-2.6907349 2.9479065-3.9338684 3.0496979-3.5458527 6.7654953-6.51651 10.884758-8.729248 1.7956467-.9641724 3.6658096-1.7702026 5.5859528-2.4508362.3589554-.127243.547966-.5207062.4198303-.8796692-.0954133-.2698974-.3416825-.4443664-.6106645-.4607085z"/><path d="m128.0072937 173.5564728c-.0899582-.0072784-.1826401.0018158-.2726135.0317841-1.5248413.4979858-3.0124283 1.0886688-4.4554901 1.7884064-5.4005814 2.6198425-10.0896149 6.5610046-14.0571289 11.0301361-1.1831665 1.3321838-2.3045349 2.7198181-3.3568344 4.1574249-.641571.8760071-1.2749557 1.7702026-1.8320007 2.703476-.1844788.3098602-.0827026.7097168.2271805.8941956.310791.1853638.7106171.0836029.8950958-.2271881.2062836-.3453217.4316406-.6815338.6560974-1.015976.3580475-.5352173.7297134-1.0595551 1.1104736-1.5793457 1.0286789-1.4039917 2.127327-2.7589111 3.2850571-4.0583801 2.1555023-2.4172211 4.5272827-4.6517944 7.1108017-6.6073914 2.2954407-1.7374725 4.7608185-3.2586823 7.3861389-4.4445801 1.127739-.5088959 2.283638-.9459839 3.4595337-1.3285675.3616791-.1190338.5606842-.5070648.4425507-.8696442-.0881349-.2717133-.3307801-.4507294-.5988618-.47435z"/><path d="m131.0061035 177.2177277c-.0899658-.0027161-.1808319.0099945-.2698822.0454254-1.1831665.4643707-2.3408966.9923553-3.4649887 1.5866699-3.0342484 1.6066132-5.8167725 3.6648865-8.3430328 5.983963-3.1214828 2.8643036-5.8694916 6.1212006-8.3003387 9.5870819-1.2086029 1.7220459-2.3399734 3.4986115-3.3850098 5.3242493-.3843918.670639-.7569733 1.3476562-1.1131973 2.0337219-.211731.4053192-.4216385.8142395-.6133881 1.2295227-.1517563.3271484-.0072708.7142639.3207779.8660126.3271408.1517487.7142639.0090942.8660278-.3180542.1835632-.3970947.3834763-.7851257.5852127-1.1731567.328064-.6297607.670639-1.2513275 1.022316-1.8683472.9950714-1.7447662 2.0728226-3.4395599 3.219635-5.0888824 2.418129-3.4758911 5.1852112-6.7355194 8.3148651-9.5898285 2.4481201-2.231842 5.1388702-4.2183075 8.0713272-5.7676849 1.0777588-.5697784 2.1873169-1.0750427 3.3223114-1.5193939.3553162-.1390381.5307007-.5397797.3916779-.8941956-.1045075-.2662507-.3553162-.4307404-.6243134-.4371033z"/><path d="m102.1485214 166.8209686c-.0890579.0118256-.1763.0427094-.2589874.0908661-.4116592.2435303-.8078613.514328-1.1759033.8205872-.6715469.5597687-1.2549438 1.2158661-1.7720184 1.9192505-.3325882.4534454-.6515503.9287109-.9059982 1.4321289-.1617584.321701-.0354462.7169952.2871628.8796692.3225861.1626587.7178955.0326996.8805542-.2890015.2544479-.5052338.587944-.9813995.9396286-1.4203186.6833572-.8523865 1.4994049-1.6020813 2.4453812-2.1527863.3289642-.1926575.4371033-.6133881.2444534-.9423523-.1453935-.2471771-.4180146-.3734741-.6842729-.3380432z"/><path d="m128.3135529 156.8358459c-.3598633.0299988-.6288452.3453217-.5988617.7042694.0599823.7269897.1926498 1.4503326.3380432 2.1645966.2344666 1.155899.5397949 2.3009033.9087372 3.4213715 1.2067871 3.6730652 3.1051178 7.1453247 5.7531586 9.9787598 1.1377258 1.2176819 2.4054108 2.2954254 3.771225 3.249588.3125916.2171936.7442474.1417694.9623413-.1708374.2180939-.3125916.1399536-.7442322-.1726685-.9623413-1.2004242-.8360291-2.3208771-1.7711182-3.3368378-2.82341-2.6852875-2.7807159-4.6118011-6.2357025-5.7985992-9.9015198-.3553162-1.0968323-.6461029-2.2136536-.8632965-3.345932-.1090393-.5661469-.211731-1.1386414-.2589722-1.7147827-.0290985-.3598481-.3444214-.62883-.7042694-.5997621z"/><path d="m132.3264923 153.9679108c-.357132.0545197-.599762.3871155-.5452423.7442474.1035919.6779175.25354 1.3521881.4116516 2.0191956.2299194.9659729.4952545 1.9237823.7951508 2.8706818 1.0023193 3.160553 2.3835907 6.2593079 4.3764343 8.9255219 1.4294281 1.9137878 3.2068939 3.5976715 5.3324127 4.7135925.7206268.3789215 1.4712372.6815491 2.2463837.9232635.3643951.1135864.7506104-.0872345.8632965-.4516449.1135864-.3634949-.0899811-.7524261-.454361-.8660126-.5970459-.1853943-1.1795502-.4089355-1.7402191-.6870117-3.6349182-1.8011017-6.1039429-5.2897034-7.7841797-8.8773651-.2835236-.6061096-.5461426-1.2204132-.7924042-1.8429108-.3207855-.8114929-.6088562-1.6375275-.8687439-2.4708252-.2962494-.9459839-.5579681-1.9019775-.7778778-2.8679504-.1199493-.5243378-.233551-1.0550385-.3153381-1.5875397-.0554199-.3562317-.3907471-.599762-.7469635-.5452423z"/><path d="m136.1486053 151.2135468c-.3589478.0381775-.6170349.3598633-.5788574.7178955.0799713.7578735.2308044 1.5093994.3943787 2.2527466.2662659 1.2086029.6043091 2.4044952 1.007782 3.5749359 1.095932 3.171463 2.6853027 6.2048035 4.896225 8.7437897 1.307663 1.5012207 2.8343353 2.8188782 4.5354767 3.8566284 1.164978.7106323 2.4035797 1.2813263 3.6912537 1.7320404.359848.1254272.7515259-.0635986.8778381-.4234467.1253967-.3598633-.0636139-.7542572-.4234772-.8805542-1.5375671-.5352631-2.9969788-1.2631531-4.333725-2.1945953-3.9438782-2.7489014-6.5646515-7.0153809-8.0849609-11.5099487-.3807526-1.1259155-.6988068-2.2727356-.9450836-3.4359131-.1299438-.6115723-.2526093-1.2322388-.3180542-1.8547211-.0381623-.3589325-.3598481-.6170197-.7187959-.5788574z"/><path d="m140.5931854 149.7877655c-.3543854.0681458-.5852051.4125519-.5170593.7669525.1063232.5488739.2489929 1.0923004.4007568 1.6302643.2180939.7769623.4689026 1.5466614.7469788 2.3054504.2289886.6270142.4798126 1.2440338.7487793 1.8547058 1.5675659 3.5431366 3.9620667 7.0253906 7.54245 8.7546997.698822.3371277 1.4285278.5888519 2.1782227.7806091.3698578.0944824.7469788-.127243.8405762-.4961853.0945129-.3698425-.1299438-.7469788-.4998016-.8405762-.5806732-.1481171-1.1477203-.3334961-1.6947784-.5797577-1.6239014-.7288055-3.0115204-1.8974457-4.1547089-3.248703-1.6974945-2.0055695-2.9070129-4.403717-3.7966766-6.8636322-.271698-.7506104-.5152283-1.5121307-.7242432-2.2836456-.1136017-.4161835-.2217255-.8360138-.3035126-1.2604065-.0690614-.3544005-.4125673-.5879363-.7669832-.5197753z"/><path d="m144.3353424 149.5578461c-.357132.0463409-.6106567.3716736-.5643158.7297058.0436096.3416901.1199493.6824646.2008209 1.0168762.1281433.5243378.2853394 1.0413971.4716339 1.5475616.7433319 2.0210114 1.9546661 3.9175262 3.7257996 5.1824799.6342773.4525452 1.3212738.8105774 2.047348 1.0877533.357132.1353912.7569733-.0472565.8923798-.4034729.134491-.3562317-.0445251-.7533417-.4007568-.8887482-.5261536-.1981049-1.0304871-.4416351-1.502121-.7496948-1.6775208-1.095932-2.8370514-2.8306885-3.5295105-4.6854095-.1880951-.5034332-.3471222-1.0159607-.4689026-1.5393829-.0563354-.2408142-.1135864-.4861755-.1417542-.7324371-.0463409-.3580323-.3725738-.6115724-.7306213-.5652314z"/><path d="m128.3453522 186.9629517c-.1672058-.0027313-.3362274.0572357-.4661789.1817474-.2598953.2507782-.2671661.6660767-.0172653.9259796.3816681.3961945.7306213.8260193 1.0704803 1.2585754.5843201.7406311 1.1295624 1.5130463 1.6357117 2.308197 1.7329407 2.7170868 3.0396881 5.749527 3.6439972 8.9227905.1281433.6742706.2199249 1.3530884.2835236 2.0364532.0363617.3789673.3734894.6570129.7524414.621582.3798523-.0354309.6579132-.3734894.622467-.7524261-.1199493-1.2558746-.3362274-2.4971924-.6588287-3.7176056-.719696-2.7171173-1.9292297-5.2924347-3.4331818-7.661499-.5625-.8860016-1.1677094-1.7429352-1.8174591-2.5671539-.3671112-.4652863-.7469635-.9296265-1.1586151-1.3576355-.1253968-.129959-.2898865-.1953887-.4570923-.199005z"/><path d="m124.2587967 190.7714233c-.1672058.0045471-.3307724.0708771-.4543686.2017365-.2480774.262619-.237175.6779022.025444.9259949.1417694.1299591.2708054.2744293.4007568.4171143.2044601.2262726.4034729.4616394.5961227.6988068.5461426.6742706 1.0468521 1.384903 1.5103149 2.1182404 1.7838287 2.8188782 2.995163 5.9776306 3.7203369 9.2263336.0836029.3725586.454361.6061096.8260193.522522.3725891-.0836182.6061249-.4516449.522522-.8233185-.2671661-1.1868134-.5906677-2.3636017-.990509-3.5131378-.7469788-2.1464233-1.7383881-4.2083282-2.9651794-6.1221161-.4952621-.7733307-1.0314102-1.5221252-1.6102753-2.2354584-.3489456-.4298553-.7097092-.8587646-1.1131897-1.2404327-.1308517-.1244814-.3007812-.1808321-.4679946-.176285z"/><path d="m120.5584488 195.0651703c-.1671982-.0063782-.3362198.0508881-.468895.1735535-.2653503.2444458-.2844315.6570129-.0390778.9223785-.0045471-.0036469.0072632.0072479.0109024.011795.0063553.0072784.0127258.0145416.019989.0227203.0209045.0236359.0390854.0472565.0599823.0708923.0599823.0708771.1199493.1426697.1781082.2162628.16539.2071838.3244171.4216614.4770813.6388397.4761734.6770172.8978271 1.3921814 1.2722168 2.1291656 1.1286469 2.2200165 1.8265457 4.6372375 2.1246109 7.1053467.0463486.3789368.3907547.6479034.7696915.602478.3780365-.0463562.6479263-.3916473.6015854-.7696991-.1172256-.9541626-.2871552-1.899231-.5225143-2.8315887-.4570923-1.8110962-1.1522751-3.5594788-2.0555573-5.1933899-.3562164-.6433716-.7433319-1.270401-1.170433-1.8692474-.2499008-.3507843-.5107117-.7015381-.8033218-1.0195923-.1226731-.1326903-.2871475-.2026366-.4543686-.209915z"/><path d="m117.6759644 198.7309875c-.1653824-.0236359-.3407669.0145264-.4852524.1226654-.2898941.2153778-.3489609.6243134-.1335907.9141846-.0045395-.0054626.0100021.0108948.0136261.0172577.0054626.0063782.0100021.0127411.0145493.019989.0154495.0209045.0308914.0436249.045433.0654297.0427094.0618134.0836105.1245117.1244965.1872101.1126785.1726685.2208252.3498688.3244095.5279694.2980652.5125122.5634232 1.0413971.8005981 1.5848236.7106171 1.630249 1.1613541 3.3586578 1.3521881 5.1261292.0408859.3780365.3816605.6542969.7606049.6125031.3789444-.0409088.6551895-.3816833.6133881-.7606201-.0754166-.6788177-.1826553-1.3521729-.3325958-2.0191956-.3062363-1.3667297-.7878571-2.6925659-1.3967133-3.9529724-.2253647-.4661865-.4698029-.921463-.7351608-1.3658142-.1681137-.279892-.3425903-.5615845-.5370636-.8233185-.1081315-.1453858-.263527-.2317201-.428917-.256241z"/><path d="m114.276413 202.6248779c-.0845108.0072784-.1672058.0290833-.2471771.0708771-.3189621.1681213-.4425507.5634155-.2753448.8832855.1308594.2480774.2389984.5088959.3407745.7696838.1353989.3444214.2544479.6933746.3607712 1.0477753.3026047 1.0086975.5025177 2.0473633.607933 3.0951385.0390854.3789215.3789444.6551819.7578812.6161194.3798523-.039093.656105-.378952.6161194-.7578888-.139946-1.3231201-.4370956-2.600769-.8851013-3.8539124-.1853867-.5170593-.3862076-1.0377808-.6424637-1.5248566-.1254045-.2399138-.3789445-.3671263-.6333924-.3462218z"/><path d="m154.5021973 176.9814606c-.0881348-.0145264-.1799316-.0099945-.2726135.0118103-5.0116425 1.182251-9.976944 2.8079834-14.3951721 5.5032654-1.2931213.7887726-2.5271759 1.6675262-3.7112579 2.6125946-1.0822906.8632965-2.1173401 1.7811127-3.1950836 2.6498413-.2807922.2263031-.3253174.6388397-.0990448.9196472s.6361084.3253326.9169006.0990601c1.0768433-.8660278 2.1100769-1.783844 3.1923676-2.6434937 1.1422729-.9069214 2.3336182-1.7511292 3.5840302-2.5044708 4.3055573-2.5962219 9.1517944-4.1501617 14.022583-5.2933502.3707733-.0872345.6015778-.4616089.5134277-.8323822-.0654146-.2780762-.2907869-.4770814-.5561372-.522522z"/><path d="m156.0043335 181.8004608c-1.3394623.214447-2.6625824.5070496-3.9638824.8914642-4.1165466 1.2158661-7.9677277 3.2332458-11.4845123 5.6741028-1.2240448.8505554-2.412674 1.7574615-3.5522308 2.7179871-.6433716.5416107-1.2831116 1.0950317-1.8774261 1.6920624-.2544403.2562561-.2526245.6688232.0027313.9232635.2562561.2544556.6715393.2526398.9259949-.0027313.6088409-.6115723 1.2667542-1.174057 1.9283142-1.7265778 1.0659332-.890564 2.1791382-1.7302246 3.3223267-2.5189972 3.6812592-2.5389862 7.7923431-4.6008759 12.1342468-5.7167969.9187317-.2353668 1.8474426-.4216614 2.783432-.570694.3762207-.0599823.630661-.4125671.5706787-.7896729-.0599672-.3762206-.4134676-.6334074-.789673-.5734099z"/><path d="m156.7631226 185.308136c-.0899658-.0063477-.1799316.0027313-.2698975.0336304-4.8989563 1.6902313-9.4071655 4.3546295-13.5037079 7.5060883-1.2222443.9396362-2.4090424 1.9219818-3.5576782 2.9497528-.7042542.6306458-1.404892 1.2740326-2.0591736 1.9573822-.2499084.259903-.2408142.6724701.019989.9223785.2608032.2498932.6733704.240799.9232635-.019989.6724701-.7015381 1.3967285-1.3594666 2.123703-2.0046692 1.2167969-1.0795593 2.4817505-2.1064301 3.7857666-3.0778656 3.8802643-2.8933868 8.1276703-5.3505859 12.7158356-6.9263306.3607788-.1244812.553421-.5170593.4289246-.8778229-.0926819-.2698974-.3389587-.4443664-.6070251-.4625549z"/></g></g></g></svg>