<svg id="Слой_1" enable-background="new 0 0 230.3999939 230.3999939" height="512" viewBox="0 0 230.3999939 230.3999939" width="512" xmlns="http://www.w3.org/2000/svg"><g><g><g><path d="m116.3852692 182.5376434c-.0139542 0-.0279846-.0004883-.042099-.0015106-.3220978-.0229187-.5646515-.3024292-.5418015-.624527.0113373-.15979.2971268-3.9852905 2.0229721-10.2530518 1.5884552-5.7684937 4.7529678-14.7633057 10.8085175-24.8560333.1661835-.276947.5253296-.3668518.8023834-.2005768.2769928.1661835.3667297.5254059.2006226.8023376-5.9776382 9.9626617-9.1033936 18.8360291-10.6730042 24.5254974-1.7012863 6.1667175-1.9921417 10.026413-1.9948349 10.0646667-.0220261.3079531-.2787704.5431978-.582756.5431978z" fill="#434c0f"/></g><g><path d="m114.9219666 181.0129852c-.0314102 0-.0632324-.002533-.0952148-.0077515-.3187485-.0521698-.53479-.3528442-.4826508-.6716003.0194931-.1190338 1.9956436-12.0668488 6.0715408-26.1445465 2.3956528-8.2746124 5.038269-15.6591034 7.8542557-21.9483185 3.5323639-7.8891678 7.353714-14.0758209 11.3579865-18.3880692.2198639-.2366333.589859-.2504272.8264465-.0305939.2366791.2197495.2503967.5897751.0306854.8264542-3.9170532 4.2182999-7.6676636 10.2980042-11.1476746 18.0701752-2.793869 6.2398071-5.4175568 13.572937-7.7982788 21.7955933-4.0566406 14.0112457-6.0213699 25.8898773-6.0407028 26.008255-.0469132.2867279-.2950134.4904022-.5763931.4904022z" fill="#434c0f"/></g><g><path d="m109.3351135 181.4988251c-.2588654 0-.4955444-.1732025-.564888-.4353027-2.1382599-8.0773315-7.5301132-16.9991608-7.5843735-17.0883331-.1677322-.2759705-.0800323-.6357117.1958847-.8034973.2760849-.1678925.6357956-.0800323.8034515.1958008.0551529.0906067 5.5334091 9.1532135 7.7156372 17.396698.0826492.3122253-.103447.6323242-.4156723.7150116-.0500945.0132598-.1005172.0196227-.1500396.0196227z" fill="#434c0f"/></g><g><path d="m112.3708038 182.3488159c-.2569885 0-.4925232-.170639-.5636673-.4304352-.019989-.0729065-2.0362778-7.3851776-5.3997726-15.5001068-3.0834961-7.4393463-7.9570465-17.0930634-13.6637421-20.8362579-.2701263-.177124-.3454285-.5396423-.1683121-.8097382.1772079-.2700043.5395203-.3454742.8097305-.1682281 2.6478348 1.7366943 5.3251266 4.7769165 7.9574585 9.0361786 2.0862045 3.3753967 4.1553574 7.5278625 6.1501846 12.34198 3.3900146 8.1811676 5.4223785 15.5536957 5.4424438 15.6272125.0853348.3115234-.0979843.6331787-.4094696.7185059-.0517271.0141601-.1036986.0208892-.1548537.0208892z" fill="#434c0f"/></g><g><path d="m113.4634705 181.8630676c-.2635193 0-.5028076-.1794128-.5678329-.4468842-.0284729-.1174011-2.8966675-11.8900452-6.8388443-25.065094-5.2042084-17.3929138-9.9035797-29.3142014-13.5899048-34.4750519-.1877289-.262825-.1268692-.6280823.1360016-.8158112.2627029-.1877213.6281204-.1267776.8157654.1359634 3.8143311 5.3401337 8.4439468 17.0567703 13.7600937 34.8245163 3.9506607 13.2037201 6.8248978 25.0017853 6.853447 25.1193848.0762863.313858-.1163406.6300812-.430191.7063293-.0464251.0112612-.0928499.0166475-.1385347.0166475z" fill="#434c0f"/></g><g><path d="m113.2211609 180.4059143c-.3223343 0-.5839767-.2608643-.5847931-.5833282-.0277405-11.2317047.677803-22.7307129 2.0971375-34.1776733 1.1354141-9.157196 2.7275391-18.3020859 4.7322388-27.1807098 3.415062-15.1249695 6.8950653-24.3648987 6.9298172-24.456459.1145477-.3019257.4523087-.4538574.7542496-.3392258.3019485.1145859.4538574.4522629.3393097.7542114-.0345078.0909882-3.4911728 9.272438-6.8882828 24.3247757-1.9948349 8.8388138-3.5790482 17.9426956-4.7087479 27.0586929-1.411911 11.3926392-2.1137848 22.8364105-2.0861282 34.0134888.0008163.3229523-.2604141.5854187-.5833282.5862274-.0004884-.0000001-.0009767-.0000001-.0014726-.0000001z" fill="#434c0f"/></g><g><path d="m111.8375702 180.3185425c-.0075912 0-.0151749-.0001221-.0227661-.000412-.3227463-.0123596-.5743561-.2839966-.5620346-.6067505.503212-13.1563263-2.5951309-35.275589-5.2830276-51.5146484-2.9153519-17.6137848-5.9899521-32.2966461-6.0207138-32.4429092-.0664062-.3160782.1360016-.6261215.4521408-.6925125.3154068-.066452.6261673.1360474.6924973.4521255.0307541.1464615 3.1097641 14.8500061 6.0292816 32.4877853 2.6970291 16.2940369 5.8055725 38.4996185 5.2986069 51.7548676-.0120775.3151245-.2713548.5624542-.5839845.5624542z" fill="#434c0f"/></g><g><path d="m111.9127045 180.5786285c-.3010483 0-.5566483-.2309265-.5821075-.5363007-1.3304826-15.9662627 4.517517-115.4173278 4.5766677-116.4200057.0190048-.3224869.2962341-.5683022.6183319-.5493126.3224182.0190506.5683136.2958488.5493088.6182709-.0592346 1.0018578-5.90242 100.3697662-4.5787888 116.2539215.0268478.3218994-.2123642.604538-.5342102.6313477-.0164871.0013923-.0329666.0020789-.0492019.0020789z" fill="#434c0f"/></g><g><path d="m112.6511307 180.4961548c-.0092163 0-.0184402-.0002136-.0278168-.0006561-.3225861-.0151367-.5719147-.2888947-.5567398-.6115265.4959564-10.5780334-11.3092804-145.3569031-11.4286423-146.717041-.0281448-.3217697.2097549-.6054382.5315247-.6336899.3204651-.0281029.6054382.2096939.633667.5314636.4873886 5.5569878 11.9313736 136.2175598 11.4317474 146.8740082-.0146866.3133316-.2733078.5574417-.5837402.5574417z" fill="#434c0f"/></g></g><path d="m101.1294861 35.3432388s7.8483734-.7043228 6.6331863-21.998745c0 0-5.4756699 3.59126-6.6644669 11.2166014 0 0 .0240173-9.4097033-2.1019287-16.2168045 0 0-4.3390961 10.3361492-3.8427505 18.2385654 0 0-2.2438354-4.9322605-7.5736465-8.1763515 0 .000001-1.5960923 14.1021624 13.5496063 16.9367342z" fill="#ff8073"/><path d="m116.249939 63.1627808s10.3360596-3.8278923 8.2213669-20.9864693c0 0-5.1723709 3.0628624-5.995697 9.2556915 0 0-.3884201-7.5990562-2.7557068-13.0321503 0 0-3.7704391 8.4753494-2.9416046 14.8414688 0 0-2.3997192-3.915802-7.7290878-6.3767738-.0000001 0 1.2506713 10.7804909 11.2007293 16.2982331z" fill="#ff8073"/><path d="m112.6507568 179.9113617 22.8096313-.4130096c.6244812-.0113068 1.1051483.5483398.9996796 1.1639557l-6.4346924 37.5606079c-.2111053 1.2323151-1.1322174 2.2203522-2.3455811 2.5218353-2.4224014.6019135-7.3287582 1.3831177-16.3378296 1.3056183-7.1447144.0035248-12.1161118-.9628143-14.669281-1.6197815-1.2011948-.309082-2.1104584-1.2910309-2.3267059-2.5123596l-6.6086273-37.3237457c-.087944-.4967194.2972565-.9510651.8016739-.9455719z" fill="#c1857b"/><g fill="none" stroke="#fff" stroke-linecap="round" stroke-linejoin="round" stroke-width=".52"><path d="m94.4274063 216.6777802s18.5923233 4.7233582 35.5681839-.0639343"/><path d="m88.4574661 182.757782s22.4411316 2.2018433 47.1390915-.3509521"/><path d="m121.457901 217.8902435s-6.5096207-9.7006226-.0639191-17.9332733c6.4456863-8.232666 12.8913879-7.4028931 12.8913879-7.4028931"/><path d="m122.1598129 217.5712585s.3192139-12.3171387 10.7854538-21.1242828"/><path d="m118.7774811 209.0830994c3.1270523 2.1698761 3.7015457 5.6161499 3.7015457 5.6161499s1.7867279-2.3612213 8.4239883-2.7441406"/><path d="m119.7985916 203.1479492s3.3184128 2.48909 4.1481781 5.7438049c0 0 5.0416641-2.1698914 7.9136734-1.978302"/><path d="m122.8617249 198.6805725s3.8291855 2.8080597 3.3825684 5.9353485c0 0 3.7652435-1.3403168 6.3180542-1.5316772"/><path d="m127.1377716 195.0429382s2.2335663 3.1272888 1.8506622 5.6161499c0 0 1.8508911-.8297729 3.8291931-.3192139"/><path d="m131.6051483 193.0007019s.5742798 2.3614502-.4468384 4.977951"/><path d="m106.9709015 218.4645081s-7.4668121-4.2758331-4.9140167-19.528656c0 0 13.0827408-.5742798 17.422493 3.4462738"/><path d="m119.5433121 218.1455231s-5.4248123-13.7848816-16.5292435-18.2522736"/><path d="m104.8010254 216.0395813s7.7860336-2.808075 13.465889-.6381989"/><path d="m102.8227234 211.6358948s6.5093994-3.1270752 12.3808365-1.2763977c0 0-.8297806-5.9351349 1.7869568-9.0622101"/><path d="m101.929245 207.7429962s5.7435608-3.318634 9.2537689-1.9146118c0 0-.574501-3.637619 1.1487656-5.7437897"/><path d="m101.6100235 203.5948181s3.9568405-1.7232666 6.6372757-.9574127c0 0-.4468536-1.5316772.0637054-3.5739288"/><path d="m92.1649017 206.211319s2.8078537-6.3180695 4.4671707-7.9773865c0 0 4.148407 1.2124634 5.1695251 2.6804504"/><path d="m96.6320724 198.6168518s2.6167297 8.232666 2.9357224 18.9544067"/><path d="m93.1860275 210.9976959s4.4671631.3192139 6.0627747 3.318634c0 0 1.0848312-.8934784 3.0633545-2.1698761"/><path d="m92.7391739 205.8283844s5.4245834 1.7869568 6.445694 5.1055908c0 0 .5105667-2.6167145 2.042244-3.8291779"/><path d="m94.1432114 202.8926849s2.9994278.3829193 4.1481781 2.1698761c0 0 .6382065-2.7441559 2.4251633-4.786377"/><path d="m111.5019989 198.8721313s-.765831-6.5733337 5.1055908-12.572403c0 0 8.6792908 2.2975159 9.4451218 8.8071442"/><path d="m119.2880249 202.0631409s-3.5739136-7.5307465-2.4251556-15.1889191"/><path d="m112.012558 195.8087769s4.4034653.1915741 6.3180542 3.5099945c0 0 1.1487656-4.9777374 6.3180695-7.7221069"/><path d="m113.0973816 191.7882385s3.2549438.6381989 4.2121201 2.7441559c0 0 1.5956116-4.1481934 4.8503113-5.4885254"/><path d="m121.5855484 188.2782593s3.3184128-4.148407 9.9556808-4.9142456c0 0 3.9568329 3.5739136 3.2546997 9.1261292"/><path d="m126.3719254 194.0218201s3.7652664-3.5739136 5.1055984-10.0196075"/><path d="m124.2020493 186.5550079s4.084465 2.2335815 4.3397446 5.0416565c0 0 3.3823547-1.8506622 6.3817749-1.659317"/><path d="m127.7759705 184.8319855s2.4251556 1.2763977 2.4251556 3.1270599c0 0 1.7230225-.9571838 4.0205383-.5742645"/><path d="m100.8441849 199.7016754s2.6804428-5.6798553-1.9782944-14.2314911c0 0-5.8075027 1.4040375-8.8071518 6.3180542"/><path d="m100.8441849 199.7016754s2.6804428-5.6798553-1.9782944-14.2314911c0 0-5.8075027 1.4040375-8.8071518 6.3180542"/><path d="m92.2925491 204.1690826s-.1915741-10.2749023 6.0627747-18.2522736"/><path d="m91.0798569 190.8308258s2.2975159 2.7443695 2.1061707 6.1906586c0 0 3.7652588-3.4462891 8.3602905-3.1273041"/><path d="m93.6326523 188.5972443s.8934784.8934784 1.0211182 3.0633545c0 0 2.7441406-1.9785309 5.9990692-2.1061707"/><path d="m93.6326523 188.5972443s.8934784.8934784 1.0211182 3.0633545c0 0 2.7441406-1.9785309 5.9990692-2.1061707"/><path d="m101.4823914 191.4690247s.5744934-3.3184052 3.5739136-6.1904144c0 0 7.2115326 1.0211182 8.8069229 4.4034576"/><path d="m110.8638 198.7445068s-5.296936-3.5099792-5.8074951-12.5084991"/><path d="m101.6100235 195.2982178s2.4888687-.8934784 6.3180618.3192139c0 0-.1913452-4.0844727 4.7226715-7.5307465"/><path d="m102.1205902 190.3202667s1.5953827.5105591 4.0844727 1.9145966c0 0-.3829269-3.0633545 2.2335815-5.9351349"/><path d="m88.9682236 183.1601562s2.2597504 2.791687 2.725029 6.0484314"/><path d="m135.4932861 182.4955597s.1330872 1.4622803-1.1963043 4.2537537"/></g><path d="m116.3587799 67.287056c-.0001373-.000351-4.4255295-8.5094414 8.8320389-9.8210449 12.077446-1.1948509 14.8375626-3.143856 15.8520126-5.5602608.0596619-.1421318.118515-.2742577.2312927-.3677177-.1198273 2.5136185-2.9448395 5.1553688-4.7299347 6.6076012-3.4809875 2.831913-7.8740082 4.3222961-12.2785645 4.9102707-1.5494918.2068442-6.2759398.6008834-7.906845 4.2311515z" fill="#434c0f"/><path d="m109.5369873 24.8378258c13.0315781-5.2886868 15.7092056-6.2479496 16.1637039-8.8505831.4544983-2.6026306 1.6946564 6.9664335-12.0657806 13.0551195-9.5907364 5.1333847-11.5373077 7.7318039-11.7573929 9.6915092 0 .0000001-5.3721237-8.6073341 7.6594696-13.8960456" fill="#434c0f"/><path d="m123.9261856 100.4173737s19.1033249-3.6917419 27.8559341-19.613533c3.2631378-5.9359512 9.1458282-10.2887421 11.3859711-16.9746246 0 0-.6379395-1.1871262-3.2005005.2054443 0 0 2.1368866-1.5290146 6.9023743-6.5368309 0 0-3.7350922-.3642349-8.7866974 2.054924 0 0 7.5683594-4.3046494 8.8909149-7.2722359 0 0-2.1785736.9135208-9.088562 3.8263664-6.9102325 2.913063-17.7032318 6.2552948-24.0425568 10.5377388-6.3393097 4.2822189-11.658844 10.7542267-12.327858 18.2875595-.6692504 7.5333252-.656021 13.4223786 2.4109803 15.4851914z" fill="#a4b17c"/><path d="m134.1676941 121.6225815s-4.6216431-14.7538834 8.8879089-23.375145c13.5095825-8.6210327 14.8428497-7.0213242 15.9982147-6.576973 1.1553497.4443436-1.7776337 1.8665848-1.5109711 3.0219421.2666473 1.1553574 11.9985962-6.1326294 21.2421417-.3556137 0 0 2.1330261 1.4222412-1.2443237 2.5775909-3.3773346 1.1553574.088974.6220474 2.3996887 2.932991 2.3109283 2.310936-6.3103333 1.3332748-10.754303 2.8440247-4.4439545 1.5109711-3.4662933 4.4439545-6.0438995 8.5325241-2.577362 4.0883409-14.5759582 9.4209977-28.9744567 10.3986589z" fill="#a4b17c"/><path d="m126.1745987 151.8387756s2.9540176-16.731369 18.1776199-18.6873016c15.2234039-1.9560089 22.0900116 1.9472656 28.2294159.6022644 6.1395721-1.3447113 4.3646545 2.0507507 1.3134766 2.6763763 0 0 4.8225861.0752869 8.5379181-2.2288818 3.7152557-2.3039551-3.7340393 7.2570496-7.7934875 7.1602478 0 0 2.9641113.9572906 3.473053 2.6683807.8410034 2.8266144-18.0195465 8.0597534-23.9473419 9.2873688-11.6281892 2.407898-19.1440431-5.8497619-27.9906541-1.4784546z" fill="#a4b17c"/><path d="m99.8184204 153.4363708s-5.6409531-22.0837402-11.0418701-29.8850174c-5.4009171-7.8014832-15.0025711-12.9623718-26.4046059-14.8826523-11.4020386-1.9202881-14.6424065-5.6409531-14.1623344-1.8001633.480072 3.8405762.720108 5.0407562 3.0005608 4.6805801 2.2802238-.3599396-4.9208488-.7201004-4.2007408 1.8003845s9.0014534 3.0005569 11.2819023 3.8408051c2.2802277.840004-1.2001762-.2400436-4.2007332 1.3200836-3.0005608 1.5603409 9.361618-.4800797 12.842247 8.0412979 3.4804077 8.5216141 12.9621582 15.6027908 22.2036438 19.8035202 9.2417221 4.2007295 10.6819305 7.0811616 10.6819305 7.0811616z" fill="#a4b17c"/><path d="m95.2628174 126.7675781s2.9880447-28.9209976-9.4845657-42.0198441c-12.4726105-13.0985947-23.646019-17.248848-25.8547935-22.3068008 0 0-3.8976097.7781219 1.0393639 10.6346436 0 0-3.5077324-7.5218964-5.7164993-6.6141968-2.2087746.9079361 1.8188896 9.078392 4.1574554 10.8940277 0 0-4.1340561-7.5056763-5.3032227-3.3554153-1.1694031 4.1500168 8.6814041 20.2153244 15.5673065 27.3482819 6.88591 7.1329574 19.228485 15.9519729 25.5949554 25.4193038z" fill="#a4b17c"/><path d="m101.4480743 98.6911469s1.4742508-24.0767517-7.8232346-35.4591064c-8.3158569-10.1806107-21.7518387-14.0542488-26.4189072-12.7390556-1.0233307.2883797-1.4131699 1.6625595-.6941452 2.4931221.4933853.5699234 1.8911285.4958382 3.3982162 1.1021423 0 0-3.0897141-.5415115-4.9065323.2134628-.5829391.2422371-.8368073 1.0104256-.5231857 1.5937576.4354324.8097649 1.5831604.9151268 2.3228607 1.1876183 1.0881653.4008636 2.1200867 1.0217705 3.2666321 1.2328644-.000061-.0000114-4.0138397-.7386894-5.4254608.4020348-.5203629.4205055-.3058624 1.3089485.3344727 1.4015999 1.1188278.1618805 3.7144241.836422 9.5843277 3.29319 4.2292023 1.7699242 11.8140717 8.1839333 14.9766159 15.6291389 3.1627122 7.4454039 6.8169022 15.9945144 11.9083405 19.6492309z" fill="#5d6a24"/><path d="m108.8442459 157.9868622s8.6077194 4.8847351 14.7799072-6.6406708c6.1720352-11.5252228.7352448-22.1746216.4672775-29.7236099 0 0-7.4582443 4.0011063-15.4718704 13.1092911-8.0136184 9.1081543-7.9197998 19.9720153.2246857 23.2549896z" fill="#a4b17c"/><g fill="#5d6a23"><path d="m174.6698914 142.1753235c.0016632-.0128326-.0083008-.0242004-.0220032-.0260315-.3219452-.0385437-.6447296-.0651703-.9671478-.098587-.7922821-.0804749-1.5843353-.1694336-2.3767395-.2405548-1.5229797-.1369324-3.0478058-.2415009-4.5734711-.334137-2.2862244-.1390839-4.577713-.2430725-6.8650665-.230957-2.0184021.0101013-4.0343781.1049957-6.0383301.2909698-3.530304.3268738-7.039978.8938446-10.4472504 1.7841187-2.8600006.7473602-5.6383667 1.7409821-8.3269501 2.9040222-2.6302185 1.1371155-5.1706543 2.4436493-7.5641022 3.9676056 2.4450378-1.5444641 5.0585327-2.8411713 7.8143463-3.84552 2.6348267-.9598846 5.3645935-1.6656799 8.121933-2.2667847 2.8460693-.6201172 5.7327423-1.0979767 8.6347961-1.4543457 1.9838104-.2443848 3.9762268-.4280548 5.971756-.5847168 3.8277588-.3006592 7.6736908-.479126 11.525116-.3046417.9254913.04216 1.8491211.1056366 2.7723389.1861115.7740021.0669708 1.5445557.1468658 2.3116608.2727814.0128021.001892.0273895-.0073549.0291138-.019333z"/><path d="m164.7315063 145.4393768c-.5487976.1593628-1.1088409.2645874-1.6834412.2624512-.6417084-.0019226-1.2758331-.1423492-1.8993835-.3199005-.5640106-.160614-1.1229401-.3555908-1.6647644-.5960083-.611969-.2708588-1.2058563-.5894623-1.7932739-.9215546-.3819427-.2162018-.7612152-.4399261-1.1206818-.6997223-.3000488-.2162018-.585083-.4569092-.8530273-.7177734-.0996857-.0964203-.1973724-.1955414-.2922211-.2983398.3422546.3909149.6890411.7762299 1.0468292 1.1508789.4266968.4470673.8631439.8832855 1.3539276 1.2456512.4749451.3508453.9889832.6381836 1.5223999.8629761.5823517.2451172 1.1911316.4192047 1.8088074.4821777.5544891.0558624 1.1119995.0242767 1.6598053-.0451813.6492463-.0826873 1.2881012-.2152862 1.9150238-.4056549z"/><path d="m160.8658905 147.7867279c-.8392792.1677094-1.6911469.2469177-2.5461426.1936798-.8032837-.0505524-1.5896454-.2187195-2.3551331-.4370575-.7634277-.2172852-1.5103149-.4856873-2.2272644-.8088226-.8113556-.3659515-1.5882416-.7947083-2.3416901-1.2514801-.489151-.2966919-.9712982-.6047974-1.4241943-.9467316-.377594-.2854919-.7323303-.5951385-1.0646057-.9245758-.1366272-.1356812-.2713013-.2745056-.3999023-.4181671.3604584.4159241.7333832.8232117 1.1201782 1.2188416.456665.4667664.9261017.9258881 1.4379272 1.342926.3036652.2473145.6227112.478302.9570923.6908875 1.1156769.7102661 2.3875427 1.2403412 3.7239838 1.4909058.8060303.1507111 1.635498.1863251 2.4585876.1599274.8946534-.0290071 1.7848511-.1290437 2.6611634-.3103334zm-12.3589325-4.5931549c-.1284332-.143158-.250412-.291748-.3570862-.4492035-.0041962-.0063171-.0136566-.0069885-.0204315-.0025177-.0069122.003952-.008316.0128326-.0035706.0189972.0658875.0791016.1365051.1526947.2033234.2310181.0575409.068573.1187744.1340484.1777649.2017059z"/><path d="m154.4944916 151.1563263c-.8210602-.0045013-1.6367645-.0835419-2.4244232-.2717133-.88591-.2117462-1.7091217-.5567474-2.4855194-.9536285-.6956024-.3558807-1.3565063-.7554626-1.9734039-1.1938782-.7109985-.5049133-1.3680725-1.0563202-1.9982147-1.6247406-.3445892-.3108673-.6796875-.628006-.99263-.9592438-.3368225-.3570709-.6435242-.7331238-.917511-1.1233978-.1050568-.1499481-.2085419-.3008728-.3045654-.4557495.2868958.4900665.5894623.974823.9108124 1.4514618.2845001.4226074.5797119.8401794.9118195 1.2402039.2360992.2846985.4946442.5584106.769928.8196564.9075775.8615723 2.0144501 1.6127625 3.2700958 2.1300049.6105347.2515564 1.255249.4403381 1.9168549.5855255 1.0788572.2364501 2.197891.3560027 3.316757.3554992zm-11.1305237-6.6387482c-.093811-.1549988-.1795349-.3131104-.2489471-.4756622-.0032806-.0060425-.0119781-.010025-.0195312-.0074005-.0081635.0022278-.0125427.0095825-.0092621.015625.0434265.0790253.0954437.15448.1393738.233017.0444793.0785369.0927733.15596.1383666.2344207z"/><path d="m149.7988892 151.7227783c-.2098083.0350342-.4214783.0586395-.6323853.0829926.2114716-.0222016.422226-.0492554.6323853-.0829926zm-.6323853.0829926c-.5700531.0584869-1.1416168.0722046-1.7062225.0254974-1.0512238-.0868835-2.0210571-.3690796-2.944809-.7394562-.7634583-.3063965-1.4888153-.6681366-2.1742554-1.0719604-.7602997-.4484253-1.470108-.9486847-2.1593933-1.4646606-.5289612-.3954773-1.0487366-.8017426-1.5252228-1.2394867-.3222046-.2967072-.622467-.6080627-.9041443-.931488-.2652893-.3048859-.526123-.616745-.726059-.9564209-.0033264-.0060577-.0134125-.00737-.0205231-.003891s-.010498.0101776-.0067444.0157013c.0549927.0756531.1161194.1485291.1720886.2235107.1342773.1803284.2643585.3620911.401123.5409241.3086548.4037781.6314087.8001709.9589996 1.193161.3570557.4285431.7217865.8534851 1.1250916 1.2530518.2857208.2823792.5915527.5518799.9139862.8061371.9902802.7802124 2.1437073 1.4487152 3.4379425 1.8798523.704422.2348633 1.4486847.3884583 2.2139435.4761047.9664461.1111297 1.9585878.106903 2.9441988-.0065766z"/><path d="m160.9722595 135.9729004c-.0032349-.0087128-.0132294-.0146484-.0204773-.0115967-.0460815.0214233-.0914001.0473785-.1367035.0690308-.1263123.0604553-.2595978.1080933-.3883667.1622162-.2937317.1235199-.5855713.2480316-.8805237.3673096-.4608307.1871185-.9194641.3757477-1.3376617.6486206-.3296967.2151489-.6350098.4680481-.9178619.7456055-.2740173.2685089-.524353.5637817-.7383118.8886719-.27742.4213867-.4839325.8945618-.6621094 1.3751831-.1824646.4918518-.347229.9884491-.4655304 1.5055542.1200409-.4924622.2954559-.9592133.5595245-1.3780518.2982788-.4743347.6900635-.8708954 1.073822-1.2646179.2870483-.2944336.5806274-.5822296.8824615-.8594055.2467957-.2273407.4999695-.4450684.7497406-.6685181.2920074-.2610931.5765686-.5347137.8818054-.7789917.2406311-.1920929.4971466-.3618469.7660675-.5085754.2004547-.1085663.4042053-.2149048.6253967-.2734528.0077059-.0033418.0124514-.0105744.0087282-.018982z"/><path d="m154.0061493 135.6869049c-.0032806-.0070801-.0126495-.0093842-.0198517-.0063934-.052063.0271301-.1021881.0569458-.1542511.0840912-.1426239.0746002-.2924652.1405182-.4374695.2109985-.3003998.1468964-.5999603.294632-.9011993.4406891-.4475555.2179413-.8975372.4354706-1.3109741.7075043-.4105072.2702179-.788147.5826416-1.1306915.9234314-.3518829.350174-.6688538.7319489-.9227905 1.1484375-.2495117.4100037-.4333496.8519135-.5880737 1.2982788-.1713257.4953918-.3101196.9969788-.3891296 1.5108032.0758514-.4508514.2062073-.889679.4220276-1.3039856.2861328-.5487823.709137-1.0288849 1.1344452-1.4915314.3009186-.3270569.6105957-.6442261.9339752-.952301.3679199-.3507233.7535248-.6849213 1.1311035-1.026535.2618866-.2370148.5250854-.4754181.8072815-.6928711.2436829-.187561.500061-.3577881.7689667-.5132751.2077179-.1201019.4186096-.2373199.6477814-.3185272.0077513-.0031282.0119779-.0122071.0088499-.0188142z"/><path d="m146.6709137 135.9631805c-.0052948-.0041962-.0139465-.0033569-.0196991.0016174-.04245.0398865-.0826721.0822754-.1242676.1228027-.1139526.1113892-.2376709.2178802-.3548584.3271637-.2436523.2267303-.4838867.4559784-.7244415.6844025-.3736877.3545074-.7470245.7098236-1.0626984 1.0996552-.3056793.377594-.5618286.7799072-.7725677 1.1923828-.209137.4090424-.3730621.8292542-.4703064 1.2559967-.1053467.464325-.1235962.9309082-.1074219 1.3894653.0173187.4775543.0721588.9473572.1804504 1.4072723-.0932465-.4228668-.1297913-.8549347-.0688934-1.298996.0693207-.5058899.2598267-1.0050964.4678192-1.496582.1657867-.3920135.3474274-.7818604.5515594-1.1649017.255249-.4782257.5376434-.9470978.8176422-1.41745.1667328-.2806091.3374329-.5617523.5295715-.83284.1768188-.2483521.3739014-.4881287.5875702-.7179413.1749878-.1880188.3565216-.3746643.5706329-.5340881.005768-.0049742.005356-.0133513-.0000914-.0179595z"/><path d="m140.0711975 137.6155853c-.0054321-.0050354-.0166321-.0057678-.022934-.0014191-.0452576.0371246-.08638.0771484-.131012.1151428-.1235046.1053925-.2534637.2066956-.3769226.3125305-.2510376.2154541-.4967194.4350739-.7389069.656723-.3526764.3227844-.6957397.6539459-.9739838 1.0211792-.2767792.3649139-.4968414.7556763-.6685486 1.1589355-.1773834.4151306-.3022766.8456573-.355957 1.282547-.0533142.4346619-.0329285.8724365-.0005035 1.3078003.0354156.4707489.0880127.9405823.1715546 1.4078522-.0693359-.4244537-.1009827-.8505096-.0576172-1.2779541.0519409-.5230713.2184601-1.0336609.3944702-1.5372009.126709-.3630371.2658691-.7236176.4250488-1.0777435.2089233-.4630737.4477081-.915329.6949463-1.3662567.1561279-.2850189.3161316-.5702667.5073547-.841629.1694031-.2399445.3626099-.468277.5786591-.6831818.1662445-.1655121.341507-.3297272.5518646-.4607239.006302-.0043487.0079194-.0115508.0024873-.0166015z"/><path d="m172.0501556 144.0671692c-.5471344.1639099-1.1031342.2802429-1.6690826.3018799-.6320496.0245667-1.2509766-.0740967-1.8579407-.206131-.5490265-.1194458-1.091629-.2696075-1.6155243-.4608002-.5917511-.2153168-1.1637421-.4737701-1.7287903-.7444458-.3673859-.1762543-.731842-.3592682-1.0753021-.575119-.2867279-.1795959-.557663-.3815613-.8109131-.6021118-.0942535-.0814819-.1864166-.1654663-.27565-.2528076.3211517.3329315.6469879.6607056.9840851.9785614.4020233.379303.8141022.7485809 1.2827148 1.0500946.4535065.2919312.9481049.5258942 1.4643555.7035522.5636292.1937103 1.156189.3232727 1.7620697.3538666.5439453.0268707 1.0944214-.0240021 1.6369171-.108078.6429291-.0999756 1.2776947-.2438355 1.9030609-.4384613z"/><path d="m167.8252869 137.0272064c-.0010376-.0065308-.0089874-.0108032-.0163879-.0083008-.0476074.0173492-.09552.0381012-.1424408.055603-.1308594.0488586-.2653046.08815-.3970337.1322632-.3004456.1006775-.5993805.2020569-.9000244.29953-.4698792.1528931-.9380798.3068695-1.3877106.5237579-.3544922.17099-.6948395.3700409-1.0199127.587265-.3148346.2101288-.6137085.4400024-.885498.691452-.352417.3261414-.6507111.6898499-.9243622 1.0585327-.2801666.3773041-.5449677.757782-.7712708 1.1526947.2223663-.3762665.4903412-.734375.8298035-1.0582581.3837128-.3667908.8366852-.6768341 1.2815857-.9845276.3327637-.2301178.6700897-.4553375 1.0126953-.6727142.2802887-.1782684.5643311-.3493958.8464966-.5247955.3298492-.2049408.6556244-.4192047.9939728-.6117249.2666321-.1513824.5429535-.2862244.8256226-.4039001.2105255-.0871124.423584-.1726074.6420898-.2222748.0078887-.0027159.0139312-.0083159.0123748-.0146025z"/></g><g fill="#5d6a23"><path d="m172.0496521 95.900856c-.0031891-.010704-.0159454-.0154648-.0284882-.0112228-.2933044.1032562-.5830231.2161789-.8748779.3236313-.7165833.2653503-1.4360504.5239639-2.149353.7966766-1.3710632.5239258-2.7320404 1.0738983-4.0894318 1.6335526-2.0341644.8384323-4.0602112 1.7064514-6.0407562 2.6634674-1.747879.8440323-3.463028 1.7532806-5.1348572 2.728714-2.9454651 1.7177887-5.7863312 3.6145935-8.4215698 5.7215271-2.2119598 1.7685852-4.2641296 3.6957245-6.1772156 5.7180252-1.8717957 1.9778671-3.6045074 4.0508804-5.131134 6.2328568 1.5639954-2.2193604 3.3636475-4.3149719 5.3923798-6.2411575 1.9398041-1.8413239 4.0537415-3.5234909 6.2294312-5.1352921 2.2458038-1.6634216 4.5782166-3.2325211 6.967865-4.7131042 1.633255-1.0127106 3.2958984-1.9815598 4.970993-2.930603 3.2130737-1.8205338 6.4860229-3.5531464 9.8912354-5.0123138.8183289-.3504562 1.6427612-.6834869 2.4729767-1.0030594.6958466-.2683182 1.3933716-.525116 2.1045227-.7445374.0117797-.0038301.0211028-.01709.0182799-.0271608z"/><path d="m164.6040955 102.5676804c-.4186859.3518219-.866684.6660309-1.3660736.9023895-.5575562.2643204-1.1585541.4173203-1.7637634.5369263-.5474396.1081772-1.1028748.1874008-1.6598816.2240448-.6288757.0419312-1.2592926.0390701-1.8889771.0229874-.4095154-.0106735-.8194275-.0283203-1.2251892-.0823517-.3384552-.0445938-.6727448-.1145554-.9994507-.2073441-.1213226-.0340195-.2418976-.0709839-.3613281-.1119919.4381866.1635895.8782654.3209305 1.3240356.4653778.5317383.1724777 1.0680084.3324356 1.6247559.4122009.5388489.0773163 1.0886841.088829 1.6327515.0434647.5938721-.0497589 1.1850281-.1659622 1.7437744-.3726349.5013428-.1860657.9737396-.4416962 1.4240265-.7228775.5335388-.3335495 1.040039-.7017822 1.5153198-1.1101913z"/><path d="m162.0973053 106.0027084c-.6677399.4786987-1.3783722.8934555-2.1395569 1.2060547-.7153168.2932739-1.4584351.4876556-2.2015533.6342087-.7409515.1465149-1.4860229.2462387-2.2248688.2908249-.8362274.0502396-1.6652374.0371399-2.4840088-.0075684-.5316162-.0291367-1.0612793-.0700912-1.5777893-.1495743-.4307709-.0666046-.8504181-.1615448-1.2577362-.2812424-.1675415-.0493927-.334549-.1020584-.4980164-.1609955.4629822.1755753.9336853.3392639 1.4122162.4880905.5648499.1754456 1.1380157.3396301 1.7327728.4533844.352829.0673904.7131195.1156769 1.0800476.1432114 1.2246552.0926743 2.5197754-.0201187 3.7700043-.3780212.7538757-.2161636 1.4865417-.5319519 2.1912689-.8935471.7658844-.3932799 1.5022431-.8401794 2.1972199-1.3448257zm-12.3835297 1.5317078c-.1631622-.0586243-.3226776-.124176-.4721069-.20298-.0059204-.0031967-.0143738.0001984-.0186462.006485-.0045624.0059586-.0025787.0134659.0037689.0163345.0857391.0344925.1735992.0627289.2598572.0962296.074707.0297317.1514892.0555114.227127.0839309z"/><path d="m157.7852173 111.2743378c-.7141266.3366165-1.4505157.6127777-2.2019958.7920761-.8452454.2015762-1.6841888.2730942-2.5012512.2846909-.7321625.0101471-1.4499664-.0282135-2.143631-.1151352-.7993317-.099884-1.5686493-.2584381-2.320755-.4414368-.4112854-.10009-.8166046-.2090149-1.2077942-.3381424-.4212341-.1394043-.8231964-.3061066-1.2018738-.4974747-.1453247-.0736084-.2896271-.1486435-.428894-.2298584.4259338.2639847.8635559.517334 1.3145447.756546.3995056.212265.806488.4161758 1.2391357.5910797.3077087.1246033.6309052.2313156.9641418.3213501 1.0987091.2970657 2.3305054.4253464 3.6069183.3092499.6206512-.0564041 1.2483063-.1760101 1.8748627-.3366699 1.0215912-.2622147 2.0358429-.6323853 3.0065918-1.0962753zm-12.0562897-.5751343c-.1373749-.0822296-.2688751-.1702271-.3878021-.2684555-.0050354-.0033569-.0140076-.0028687-.0196228.0023193-.0062866.0051193-.007431.0126801-.0023956.016037.0662231.0437469.1386108.081131.2050934.1242981.0669555.0429153.1368255.0833893.2047271.1258011z"/><path d="m153.9150391 113.6620178c-.1694183.1142731-.344574.2204056-.5187988.3267975.1754913-.1049499.3486175-.2133865.5187988-.3267975zm-.5187989.3267975c-.4735565.2818298-.9645996.5293198-1.4714203.7267303-.9436035.3675995-1.8871002.548912-2.822464.6422501-.7731781.0769196-1.5332489.0948181-2.2738953.0633163-.8217163-.0353394-1.6183319-.1320953-2.4028168-.2496185-.6018372-.0898132-1.1996155-.1918564-1.7711792-.3364182-.386734-.0983047-.7597504-.2171402-1.1209717-.3531113-.340332-.1282806-.6792908-.2638474-.9754639-.4463501-.0050659-.0033646-.0142975-.0001984-.0192108.005455-.0049133.005661-.0054321.0123062-.0001831.0150528.0750427.0363235.1544037.0679245.2300568.1033173.1816406.0852356.3601685.1733398.5434265.2563934.4136505.1875534.8368835.3635025 1.263092.53479.4646149.1868515.9345703.3677216 1.4288483.5127869.3499146.1022186.7126312.186058 1.084259.2510986 1.141098.1992569 2.3834381.2436523 3.6622467.0443115.6960907-.1083374 1.3974152-.2966766 2.0931396-.5452194.8787997-.3135451 1.7382204-.7278441 2.5525362-1.2247847z"/><path d="m157.9232635 96.7299957c-.0059662-.0054626-.0167847-.0059586-.0219574-.0005798-.0322571.0358353-.0622101.0748825-.0937042.1105652-.0877686.0995483-.1862335.1919708-.2784424.2875977-.2102814.2181778-.4185791.4363327-.6314392.6516953-.3323212.3370743-.6622009.6744232-.9265594 1.0608215-.2084198.3046417-.382019.6286697-.5272369.962677-.1408234.3232651-.2514191.6576233-.3197632 1.0000534-.088562.4440994-.0968933.8992844-.0779419 1.3485413.0192871.4598007.0556335.9159927.1397247 1.3689423-.0736694-.4344177-.0900116-.8717117-.0121155-1.3082809.0875397-.4941101.284317-.9661789.4751587-1.4327164.142746-.3489227.2935791-.6953506.4553986-1.0369186.1320648-.2798233.2731476-.5547791.4091949-.8328094.1591034-.3249207.3072205-.6565475.483902-.9738235.1394348-.249733.3007355-.4886017.4810944-.7146301.1347504-.1678543.2731628-.3353119.4439697-.4726791.0054626-.0058063.0069733-.0134205.0007171-.0184559z"/><path d="m151.7749329 99.392334c-.0054016-.0041733-.0143585-.0020828-.0195312.0032349-.0353851.0427628-.0681.0868073-.1034851.1295853-.096817.117363-.2030487.2309265-.3034363.3460541-.2076263.2391891-.4142303.4786911-.622879.7175751-.3096771.3556442-.6216125.7119904-.8821411 1.0957642-.2586517.381134-.473526.7816391-.6477051 1.1897507-.178894.4193192-.3160858.8488541-.3860321 1.2794037-.0684509.423645-.0684052.8450089-.0414734 1.2577896.0302277.4579544.0909271.9072876.2079163 1.3414001-.0970001-.3836136-.142334-.7804108-.1046753-1.1934586.0501099-.5472412.2438049-1.0975037.4458008-1.6351089.1430206-.3801422.2972107-.7561874.4665833-1.130806.1926117-.4263992.4065399-.8471985.6108246-1.2704773.1416626-.2936249.2839661-.5888977.4503174-.8756714.1437378-.2474594.3047485-.4866409.4819336-.7194977.1368866-.179863.2775574-.3587952.447113-.5171738.0055845-.0056534.0059813-.0145035.0008696-.018364z"/><path d="m145.5093536 102.6468124c-.0061035-.0010834-.0133057.0031509-.01651.0094223-.0224152.0487442-.042038.098526-.0634918.1474075-.0586548.1342163-.1275482.2686615-.1897888.4025726-.1295471.2780457-.2552338.5566483-.381485.8347397-.1962585.4317322-.391922.8639679-.5250702 1.2992554-.128891.4215851-.2058868.84198-.2398071 1.2514954-.0337677.4061661-.0242615.8023376.0454559 1.1759796.0762634.4063492.2289276.7783966.4085693 1.1299133.1874847.3658829.4047394.7101517.6647949 1.0245743-.2336273-.2917099-.4213867-.61409-.5288849-.9862061-.1225433-.4239044-.1375122-.8927841-.1345062-1.3628769.0023041-.3749161.0191345-.7546997.0579529-1.1384811.0487976-.4793167.124527-.9625778.1976318-1.4459915.0433502-.2882767.0899658-.5786057.1587982-.8699646.0637512-.2672653.1481781-.5362015.2505951-.804245.0839691-.2193604.1740875-.4403687.3023224-.6536102.0031892-.0062713-.000183-.0126419-.0065765-.0139847z"/><path d="m140.3789978 106.6716003c-.0065308-.0016861-.0164948.0023727-.020401.0083847-.0258789.0477524-.0471039.0960541-.072113.1442184-.0691071.1334915-.1453094.2664566-.2142181.4002838-.1400452.2723083-.2739258.545639-.4040375.8191147-.1894836.3982468-.3675995.799057-.4764404 1.2011871-.1083832.3997269-.1582336.7961426-.1616211 1.1822891-.0039978.3977661.0431061.7858124.1542969 1.1493454.1106873.3616257.2864838.6951675.4718323 1.0218201.2007446.3530731.4160614.6983032.6573029 1.028717-.2134552-.3028564-.3947754-.6225662-.5115204-.9744415-.1438141-.4301224-.1837006-.8979645-.2128143-1.3642349-.0211487-.3360825-.0306091-.6754074-.0203552-1.0179749.0140686-.4482956.0579529-.9004974.1096649-1.3551636.032547-.2873306.0683899-.5764389.1363373-.8676376.0603485-.2576141.1455536-.5160217.2554169-.7733917.0844879-.1981659.1772766-.3990555.3125153-.5885315.003906-.0060042.0027005-.0122985-.0038455-.0139846z"/><path d="m170.4595032 98.4639511c-.4155884.3546982-.8560638.6759033-1.3393707.9272537-.5395966.2810211-1.1123199.4603424-1.6867218.6086349-.5195618.1341248-1.0446472.2416-1.5683289.3092804-.5912628.0769272-1.180954.1119843-1.769043.134613-.3824615.0145111-.7648163.0225143-1.1408234-.0038147-.3136597-.0215225-.6217041-.0670624-.9211273-.1344376-.1112213-.0246124-.2215271-.0520248-.3305054-.0832977.3989258.127037.8000488.2481079 1.2073669.3567581.4858398.1297684.9767914.2475357 1.4923248.2889404.4989624.040184 1.0126648.0180588 1.5248108-.0570145.5590515-.0821686 1.1200714-.2264328 1.6568909-.4535141.48172-.2043457.94104-.4721298 1.3814392-.7625275.5218202-.344444 1.0207063-.7197721 1.4930879-1.1308744z"/><path d="m164.2509155 94.7146912c-.0032806-.0046616-.0117035-.0047073-.0172272.0003052-.0350494.0332718-.0691223.0693436-.1035309.1024475-.0959167.0923691-.1983948.1787643-.2967682.2677917-.2243652.2031097-.4471741.4061356-.6728516.6068268-.3525391.3140793-.7032318.6283188-1.0150909.9840088-.2458649.2804337-.4693298.5769119-.6729736.8812561-.1973114.2945786-.3736572.5979538-.5187073.9069672-.1880493.4007645-.3155365.8084564-.4198608 1.2098236-.1068726.4107971-.1992645.8177185-.2530212 1.2199554.0570831-.3860397.1602936-.7767944.3379059-1.170433.2005157-.4454803.4816437-.8753204.7566071-1.2999878.2056427-.3176041.417038-.6332855.6358337-.9450226.1788483-.2553711.3635406-.5067139.5450592-.7606201.2122345-.2967377.4175415-.5990677.6416473-.8896179.1766968-.228714.3677826-.4485168.5705719-.6575394.1512299-.1552582.3052521-.3103027.4769287-.439621.0058747-.005394.0090943-.0122681.0054779-.0165405z"/></g><g fill="#5d6a23"><path d="m123.2343292 126.2469635c-.0089188-.0043869-.020874-.0007629-.0270767.0077591-.1424332.2014999-.2763138.406601-.4151154.609726-.3398361.4995575-.6858978.996788-1.018837 1.4988327-.6401138.9648438-1.2568893 1.939209-1.8651047 2.9171906-.9116287 1.4654541-1.7991028 2.9433594-2.5990524 4.4483948-.7063293 1.3279266-1.3489609 2.6760101-1.9198227 4.0396118-1.0062256 2.4020233-1.8272018 4.8521729-2.3723221 7.3181152-.4575119 2.0698853-.7036209 4.1494293-.7923965 6.2135468-.0873566 2.0191193-.0173874 4.0227966.2657318 5.9858246-.2800598-2.0021667-.316925-4.0513-.0867462-6.1187897.2203522-1.9766388.6626129-3.9503326 1.1922226-5.9152374.5468903-2.0280609 1.2135849-4.0462341 1.9757614-6.0433197.5204544-1.365387 1.0889435-2.7208099 1.6785507-4.0713501 1.1308594-2.5906067 2.3587036-5.1617432 3.8501205-7.6458435.358551-.5968628.7322464-1.187027 1.1184006-1.7725677.3233719-.4910126.655098-.9764557 1.019722-1.4478149.0059205-.0079195.0042268-.0198672-.0040359-.0240786z"/><path d="m122.1389008 133.611084c-.0759659.4012756-.1960297.7960358-.4008255 1.1727905-.2283707.4208527-.5567169.8011627-.908844 1.1649933-.3185043.3290863-.6606979.6459961-1.0305176.9400177-.4171829.3322601-.8633728.6403809-1.3172607.9407959-.2953339.1952515-.5952835.3868256-.9149704.5561371-.2663651.1414795-.5455933.2668152-.8337021.3757324-.10672.0406952-.2147369.0793915-.3244781.1152649.4107971-.1243286.8190384-.253067 1.223259-.3917694.4822769-.1653442.9599533-.3398743 1.4021072-.569046.4280243-.221756.8227844-.4854736 1.1780472-.7779846.3876419-.3194275.7319641-.6744385.9970932-1.0638428.2375031-.3497314.4112549-.7239227.5535202-1.1014709.168312-.4475404.2959594-.9010773.3765716-1.3616181z"/><path d="m122.5116806 136.752243c-.1725082.594162-.415062 1.1738586-.7569046 1.7215881-.3215561.5144653-.7243042.9876099-1.1568451 1.4341583-.4310455.4454651-.8941422.8669434-1.3871918 1.254715-.5581818.4387512-1.1507339.8387451-1.7557602 1.2161407-.3928986.2449799-.7917862.4824219-1.2053986.6919861-.3451538.1746063-.700119.3279877-1.0618134.4615479-.1488724.0548553-.299408.1076355-.4513626.1551666.4357529-.1298523.8695297-.2700958 1.2995682-.4224548.5074692-.1799622 1.0137863-.3702698 1.5039062-.5992279.2907104-.1358643.5747604-.286026.8505783-.4509888.9210205-.5501404 1.7637177-1.249115 2.4220734-2.0622864.3967667-.4905396.7165146-1.0260315.9880371-1.5732727.2948991-.5948943.535576-1.2051086.7111131-1.8270721zm-7.7752762 6.9353028c-.151535.0475769-.3048096.0894928-.4592438.1190948-.0061646.0011444-.0100098.0071716-.0090942.0127716.0004883.0055542.0065689.0087585.0128174.0072327.0819321-.0229492.1614609-.050415.2431412-.074173.0711746-.0201721.141365-.0435638.2123794-.0649261z"/><path d="m122.7559662 141.8013153c-.2937012.5379791-.64077 1.0532684-1.0587997 1.5221252-.4702606.5273285-1.0171051.9792328-1.5858536 1.3871002-.5097961.3653259-1.0396881.6966553-1.5828171.9891052-.6256943.3371735-1.266777.6269836-1.9109573.8947449-.352272.1464233-.7058487.2849884-1.0620422.4053802-.3837814.1294556-.7709885.2342529-1.1571503.3139038-.1482925.0304718-.2967606.0596619-.4455185.0829315.4646988-.0625.931015-.1366577 1.3979492-.225235.4138489-.0782623.8277664-.164856 1.2417145-.2801666.2945251-.0819092.5888367-.181366.8798294-.2950134.9595718-.3746338 1.9078064-.9084778 2.73526-1.6000977.4023743-.3362732.7703094-.7111206 1.1119003-1.1082458.5568008-.6476745 1.0411606-1.3517302 1.4364853-2.0865325zm-8.8570557 5.603302c-.1480637.0217743-.295578.0374603-.4406052.041275-.0056458.0006104-.0116653.0052948-.0123901.0109406-.001236.0059204.0026627.0106964.0083084.0100861.0739288-.0082092.1482468-.022995.2220001-.031662.0739365-.0090332.148407-.0208588.2226868-.0306397z"/><path d="m121.5152054 145.0300293c-.0482407.146759-.1055984.2918091-.1621399.436554.0583343-.1445618.1128235-.2899018.1621399-.436554zm-.1621399.436554c-.1582413.389328-.3502197.768158-.5845108 1.1268921-.4361725.667923-.9883194 1.232254-1.5895386 1.7436676-.4971085.4226074-1.0217514.8059692-1.5634766 1.1523132-.601265.3840485-1.2230911.7216187-1.8493042 1.0417023-.4802017.2457428-.9651489.4826813-1.4581223.6831055-.3338623.1353607-.6708374.2525482-1.0101776.3544159-.319809.0958862-.6432037.1870422-.9656754.2310944-.0056763.0006104-.0102081.0069122-.0101547.0124664.000061.0055695.0038452.0095215.0092545.0084686.075531-.0166779.1511612-.0381012.226532-.0555878.1811447-.0418549.3618698-.0805817.5428009-.1244507.408432-.0989532.8163834-.2090607 1.2235336-.3232269.4439163-.1243744.8878708-.2546997 1.3266678-.4168854.3103485-.1150818.6182632-.2466736.9207458-.3930969.9285202-.4498291 1.8319321-1.0354767 2.6092148-1.7745514.4232025-.4022064.8002625-.8514557 1.1358566-1.3314209.4241639-.6060486.7719041-1.2585907 1.0363542-1.934906z"/><path d="m113.7928085 133.647934c-.0076065-.0001068-.0155487.0049286-.0158386.0104675-.000412.0357666.0027924.0721893.0028229.1074982.0001373.098465-.0116959.1982117-.0171204.2966766-.0123215.2245941-.0232468.4482117-.0391464.6725159-.0242767.350647-.046669.7002563.0076981 1.0449371.0428619.2717438.1223373.5371704.228035.7941895.1021194.2489014.2324371.4891205.3975754.7130585.2142334.29039.4919205.5475311.7851486.7879639.3000259.2461548.6098404.4819031.9512787.6923981-.3225555-.2053223-.6064835-.4403839-.8235321-.7213593-.2461014-.3177032-.401474-.6768036-.557579-1.0299225-.1167374-.2640991-.2262192-.5307922-.3249207-.8001709-.0812302-.2204437-.1530609-.4426117-.2303619-.6640015-.0902557-.2588043-.1924286-.5159302-.2655334-.7791138-.0572739-.2073364-.0923843-.4193726-.106041-.6336365-.0095749-.1595154-.0163345-.3206024.0184937-.4808807.0002516-.0059204-.0034334-.0108948-.0109789-.0106201z"/><path d="m111.117218 138.1485596c-.0064087.0003204-.0114212.0058899-.0117569.0113831.0017014.0411682.006073.0817261.0077744.1228943.0048599.1128082.0007324.2281189.0016861.3414459.0026398.2349701.0061951.4696198.0079269.7049255.0032578.3498535.0053482.7012024.0607758 1.0425415.0550995.3389587.1531219.66716.2845764.9796143.1351089.3209991.3059769.6271973.5248795.9009094.2156601.2691498.4781876.5033569.7543106.7196198.3065948.2397308.6292953.4597015.9822083.6435547-.3073578-.1656036-.5865021-.3639221-.8172684-.6120453-.3055725-.3288422-.5118256-.7299042-.7043457-1.128006-.1359863-.281601-.2615509-.5664062-.3755341-.8578644-.1298447-.3316803-.241188-.6707001-.3608627-1.0063782-.083046-.2328339-.166687-.4668884-.2280579-.7080383-.0528336-.2081909-.0883408-.4202576-.1084976-.6367493-.0155487-.1672363-.0278549-.3358307-.0069885-.5071716.0004195-.0058899-.0048218-.0110016-.0108262-.0106354z"/><path d="m108.7278519 143.035965c-.004982.0023956-.0074234.0082855-.0057678.0133514.0145569.0381165.0317459.0754242.0470734.1131287.0422592.1034393.0774384.2120209.1169968.3170471.0818863.2182159.1668472.434845.2510834.651474.1306076.3364258.26194.6728363.4392395.9802399.1717758.297699.3793869.5692291.6105804.8135529.2292252.2423859.4827194.457962.7646332.631424.3069.1884308.646286.3202667.9918976.4274292.3600845.1112823.7276993.1959534 1.1068878.242981-.3464127-.0473938-.6795883-.1343689-.9871826-.2884216-.3504562-.1754608-.6530991-.428772-.9438324-.6915741-.2319336-.2095642-.4566574-.4289703-.6683731-.6613922-.2641907-.2904358-.5118637-.5962982-.761467-.9009552-.149025-.1815491-.2970352-.36586-.4300156-.5616455-.1215515-.1799011-.2295685-.3708801-.3243484-.5702209-.0774689-.1631927-.151619-.3303375-.1940613-.5118713-.0016557-.0050662-.0080034-.0069431-.0133439-.0045474z"/><path d="m107.6186066 147.7938843c-.005661.0022736-.0101624.0094299-.0091705.0146942.0115128.0392609.0266342.0765381.0390091.1156006.0344467.1081543.0635681.2195129.0983505.3277588.0709229.2201843.1468124.4379272.2254562.6538696.1145248.3144836.2386551.6248169.4124374.9018402.1725998.2754669.384407.52034.6225815.7366638.2449722.2230988.5199051.4156799.8247528.5631561.3033142.1466522.6350098.2457123.969162.3362427.3614578.0976562.728302.1837921 1.104187.2489777-.3391342-.0635071-.6661148-.1521606-.9676056-.2904205-.3693314-.1684723-.6888962-.4089508-.9998779-.6538696-.2242737-.1764374-.4423294-.3604279-.6485062-.5559082-.2693558-.256134-.5201187-.5290833-.7669067-.807251-.156044-.1757202-.3108826-.3540497-.4443893-.5493164-.1179352-.1728668-.2188568-.3583832-.3017349-.5554352-.0638885-.1516724-.1236267-.3089447-.1463318-.4806976-.0009919-.0052644-.0057603-.0081788-.0114136-.0059052z"/><path d="m123.7100906 128.453064c-.0719986.4013519-.1824036.7963257-.3665237 1.1734924-.2053146.4213104-.4973297.8023682-.8098602 1.1670074-.282692.3298187-.5858917.6475372-.9128799.9424286-.3688736.3332367-.7627182.6424255-1.1631927.9439392-.2605591.1959534-.5251083.3882446-.8065643.5583344-.23452.1421356-.4800339.268158-.7330704.3777924-.0937347.0409546-.1885681.0799103-.284874.1160736.3603516-.1253662.7185287-.255127 1.0733414-.3948212.4233246-.1665497.8427734-.3422699 1.2319794-.572525.37677-.2227936.7250977-.4874725 1.03936-.7808075.3429031-.320343.6485062-.6761475.8854599-1.0661316.2122803-.3502502.3692551-.7247772.4987946-1.1025696.1532668-.4478607.2711333-.9015961.3480299-1.3622131z"/><path d="m116.9978714 129.4189301c-.0052032-.0009918-.0111771.0031281-.0119476.0086212-.0039749.0357208-.0055313.0725098-.0091629.1078186-.0100632.098465-.0284805.1968384-.0423737.2946625-.0316315.2231445-.0622177.4454651-.096283.667923-.0528564.3477936-.1043091.6947784-.102562 1.0457153.0013733.2766876.0285416.5513.074585.8205414.0444107.2606964.1090927.5159912.1993484.7590332.1171036.3151855.2811966.6044617.457695.8788452.1805725.2808685.3689346.552475.5816116.8025055-.2002487-.2426453-.3709106-.5105896-.490921-.8166809-.1361618-.3461609-.2057648-.7232361-.2764969-1.0944061-.0528793-.2775879-.1005173-.5569458-.14048-.837738-.0330048-.2298279-.0593948-.4602966-.0896072-.6906128-.0352554-.2692413-.0788574-.5381775-.1018906-.8097992-.0179138-.2139435-.020134-.4300232-.0074005-.6458588.0098877-.1605988.0218811-.322464.0623322-.4786987.0007782-.0058747-.0012283-.0112764-.0064468-.0118714z"/></g><g fill="#5d6a23"><path d="m156.8632965 63.0343742c-.0068817-.0094872-.0220032-.0103378-.0340118-.0024796-.2790527.1876526-.5511475.3836555-.827301.5749702-.677536.4712067-1.360321.9367065-2.0319824 1.4141083-1.2910919.9173965-2.562973 1.8571625-3.8278961 2.8053055-1.8956757 1.4206238-3.7731018 2.8676758-5.5731506 4.3879395-1.5887756 1.3411331-3.1215057 2.7360916-4.5865936 4.1827087-2.5814667 2.5479355-4.9933777 5.2392731-7.1179657 8.0743637-1.7832947 2.3797684-3.3448792 4.8666382-4.7273407 7.4049683-1.35289 2.4827652-2.5266724 5.0169907-3.4454803 7.5962296.9465027-2.6267624 2.184288-5.2028656 3.7211914-7.681839 1.4696655-2.3699112 3.1765594-4.6363907 4.9720917-6.852623 1.8535004-2.2873383 3.8299103-4.5084686 5.8960114-6.6603241 1.4118958-1.471489 2.8693237-2.9089508 4.3464661-4.3308182 2.8332977-2.7274628 5.7589569-5.3870163 8.9142761-7.8193588.7583618-.5843277 1.5288544-1.1534882 2.3098907-1.7112579.65448-.4679413 1.3144684-.9251633 2.0011292-1.3499985.0113217-.0072288.0169522-.0229187.0106656-.0318947z"/><path d="m151.0922089 71.7402649c-.3320007.4670792-.7074585.9061966-1.1629486 1.2847061-.5083923.4230118-1.0992126.7504425-1.705368 1.0465851-.5482788.2678528-1.1144867.5098724-1.6961823.7108688-.6565704.2274628-1.3293304.4117432-2.0055695.5829163-.4398804.1111145-.8824463.2155609-1.3323822.2833099-.3751526.0569687-.7540894.0879898-1.13237.0945206-.1403351.0028534-.2808228.0026093-.421402-.001915.5200348.0293884 1.0400848.052124 1.5620117.0606079.6226196.0102921 1.2460175.0070343 1.8652191-.0804443.5993347-.0845566 1.1890106-.2364883 1.7540894-.4421387.6167297-.2247162 1.2089996-.5133591 1.7373657-.8805542.4738922-.3300858.8943481-.7193604 1.2829742-1.126976.4603272-.483345.8806001-.9924698 1.2545625-1.5314865z"/><path d="m149.5354919 75.8314056c-.5562592.6646194-1.1789551 1.2796478-1.8886871 1.8101349-.6671295.4980392-1.3959808.9079742-2.1403351 1.271286-.7420654.3626404-1.5037079.6809082-2.2766113.9435959-.8748474.2970886-1.7625427.5303192-2.6495972.7297058-.5759888.129364-1.1537323.2466278-1.72995.3224335-.4806824.0629272-.9586945.0949249-1.4316101.0991516-.1945801.0015945-.3896484-.0001678-.5829773-.0091019.5503845.0337143 1.1051025.0535431 1.6633606.056572.6588745.0033569 1.3229675-.0067291 1.9936981-.0723648.3978729-.0390244.7974854-.0988922 1.197464-.1809387 1.3351593-.2730942 2.6787415-.7673111 3.8949127-1.4870453.7332458-.4343491 1.4115601-.9594803 2.0452118-1.5209579.6885682-.6104966 1.3282624-1.2644883 1.9051209-1.9624711zm-12.699768 5.1672059c-.1929016-.0087051-.3841553-.0252533-.5689697-.0577011-.0073547-.001358-.0152588.0044556-.0177612.0118484-.0029449.007164.0016174.0138931.0093079.014801.1025696.0081635.2053528.009613.3081665.0166626.0892485.0068054.1794432.00914.2692565.0143891z"/><path d="m146.6509094 82.2479324c-.6517944.5399323-1.3469238 1.0275497-2.0895691 1.4252548-.8353424.4472427-1.7061768.7658768-2.5731354 1.0196304-.776947.2271423-1.5543518.4027634-2.3217773.5238953-.8842316.1398468-1.7555389.2136383-2.6164246.2584839-.4707794.0245132-.9380646.0386429-1.3968353.0288925-.4941406-.0108566-.976593-.0540161-1.4422607-.1281281-.1787567-.0286102-.3568726-.0589066-.5316315-.0967255.539566.1308517 1.0881348.2478714 1.6463776.3471451.4946289.0883026.9944916.1662369 1.5123291.2082901.3683472.0301132.7473907.0382004 1.1317291.0270538 1.2672729-.0365448 2.6215973-.2770615 3.9441681-.7689514.6431122-.2391357 1.2731628-.5419235 1.8887329-.884407 1.0036011-.5586547 1.964325-1.2203368 2.8482971-1.9604339zm-13.034729 3.0170746c-.1730804-.03936-.3417664-.0860977-.5003815-.1465225-.0064545-.0017776-.0158539.0013657-.0201569.0080872-.0050354.0068436-.0037994.0145569.002655.0163345.0847626.0229797.1740265.0379333.2588959.0602646.0852815.0219421.1728669.040657.2589875.0618362z"/><path d="m143.3013916 85.7230453c-.1434631.1616287-.2956848.3170242-.4468231.4723969.1529541-.1543427.3022613-.3113861.4468231-.4723969zm-.4468231.4723969c-.4131927.4151535-.8561707.8020325-1.3322144 1.1447906-.8862915.6382065-1.8329163 1.0948563-2.7994232 1.4633713-.798996.3043823-1.6031799.5473633-2.4026794.7364349-.8871613.2093964-1.7674866.3514938-2.6416321.4697571-.670517.0910721-1.3406525.169014-1.9966583.1977386-.444046.0189667-.880127.013855-1.3092041-.0114594-.4042969-.0240097-.8095093-.0555344-1.1843567-.1454926-.0065002-.0017776-.0153046.0040436-.0187073.0110168s-.0018005.0136032.0046844.0147247c.0917664.0131302.1865997.0203705.2786865.0324173.2212524.0291519.4400787.0620346.6623383.0885849.5016785.0600204 1.0097961.1058884 1.519577.1463318.5557709.0442123 1.1152802.0810089 1.6890869.0756989.4060822-.0042267.8198242-.030159 1.2369537-.0770569 1.2807159-.1444397 2.6190491-.4698181 3.91716-1.0435333.7066345-.3121262 1.3929138-.7037582 2.0536652-1.1523972.8347627-.5663068 1.6161958-1.2250516 2.3227235-1.9509275z"/><path d="m142.0782318 68.0341187c-.0081329-.0035477-.0198212-.000824-.0235901.0059586-.0227509.044487-.0419922.0914307-.0639801.1355438-.0612335.1230469-.1361694.2423325-.2033997.3628769-.1532898.2749939-.3044739.5493927-.461441.8224182-.244751.4270782-.4868317.8536911-.6431427 1.3086624-.1232452.3587112-.2031097.725975-.2494812 1.0945435-.0451508.3567963-.0545197.7154312-.0162354 1.0693893.0497437.4590378.1885834.9050674.3545685 1.3372269.169754.442337.3565369.876091.5931244 1.2925186-.2194824-.4014664-.3787994-.8227386-.437439-1.2712784-.0670624-.5074615-.0105591-1.0258636.0414124-1.5371094.0388947-.38237.0872192-.7647095.1488342-1.1455688.0499268-.3118668.1110382-.621666.1657867-.9329529.0641174-.3638382.1143646-.7309494.1996765-1.0925446.0675659-.2847366.1619263-.565361.2807922-.8391342.0891266-.2035522.1822815-.4078064.3197174-.5923538.0039522-.0072785.0030977-.0151444-.0052031-.0181961z"/><path d="m136.3900604 72.4528809c-.0071106-.0024719-.015976.0022278-.0197601.0089417-.0238342.0521774-.0444031.104805-.0682373.1569901-.065094.1430893-.1414337.2852783-.2110596.4272537-.1436462.294693-.286087.5893784-.4309387.884079-.2145844.4384537-.431366.8782501-.5844727 1.3295364-.151947.4481506-.2509766.9021835-.3041534 1.3515549-.0545807.4616928-.0613861.9209671.0037842 1.3612823.0645294.4331284.2013245.8437119.3639679 1.2379684.1808319.4372864.3913269.8571243.6568756 1.2454376-.2278595-.3450317-.4049377-.7182388-.4988403-1.1319122-.124176-.5481339-.0963287-1.1418152-.055542-1.7256241.029068-.4128799.0713501-.8250732.1302795-1.2403793.0668945-.4726639.1583099-.9461975.2386627-1.419281.0556793-.3281631.1115112-.6581192.1957245-.9869308.072876-.2837906.1668396-.5646362.2800903-.8441315.0875092-.2158813.1793518-.4319916.3086548-.6366348.0041199-.0071641.0016632-.0159074-.0050354-.0181504z"/><path d="m130.769104 77.4834442c-.0068665.0007629-.0131531.007019-.0145264.0140839-.0080872.0541534-.0128326.1084747-.0198364.1624832-.0189514.1481934-.0487518.2996445-.0716095.4486084-.0478363.3093872-.0913544.6181641-.1356659.9266205-.0690308.4789352-.1372833.9581909-.1379242 1.4218674-.0005493.4490662.0538177.8815689.1505737 1.2906952.0958099.4058075.2344971.7890396.4300537 1.1324539.21315.3733368.4965668.6905823.8020782.9798126.3185272.3009033.6617584.5719147 1.0409393.8011398-.3436432-.2149353-.6483459-.4733658-.883667-.8040771-.2681427-.3767166-.4362488-.8291779-.5856018-1.2881546-.1192169-.3660278-.2245178-.7411041-.3076935-1.1266022-.1035309-.4815521-.179657-.9749374-.2586212-1.4677048-.047348-.2937775-.0919037-.5905228-.1130981-.8948593-.0187836-.2793579-.0160828-.5664749.006073-.8580704.0182953-.2386703.0426178-.4807739.1100769-.7266159.0013734-.0070648-.0043029-.012268-.0115508-.0116806z"/><path d="m126.6079102 82.9277878c-.007515.0002899-.0168228.0072098-.0190353.0142212-.0120697.0542145-.0190201.1075821-.0300446.1619339-.0303268.150589-.0683746.3027725-.0983887.4536209-.0608673.3069077-.1148529.6129913-.1647644.9180908-.0726852.4442978-.1324234.8877258-.1179199 1.311882.0141983.4216766.0897141.8227615.2114334 1.2000427.1248093.3888016.3009262.7529602.5373917 1.0742188.2353134.3195343.5308838.592392.8344193.8556976.3285065.2844925.6699982.5570145 1.0342865.8074036-.3257446-.2317734-.6227264-.4895248-.8613129-.7977676-.2928391-.3764648-.487175-.8205185-.6695023-1.266243-.1315994-.3212204-.2518005-.6490707-.3520432-.9859314-.1304779-.4410248-.2304535-.8946915-.3228989-1.3530884-.0585556-.2896576-.1141815-.5820084-.1362686-.8859329-.0192795-.2689438-.0123444-.5460358.0212173-.8294296.0257416-.2181778.0594254-.4414749.1420517-.6662292.0022126-.0070115-.0011062-.0127946-.0086211-.0124894z"/><path d="m156.000473 66.0038528c-.3277893.468956-.6929474.9126663-1.1264343 1.3010025-.4838409.4339676-1.0359802.778656-1.5999908 1.093605-.5101471.2848663-1.0348511.5454178-1.5709534.7667542-.6051331.250412-1.2221832.4595566-1.8415527.6561127-.4028625.1276321-.8077393.2488937-1.21698.3348007-.3412476.0721054-.6843109.1191406-1.0252533.142334-.1264954.0090179-.2529602.0150375-.3792267.0168991.4663391.0054245.9330902.0043716 1.40242-.0106201.5598602-.0177078 1.1212769-.0486298 1.6840973-.1612625.5447845-.108902 1.085022-.2828979 1.6064606-.5080261.5691071-.2459641 1.1201324-.553009 1.6185303-.9335861.4470367-.3420639.8496399-.7393036 1.2247162-1.1529694.4443206-.4904862.8541564-1.0042648 1.2241668-1.545044z"/><path d="m148.16745 64.1926651c-.0049896-.0035782-.0139923-.0011215-.0182648.0054016-.026535.0428238-.0511627.0880814-.0770721.1305542-.0722351.1184692-.1534119.2330704-.2293549.3490143-.1731873.2645035-.3447418.52845-.5201263.7909851-.2737732.410675-.545517.8209381-.7624207 1.2600861-.1710205.3462219-.3129425.7014389-.4311981 1.0584488-.1146851.3455963-.2041626.6935501-.2584534 1.0377121-.070343.4463348-.0739136.8814392-.0548401 1.3035126.0194244.4320145.053009.855957.1262512 1.2638779-.0644531-.3931198-.0812531-.8045273-.0197144-1.2408066.0691223-.4936066.2292175-.9958878.3844299-1.4912949.1160889-.3705215.2389221-.7408676.3709259-1.1095581.1077271-.301918.2229767-.6016541.3340149-.9029312.1298828-.3521423.2505646-.7076721.3950958-1.0572968.11409-.2753067.2463989-.546196.3946838-.8100586.1107788-.196167.2245941-.392952.3655701-.5699081.0045167-.0070038.0057222-.0146485.0004732-.0177384z"/></g><g fill="#5d6a23"><path d="m62.0806961 75.9260788c.0086403-.0092621.025013-.0081863.0368652.0018158.2751198.2379608.5416603.4839554.8131828.7254562.6659203.5944748 1.3382378 1.1835251 1.9970284 1.7838745 1.2663879 1.1537018 2.5091858 2.3288803 3.7434082 3.5121155 1.8497162 1.772934 3.6763458 3.5718155 5.4101791 5.4390488 1.5304337 1.647316 2.9935455 3.3450089 4.377182 5.0891953 2.4380875 3.072197 4.6750946 6.2759018 6.5844421 9.5960083 1.6026306 2.7868805 2.9529114 5.6594849 4.1039658 8.5637131 1.1266022 2.8407669 2.053978 5.7131577 2.7014694 8.6003189-.67099-2.9417648-1.6616135-5.8675003-2.9864273-8.7283859-1.2669449-2.7350616-2.8023987-5.3903961-4.4397049-8.003479-1.690239-2.6969833-3.5212402-5.3391113-5.457756-7.9187241-1.323204-1.7638779-2.6998215-3.4972534-4.0996628-5.2164841-2.6850204-3.2978592-5.4782104-6.5350189-8.5481033-9.5586929-.7378616-.7264328-1.4907684-1.4381943-2.2564926-2.1391144-.6415672-.587944-1.2904892-1.1651154-1.9723129-1.7110519-.0112114-.0092393-.0151939-.0268098-.0072632-.0356141z"/><path d="m68.2810287 87.8298721c.3638687.4882889.7643585.9610825 1.2300644 1.3774185.5193558.4633102 1.1176987.850769 1.7507553 1.1728745.5800705.2948685 1.1936417.5353546 1.8264771.7048492.6537704.1752396 1.3231735.260704 1.993515.3315277.5618973.0595322 1.1236649.1035309 1.6863098.1403885-.1516495-.0136337-.3026276-.0318451-.4530334-.05336-.4055862-.0567398-.8086624-.1398315-1.2042465-.250267-.4745178-.1318283-.9362793-.3020325-1.3942719-.4790497-.7040634-.2725143-1.4026489-.5586166-2.0781326-.8889084-.5985413-.2920609-1.1750336-.6260834-1.7288589-.985466-.6122818-.3973236-1.2039719-.8261871-1.6944962-1.3467331-.4395599-.4658585-.7851257-.9861984-1.0803375-1.5308151.3308105.6272889.7153091 1.2286072 1.1462554 1.8075409z"/><path d="m70.0570068 92.9702682c.6068878.685524 1.2665329 1.3379364 1.9971619 1.9002075 1.2119446.9318542 2.5904694 1.638588 3.9890823 2.107048.4189529.1405945.8404388.2573395 1.2628021.3515091.7120285.1585922 1.4242401.2567291 2.1326294.3397598.6002197.0701523 1.1988602.1218262 1.7946701.1580353-.2089081-.0158463-.4187317-.0395966-.627594-.0668945-.5075684-.0667114-1.0169678-.163887-1.5251465-.2945786-.6091385-.157074-1.2144547-.3588028-1.8162994-.573288-.9268417-.3304901-1.8499298-.6973572-2.7507935-1.1310272-.795845-.3833694-1.5722809-.8248672-2.321846-1.3113861-.7519302-.4875412-1.4810486-1.0230484-2.1322556-1.6449356-.6927032-.6622849-1.2807617-1.4038086-1.7909012-2.1897736.5278779.8244554 1.1290666 1.6100084 1.7884904 2.3553239zm11.4675599 4.8765259c.1113815.0059586.222023.0179291.3333054.0226517.0083771.0000381.0141602-.0065765.0119476-.0146484-.0017166-.008255-.0094452-.0155334-.0175247-.0150528-.202858.0105057-.4105301.0031052-.6189423-.0129166.0971984.0061798.1944122.0155411.291214.0199661z"/><path d="m73.3248672 100.3533783c.6163025.4482574 1.2533951.8558655 1.9128876 1.1968994 1.3562622.7014771 2.7797546 1.1375122 4.1365891 1.3433304.4114838.0624924.8198318.1036682 1.2195663.1197968.5619354.0229874 1.1092987.0051193 1.6523819-.0245438.6128845-.0330811 1.2177353-.0864563 1.8147125-.1558533-.1927567.0175781-.3881302.0266495-.5839691.0338364-.5100937.0182571-1.0341644.0011215-1.5665283-.0522156-.4942245-.0498657-.9944534-.1264648-1.4970551-.214653-.9190826-.161293-1.8455429-.3549957-2.7772141-.6212616-.808609-.2308197-1.6207657-.5214005-2.4256516-.8671722-.8981018-.3861542-1.7918091-.8424072-2.6304474-1.4319305-.7455521-.5242004-1.4282227-1.1385956-2.0574265-1.8033905.8523104.9100112 1.7974169 1.7460097 2.8021547 2.4771575zm11.0922165 2.4403915c.0941238-.0127945.1920166-.0170898.2861099-.0305939.0071793-.0010605.0095139-.0091629.0050125-.0171738-.0037384-.0077744-.0134201-.0123825-.0205994-.011322-.1783905.0439529-.3657913.0718994-.5569458.091362.0953218-.0113906.1918946-.0199508.2864228-.0322723z"/><path d="m74.0817871 102.6092529c-.1419373-.1865158-.2850266-.3731995-.4178772-.5654144.1341095.1916962.2738495.3797607.4178772.5654144zm2.2386932 2.3978501c.6508636.5680695 1.3366547 1.0783463 2.0548096 1.5060272 1.319191.7860184 2.7143326 1.3109741 4.0713806 1.634285.4420242.1051483.8831635.1873627 1.3189163.245285.6158447.0811462 1.2218704.1152496 1.8248367.1409073.5530701.0236511 1.105072.0412598 1.6520233.0428543.2423019.0007477.4817581-.0057449.7233124-.0079269.1005402-.0008087.203392.0038986.3037109.0018845.0071182-.0003586.0097198-.0072479.0069809-.0151825-.002739-.0079193-.0114365-.0153275-.0186539-.0142822-.4146042.0472031-.8541489.0277328-1.2917175.0003281-.4643631-.029274-.9335785-.0811157-1.4081955-.1598511-.7010803-.1170654-1.4108582-.2887802-2.1192932-.474617-.9236679-.2417755-1.8508301-.5099335-2.7764664-.8511734-.834137-.3079147-1.6661987-.6742554-2.4845963-1.1057739-.9899292-.5223312-1.9468994-1.1365738-2.8151245-1.9376144-.4663391-.4302139-.8913422-.9034042-1.2806168-1.4029999.663521.8714293 1.4163668 1.6807097 2.2386934 2.3978499z"/><path d="m77.3081741 83.2325516c.0091934-.002739.0214005.0017166.024559.009491.0185776.0506973.0330734.1035843.0508881.1537857.0495834.1400299.1143951.2778168.1707458.415947.128479.315094.254776.6292725.3874664.942749.2067337.490242.4106369.9796295.5186691 1.4881668.0851669.4009323.1225967.8053436.1238708 1.2067413.0015259.3886108-.0356522.774498-.1234207 1.1491013-.1139069.4857941-.3218307.9459305-.557106 1.3876038-.2406693.4521103-.4984894.8927689-.8075485 1.3082962.2887039-.4017258.5153732-.8326111.6374817-1.3059769.1388931-.5354538.1464691-1.0988998.1579666-1.654068.0085754-.4152145.007019-.8316498-.0090179-1.24823-.0125656-.3410645-.0374298-.681366-.0552521-1.022438-.0209656-.3986588-.0265884-.7990036-.0706253-1.1980515-.0350876-.31427-.0995178-.6276627-.1911697-.9369278-.0689545-.2300415-.1421356-.4613571-.2655106-.6773605-.0032882-.0083237-.0013274-.016655.0080033-.0188294z"/><path d="m82.8378601 88.7197723c.0079651-.0017166.0168762.0044861.0200653.0121918.0187225.0590897.033905.118248.0526352.1773453.0510864.1620331.1143875.3245697.1704865.4860001.1155319.3349533.2297668.669754.3465805 1.0048676.172821.4984818.3478165.9986877.4528656 1.5028381.1042404.5006409.1508331 1.0006256.1487808 1.4895935-.0021744.5023651-.0553513.9958496-.1833801 1.4595337-.1263885.4560623-.327446.8784485-.5541382 1.2799149-.2518921.4452362-.533371.8678513-.8698425 1.2494125.2902756-.3401031.5297012-.7170944.6850891-1.1484299.2056274-.5715714.2539062-1.2119751.286972-1.8435059.0231552-.4466476.0320206-.8943024.0234146-1.3474884-.0096207-.5157394-.0454712-1.0356445-.0694885-1.5536118-.0166016-.3592911-.0331192-.7205276-.0802994-1.084259-.0409164-.3139572-.1048813-.6275406-.1897583-.9421921-.0655899-.2430573-.1358109-.4869156-.2477798-.7234039-.0034867-.0082245.0003128-.0172806.0077972-.0188065z"/><path d="m88.2147522 94.8543396c.0072708.0017166.0132141.0092545.0137558.0170135.0015488.0591431-.0005035.1180344-.0000916.1768723.0008392.1614456.0129089.3277969.0178528.4905701.010643.3381195.0167313.6750183.0237122 1.0116806.0110855.5227585.0212936 1.0457458-.039093 1.5431519-.0585632.4817123-.1739578.9384384-.3317947 1.3645172-.1564102.4226532-.3559036.8154526-.6112595 1.1580658-.278183.3723907-.6245041.6753845-.99086.9454269-.3818817.2808533-.786377.5263901-1.2239761.7223892.3975372-.1853409.7589645-.4224625 1.0553665-.7462234.337738-.368782.5779648-.8319626.7989044-1.3046036.1763-.3768997.3388519-.7653351.4789886-1.1678696.1746902-.5028687.3214722-1.0220337.4712219-1.5401611.0895691-.3088608.1765213-.6212769.2393799-.9449081.0569839-.2971497.0919113-.6054535.1064987-.9211121.011795-.2583923.0175476-.5212555-.0225449-.7938004-.0005492-.0077514.0062257-.0125961.013939-.0110092z"/><path d="m91.9686737 101.2407608c.0080338.0013046.017128.0099487.0185776.0177612.0058289.0597305.0062714.1178818.0109558.1776276.0127487.1655045.0335846.333725.0459595.4994659.0249786.3371735.0426636.6725616.0560989 1.0063553.019577.486084.0253601.9695358-.0460968 1.422554-.0708008.4504013-.2047729.8706512-.3852463 1.2593002-.185318.400589-.4225235.768013-.7189102 1.0814743-.2949295.3117828-.6484528.565567-1.0092697.8080673-.3904419.2619324-.7932587.5093231-1.2176666.7299805.3805389-.2057648.7335892-.443161 1.0305481-.7423935.3642349-.3652725.6315308-.815979.8861389-1.2700653.1837158-.3272171.3560486-.6630478.5081329-1.0111694.198288-.4558563.3654709-.9292908.525177-1.4087906.1010666-.3029633.1993484-.6092148.2631073-.9322815.0561447-.2859116.0851898-.5840149.0864563-.8923874.0010834-.2373886-.0056992-.481308-.0648727-.7332306-.0014572-.0078124.0028763-.0135803.01091-.012268z"/><path d="m63.7284355 81.0425034c.3485222.4929962.7287788.9719925 1.1640511 1.397644.4853668.4737244 1.0369949.8754883 1.6160812 1.2141266.5306015.3100204 1.0881577.5676727 1.6591644.7561035.5898972.194809 1.1890411.3017883 1.788269.3944016.5022964.0777893 1.0036697.1402817 1.505455.1957855-.135437-.0186005-.2705154-.041687-.4052582-.0679932-.3632736-.0697021-.7256775-.1652527-1.0828476-.2874603-.4283981-.1459503-.8474426-.3292389-1.2634964-.519104-.6396103-.2922516-1.2750549-.597702-1.8922577-.9458466-.5468674-.3078842-1.0763245-.6563187-1.5869446-1.0289383-.5645142-.4119568-1.1123734-.854248-1.5750847-1.3833084-.4146042-.4735031-.7485199-.9974136-1.0389442-1.5434875.3263284.6286544.6990205 1.2335891 1.1118127 1.8180771z"/><path d="m71.2715149 78.3117752c.0058365-.0031738.0151825.0006485.0189056.0082016.0228806.0494156.0433731.1011963.0656204.1501617.0620117.1365585.1341324.2701416.2004623.40448.1512527.3064651.3008118.6121216.4546585.9167633.2400742.4764557.4780121.9522171.6532288 1.4517365.1381378.3938293.2438507.7934723.3238907 1.191925.0776901.3857498.128006.7707138.1409988 1.1469803.0167923.4879532-.0366898.955101-.1127777 1.4052734-.077774.4608078-.1697006.911087-.302124 1.3389664.1210251-.4131622.1932755-.8522034.1846161-1.3282242-.0092545-.5384979-.1151047-1.0982742-.2166138-1.6500244-.0759354-.4126587-.1591339-.8260193-.2524033-1.2388229-.0759811-.3379822-.1603317-.6746063-.2399521-1.0123444-.0931625-.3947601-.1760101-.791954-.2852478-1.1859436-.0863113-.3102798-.1928024-.6182175-.3173599-.9207153-.0931931-.224968-.1895752-.4509888-.3177414-.659317-.0039214-.0081024-.0042037-.0164719.0018388-.0190964z"/></g><g fill="#5d6a23"><path d="m63.5286789 113.7491608c.0059433-.0098267.0199928-.0114517.0315361-.0042191.2687874.1730423.531498.3547821.7977638.5316315.6533432.4357071 1.3113098.8654556 1.9594879 1.307663 1.2459335.8497314 2.4750595 1.7228088 3.6981049 2.6045914 1.8329163 1.3211899 3.6501083 2.6697006 5.3987732 4.0953217 1.5433884 1.2575912 3.0371857 2.5718307 4.4704895 3.941124 2.5254211 2.4117203 4.8998718 4.9753647 7.0137329 7.6973648 1.7743149 2.2848358 3.3473434 4.6880493 4.7561035 7.1518707 1.3785629 2.4098511 2.5928574 4.8803101 3.5719452 7.4088593-1.0071487-2.5745697-2.2830353-5.0835724-3.8327179-7.4801636-1.4818649-2.2911377-3.1796112-4.4667816-4.9574509-6.5876617-1.835228-2.1889343-3.7816925-4.3054047-5.8083496-6.3480835-1.3849716-1.3968811-2.8107071-2.7574387-4.2540436-4.1014023-2.7684784-2.5780411-5.6196671-5.0835037-8.6737671-7.3502426-.7340164-.5445328-1.4786072-1.073288-2.23246-1.5901184-.6317215-.4336395-1.268074-.8562927-1.9276886-1.2452316-.0108871-.0066378-.0168762-.022011-.0114593-.0313036z"/><path d="m70.5602341 123.6114197c.38134.3870773.7914352.7541962 1.248436 1.0594559.5095062.3395157 1.074707.5972977 1.6596298.789978.5359192.1762924 1.0921555.2976837 1.6541672.3512802.5806198.0554962 1.1611328.0266724 1.7402573-.0156479.4854736-.0353317.9685135-.0847931 1.4512329-.1409073-.1306534.0117493-.2614288.0192184-.3922043.0235977-.3524704.0129471-.7067261.0014648-1.0587082-.0361252-.4221115-.0445023-.839119-.12603-1.253952-.2143631-.6377563-.1361465-1.2728958-.2855606-1.8950272-.4789352-.5511627-.1707916-1.0898819-.3833542-1.6131516-.6226425-.5784912-.2645569-1.1442261-.561142-1.6377945-.957428-.4421997-.3545685-.8127823-.7737885-1.1442719-1.2231598.373993.5190582.7896576 1.0058823 1.2413865 1.4648972z"/><path d="m72.8320084 128.0139618c.6168365.5281219 1.2734909 1.0176544 1.9769363 1.413681 1.1667175.6562042 2.4412155 1.0806274 3.6972656 1.2846527.3762894.0613403.7511749.1005707 1.1234512.1190643.6275558.0310364 1.2462616.0069275 1.8594818-.0303345.5195465-.0317535 1.0350113-.0801086 1.5457687-.1420898-.1795502.0188599-.3610611.0306702-.5422821.039093-.4404602.0201111-.8869934.0127563-1.3374939-.0253448-.5400543-.0460663-1.0835266-.1334381-1.625946-.2329865-.8353577-.1534729-1.6729431-.3407135-2.5016251-.592392-.7321243-.2225647-1.4564285-.5012054-2.16465-.8251801-.7103806-.3245239-1.4085617-.6964111-2.0535126-1.1594543-.6861572-.4932556-1.2953644-1.0754318-1.8450851-1.7105331.5705034.6673661 1.1973954 1.2875748 1.8676912 1.8618241zm10.4528808 2.616745c.0953674-.0123291.1909943-.0190735.286087-.0325012.0071106-.0013123.0110321-.008255.0079498-.0152588-.0026855-.0072479-.0103226-.0126495-.0170975-.0109253-.1705017.0419159-.3477554.0682831-.5269165.0869141.0833665-.0098725.1672212-.0168458.2499772-.0282288z"/><path d="m76.7031326 134.2229614c.5894928.3103485 1.190567.5803223 1.8007278.7860413 1.2548294.423172 2.5271606.5936737 3.7086716.5649567.3583221-.0086517.7108154-.0362244 1.0522766-.0852661.4800491-.068634.9416656-.1721954 1.3978958-.2858429.5149231-.1278687 1.0200043-.2729645 1.5160294-.4314117-.1608734.0467682-.3252487.0861816-.4902878.1239624-.4299393.0979767-.8770142.1659088-1.3365021.202179-.4266205.0333405-.8623199.0432892-1.3017654.0430298-.8035812-.0004883-1.618248-.0293274-2.4481277-.1234894-.7202377-.0814819-1.4523773-.2168579-2.1865616-.403717-.8192673-.2088013-1.6452484-.482193-2.4443588-.8858643-.7104263-.358963-1.3809433-.8101501-2.0136261-1.3158264.8584289.6936186 1.7845459 1.3049773 2.7456283 1.8112486zm9.7717896.4559479c.0779266-.0266724.1603165-.0462036.238121-.0735168.005928-.0021057.0067062-.0098724.0016937-.016449-.0043259-.006485-.0132294-.00914-.019165-.0070343-.1447601.068512-.2995529.1238556-.4587936.1720734.0791549-.0255738.1597976-.0487671.2381439-.0750733z"/><path d="m77.6810455 136.1586151c-.1481628-.1473846-.2973251-.2947388-.4386292-.4487762.1422883.1533661.2888184.3025207.4386292.4487762zm2.2558899 1.8288117c.6366425.4140472 1.2943115.7698364 1.9671326 1.0451813 1.2359772.5061646 2.4974976.7622375 3.6966858.8405762.3905869.0253601.7770004.0299683 1.1552277.0132904.5344467-.024231 1.0535507-.0897675 1.5688095-.1625214.4726334-.0666199.9434586-.1385803 1.4076233-.22435.2056274-.0379486.4077682-.0820465.6123352-.1225433.0851593-.0167694.1730957-.0288849.2578888-.0467072.0059814-.0014648.007164-.0081635.0036621-.0149536s-.0119858-.012146-.017952-.0100403c-.3446426.1091309-.7203598.1614685-1.0955887.2062531-.3982315.047348-.8039398.0749054-1.2182236.0788116-.6120911.0050812-1.2396927-.0382843-1.8682632-.0947266-.8194504-.0731201-1.6457977-.1697235-2.4817352-.3331909-.7533569-.1476746-1.5136642-.348938-2.2720718-.6118011-.9174347-.3182983-1.8205948-.7256165-2.6762924-1.3173676-.45961-.3178101-.8905563-.6813812-1.2951279-1.0747223.6925506.6885681 1.4516143 1.3062134 2.2558898 1.8288117z"/><path d="m77.5325317 117.9814148c.0073929-.0039673.0184097-.0018463.0222473.0047302.0233002.0432587.0434723.0891495.0660553.1320724.062912.1197357.1383972.2350006.2067642.3519287.1558914.2667389.3097992.5329895.469017.7975845.2483444.4139099.4941711.8274994.6615219 1.2738266.1319427.3518906.2238998.7145615.2847443 1.0802536.0591583.3539963.085083.7116776.0664215 1.0671387-.0242844.4609909-.1321335.9135742-.2659302 1.3536987-.1368179.4504929-.2898941.89328-.4901657 1.3213272.1850662-.4122238.3131714-.8411331.3462524-1.292099.0380859-.5102386-.0393829-1.0250473-.1122894-1.5329437-.0545578-.3798599-.1178818-.7592087-.193512-1.1363907-.0614395-.3088837-.133194-.6151276-.1991043-.9231873-.0771408-.360054-.1415176-.7240906-.2382889-1.0808182-.0765533-.2808838-.1778641-.556282-.3016586-.8235779-.0927353-.1986923-.1892548-.3978806-.3260574-.5751038-.0040282-.0070722-.0036086-.0149686.0039826-.01844z"/><path d="m83.0398407 122.1015854c.0065002-.0028305.0149841.0014038.018837.0079193.0246811.0508804.0463638.1023788.0710526.1532669.0674515.1395493.1453476.2776184.2169724.4158249.1478653.286911.2946091.5738754.4435883.860733.2208099.4268265.443718.8548889.6078873 1.2976913.1629639.439743.2769318.8880768.3479919 1.3341141.0729523.4582748.1013336.9165878.0617828 1.3596725-.039299.4358749-.1469421.8529663-.2794495 1.2550659-.1473618.4460144-.3231812.8761292-.5517654 1.2775879.1955719-.356308.3425217-.7381287.4100952-1.1560822.0893021-.5538025.0349045-1.1452637-.0310822-1.7262039-.0468674-.4108353-.1060028-.8203049-.1807785-1.2320328-.0849533-.4685898-.1927719-.9367828-.2902679-1.4051132-.0675812-.3248596-.135376-.6515121-.2295532-.9755478-.0814514-.2796631-.1824036-.5553055-.3012466-.828598-.0918198-.2110977-.1876907-.4221878-.3178711-.6199036-.0041887-.0069502-.0023119-.0158003.0038069-.0183943z"/><path d="m88.5139389 126.8362198c.006424.0004044.0125885.0063324.0142059.0133133.0101166.0536652.0171432.1076736.0262527.1612473.0247498.1470261.059761.2967453.0881882.4443283.0593719.3065186.1147003.6126404.1707458.9184113.0872421.4747467.1737747.9498596.1966171 1.4128876.022049.4484406-.0078201.8831787-.0782547 1.2967377-.0697327.410202-.1804657.8000641-.3460388 1.1530762-.1805115.3838196-.4291382.7152252-.6996765 1.0198059-.2820969.3168945-.5886307.6052094-.9306183.8536377.3096008-.2323303.5808487-.5061035.7840576-.8484802.2315598-.3900299.3663483-.8505402.4833755-1.3165894.0934219-.3716736.1734543-.7516785.2323914-1.1409454.073288-.4862518.120491-.9828949.1703568-1.4790649.0299911-.2958221.0572205-.5944672.062355-.8994904.0040894-.279953-.0121994-.5665588-.0468216-.8566284-.0284729-.2374115-.0627289-.4779434-.1373215-.719986-.0016173-.0069811.0034029-.0124742.0101854-.0122606z"/><path d="m92.6489334 132.0592041c.0070114-.0000916.0160065.0063324.0184021.0132141.0138397.0535278.0228729.1064606.0357437.1601868.0354538.148819.0781784.2988434.1133499.4479523.0713882.3033752.1363297.6062622.1974335.9083862.088974.4399719.165863.8797455.1727066 1.3040771.0070114.4218597-.0440521.8262939-.1392593 1.2093353-.0975418.3947144-.2440262.7674561-.4487457 1.1004486-.203743.3312378-.4658051.6189423-.7357483.8975067-.2921677.3010254-.5970001.5907593-.9241333.8595734.2921371-.2482452.5562439-.5209351.7635727-.8410492.2545547-.391037.4141617-.8444977.5625153-1.2990112.1071014-.3275604.2032776-.6611786.2804337-1.0027466.1003189-.4471588.1716232-.905365.2356949-1.3679199.0406113-.2922821.0783768-.5871124.0843506-.8917694.0050507-.269577-.0147018-.5459442-.0595398-.8272247-.0344315-.216568-.0764999-.4378357-.1641998-.6580505-.0023958-.0068818.0004118-.0128327.0074232-.012909z"/><path d="m65.6881104 118.1502991c.3690262.3938141.7628708.7698135 1.1954498 1.0884171.4822311.3544312 1.0099411.6327057 1.5515442.8490601.4962158.197998 1.0074997.343956 1.5198822.424675.5293579.083519 1.0534821.0855103 1.575531.0743866.4376297-.0091858.8722076-.0321579 1.3060837-.0615692-.1176529.0046387-.2356567.0051346-.3538666.0026398-.3185043-.0056152-.6401215-.034935-.9612656-.0893784-.3851013-.064743-.7678299-.1650009-1.1489944-.2717361-.5860367-.1644211-1.1704941-.3415298-1.7458496-.5604706-.509697-.1934586-1.0106583-.426651-1.4992523-.6848907-.5401611-.2855072-1.0707092-.601326-1.541954-1.0098114-.4221725-.3655167-.7834091-.7898483-1.1110535-1.2413177.3703918.5210187.7765884 1.0130231 1.2137451 1.4799955z"/><path d="m71.6795502 114.4584045c.0044785-.0038223.0129776-.0018311.0172577.0044632.0267639.0413971.051857.0853348.0780182.1264191.0729294.1145935.1539917.2248611.2302551.3367386.1739273.2552414.3462906.5100098.5221481.763176.2745667.3960342.547226.7917786.7702255 1.2191772.1758118.3369675.3249817.6844101.4521942 1.0348511.1233444.339241.2233353.6821289.2903824 1.0230408.0868988.4421234.1110916.8764725.1135864 1.2989578.0026398.4324493-.0082855.8575592-.0569 1.2687073.0411377-.3959198.0370483-.8076401-.0411758-1.240181-.088028-.4893951-.2611618-.9827728-.4294128-1.4695358-.1258545-.3640518-.2579727-.7275848-.3985519-1.0889969-.1147614-.2959747-.2364349-.5893784-.3542633-.8845444-.1377945-.344986-.2672043-.6938324-.4185257-1.0355682-.1194077-.2690582-.2555847-.5327911-.4062805-.7886658-.1125412-.1902084-.2279434-.3808746-.3676758-.5503387-.004532-.0067597-.0060121-.0143433-.0012818-.0177003z"/></g><path d="m102.6451187 165.8867188s4.7768784-16.166748-9.8211746-16.9518433c-14.5982819-.78508-26.3456497-.1822968-29.0012131 5.5123901-2.6557846 5.6949158 5.8826752 1.8023987 12.0142593 1.7859192 6.1315765-.0167084 8.4281158 2.1267395 10.1015015 5.8715973 1.6734009 3.7450867 14.1282349-.9895477 16.7066269 3.7819367z" fill="#5d6a24"/></g></svg>