<svg id="Слой_1" enable-background="new 0 0 230.3999939 230.3999939" height="512" viewBox="0 0 230.3999939 230.3999939" width="512" xmlns="http://www.w3.org/2000/svg"><g><g><circle cx="117.829" cy="127.136" fill="#ff7061" r="68.987"/></g><g><g><path d="m105.4857025 100.6875153c-2.3044052.1920319-5.1544647 1.5062943-6.3783264-1.4852219-.2023392-.4955368.0271683-2.4200897-.2618256-2.796196-.8650894-1.1240997-2.7671585 1.0777359-3.5825958-2.1840363-.2590103-1.0374451.9746857-2.5741882.7863998-3.2331924-.1896896-.6641541-2.3240738-1.3821716-2.7957306-2.1840363-1.0121613-1.7208023.1807938-2.8102493.2618179-4.1938248.079628-1.3512573-2.3587341-2.4753571-2.5334396-4.1067123-.1681442-1.5699921 1.434166-3.4369278 1.1358109-4.6308212-.4384003-1.7535934-2.0917587-3.0922089-1.2233963-5.1549301.2805634-.666832 1.1292572-.9884644 1.3981018-1.6601562.4145126-1.0361404-1.4407196-2.6582642-1.2233963-4.1065292.2051544-1.3663406 2.4908142-1.8002892 2.5339127-2.5338097.0604172-1.0307083-1.417305-2.9228935-1.1358109-4.8929291.2543259-1.7798233 2.0711517-1.0847549 2.4463196-1.8348083.4093628-.818161-.3672028-2.3236122.1747055-3.4075699.8205872-1.6413269 2.160141-1.7822609 3.4078979-2.7959633 1.0191879-.828228 1.2219925-2.4105873 2.3587341-3.3201714.4908524-.3927307 1.3119202-.0881004 1.8350983-.4368515.6248093-.4166222.6744537-2.9535751 1.5727921-3.7570724 1.9531326-1.7476921 3.4397507-.3010216 4.3685379-.6990013.885231-.3793373.9920197-2.4389687 2.3592072-2.9706688 1.0786667-.4195213 2.6196136.4023361 3.145134.262104 1.0969391-.2925453 2.1353226-2.6591988 4.3685379-3.0580673 1.8655319-.3330612 2.364357 1.0004959 3.5825958 1.1358566.6941299.0771408 3.5652695-2.2973328 5.4172211-2.3590622 1.2332382-.0411263 3.038353.0652428 3.6697159 1.3979568.1391144.294281-.1278534.8401718.1747131.9611053 1.1255035.4503441 2.8495941-1.9856758 4.3685303-1.3105583.9920197.440834 1.3442383 3.1649971 1.7475128 3.3201675.9493866.365097 2.6196136-1.5817032 4.0191193-1.0485039 1.579834.6018143.7081909 2.384964 1.4852142 3.2328186.7428589.8104286 2.9409332-.6859818 4.0191345-.5242538 2.2716064.340744 1.3137817 2.8217735 2.0969086 3.3202171 1.4683533.9341736 2.7039337-1.374588 4.10672 1.0484581.4018555.6944122-.4224854 3.422039-.349411 3.4949188.4828949.4828949 1.8987732-.6916962 2.7086029.3495026 1.3091125 1.6830559-.172821 2.8131981 0 4.2812729.0126495.1098328 3.0523987 1.330513 3.4074249 1.9222603.7241211 1.2071419-1.1517334 4.0031967-.6988068 4.4560242.7142792.7145538 2.6430359.7983437 2.9704285 2.2717133.3414459 1.5359383-2.2659912 2.3122711-2.1840363 2.8833122.0355988.2501144 2.4079132-.125946 2.7957306.2621078 1.9493866 1.949234-.4159088 5.1224747-.349411 5.2423782.1948547.3506241 2.5475006.2784958 3.0580292.6990967 1.8444672 1.5189362-1.0205841 2.8022842-.7864075 3.5821304.1639404.5465927 2.1671753.5611115 2.2716217 1.9222107.1653442 2.1474991-2.9624786 2.8088455-2.9704285 2.883316-.0201416.1807938 2.3325043 1.4913025 1.9222107 3.4074249-.3170929 1.4781952-1.3016205 1.3517303-1.8350983 2.3592072-.9006805 1.7016068 2.2266541 2.5638885-1.1358032 4.9802322-.8290253.5962372-2.5620117-.7175522-3.0580292.1747055-.3512878.6327667.9657898 2.9427948.2622986 4.1942978-1.1554871 2.0542908-3.2856598 1.2355728-3.7572937 1.6599197-.650116.5849991.9784241 3.6495743-.4365387 4.5432358-1.9868469 1.254776-3.9619904-1.2561874-5.4172211-1.0482254-.8585358.1227188-2.2739563 1.7653046-3.4950256 2.0093307-2.4004211.4800797-4.0017853-.9030304-6.0289154-1.2229309-1.2674255-.2004623-3.1563721 1.2824173-4.5432281 1.3976364-2.1896667.182663-3.4898682-1.2145004-5.5048065-1.3105164-1.4744568-.0702591-5.0490952 2.58918-7.4265594 2.7962036-3.0552139.265564-4.8163071-2.5428085-7.6012573-2.7962036-1.0088882-.0917969-2.1765442.570015-3.145607.6992874-3.3990021.4529114-6.5811386-.0716629-10.0480499.6988144" fill="#381952"/></g></g><g><path d="m154.2293549 98.711113c-3.2452698-3.7542419-10.5428619-2.9646988-12.8609467-3.1198196-3.0823059-.2047806-7.2565765-.6736374-8.9742584-5.0012741-.7938843-1.9973907-.897583-3.5956268-.7808228-4.738121 1.01091-.4618759 1.9764862-1.0065308 2.8758087-1.6296158 3.0265656-2.0984726 4.9986572-5.2601166 6.3145599-8.6430893.5655975-1.4544601 1.7926178-6.8932266 1.3708038-7.409996-.2309265-.2823486-1.4396057-.707634-1.8579254-1.1259308-.7477112-.7476959-.1011047-1.5869217-.5063171-2.1951981-.2004242-.3006439-.77211.0357437-1.0692902-.1690521-.8487701-.5830002-.1036987-1.436161-.3381042-2.139431-.0627747-.1890984-.2117767-.3686256-.3939056-.4496651-.8566437-.3808365-1.3908386.1952057-2.0261383-.8444328-.1786194-.2919464-.2256927-1.6374702-.5071716-1.7455292-1.9206848-.738121-1.212204.1237373-2.5324554-1.8570786-.537674-.8060951-1.7438049 1.07798-2.5333405.393898-2.1777496-1.8875656-2.0749054.2135048-3.8840637-.9568558-.6413803-.414814-.1316147-1.3220139-.6753845-1.6331062-.5237656-.2980309-1.3298645.0601234-2.0270233-.506321-1.1041336-.8976059.9995728-6.1760178-.055748-5.2914772-1.5050049 1.260994-1.5337677 2.0095596-2.1951904 3.1520462-.6047821 1.0440025-2.7538071-.4496613-2.9838867.5629578-.1342087.5899773.6753845 2.33638-.1690521 2.7590446-.5847473.2919235-1.7559814-.3764763-2.4208908-.2257156-1.1573181.2631798-.8383484 1.9110985-1.4065399 2.1951942-.4627457.2318192-1.5267944-.5507469-2.2518311-.0557671-1.4318161.9760284-.7939224 2.8766785-1.4640656 3.5459518-.5019379.5028305-1.7464066-.1603584-2.4208908 1.1259346-.6318054 1.2078247.623085 2.6387482.1690598 3.5467987-.2082901.4174347-.9943466.3198395-1.1817017 1.0692749-.5002365 1.9991379-.1551437 4.0409546.4174347 5.8544617.8827744 2.7929993 1.9764328 5.5633621 3.5729675 8.032196 2.219574 3.4317856 5.3690262 5.5598984 9.2618179 6.21698.1254807.8749237.2327118 2.0139236.2570953 3.436142.0688477 3.9049988-6.0975952 5.001297-6.0975952 5.001297-10.0714035 1.7124023-9.3176041 3.0831985-11.1677017 5.1380997-1.849205 2.055748-3.630455 7.6052017-3.5625 11.9903488.0688477 4.3843002.0688477 9.3175964.274498 15.1406708.2048035 5.8239441 1.506752 17.9511261 3.9729538 20.2805176 1.5947876 1.5058746 5.1930389-.4243774 7.5380936-1.9773254 1.2828064-.8488007 2.1908493-1.5860443 2.1908493-1.5860443 2.4671021-1.3699341 4.721962-5.1729584 4.721962-5.1729584 2.5350571 2.7407227 8.7751846 3.5293884 8.7751846 3.5293884s3.3576965.3424988 6.5776978 1.2331238c1.9625702.542038 4.6884613 1.2888794 7.107605 1.8509674.0139618.003479.0270233.0060883.0409698.0095673 1.5346222.3564301 2.9420166.6361694 3.9503174.7424927 2.6039124.2745209 6.6457062-.4793091 7.7420044-2.5341797.0583801-.1098175.1159058-.226593.1716919-.3520813.9882202-2.2178497 1.5938568-7.0457306 3.7333069-21.5728912 2.2613982-15.346344-2.6919404-23.8743973-2.6919404-23.8743973z" fill="#b65d4e"/></g><g><g><path d="m184.7599335 138.2804413c.3468781 2.7755737 2.2205048 5.0648956 2.2205048 5.0648956l-4.7189636 11.8666229-3.3306885-19.2217102c-.55513-4.7189484-6.0374603-5.0657806-9.7838287-3.1921539-3.7481537 1.8736267-6.5925598 4.3023834-6.5925598 4.3023834l-.1499023 2.6535797c-1.8326569-.6169891-5.8526764-.9760284-6.6509399 7.2696838-.760788 7.8640137 3.3368073 10.5341644 5.5956116 11.4021301l-.5838928 10.330246-.0243835.4400635-.0950168 1.6732178-.0365906.6492462-.1124268 2.0034637-.0548859.9611969-.121109 2.1472778-.0793152 1.4004059-.1621094 2.8749542c-.0522614.9333344.6239624 1.7481537 1.5512085 1.8666534 2.5847168.3311768 7.7193604.9298401 11.7489471 1.0292053 3.8204498.0941162 8.4435577-1.318512 11.0126038-2.2326813 1.1599121-.4130554 1.8989105-1.5520782 1.7986908-2.7790527l-.0749207-.9211578-.0374908-.461853-.2013092-2.4670868-.0523071-.6335602-.0775604-.9603424-.0522614-.6405334-.2344513-2.8679504-.1089325-1.3341827-.0365906-.4540405 5.4126282-23.8709106c1.873642-1.6653595 3.4692383-4.3721161 3.4692383-4.3721161-3.0526885-1.5956116-9.4369963-1.5258942-9.4369963-1.5258942zm-25.7445526 9.7149811c.4479523-4.7049866 1.8902283-4.6178436 3.1599274-4.1899567l-.6222382 11.0151825c-1.2557831-1.0535736-2.8871155-3.1546631-2.5376892-6.8252258z" fill="#ffa9a9"/></g><g enable-background="new"><path d="m185.6475525 169.1133575c-1.263443 1.5549316-2.5238037 3.1134949-3.7879791 4.6677094-.4854736-.4159088-.9709473-.8318329-1.4564209-1.2477417.8476715-1.0236816 1.699173-2.0437775 2.5468903-3.0674744.9014281-.1020355 1.8003997-.2173309 2.6975097-.3524933zm-5.9110718.6669617c.8570099-.0730896 1.7139282-.1528168 2.569809-.2435608-.7438354.904892-1.4854584 1.8119812-2.230072 2.7154388-.4584198-.3921204-.9160919-.7849731-1.3738098-1.1778412.3347015-.4144135.6694183-.8288269 1.0033417-1.2439423.0129851-.0157775.0229796-.0322264.0307311-.0500945zm-6.1289673.4455872c.6120453-.0311127 1.2238312-.0769653 1.8349457-.1191406.0943451-.0063782.1894379-.0127716.2845154-.0198975-1.6811066 2.0249329-3.3569794 4.0534668-5.038147 6.0776825-.3674316-.5261383-.7355804-1.0522461-1.1037292-1.5783539 1.2817535-1.4534454 2.5687866-2.9003448 3.8505554-4.3530579.0575409-.002655.1143188-.0045776.1718597-.0072326zm-5.6478729-.100296c1.2767487.0902252 2.5579224.1449585 3.8379364.1436157.3381042.0003815.6761169-.0043945 1.01474-.0136108-1.1611633 1.3217773-2.3193359 2.6464233-3.4812775 3.9674683-.984375-1.4080658-1.9687042-2.8161621-2.9515991-4.225769.5258484.0482024 1.0531006.0911864 1.5802002.1282958zm-6.8947754 7.5400543c-.128891-.0224457-.2585449-.0448761-.3874817-.0680237 1.2049103-1.6711121 2.413559-3.3408203 3.620697-5.010498.3140411.4069214.6280518.8145447.941391 1.2222137-.9589539 1.35672-1.911911 2.7169952-2.8708801 4.0729523-.4354706-.0684967-.8695373-.1407319-1.3037262-.2166443zm3.4102631.5230255c-.5492401-.0727997-1.0971222-.1508026-1.6443787-.2339783.8952026-1.2616577 1.7949219-2.5189362 2.6901398-3.7798462.327713.4265594.656189.8538208.983902 1.2803802-.0203705.0137177-.0392456.0303345-.0550232.0513306-.6599579.8928376-1.314682 1.7892609-1.9746399 2.6821137zm.4892578.062973c.6055298-.8119965 1.214798-1.621109 1.8195648-2.4338379.7169189.9337921 1.4345551 1.8668213 2.1528778 2.7990723.0068207.0094757.015152.0181427.0234222.0261078-1.3350067-.0875702-2.6680602-.2231598-3.9958648-.3913422zm4.3706207.415329c-.0280762-.0016174-.0568848-.0039825-.0857239-.0056.0021667-.0015259.0036316-.0022888.0057983-.0038147.0988464-.0765991.1180115-.2194672.0414276-.3182831-1.5587006-2.0163116-3.1231995-4.0287933-4.6811676-6.0458527-.0181885-.0232544-.039978-.0419922-.064621-.0555115.4865875-.672226.9724426-1.3451691 1.4582977-2.0181274 1.9795532 2.8417664 3.9532776 5.6881104 5.9321289 8.5306396-.8689116-.0019683-1.7377013-.03273-2.60614-.0834502zm1.6101837-2.1356812c1.7741089-2.1331635 3.5549927-4.2605743 5.3298645-6.3937683.0230408-.0270538.0378876-.0590973.0453186-.0917511.8823395-.0632477 1.763855-.1294403 2.6445007-.2015381.0523682-.0040283.1046906-.0080719.1569977-.0128479-2.2937012 2.8525848-4.582901 5.7087708-6.8773499 8.5606384-.4328765-.6207427-.8657226-1.2407531-1.2993316-1.860733zm4.6456909 2.0440369c-.5947723.0455017-1.190918.0962219-1.7867126.1291962-.4306183.0236664-.8614807.0370026-1.2932281.0422516.6852112-.849823 1.3704376-1.6988983 2.0556488-2.5487061.8931732.7470703 1.7827606 1.5000916 2.6759491 2.2479095-.5505372.044571-1.101059.0877076-1.6516572.1293488zm3.5845795-.293335c-.4855652.0432434-.9719238.0850372-1.4583282.1246338.016098-.0785828-.0092926-.163681-.0753784-.2184296-.9329224-.7772369-1.8722992-1.5469666-2.8052521-2.3242035.5139313-.6366272 1.0278625-1.2732391 1.5417938-1.9098663 1.6287994 1.3733521 3.2525482 2.7527161 4.8791809 4.1276093-.6931457.0718841-1.3879242.1379394-2.082016.2002563zm2.705185-.2670288c-1.7422028-1.46698-3.489502-2.9286957-5.2324371-4.3956604.5952301-.7364807 1.1897736-1.4736786 1.7843018-2.2101593 2.3696899 2.0379333 4.7343292 4.0818787 7.103302 6.1205597-1.2140199.1948853-2.4332582.351471-3.6551667.48526zm4.1978302-.6079254c-.0165558.0034943-.0322571.0060883-.0488129.008728-.011322-.0470581-.0357361-.0906372-.0749359-.1246338-.665802-.5716858-1.3324585-1.1433563-2-1.7141418.3677673-.4584198.7346497-.9150391 1.1032715-1.3725433.0104218.0165405.0217896.0313568.0383453.0453186.2605438.2300262.5211334.4600983.7808228.6901855l-.0523071-.6335602c-.1464081-.1281128-.2936859-.2570953-.4400635-.3860626-.0209351-.0174103-.0435638-.0304718-.0679932-.0391998.1437836-.1786652.2867126-.3564453.4304962-.53508l-.0522614-.6405334c-.6893311.8636322-1.3777771 1.7272644-2.0680084 2.5890961-.5158844-.4409637-1.0308838-.8827667-1.545929-1.3237305 1.125061-1.3786316 2.2535706-2.7555542 3.3794861-4.133316l-.1089325-1.3341827c-.0888519.0130615-.1786346.026123-.2683716.0391998-2.1115417.3032837-4.23703.5063171-6.3633728.680603-1.1956635.0984802-2.3913116.1865082-3.5886688.2701569-.6030426.0427094-1.1947632.0906372-1.8100281.1211548-.6073761.0313568-1.2156982.0452881-1.8239288.0470428-1.0213623.0017395-2.0427246-.0322418-3.0632019-.0897675-1.4710083-.0819092-2.9394073-.2152557-4.4025879-.3825684-1.0910645-.1246033-2.1794891-.2692871-3.2662201-.4331055l-.0243835.4400635c.8775482.1316223 1.7568359.2501221 2.6379089.3564453-.5786591.8165588-1.1555786 1.6339874-1.7324524 2.451416-.3329163-.3782501-.665802-.7564392-1.000473-1.1346436l-.0365906.6492462c.2431335.2788391.4871674.557724.7302704.8365631.0113525.0122223.0226746.0235291.0357361.0331116-.2788391.3939362-.5568237.787796-.8348541 1.1808472-.0148163-.0157013-.0296173-.0313568-.0435791-.0470581l-.0548859.9611969c1.1268005-1.5851746 2.2544708-3.1694489 3.3803864-4.7555237.0244141-.0357208.0374756-.0758057.0409698-.1167603.0400848.0043335.0792694.0095673.1193542.0139313.424408.0488129.8488159.094101 1.2749786.1376801-1.647049 2.2875671-3.2897491 4.5795288-4.9367981 6.8679504l-.0793152 1.4004059c.0836639.0148621.1681671.0296631.2518311.0444794 1.1808472.2056427 2.3677826.3878021 3.5555573.5446472.0374908.0157013.0766754.0217896.1159058.0157013 1.3036957.1708069 2.6108856.3110962 3.9215546.4095612 1.2060852.0923767 2.4156494.1490173 3.6243744.1507568.6195984 0 1.2374878-.0121613 1.8570709-.0453033.6256866-.0331116 1.2523041-.0854034 1.8779755-.133316 1.2034912-.0888977 2.4069672-.1838684 3.6087189-.2910614 2.3058624-.203949 4.6117401-.447937 6.8975677-.8296204.0549316-.008728.1089172-.0183411.1638641-.0279236z" fill="#fff"/></g></g><g><path d="m101.3284988 175.77742-4.0278473-20.6517487-.1019515-.5254821-.161232-.8261261-.1699524-.87146-.7703476-3.9485779-.1272278-.6553345-.5621109-2.8801575-.1777802-.9115448-.0365906-.1873779-1.2392349-4.0426788-9.2870865-.0670929-4.4914856-.0322418-13.3420029-.095871-.8226471 4.1629486-.0993118.5002136-.2962875 1.4980316-.1298676.6588287-.4147949 2.0967255-.1281204.6501007-.3825836 1.9328918-.2318192 1.1764526-.2893066 1.4623108-.098465.4984741-4.4008522 22.2613525c-.3032646 1.5346222.6475067 3.0369873 2.1638298 3.4230652 6.632637 1.6897583 24.1889877 5.20784 37.5632401-.6989136 1.5198135-.6710355 2.3790588-2.2962949 2.0618362-3.9267881z" fill="#ffa9a9"/></g><g enable-background="new"><path d="m97.1987 154.6001892c-.6361923.1167603-1.274971.2230835-1.9146118.3189545-.0113144-.0540161-.0391846-.1054535-.0836563-.1455536-.7581787-.6788483-1.5172119-1.356842-2.2762527-2.0348358.4366226-.5220032.8731995-1.0431213 1.3106766-1.5642548.0122147.019165.0252762.0374603.0435715.0540161.9211121.8462067 1.8396301 1.6967163 2.7590408 2.5455475l-.1699524-.87146c-.7494583-.6823578-1.4997711-1.3638458-2.2465897-2.0488129-.0235291-.0209045-.0496979-.0366058-.0775757-.0479126.5176392-.6170044 1.0361786-1.234848 1.5538177-1.8518524l-.1272278-.6553345c-1.1398773 1.3690491-2.2779999 2.7381134-3.4196167 4.105423-.5864868-.5237274-1.1729736-1.0475006-1.7594604-1.571228 1.5372543-1.8065186 3.0797043-3.6087036 4.6169662-5.4143524l-.1777802-.9115448c-.2762451.0374603-.5524902.0732117-.829628.107193-2.4548798.3006439-4.9228287.4845276-7.3907776.6361542-1.3882446.0854034-2.7764893.1585999-4.1655884.2274475-.6997604.0348663-1.399559.0758209-2.1002121.0967407-.7049942.0217896-1.4099884.0235291-2.1150284.010437-1.1842957-.0217743-2.3668442-.0862732-3.5476913-.1768799-1.7028275-.130722-3.4012756-.3198395-5.0936356-.5490265-1.3289719-.1803894-2.6544495-.3851929-3.9764862-.6143799l-.0993118.5002136c1.1006393.1899719 2.2047653.3625183 3.3106384.5193939-.6893387.9324493-1.3777771 1.8657684-2.0662231 2.7991028-.5124054-.6073761-1.0257034-1.2139282-1.5407028-1.8204651l-.1298676.6588287c.4348755.5211334.8706055 1.0413818 1.3071823 1.5616455.0122147.0148163.0252762.0278931.0400848.0391998-.3320312.4496918-.6640625.899353-.9960861 1.3490143-.2553101-.2849579-.5106659-.569046-.765976-.8531342l-.1281204.6501007c.1891022.2143707.3799438.4287567.5699387.6431274-.3172226.4305115-.6344452.8601379-.9525223 1.2897644l-.2318192 1.1764526c1.8004379-2.427002 3.6043701-4.8522491 5.403923-7.2801361.0296097-.0409546.0461655-.0871429.0505447-.1342163.0461731.0061188.0914917.013092.1377029.0191956.4914703.0671082.982132.1298218 1.4744949.1899719-2.2091522 2.9394226-4.4122162 5.883194-6.6222153 8.8217468-.2448807-.0496826-.4888763-.1010895-.733757-.1542511l-.098465.4984741c.5769119.1254883 1.1555328.2405243 1.7341919.3538208 1.3638153.2666626 2.7346115.5063171 4.1071548.7163239.0435791.019165.0888901.0270233.1342087.0209198 1.506752.229187 3.0187378.4226685 4.5350647.5690613 1.3952179.1350861 2.7956314.2300568 4.1969452.2605591.7172012.015686 1.4344101.015686 2.1525116-.007843.7267761-.0235138 1.4535599-.0688324 2.1794891-.1089325 1.3969269-.0749359 2.7938919-.1559753 4.1890717-.2509766 2.6779861-.1812592 5.3559647-.4087219 8.0139084-.7964935.7085266-.1037292 1.4143677-.2205048 2.1176605-.349472zm-2.2004242-9.5232696c-1.5294342 1.8047791-3.055336 3.6139221-4.5856171 5.4178314-.5629578-.5028229-1.1259155-1.005661-1.6888657-1.5084839 1.0256577-1.1877899 2.055748-2.3712311 3.0814514-3.5590363 1.0666428-.0984649 2.1306839-.2126312 3.1930314-.3503112zm-6.9943314.6431274c1.0134964-.0653534 2.0270309-.1385651 3.0396271-.224823-.900177 1.0500946-1.7977982 2.1028137-2.6988754 3.1511841-.5315933-.4740906-1.062294-.9490051-1.5930405-1.4239655.4052124-.4810486.8104782-.9620972 1.214798-1.4440002.0157089-.0183106.0279159-.0374756.0374908-.0583954zm-7.2461472.3764801c.7232895-.0217896 1.4466248-.0610046 2.1690674-.095871.1115265-.0052338.2239456-.0104523.3363724-.0165558-2.0339661 2.3494415-4.0618439 4.7032471-6.0958557 7.0518188-.4209213-.6300659-.8426895-1.2601318-1.2644577-1.8901825 1.5485764-1.6845398 3.103241-3.3611908 4.6518173-5.0448456.0680008-.0017546.1350632-.0026244.2030563-.0043639zm-6.6648941-.2562103c1.5050049.1376801 3.016098.233551 4.5271912.2631836.3991318.0086975.7982635.011322 1.1982498.0086975-1.4030075 1.5320282-2.8025742 3.0675201-4.2064743 4.5986786-1.1277008-1.6862488-2.2553635-3.3725281-3.381279-5.0605469.6195984.0697174 1.2409744.1333313 1.8623123.1899872zm-8.3232956 8.7328644c-.1516113-.0296478-.3041153-.0592804-.4557724-.0897675 1.4631805-1.9433594 2.9307404-3.884964 4.3965149-5.8265686.3607941.4880219.72155.9768982 1.0814896 1.4658051-1.1651459 1.5782166-2.3233109 3.1607666-3.4884644 4.7380829-.5124054-.0914765-1.0230636-.1873475-1.5337677-.2875519zm4.0130768.700653c-.6466064-.0993652-1.291481-.2048035-1.9354935-.3163605 1.0875702-1.4675293 2.1803818-2.9298248 3.2679596-4.3964844.3764496.5115509.7537994 1.0239563 1.130249 1.5355225-.0243759.0156708-.0470581.0348358-.0662079.0592499-.8008651 1.0378876-1.595642 2.0801544-2.3965072 3.1180725zm.5760269.0862732c.7346497-.9438019 1.4736404-1.8841095 2.2074051-2.8287659.8235397 1.1198273 1.647934 2.2387848 2.473175 3.356842.0078354.0113373.0174484.0217896.0270233.0313873-1.5738524-.1359557-3.1442183-.3285369-4.7076034-.5594634zm5.1494141.5969238c-.0331039-.002594-.0670624-.006073-.101059-.0086975.002594-.0017395.0043411-.0026093.0069351-.004364.1185532-.0880127.1446762-.2561951.0566788-.3747253-1.790863-2.4182892-3.5886688-4.8322144-5.3786392-7.2513885-.0208969-.0278931-.0461731-.0505524-.0749359-.0670929.5908279-.7816925 1.1808014-1.56427 1.7707825-2.3468323 2.2675323 3.4030151 4.5280838 6.8112946 6.7947617 10.21521-1.0257035-.0235291-2.0505601-.0810395-3.074524-.1621095zm1.9529495-2.481903c2.1463852-2.4749298 4.3006439-4.9428864 6.4479218-7.4178162.0278702-.0313873.0461655-.0688477.0557404-.1072083 1.0431519-.0531464 2.0854111-.109787 3.1267776-.1734009.0619125-.0034943.1237793-.0069733.1856537-.0113373-2.7773438 3.3115387-5.5494537 6.6274261-8.3276443 9.9380798-.4958497-.743347-.9917069-1.4858245-1.4884492-2.2283171zm5.4343872 2.5263519c-.7032547.0392151-1.4082489.0845337-2.1123886.1089325-.5089188.0174255-1.0178757.0226593-1.5276871.0183258.829628-.986496 1.659256-1.9721222 2.488884-2.9586182 1.036171.903717 2.0679626 1.8143768 3.1041336 2.7189636-.6509933.0391846-1.3019485.0766755-1.9529419.1123963zm4.2387696-.2588196c-.5742722.0392151-1.1494446.0766754-1.7246094.111557.0209351-.092392-.0069809-.1934662-.0836563-.2597046-1.0823441-.9402924-2.1725159-1.8718872-3.2548981-2.8121796.6222305-.7389984 1.2444611-1.4779968 1.8666916-2.21698 1.8892899 1.6609802 3.7724915 3.328949 5.6591873 4.9916992-.8200073.0679475-1.6418075.1289674-2.4627151.185608zm3.2000045-.2492218c-2.0208969-1.774292-4.0479279-3.5424805-6.0696793-5.3167725.7206497-.8548889 1.4404984-1.7106628 2.1603012-2.565567 2.7477264 2.4636078 5.4893188 4.9341888 8.2361526 7.3986816-1.4379042.2004395-2.8810423.3555299-4.3267745.4836579z" fill="#fff"/></g><g><g><path d="m68.896347 99.595726c-.1522675.0618286-.2676773.1878204-.3366165.3512802-.1379395.3264618.0098801.6964722.3366165.8341827.977356.4116974 1.902916 1.0004501 2.7666016 1.6102753 2.7723083 1.956398 4.932457 4.6565781 5.7080841 7.9914093.0852432.3648682.4547882.5976486.8196564.5123978.3648605-.0857086.5831223-.4547882.497879-.8196564-.8730545-3.7071838-3.1821365-6.5862885-6.2795029-8.7529831-.9414291-.6585388-1.9535904-1.2786713-3.0150223-1.7269058-.1634139-.0688476-.3453826-.061821-.4976959 0z" fill="#434c0f"/></g><g><path d="m71.1210327 132.2063293c-.3536224-.024353-.6636887.2458954-.6880417.5999908-.0238876.3540955.2463684.6636963.6004562.6880493 2.2037048.1517487 4.4973373.7414398 6.4546738 1.7414093 1.4468155.7395782 2.7029953 1.7601624 3.4687881 3.2055664.1761093.3306732.5915604.4688416.9222336.2927399.3306732-.1761169.4543228-.591095.2782135-.9222412-1.538147-2.875351-4.6570511-4.3001556-7.6991501-5.0495453-1.0870971-.2679137-2.2177581-.4791564-3.3371734-.5559692z" fill="#434c0f"/></g><g><path d="m86.2406464 122.838829c-.1732941-.007019-.345192.0482483-.4828949.1756439-2.1203308 1.9662476-3.5010986 4.3245087-4.2008591 7.1281967-.1957779.7859344-.3494034 1.6013794-.3803177 2.4149475-.0131149.3545532.2604218.6599426.6145096.6730499.3545609.0135803.660408-.2604065.6735229-.614502.0309143-.8594666.2173233-1.7409515.4538574-2.5615387.677269-2.3489075 1.9657669-4.3779068 3.7615204-6.0303345.2753983-.2543259.2983475-.6908569.0440216-.9662552-.1273956-.1372373-.3095931-.2126463-.4833602-.2192076z" fill="#434c0f"/></g><g><path d="m82.3329926 98.2636719c-.1732941.013588-.3465958.0917969-.4683685.2341843-2.3727951 2.779808-3.6622238 6.2106476-3.9376373 9.8503952-.0796204 1.0547791-.1002274 2.139534.0440292 3.1910324.0487137.3512878.3807907.5896912.7320709.5414505.3512878-.0482407.5896835-.3658066.5414429-.7170868-.1456604-1.047287-.0992966-2.1428146 0-3.1910324.3081894-3.2519302 1.5315857-6.3169708 3.6594162-8.7965546.2435532-.2847748.211235-.7077179-.0735397-.9512711-.1423875-.1217727-.3245851-.1747055-.4974137-.1611175z" fill="#434c0f"/></g></g><g><g><path d="m77.8723068 115.3305588s-.1564331-5.617218 5.6017609-8.4710236c5.7586746-2.8533401 9.6461792-6.0218964 9.5759277-10.4794235-.0702515-4.4579926-8.5319214-4.0200653-10.2447662-.2088928-1.7128449 3.8111648-5.1212082 10.017601-4.9329224 19.1593399z" fill="#5d6a24"/></g></g><g><path d="m160.765274 168.7561188-.0243835.4400635c-.0758209-.010437-.1516571-.0217743-.2274323-.0330963l.0766754-.4331207c.0583802.0087127.1167603.0174254.1751404.0261535z" fill="#fff"/></g><g><g><path d="m119.528183 79.1828003s.4842453 3.6125107 3.2344742 3.4342728c2.7506485-.1777267 4.0695496-4.0625687 1.5994492-3.1211166-2.4696351.9414901-4.8339234-.3131562-4.8339234-.3131562z" fill="#fff"/></g></g><g><g><path d="m111.6626358 51.6376648c10.3731003-6.4956589 24.1910934-1.7406693 29.7605515 4.9048691 0 0-2.0477448-5.3561935-4.7057648-7.1282883 0 0 6.5820618-2.9113731 7.1516113-6.8986969 0 0-6.4556122-.316433-9.7464142 4.6835136 0 0 1.0758514-4.4936333-.6964722-6.7720909-1.7718658-2.2784576-2.278183-2.6582146-2.278183-2.6582146s-2.5502472 3.9596748.3994598 9.6930313c-.6344299-1.2331352-6.2161407-1.0541267-7.2432938-1.0131607-5.0690688.2021752-8.8367384 1.9872323-12.6414946 5.1890374z" fill="#ffd394"/></g></g><g><g><path d="m101.8632965 103.5352325s13.1233978 4.0430069 27.2406769 2.1873093c14.1177673-1.8561707 25.3854523-6.3628769 25.3854523-6.3628769s5.1034241 6.0977707 7.1581726 7.1581802c0 0 .1325684 2.9160995-1.5245667 3.3802567-1.6571045.4636917-3.7778931.5302048-4.8383026 1.7231522-1.0603943 1.1929474-2.3198547 2.5184555-3.7779083 2.0547638-1.4580383-.4641647-1.5245514-.4641647-2.8500671 1.0604019-1.3254852 1.524559-2.3858948 3.1812057-4.3081055 2.3859024 0 0-24.8669586 5.0954514-30.8181381 1.4332275 0 0-5.4940338-1.4500961-7.325386-.8393326-1.8308716.6102982-4.1966324-.2290344-4.5015488-1.7549973-.3053818-1.5259705-1.3737411-1.8313446-2.8233643-2.2130737-1.4496155-.381256-.4435501-5.5474319 2.9830856-10.2129135z" fill="#fff"/></g></g><g><g><path d="m133.7127991 92.6501999s1.7067566.4490356 2.782135 1.9853058c0 0 3.8631592 1.7026825 3.7034454 17.0583496l3.6706543-.1850052s-.5376892 10.8306961-.307251 24.0426178c0 0-10.9843445 2.1507721-13.2887421 1.0753937-2.3044052-1.0753937-2.381218-.8449554-2.381218-.8449554l-5.0219116-23.4594879 13.6671829-.3887558s.9011536-10.1913681-.1747131-13.5838089c-1.736267-5.4738999-2.6495818-5.6996537-2.6495818-5.6996537z" fill="#ffd394"/></g></g><g><g><path d="m119.4184494 93.9480591s-3.9540176 7.4687119-1.2079315 18.7809067l-3.7891541.0548019s-2.3900375-10.6175995 2.6360092-17.5176926z" fill="#ffd394"/></g></g><g><path d="m159.2925262 176.5303802c-4.9733887 3.6104431-10.6038971 6.1751251-10.6038971 6.1751251s-1.9711914.8557892-4.0348206-.4749298c-2.0644684-1.3298645-3.6601105-1.8047791-5.7245941-.8549042-2.0644684.9498901-5.6147919 1.4013062-8.3520508.7598877-4.1629105-.9759979-8.0696487-3.3254395-8.0696487-3.3254395l-9.5720596-6.0801544s19.0491333-10.7363586 25.1493378-15.0125732c0 0 3.3925476-1.2993469 3.1982117-11.4247894.0139618.003479.0270233.0060883.0409698.0095673 1.5346222.3564301 2.9420166.6361694 3.9503174.7424927 2.6039124.2745209 6.6457062-.4793091 7.7420044-2.5341797.0583801-.1098175.1159058-.226593.1716919-.3520813.7084808 1.4927979 1.6592102 3.8387756 1.5999908 5.578186 0 0 6.663147 1.7106628 9.7594452 7.5058441 3.0971222 5.7960511-.2815094 15.6766358-5.2548981 19.2879486z" fill="#381952"/></g><g><g><path d="m117.3063889 190.5578308s4.4247284-1.113327 8.9820251.0590057c4.5572891 1.172821 12.8184891 2.8041687 17.3855972 1.6777191 4.5671387-1.1264343 12.9112396 1.431366 15.8512268 1.3840637 2.9399719-.0473175 3.2987671-1.6594543 2.3545074-2.5802765 0 0 1.4861603-1.8566437.1920319-2.6744232 0 0 1.6271362-1.0791473.450119-2.194809 0 0 .4412079-.6856995-1.5512543-2.0875397-1.9924622-1.4018555-8.219986-2.7840271-13.5978699-1.082428 0 0-2.3484344-1.3699799-5.0738983-2.1320343-2.7250061-.7615814-3.8027344.8426056-5.4996643 1.1381531-1.6973877.2950745-12.0559692-1.7691345-14.4301605-3.4243774z" fill="#b65d4e"/></g></g><g><path d="m111.7824783 171.3565369c-5.1746979-2.1080475-7.778595-4.5324249-7.778595-4.5324249s8.9280853-8.0200348 9.4073868-13.1938629c.4792938-5.1747131-1.6287918-6.9777527-1.6287918-6.9777527l-2.189064 1.0997925s2.4825134 2.6952057.3425369 8.8980255c-.7837219 2.2716522-1.4478531 1.9998474-5.5381699 2.0971222-5.5226669.1313477-21.5528259-1.8596649-26.8234329-.2309265-5.2696686 1.6296234-8.7328568 4.2692719-9.7175827 9.5877686-.8644791 4.6683655 9.1973419 10.7781677 14.8016815 13.7350006.7808228.4113464 1.4744949.761673 2.040947 1.0387726 1.7621002.8627625 5.6653519 2.2936859 10.3572617 3.7211304 7.638298 2.3250122 17.3637543 4.6439819 23.3367157 4.4958191l4.8871307-12.4565735c0-.0000002-6.3241806-5.1738588-11.498024-7.281891z" fill="#381952"/></g><g><path d="m95.0566559 186.5991821c-1.537262.5690308-9.2513885 3.3289795-10.4252167 1.9215393-1.3036957-1.5642395-.1298676-2.0862579-.1298676-2.0862579s-2.282341.1952209-2.21698-1.6949615c0 0-2.1507721-1.3690491-.7172089-2.542923.2396545-.1960754.6169968-.3102417 1.0910645-.3572998.7808228.4113464 1.4744949.761673 2.040947 1.0387726 1.7621002.8627624 5.6653519 2.2936859 10.3572617 3.7211303z" fill="#b65d4e"/></g><g><path d="m84.6671371 140.2098389-4.4914856-.0322418c-.7407379-7.9990997-3.0988998-32.8730698-4.7851334-43.9440536.0000001-.0000001 7.7341691 23.5467528 9.276619 43.9762954z" fill="#434c0f"/></g><g><path d="m78.6005173 88.8231049c-.3479996-.0688477-.6922607.1644058-.7611084.5119324-.4107666 2.0730362-.6369934 4.189621-.8051376 6.2940216-.2866516 3.5872879-.2585449 7.1623993.2341843 10.7285995.0515213.3714218.4046783.6369934.7756271.5854721.3714218-.0515213.6224747-.4046783.5709534-.7756348-.5236435-3.7409058-.5292664-7.4935226-.2196732-11.2555161.1470718-1.7826385.3559647-3.5718231.7025681-5.3277664.0693206-.3479995-.1494142-.6922607-.4974137-.7611083z" fill="#434c0f"/></g><g><path d="m69.3501129 117.0717392c-.3484268-.0665131-.679985.1639252-.7464981.5123978-.0664673.3484726.163887.694603.5123062.7611084 1.1658325.2220078 2.3072205.6201324 3.3957214 1.0828781 3.265976 1.3892059 6.0841904 3.6125793 7.2598114 7.0406113.1222458.3541031.5095901.5466003.8636856.4243546.3540878-.1222458.5465927-.5095901.4243469-.863678-1.3203506-3.8135147-4.3868027-6.2514038-8.0354462-7.7867355-1.1746825-.4941407-2.4186858-.9311372-3.6739272-1.1709367z" fill="#284c34"/></g><g><g><path d="m77.4319763 96.6711807s-4.8795242-8.3417511.636055-15.0943146c5.5160522-6.7525635 10.0213547-10.0845795 10.359993-11.2061081.3390961-1.1213379 3.6097641 9.8468857 1.6388397 14.4542923-1.9709244 4.607399-11.0972061 12.8835831-11.6648788 14.5435028-.5676728 1.6594544-.9700089-2.6973724-.9700089-2.6973724z" fill="#5d6a24"/></g></g><g><g><path d="m80.7510681 100.4653168s4.0654907.0852432 12.1674423-1.1119232c8.1014786-1.1971664 11.2381897-6.6705933 12.7772675-13.7463379 0 0-6.6626358-2.4973679-14.0709152 1.4838104-7.4078217 3.9811859-10.0747452 9.5759277-10.8737946 13.3744507z" fill="#a4b17c"/></g></g><g><g><path d="m75.9760437 98.3758621s-3.5933685-.8557205-7.6887512-7.0682526c-4.0956039-6.2125168-4.5987816-10.0091705-4.0996857-17.1893539.4991074-7.1804276 1.0079956-7.2556458 1.0079956-7.2556458s13.463768 2.7484665 15.2660675 14.5576019c0 .0000001-.8266754 9.6550828-4.4856262 16.9556504z" fill="#a4b17c"/></g></g><g><g><path d="m73.4722824 102.1661682s-4.3287735-11.3285828-12.2096024-13.2924805c-7.8808289-1.9634247-15.0680885-.1442566-15.0680885-.1442566s1.4481659 9.6597672 9.6496468 11.4133606c8.2015304 1.7531281 15.0107574-.497879 17.6280441 2.0233765z" fill="#5d6a24"/></g></g><g><g><path d="m71.6427383 119.6366653s-4.7471085-10.6511383-14.1072845-11.5175171c-9.3601761-.8663635-15.3869591-.5434952-21.3323822 2.9627457 0 0 5.393898 5.3857193 10.0153236 9.7162247 4.6214714 4.3305283 18.7505684 5.1859283 25.4243431-1.1614533z" fill="#a4b17c"/></g></g><g><g><path d="m83.5343781 126.5596008s-.6636887-8.4143524 6.3413239-11.6859512c7.0045471-3.2715988 15.2217255-.7550201 15.2217255-.7550201s-.1723709 9.295372-3.8622208 12.6578369c-3.6903306 3.3619919-11.4171144 5.0584488-17.7008286-.2168656z" fill="#a4b17c"/></g></g><g><g><path d="m80.0665436 124.6538162s1.3204651-9.7236862-1.5783539-13.8360214c-2.8992767-4.112236-11.8706818-4.8333588-11.8706818-4.8333588s-.5641022 9.7386627 2.566246 14.0034561c3.1299821 4.2653428 8.5322877 4.8229752 10.8827897 4.6659241z" fill="#5d6a24"/></g></g><g><g><path d="m74.8928146 133.8135071s-5.531456-9.7694168-14.734024-7.6314926c-9.2024498 2.1373825-13.5079918 11.8428116-15.3885727 18.1897354 0 0 4.23452-.5784149 9.8642502.5990295 5.6295128 1.1779328 20.5363235 1.1129761 20.2583465-11.1572723z" fill="#a4b17c"/></g></g><g><g><g><g><path d="m119.9208908 121.6824265s-.0273209-4.0710754 4.3729858-6.5537567c4.400322-2.483139 5.1371536-2.3758316 5.1371536-2.3758316s-.0758057 4.6838531-2.1532516 6.5465317c-2.0769729 1.862213-7.3568878 2.3830566-7.3568878 2.3830566z" fill="#5d6a24"/></g></g><g><g><path d="m119.5187225 121.4064255s-2.8480148-7.2853775-9.3931274-8.6878281c0 0-.40242 4.4183731 2.6602249 6.8361893 3.0626602 2.4173431 6.7329025 1.8516388 6.7329025 1.8516388z" fill="#5d6a24"/></g></g><g><g><path d="m119.5898285 120.5202789s-.5153046-5.4442215 4.2371445-8.6142502l1.9618454-.8796082s1.0826187 4.4768448-1.6440506 7.3036728c-2.7262192 2.8272935-4.5549393 2.1901856-4.5549393 2.1901856z" fill="#434c0f"/></g></g><g><g><path d="m119.6205368 122.0425262s-.5219955-.2383194-1.2111053-.7746964c-1.457222-1.1340103-3.6615524-3.6002274-3.2631683-7.9685974l1.0390701-3.9943619s4.4778671 3.7687912 4.4927216 8.2096634z" fill="#434c0f"/></g></g><g><g><path d="m119.6260757 121.8782196s-3.7794113-7.4044037 2.0360565-11.6075821c0 0 2.4644012 2.508728 1.2720947 6.1689377-1.1922835 3.6597443-3.3081512 5.4386444-3.3081512 5.4386444z" fill="#a4b17c"/></g></g><g><g><path d="m118.3741074 121.576889s-5.3945618-2.7480698-5.2708359-9.3732452c0 0 3.793869-.0860672 5.6141434 5.1078644 1.8202896 5.1933136-.3433075 4.2653808-.3433075 4.2653808z" fill="#a4b17c"/></g></g><g><g><path d="m119.6417999 122.413002s.3601456-3.3587952 4.6694641-4.3650436c4.3097687-1.0057678 7.0228882-.9968262 7.0228882-.9968262s-2.3015594 4.8563004-4.6387329 5.8872833c-2.3367233 1.0314789-7.0536194-.5254135-7.0536194-.5254135z" fill="#a4b17c"/></g></g><g><g><path d="m107.3404465 116.57164s2.4131622 7.6873474 11.2072983 6.5857162l1.1393967-.8660812c-.0000001 0-.8980485-6.0738525-12.346695-5.719635z" fill="#a4b17c"/></g></g></g><g><g><path d="m120.0962219 139.7082367s11.2583313.3287964 12.696701-13.6826324l-.123642-4.4378586-13.1074753-.041214-13.3126221-.0819626-.1643982 4.9305878c.0000002 0 .205147 13.6418762 14.0114366 13.3130798z" fill="#6767a4"/></g></g><g><g><path d="m119.3061905 128.0484009c.039444.0372162.0920181.0571442.1463013.0554047.0541916-.0017395.1054611-.0250549.1424103-.064743l3.5692139-3.8334274c.076622-.082283.0720215-.2111053-.0102692-.2877197-.082283-.0766068-.2111053-.0720444-.2877197.0102692l-3.4295654 3.6834335-3.9485779-3.7258072c-.0393295-.0371246-.0895462-.0555115-.1396713-.0555115-.0540848 0-.1080704.0214233-.1481094.063858-.0771637.0817795-.0734253.2106323.0083542.2877884z" fill="#fff"/></g><g><path d="m110.0008087 128.3887329c.0822983.0766144.2111053.0720367.2877197-.0102692l3.4295654-3.6834335 3.9485779 3.7258072c.0817795.077179.2106323.07341.2877808-.0083466.0771713-.0817719.0734253-.2106323-.0083542-.287796l-4.0976334-3.8664474c-.0378418-.0357056-.0878448-.0555115-.1397095-.0555115-.0021896 0-.0043869.0000305-.0065842.0001068-.0541992.0017471-.1054688.0250549-.1424179.0647507l-3.5692139 3.8334198c-.0766219.0822906-.072029.2111053.0102693.2877197z" fill="#fff"/></g><g><path d="m106.7919998 126.0507736c.0818863-.1108398.163765-.2200928.2458801-.327774l2.0016556 1.8885574 3.4294205-3.6834641c.0766907-.0821075.2053986-.0868607.287735-.01017.0823364.076683.0868607.2053909.0104065.2877274l-3.5692215 3.8334274c-.0371017.0395813-.0882263.0628815-.1425095.064682-.0540619.0020447-.1067657-.0180817-.1463547-.0554047z" fill="#fff"/></g><g><path d="m106.1882706 126.8899765c.0791702-.113327.1583405-.2252884.2372818-.335907l1.6646118 1.5707321c.0816574.0771484.0855103.2058563.0083694.2877197-.0773544.081665-.2060623.0855103-.2879486.0083771z" fill="#fff"/></g><g><path d="m130.5270386 127.9148712 1.4128418-1.5175781c.0744171.1194382.1474915.2402267.2189636.3623734l-1.3336792 1.4325333c-.0766754.0823364-.2056122.086853-.287735.0104065-.0823212-.0766908-.0870819-.2056123-.0103912-.2877351z" fill="#fff"/></g><g><path d="m125.3395615 123.7080002c.0400391-.0425339.0941086-.0640106.1481628-.0640106.0502167 0 .1004333.0185394.1395645.0556412l3.9485626 3.7257538 1.7763672-1.9077759c.0807495.1124115.160141.2261963.2381897.3415527l-1.8562164 1.9937363c-.0368652.0395889-.0882111.0628815-.1422729.0646973-.0542908.002037-.1069946-.0180969-.146347-.0554123l-4.0976334-3.8664551c-.0816651-.0771409-.0855103-.20607-.0083771-.2877274z" fill="#fff"/></g><g><path d="m120.6812973 128.2025299c.0822678.0766144.2110977.0720062.2877197-.0102844l3.4295731-3.6834335 3.9485626 3.7258072c.0817719.077179.2106323.07341.287796-.0083466.0771637-.0817871.07341-.2106323-.0083618-.287796l-4.0976334-3.8664551c-.0378342-.0357056-.0878448-.0555115-.1397018-.0555115-.0021973 0-.0043945.0000381-.0065918.0001144-.0541992.0017471-.1054611.0250473-.1424103.064743l-3.5692291 3.8334351c-.0766144.0822831-.0720138.2110978.0102768.2877274z" fill="#fff"/></g></g></g><g><g><path d="m137.54776 67.506073c-.5160217.165451-1.01297.3810349-1.4973755.6220016-.1595612.0816498-.3171997.166893-.468338.2640686-.1238861.0796432-.1630096.2325058-.0873871.341423.066452.0956955.1994629.1255341.3147888.0774002.6586151-.2930908 1.2709351-.6810532 1.843277-1.111557.1051941-.0825271.022049-.2333907-.1049652-.1933364z" fill="#381952"/></g><g><path d="m126.3379745 69.4958649c1.0898209-1.8084335 3.1772995-2.5291519 5.2108536-2.3270874 1.7319183.1506653 3.2944489.9741745 4.4122009 2.1334686.1572266.1663666.3143921.3423615.4322357.5181351.0610504.0997925.1930695.1358337.3108368.0911179.4015961-.1520538.7940063-.3279572 1.1837616-.5109329.3876648-.1839218.7731323-.3736038 1.1500854-.5855255.0430145-.0241776.0596313-.074646.0371094-.1127396-.0182648-.0309296-.0568542-.0441284-.093689-.0350571-.4184875.1034546-.8284607.2291489-1.2362213.360611-.407135.1331177-.8116302.2731171-1.207016.4369278l.3152466.0893784c-.1362762-.2274933-.2879639-.4198837-.4537659-.6081009-1.1561279-1.3021545-2.8678284-2.1926346-4.7512207-2.3235474-1.0749969-.0744476-2.2148132.0572586-3.2251129.53759-1.0142136.4795456-1.8466339 1.3414917-2.1518555 2.3184586-.0055389.0177765.005127.0351791.0238495.0388794.0179979.0034636.0349428-.0063172.0427018-.021576z" fill="#381952"/></g></g><g><g><path d="m108.7013702 67.3883743c.4950562.178093.9735336.4048157 1.4408646.6560822.154007.0849991.3062897.1734695.4527664.2734528.120079.081955.1618729.2332077.0933609.3378296-.0601883.0919266-.1856079.1171799-.2965851.0664215-.6343536-.307724-1.2276154-.7071838-1.7842255-1.1471786-.102394-.084221-.0280151-.2297898.0938187-.1866075z" fill="#381952"/></g><g><path d="m119.4071045 69.6821976c-1.0898666-1.8083954-3.0941315-2.5793228-5.0191345-2.4427261-1.6401291.0952988-3.0989685.8562546-4.1252213 1.9603653-.1442413.1585388-.2881546.3265305-.3947296.4955063-.0549393.0961075-.1792145.1274796-.2924042.0800095-.385994-.1614685-.7639923-.3460693-1.1396866-.5375366-.3737335-.1923218-.7455444-.3902359-1.1099548-.6097183-.0415726-.0250473-.0588837-.0750961-.0386581-.1118088.0164108-.0298004.0526428-.0415955.0879059-.0315704.4005585.1142731.7937012.2501221 1.1849289.3915634.3906631.1430359.7790527.2927551 1.1594925.4655762l-.2966537.0781631c.1225052-.2191772.260704-.4034424.4124451-.583168 1.0583649-1.243187 2.6568146-2.0653534 4.441391-2.1366577 1.0186005-.0404358 2.1050186.1234818 3.0790405.6257019.9776993.501564 1.7943802 1.3730011 2.1139145 2.3413391.0057983.0176163-.0038071.0343781-.0214691.0374451-.0169908.0028456-.0333787-.007271-.0412065-.022484z" fill="#381952"/></g></g><g><path d="m121.3403168 69.3922958c-.0433044-.8547134.4355774 3.8721313-1.0924683 5.428154 0 0 1.0143204 1.4807358 3.5413055.9273758 0 0-2.6567612 1.0222626-4.0127563-.2415161-.52845-.4920502-.7948761-.811676-.0370407-1.3862152 1.2080917-.9160004 1.6439514-3.872963 1.6009598-4.7277985z" fill="#381952"/></g><g><path d="m129.0867767 62.1338615c-.0943451.5903511 1.3626556.501667 3.3615265.8682747s5.611084 2.1348343 5.7054291 1.544487c.0943604-.5903549-2.9921112-2.6001282-4.9490356-3.1601257-3.0152588-.862854-4.0235596.1570129-4.11792.747364z" fill="#381952"/></g><g><path d="m117.982605 62.2259216c.0863342.5902596-1.376442.4553909-3.3902512.7560654-2.0138016.3006744-5.6688538 1.9439163-5.7551956 1.3536606-.0863419-.5902596 3.0438843-2.4906082 5.0183182-2.9849968 3.0422287-.7617569 4.0407867.2850113 4.1271286.8752708z" fill="#381952"/></g><g><path d="m139.3048248 157.6537781c-4.0348663 2.6274261-20.4713593 14.0744476-25.1633072 16.3271484 0 0-9.0440903-5.3466339-14.0192413-7.5799408 0 0 5.3765793-1.4997253 8.6610947-5.0657196 3.2845078-3.5659943 3.9646835-10.437912 2.7446518-14.1912537 0 0 .1185455-.2649231.3816833-.7058868 1.2828064-.8488007 2.1908493-1.5860443 2.1908493-1.5860443 2.4671021-1.3699341 4.721962-5.1729584 4.721962-5.1729584 2.5350571 2.7407227 8.7751846 3.5293884 8.7751846 3.5293884s3.3576965.3424988 6.5776978 1.2331238c1.9738922.5455322 4.7189789 1.2975769 7.1485748 1.8605347.4644928 3.1694946.9490357 9.4187012-2.0191498 11.3516083z" fill="#ffd394"/></g><g><path d="m141.2264709 81.5168839c-.389679.3743668-.8446655.3827286-1.2111359-.037941-1.5231934-1.8408966-1.0773315-8.4723587.638382-9.5312576.3518372-.2006607.724762-.063118 1.0309143.3252411.0119171-.0360947.0255127-.0708389.0413971-.1031113.0259399-.0526428.0505066-.1039505.0745697-.1538467-.0738068-.1203766-.1530151-.2312927-.2384033-.3304672-.7955933-.8821869-1.7086792-.0876694-2.232254 1.182251-.4157867.9789963-.651535 2.1895065-.7369843 3.4240189-.0793152 1.2381058-.0098114 2.5183182.2637787 3.6641846.3401031 1.4772034 1.1181793 2.678299 2.0041199 2.2033615 1.0702972-.6219177 1.6077118-2.9506607 1.7396698-4.9007568-.1171265 1.6773451-.5545654 3.4599149-1.374054 4.2583235z" fill="#ffd394"/></g><g><path d="m108.1932755 81.3425903c.3896866.3743668.8446655.3827286 1.2111435-.037941 1.5231857-1.8408966 1.0773315-8.4723587-.6383896-9.5312576-.3518295-.2006607-.724762-.063118-1.030899.3252411-.0119247-.0360947-.0255203-.0708313-.0414047-.1031036-.0259399-.0526505-.0505066-.1039581-.0745773-.1538467.0738144-.1203842.1530228-.2313004.2384109-.3304749.7955856-.8821869 1.7086716-.0876617 2.232254 1.1822586.4157791.9789963.651535 2.1894989.7369766 3.4240112.0793228 1.2381058.0098114 2.5183258-.2637711 3.6641846-.3401108 1.4772034-1.1181793 2.6783066-2.0041199 2.2033691-1.0703049-.6219254-1.6077194-2.9506683-1.7396774-4.9007568.1171265 1.6773376.5545654 3.4599075 1.374054 4.258316z" fill="#ffd394"/></g><g><g><path d="m67.8471909 119.0620956c-8.7133484-6.2930832-18.5073204-6.012352-28.5322266-8.0355377 9.8448448.4423447 21.0724144.6584854 28.5322266 8.0355377z" fill="#5d6a24"/></g><g><path d="m66.4685211 67.7613831c6.4212494 7.874939 9.7065277 18.3829117 8.8992462 28.5131302-.6850662-10.0717393-3.7288208-19.8418732-8.8992462-28.5131302z" fill="#5d6a24"/></g><g><path d="m102.9666443 86.9630737c-7.8649521 2.1760025-14.6757889 6.255394-20.0626526 12.4130859 4.113533-7.0498733 11.9617691-11.7617645 20.0626526-12.4130859z" fill="#5d6a24"/></g><g><path d="m84.6013947 125.7765579c1.9434357-5.4260025 6.4184265-8.4428253 11.8859711-9.6372833 1.7207794-.387413 3.4672241-.609642 5.2205658-.6572571-3.3223877.9377518-6.6891937 1.7820511-9.7444763 3.3663864-3.1881944 1.6062165-5.3988877 3.9900971-7.3620606 6.928154z" fill="#5d6a24"/></g><g><path d="m48.6842651 141.083374c4.2379799-6.0171356 14.7743988-8.1916656 21.7474365-7.723877.8181686.0646515 1.6379242.1667328 2.436615.3523102-.8145447-.015152-1.6273727.0073395-2.4397812.0572205-6.9182891.504837-16.6366424 2.3827515-21.7442703 7.3143463z" fill="#5d6a24"/></g></g><g><path d="m91.0439529 163.0156097c5.8474121 1.0774078 11.3435059 3.6174011 16.5317535 6.4492188 5.1860428 2.8747101 10.1194077 6.1362915 14.9204941 9.6092987-10.5247039-5.3086548-20.2975082-12.062973-31.4522476-16.0585175z" fill="#6767a4"/></g><g><path d="m116.7236404 172.9628448c.3050385-.3910675.6914978-.7124786 1.0550995-1.0473785.371315-.3276825.7426605-.6557465 1.1236267-.9710999.7589569-.6340637 1.5258713-1.2584839 2.3032379-1.8695221 3.9009399-3.0336151 7.9156876-5.9372101 12.1503677-8.4934692 5.3751373-3.3406067 15.0815277-9.9746704 21.3626709-9.9460144.989151.0157776 2.0374603.2522888 2.7940369.9169006-.8110352-.5722809-1.8230896-.7066956-2.7894287-.6501617-.9697876.0606689-1.9213562.2917023-2.8470917.5821533-1.8578491.5995026-3.6287842 1.4472198-5.355835 2.3559113-4.7749634 2.515976-9.1884766 5.6937256-13.786438 8.5411682-4.7374115 3.0635529-10.079361 6.6250763-14.8134155 9.7167053-.2656402.1875153-.9458007.6183167-1.1968307.8648071z" fill="#6767a4"/></g><g><path d="m154.7051239 167.020462c-5.9241943 5.6822662-13.0821686 9.95224-20.8843384 12.4963684-1.1056671.3699951-2.2194214.7147064-3.3483124 1.016098 4.1237183-2.136734 8.3487091-4.0128632 12.3941193-6.2653809 4.0628052-2.2227935 7.8791351-4.820114 11.8385315-7.2470855z" fill="#6767a4"/></g><g><path d="m129.9011078 131.2042847c.2995148-1.0127411-2.3913193-1.3343658-2.021759.888855.2202911 1.3251648-.368454 2.892868-.8800964 3.9434357-2.5394745 1.4205627-6.3079681 3.0938721-9.6531601 2.8552399-5.8904114-.4201965-8.813446-5.3036652-10.0568008-8.2788696-.1570587-.3757935-.7192078-.2445831-.6920624.1618195.2425842 3.634552 1.3787994 9.3065491 4.7437363 10.9329224 3.6618118 1.7698364 6.005127-1.1337585 6.005127-1.1337585s2.3619537 4.447937 9.1572647 1.5787201c2.738327-1.1562042 3.6165009-3.8083801 3.725769-5.792099.0268097-.1083679.0446777-.2151489.0495758-.318924.0673217-1.4246828-.6771699-3.8246157-.3775941-4.8373415z" fill="#c96a5d"/></g><g><path d="m162.5543976 137.1004791c2.7187958.4210205 5.4788208.329483 8.2088318.1006165 2.0467987-.1788635 4.0947266-.5096588 6.1184845-.8521423.6795502-.1223145 1.3568115-.2609863 2.0490723-.3587036-.6429138.2650757-1.2970886.5039215-1.9557495.7323151-1.3291473.4139404-2.6858673.7706909-4.0623932.9878998-.3006439.0444031-.7380829.1261444-1.0359192.1597595-3.0487061.3527526-6.4336701.3809356-9.3223267-.769745z" fill="#ff7061"/></g><g><path d="m186.8966064 143.3864288c1.2153778-.111557 2.8088074.3175354 3.7595673 1.0823059-1.2099609.2635041-2.8860626-.1961212-3.7595673-1.0823059z" fill="#ff7061"/></g></g></svg>