<svg id="Слой_1" enable-background="new 0 0 230.3999939 230.3999939" height="512" viewBox="0 0 230.3999939 230.3999939" width="512" xmlns="http://www.w3.org/2000/svg"><path d="m97.6571274 202.6221008s22.6075668 7.1541748 39.6795425-.9112244" fill="none" stroke="#fff" stroke-linecap="round" stroke-linejoin="round" stroke-width=".928"/><g><g><path d="m119.2214203 56.3930702s6.4688492-14.803196 25.7504272-21.6450119c0 0-18.1623993 12.6884079-22.5160065 22.7645607z" fill="#a4b17c"/></g><g><path d="m58.1975594 52.3218803c-3.7073746.0241547-6.0913162.4779816-6.0913162.4779816 31.5188637-1.9932556 43.0156364 28.9675179 43.0156364 28.9675179h1.2595291c-.0298462-.2410889-.2298813-11.9394913-13.5033493-21.8648338-8.6428528-6.462513-18.5014191-7.6207696-24.6805-7.5806657z" fill="#a4b17c"/></g><g><path d="m98.8911896 66.7331924s1.1275711-33.1469994-12.5142822-48.4804001c0 0 12.5142822 7.89217 15.6712952 38.8970566l-.5633087 15.1078873z" fill="#a4b17c"/></g><g><path d="m116.6982803 171.130249s-5.1377869-8.3774872-4.5498886-19.5443726l-.7396088-.4386139s-2.155098 11.2651367 0 20.2769165z" fill="#d59970"/></g><g><path d="m113.7286377 171.2161102s-8.6799393-20.9065857-8.8029327-49.0264816c-.1222229-28.1198959-2.0235901-41.2867126-2.0235901-41.2867126l-1.2291641.3734055s-2.4931335 24.1637421-2.7375793 40.5466461c-.2444305 16.3828888.488884 37.0450592 5.6236801 50.0042572z" fill="#d59970"/></g><g><path d="m103.3940887 97.710022s5.4411163-1.3157883 6.2989731-17.9609985l-.7750931-.0891953s-1.9524231 10.3348618-5.3096085 12.8349686z" fill="#d59970"/></g><g><path d="m101.6729507 93.138382s-5.3922577-1.7410583-5.4634171-12.5282898l-1.1998749-.8046722s-.9808731 14.4754868 5.3057251 17.7615051z" fill="#d59970"/></g><g><path d="m109.0249939 83.159935s20.91745-49.8502731 58.6244659-37.2278938c0 0-44.2430115-15.6581516-59.5813599 36.9083672z" fill="#5d6a24"/></g><g><path d="m101.7525635 85.6156921s-7.5936356-49.7239914 24.779541-67.1914825c0 0-27.3443298 20.6116352-23.2686539 66.9586029z" fill="#a4b17c"/></g><g><path d="m108.1940155 82.9882355s-2.3064423-21.8925362 11.5508575-43.9015579c13.8572845-22.0089321 25.2691803-25.8518181 25.2691803-25.8518181s-25.7345734 22.7076683-28.996048 50.8885002z" fill="#5d6a24"/></g><g><path d="m110.7074966 74.8366928s2.0965958-22.2418098 19.0978622-37.8460503 25.2691803-13.8575783 25.2691803-13.8575783-20.0286407 5.2402744-31.557106 31.5578575z" fill="#5d6a24"/></g><g><path d="m102.9776764 85.0334473s4.1922684-31.2084885 16.6524506-36.5651588c0 0-12.576767.4657669-18.1661377 24.6873131z" fill="#5d6a24"/></g><g><path d="m101.5669632 84.1912613s-17.5188675-47.4452133-46.2659798-44.1754799c8.0784836-.9188576 16.6414909.315136 24.0691032 3.848526 8.3773956 3.9852066 14.03022 10.8268356 18.6089172 18.721447 2.2102661 3.8109512 4.0805893 7.8335876 5.415947 12.0358734z" fill="#5d6a24"/></g><g><path d="m94.9641037 81.1804886s-2.710289-26.1035347-44.4251556-18.3376503c0 0 8.5444603-5.678524 25.5763168-3.2864647 17.0310898 2.3920593 19.3140488 15.5408325 19.6013031 19.2723618.2863235 3.7316207-.7524643 2.3517532-.7524643 2.3517532z" fill="#5d6a24"/></g><g><path d="m69.8760147 22.2273693c27.4072876 12.8315716 32.0164413 57.3083878 32.0164413 57.3083878l-.0121231.0028915c.0223846.079834.0419617.1552811.0671463.2419281l2.031311-.1108017-.4663239-7.9829102-1.7431259-6.9773407c-8.3462752-36.501543-31.8933257-42.4821548-31.8933257-42.4821548z" fill="#5d6a24"/></g><g><path d="m100.7835388 71.0202026c-.1790771-1.2579498-3.6606522-37.5662613 15.2805176-61.6936989 0 0-14.6000671 34.42313-12.55159 62.360363 0 .0000001-2.5489349.5913926-2.7289276-.6666641z" fill="#5d6a24"/></g><g><path d="m108.7162781 165.1220551s-25.7395782-1.0788269-34.5850754-1.5212555c0 0-.9727554 7.8899689.1767883 10.2779083 1.150444 2.3888092 2.4767685 2.3888092 2.4767685 2.3888092s6.7222824 36.7073975 6.634346 39.0962219c-.0888367 2.3879395 12.2950287 5.8800812 26.0052185 5.7033081 13.7101898-.1767883 21.1405106-3.4033051 23.52845-5.1729431 2.3879242-1.7687378 6.9878998-41.2194214 6.9878998-41.2194214s1.103302-.5965424 2.5184784-2.2764282c1.4151611-1.6808014.8422089-7.1873627.9310608-8.7802124.0888367-1.5919495-7.3414917.7959595-34.6739349 1.5040131z" fill="#6767a4"/></g><g><path d="m106.2601395 182.5024719c-15.8087845 0-27.9744034-1.9222565-28.1722794-1.9542694-.3014603-.0488892-.5063171-.3334808-.457428-.6349335.0488815-.3026276.3352127-.5063171.6343536-.4580231.3212509.0529633 32.4311752 5.1219788 60.121582-1.3315582.2991333-.0739136.5959473.1158142.6646118.413208.0698395.2979736-.1152344.5953522-.4131927.6646118-10.8363952 2.5257722-22.3420562 3.3009644-32.3776473 3.3009644z" fill="#fff"/></g><g><g><path d="m102.3294754 214.388916c-.2537384 0-.4748917-.1722565-.5365753-.4184265l-6.8393784-27.2131958c-.0744934-.2967987.1059189-.5971069.4015579-.6716003.3003006-.0756531.5971069.1059265.6716003.4015656l6.7334595 26.7912598 11.7046967-.098938 6.3202591-27.2120209c.0698318-.2962341.3550034-.4836273.6646118-.4137878.2968063.0692596.4818802.3666382.413208.664032l-6.4191971 27.6362915c-.058197.2490845-.278183.4259949-.534256.4283295l-12.575325.1064911c-.0011672-.0000002-.0034942-.0000002-.0046615-.0000002z" fill="#fff"/></g><g><path d="m112.4849548 210.2592163c-.0011673 0-.002327 0-.0034943 0l-7.2607269-.052948c-.2525787-.0017548-.4725647-.1745911-.5330887-.4190216l-5.6824112-22.7197571c-.0744934-.2967987.1059189-.5971069.4027252-.6710205.2909927-.0750732.5959473.1059265.6704407.4021454l5.5788193 22.3042297 6.3865967.0465546 5.1097488-22.4456482c.0686722-.2979584.3619919-.4824524.6634521-.416687.2979736.0680847.4842072.3643188.4166946.6622925l-5.2086792 22.8792114c-.0582045.2519836-.2816771.4306488-.5400771.4306488z" fill="#fff"/></g><g><path d="m107.5381622 205.4940033c-.2665482 0-.495842-.1903076-.5435638-.4533539l-3.2613907-17.6903229c-.0558701-.300293.1431656-.5889587.4434586-.6442413.2956467-.058197.5877991.1419983.6436691.444046l3.1764221 17.2288055 2.0264435-.0366669 3.181076-17.154892c.0547028-.3008881.3410339-.4981689.6448288-.4434662.3003006.0558777.4981689.3445282.4422989.6448364l-3.2625504 17.5995178c-.0477219.2589874-.2712021.4475403-.5330963.452774l-2.9471207.0529633c-.0034942.0000002-.0069808.0000002-.0104751.0000002z" fill="#fff"/></g><g><path d="m109.012886 198.6680145c-.3037872 0-.551712-.24617-.5528717-.5505524l-.0535431-10.7584076c-.002327-.3055267.2444305-.5546112.5505447-.556366h.002327c.3037949 0 .5517197.2461853.5528793.5505524l.0535431 10.7584076c.002327.3055267-.2444305.5546265-.5505524.556366.0000001 0-.0011596 0-.0023269 0z" fill="#fff"/></g></g><g><g><path d="m96.2746048 214.4040527c-.2525787 0-.4807129-.1740112-.5389099-.4306641l-6.1328583-26.8913422-10.0146408-1.5189667c-.3026276-.0459747-.5098114-.327652-.4644165-.6302795.0465546-.3020477.3305588-.5045624.6296997-.4638367l10.3871002 1.5754089c.2246399.0343475.4062195.2025299.4562683.4242706l6.2166672 27.2591553c.0686722.2979736-.1175613.5941925-.415535.6622925-.0419006.009308-.0826416.0139619-.1233749.0139619z" fill="#fff"/></g><g><path d="m91.4721375 213.7633057c-.2560654 0-.4865265-.1786652-.5412369-.4393921l-4.743103-22.4532166-6.0653458-.8199921c-.3026276-.040741-.514473-.3195038-.473732-.6221313.040741-.3043823.3270721-.512146.6227188-.4743195l6.4517822.8723907c.2316208.0314178.4190216.2048492.4667435.4341431l4.82341 22.8349915c.0628586.2985535-.1280289.592453-.4271698.655304-.0384063.0081482-.0768203.0122223-.114067.0122223z" fill="#fff"/></g><g><path d="m87.1841431 212.5562897c-.2618866 0-.4946823-.1874084-.5435638-.4551086l-3.1554718-17.4703369-2.275528-.4422913c-.2991333-.058197-.495842-.3486023-.437645-.6483307.060524-.3014526.3561707-.4900208.6494827-.4376373l2.6468277.5144653c.2234802.0436401.3980713.219986.4388123.4446259l3.2229767 17.8427887c.0535431.3008881-.1454926.5883789-.4469528.6430817-.0325928.0058287-.0663453.0087432-.098938.0087432z" fill="#fff"/></g></g><g><g><path d="m120.1612167 213.4891968c-.040741 0-.0814819-.0046692-.1233826-.0139771-.2979736-.0680847-.4841995-.3643188-.4155273-.6622925l6.2154999-27.2585754c.0500488-.2217255.2316284-.3899231.4562683-.4242554l10.3871078-1.5759888c.2967987-.0424805.5831299.1617889.6296997.4638367.0453796.3026276-.1618042.5843048-.4644318.6302795l-10.0146332 1.5195312-6.131691 26.8907776c-.0581969.2566529-.286331.4306642-.5389098.4306642z" fill="#fff"/></g><g><path d="m124.9625168 212.8484344c-.0372467 0-.0756607-.0040741-.1140671-.0122223-.2991409-.062851-.4900284-.3567505-.4271698-.655304l4.82341-22.8349762c.0477295-.2293091.2351227-.4027252.4667511-.4341583l6.4517822-.8717957c.2991333-.0378265.5819702.170517.6227112.4743042.040741.3026276-.1710968.5813904-.4737244.6221313l-6.0653534.8194275-4.743103 22.4532013c-.0547103.2607271-.2851714.4393922-.5412368.4393922z" fill="#fff"/></g><g><path d="m129.2516785 211.6419983c-.0337524 0-.0663452-.0029144-.098938-.008728-.3014679-.0547028-.5005035-.3422089-.4469604-.6430817l3.2229767-17.8433838c.040741-.2246399.215332-.4015656.4388123-.4446259l2.6468353-.5138855c.2979736-.0570374.5912781.1367645.6494751.4376526.058197.2997131-.138504.5901184-.4376373.6483154l-2.275528.4417267-3.1554718 17.4709015c-.0488893.2677155-.2816773.4551087-.5435639.4551087z" fill="#fff"/></g></g><g><path d="m105.2829666 162.7596893c-1.8742981 0-3.3834839-.4626007-3.4778748-.492157-.2800522-.0876465-.4356384-.3848267-.3485107-.6648712.0881653-.2800598.3879242-.4320221.6659088-.3490448.0311203.010376 3.2154465.9812317 5.8624878.0088196.2727966-.1011353.5798187.0399323.6814651.3153229.1006165.2753906-.040451.5803375-.3163605.6814728-1.0216826.375473-2.0941848.5004577-3.0671157.5004577z" fill="#a57555"/></g><g><path d="m103.9262543 158.9571686c-1.5361557 0-2.7601013-.4257812-2.8389282-.4537964-.2759094-.098526-.4200821-.401413-.3215485-.6778259.0975037-.2759094.3993378-.4221649.6773224-.3231049.0248871.0088196 2.6480713.9127655 4.7920532-.0669098.2644958-.1213531.5798187-.0067291.7032471.2613983.1223907.2670746.005188.5818787-.2613831.7042847-.9158859.4200745-1.8836288.555954-2.7507629.555954z" fill="#a57555"/></g><g><path d="m103.5601044 155.4118805c-1.5361557 0-2.7611313-.4257812-2.8399658-.4537964-.2759018-.0985413-.4200821-.401413-.3215408-.6778412.097496-.2758942.4003754-.4226685.6773148-.3230896.0248947.0088196 2.6501541.9127655 4.7930908-.0669098.2644958-.1208344.5808563-.0067444.7032471.2613831.1223984.266571.005188.5818939-.2613831.7042999-.9158784.4200745-1.8836289.555954-2.750763.555954z" fill="#a57555"/></g><g><path d="m103.0383759 151.5901642c-1.5361557 0-2.7611389-.4257812-2.8399658-.4537964-.2759094-.098526-.4200821-.401413-.3215485-.6778259.0975037-.2759094.4003754-.4211273.6773224-.3231049.0248871.0083008 2.6491089.9148407 4.7930908-.066391.2624207-.1218719.5808563-.0062256.7032471.2613831.1223907.2670898.005188.5818939-.2613831.7042999-.9158859.4195557-1.8825913.5554352-2.7507629.5554352z" fill="#a57555"/></g><g><path d="m102.717865 147.663681c-1.5361557 0-2.7611313-.4257812-2.8399658-.4537811-.2759094-.0985413-.4200821-.401413-.3215408-.6778412.0964584-.2753906.3993378-.4216461.6773148-.3231049.0248947.0088196 2.6501541.9127808 4.7930908-.0668945.2634583-.1208496.5808563-.0067444.7032471.2613831.1223984.266571.005188.5818939-.2613831.7042847-.915886.4200897-1.8836289.5559539-2.750763.5559539z" fill="#a57555"/></g><g><path d="m101.9430466 137.3944855c-1.347374 0-2.4229965-.4413452-2.4914551-.4703979-.2707214-.1130524-.3972626-.4237061-.2842026-.6939087.11306-.2696838.4231949-.3972626.6939163-.2857666.0217819.0083008 2.2031021.894104 3.968483-.050293.2561951-.1374359.5798187-.0420074.718811.2178192.1389847.2582703.0414886.5803375-.2167892.7187958-.7955627.4257965-1.6346893.5637512-2.3887634.5637512z" fill="#a57555"/></g><g><path d="m101.9575653 142.1346741c-1.347374 0-2.4229889-.4413452-2.492485-.4703827-.2696838-.1130676-.3972626-.4237213-.2842102-.693924.11306-.269165.4221573-.3983002.6939163-.2857513.0217819.0083008 2.2031021.8951416 3.9695206-.0503082.2572403-.1374359.5798187-.0420074.718811.2178192.1389923.2582703.0414886.5803375-.2167816.718811-.7955628.4257813-1.634697.563736-2.3887711.563736z" fill="#a57555"/></g><g><path d="m101.1785965 132.4473572c-.9148407 0-1.6409149-.2333832-1.6875916-.2484131-.277977-.0917969-.4294128-.391037-.3381348-.6690216.0902405-.2779846.3848114-.4299316.6690216-.34021.0134811.0036163 1.4469452.4600067 2.6045074-.0321655.2727966-.1151276.5818939.010376.6970291.2805786.1151352.2696838-.010376.5818939-.2800598.6965027-.5559538.236496-1.1409606.3127289-1.6647719.3127289z" fill="#a57555"/></g><g><path d="m101.1785965 126.8493729c-.9148407 0-1.6409149-.2333832-1.6875916-.2484207-.277977-.0917969-.4294128-.3910446-.3381348-.6690216.0902405-.2774658.3848114-.4314957.6690216-.3402176.0134811.0036316 1.4469452.4610596 2.6045074-.0321503.2727966-.115654.5818939.0098495.6970291.280571.1151352.2696838-.010376.5818939-.2800598.6965103-.5559538.2364883-1.1409606.3127289-1.6647719.3127289z" fill="#a57555"/></g><g><path d="m101.648468 121.7876358c-.8494949 0-1.5164413-.1223984-1.5600052-.1306915-.288353-.0539398-.4781723-.3308868-.4242325-.6192398.0539322-.2878342.3267288-.4750519.6192322-.4247437.0145187.003624 1.5164413.2764206 2.7486877-.0404587.2821274-.0751953.5735931.0985413.6462021.382225.0726089.2842026-.0985413.5735931-.3827438.6467209-.5507736.1415864-1.1326675.1861878-1.6471405.1861878z" fill="#a57555"/></g><g><path d="m100.923439 116.1559296c-.4947662 0-.8816528-.0705261-.9065475-.0757141-.288353-.0539398-.4781723-.3303604-.4242325-.6187134.0539322-.288353.3350296-.4755783.6181946-.4252701.0083008.0010376.7893448.1420975 1.4168701-.0186691.2810974-.0752029.5735931.0985336.6462021.3827362.0726089.2836914-.0985336.573082-.3827438.6462021-.3246537.0834961-.6659089.1094284-.967743.1094284z" fill="#a57555"/></g><g><path d="m101.1308899 111.2279968c-.4937286 0-.8795853-.0705338-.90448-.0757141-.288353-.0539398-.4781647-.3308792-.4242325-.6187134.0529022-.288353.3256989-.4755783.6192398-.4252701.006218.0020752.7903748.1420975 1.4137573-.0191879.2852402-.0720901.5735931.0985336.6472397.3822174.0726013.2842102-.0985413.5736008-.3817062.6467209-.3256912.0835037-.667984.1099472-.9698181.1099472z" fill="#a57555"/></g><g><path d="m101.7086334 105.5081329c-.4138641 0-.7395554-.0793457-.7945328-.0938721-.283165-.0731277-.45327-.3614807-.380661-.6446457.0726013-.2842026.3702927-.45327.6441269-.3837738.159729.0394135.6513824.116684 1.0175323-.0098572.2759018-.0949097.5808563.0529022.674202.3303604.0954285.2779846-.0528946.5798187-.3298416.6747284-.2821274.0964585-.5735931.12706-.8308258.12706z" fill="#a57555"/></g><g><path d="m101.9700165 99.8230133c-.4148941 0-.740593-.0793457-.7955627-.0938721-.2831726-.0731201-.4532776-.3609543-.3806686-.6446457.0726089-.2842026.3630295-.4527512.6441269-.3837738.1597366.0394135.6513824.116684 1.0185699-.0098572.277977-.0933533.5798187.0523834.6742096.3303604.0954208.2779846-.0529022.5798187-.3298492.6747284-.2821275.0964585-.5735933.12706-.8308259.12706z" fill="#a57555"/></g><g><path d="m101.9700165 94.4003143c-.4148941 0-.740593-.0793457-.7955627-.0938644-.2831726-.0731277-.4532776-.3609619-.3806686-.6446457.0726089-.2842102.3630295-.4543152.6441269-.3837814.1597366.0399323.6513824.1172104 1.0185699-.0098572.277977-.0938644.5798187.0529022.6742096.3303604.0954208.2779846-.0529022.5798187-.3298492.6747284-.2821275.0964661-.5735933.1270599-.8308259.1270599z" fill="#a57555"/></g><g><g><path d="m111.7750168 154.8756409s-4.6819763-16.7592163 2.5393295-41.8937912c7.2213135-25.1345901 12.3243942-33.7613449 12.3243942-33.7613449s-8.0157852 34.1357651-5.9187622 44.7152863z" fill="#a4b17c"/></g><g><path d="m111.9316483 150.3761139s-.4295959-37.3539734-34.1410751-46.4209213c0 0 20.4313965 1.1296616 32.5404663 23.6050491-.0000001 0 2.1044463 18.7544098 1.6006088 22.8158722z" fill="#a4b17c"/></g><g><path d="m110.8818893 156.088028s3.0622711-49.8480606 59.1939774-52.1328354c0 0-45.5531082 5.2674942-58.0662994 51.9705582z" fill="#a4b17c"/></g><g><path d="m112.1664124 154.8300323s-2.881958-16.297821 10.4373856-40.613533c13.3203963-24.3167724 25.339302-30.0658188 25.339302-30.0658188s-22.7373734 29.6998825-24.834404 45.0769958z" fill="#5d6a24"/></g><g><path d="m112.2608185 154.7059326s22.0088196-34.499588 67.600235-24.5204315c0 0-35.8222809-14.2676163-63.1695099 10.3366089z" fill="#5d6a24"/></g><g><path d="m112.2608185 154.7059326s-7.5925598-19.7546539-5.2674942-43.5591202c2.3240204-23.8055191 4.1738968-28.2424622 4.1738968-28.2424622s2.4173584 43.9473267 3.7909698 47.9621201c1.3736267 4.0147858-2.6973724 23.8394623-2.6973724 23.8394623z" fill="#5d6a24"/></g><g><path d="m112.959816 152.7595215s-2.64328-24.6020966-26.7585297-31.6664276c0 0 21.1017685 2.9498291 27.2231216 23.0905914z" fill="#5d6a24"/></g></g></g></svg>