<svg id="Слой_1" enable-background="new 0 0 230.3999939 230.3999939" height="512" viewBox="0 0 230.3999939 230.3999939" width="512" xmlns="http://www.w3.org/2000/svg"><g><g><path d="m111.8437195 156.0522919s-3.2840805-7.9488831 2.6755447-14.3861542c5.9593658-6.4365082 11.5602417-4.9979553 14.2973404-1.133728 2.7363434 3.8639374-2.2739944 7.637085-6.9288712 8.5363922s-10.3152389 3.9971161-10.0440139 6.98349z" fill="#434c0f"/><path d="m108.9022675 118.4325638s1.0701294-18.8431396 16.5533218-19.5059128c15.4832077-.6627884 18.7230148 11.1655731 18.2100906 14.2397842s-3.9904938 5.8401794-14.184494-.4575424c-10.1938171-6.2966003-18.2106476 3.4479218-20.5789184 5.723671z" fill="#434c0f"/><path d="m106.783905 94.7324448-.2841949 64.9511642 6.1109772-.710495.8533859-65.6616364" fill="#d19671"/><path d="m107.5888519 105.9153061s-7.1508102-21.0398788-12.5141525-30.1154785c-2.3362656-3.9533081-4.7502136-8.8899002-8.6750259-11.5354996-4.7078705-3.1734428-9.1175842-.40448-13.9572372.9124527-7.5265121 2.0480576-10.5762024 7.5131989-6.2053452 14.8622055 2.0686035 3.4779892 5.4473114 6.5382767 9.3838882 7.6750488 8.3607101 2.4143372 18.1460571.1447601 24.4044495 8.0251923 3.713089 4.6754761 7.5634231 10.1760788 7.5634231 10.1760788z" fill="#5d6a24"/><g fill="#a4b17c"><path d="m108.631073 112.5334396c-.314621-1.1269226.3436356-3.0341873.2678528-4.3175583-.0961151-1.6276093-.4211578-3.2450638-.9766922-4.8097763-1.0890121-3.0673065-3.0601044-5.8903656-5.6472549-8.2721634-5.0075378-4.6100616-14.3971939-9.943718-20.7821198-3.9256287-4.8869629 4.6062012-2.5991898 9.1269684 1.1438141 9.9798737 3.7430115.8528976 7.6942825-2.1322632 11.5414124-1.1085052 3.8471375 1.0237427 1.6636505 4.1797409 2.6000137 6.0563889.9355392 1.8759765 10.7099151 2.3030929 11.8529739 6.3973693z"/><path d="m109.4862061 156.7769012s-3.5604935-10.6806793-6.4920502-14.6593781c-2.9323578-3.978714-7.9582291-9.0045776-13.1931992-2.4083862-5.2357941 6.5970001.9421921 10.994751 6.4920425 11.9369354 5.5490494.9422151 10.6798707 2.1992799 13.1932069 5.1308289z"/><path d="m107.6754761 107.8359222s3.2923126-33.8161926-1.5841751-41.8943481c-.0004425-.0007324-.000885-.0014648-.0013275-.0021973-3.7665558-6.2373657-9.2651138-10.9134064-13.7555618-16.527729-3.9977722-4.9983406-7.186348-13.7425804-13.6904373-15.8950691-5.344223-1.7685719-16.3243904-3.7804565-20.9874763 9.8483734-4.6630098 13.6287651 13.0825766 19.7759819 21.750965 19.8404007 8.6684646.0643501 21.3978424 24.253334 28.268013 44.6305694z"/></g><path d="m108.9145203 111.0370255s12.7166367-20.2971649 39.7601318-14.8000717c9.5263214 1.9364014 22.4511414-.2076492 24.5360565-11.4506226 2.5848236-13.9386826-12.026062-20.5408173-23.7053986-18.3740463-17.5182648 3.2507935-31.6674957 18.3919983-34.4900513 24.0169373-6.6728057 12.2187881-6.1007384 20.6078033-6.1007384 20.6078033z" fill="#5d6a24"/><g><path d="m173.2107239 84.7863312c-22.9854736-3.3572159-52.3892517.568161-63.1009979 24.1284637-.1339798.3107605-.5029602.4515915-.8090744.3048172-.3002319-.1424026-.4274521-.5023727-.2833862-.8018112 1.3391724-2.7857666 2.8021851-5.5409546 4.721283-7.9929199 13.6686324-17.664978 39.0326155-19.6775971 59.4721755-15.6385498z" fill="#434c0f"/></g><path d="m90.1550064 96.291008c1.1800537-.7464447 2.8188553-.8196716 4.2220993-.5194168.3351746.0652847.7363434.1821747 1.0578003.2864227.1202011.0438919.48069.1806412.6074905.2275543.1877823.0827103.5006256.2242966.6826477.3058777.0548172.0245972.4035721.2144699.4662933.2455673.2177353.105629.5136719.2969589.7206192.4219513.1026306.0633621.2555008.153183.350296.2216187 0 .0000076.6747742.4676132.6747742.4676132.2142181.164444.4244461.3326111.637001.4990997.1816483.1357422.438179.3725052.6104279.5191116 1.0048294.8682327 1.8893585 1.8298569 2.7243881 2.8090439.3049774.3401718.6727066.8412857.960289 1.1956329.1400681.1729355.3223724.4328537.4539261.6101608 1.645546 2.2325821 3.0282822 4.6114426 4.23246 7.018631.2182312.4740067-.6012421.7837296-.8886414.316246-1.7004166-2.9622955-3.4442291-5.9175568-5.6315689-8.6580658-.7759018-.9693069-1.605423-1.9137268-2.5285797-2.7926483-.9064026-.8767014-1.9213486-1.6974792-3.0591965-2.3605042-.196312-.1196823-.4948807-.2656097-.6989594-.3776321-.1012268-.0447159-.4461975-.2017059-.5489883-.2475967-.1502609-.0613098-.419487-.1572037-.5680923-.2153854-.1948547-.0590668-.3896713-.1237411-.5873032-.1762161-1.2589644-.3228225-2.7154539-.3490371-3.8891829.2029343z" fill="#5d6a24"/><path d="m63.883522 43.7668419c4.6018753 1.5518608 8.8944626 3.9769745 12.9201126 6.7322121 7.8929214 5.4776878 14.599411 12.7346611 19.6771622 21.0626144 3.7817383 6.1980591 6.6848145 13.0040054 8.6988754 20.0464554.8080139 2.7897034 1.4798203 5.7081985 2.0245895 8.5689468.3127899 1.6204758.5761642 3.3378677.8127594 4.9716034.070015.5467377-.7050171.7349243-.8327255.1499786-.1368561-.8252258-.2663193-1.6517715-.4089203-2.4755859-.3925552-2.2126236-.8617706-4.5337753-1.396965-6.7118454-.6352234-2.597641-1.3864517-5.2351151-2.2325821-7.7647858-5.6756439-17.3080444-17.2441711-32.5635452-32.7191544-41.4147453-2.1093368-1.201477-4.2774276-2.3104744-6.5431518-3.1648483z" fill="#5d6a24"/><path d="m110.092041 106.2594147s8.6387024-16.0488586 23.1572876-35.6627197c14.5194092-19.6136665 16.8408966-22.2337837 15.2487335-32.6074982-1.5913696-10.3738461-3.5954895-16.1764755-10.9367065-16.8347378-7.341217-.6582603-1.097641.0663662-8.8921661-1.2532959-7.7945251-1.319582-9.4002838-.5336838-15.9811325 4.5481377-6.5808411 5.0818195-16.7278595 17.2674503-14.2547684 28.5522823 2.4738922 11.2847939 10.9251251 14.3556862 8.3909988 20.2949638-2.5341187 5.9392776-6.5767593 7.423584-2.8341141 14.6362228 3.7418824 7.2134858 6.1018677 18.326645 6.1018677 18.326645z" fill="#a4b17c"/><path d="m129.418808 23.9025307c-1.5888824 3.4456043-2.9465256 7.2038651-4.2106552 10.7806778-4.6418381 13.5304985-8.0308533 27.6245499-10.7987442 41.6537437-.3717346 2.0463028-1.1370468 6.1650543-1.5153656 8.2175293-1.0549393 6.2033768-2.0656128 12.8395691-2.960907 19.0579147-.0342865.2684174-.2849045.4595718-.5533829.4177017-.2612305-.0396576-.4417877-.2815781-.4074783-.5423431 0 0 .3378906-2.5551758.3378906-2.5551758.2514267-1.8643341.6154785-4.53479.8667145-6.3856125.3197327-2.3355865 1.0463638-6.5990219 1.4074402-8.9123154.3742828-2.3275909 1.1945572-6.5344467 1.6237488-8.8764191 2.5855331-13.007576 5.8350372-26.0877647 10.2577362-38.5932732 1.1220169-3.1322975 2.4340897-6.547039 3.7573624-9.6011238.6716537-1.5143603 1.4201278-3.1965807 2.1956405-4.6613043z" fill="#5d6a24"/></g><g><path d="m132.8812408 206.8145599c-4.8652039 2.0717316-12.7386627 4.2895508-23.6785049 4.2483826-11.4161835.0718689-19.5875626-2.824173-24.6384583-4.220108-3.0316696-.8380432-5.0476685-5.7210388-4.8127213-8.8576355l.2228317-3.0268402.1388702-1.8746948.632164-8.5791168.2212219-2.9977417.3245621-4.4074554.1719742-2.3251953 1.2312317-16.7044525c.0726624-.9729004.8808365-1.7253571 1.8561401-1.7293701l48.4372559.1428986c.9308929-.0040588 1.7100067.7064514 1.7915497 1.6340942l1.6292725 18.1940613v.0016174l.2244415 2.4979858v.000824l.6919098 7.7273254v.0007782l.300354 3.3530273v.0007935l.6781921 7.5690765c.3398897 3.867279-1.8504943 7.8306884-5.4222869 9.3517455z" fill="#381952"/><g fill="#fff"><g><path d="m114.1126328 184.1353607-4.6044083-12.4480133c-.0740356-.2001953-.2661362-.3311462-.4807129-.3255157-.2133942.0055542-.3995438.1463013-.463089.3501129l-4.0925903 13.1302185c-.0353622.1135406-.0290146.2359772.0179367.3452148l4.6892014 10.914032c.0788879.1836243.2593994.3018494.4580536.3018494.0061035 0 .0122147-.0001221.0183258-.000351.2058258-.0075378.3858261-.1407776.453125-.3354492l4.007782-11.5962219c.037651-.1089935.0363921-.2277069-.003624-.3358765zm-4.5259552 10.3885651-4.1078033-9.5609283 3.6019745-11.5562134 4.0344772 10.9072723z"/><path d="m109.1252747 189.3390656 1.8763198-5.4570313-1.8763198-4.3484802-1.3636475 5.0307159z"/></g><g><path d="m124.4888306 183.4557953-4.6044006-12.4480133c-.0740356-.2001801-.2661438-.3311462-.4807205-.3255157-.2133865.0055695-.3995438.1463013-.463089.3501129l-4.0925827 13.1302185c-.0353622.1135406-.0290146.2359924.0179367.3452301l4.6892014 10.9140167c.0788803.1836243.2593994.3018494.458046.3018494.0061111 0 .0122223-.0001068.0183334-.000351.2058182-.0075226.3858261-.1407776.4531174-.3354492l4.0077896-11.5962219c.0376433-.1089936.0363844-.2276917-.0036317-.3358765zm-4.5259552 10.3885651-4.1077957-9.5609283 3.6019745-11.5562134 4.0344696 10.9072876z"/><path d="m119.5014725 188.6594696 1.8763275-5.4570007-1.8763275-4.348465-1.3636399 5.0307159z"/></g><g><path d="m103.4687576 183.7203674-4.6044006-12.4480286c-.0740356-.2001801-.2661438-.3311462-.4807205-.3255005-.2133865.0055542-.3995438.146286-.463089.3501129l-4.0925827 13.1302185c-.0353622.1135254-.0290146.2359772.0179367.3452148l4.6892014 10.9140167c.0788803.1836395.2593994.3018646.458046.3018646.0061111 0 .0122223-.0001221.0183334-.000351.2058182-.0075378.3858261-.1407776.4531174-.3354492l4.0077896-11.5962219c.0376434-.1090086.0363845-.2277067-.0036317-.3358763zm-4.5259552 10.3885498-4.1077957-9.5609283 3.6019745-11.5561981 4.0344696 10.9072723z"/><path d="m98.4813995 188.9240723 1.8763276-5.4570008-1.8763276-4.3484649-1.3636474 5.0306701z"/></g><g><path d="m134.1951752 182.0832367-4.1160278-12.4480286c-.0661774-.2001801-.2378998-.3311462-.429718-.3255005-.1907654.0055542-.3571625.146286-.4139709.3500977l-3.658493 13.1302338c-.0316086.1135254-.0259323.2359772.016037.3452148l4.1918182 10.9140167c.0705261.1836395.2318878.3018646.4094696.3018646.0054626 0 .0109253-.0001221.0163879-.0003662.1839905-.0075226.3448944-.1407776.4050446-.335434l3.5826874-11.5962219c.0336607-.1090087.0325316-.2277069-.003235-.3358764zm-4.0458985 10.3885498-3.672081-9.5609283 3.2199173-11.5561981 3.6065369 10.9072723z"/><path d="m129.7368164 187.2868958 1.6773071-5.4569855-1.6773071-4.3484802-1.2189941 5.0307159z"/></g><g><path d="m92.9399948 183.2359467-3.885376-12.4480133c-.0624771-.2001801-.2245865-.3311462-.4056473-.3255157-.180069.0055695-.3371582.1463013-.3907776.3501129l-3.4534836 13.1302185c-.0298386.1135406-.0244827.2359924.0151367.3452301l3.9569321 10.9140167c.0665665.1836243.2188873.3018494.3865128.3018494.0051575 0 .0103149-.0001068.0154724-.000351.1736832-.0075226.3255768-.1407776.3823624-.3354492l3.3819275-11.5962219c.0317688-.1089936.0307007-.2276917-.0030594-.3358765zm-3.8191833 10.388565-3.4663239-9.5609283 3.0394897-11.5562134 3.4044495 10.9072876z"/><path d="m88.7314682 188.439621 1.583313-5.4570008-1.583313-4.3484649-1.1507034 5.0307159z"/></g><path d="m83.9531021 182.7517548-2.4899216-7.9776001-.1719742 2.3251953 1.819809 5.8308411-2.9775772 10.2099762-.0201797-.0565033-.1388702 1.8746948c.0605545.0395813.1299896.0613708.2018433.0613708.0048447 0 .010498-.000824.0153427-.000824.1735764-.0072479.3253632-.1404572.3826904-.3350525l3.3812561-11.5962219c.0322952-.1089935.0306854-.2276916-.0024186-.3358764z"/><path d="m137.3249817 186.539917v-.0007782l-1.5792084-4.35495.8872986-3.3723755v-.000824l-.2244415-2.4979858-1.5121918 5.7500916c-.029892.1138153-.024231.2365265.0153351.3455353l2.713562 7.484314z"/></g><path d="m80.1541138 196.92659s27.3892059 4.3399506 57.5328674-.6917267" fill="none" stroke="#fff" stroke-linecap="round" stroke-linejoin="round" stroke-width=".8"/><path d="m82.8254471 166.7051697s26.3539734 3.2372284 51.3974075-.6917419" fill="none" stroke="#fff" stroke-linecap="round" stroke-linejoin="round" stroke-width=".8"/></g></g></svg>