<svg id="Слой_1" enable-background="new 0 0 230.3999939 230.3999939" height="512" viewBox="0 0 230.3999939 230.3999939" width="512" xmlns="http://www.w3.org/2000/svg"><g><path d="m89.9824371 84.9608612c-.5889359.0128098-1.1778717.0478058-1.7659607.1066895-.9286423.0930481-1.848732.2483826-2.7577438.4592056-.3866577.0896225-.6256485.4771271-.5360184.8637695.0896225.3866501.4745636.6264954.8612061.5360184.779274-.1809464 1.5662231-.321785 2.3608627-.4105453 2.5716858-.2876434 5.1809235-.0776749 7.7082291.4506607 3.4217987.7161102 6.6967926 2.000679 9.8079071 3.5771408 1.0831299.5488281 2.1423569 1.1445847 3.1845245 1.7685165 1.2709045.7596359 2.5119324 1.5730591 3.715416 2.4351196.7434158.5317459 1.4834213 1.0771561 2.1824646 1.6669464.2867889.2424011.7169724.2073975.9593735-.0802383.243248-.2867813.2074127-.7169647-.0793839-.9602203-.7570801-.6392975-1.5619583-1.2299271-2.3685455-1.8052216-1.2265244-.8748627-2.4863205-1.6993637-3.7768707-2.475235-1.0430069-.6273422-2.1073608-1.2248077-3.1904831-1.7796021-3.4781342-1.7813187-7.1696472-3.2135468-11.0267563-3.9125824-1.7403489-.3157958-3.5097123-.4779739-5.2782212-.440422z" fill="#414c00"/><path d="m113.4049988 69.4696426c-.3764114-.0113525-.690506.285675-.7015991.6614838-.0588989 1.924202-.0597534 3.8498459-.0460968 5.7746429.0196304 2.5810699.0827866 5.163002.2296066 7.740654.1100998 1.9358139.2679977 3.8716202.5146713 5.7954712.2167969 1.6865768.5010223 3.3688889.9525375 5.0093689.105835.3832321.5001678.6068573.8825455.5018768.3832397-.105835.6077194-.5027313.5018768-.8859634-.4643097-1.6754837-.7425613-3.3953476-.9576569-5.1186142-.2236252-1.7890091-.3755569-3.5856781-.4882126-5.3849258-.1707077-2.7338562-.252655-5.4736786-.2722855-8.2126617-.0119476-1.7264328-.0085297-3.4539795.0426788-5.1799011.0119478-.3757249-.2825163-.6901627-.6580656-.7014314z" fill="#414c00"/><path d="m70.036644 77.4660263c-.2774811.0384064-.5203171.2381287-.5974731.5257721-.1029358.3832397.1259842.7767105.5093918.8799896 1.9397278.5197906 3.8062286 1.2709045 5.6173325 2.1338196 1.7337723.8253708 3.4159927 1.7565613 5.0571594 2.7526321 1.0876541.6606369 2.1590042 1.3502808 3.2088394 2.069809.2970352.2039948.5923615.4096985.8851166.6188126.1203461.0862045.2389908.1715622.3576279.2586212.0332947.0239029.0836487.0759659.1203461.0879135.1382828.0477982.2739868.1083908.4156799.1442413.0375443.0093918.0768051-.0042725.1152191-.0076752.0563278-.005127.1126633-.0247574.1681442-.0375595.2125244-.0494995.4250565-.0938873.6401443-.1365662.6025925-.1186371 1.2120132-.2091064 1.8239975-.2714233 1.8598404-.1903381 3.7401581-.1237564 5.5906143.1331558 2.3267212.3234863 4.6082077.9457016 6.8094635 1.7574081 2.790184 1.0293655 5.4651566 2.3651428 8.0154877 3.8920975 1.3281021.7954941 2.623764 1.645607 3.881012 2.5494995.7101288.5112686 1.4194183 1.0327682 2.0885773 1.5978088.2867889.2424011.7169724.2073975.9593735-.0802383.243248-.2867813.2074127-.7169647-.0793839-.9602203-.6964722-.5880814-1.4347839-1.1317825-2.1739426-1.6643829-1.1932297-.8586426-2.419754-1.6703568-3.675293-2.435112-2.3429413-1.4262543-4.7908554-2.6860657-7.3326721-3.7205429-2.0032349-.8151169-4.0738983-1.4919662-6.1906509-1.9417801-2.3736649-.5044327-4.8028183-.7536621-7.2285385-.6000366-.8099976.0512238-1.6174469.1459656-2.4163513.2876511-.2748337.048645-.5471039.1092453-.8193817.1681442-.104126-.0759659-.2091141-.1510773-.3141022-.2261887-.3525009-.2517853-.7075729-.5010223-1.0643539-.744278-1.0848312-.7408676-2.1900711-1.4484406-3.3155289-2.1261444-1.5945663-.9593658-3.2277985-1.8606949-4.9077988-2.6621475-1.8895416-.9013367-3.8414841-1.6806107-5.8653641-2.2243042-.0958558-.0256042-.1902543-.0315856-.282692-.0187759z" fill="#414c00"/><g fill="#969105"><path d="m122.9448929 88.8427124c-.3439789 3.0197906-1.8828812 5.8236389-3.0530777 8.6317444-.7178116 1.7232819-1.5858536 3.2604904-2.5631409 4.8241501-1.1070404 1.7719345-2.0664062 3.7666321-2.7893448 5.729744-.048645.1331558-.4472427 2.0356674-.4523697 2.0356674-.5727158 0-.335434-1.0976334-.4523697-1.659256-.3610382-1.7318115-.7536621-3.5097122-.7536621-5.2765274 0-4.8164597 2.9130859-9.5339203 5.5035629-13.4191895.4600525-.6913528.970459-1.3733215 1.3562546-2.1107712.2611771-.4976044.1920471-1.5073395.7545166-1.5073395.5052872 0 .3473816.9747314.6785583 1.3571167.4523698.5214997 1.8504563.6990433 1.7710725 1.394661z"/><path d="m120.4961166 86.0892334c-.033287 0-.0665741.0059738-.0990067.013649.0358505-.0085297.0725479-.0093842.1101074-.0076752-.0051268-.0008545-.0068358-.0059738-.0111007-.0059738zm.0111008.0059738c.0315781.0008545.0529175.017067.0793686.0264511-.0213394-.0076752-.0358429-.0273056-.0614471-.0298691-.0059739 0-.0119553.003418-.0179215.003418zm.0793686.0264511c.0392685.0128098.0802383.0239029.1092529.0503693-.0290146-.0264664-.0691299-.0375595-.1092529-.0503693zm.1092529.0503693c.0239029.0213394.0409698.050354.0588989.0776596-.0187835-.0281601-.034996-.0563202-.0588989-.0776596zm.058899.0776596c.0179214.0256119.0375519.0478058.0512161.0768204-.0145188-.0298691-.0332947-.0512085-.0512161-.0768204zm.0512161.0768204c.0426712.0947418.0648651.1980286.08535.2936249-.0213394-.1007233-.0409698-.1971741-.08535-.2936249zm.08535.2936248c.0102386.052063.0307236.1126556.0401154.15448-.0059738-.0247421-.0111008-.0494995-.0162277-.0742569-.0051117-.0239029-.0187684-.0537719-.0238877-.0802231zm-.6299057-.4532318c-.0699921.053772-.1160812.1297379-.1544952.2108154.0392685-.0810775.0853576-.1578979.1544952-.2108154zm-.1544952.2108155c-.0179214.0358582-.0290146.0708542-.0426712.1092606.0128021-.037552.0256042-.0734025.0426712-.1092606zm-.0426712.1092605c-.0111008.0315781-.0281677.0623016-.0375519.0930405-.0042725.015358-.0059814.0307236-.0102463.0452271.0119553-.0452271.0307312-.0913239.0477982-.1382676zm-.0477982.1382675c-.003418.0111008-.0085297.0221939-.0110931.0324326-.0264664.1024323-.0469513.2091217-.0691452.3149643.0247574-.1169357.0478058-.233017.0802383-.3473969zm.9303513.2244797c.0110855.0503693.0196304.1015778.0324249.1519318.0068359.0298691.0179291.0580444.0264664.0879135-.0221939-.0793839-.0418244-.1596069-.0588913-.2398453zm.0588913.2398453c.005127.0187759.0076752.0375519.0136566.0563278.0034103.0110931.0093918.0204926.0128021.0315933-.0093918-.0290298-.0179291-.0580444-.0264587-.0879211zm.0264587.0879211c.0042648.0127945.0059738.0255966.0110931.0375443.0025558.0068283.0076828.0119553.0102463.0187759-.0068359-.0187759-.0145111-.0375519-.0213394-.0563202zm.0213394.0563202c.0358429.0896301.0810852.1741257.1493683.2449646-.0682831-.0708389-.1126709-.15448-.1493683-.2449646zm.1493683.2449646c.0742569.0768204.1604538.139122.2509308.1954651-.090477-.0571976-.1775284-.1186447-.2509308-.1954651zm-1.2879791-.4182281c-.0349884.1613159-.0751114.3234863-.1416779.4745636.0665665-.1502228.105835-.3132477.1416779-.4745636zm1.5978012.6478348c.0460968.0273056.0913315.055481.1382828.0802231.0324249.0170822.065712.0315781.098999.0478058-.0802231-.0392686-.1587524-.0819474-.2372818-.1280289zm-1.8837357.0904693c-.0588837.1075439-.1254654.2099762-.1886215.3149567.0494995-.0810928.1032715-.1596146.1493607-.2424088.0128097-.0238952.0256042-.0486526.0392608-.0725479zm-.1886215.3149567c-.0759659.1237564-.1476593.2500763-.2270432.3712845.017067-.0264664.0341415-.052063.050354-.0776749.0631562-.0955963.1169358-.1954498.1766892-.2936096zm2.3122025-.2748337c.2654495.1339951 1.1923828 1.0028992 1.1923828 1.0028992s-.2372894-.5146866-.4958954-.6614914c-.2253342-.127182-.464325-.2270432-.6964874-.3414078zm1.1923828 1.0028992s-2.471817 7.2823029-2.7526321 7.93013c.2680054-.6179504.546257-1.2324905.8185425-1.848732.6068573-1.3741913 1.19664-2.7637329 1.5790253-4.2190018.1613082-.6128387.3550643-1.8623962.3550643-1.8623962zm-5.126297 1.7369232c-.2202148.3362885-.44384.6708755-.6589279 1.010582-.0281677.0443802-.0554733.088768-.0827942.1331558.2424087-.3849488.4924927-.763916.7417221-1.1437378zm-.7417221 1.1437378c-.0264511.0418167-.053772.0836411-.0802231.1254654-.1579056.2526398-.3098373.5104065-.464325.7656097.1809464-.2978821.3593369-.596611.5445481-.8910751zm-.5445481.8910751c-.0990067.1647415-.2005768.3277512-.2987366.4933472.0981599-.165596.19973-.3286057.2987366-.4933472zm-.2987365.4933472c-.1630173.2765427-.3175125.5573578-.474556.8373032.156189-.2799454.3123779-.5607606.474556-.8373032zm-.474556.8373031c-.1263199.2261887-.2577667.4489594-.3789749.6777115.122055-.2287521.252655-.4515228.3789749-.6777115zm-.7920837 1.509903c-.1066895.2159424-.2193527.4293289-.3200684.6478271.1007156-.217659.2133789-.4318847.3200684-.6478271zm-.3200684.6478271c-.2338715.507843-.4549332 1.0191193-.6538086 1.5423203.1988754-.523201.4199371-1.0344772.6538086-1.5423203zm1.2615204 8.7486725c-.323494.6529541-.6222305 1.3195572-.9013367 1.9929886.2791062-.6734314.5778427-1.3400345.9013367-1.9929886zm-.9013367 1.9929886c-.0110931.0273209-.0264511.0529251-.0375519.0802383-.0076904.0179214-.0136566.0375519-.0213394.055481.018776-.0452347.0401154-.090477.0588913-.1357193zm-.0588913.1357193c-.0093842.0230408-.0204773.0443802-.0290222.0665741-.0827942.2039948-.1613083.4079895-.2406921.6136932.0879135-.2278976.1775283-.4540863.2697143-.6802673zm-.2697143.6802674c-.0623093.1630096-.1323013.3234787-.1732712.4933395-.0025482.0110855-.0051117.0213394-.0076752.0324249.0435257-.1817932.1143646-.351654.1809464-.5257644zm-.9994812 1.4620895c.0008545.1638718.0034103.3260498.0290146.4882202.0025635.0145111.0102463.0315781.0136642.0477905-.033287-.1775283-.0409698-.3567657-.0426788-.5360107zm.0426788.5360107c.001709.0093994 0 .0196381.0025482.0290298.005127.0281601.0205002.0563278.0290298.08535-.0119476-.0384139-.0247573-.0768203-.031578-.1143798zm.0315781.1143799c.0119553.0384064.0213394.0751114.0401154.1092529-.018776-.0341415-.0281602-.071701-.0401154-.1092529zm.0401153.1092529c.005127.0102463.0128021.017067.0187759.0273132-.0059738-.0093917-.0136489-.0170669-.0187759-.0273132zm.018776.0273133c.036705.0571899.0793839.1075439.1468048.1331406-.0665665-.0255967-.1100998-.0759507-.1468048-.1331406zm.2799606.1246109c-.0042725.0153656-.0059738.0264664-.0136642.0298691.0059814-.0025483.0111007-.018776.0136642-.0298691zm-.0136643.0298691c-.0085297.0042725-.0230408.0008545-.0580292-.0059662.0307236.0059662.0477906.0102386.0580292.0059662z"/></g><g><path d="m118.7975922 106.1523132c-.3781204 5.1672668 1.2913895 10.4612732 1.6746292 15.5961304.1442413 1.93367.1544876 3.9083252.3268967 5.8362732.0546265.6080322.1630249 1.2131958.1630249 1.8240814 0 .3345032-.2569122 1.1760101 0 1.0035248.4455414-.2982941 1.182991-5.4836655 1.3067627-6.2012787.9559479-5.5151215 1.6165771-12.2662888.3268967-17.7852173-.1186447-.5070038-.9277878-4.4963303-1.1437302-4.6516724-1.2120133-.8701019-2.5904618 3.5090027-2.65448 4.3781586z" fill="#969105"/></g><path d="m109.554718 54.674221c-.1732559.0114365-.3422623.0907288-.4668808.2320747-.2475204.2826881-.2184982.7124405.0648727.9602203-.005127-.0045204.0076752.0087051.0128021.0133171.015358.0137405.0247498.0202255.0401154.0346527.0196304.0182648.0401154.040287.0588913.0587234.0614624.0594025.1220551.1200066.180954.1813736.2014313.2074966.3943329.4230957.5812531.6427917.5428391.6346855 1.0412979 1.3070107 1.5098953 1.9977722 1.4125824 2.0822716 2.5554657 4.342762 3.515686 6.665554 1.2282257 2.9723282 2.1594315 6.0633926 2.8755341 9.196785.9576721 4.1946716 1.5286713 8.4665756 1.8453445 12.7547226.0298691.3960266.3746872.6939087.7707291.6640396.3960342-.0290222.6913528-.3747025.6614838-.7707291-.3678665-4.9206009-1.0643539-9.8232803-2.2985535-14.6057816-.8321915-3.2227554-1.9042282-6.3901978-3.3023071-9.4128914-.9414444-2.0347252-2.0331039-4.0088577-3.3398666-5.8333626-.4335861-.6059189-.8927841-1.1962204-1.3869858-1.7550278-.2620239-.296772-.5308914-.5944862-.8287735-.8561745-.1416855-.1239314-.3200684-.1794963-.4941941-.1680599z" fill="#414c00"/><path d="m150.1511536 43.3969612c-3.164032.4214706-6.2068787 1.453476-9.0849762 2.814003-2.0544434.9710617-4.0295105 2.1041183-5.9345856 3.3420792-4.2906952 2.7888222-8.2493668 6.0799446-11.9545441 9.6022072-1.5150146 1.4400787-2.9890518 2.92556-4.4170151 4.4516716-.8603516.9189949-1.7138824 1.8472023-2.520462 2.8139992-.2415619.2886658-.2005768.7193527.0879059.9602203.2884903.2408676.7161102.2005768.9576645-.0879974.7562256-.9067917 1.556839-1.7775574 2.3625641-2.6406479 1.3400497-1.4352112 2.7236176-2.8309021 4.1430359-4.1875877 3.7427292-3.5779114 7.7543182-6.9112015 12.109024-9.7222176 2.1577301-1.3927879 4.4076233-2.6566086 6.7616577-3.6862221 2.4530487-1.0727997 5.0196075-1.8830566 7.6791992-2.2352219.3934937-.0522346.6708832-.4145584.6188202-.8081245-.0520629-.3936463-.4148254-.668396-.8082885-.6161614z" fill="#414c00"/><path d="m115.374939 34.7229691c-.1835098.0020447-.3678741.0740814-.5069962.2160263-1.8777695 1.9241104-3.056488 4.4193192-3.926239 6.9349289-.7562256 2.1899872-1.2845535 4.4552536-1.6882706 6.7349434-.1775436 1.001194-.3286209 2.0074158-.4532318 3.0166321-.0819321.6612282-.1570435 1.3250198-.2022858 1.9898338-.0264664.3750381.2594757.6997223.6341782.7254982.3755417.0257759.6998901-.2571678.725502-.6321259.0409622-.5890198.1075287-1.1771851.1792374-1.763134.1075439-.8913383.2372742-1.7796936.3892059-2.6646309.4190826-2.4371719.9986343-4.8606796 1.84021-7.1882591.8023224-2.2188339 1.8641052-4.4450951 3.5319061-6.1481438.2773972-.2838821.2731247-.7385597-.0110931-1.0162125-.1416931-.1387786-.3277664-.207405-.5121231-.2053565z" fill="#414c00"/><path d="m123.9580307 71.0593414c-.2611771-.0467682-.5368652.0598297-.690506.2960892-.3209229.4929199-.5940475 1.0226974-.8535233 1.5496674-.410553.8327026-.774147 1.6882019-1.0908203 2.5605927-.8168182 2.2461472-1.3417435 4.6018906-1.5073242 6.9883575-.088768 1.2794418-.0665741 2.5614395.0452347 3.8383179.0358505.3951874.3866501.6862411.7818298.6503983.3951874-.034996.6862411-.3832397.6503906-.7784271-.0734024-.8151169-.1101074-1.6327896-.0981598-2.4513321.0401154-2.7534866.5684586-5.5052719 1.5312424-8.0846329.2936096-.7877197.6264877-1.5616226 1.0054474-2.3125534.2074127-.4123383.4242096-.8292847.676857-1.2162781.2057037-.314949.1152191-.7363434-.1997223-.9415283-.0785293-.0513002-.163887-.0831376-.250946-.0986711z" fill="#414c00"/><path d="m197.2127991 26.8573418s-6.119812-3.3049488-23.8689575-2.9377499c-9.298645.1923561-15.4053802 5.928051-19.1125793 11.3460751 1.1061249-4.254631 1.6384583-9.2927761-.449234-12.8480682-4.3167877-7.3500214-12.2867126-12.0489235-12.2867126-12.0489235s-3.3896332 11.5146847-1.7508087 17.0510941c.7313232 2.470644 2.3606567 5.3318405 4.2681885 8.0098686-1.5890961-.7302055-3.5350189-1.3287621-5.9676056-1.8710594-8.9377899-1.9925117-16.1168671.5593987-16.1168671.5593987s-1.8224487-.2537231 6.5382996 6.3606987c5.2707825 4.1702538 13.0667725 5.1072006 18.1087799 5.2302856-2.8243866 2.9538803-6.8986359 8.1022606-8.3608704 14.4124985-2.3250122 10.0372467 5.1416626 21.5432587 5.1416626 21.5432587s10.6486359-9.7923813 12.3625183-20.1968307c.7206268-4.3746262-.2684937-8.3378296-1.6568451-11.4625359 2.4860077 3.8138885 6.1870575 8.2723274 11.3273468 11.5849419 11.0164948 7.0995789 22.0330048 6.4875107 22.0330048 6.4875107s-5.3857727-15.4231033-12.9753571-19.707222c-3.2787781-1.8510437-8.2941895-3.2678261-12.933609-4.2801781 5.5623322-.4853745 11.9944153-1.2501373 16.8494568-2.4220123 10.649475-2.570492 18.8501891-14.8110506 18.8501891-14.8110506z" fill="#a0b175"/><path d="m125.8891525 49.4951668c-2.3123627-.0825882-4.9586868.3923187-7.4508591 1.0575638.6086349-.3934059 1.2336884-.813549 1.869194-1.2612953 5.3857727-3.7945328 4.0397568-11.8732643 4.0397568-11.8732643s-1.5918274.2447739-8.8135376 4.5289879c-3.1815567 1.8874054-4.5809479 4.6299057-5.1515045 7.1079292-.3768539-2.4811287-1.4635925-5.5788116-4.274025-8.2095833-5.7528-5.3858528-16.7693024-7.0994797-16.7693024-7.0994797s-1.5909882 2.5704689 2.6928787 8.3235207c2.3721771 3.1857262 5.0078201 6.783577 8.4046021 9.1323166-3.5238647.0201149-7.4090424.8132591-11.1869202 3.1200867-11.6235962 7.0976181-12.6407013 11.8294258-12.6407013 11.8294258s10.6062927 2.1030579 20.7772522-2.6287498c2.8631973-1.3320465 5.392395-2.6327934 7.5488586-3.8143578-1.8804169 2.4878845-3.8875275 5.7897263-5.0694046 9.6576614-2.6928558 8.8127899 2.080925 24.4810257 2.080925 24.4810257s10.2824707-9.6696243 11.873436-20.808876c1.1392441-7.9717178-1.5460587-13.9365616-3.1652985-16.6844788.1078873-.0680466.2123489-.134304.3143921-.1992455 1.8260956 1.6943703 5.3380585 3.6099625 11.615387 2.8883972 10.649498-1.224041 15.9131851-5.3857765 15.9131851-5.3857765s-5.7536315-3.9170151-12.6083144-4.161808z" fill="#5a6b10"/><path d="m73.677124 69.9667587c1.1289902-4.2538681 1.7482605-10.1246872.0943756-17.1779442-3.5394135-15.0944977-7.8074799-17.6970024-7.8074799-17.6970024s-3.1229782 9.5772133-4.4763374 18.1133575c-1.1215363 7.074379-.7413902 16.7940521 4.8138695 21.8709412-3.3198357-1.9188309-8.6572304-3.9715576-14.8165627-2.4490509-10.3725891 2.5640945-18.2977905 13.519577-18.2977905 13.519577s10.3726845 4.6619797 21.6776962-.6990356c5.526741-2.6212997 9.2420845-4.5455475 11.5971184-5.8282242-2.1398697 2.510231-4.1195869 6.5831985-2.7881813 12.5190353 0 0 9.1900749 3.9524231 6.8697166-14.2354889 1.1959076.0287247 3.049202.0557404 5.830452.0779953 13.0124054.1041261 17.3850403-16.5518188 17.3850403-16.5518188s-14.7907028-1.3512077-20.0819168 8.5376587zm-4.4040985 7.107605c-.0065842.0045624-.0128708.0088043-.0195084.0134277-.0219574-.0177078-.0442276-.0355759-.0672531-.0539627.0285416.0138932.0580445.026825.0867615.040535zm1.2407227.5982819c-.0078888-.0598297.1347885-.0041199.1347885-.0041199s-.0503235.001442-.1347885.0041199z" fill="#a0b175"/><g><path d="m115.2878799 33.1272926s-3.7768707-1.8887749-10.2602768-.8677826c0 0 1.9400711 1.7866096 5.9217911 2.1949387 0 0-1.4296646 1.2761993-1.8888626 4.2368317 0 0 4.2369156-1.3271523 6.4825516-3.3690491 0 0 .0512085 2.8586388 2.65448 5.1046219 0 0 .6128387-2.2970238-.4079895-5.1556664 0 0 2.9096832 1.3272438 6.686554 1.4803658 0 0-2.6032639-3.0117683-5.4105225-3.3180122 0 0 3.9304962-1.1229897 5.7169342-2.705431 0 0-2.5520554-.7657032-9.4946595 2.3991832z" fill="#a0b175"/></g><g><path d="m126.513504 68.9201431s-3.0274658-2.9445953-9.5142899-3.9363937c0 0 1.3067474 2.290451 4.9769211 3.8862915 0 0-1.7488785.7829437-3.0838013 3.4652481 0 0 4.4400635.0192032 7.1995163-1.2459869 0 0-.8176727 2.7396622.9824142 5.6691437 0 0 1.2794495-2.0035782 1.1735992-5.0371094 0 0 2.3702545 2.1465454 5.9235077 3.4372482 0 0-1.5679321-3.6590805-4.1507111-4.8017807 0 0 4.0858459.1210327 6.2683258-.8455963.0000002 0-2.2004087-1.503151-9.775482-.5910645z" fill="#969105"/></g><path d="m94.7888184 101.7398758c3.0910034 1.5147095 6.7650681 2.6530914 11.0299683 2.9263763 0 0-1.0065079-9.1149902-9.3295059-13.8170929-2.3733215-1.3406448-4.5401917-1.9155731-6.4265442-2.0541611 12.827858-10.6108093 1.6201096-21.4064331 1.6201096-21.4064331s-2.0535507-.341301-7.3534546 9.3311615c-2.7288971 4.9802856-2.3757324 8.8887405-1.3910065 11.5088882-3.8334198-1.2812347-11.1563797-2.806076-19.0663795.4010391-11.555088 4.684166-18.7379723 12.2840118-18.7379723 12.2840118s12.2837372 1.3528366 22.2772827-2.1867523c2.69104-.9531174 5.2608109-2.0722275 7.5801773-3.1988068-2.2906342 2.5307693-4.4050293 5.9343414-5.4699554 10.4142303-3.0189362 12.7005081-.2081757 25.6084442-.2081757 25.6084442s11.8673019-11.4509506 14.0537796-23.0060349c.3730087-1.9717331.6367111-3.8340988.8178406-5.5674057 1.5312729 18.8781128 15.9420853 24.4099197 15.9420853 24.4099197 1.6652298-10.9302979-.9371796-16.8640366-4.9974136-24.98452-.1116182-.2232281-.2254946-.4439312-.3408357-.6628643z" fill="#969105"/><g fill="#a0b175"><path d="m106.9983978 159.0248871c-1.5824432-1.8153534-.090477-4.7668457.4395752-7.1387939 1.3588104-6.0864563 4.0499954-11.1955414 6.4048767-16.8727112 2.5708313-6.2002411 3.3116989-12.6068954 4.2702103-19.2093735.3661652-2.5272064-.2611771-5.5351486.250946-7.9176865.08535-.3978195.2381287-1.1052551.6281967-1.0382233.1621704.0282288.2295914 3.6624603.2509308 3.8944473.2987366 3.2408142.9602203 6.3925476 1.2555466 9.604248.419075 4.5436707.7937775 9.7683182 0 14.2766953-.8543777 4.8585968-2.2840424 9.6360168-3.0138168 14.5369263-.3627472 2.4381104-1.662674 10.030304-4.0192642 11.0323639-2.1671143.9226685-5.0452118.463089-6.4672013-1.1678924z"/><path d="m118.9922028 106.8480988c.0281601.0035324.046936.1190872.0529175.1543655-.001709-.0123367-.0025635-.0238113-.005127-.0361557-.0042648-.0194092-.0221939-.1155624-.0477905-.1182098zm-.4267655.344017c-.0836487.1958313-.1434021.4066467-.1894913.6210022.0469437-.2169953.107544-.4287033.1894913-.6210022zm-.2244797.8053512c-.0213394.1146774-.0435333.2293472-.0614548.3413696-.0059814.0405884-.0102463.0802765-.0162201.1190872.0213395-.1490707.0486451-.3052062.0776749-.4604568zm.7579346-.5292511c.0375519.455162.048645.9129639.0665665 1.3698959-.017067-.4375229-.0273056-.8759308-.0614471-1.312561-.001709-.0185241-.0042649-.0379333-.0051194-.0573349zm.0665665 1.369896c.0111008.3007965.0324326.600708.0426788.9014969-.0008469-.0344086-.0017014-.0679245-.0025558-.1023178-.0093842-.2663956-.0298691-.5327912-.040123-.7991791zm-.9098511-.3113861c-.005127.0405807-.0111008.0811539-.0162277.124382-.0255966.2152252-.0341415.4304581-.0477905.6474533.0153579-.2575684.029869-.5160217.0640182-.7718353zm-.0640182.7718353c-.0076904.1261444-.0221939.2513962-.0264664.3775406.0042724-.1261444.0187759-.2513962.0264664-.3775406zm-.0264664.3775406c-.0128021.3651886-.013649.7321396-.0076752 1.0973206-.0059738-.365181-.0051269-.7312546.0076752-1.0973206zm-.0076752 1.0973205c.0179214 1.1793671.0955963 2.3595963.0665741 3.5389709.0298767-1.1793746-.0486526-2.3596038-.0665741-3.5389709zm.0665741 3.538971c-.0025635.0961456-.001709.1914062-.0059814.2866821.001709-.0308838.0042725-.0626373.0059814-.0935059.001709-.064392-.001709-.1287841 0-.1931762zm-.0059814.2866821c-.0025482.0767365-.013649.1525955-.0179138.2293396.0025558-.0529251.0128021-.1049728.0153656-.1578979.0016937-.023819.0016937-.047638.0025482-.0714417zm-.0179139.2293396c-.0204849.3272552-.0495071.6536255-.0913239.978241.0145035-.1067276.0332718-.2125854.0452271-.3193207.0247574-.2187576.0332871-.4392776.0460968-.6589203zm-.0913238.978241c-.0486603.3766556-.1058502.7533112-.1596222 1.1299667.0042725-.0335159.0110931-.0679245.0153656-.1014404.0494995-.3431397.0990143-.6853867.1442566-1.0285263zm2.1124802 2.1778869c.0486526.3528366.0981522.7065582.1365662 1.0611649-.0042725-.0335236-.0076904-.0661621-.0111008-.099678-.0349961-.3210831-.0802308-.6412888-.1254654-.9614869zm.1365661 1.0611649c.1100998 1.0161743.2073975 2.0323486.2927551 3.0511703-.0477905-.5839539-.0947418-1.1679001-.1519241-1.7500839-.0426712-.4348678-.0938949-.8670959-.140831-1.3010864zm-2.7901916.5539551c-.1160812.8009415-.2364349 1.6010056-.3627548 2.401062.1212082-.7656555.2381363-1.5322037.3491058-2.2987366.0051117-.0344009.0085296-.0688019.013649-.1023254zm-.3627549 2.401062c-.0665741.4198761-.1399765.8379898-.2108154 1.2569809.0708389-.4189911.1442414-.8371048.2108154-1.2569809zm-.2108154 1.2569809c-.0665817.3960648-.1305923.7921219-.2022858 1.188179.0716935-.3951721.1357041-.7921143.2022858-1.188179zm3.6701737-1.0064621c.0862122 1.0373383.1604691 2.0782089.2133865 3.1182022-.0529175-1.0399933-.1288834-2.0799866-.2133865-3.1182022zm.2133865 3.1182022c.0281601.5530777.048645 1.1070251.0640106 1.6618652-.0153656-.5548401-.0358505-1.1087875-.0640106-1.6618652zm.0640106 1.6618652c.0153732.5548401.0230484 1.1096649.0213394 1.664505.001709-.55484-.0059662-1.1096649-.0213394-1.664505zm.0213394 1.664505c-.0008545.5169067-.0102386 1.0338135-.0290146 1.5498352.018776-.5160217.0273057-1.0329284.0290146-1.5498352zm-.0290146 1.5498352c-.0085373.2205353-.0256119.4410553-.0375595.6615753.0119477-.2213897.0290223-.44104.0375595-.6615753zm-.0375595.6615754c-.0179214.3343201-.0315857.6686401-.0588913 1.0029602.0051117-.0617523.0110931-.1226196.0162125-.1843719.0204849-.2725678.0281754-.5460053.0426788-.8185883zm-.0588913 1.0029602c-.0068359.0890808-.0187759.1781616-.0264664.2672577.0042725-.0520325.0145187-.1040802.0187759-.1569977.0025636-.0361786.0051271-.073227.0076905-.11026zm-.0264663.2672577c-.055481.6280518-.1237564 1.2569885-.2184982 1.8806305.0947418-.623642.1630172-1.2516938.2184982-1.8806305zm-.5121155 3.5398559c-.0793762.4075165-.1630173.8124084-.2483673 1.2181702.08535-.4057617.1689911-.8115387.2483673-1.2181702zm-9.4528427 6.2072907c-.3311691.7727203-.6537933 1.5489655-.965332 2.3296204.3123779-.780655.6341629-1.5569001.965332-2.3296204zm-.965332 2.3296203c-.1544952.3854675-.2953339.7753601-.4429932 1.1634827.1468048-.3881226.2893524-.7789002.4429932-1.1634827zm-.4429932 1.1634827c-.1638718.4313354-.3286057.8626862-.4830856 1.2984467.1544799-.4357606.3183593-.8671113.4830856-1.2984467zm-.4830856 1.2984466c-.0486603.1367188-.1041412.2699127-.1519318.4075317-.1459579.4225159-.2765427.8503265-.410553 1.2763824.1783981-.5654296.3644562-1.1255492.5624848-1.6839141zm-.5624848 1.6839142c-.050354.1578979-.104126.3131409-.1519318.4710388.0478058-.1578979.1024323-.3140258.1519318-.4710388zm-.1519317.4710389c-.2176437.7171326-.4216385 1.4395752-.6034393 2.1673126.1800918-.7294922.384941-1.4510498.6034393-2.1673126zm9.0815582 1.3125457c-.0913239.5486603-.1911926 1.0964508-.2987366 1.6424713.107544-.5451355.2074127-1.093811.2987366-1.6424713zm-.2987366 1.6424713c-.104126.5327911-.2184982 1.0629272-.3414078 1.5912933.0085297-.0352783.0187836-.0696869.0273132-.1049652.1126633-.4939727.2159348-.9888305.3140946-1.4863281zm-9.4468613-.5451355c-.1229095.5072021-.2338638 1.0161743-.3764038 1.5189667.0298691-.1032104.0605927-.2055206.0879135-.3087311.1066895-.4004821.192894-.8079986.2884903-1.2102356zm-.3764038 1.5189667c-.0896301.3157806-.1843719.6324615-.2773972.9473724.0785217-.2628632.1596069-.5266113.2347183-.7903595.0145112-.0529174.0273057-.1049652.0426789-.1570129zm9.4076004.9226685c-.0827942.3448944-.1664352.6898041-.2586288 1.0311737.0921936-.3413696.1758346-.6862793.2586288-1.0311737zm-.2586288 1.0311737c-.0443726.1640625-.0947342.3246002-.1416779.4878082.0469437-.162323.0973053-.3237457.1416779-.4878082zm-.1416779.4878082c-.0802307.2787323-.1596069.5565948-.2483749.8326874.0153656-.0467529.033287-.0935059.048645-.1402588.0725556-.2293396.1331558-.4613342.1997299-.6924286zm-.2483749.8326874c-.0571899.1790619-.1212082.356369-.1835098.5345459.0452347-.1305542.0981522-.2593384.140831-.3916473.0162201-.046753.0281601-.0952607.0426788-.1428986zm-.1835098.5345459c-.0588913.1684723-.1152267.3360748-.1783905.5019073.0631637-.1658325.1194992-.3343048.1783905-.5019073zm-.1783905.5019073c-.0631561.1649628-.1348495.3255005-.2031403.4878082.0682907-.1623077.1399841-.3228454.2031403-.4878082zm-.2031403.4878083c-.0734024.1737671-.1433945.3484192-.2236252.5186768.0111008-.024704.0256119-.0476379.0367126-.0723419.0682755-.1455537.1237565-.2981568.1869126-.4463349zm-.2236252.5186767c-.0512085.10672-.1083984.2108154-.1630249.3166656.0469513-.0908661.0990143-.1808319.1442566-.2725677.0068207-.0149994.0110932-.0299988.0187683-.0440979zm-.1630249.3166657c-.048645.0926208-.0947418.1878815-.1468048.2787476.052063-.0917512.0981598-.1852418.1468048-.2787476zm-.1468048.2787475c-.0793839.1384735-.1698532.2707977-.2586212.4022217.0896225-.132309.1792374-.2637482.2586212-.4022217zm-.2586212.4022217c-.0452423.0661621-.0862045.134079-.1331482.1984711.0068283-.0097046.0162125-.0176392.0238953-.0273438.0392685-.0546875.071701-.1155548.1092529-.1711273zm-.1331482.1984711c-.0648651.086441-.1348572.1684875-.2057037.2505188.0563431-.0643921.1160812-.1252594.1681442-.1922913.0136642-.0185242.0239029-.0396881.0375595-.0582275zm-.2057037.2505188c-.0435257.0502777-.0844955.1014404-.1305923.1490784.0460967-.047638.0870666-.0988007.1305923-.1490784zm-.1305924.1490783c-.1160736.1181946-.23983.2302246-.3763962.3228455.1365662-.0926208.2603226-.2046509.3763962-.3228455zm-.3763962.3228455c-.1177902.0793915-.2475281.1376038-.3781204.1922913.1305924-.0538025.2594757-.1128998.3781204-.1922913zm-.5599212.2619782c-.0631561.022049-.1263199.0432281-.189476.0626221.0144958-.0043945.0307236-.0061646.0452347-.0105743.048645-.0158693.0964431-.0352937.1442413-.0520478zm-.189476.062622c-.1570587.051178-.3192215.0811615-.4796906.1190796.127182-.0299835.2577744-.0476227.3840942-.085556.0315781-.0097046.0631562-.022934.0955964-.0335236zm-.4796906.1190796c-.1655884.0388184-.3286057.0820465-.4967575.1076355.1681519-.025589.3311691-.0688171.4967575-.1076355zm-.4967575.1076355c-.1450958.0211639-.2910461.0264435-.4370041.0379181.1468048-.0114746.2919083-.0167542.4370041-.0379181zm-.4370041.0379181c-.1826553.0149994-.3644638.0344086-.5471039.0335236.0324249 0 .0640106.0061798.0964355.0052948.1510773-.0017701.2995911-.026474.4506684-.0388184zm-.5471039.0335236c-.0332947 0-.0674362-.0079346-.1007233-.0079346.0119476.000885.036705.0105743.0477905.0105743.0179292 0 .0349961-.0026397.0529328-.0026397zm-.1007232-.0079346c-.7186737-.0617523-3.9475784-1.6265869-3.9484329-1.6265869 0 0 1.3912582 1.1202545 2.2413712 1.3751831.5530852.1667175 1.1300734.2399292 1.7070617.2514038zm-3.948433-1.6265869c.0008545 0-.6478195-3.0502777-.3542099-4.2675629-.3175125 1.1925812-.5974731 2.595108-.0111008 3.7294769.1015778.1958313.3653107.538086.3653107.538086zm-.3542099-4.2675629c.0153656-.0582275.0273132-.1217346.0426712-.1790771-.0119476.0441132-.0255966.0882111-.0375519.1323242-.0034103.0132293-.0017013.0335083-.0051193.0467529z"/><path d="m118.375946 107.813118c-.013649.0617371-.0230408.121727-.0349884.1843491.0119477-.0626221.0213395-.1226121.0349884-.1843491z"/><path d="m113.3776779 160.2280579c-.0597382.024704-.1212006.0476379-.1818008.0696869.0614547-.022049.1212082-.0440979.1818008-.0696869z"/></g><g fill="#414c00"><path d="m113.2436829 138.6794128c.9909439-1.0511322.876564-2.8781891 1.3477173-4.2498016 1.0472794-3.0549774 1.5926895-4.1252594 2.6954498-10.5008316 1.1027527-6.3755798.2825165-9.886879 1.7155914-15.001442.6964722-2.4906616 4.9282837-13.1230087 5.7988739-16.0848007.214241-.7280426 1.1958008-2.5315933.6538086-3.2509232-.0725479-.0957947-2.2302704-.945755-2.2874603-.9161453-.9721756.4955215-7.8473511 17.3144531-8.5762634 19.3348465-2.3907394 6.6211548-4.6338043 14.1035843-3.7572403 21.2516174.2526474 2.0656739 1.591835 10.2848664 2.409523 9.4174805z"/><path d="m123.1685181 88.6737213c-.0196304.011322-.0418243.0235214-.0606003.0357132-.0119476.0078354-.0204849.0191574-.0324326.0270004.033287-.0261307.0742569-.066185.1092529-.0600967-.0017089 0-.0119476-.0043564-.01622-.0026169zm-.0930329.0627136c-.0076828.0069656-.0204849.0095749-.0264664.0139236-.0221786.0165558-.0409698.0383224-.0614548.0566101.0281754-.0252608.05719-.0487594.0879212-.0705337zm-.0879211.0705338c-.0290146.0261307-.0588837.0505066-.08535.0792542.0264663-.0287476.0563354-.0531235.08535-.0792542zm-.08535.0792541c-.0324326.0356979-.0614548.073143-.0904694.1114731.0281601-.0374527.0580368-.0757751.0904694-.1114731zm.4907836-.1436996c.1109619.0383148.2227631.077507.3328781.1193085-.0947418-.0357056-.1911926-.0722733-.2876434-.1062393-.0145111-.0052338-.0307235-.0078507-.0452347-.0130692zm.3917771.1410828c.3550568.1341171.7092743.2751923 1.0592194.4214935-.3123856-.1306305-.6281967-.2569046-.9440002-.3779526-.0384141-.0148086-.0768205-.0287323-.1152192-.0435409zm1.0592193.4214935c.1118164.0470276.2227707.0949326.3328781.1445618-.0904694-.0409241-.1800919-.0809937-.2714233-.1201782-.0204849-.0078355-.0409698-.0156785-.0614548-.0243836zm.3328782.1445618c.0443878.0200272.0879135.0391846.1314468.0600891-.0153656-.0069656-.0290298-.0156708-.0426788-.0217743-.0290223-.0139237-.058899-.0252457-.088768-.0383148zm.1314468.0600891c.0452271.0200348.0913239.0409393.1305847.0705414-.0213394-.0174103-.048645-.0304794-.0691299-.0409241-.020485-.0104523-.0409699-.0200272-.0614548-.0296173zm-2.5392532-.4545899c-.0136566.0191574-.0273132.0374527-.040123.0566101-.1075363.1637192-.1945953.3422546-.2748337.526001.0870666-.202919.1877823-.4032059.3149567-.5826111zm-.3149567.5826111c-.0699844.1602402-.1280289.3248291-.1843491.4920425.0571747-.1663436.1152191-.3309326.1843491-.4920425zm-.1843491.4920425c-.0674362.1985474-.1297455.3979721-.1860809.5991364-.0068207.0243912-.0128021.0487747-.0187683.0731659.0605926-.2212067.1305771-.4476242.2048492-.6723023zm-.2048492.6723023c-.0042725.0147934-.0093918.0296021-.0136642.043541-.0571899.2098694-.1075439.4206238-.1604614.6313705.0563354-.2255554.1118163-.4511108.1741256-.6749115zm-.1741257.6749115c-.050354.2037811-.1049805.4058151-.1544876.6096039-.0768204.3169937-.1485214.6409531-.2611847.9474945.1007233-.2734451.1681442-.5617065.2372894-.8438644.0588837-.238617.1203385-.4746171.1783829-.713234zm3.555809-1.8915024c.0409622.0339508.0734024.1044998.0938797.1523972-.0230408-.0522614-.052063-.1010208-.08535-.1471786-.0025635-.0017472-.0059662-.002617-.0085297-.0052186zm.0938797.1523972c.0358582.0844727.0546341.1750336.0665817.2673492-.0119476-.0923157-.0307235-.1828766-.0665817-.2673492zm.0665818.2673492c.0051117.0426712.0042572.0862198.0051117.1306305-.001709-.0444107 0-.0879593-.0051117-.1306305zm.0051117.1306305c.0008545.0409317.0042725.0827255.0025635.1245346.0025634-.0418091-.001709-.0827331-.0025635-.1245346zm.0025634.1245346c-.0051193.0984039-.0256042.1933289-.0426712.2882538.0179215-.0966644.0383988-.1889801.0426712-.2882538zm-.0426712.2882538c-.017067.0966644-.0307312.1933289-.053772.2838974.0076752-.0296021.0179214-.0583496.0247498-.0870819.013649-.0618286.017067-.1315003.0290222-.1968155zm-.0537719.2838974c-.0136642.0574799-.0315857.1140823-.0477982.1706848.0102463-.0348358.0256042-.0679169.0349884-.1027527.005127-.0217743.0076904-.0470276.0128098-.0679321zm-.0477982.1706848c-.0751114.2630081-.1647339.5199127-.2637482.7733307.0990143-.253418.1894837-.5112.2637482-.7733307zm-9.0738754 12.0422669c-.1331558.2891235-.2577667.5817413-.3764114.8769531.1186447-.2952118.2432556-.5878296.3764114-.8769531zm-.690506 1.7068862c-.1118164.3091583-.2150879.6217957-.3200684.9335556.1049805-.3117599.208252-.6243972.3200684-.9335556zm-.3200684.9335557c-.092186.2708511-.1869278.5425568-.2773972.8133926-.2560577.7672272-.5257797 1.526619-.7954941 2.2886276.2552032-.7193375.51297-1.4386673.7553711-2.1632309.1041337-.3135071.2116853-.6261444.3175202-.9387893zm-1.165924 3.3658828c-.268013.7602539-.5291824 1.5231323-.7818375 2.2894897.252655-.7663574.514679-1.5292358.7818375-2.2894897zm-.7818375 2.2894898c-.2586136.7846527-.506134 1.5745163-.74086 2.3670044.234726-.7924881.4822464-1.581482.74086-2.3670044zm-.8637695 2.7972107c-.1869202.6453094-.367012 1.2923508-.5334549 1.942894.1664428-.6505433.3465347-1.298462.5334549-1.942894zm-.5334549 1.9428939c-.0623093.2420883-.1143723.4868088-.1732712.7297668.0588989-.242958.1109619-.4876784.1732712-.7297668zm-.1732712.7297669c-.1135178.4667892-.2330093.9335709-.333725 1.4038391-.0196304.092308-.0341415.1854858-.0529175.2778015.1169358-.563446.2509308-1.1234131.3866425-1.6816406zm-.3866425 1.6816406c-.0119476.0574799-.0281754.1140823-.040123.1715546-.048645.2377472-.0887604.4772339-.1340027.7158432.0563355-.2969513.1126633-.5921784.1741257-.8873978zm-.1741256.8873978c-.0409622.2185898-.0819321.4363022-.1194916.6557617.0375595-.2194595.0785293-.4371719.1194916-.6557617zm-.1194916.6557617c-.0580368.3378983-.1075439.6757889-.1570511 1.0154266.0495071-.338768.0990143-.6784057.1570511-1.0154266zm-.1570511 1.0154266c-.0315781.2116241-.0657196.4232407-.0938873.6365967.0281677-.213356.0623092-.4241104.0938873-.6365967zm-.0938873.6365967c-.053772.4110489-.0964432.8229675-.1357117 1.2357559.0392685-.4127884.0819397-.824707.1357117-1.2357559zm-.1783905 1.6241532c-.046936.5573578-.0827942 1.1173248-.1015625 1.6764069.0187683-.5590821.0537719-1.1190492.1015625-1.6764069zm.1894912 6.8258132c.0384064.2778015.0751114.555603.1169357.8325348.0042572.0269928.0093842.0548706.013649.0818634-.0460891-.3039245-.0887603-.6096038-.1305847-.9143982zm.3166581 1.997757c.0648651.3753357.1229095.7524261.1954575 1.1260071-.0734025-.3735809-.1305924-.7506714-.1954575-1.1260071zm.1954574 1.1260071c.1433868.7402344.3021469 1.47612.4848022 2.2076416-.1826553-.7306519-.3414153-1.468277-.4848022-2.2076416zm3.075264 1.3420105c-.0913239.3013153-1.2913818 4.0764923-1.2913818 4.0764923s.8740082-2.0700378 1.0779953-3.1568604c.0580444-.310028.1220626-.6183166.2133865-.9196319zm-1.2913818 4.0764923s-.1246262.0975494-.1707077.1280212c.0085297-.0034943.015358-.0034943.0238876-.007843.0554886-.030487.1468201-.1201782.1468201-.1201782zm-.1707077.1280212c-.0247574.0121918-.0486603.022644-.071701.0269928.0170746-.003479.0324326-.0026093.0503616-.0104523.0025558-.0008697.0162124-.0121917.0213394-.0165405zm-.0717011.0269928c-.0076828.0017395-.0145035.0052338-.0213394.0061035.0068359-.0008697.0136566-.004364.0213394-.0061035zm-.0213394.0061035c-.0281677.002594-.055481-.0026245-.0802307-.0087128.0256042.0069581.052063.0113068.0802307.0087128zm-.0802307-.0087127c-.0042725-.0008698-.0093842-.0008698-.0136566-.0026093.0051269.0017395.0093841.0017395.0136566.0026093zm-.0136566-.0026093c-.0435333-.0139465-.0785294-.0496521-.1143723-.0844727.0358429.0356904.0716934.0696564.1143723.0844727zm-.1143723-.0844726c-.0145111-.0148163-.0315781-.0235138-.0452347-.0409393.0136566.0174255.0298691.026123.0452347.0409393zm-.0452347-.0409394c-.0119553-.014801-.0213394-.0348358-.0315857-.0513763.0111008.01828.018776.0348358.0315857.0513763zm-.0315857-.0513763c-.0691376-.1079865-.1263199-.2377472-.1578979-.3265686.0349884.0992737.0896149.2220611.1578979.3265686z"/></g><path d="m166.0797272 97.6381607c-.8247375-.6810913-1.6260071-1.3117981-2.4046173-1.8989334 6.8616028-1.030426 11.8540497-5.9817505 11.8540497-5.9817505-6.3625183-4.4536819-13.107193-5.0262451-18.4526367-4.3913345 13.0740356-6.2237091 9.4114227-19.8560791 9.4114227-19.8560791-12.9453583 6.8300323-17.2338104 14.2785187-18.649353 18.6677475-3.6299133-2.8835526-10.3083344-7.1484604-17.5891876-6.6573792-10.8936005.7340317-16.1573181 1.2239609-16.1573181 1.2239609s4.0388947 11.3835297 13.0974045 12.3625259c4.0787125.440834 9.2495651-.4089813 13.7020493-1.4764099-4.207077 1.8985062-9.3943329 5.5303345-12.0417023 12.3465042-4.8958511 12.6083298-2.4479218 26.1948318.1229095 31.2135696 0 0 15.1774597-10.4045258 18.8501892-23.0120087 1.2718811-4.3673096 1.6035004-8.4108887 1.4941101-11.8316956 1.3378143 4.5271225 3.4862366 9.8260117 6.891922 14.2930679 7.7184296 10.1238327 20.7015839 13.1490936 20.7015839 13.1490936s.8704375-18.4886472-10.8308259-28.1508787zm-18.6107636-9.6298752c-.0018768-.005127-.0036774-.0099792-.0055237-.0149918.0177002-.0022507.0354919-.0044479.0531616-.0066986-.016098.0073166-.0321044.0146027-.0476379.0216904z" fill="#969105"/><g><g><path d="m121.1130753 129.4903564s6.9093246 19.946991 6.2410126 30.8670349c0 0-9.1378937 2.2285767-13.0376587-.1109467-.0000001.0000001 6.4629211-23.066635 6.7966461-30.7560882z" fill="#414c00"/></g><path d="m149.5731659 156.3121338c.0373688 1.3304291-2.5486145 1.7434692-2.5486145 1.7434692l-1.3057404 7.4420166-1.6890106 9.6289673-3.7533569 21.3946991-1.9363251 11.0383759-1.5896149 9.0612488s-.2154846.1069641-.6289978.2830353c-1.3629761.5808868-4.8769836 1.9129639-9.8843765 2.6378326-.8277969.1192932-1.6969681.2221375-2.6034927.3027802h-.0008011c-1.3319626.1176453-2.7458344.1867676-4.2320633.1867676-1.8424835 0-3.6372604-.1151886-5.3437653-.3052521h-.0007935c-1.0003738-.1102448-1.9697266-.2468414-2.9017029-.4015198-4.918335-.8137207-8.7655411-2.1137085-10.3503799-2.6995239-.5121002-.1892395-.7880325-.3044281-.7880325-.3044281l-1.7470627-9.0678406-2.0683212-10.7380676-4.1978836-21.7929077-1.9092865-9.9111786-1.4170609-7.3564606s-1.9156265-.64505-1.6738815-2.0240326c.2425156-1.3789673 2.6424561-3.4910431 2.6424561-3.4910431 31.3206635 4.9457245 57.2284012.7923279 57.2284012.7923279s2.6631317 2.2494811 2.699707 3.5807342z" fill="#ca8178"/><g fill="#fff"><path d="m146.0885925 164.7418518-2.8826141-3.5410461c-.1025848-.1264343-.2640076-.1916504-.4262238-.1725616-.1622314.0190887-.3029785.1200714-.3737488.2671967l-3.0710907 6.4045563-4.7863159-5.8789368c-.1033783-.1272278-.2640076-.1924286-.4262238-.1725464-.1622314.0190735-.303772.1200714-.3745575.2671814l-3.1139984 6.4944305-3.9903336-5.5958557c-.0946426-.1327972-.2504959-.20755-.4135208-.1996002-.163002.0087585-.3101196.1002045-.3904343.2425385l-3.4845886 6.1874847-4.0881348-6.2677917c-.0890503-.1367798-.244133-.2170868-.4055634-.2162933-.1630173.0015869-.3141022.0866699-.3999863.2258301l-3.7445984 6.044342-3.4877701-6.5294189c-.0763397-.1439209-.2218475-.2385559-.3848877-.2504883-.1622086-.0119171-.3204498.0588531-.4182587.1900635l-4.1334686 5.5362091-3.2022858-6.4546814c-.0723724-.1463013-.2147141-.2449188-.3769455-.2624054-.1622009-.0167084-.3220367.0500946-.4238281.1781158l-4.4253159 5.576767-3.2475967-6.5484924c-.0731583-.1463318-.2154999-.2449341-.3777237-.2624207-.1622238-.0175018-.3220596.0500946-.423851.1781311l-3.0949249 3.9004669c-.0874786.1097412-.121666.2520752-.0938492.3896484l1.9093018 9.57901c.0357819.1829071.1757431.3276367.3570328.3713684.1813278.0429382.3713684-.0238647.4866714-.170166l4.2551346-5.4384003 3.178421 6.5222626-4.9628525 6.8132935c-.1009979.1375732-.120079.3196716-.0501099.4755249l3.7970963 8.4975433c-.0302124.0238647-.057251.0516968-.0818863.0834961l-2.693367 3.5251465c-.0827026.1089325-.115303.2480927-.0882568.3824921l2.068306 10.3782043c.0365753.1844788.1781464.3300018.3610229.3721466.1837006.0421448.3745422-.027832.4874725-.1781311l3.7780151-5.0161438 3.7923203 7.045517-5.7707977 6.4228516c-.1065674.1184845-.1471024.2815094-.1081543.4357758.0389786.1542664.1526794.2790985.3021851.3323822 3.9856033 1.4204254 8.0237503 2.1204529 12.1683578 2.7758942 7.6942749 1.2167816 16.2551804.4631653 23.4917526-2.514267.1431274-.0588379.2488861-.1844788.2830811-.3355713.0341949-.1502991-.0063477-.3093414-.1097412-.4246368l-5.9473267-6.6272278 3.7430267-6.7934265 3.6833801 4.9915009c.1129303.1534729.3061523.2250366.4922333.1813049.1852875-.0429535.3276215-.1916504.3610229-.3793182l1.9363098-10.6684418c.0238647-.1304169-.0079498-.264801-.0874634-.3713684l-2.3100586-3.0853882 3.5855713-8.2868195c.0675812-.1574402.0461121-.3379517-.0556793-.4755249l-5.3191071-7.1194458 2.9589539-6.2821198 4.1398315 5.1568909c.0922394.1145172.2298126.1781311.3721466.1781311.0389709 0 .0787354-.004776.117691-.0143127.1805115-.0461273.3180847-.1940308.3514862-.3777161l1.6890106-9.3062744c.0254369-.1367648-.0111384-.2783206-.0993953-.3864596zm-14.8846283 5.7978211 4.078598 5.0797577-3.3271332 7.5536346-4.1970673-6.4141083zm-17.7998352 30.059494 4.978775-6.7926331 5.1879044 6.7162781c.0699692.089859.1678009.1510925.2759323.1741486-.007164.009552-.0150986.0190887-.0222626.0286407l-5.0264816 6.9651794zm-4.0269012-23.4688416 3.6905289 7.5337524-4.5731964 6.7663879-3.6841812-7.6490631c.0182877-.0182953.0349808-.0389709.050087-.0612335zm4.2066345 8.4744721 4.2909164 7.2808838-4.8515396 6.619278-3.953743-7.2220306zm4.5930786-7.8725129 4.3084259 7.1981812-3.9919357 7.125824-4.3076096-7.3087158zm.842125 15.3370972 4.026123-7.1862488 4.4913101 6.9675598-3.6515884 6.5174866zm4.5668487-8.1094971 3.7072449-7.1695404 4.5931015 7.02005-3.704071 7.2800903zm-1.2063141-14.1196289 4.2813797 6.0936432-3.6380539 7.0367584-4.2853622-7.1608124zm-4.7664489 5.9544831-3.9426193 6.9294128-3.7963028-7.7476654c-.0254517-.0516968-.059639-.0962219-.1001968-.1343994l3.8591232-5.2419739zm-9.1647187-.3085327c.0294113.0556641.0683746.1041718.115303.1431274l-4.0125961 5.8542938-3.4241486-7.5258026 3.9004745-4.9851227zm-12.6644058 6.0014038 4.7521362-6.5238495 3.4766235 7.6411133c-.0158997.0158997-.0310059.0341797-.0445328.0532684l-4.7235031 6.5747375zm6.3298035 17.0133667-3.5847626 4.7600861-1.8186417-9.1217651 2.0905991-2.7362976 3.3668976 6.9985809c.004776.0087433.0087357.0175018.0135117.0262451-.0246583.021469-.0477219.046112-.0676041.0731506zm-2.6623383-7.9472504c.0310211-.0262451.059639-.0556641.0835037-.089859l4.739418-6.5962219 3.5800095 7.4327698-5.1441879 6.0276489zm3.4631119 8.0084839c-.0007935-.0023804-.002388-.004776-.0031815-.0071564.0174942-.0158997.0341873-.032608.0493088-.0508881l5.4670258-6.4061584 3.9052505 7.1321716-5.5234985 6.5675812zm4.5398254 7.9520416 5.2563019-6.2503052 5.4526978 7.1687622-5.5823288 7.201355c-.0111237.0143128-5.1266709-8.119812-5.1266709-8.119812zm17.1008301 8.064148c-.0095291.0151215-.0166931.0318146-.0246353.0485077l-5.1727982-7.0812836 4.8793564-6.760025 5.0861359 6.1691895zm9.2410812-15.7044678-3.9648895 7.1973877-5.2515335-6.3703766c-.0691681-.0834961-.163002-.1399536-.2663803-.1622162.0190811-.0230713.0365753-.0477142.0508881-.0747528l3.9823761-7.1075287 5.4042053 6.4602356c.0151062.01828.0318146.0357819.0493011.0508881-.0007934.0023803-.0023803.004776-.0039673.0063629zm.2162934-1.2309723-5.0328522-6.01651 3.6483917-7.1703491 4.7251129 6.4149017zm5.7572632-3.4965057-1.7017365 9.3770294-3.4694672-4.7020416c-.0198822-.0270386-.0429382-.0516815-.0675812-.0739441.0047607-.0087433.0095215-.0167084.013504-.0262451l3.4360657-6.9651794zm1.1777038-11.9033966-3.2428436 7.4963684-5.03125-6.8300018 3.2531738-7.3866425z"/><path d="m89.3323364 158.4288788c1.3520889.3694153 2.7176056.6905365 4.0832443 1.0011749 2.2659149.5149384 4.5426636.9773712 6.8295746 1.3817596 2.4440613.4323578 4.900322.7989655 7.366745 1.0753326 2.2550659.2532654 4.5203094.4309692 6.7889252.4897461 1.1603851.0300751 2.3234863.0293732 3.4838791-.0147095 1.1766434-.0454712 2.3519363-.1322174 3.5272293-.2056885 2.2848816-.1441193 4.5670395-.2987366 6.8498917-.4792328 4.3082733-.3400269 8.6179047-.7681885 12.8834991-1.4930115 1.7151794-.2910309 3.4202118-.6373596 5.1164246-1.0319519.2309875-.0538635.3759613-.290329.3238068-.5289154-.0521698-.2385712-.2811279-.3883057-.5121307-.3344269-1.6799469.391098-3.3694.733902-5.0683136 1.0228577-4.2405396.7220306-8.5230713 1.1480865-12.8069611 1.490921-2.2780991.1825867-4.5589142.3406982-6.8397369.4876404-1.1678391.0755463-2.3356781.1616058-3.5055542.2077789-1.1427765.0454712-2.28759.0496674-3.4310379.0216827-2.1175537-.0517578-4.2337723-.2098694-6.340477-.4351501-2.6066437-.2784729-5.2024536-.6639709-7.7853851-1.1194153-2.1643066-.3813019-4.3184433-.8171692-6.4630966-1.3006134-1.4354172-.3232269-2.8723221-.65625-4.2930298-1.0452423-.0541992-.014679-.1087265-.0181885-.160881-.010498-.1565552.0231018-.29142.140625-.3345032.3078461-.0573122.2238771.0712584.4526673.2878874.5121156z"/></g></g><g fill="#414c00"><path d="m176.910553 125.789032c-4.5159912-13.9055328-13.3387146-26.3807449-25.1445312-35.0225067-.6570587-.4554825.0345001-1.4833908.7068024-1.0120926 12.208084 8.3890304 21.25885 21.5491104 24.4377288 36.0345993z"/><path d="m129.0275116 129.706543c.8783569-14.80439 7.7631226-29.2156906 18.5117798-39.4082794.5771332-.5552444 1.4458008.3180161.8561401.8893967-10.3116455 10.3790053-17.0784759 24.0788802-19.3679199 38.5188827z"/><path d="m114.8069153 79.3228989c10.1626434 4.0701218 21.1640015 5.6336136 31.9770355 6.911972.3421936.0354843.5903778.3453217.549118.6871567-.0391235.3277435-.3299408.5645752-.6555328.5426025-1.3763733-.0952454-2.7508698-.220726-4.1261292-.3413086-9.5271148-1.160942-19.3141631-3.0186691-27.7444915-7.8004226z"/><path d="m99.6414185 127.3885803c-7.1431046-9.8887024-11.7997513-21.673584-13.3366394-33.780571-.0990753-.7728424 1.0761795-.9690552 1.2190018-.190033 1.9354324 11.9441987 6.2304153 23.4124223 12.1176376 33.970604z"/><path d="m70.5168304 129.9190674c.75-13.3007278 4.3722076-27.4947891 13.9519577-37.2502518.5706863-.5567093 1.4403229.2991333.8699036.8761978-9.0733719 9.882103-12.670784 23.4247055-14.8218613 36.374054z"/><path d="m46.5235672 100.7396317c11.3317604-6.2178574 24.1291885-10.5348511 37.15979-10.5549393.7798233.0060654.8158569 1.1986008.0228577 1.2337341-12.8812332.4370728-25.3429489 4.4325485-37.1826477 9.3212052z"/><path d="m197.2127991 27.1329899c-15.5166321 1.3383179-32.0996246 3.9434509-44.6895142 13.7602596-.5993042.5240822-1.4277191-.3974113-.8077698-.9330826 12.1955872-10.2171917 30.0205078-12.9813595 45.497284-12.827177z"/><path d="m187.5940552 68.1931915c-9.6519928-10.8595428-21.2835388-21.0701485-35.6082458-24.8547363-.777832-.171154-.5305939-1.3810997.2673492-1.2050056 14.6779785 3.4080772 26.6705627 14.1474838 35.3408966 26.0597419z"/><path d="m143.51091 80.8346176c5.2037506-11.644165 7.7269135-24.6406593 6.0308838-37.3393364-.1277313-.7918091 1.0883636-1.0032043 1.218689-.1965752 2.1543274 12.8108101-.6890259 26.3829423-7.2495728 37.5359116z"/><path d="m65.9640198 35.0918159c3.1974869 12.8039207 4.8478622 26.1670761 3.6966782 39.3574791-.0761566.7762756-1.2691422.70401-1.230957-.0898514.7367705-13.1320228-.6675187-26.2650298-2.4657212-39.2676277z"/><path d="m34.0197067 85.8814926c10.1825142-6.9070663 22.8719902-11.1952667 35.2516556-9.459137.794838.1159744.63517 1.3238525-.1702881 1.2227783-12.1987266-1.2663573-24.3335533 2.6572877-35.0813675 8.2363587z"/></g></g></svg>