<svg id="Слой_1" enable-background="new 0 0 230.3999939 230.3999939" height="512" viewBox="0 0 230.3999939 230.3999939" width="512" xmlns="http://www.w3.org/2000/svg"><g><g><circle cx="103.495" cy="117.989" fill="#ffd394" r="68.987"/></g><g><path d="m102.8845825 75.9473801c-.062767-.5202637-.1351013-1.0065308-.2143784-1.4466171-.1368027-.7581711-.5568695-1.3769073-.7294159-1.789978-.9577102-2.2971497-15.3306503-15.7506905-17.5668182-16.734562-2.2361221-.9847488-16.1829071 1.8588142-24.1680489 17.9371758 0 0-.5804024 2.2962875-.5873795 5.612175-.0017471.853157.0418282 1.7734146.1324615 2.7389832v.0052338c.1838646 1.9660034.56036 4.1219864 1.1416168 6.2840652-.0008926.0008698-.0008926.0008698 0 .0017471.0261269.0958557.0522537.1925888.0792732.2884521.0087242.0322418.0174446.0636139.0270195.0958557.0244255.0880127.0497017.1751633.0758286.2623062.0871429.2962952.1803741.5934601.2797318.8888855.0182991.0557785.0365944.1115494.0557861.1664505.0287628.0854034.0592728.1708069.0888901.2562103.0357437.1002121.0714455.2004318.1089325.3006516.0052338.0139465.0104675.0278854.0148087.0409546.0313606.0845337.0636139.1699371.0958672.2544708.0060844.0165558.0130653.0331116.0191498.0496674.0383377.0984802.0767174.1960831.1168022.2945557.0409355.102829.0827637.205658.1263351.3084946.0052338.0130692.0113602.0270157.016552.0409622.0409775.094986.0810623.1908493.1228905.2858353.0409355.0923691.081913.1847458.1237411.2771225.0061264.0148163.0130615.0296249.0200386.0444412.0392342.0854034.0784225.1699371.1185074.2553329.0174484.0383453.0357437.0766907.054039.1141663.0400848.0836563.0810623.1673203.1220398.2501068.051403.1036987.1036568.2074051.1568451.3102341.0531464.1028366.1071892.2056732.1620789.3085022.0017433.0034866.0034904.0078354.0060844.0121994.0531883.0984726.1072311.1960754.1621208.2945557.0566368.1010818.1141663.2030411.1733971.3041382.0540428.0932465.1089325.1856155.1647186.2779922.0052338.0087128.0104675.0174255.0157013.0261383.789547 1.3019638 1.7429085 2.5333176 2.8914604 3.6453018 2.1560059 2.0888748 5.001297 3.7542343 8.7415848 4.6701355.4095993 1.6453018.5681915 4.2073975-.8792877 7.2836227 0 0 7.9925919 6.1827698 13.9084473-.6387711 0 0-1.3011017-3.6060944-.0209427-7.1581497 1.0727692-.3982468 2.0766907-.8784103 3.0152512-1.4204636 1.0753632-.6204758 2.064476-1.3220062 2.9707794-2.072319.0017395-.0017395.0034866-.0026169.0052338-.0043564.1133118-.0932541.2257309-.1882401.3363724-.2840958.0601654-.0514221.1193924-.1036987.1786728-.1551208.0148087-.0130768.0296097-.0261536.0444183-.0392151.065361-.057518.1298676-.115036.1943359-.1734161.0261688-.0235367.0522995-.0470657.0775681-.0705948.0731888-.0671005.1464233-.1342087.2187576-.2021866.0845108-.0784225.1681671-.1577225.2509689-.23703.3721161-.3572922.7276382-.7215652 1.0666428-1.0893173.0462112-.049675.0923767-.1002121.1376953-.1507645.0662537-.0723267.1324615-.1455231.1969757-.2187347.0723343-.0810394.1437759-.1629639.2134781-.2440109.084549-.0967178.1673126-.1943359.2492218-.2919235.0592804-.069725.116806-.1394424.1742935-.2091675.0592728-.0705795.1176529-.1420364.1742935-.213501.227478-.2806015.445343-.5612106.6544876-.8418198.0479126-.0636215.0949707-.1263657.1411819-.1899796.0609741-.0819168.1202545-.1638336.1786346-.2457504.1655655-.2291946.3250504-.4583893.478447-.684967.0409317-.0601273.0810165-.1193848.1202545-.1786423.1655655-.2483673.3241959-.4941254.4766998-.7372589.04702-.0749435.0932312-.1498871.1385498-.2248306.2614365-.4261398.5019379-.8418274.7224426-1.2409592.0252762-.0444412.0487595-.0888901.0731888-.1333237.2004166-.3677597.3834305-.7215729.548996-1.0570755.0270233-.0540314.0531921-.1089325.0793152-.1621017.2631836-.5402985.4810486-1.0317993.6570816-1.4570694.0209351-.0522842.041832-.102829.0618744-.152504.1115646-.2745132.2030563-.5185165.2771378-.726799.0191498-.0548935.0383377-.110672.0574875-.16819.8671112-2.6335373 1.0962982-7.6505051.6727829-11.1415558z" fill="#f09997"/></g><g><ellipse cx="101.054" cy="83.747" fill="#ff7061" rx="4.663" ry="1.969" transform="matrix(.999 -.052 .052 .999 -4.255 5.418)"/></g><g><path d="m130.3120728 120.1089859c-.0632935 0-.127594-.0112305-.1898651-.0357285-.2684631-.1051407-.4021912-.4083099-.2970428-.6767807 8.0948029-20.7565842 11.3388519-56.2461243 11.3704834-56.6023788.025528-.2878609.2848053-.5001831.5675659-.4736443.2868347.0255203.4991608.2796974.4736328.5675583-.0316467.3572731-3.289978 35.9948235-11.4378662 56.888195-.0806428.2061997-.277649.332779-.486908.332779z" fill="#424919"/></g><g><path d="m134.9821472 122.3730774c-.0183716 0-.0367432-.0010147-.0551147-.0030594-.2878571-.0296021-.496109-.2868423-.4654846-.5736771 2.3804626-22.7185364 14.141922-46.4854126 14.2603302-46.7232513.1296387-.258255.4420013-.364418.7012787-.233757.258255.1286163.362381.4430161.2337646.7012787-.1173859.2357941-11.7951355 23.8383255-14.1562195 46.3639297-.0275574.2684632-.255188.4685364-.5185547.4685364z" fill="#424919"/></g><g><path d="m127.3936539 122.1311569c-.0030594 0-.0061264 0-.0102081 0-.2878571-.0051041-.5175323-.2439651-.5124283-.5328522.3143997-16.6418152-8.3510208-26.1371307-8.4377899-26.231041-.1970139-.2102814-.1857834-.5410156.0255203-.7380295.2113037-.1970062.5410156-.1837387.7380219.024498.0908508.0969772 9.0420914 9.8781128 8.7195282 26.9649887-.0051042.2847978-.2388612.512436-.5226441.512436z" fill="#424919"/></g><g><path d="m138.5057526 78.580925c4.2379456 3.2242889 11.5540314 6.340683 14.9208832 4.5888367 3.3663177-1.752655 6.6479187-5.3755341 5.3941803-12.9283295-1.2532501-7.551899-7.4768524-13.4448547-7.4768524-13.4448547s-.0707092 1.7812347-1.324707 5.1195335c-1.2540131 3.3382607-5.3573608 5.8681221-6.446167 4.6631355-1.0887909-1.2049942-.2848663-2.3170624 2.5489197-4.8721733 2.833786-2.5551033 1.8189087-6.9888077 1.8189087-6.9888077-2.55513-2.8338051-6.1820831-4.3781128-6.1820831-4.3781128 2.1957245 4.3250885-.8648834 8.8619003-2.8246002 8.8132858-1.9597321-.0486565-2.538208-.3394318-1.462204-3.655468 1.0759583-3.3161125 2.0145111-4.8062592.0139923-6.6589317-2.000412-1.8526917-6.5195007-2.7084808-6.5195007-2.7084808 2.0216522 2.3203812 3.2752686 9.8728065.7833405 8.7317657-2.4919739-1.1411095-1.6118011-6.640049-3.63237-9.5395508-2.0205078-2.899395-7.8120956-2.3325691-7.8120956-2.3325691 3.4931335 1.6331177 6.1990509 6.872406 3.1913376 7.4228554-3.0076904.5504837-2.8203354-3.814167-5.5980835-6.6929703s-7.1904984-1.3959274-7.1904984-1.3959274c2.1543427 2.8106232-1.3642807 13.3372612-1.3642807 13.3372612s.3983612 1.1811981 3.3160553 1.0760117c2.9176178-.1052933 5.8316879 1.5266342 7.0049515 4.891922 1.1732483 3.365448-2.2061005.5967255-4.9638138-1.2352829-2.7576675-1.8319397-5.4652252-1.3106728-5.4652252-1.3106728.7377472 8.0839806 4.7745514 17.6531334 4.7745514 17.6531334s.3135223.472435 4.2411652 2.0843353c3.9276276 1.6120682 6.6714401-1.8410263 9.9727783-1.5829315 3.3018799.2589188 2.5786133.1944504-2.6169662 3.2339935-5.1955643 3.0395813-8.5254211 1.3030701-8.5254211 1.3030701 2.7897949 4.4089584 14.1803818 16.4463959 22.1794968 11.274086 7.999023-5.172287-.7556919-14.4681625-.7556919-14.4681625zm-21.624878-10.3974991c1.8850479.9133301 3.4545975.461937 6.4095154.7637329 2.9547806.3017807 4.6579742 1.2375946 2.4260254 3.2110367-2.2325287 1.9725494-8.8355408-3.9747696-8.8355408-3.9747696z" fill="#434c0f"/></g><g><path d="m145.7262115 84.5457611c-6.5707092-5.2815933-12.5297394-11.2876129-18.1425781-17.5675201-4.837944-5.5582085-9.6177139-11.3965073-12.6546097-18.1764832-.4252701-.9796448-.7895508-1.9898109-1.0770798-3.0270805-.0642853-.2319069.0716019-.4720192.3035049-.5363007.2295609-.0637131.4672852.0690765.5342865.2964363.2953491.9835777.6791077 1.9435501 1.0991821 2.8886604 1.2850037 2.8440628 2.9715576 5.4950638 4.7541122 8.0535507 7.2905886 10.2890359 16.3566286 19.1133462 25.1831819 28.0687371z" fill="#5d6a24"/></g><g><path d="m161.5684052 122.7846375-25.9371338-4.5193634-27.5301666-4.9864731c-.8679657-.1577225-1.6984482.4165497-1.8596725 1.2827835-.0522995.2823486-.1045914.5629654-.1551437.8409576-4.3816605 23.9659119-1.8814621 30.1201324-1.8814621 30.1201324.3695145 1.6208954.8479233 3.2287292 1.4361572 4.7921295.1437836.3843231.2945862.7651367.4522781 1.1424866 2.9176331 7.00737 8.1002045 12.9663849 15.5677032 15.0753021 1.846611.5220032 3.6113052.8923798 5.299324 1.1241913 23.8221054 3.2644806 32.2648087-21.2478333 36.5497513-42.0189972.2744903-1.3289718-.6048279-2.6204604-1.9416351-2.8531493z" fill="#8c8eb6"/></g><g><path d="m98.4662781 158.9448395c-2.57164 1.2854004-3.7045364 1.5808258-7.059639 3.8648987-3.3542557 2.2823334-13.3925476 3.3324432-13.3925476 3.3324432-1.8690491 7.3385162-.3474655 10.5631104-.3474655 10.5631104s-.9390793 2.8024597-4.4769745 4.0095062c-4.1829758 1.427124-3.6530685 3.933609-11.2695808 6.8303528-7.6156654 2.8958435-17.2696342-1.7158966-21.9894524-5.2557526-4.7198219-3.5398712-2.1455345-7.1868896-2.6814728-11.585144-.5368309-4.3982391-2.2527237-7.6165314-1.7167854-12.5498199.5368309-4.9350739 4.5054436-13.7306671 7.1869164-17.4849091 2.681469-3.7542267 3.9694633-11.9066925 6.5437469-17.0552597.6265717-1.2540207 1.3176537-2.323288 2.1089401-3.24617 2.4574814-2.8696976 5.8884125-4.3320007 11.406456-5.5494232 2.1673203-.477562 4.0880127-1.0788727 5.7176514-1.6888962.0993195-.0365906.1978226-.0731888.2945404-.1106644 3.6740723-1.4047852 5.3516235-2.9002075 5.3516235-2.9002075 9.8739548.8795624 13.6827087-.6370316 13.6827087-.6370316 1.7524872.688446 4.0008698.9219971 5.3925629 1.4213409.2013092.0731964.3991318.1437912.5934677.2126389 4.1977921 1.4884491 6.8905869 2.2239609 9.292366 3.0039062 1.0448532.3389893 2.0348129.6866989 3.0700912 1.10849-4.3816605 23.9659042-1.8814621 30.1201248-1.8814621 30.1201248.3695221 1.6209106.8479309 3.2287445 1.4361572 4.7921448-.5054245-.2928162-.9463882-.7782135-.9463882-.7782135.2222062 6.9681702-3.7429198 8.2979889-6.3154601 9.5825348z" fill="#e55e4a"/></g><g><path d="m127.0474396 167.4824829c-.1036987.1045837-.2230988.1803894-.3590546.2283173-4.1855774 1.4649353-11.4056015-.6274414-18.8347626-3.5572815-5.3489838-2.109787-3.1433716-9.5006104-1.6732101-12.8705292 2.9176331 7.0073853 8.1001968 12.9664001 15.5676956 15.0753174 1.846611.5220032 3.6113129.8923645 5.2993317 1.124176z" fill="#e55e4a"/></g><g><path d="m96.0724106 50.3806038c-8.9376602-8.9376488-18.7267303-4.5751419-18.7267303-4.5751419-3.298317-1.2766266-6.7029114-.5325279-6.7032318-.5324593-10.0046997 2.1998787-18.6170273 12.0711784-23.2616158 20.7096481-7.0479202 13.10849-7.9411812 30.9778442-2.3408241 44.8165283 1.4493294 3.5813446 3.5589485 6.8682098 6.3319473 9.5689163.9777527.9524918 2.0444336 1.8457336 3.2043457 2.6832123 10.3206253 7.4483414 17.3437195 15.8535233 17.3437195 15.8535233 1.7080154-9.1529083-3.2880478-25.9266891-3.1294174-25.8857193 3.2832794-1.2553558 5.0404892-2.5821686 5.3774567-2.8504257-.0089188-.0032501-.0145111-.0053406-.0145111-.0053406 1.4474792-3.0762253 1.288887-5.6383209.8792877-7.2836227-3.7402802-.9159012-6.5855789-2.5812607-8.7415771-4.6701355-1.1485519-1.1119843-2.1019211-2.343338-2.891468-3.6452942-.0052338-.0087204-.0104675-.0174332-.0157013-.0261459-.0557861-.0923767-.1106758-.1847458-.1647148-.2779922-.0592346-.1010971-.1167641-.202179-.1734009-.3041382-.0548897-.0976105-.1089287-.1960831-.1621208-.2945557-.002594-.004364-.0043373-.0087128-.0060844-.0121994-.0557861-.102829-.1097832-.2056656-.1620789-.3085022-.054039-.102829-.105442-.2065353-.1568451-.3102341-.0418701-.0827866-.081955-.1664505-.122036-.2501068-.0182991-.0374756-.0365944-.0758209-.0540428-.1141663-.040081-.0845261-.0801659-.1699295-.1185036-.2553329-.0069809-.0148163-.013916-.0296249-.0200424-.0444412-.0418282-.0923767-.0836563-.1847534-.1237411-.2771225-.0418282-.094986-.0828056-.1908493-.1228867-.2858353-.0051918-.0139465-.011322-.0278931-.0165558-.0409622-.0435715-.102829-.0853996-.2056656-.1263351-.3084946-.040081-.0984726-.0784645-.1960754-.1168022-.2945557-.0060844-.0165558-.0130653-.0331116-.0191498-.0496674-.0322533-.0845337-.0645065-.1699371-.0958672-.2544708-.0043411-.0130692-.0095749-.0270081-.0148087-.0409546-.0365944-.1002197-.0731888-.2004395-.1089325-.3006516-.0296135-.0854034-.0601234-.1708069-.0888901-.2562103-.0191917-.0549011-.037487-.110672-.0557861-.1664505-.0993576-.2954254-.192585-.5925903-.2797318-.8888855-.0261269-.0871429-.051403-.1751633-.0758286-.2623062-.0095749-.0322418-.0182953-.0636139-.0270195-.0958557-.0270195-.0958633-.0531464-.1925964-.0792732-.2884521-.0008926-.0008774-.0008926-.0008774 0-.0017471-.6379318-2.1202469-1.0100479-4.3590164-1.1416168-6.2840652v-.0052338c-.0243797-.3538055-.040081-.6980362-.0479546-1.0283127-.013916-.5925903.0200844-1.1642685.0897827-1.7106705.4575157-3.5747147 2.444416-5.8823242 2.444416-5.8823242 10.0017052-5.8518295 11.4910469-10.7075806 11.4910469-10.7075806 5.9581146-8.9376488 9.5764008-5.6391907 9.5764008-5.6391907 2.7695084 7.1224136 17.1040649 15.9929581 19.1040726 17.2042847.1507645.0906296.231781.1385574.231781.1385574s.0183411.4026108-.0174026 1.3080597c.4235153 3.4910507.4444504 8.5080185-.4113464 11.1415558-.0191498.057518-.0383377.1132965-.0574875.16819-.0740814.2082825-.1655731.4522858-.2771378.726799-.0200424.049675-.0409393.1010895-.0618744.152504-.176033.4252701-.393898.9167709-.6570816 1.4570694-.026123.0531693-.0522919.107193-.0793152.1621017-.1655655.3355026-.3485794.6893158-.548996 1.0570755-.0244293.0444336-.0479126.0888824-.0731888.1333237-.2205048.3991318-.4610062.8148193-.7224426 1.2409592-.0453186.0740738-.0915298.1490173-.1385498.2248306-.152504.2431412-.3111343.4888916-.4766998.7372589-.039238.0592575-.0793228.118515-.1202545.1786423-.1533966.2265778-.3128815.4557724-.478447.684967-.0583801.0819168-.1176605.1638336-.1786346.2457504-.0462112.0636139-.0932693.126358-.1411819.1899796-.2091446.2806091-.4270096.5612183-.6544876.8418198-.056633.0714645-.1150208.1420517-.1742935.213501-.056633.069725-.1150131.1394424-.1742859.2091675-.0819168.0975876-.1646805.1952057-.2492294.2919235-.0696945.0810471-.1411438.1621017-.2134781.2440109-.0645065.0732117-.130722.1464081-.1969757.2187347-.045311.0505524-.0914841.1010895-.1376953.1507645-.3390045.3677521-.6945267.7320251-1.0666351 1.0893173-.0828094.0793076-.1664658.1586075-.2509689.23703-.0723419.0688477-.1455688.1359558-.2187576.2021866-.0252762.0235291-.0514069.0470657-.0775757.0705948-.0644684.0583801-.1289749.1158981-.1943359.1734161-.014801.0130615-.0296097.0261383-.0444183.0392151-.0592728.0522842-.1185074.1036987-.1786728.1551208-.1106339.0958557-.2230606.1908417-.3363724.2840958-.0017471.0017395-.002594.0034866-.0043411.0043564h-.0008926c-.9063034.7503128-1.8954163 1.4518433-2.9707794 2.072319-.9385605.5420532-1.942482 1.0222168-3.0152435 1.4204636-1.2241058 3.3965225-.2475281 6.8420486-.1596527 7.1373138 1.7858429.688118 5.9735565 1.6949997 5.9294739 1.7866211-.7168274 1.4991455-4.8654327 23.7681427 5.9852524 25.5926971-.2666702-7.3681641 1.2879944-14.7633286 3.3071976-22.763298 2.0043488-7.9415741 4.4662094-16.4801102 6.0557251-26.180275 3.1921306-19.4709395-4.1489949-28.6212271-13.0866475-37.5588797z" fill="#6767a4"/></g><g><path d="m77.7731552 165.6328278s-3.5911713 4.6835632-.1065292 11.072464c0 0 5.4298019-2.8749542 12.0307541-4.2592621 6.6010437-1.3833008 9.1561966.1063232 13.3084259-.63797 0 0 2.3240662.4050598 3.1401672-1.1362305 0 0 2.1311569-.1812592 2.4938889-1.6324005 0 0 1.8590469-.3635406 2.4031525-1.9949493 0 0 6.1667175 1.5868378 9.0233459.1812592 0 0-.9522095-1.1341705-4.3983078-1.9949493-3.4460907-.8617706-9.8848114-3.0379944-9.7487106-5.6688843.1360016-2.6298828 2.7658844-8.7058716.1360016-10.5641174 0 0-1.2243118-.771637-1.7684174.1356964 0 0 .2721024 3.3104095-.7708359 5.486618-1.0428467 2.1762238-2.765892 3.3549652-4.5796738 3.9898987-1.8136826.6349335-3.4459915.9519043-6.5747223 3.4460907-3.1286239 2.4941863-10.7224884 3.7063598-14.5885391 3.5767364z" fill="#f09997"/></g><g><path d="m146.8423157 91.2029266s16.8243103 22.0506668 36.0626984 3.4524841c0 0-11.9907684.6123962-15.7172852-4.3446503-3.7256622-4.9576569-.362854-4.6230164 1.2765198-3.7564011 1.6402283.8660126 9.8709412 8.4133224 17.2656403 4.6900406 0 0 4.1213226-3.4336472 6.572876-8.7192841 0 0-12.9619751 4.583847-16.1856689.3633499-3.2237091-4.2204971-3.099823-5.1505051 2.8152771-2.9961548 5.9142303 2.1549683 8.66716 1.9570999 11.8301239-.357254 3.1629486-2.3143387 3.8839264-4.4238434 3.8775177-8.7792892-.0055695-4.3560638.7466736-12.4796371.7218933-13.6730652 0 0-5.7584229-2.2027359-10.3258057-4.327034 0 0-5.1500854-1.5671082-6.6968536 4.9832573-1.5467224 6.5504417-3.361969 8.8948326-5.9622192 6.9181633-2.5993958-1.9773064-1.3532104-4.3860321.9136658-8.3794212 2.2677155-3.9940147 4.2532654-4.6753922 6.7456207-4.8269997 0 0-5.3755035-3.0758858-7.5313568-4.057518-2.1557617-.9815559-5.8902588 3.7050285-6.5592957 8.0976715-.6682434 4.3919334-.9096832 10.5055771-3.3691864 11.538887-2.4604187 1.0338287-5.2092896-5.8721466-2.2533264-10.5242615 2.9559174-4.6522102 3.8871765-6.8611374 7.946167-9.8294373 0 0-7.6656036-2.7119751-15.0370636 2.3078575-7.3713989 5.0199165-12.6982269 11.3302994-13.9915161 18.1456795-1.2933502 6.8152924-1.5731049 14.6901398 1.469162 17.7655945 3.0422514 3.0754549 6.1324156 6.3077852 6.1324156 6.3077852z" fill="#a1af7b"/></g><g><path d="m146.2640686 105.2537537s.4526672 6.7130432 2.5640717 5.9588165c2.1124115-.7543335.2268371-3.5451355-2.5640717-5.9588165z" fill="#a1af7b"/></g><g><path d="m79.1773148 89.2595367s5.9216537 1.8082123 9.8543396-.6328125c0 0-.4973221 6.373703-4.9272156 6.7804947-4.4299011.4067841-4.927124-6.1476822-4.927124-6.1476822z" fill="#fff"/></g><g><path d="m101.646431 169.238327c1.1655731.2317352 2.3337173.4871216 3.5061417.5690308.5707245.0349426 1.1421051.0266876 1.6499329-.1012421.4924469-.1226501.912056-.3583221 1.1930389-.7790833.1180801-.1886444.3711777-.2428589.5550461-.1165161.1620331.1106873.2150116.3213501.1329498.4930725-.9891815 1.9197998-3.7528534 1.4687195-5.4277191.8675842-.580101-.2153015-1.1426697-.4649048-1.6656036-.7991028-.0662233-.0427092-.0233689-.1527098.0562133-.1337432z" fill="#c14c40"/></g><g><path d="m103.902977 166.7820129c1.4711533.6621246 3.5010834 1.6442413 5.1144791 1.3651276.5236053-.1069489.9276657-.3991852 1.2209167-.8455963.116539-.1901703.3700638-.2467499.5550232-.1209412.1669083.1128082.2193298.3316193.1282501.5060425-1.3394241 2.442337-4.6392517 1.1210175-6.4102936-.0843964-.2655563-.1814728-.5226974-.3684387-.7681122-.582901-.0599289-.0523987-.0660629-.1434479-.0136795-.2033997.0442353-.0506591.1161194-.0627898.1734162-.0339355z" fill="#c14c40"/></g><g><path d="m105.5175552 164.4177399c2.4234543.875351 4.8772354 2.0062103 7.3981934 2.5571594 1.4994202.3394318 3.05336.544632 4.5883484.4067688.6947327-.0789795 1.3910599-.2190247 2.0378342-.4731598.2020187-.0781708.4291306.0221863.5073242.2241974.0753555.1947479-.0162811.4133301-.2039108.4987946-.6023788.2729034-1.2403793.4515533-1.883667.557785-3.0692444.4850464-6.4677963-.5277252-9.2824783-1.708847-.8700027-.3646393-1.7129822-.7941742-2.5091324-1.3005829-.2643738-.1721191-.5252991-.3463898-.7743378-.5476379-.1005783-.0839692-.019043-.2634278.1218261-.2144776z" fill="#c14c40"/></g><g><path d="m62.2600479 55.0656013s-1.1192894-3.7662239 2.163887-4.5479164c3.2831726-.7816391 3.2831726 2.487114 2.3877869 3.7662201 0 0 3.3577499-3.2688065 4.6262512-.7816391 1.2685013 2.4871178-.8953857 4.2636337-3.4323883 3.9083099 0 0 4.103981 1.5633354 2.6115799 4.1215477 0 0-3.3577499 3.4109001-5.5216904-.2131844 0 0-.4469528 3.3343277-3.573822 2.9145355-2.6135979-.3508797-2.5254326-3.2646866-.4808121-4.4016876-.3310509.1840973-1.4228287-.7425804-1.6455536-1.0020294-.4839973-.563797-.7168655-1.2741776-.6474228-2.0151443.1948167-2.0787925 1.8095933-2.4336052 3.5121842-1.749012z" fill="#fff"/></g><g><g><path d="m129.6712189 137.3171082c-2.5870667-.4686127-4.9868851-.9654694-7.1347351-1.4481506-9.8082199-2.2042236-16.6160736-4.5956573-16.6836929-4.6195831-.2106094-.0744324-.3210526-.305542-.2466507-.5162048.0744095-.2107391.305191-.3211975.5162888-.2466431.0672226.0237732 6.8388977 2.4019928 16.6031876 4.5956573 9.0036163 2.0227966 22.4658203 4.2979736 35.4704132 3.6500854.2235107-.0111084.4130096.1607819.4242096.3839111.0110474.2231598-.1607819.4130554-.3839417.4241791-9.9927979.497818-20.2447206-.716095-28.5650788-2.2232513z" fill="#fff"/></g></g><g><g><path d="m129.0498352 148.542099c-3.2307816-.5852203-6.1801071-1.2403412-8.7367401-1.8746033-9.2887878-2.3043823-15.5456772-4.84021-15.6078568-4.8655701-.20681-.0843811-.3060532-.3205261-.2217026-.5273895.0843582-.2069092.3208923-.3061676.527359-.221756.0616837.025177 6.2757645 2.5428314 15.5117569 4.8331146 8.5156631 2.1115723 21.4166183 4.4565582 34.5149155 3.6356659.2228699-.0138245.4150085.155426.4290009.3784637.0140076.2230072-.1554413.4150543-.3784332.4290619-9.268982.5809022-18.4331665-.4093932-26.0382996-1.7869872z" fill="#fff"/></g></g><g><g><path d="m129.6410675 146.3744354c-.3486938-.0631714-.6851349-.1658478-1.0030212-.3083496-1.1146927-.4996948-1.9126816-1.4251862-2.3076172-2.6764679-.3189697-1.0103149-.1708679-2.1420898.4061966-3.1052094.5581055-.9315186 1.4510117-1.5732117 2.4497147-1.7605743 1.5074463-.2828827 3.1817169.5963593 3.8948822 2.0450897.3861237.7842865.3992767 1.6885223.0360718 2.4808655-.3676453.8020477-1.0731354 1.3903351-1.9357147 1.6139832-.8501892.2206268-1.8392334-.0951843-2.4606934-.7857513-.5612793-.623764-.7215576-1.4124603-.4395447-2.1638184.247757-.660202.8417664-1.1009064 1.589035-1.1788635.7409363-.0772858 1.4590454.2163391 1.7865601.7307129.1592102.2502136.3634644.7746582-.0579376 1.4762878-.2050934.3414917-.5618286.586319-.9542999.654953-.5100098.0892944-1.02742-.1287689-1.2873077-.5427704-.2932739-.4674377-.178833-1.1168976.2480316-1.4303741-.2176208.0865021-.4461823.25354-.5665588.5743103-.2357788.6283569.076355 1.1082153.283493 1.3383331.4246216.4720001 1.0901794.6904602 1.6561737.543808.6259918-.162323 1.1374512-.5880432 1.4032898-1.1679688.2613831-.5701752.2517395-1.2212677-.0264435-1.7863617-.5494385-1.115921-1.8757782-1.8218689-3.0198822-1.6072235-.7713013.1446991-1.4656677.6481171-1.9048843 1.3811951-.4580917.7646942-.5778809 1.6561432-.3286133 2.445816.3234482 1.0247498.9690628 1.7792053 1.8669815 2.1817322 1.0227051.4584656 2.2968292.4127502 3.4954224-.1255951.2035675-.091568.4431763-.0005951.5347748.2032471.0915222.2038269.0004883.4432526-.2033234.5347595-1.045807.4697723-2.1505739.6161346-3.1547853.4342346z" fill="#fff"/></g></g><g><g><path d="m137.7326965 148.216629c-.0134888-.0024414-.0270233-.0055847-.0404968-.009491-1.4841156-.427887-2.6700897-1.3724976-3.2537689-2.591629-.5274353-1.1017914-.5380554-2.323761-.0306091-3.5337372.4097137-.977005 1.2542877-1.7449036 2.3170471-2.1067352 1.0280762-.3499603 2.1241302-.2625122 3.0071869.2401581 1.332962.758606 2.0422668 2.5118103 1.6499176 4.078125-.2123413.848053-.7868652 1.546463-1.5761108 1.9162292-.7989655.3742523-1.717392.3672028-2.5203094-.0198059-.7914429-.3815002-1.3418121-1.261673-1.3695984-2.1902161-.0250244-.8387604.3625488-1.5440826 1.0633545-1.9350739.6157532-.3435211 1.3538361-.2957916 1.974472.1277618.615448.4201202.9734039 1.1082458.8907013 1.7123871-.0401611.2938232-.2233124.8260193-.9983826 1.0888824-.377182.128006-.807663.0842285-1.1513977-.1170654-.4470673-.2616119-.7008057-.7625427-.6313171-1.2463989.0781555-.5460663.5852356-.9676514 1.1135254-.9310303-.2218475-.0744781-.5042572-.0948792-.8033752.0720367-.5860291.3269806-.6580353.8949127-.6487885 1.204361.0189209.6346588.3855133 1.2316742.9121704 1.4855194.5825043.2806854 1.2478943.2866669 1.8256378.0159607.5679932-.2661133.9815369-.7691193 1.1345978-1.3801117.3021698-1.2065125-.2536011-2.6026001-1.2652588-3.1783447-.6821136-.3882446-1.5373688-.4528809-2.3461914-.1774597-.8438416.2872925-1.5114746.8900452-1.8317719 1.6537018-.4155426.9909973-.4106598 1.9839478.014267 2.8714752.484024 1.0110321 1.485672 1.7996063 2.7481995 2.16362.2146912.0618896.338501.2861023.2766113.5007477-.0579987.2012635-.2585908.3226777-.460312.2861329z" fill="#fff"/></g></g><g><g><path d="m145.0925293 148.0325012c-.9305267-.1685181-1.7870941-.7080688-2.3878021-1.5142365-.6488647-.8707581-.9022827-1.9407196-.6952667-2.9355469.3124542-1.5014496 1.7630005-2.7150421 3.3740997-2.8228607.8724213-.0583649 1.7134705.2737427 2.307785.9112701.6016541.64534.8769836 1.5217438.7553101 2.4044495-.1199493.8703918-.7884369 1.664566-1.6635895 1.976181-.7905579.2815552-1.5808105.1292725-2.168045-.41745-.5161438-.480484-.6974335-1.1975708-.4849854-1.9181976.2106781-.7147522.7555695-1.2667999 1.3558807-1.3737488.2921448-.0519867.8547668-.0410614 1.3429565.6156311.2377014.3197327.3282471.7427979.2423096 1.1317444-.1115723.5056763-.5102081.9011078-.9920502.9837341-.5440826.0930939-1.1007996-.2598572-1.2281494-.7738342-.0028992.2341614.0645905.5090485.3153381.7424622.4910889.4573059 1.0537872.3513184 1.3452911.2474518.5982513-.2129822 1.0537567-.7452393 1.1335907-1.3243866.0881958-.640686-.1106415-1.2757111-.5456543-1.7423248-.4277802-.4587708-1.033493-.6977844-1.6619263-.6556854-1.2410126.0830536-2.3989105 1.0408173-2.6360321 2.1804047-.1598511.7683411.0413055 1.6020203.5519257 2.287262.5325928.7147827 1.3110962 1.1648712 2.1364288 1.2351837 1.0707397.0910797 2.0142059-.2186279 2.7282562-.8956604.8134308-.7711945 1.2561493-1.9667053 1.2147675-3.279953-.0071106-.2233429.1682129-.4100647.3915863-.4171143.2233429-.0068207.4100952.1682434.417038.3915558.0488281 1.5438843-.4858093 2.9626923-1.4667206 3.8926239-.8864441.8404846-2.0461121 1.2259369-3.3534698 1.1147461-.110382-.0093994-.2202453-.0240631-.3288726-.0437012z" fill="#fff"/></g></g><g><g><path d="m153.1270599 147.7348175c-.7229462-.1309204-1.379303-.5363007-1.8470459-1.1526337-.6297913-.829895-.8356476-1.9064636-.5646515-2.9537048.3731842-1.4418335 1.7482758-2.6847992 3.1987-2.8911743.7724457-.1099396 1.5098267.1364899 2.0226746.6761932.5692291.598938.7943726 1.463089.6176605 2.3707733-.1813202.9317627-.9423218 1.7787476-1.8506622 2.0597534-.6607666.2043457-1.2997742.0651093-1.7534027-.382309-.4489136-.4428253-.5754089-1.1291046-.3382874-1.8356628.2515564-.7493896.8382568-1.326889 1.4267426-1.4043732.254364-.0334167.7389069-.0035858 1.1219177.5739136.2004089.3021698.2588806.7089539.1562958 1.0881348-.1282501.4744568-.5035095.8659058-.9337311.9740601-.2646942.0665588-.5451813.0183868-.7696991-.1320343-.135498-.0908813-.2407227-.21138-.3091736-.351532.0085602.1761322.0631104.3624878.2142029.5115051.3047943.3007507.682663.2667999.9459839.185318.615799-.1904602 1.17276-.8101501 1.2956696-1.4413452.1260071-.6474609-.0234222-1.2520447-.4099426-1.6588135-.3352661-.3526154-.8049164-.5062408-1.3222351-.4325409-1.1271057.1603851-2.2381592 1.1675262-2.5293579 2.2928314-.2086182.8060303-.053421 1.6304474.4258575 2.2618713.4141083.5457306 1.024826.865921 1.6754761.8782959 2.086731.0399628 3.7310638-1.806488 3.8247986-4.2949677.0084381-.2232666.1961975-.3974304.4194489-.3890381.2238617.0084686.3975067.1962433.3890686.4195099-.051178 1.3577576-.5271454 2.6231232-1.3403473 3.5630188-.8637543.9983368-2.0387268 1.5347443-3.3084717 1.5104523-.1546175-.0029753-.3075105-.018341-.4574892-.0455016z" fill="#fff"/></g></g><g><g><path d="m120.9989243 144.6388702c-.2021484-.0366211-.3475342-.221405-.3306656-.430542.0180283-.2227325.2131119-.3887024.4358444-.3707123 1.2270584.0990295 2.3542328-.2527313 3.0924988-.9651184.6209793-.5991821.9269943-1.4105377.8850403-2.3463287-.0322571-.7195435-.4027481-1.421524-1.0165176-1.9259186-.6154251-.5057678-1.3844147-.7328949-2.1097107-.6230621-1.0483475.1586456-1.9651947 1.140274-2.0871658 2.234726-.0601196.53862.1260147 1.0742645.510704 1.4696655.4118118.4232788.9933624.6371613 1.5954666.5867004.5333252-.044632 1.0336685-.4252319 1.2450409-.9470825.0993195-.2451019.2084045-.7222137-.1766891-1.16362-.1130829-.1296234-.2414246-.2084351-.3693848-.2540283.3213577.2284241.5014191.6510162.4127808 1.0529633-.0985413.4470673-.4911804.8008118-.9769287.8802185-.3686371.060318-.7626419-.0425262-1.0539551-.2749329-.5972137-.4764557-.5907822-.9965973-.5338211-1.2642517.1151886-.540863.6394653-1.0201874 1.3045883-1.1927185.7004395-.1817627 1.3832779.0129852 1.8263855.5208435.4890823.5605621.6046066 1.2893066.3169327 1.9993744-.3231506.7975159-1.0976562 1.3800507-1.9273758 1.4495239-.8445511.0706329-1.6618958-.2314148-2.2429962-.8287964-.5540619-.569519-.821907-1.3435059-.7349319-2.1235199.1633453-1.4646606 1.3542633-2.7307892 2.7702255-2.9450531.9519577-.144104 1.9520874.1467743 2.7445068.7979431.7907562.6498413 1.2686157 1.5664825 1.3111572 2.5147858.0526886 1.1744843-.3386078 2.1997223-1.131485 2.9648285-.9053116.8735199-2.2610016 1.3070068-3.7194977 1.1893311-.0135575-.0010682-.0269013-.0028382-.0400467-.0052186z" fill="#fff"/></g></g><g><g><path d="m114.5562286 142.0301514c-.1019135-.0184479-.20298-.0415649-.3031158-.0693817-1.183136-.3286133-2.1057816-1.0677795-2.5979156-2.0812988-.5338821-1.0996704-.5344086-2.4618225-.001358-3.7372742.0861206-.2061462.3237228-.3031769.5292282-.2172546.2061462.0861664.303421.3231201.2172165.5292511-.4434967 1.0613098-.4498138 2.1809692-.0172806 3.0718689.3949509.8133545 1.1164627 1.3856964 2.0865707 1.6551361.7392044.2053375 1.5886688.0641479 2.2720795-.3774261.6301498-.4072418 1.0505676-1.0245972 1.1534348-1.6937103.1565094-1.0182495-.5344009-2.1777496-1.5728912-2.6397705-.5381927-.2393799-1.1442108-.227417-1.6633072.0327606-.5013199.2513428-.8592834.7067719-.9822464 1.249527-.1098557.4851837.1013947 1.0550079.5256195 1.4178619.3727951.3187866.82798.4056854 1.2486954.2383881.1752243-.0697021.2956772-.1746368.3782272-.2894135-.3167191.2625885-.8097992.3156281-1.1897812.0986023-.4039307-.2308807-.629982-.7080231-.5624466-1.1873474.0520477-.3689575.2736206-.7084198.5927887-.9081268.6599503-.4127808 1.1676788-.2244263 1.4114914-.0754852.4931564.3012695.7852936.96315.7269821 1.6469574-.0577469.6778564-.4533691 1.2261353-1.0584183 1.4666443-.6988144.277832-1.4739075.1373901-2.0734482-.3753662-.6563034-.5613098-.9659271-1.4293518-.7888031-2.2114258.1766357-.7798615.6900864-1.4338074 1.4086838-1.7941132.7362976-.3692169 1.5943832-.3871002 2.3548126-.0487061 1.3777771.612915 2.2564011 2.1184235 2.0437622 3.5019073-.1379242.8974915-.6897964 1.7177124-1.5140762 2.2503662-.7962647.5145416-1.7370148.70755-2.6245042.5468292z" fill="#fff"/></g></g><g><g><path d="m107.2905426 139.7454681c-.1403427-.0254211-.27948-.0618744-.4164047-.1095123-1.1179733-.3889771-1.9726562-1.2240143-2.4065552-2.3513641-.4090271-1.0626984-.4170074-2.2930145-.0226059-3.4643097.0712433-.2118378.3008423-.3253632.5125046-.2543335.2116928.0713043.3255463.3007507.2542419.5124817-.7083435 2.1037292.1206512 4.1644135 1.9283142 4.793396.575798.2002716 1.214035.120285 1.7494202-.2202759.5883484-.374176.9682083-.999176 1.0422287-1.7148132.1060104-1.0254822-.5288849-2.2129822-1.4453888-2.7034149-.4288177-.229599-.8867722-.2467804-1.2892303-.0489349-.4422302.2173309-.7494888.6630859-.8432083 1.2229919-.0925446.55336.1730347 1.215744.6313858 1.5750122.201828.1582184.5181808.3144531.8781509.159256.1100464-.0474548.191452-.1191864.2517242-.2017212-.0801926.0506897-.1697006.0883942-.2663116.1113281-.2516098.0597687-.5201721.0102081-.7368698-.1361542-.3492279-.2358856-.5556793-.7009277-.5136719-1.1572418.0338135-.3662109.2218246-.7027435.5028915-.9003143.5406723-.379776.9864807-.2353668 1.2039337-.1156311.4964142.2732697.8186722.9736938.7834778 1.7032013-.0327301.681076-.3625946 1.20578-.9048386 1.4395447-.5573273.2401428-1.1760025.1433868-1.6975937-.2654419-.6884308-.5395813-1.0709839-1.5039825-.9302597-2.3453217.1372299-.8201294.6053085-1.4819031 1.2842331-1.8156281.6336288-.3113861 1.3725891-.2890167 2.0279617.0616608 1.204834.6447144 2.0080109 2.1494141 1.8684464 3.5000153-.0996475.9631195-.6145706 1.8066406-1.412796 2.3143463-.6196289.3940582-1.3412323.5365142-2.0331802.4111785z" fill="#fff"/></g></g><g><path d="m64.5030518 75.9535141s2.1245651 3.5710602 5.8312149 4.4751663c3.7066574.904007 6.2831802-1.0397034 6.2831802-1.0397034s-.2711945-4.1134415-3.525795-5.6956253c0 0-4.4751663-2.0341339-8.5886001 2.2601624z" fill="#fff"/></g><g><path d="m70.8376236 73.3711395s-1.9757843 3.5504608 1.2599487 5.6542664c0 0 1.9217911 1.5428925 4.3748093-.1790848 0 0 .0583572-4.4914169-5.634758-5.4751816z" fill="#36284c"/></g><g><circle cx="74.751" cy="77.204" fill="#fff" r=".87"/></g><g><path d="m160.5670929 101.889595c-3.0543671-2.0840912-8.5814056-5.4355621-12.3342438.4837646 0 0-7.1337585-9.9321365-16.5558014 1.0310135-9.4220963 10.9633026.8018036 19.2815094 3.2388611 24.2471542 2.4358368 4.9653549 2.691391 11.2038956 2.691391 11.2038956s16.0000153-7.8195648 22.0582275-17.2940369c6.0570374-9.4742736 3.9571076-17.5877761.9015656-19.671791zm-26.3830719 14.9244995c-.7574768-3.6403885 4.7629242-4.4569016 4.7629242-4.4569016-.9154816 2.326233-4.0054474 8.0971375-4.7629242 4.4569016zm13.9834747 10.0972367c-2.1027069 1.7380219-3.2710266-5.6586151-3.2710266-5.6586151s5.3736878 3.9205856 3.2710266 5.6586151z" fill="#5d6a24"/></g><g><path d="m163.282608 127.1325455s2.6878357-.5631561 2.2936554 2.2364883c-.3950653 2.7985229-3.1222229 2.7274475-3.9587402 6.7437744 0 0 .7324677 2.0741425.7435913 5.0205231s-2.2310028 7.3437958-7.08284 10.5236969c0 0-2.3351746 1.6329346-2.7127686-.3088379 0 0 1.2933197-1.3140259 3.5527954-2.3622589 0 0-4.5846405 2.3381042-4.909256.2776031 0 0 1.4016113-1.8495331 4.9998474-3.1737823 0 0-4.2397156 1.0197296-4.3257294-.1477051 0 0 .0146179-.9493408 3.3665009-1.7615204 0 0-4.4772491.668396-3.02565-1.5567322 0 0 3.177536-.7996521 5.9243622-2.1701355 2.7478485-1.3703766 2.9346771-5.0995636 3.8419647-8.2737579.9071961-3.1732025 1.2922669-5.0473556 1.2922669-5.0473556z" fill="#f09997"/></g><g><path d="m159.3199005 146.691391c-.5821991.938324-1.9609985 1.7053528-3.0791779 2.2554779-1.2068024.5743713-2.5320587 1.0574493-3.9330902 1.2066193.2966309-.1105042.6468201-.2158203.9467926-.3417358.9138184-.3697052 1.7599487-.8264008 2.560257-1.3256683.6577148-.4139862 1.2902679-.8669739 1.9411316-1.2870941.3983917-.2655945.793457-.516571 1.2698669-.7122803.1770325-.0762178.3808442.0659789.29422.2046813z" fill="#c14c40"/></g><g><path d="m159.8827209 144.6192932c-.8615112.8337708-2.2501678 1.2192688-3.5750885 1.5247955-1.0278473.2322388-2.1113281.3824463-3.1854553.4044037-.0144653.0004578-.0266876-.0076599-.027298-.0181122-.0004883-.009079.0078125-.0167999.0194092-.019104.2086639-.0500946.4420471-.10112.6524048-.1482544.1303253-.0354614.501709-.1314545.6387482-.1667328 0 0 .4184723-.1214294.4184723-.1214294.5541687-.1660767 1.0977936-.3440704 1.6247101-.5453949 1.0711517-.4076233 2.0515747-.8645782 3.2444458-1.0995941.1508941-.0350189.2841186.0970154.1896514.1894226z" fill="#c14c40"/></g><g><path d="m159.7440948 142.0865173c-.4093933.4984131-.9904938.884903-1.6102753 1.2137299-.6170959.3291016-1.3122406.5549927-2.0233459.723999-.7065887.1567841-1.4543915.2713165-2.1898804.2686768-.1477203-.0001526-.2949219-.0028229-.4412384-.0082397.6148071-.2007751 1.1982422-.3817444 1.7770538-.6038055.9388885-.359314 1.8338776-.7899628 2.7567902-1.171402.4908905-.2074738.9872131-.4189758 1.5140839-.607605.1451721-.0608216.3064575.0762176.2168121.1846465z" fill="#c14c40"/></g><g><g><path d="m61.452919 60.1333389c-.1238022-.1104012-.126091-.3213387.0004158-.4882889.1347694-.1777687.3644524-.2383461.5130997-.1352654.8189507.5678139 1.8136292.7218552 2.7289925.4226151.769928-.2516785 1.4318924-.8041382 1.9143753-1.5976143.3709793-.6101189.4916687-1.3395081.3310623-2.0011444-.1610184-.6634369-.5838852-1.1563148-1.1601257-1.3521652-.8328552-.2831688-2.0227013.168911-2.7087021 1.0292435-.3376617.4233551-.4984703.9417038-.4412041 1.4221916.0613022.5143661.3580284.9220734.8141098 1.1184616.4039421.1740112.9683571.056057 1.4044762-.2935257.2048645-.1641769.5437012-.5170975.5113373-1.0359306-.0094986-.1523705-.0576782-.2685928-.1237793-.3570747.1036148.3168068.0003815.7388916-.2827454 1.0374985-.314888.3321495-.7879639.4704361-1.1770897.3441277-.2953453-.0958138-.5194054-.3371239-.5994606-.6453476-.1641235-.6318779.1252251-1.061142.3122978-1.2608032.3780861-.4034386 1.0135765-.5938721 1.5813408-.4738922.5979309.1263046.977211.5582047 1.014473 1.1551781.0411377.6589165-.2756424 1.3096237-.8690948 1.7852592-.6665878.5342064-1.5366478.7113037-2.1651039.4406166-.6396446-.275589-1.0558968-.8498039-1.1423454-1.5757027-.0824585-.69207.1506882-1.4406128.6396332-2.0537491.9181175-1.1512947 2.4587555-1.7310982 3.5836487-1.3486176.7563019.2570992 1.3087311.894371 1.516098 1.7485657.2069168.8524246.0451126 1.8025055-.4438019 2.6066055-.6055298.9958878-1.4452667 1.6921577-2.42836 2.0135612-1.1224556.3669052-2.3244858.1902695-3.2979088-.4846191-.00906-.0062561-.0175897-.0130043-.0256387-.0201836z" fill="#ff7061"/></g></g><g><path d="m148.2960815 102.4110413c-5.2063751 11.3783493-10.0032501 23.7978897-10.165863 36.4444275.0074768.6784363-1.0511932.7019501-1.0455017-.0001221-.0527344-9.7099762 2.5762787-19.2341232 6.4236908-28.0862579 1.2774658-2.9487915 2.7459869-5.8309708 4.6611023-8.4334564.047821-.068184.1654358-.0036164.1265716.0754089z" fill="#424919"/></g><g><path d="m195.6985474 57.4824562c-12.0376129 9.9069328-40.2675476 30.7548103-56.1725616 24.7767372 2.5555725.6600113 5.1922607.6686859 7.7615662.3473969 12.9669495-2.0537567 24.3708954-9.3943863 35.12854-16.5545731 4.2966309-2.9902191 8.5560913-6.0687714 12.6092377-9.3690872.5025023-.4319305 1.2135161.347168.6732177.7995262z" fill="#5d6a24"/></g><g><path d="m120.6513901 81.4773331c-5.4494934-1.4981918-16.7966766-3.1339111-20.3559036-2.331749 0 0 .2229691 7.5549622-1.1839142 11.3230209-1.4068756 3.768158-2.4324112 11.2765427 1.2599945 15.9271698 3.6924973 4.6506653 9.7558823 6.6144257 14.8998108 4.0963135 5.1439362-2.5181198 7.185257-9.6731186 7.1470871-12.5029526 0 0 3.997467 2.7312622 8.0750504-3.1961746 4.078659-5.9271316-4.3926392-11.8174362-9.842125-13.315628zm-11.9900131 19.579338c.1656113-3.1507416 7.6383057-.979248 7.6383057-.979248-2.9946977 1.2318878-7.8038255 4.1298599-7.6383057.979248zm12.8881454-7.0379104c-.0455322-3.2378693-.9740906-8.7753754 1.8954163-7.4639587 2.8695907 1.3115463-1.8954163 7.4639587-1.8954163 7.4639587z" fill="#a1af7b"/></g><g><ellipse cx="69.219" cy="85.115" fill="#ff7061" rx="4.663" ry="1.969"/></g><g><path d="m122.3930969 97.9447403c-5.4700165-8.0886078-12.9460526-15.1461487-22.2902145-18.3718567-.615654-.2334976-.2881012-1.1941452.3505783-.9831772 9.4929428 2.9409561 17.8685303 10.500824 21.9396362 19.3550339z" fill="#5d6a24"/></g><g><path d="m59.7078705 164.3916779c-.0065956.0049286-.902607.6923523-1.6273422 2.8345642-.0499992.1478424-.0787201.2575836-.0949745.3374786.5404892-.2980499 1.7967377-1.520462 2.5147934-2.4803772.4614296-.6165009 1.1401291-.9311829 1.9109917-.8848572.9735374.0578461 1.9200134.679245 2.4701614 1.6217194.0696564.1194.1378632.1868286.2027588.2004395.2127151.0445404.6548691-.2862854 1.0827255-.6060028.8783035-.6564484 2.0815735-1.5556335 3.6491776-1.2674255 2.2815247.4181519 3.3426361 1.2564392 3.6877747 1.5901947l4.8430862-.0205841c-1.5105133-.777832-3.2116623-1.6137848-4.8468552-2.0775452-2.1149597-.5998535-4.2573013-.9538422-6.4211731-1.3300934-2.3048096-.4007721-1.1725311-2.9562073-1.1263351-4.807312.0566025-2.2676697-.0288544-4.5367737.0655975-6.8038788.1361237-3.2672119-1.096138-14.1832428-4.1391296-18.0437012.0074997.0188904.0143166.0382385.0186996.0588531.0085945.0404205.8637962 4.1061554 1.239357 9.8364258.3468361 5.29245.3448372 13.1348724-1.634449 20.4409637-.0489769.1807251-.2250137.2921295-.4041557.2552948-1.7834625-.3660889-4.7929611-.55336-5.2764778.503006-.0371475.081192-.0704651.188736-.042038.2245026.2447128.3077087 1.9479256.2032776 3.6449661-.2234192.1627579-.0411682.3311348.0431366.400322.2002258.0692329.157074.0198745.3425904-.1174813.4415284z" fill="#c14c40"/></g><g><path d="m73.5039368 165.7374115s-6.4457245 4.3476868-1.3205643 15.3804626c0 0 3.4151001-.4990234 5.4832535-4.4125824 0 0-2.3485031-7.6048279.9418335-11.0756073z" fill="#ff7061"/></g><g><path d="m74.4513016 109.743309s6.120079 1.4602051 13.4301071-.2395706l4.5523071 1.3648911s-4.9973297 4.0995636-11.6408844 3.8781128-9.5962448-2.6281052-9.5962448-2.6281052z" fill="#ff7061"/></g><g><path d="m94.2195053 109.6913757c.7247314-3.0832748 1.5125122-6.1511612 2.1978912-9.243576.3961105-1.7871552.9614105-3.5635757 1.2647171-5.3709793-.0156403.0194244-.0304871.0388336-.0462341.0582504-.056633.0714645-.1150131.1420593-.1742859.213501-.0566406.069725-.1150208.1394424-.1742935.2091599-.0819092.0975952-.1646729.1952057-.2492218.2919312-.0697021.0810547-.1411438.1620941-.2134857.2440109-.0645065.0732117-.1307144.1464157-.1969681.2187347-.0453186.0505524-.0914841.1011047-.1376953.1507568-.3390121.3677521-.6945267.7320404-1.0666428 1.089325-.0828094.0793152-.1664658.1586075-.2509689.23703-.0723419.0688477-.1455688.1359558-.2187576.2021866-.0252762.0235291-.0513992.0470581-.0775757.0705948-.0644608.0583801-.1289673.1159058-.1943283.1734161-.0148087.0130615-.0296173.0261459-.044426.0392075-.0592728.0522995-.1185074.1036987-.1786728.1551285-.1106339.0958633-.223053.1908417-.3363724.2840881-.0017395.0017471-.002594.0034943-.0043411.004364h-.0008926c-.9063034.7503128-1.8954163 1.4518356-2.9707794 2.0723267-.9385605.5420456-1.9424744 1.0222168-3.0152435 1.4204559-1.2241058 3.3965302-.2475204 6.8420563-.1596527 7.1373215 1.6808472.6476669 5.4889603 1.5775986 5.8941956 1.7611008.1125106-.4727708.2417983-.9408799.3540343-1.4183351z" fill="#381952"/></g><g><path d="m56.3925209 83.1452332c.3554497 4.6726379 2.3432999 16.2028351 9.8614693 24.1459503-5.4231415-8.2355652-8.7669029-19.5654221-7.1684151-29.4610214.071949-.4454193.6486206-3.8861084 1.1480904-3.9631424-.9538994.1471176-1.910141.2694321-2.8691025.352272-.1824722.0157623-.3682861.0297012-.5555115.0427322-.3827095 2.2685471-.593502 6.5566864-.4165306 8.8832093z" fill="#8c8eb6"/></g><g><path d="m106.3093567 68.565094c-1.7820816-.1080627-3.5550995-.4484711-5.2463684-1.0175247-2.1187973-.7129211-4.1207581-1.7156372-6.0876846-2.7679672-3.9638443-2.1206741-7.8182297-4.4604301-11.4701157-7.0845795 3.0416336 7.069931 17.0096054 15.7136841 18.9820175 16.9082947.1507645.0906296.231781.1385574.231781.1385574s.0005341.0122299.0012131.034935c.0888062.0146637.1775208.0402832.2632828.0769577 1.243576.5318909 2.9197845.5201797 4.298027.341301.7834167-.1016846 1.6577682-.2865372 2.4467621-.5915527-.2583313-2.183342-.6965714-4.1982803-1.2850571-6.0782242-.7085037.081993-1.4315185.0823821-2.1338577.0398025z" fill="#8c8eb6"/></g><g><path d="m82.1254959 56.4701653c-.4350357-.1263962-.9572601-.126442-1.4217682-.0639648-1.16745.1570244-2.2845764.6054955-3.3152847 1.0853577-2.445694 1.1386375-4.5931778 2.9304924-6.2255478 5.0535545-3.8354263 4.9883804-8.3187103 8.8656845-14.8075333 9.8059845-3.6522522.5292587-7.0123482-.3492737-10.5401001-1.197464 3.057663 3.9857178 8.946125 4.2536774 13.5143471 3.4378128 3.3913536-.6056824 6.5670586-2.1028366 9.2532768-4.2506561 3.3394318-2.6701126 4.9884567-6.4358063 7.7380447-9.5629082 1.5816422-1.7988014 4.0276642-4.2510376 6.7110291-3.6218681-.2328949-.3598863-.5168533-.5726434-.9064636-.6858483z" fill="#8c8eb6"/></g><g><path d="m74.8612671 102.8117294c-3.3462753-.8194122-5.9756851-2.239006-8.0365448-4.024765.0193253.4577026.0323181.9157639.0410461 1.3738937.0814819 4.2784042-.1222763 8.8981476 2.4204407 12.5256119 2.8546753-1.1715164 4.3969345-2.3363113 4.7102814-2.585762-.0089111-.0032578-.0145111-.0053406-.0145111-.0053406 1.4474792-3.0762405 1.288887-5.6383362.8792877-7.283638z" fill="#381952"/></g><g><path d="m48.7473869 84.2970886c-.3489571 5.8460007-1.9843254 26.9745865 19.5556374 48.3572083-19.1778069-24.3050461-19.1569901-42.5368729-16.0837326-54.6350861.1383324-.5445633 1.2276268-4.7485962 1.7350502-4.7842941-.9690933.0681839-1.9367905.1052856-2.9012566.0930405-.1835213-.002327-.3700829-.0073242-.5579109-.0136261-.7206802 2.7715454-1.5740318 8.0720214-1.7477875 10.9827575z" fill="#8c8eb6"/></g><g><path d="m73.6954575 69.3796234c0 .6092834-1.3665924.2524185-3.3153534.2524185s-5.6377792 1.1086807-5.6377792.4993973 3.2276154-2.056839 5.1659164-2.258461c2.9865646-.3106613 3.7872162.8973618 3.7872162 1.5066452z" fill="#381952"/></g><g><path d="m92.1401672 69.0810394c0 .6092834 1.3665924.2524261 3.3153458.2524261 1.948761 0 5.6377869 1.1086807 5.6377869.4993973s-3.227623-2.056839-5.1659241-2.258461c-2.9865646-.3106613-3.7872086.8973542-3.7872086 1.5066376z" fill="#381952"/></g><g><path d="m84.2588806 75.4309235c-.3020706-1.1750946.2465286 4.6388397 2.1663437 6.5348587.2965317.2928619.3766251.7405853.2203827 1.1269684-.3506699.8671875-1.1901321 2.2133789-3.1015854 2.6745834 0 0 3.2456436-.0995483 4.1286392-2.7346115.3443146-1.0262451.486908-1.6472092-.5614853-2.0283203-1.671318-.6076889-2.7091598-3.9770737-2.8522949-5.5734787z" fill="#c14c40"/></g><g><g><path d="m101.1059265 75.5735245s-.002594.0052261-.008728.0148163c-.1027985.1673126-1.0805969 1.7219925-2.7877655 2.9917068-.8400955.6257019-1.8579254 1.181694-3.0343933 1.4692764-3.7063217.9036942-6.2832031-1.03965-6.2832031-1.03965s.2710114-4.1141434 3.5259094-5.6958389c0 0 .4932098-.2239609 1.3019485-.3660049 1.6139374-.2840958 4.4836578-.2440186 7.209549 2.5463867.0252762.026146.0514068.0522919.076683.0793076z" fill="#fff"/></g><g><path d="m101.271492 75.5883408c-.1028061.1673126-1.0805969 1.7219925-2.7877655 2.9917068-.9228592.0479279-1.9598846-.210022-3.0274124-1.0562134 0 0-2.2614441-1.4500961-1.462326-4.576004 1.6139374-.2840958 4.4836578-.2440186 7.209549 2.5463867.0226821.0313721.0453185.0618744.0679549.0941239z" fill="#36284c"/></g><g><circle cx="98.697" cy="75.629" fill="#fff" r=".87"/></g><g><path d="m88.9600525 78.9581833c-.3136215-6.8500061 8.3211594-8.5948868 12.2876129-3.7764664.0078888.0036926-.5379944-.0224915-.5366211-.0212173 3.2604294-3.403389 3.7625427-2.5478134.4742584.5539322-.1503677.1265869-.3798523.0988541-.4958267-.0600052-4.3138351-4.2547608-10.4593353-2.617012-11.7294235 3.3037567z" fill="#35284c"/></g><g><path d="m101.1635056 71.7277298c-.4019089.7797699-.8279114 1.554512-1.4336624 2.1913834-.1430664.1445465-.3761826.1456985-.520752.0026627-.3754272-.4902191.4936829-1.0934906.7739105-1.4635773.1992645-.1283799 1.1809235-1.3812562 1.1805039-.7304688z" fill="#35284c"/></g></g><g><path d="m64.5106583 72.1803207c.72155.6449432 1.3842316 1.3460083 1.9366989 2.1395416.1098404.1707458.060463.3981247-.1102676.5079803-.1505661.0968475-.3452759.0696716-.4644547-.0551224-.3265457-.3533783-.6046143-.7459717-.8814621-1.1382828-.1016388-.253456-1.2600098-1.6575392-.4805145-1.4541167z" fill="#35284c"/></g><g><path d="m76.5738831 79.4260864c-.9734726-6.015686-7.6212082-7.4765854-11.6540756-3.3046265-.1345749.1579132-.375.1740723-.5283279.0334015-3.1483574-3.2084503-2.7674332-3.7298431.5067291-.5274506.0012054-.0014267-.5440521.0251236-.5365906.0208893 2.7653732-3.324585 8.512619-3.8989105 11.177742-.1687927.818367 1.1632919 1.2204285 2.5763092 1.1335373 3.9451752-.0044251.0591126-.0908967.059082-.0990143.0014038z" fill="#35284c"/></g></g></svg>