<svg id="Слой_1" enable-background="new 0 0 230.3999939 230.3999939" height="512" viewBox="0 0 230.3999939 230.3999939" width="512" xmlns="http://www.w3.org/2000/svg"><g><circle cx="113" cy="108.789" fill="#ffd394" r="66.034"/></g><g><path d="m123.1407547 52.0389061s-8.6256409 5.8267136-10.890892 13.2256737l-1.2033768 5.8503723s-3.2402039 3.1208191-7.1611328 4.5080414c0 0-.6095657 2.0347061 1.0457153 4.347023l-1.513504 4.2675247s1.7994614 1.7766495 5.6066437 2.1320648c0 0-1.7153473 6.039917-6.5270004 4.1748428 0 0-1.3388824 7.5946426.8370514 10.1259079 2.1755371 2.5316925 7.6639938 3.3446274 9.8395309 3.1669159 9.7630997.3894577 12.2476883-1.0656662 13.1795807 8.0549698.5170517 2.2947464-.8796844 8.2391129-.8796844 8.2391129s8.267189 2.2373352 12.4268112.4708939c0 0-1.6476593-9.2537231 2.5227814-14.9871216 4.1704407-5.7329712 6.221817-10.160347 5.4696655-16.4013596 0 0 4.0513306-1.8284302.8887177-6.6767731 0 0-10.0502319 1.9594574-12.2381744-2.0321579-2.1875458-3.9916077-.8202362-8.1281891.1369629-12.9907379.9572142-4.8624573-1.3376772-16.7258606-11.5396959-15.475193z" fill="#f09997"/></g><g><path d="m119.3911133 75.6895828s-1.9958191.390274-4.4287872-.0044632l-.0008392-.0001831c-1.1104279-.1805496-2.3129578-.524231-3.4580765-1.1430969 0 0-.0145798-1.7112122 1.6756973-4.2770615 0 0 1.3896637 2.1491241 3.2449875 3.7592621.913063.7934036 1.9387741 1.455719 2.9670181 1.6655426z" fill="#fff"/></g><g><path d="m90.424202 72.0062256c-.1415634.0461349-.2654724.1472549-.3381271.2906647-1.8159485 3.5737991-3.5450439 7.1928253-5.1619034 10.8603592-1.144722 2.5963974-2.2753143 5.2403564-3.0139847 7.986145-.0877228.3282394.0998077.6666412.4284973.7547607.3282623.08815.666214-.0997696.754364-.4280396.7186508-2.6872101 1.8405151-5.2755356 2.9458847-7.8213196 1.5878296-3.6564636 3.2808838-7.2728653 5.084137-10.8278275.1461258-.2873154.0304031-.6348038-.2564621-.7805328-.1438675-.0730514-.3004456-.0808105-.4424057-.0342101z" fill="#474f1a"/></g><g><path d="m87.5708389 62.630043c-.3095016-.0899162-.6275024.0894508-.7176361.3986092-1.6826935 5.7773933-3.278656 11.5744362-4.7164688 17.4170952-.5271683 2.1431122-1.0424347 4.3032379-1.4611969 6.4701614-.2542267 1.3149414-.4944305 2.6443481-.5445938 3.9856567-.0127563.3401031.2444458.6253738.5841293.6377029.3401108.0127563.6253815-.2580566.6377106-.5977402.0616455-1.7103271.4361877-3.4061966.7839508-5.0752869.4115295-1.9751892.8876877-3.9520721 1.368515-5.9119568 1.3668137-5.5684433 2.8632965-11.1009979 4.4639359-16.6067772.0901336-.309162-.0892792-.6275061-.398346-.7174643z" fill="#474f1a"/></g><g><path d="m80.6223984 71.9299088c-.3205566-.03022-.6075211.2109146-.6377029.5313416-.353714 3.7339783-.5939178 7.4896393-.6513138 11.239769-.0365601 2.4177551-.0752487 5.0425491.5314178 7.3999329.0854568.3290558.4149399.5237656.743988.4383163.329483-.0850296.5237732-.4281158.4387436-.7571716-.2720871-1.0454102-.3639145-2.1261139-.4251328-3.2017059-.073555-1.2881622-.0786514-2.5763321-.0663223-3.8661957.0352859-3.7190933.2363739-7.4432983.584137-11.1466599.0306091-.3205567-.1972656-.6073533-.5178146-.6376267z" fill="#474f1a"/></g><g><path d="m90.2697983 72.9861374s-2.593071-5.6593475 2.2646332-8.6367111c4.8576965-2.9773636 7.4685059-3.6692467 9.0053329-4.5453911 1.5372543-.8761139-.8586044 6.0963707-2.7561874 8.6289177-1.8980027 2.5324631-5.0263443 5.3983459-8.5137787 4.5531845z" fill="#fff"/></g><g><path d="m86.4357758 66.6263733s-2.1857376-3.4971695-.8461075-7.5444298c1.3393402-4.047184 3.4311447-6.0173874 3.8914795-7.4066887.4606323-1.3893394 1.5091476 6.4620171.7671356 9.0006523-.742302 2.5386734-1.8343964 5.7396813-3.8125076 5.9504662z" fill="#fff"/></g><g><path d="m80.5729294 73.8262711s3.8326569-2.9105072 2.5631332-7.7173767c-1.269516-4.8068314-3.0719147-7.0168381-2.8651886-8.0000496-.4963531 2.692421-.8793259 6.1271629-1.8230743 8.6395683-1.4669419 5.2482681 2.1251297 7.077858 2.1251297 7.077858z" fill="#fff"/></g><g><path d="m80.5822678 65.490242s-.9648743 5.1181183-.2786636 8.105278c0 0 .677536.7980804.9263382-.2710953z" fill="#ffd394"/></g><g><path d="m88.1704788 57.5004349s-2.1038208 4.7644958-2.1151123 7.8295593c0 0 .4786453.9311066.9637146-.0533829z" fill="#fada79"/></g><g><path d="m96.7041245 66.3959351s-4.2579117 2.9998322-5.8463745 5.6211929c0 0-.0696487 1.0444565.8536835.4507675z" fill="#fada79"/></g><g><path d="m80.9798813 91.7242661s3.9926147-6.1480179 9.9385223-6.2762451 6.632576.8868332 7.5261612-.2635193c.8931732-1.150795-2.7097855 7.0153122-6.7154312 6.6623993-4.0060959-.3524933-8.776947-2.3097153-10.7492523-.1226349z" fill="#a1af7b"/></g><g><path d="m81.3199997 91.7463531s-1.6543198-9.8706055 6.1081619-18.6829224c0 .0000001 2.951149 7.7934419-6.1081619 18.6829224z" fill="#5d6a24"/></g><g><path d="m79.9046936 96.9738693s4.3013306-11.5750122-.7866211-20.2459869c0 0-5.5280838-7.3442764-5.5584793-9.707634 0 0-1.9827805 10.0390549 1.7662964 15.9021149 3.7490845 5.8626709 4.8599548 10.6174087 4.578804 14.051506z" fill="#a1af7b"/></g><g><path d="m79.9763336 86.1049957s-3.307045-8.7602234-8.9823303-15.13871c0 0-.4944305 10.3109818 8.9823303 15.13871z" fill="#5d6a24"/></g><g><path d="m79.3414001 85.8261108s-1.5551529-5.2855759-8.1511154-6.021286c-6.5960999-.7357178-6.9837494-.3159637-8.003212-2.3584061 0 0 1.957077 6.5870209 7.1240692 6.369278 5.166977-.217308 9.0302582 2.0104141 9.0302582 2.0104141z" fill="#5d6a24"/></g><g><path d="m81.4711304 91.9808273s4.1653061-13.5077667 13.0693817-15.1246414c0 0 1.2840576-.2953033 4.8244781.4699478 0 0-2.6792831 5.2374725-7.0359116 5.9477844-4.3566131.7103196-9.8462753 5.7914582-10.8579482 8.7069092z" fill="#a1af7b"/></g><g><path d="m70.0616989 129.8181763s-9.9086227-9.0184402-6.454174-23.8727188c0 0 1.7107506.0778046 1.9440269 1.7885513.2333145 1.7107468 2.0995331 12.5972366 3.4214935 11.8196564 1.32193-.7775727 1.0886536 10.2645111 1.0886536 10.2645111z" fill="#e97c77"/></g><g><path d="m70.2952652 152.4936981-4.5080643-7.9555817s7.2482452-6.0105896 12.81707-8.4857483l7.4250183-2.5631409s11.6678848 20.1536102 17.0598907 23.512619l1.149147 9.7228851-17.502037-2.5631561z" fill="#525289"/></g><g><path d="m60.4870949 87.1606903c-.3527603.3253174.0615501 19.9033051 1.0420189 24.138092.7591972 3.2790833 2.3132362 6.3478699 5.475914 7.8871841 2.7785339 1.3524094 5.8061447 2.009697 8.8260193 2.392189 2.5219421.3194351 5.5590286.9395905 8.0293198.2456665 3.9863434-1.1197968 5.7794724-5.4231644 7.3333054-8.8760529.6711273-1.4913559 8.4653702-19.1699219 7.3647385-19.3558502-.0061723-.0010451-38.0711786-6.4313582-38.0713159-6.4312285z" fill="#381952"/></g><g><path d="m86.5658112 134.9342651s-.40728-4.562149 1.5479202-10.9974442c1.9547806-6.4357147-.1367874-12.085434.0812073-13.9304581.2725143-2.3064728-2.4697495-2.4971466-2.3653641.425621.1884155 5.2757721-1.8821793 7.8152313-1.8821793 7.8152313s-1.9403305-8.9810181-2.593338-11.6687241c-.6525879-2.6877213-1.545372-7.4398956-3.054184-7.2511368-1.5092316.1887589-.6266556 3.7207947-.2015152 9.482254 0 0 .5216446 6.8213196.521637 6.8212814-1.1182632-5.3988724-2.1507034-10.8691177-3.8606491-16.1160965-.0417709-.1281891-.0886993-.2639771-.1935196-.3483505-2.1682892-1.7453003-1.5526733 7.4504013-1.5008316 8.0174408.2445374 2.6741028 1.2439499 10.2657776 1.515274 11.5637207 0 0-2.4246902-13.7195892-3.5125656-15.0447464-1.087883-1.3251495-1.6559143.2533875-1.5497971 1.4140091.1061172 1.160202.3281631 4.7015839.5674744 6.2061462 0 0-.2863312-3.6880569-1.5979614-3.0082626-1.3116302.6793594-.4864502 6.1654816-.2482376 7.858223.3499298 2.4866943.2517624 7.7617264.1837387 9.2433319-.0680618 1.4815979 1.0302353 5.1467133 2.5587311 6.8383179 1.52845 1.6920471 5.0683975 7.575943 5.5832367 9.3096619z" fill="#f09997"/></g><g><path d="m131.0580292 87.6021881s-7.5844421 4.203331-9.1374741-4.4771194c-1.5534439-8.6805725 4.8427429-11.3304443 6.3047867-16.4473953 1.4620514-5.1169472-2.2386932-14.6324234-8.3152542-11.878624 0 0 9.892067-6.4986534 11.2389145 10.4166641-.4565887 8.9546585-5.8477478 7.9495468-6.4871521 16.2645035-.6398392 8.3152542 6.3961792 6.1219711 6.3961792 6.1219711z" fill="#e55e4a"/></g><g><path d="m111.5630951 67.9205246s.5484314.5482559 3.4725189 0c2.9236679-.5482178 6.0305634-.9137421 7.8578033 1.9188538l.9888763 1.2755432s.5675583-2.8756256-3.708046-4.5026703c-4.2756042-1.6269989-6.5488129-.5869446-7.340416-.7189102-1.1351164-.1891785-1.6329496 1.2165756-1.2707365 2.0271835z" fill="#c14c40"/></g><g><path d="m138.8495636 120.2721481s-5.3919983.8239136-10.9085846-.1067123c-5.5169907-.9306259-5.4165573 1.1159973-5.4165573 1.1159973l1.0963211 5.7963028s.3320312 3.9881821-2.8581467 7.0453262c-3.6883087 3.5345154-7.7404251 6.8602905-12.2594299 9.2662659-2.68647 1.4303131-4.9064484 3.786911-5.9565125 6.664444-.6835175 1.8730469-.8545837 3.8935394-.6601868 5.8699341 0 0 .598175 5.3176117.863884 6.7133331 0 0-13.9355698-24.7965393-15.1986465-29.1831055 0 0-15.2691803 9.1906128-22.1549911 16.9276733 0 0 12.3789673 21.9655457 31.1797943 34.7383728 0 0 8.6651459 7.5117493 15.0094604 3.4886627 6.3443146-4.023056 20.2705231-25.7637177 24.448349-31.4890289 0 0 8.6655731.0773773 14.545639-8.0465698 5.8800659-8.1235199 1.9339447-17.3302765-5.9574432-21.7406464 0 .0000001-4.814682-4.7589797-5.7729492-7.0602493z" fill="#6767a4"/></g><g><path d="m129.1330261 134.6524048s-16.673439 18.1903229-24.6200943 28.0926056c0 0 3.8678894.6190186 3.5044022 1.3987122-.519516 1.1151428-2.0228043 1.0896149-3.5685959.0535736 0 0 1.3519287 2.1048431.1190338 2.4364471 0 0-2.2192154-1.4488525-2.2672577-3.7382202 0 0 .4655304-1.0224609 4.1650696-5.309967 2.4428329-2.8301392 6.2945709-7.0832062 12.3532028-13.404129 4.0562287-4.2322541 10.3142395-9.5290223 10.3142395-9.5290223z" fill="#381952"/></g><g><path d="m144.6968994 143.2399902s-7.2936401 11.2675781-8.6625824 13.8796234c0 0 2.0347748.1036224 2.6000366-.5246582.7584534-.9739837 6.0625458-13.3549652 6.0625458-13.3549652z" fill="#381952"/></g><g><path d="m59.6948204 84.4824066s8.1372948 2.4453735 14.2624702-1.6541061c0 0 6.3317413-1.7037582 6.8136292 3.4591827.4819107 5.1625137.368866 5.9242096.368866 5.9242096s-2.315979-3.7537842-6.458847-3.2442093c-4.1429673.5095673-12.8520814.3014298-14.9861184-4.4850769z" fill="#a1af7b"/></g><g><g><path d="m78.9624023 93.6712799c-.0447617-.0628738-.1126404-.1052322-.1889038-.1178131-.0761414-.0125656-.1541595.0057831-.2167206.0509796l-6.0433426 4.3638992c-.1297302.0936737-.1589508.2747726-.0652695.4045029.0936737.129715.2747726.158989.4045029.0652771l5.8068771-4.193161 4.4813385 6.2938004c.044632.062706.1096497.102272.1796265.1161423.0755005.0149689.1567841-.0000076.2244263-.048172.1303558-.092804.1607819-.2737198.0679703-.4040604z" fill="#fff"/></g><g><path d="m92.0469513 95.7709198c-.0936813-.1297302-.274765-.1589737-.4045029-.0652695l-5.8068771 4.1931534-4.4813385-6.2938004c-.092804-.1303711-.273735-.1607513-.4040527-.0679703-.1303558.0928116-.1607742.2737198-.0679626.404068l4.6504974 6.5313873c.0429459.060318.1072769.101799.1796722.1161499.003067.0006104.0061417.0011673.0092316.0016708.0761414.012558.1541595-.0057907.2167282-.0509796l6.043335-4.3639069c.1297301-.0936659.1589584-.2747725.0652694-.4045027z" fill="#fff"/></g><g><path d="m95.8795776 99.9225922c-.1449814.1320724-.2895203.26194-.4339447.3895416l-2.2717667-3.1902847-5.8067017 4.1932373c-.129776.0934067-.3107605.0644226-.4044952-.0654068-.0937195-.129837-.0644226-.3107681.065094-.4045563l6.0433426-4.3639069c.0627518-.0449905.140564-.063385.2168427-.0508728.0760345.0121002.144043.0547943.1889801.1178513z" fill="#fff"/></g><g><path d="m96.9545898 98.9181061c-.1418762.1363068-.2833786.2706985-.4241943.4032745l-1.8891907-2.6533508c-.092659-.1302795-.0624161-.3110199.0679245-.4039764.1305847-.092598.3113251-.062355.4042969.0679932z" fill="#fff"/></g><g><path d="m63.2610779 90.7529449-2.3922539 1.7276306c-.0708427-.1873322-.1394157-.3761673-.2054024-.5664673l2.2581978-1.630806c.1298294-.0937271.3110695-.0643616.4045486.065094.0937234.1298295.0646783.3111268-.0650901.4045487z" fill="#fff"/></g><g><path d="m69.3388062 98.0611115c-.0676575.0483017-.1490784.0633316-.2245483.0483704-.0700989-.0138931-.1350708-.0536728-.1794357-.1162949l-4.4813309-6.2937241-3.007679 2.1717682c-.0816307-.1792831-.160984-.3600922-.2380104-.5427246l3.1429367-2.2696686c.0624161-.0450592.1405487-.0633698.2165222-.0509415.0763474.0121689.1443558.054863.1889725.1178513l4.6504974 6.5313873c.0926589.1302796.0623474.3113251-.0679245.4039765z" fill="#fff"/></g><g><path d="m77.0853882 93.0756454c-.0936432-.1297226-.274765-.1589355-.4045029-.0652695l-5.8068924 4.1931686-4.4813232-6.2938004c-.0927963-.1303711-.2737274-.1607666-.4040604-.0679703-.1303482.0928116-.1607742.2737198-.0679626.404068l4.6504974 6.5313873c.0429459.060318.1072693.101799.1796722.1161499.0030594.0006104.006134.0011673.0092239.0016708.0761566.012558.1541595-.0057907.2167282-.0509796l6.0433502-4.3639221c.1297303-.0936659.1589509-.2747724.0652696-.4045027z" fill="#fff"/></g></g><g><path d="m123.6207428 127.0777359-1.0963211-6.2967911s.9410553-1.5278015 5.4165573-.615509c4.4755096.9122925 10.9085846.1067123 10.9085846.1067123l3.9240875 5.1376801s-16.6434402 5.5481796-19.1529083 1.6679077z" fill="#8c8eb6"/></g><g><path d="m69.1092224 156.2639008-3.7125092-5.8822937s11.9124374-11.8998566 22.1549911-16.9276733l2.9657516 6.5253906c.0000002-.0000001-16.4602583 7.6630401-21.4082335 16.2845764z" fill="#8c8eb6"/></g><g><path d="m104.6144638 85.0732727s-.884964 3.3112717-.7907562 5.7147675c0 0 3.4857788 1.0699921 5.2005005-4.4184341 0-.0000001-2.3000412-.2762071-4.4097443-1.2963334z" fill="#fff"/></g><g><path d="m141.2826691 98.6389999c-.8560181.433136-1.8554688.4428101-2.6604919-.0438919-3.3459473-2.1298676-2.3665466-9.8023071 1.4023438-11.0274277.7728424-.2321625 1.5920563-.0730209 2.2645569.376297.0261841-.0417557.0560455-.081955.0909424-.1192932.0569763-.0609055.1109467-.1202698.1638184-.1779938-.1621399-.1392822-.3361511-.2676086-.5237122-.3823471-1.7476501-1.020668-3.7534027-.1014252-4.9035492 1.367836-.9133301 1.1326752-1.4312134 2.5332031-1.6188965 3.9615021-.1742401 1.432457-.0215454 2.9136353.579422 4.2393646.7471161 1.7090912 2.4562836 3.098732 4.4024048 2.5492401 2.35112-.7195511 3.5316315-3.4138412 3.8215179-5.6700516-.2572938 1.9406434-1.2182008 4.003029-3.0183564 4.9267655z" fill="#381952"/></g><g><path d="m119.5058746 54.9710159s9.0528259-5.1150169 12.4046173 2.3702431c3.3517761 7.4852104-1.4522705 16.869854 1.4522705 22.6789207 2.904953 5.8095016 9.0494537 3.239975 12.2894287 2.7931519 0 0 3.8253784 1.834465.0442047 6.3247604 0 0 1.8119354 8.6651459-6.4595184 17.0152588-8.2714691 8.3505402-.2363739 15.7555695 2.363327 19.2217178 2.5997162 3.4661331 15.2267151 8.5775528 9.8363953 19.9920578-5.3903046 11.414917-15.3757324 11.7320709-15.3757324 11.7320709s-16.8606949 20.504364-19.3974915 26.7402649c0 0 3.1710968-1.3740387 7.9271011.9510345 4.7560043 2.3255005 17.9679794 6.4472046 31.2849808-1.6907654 13.3174133-8.1383972 18.285141-16.6997986 19.0248718-31.1795349.7397308-14.4797516-12.7889709-18.8131714-8.8781281-29.4883575 3.9104004-10.6747589 10.8860474-14.5855942 13.7399902-19.7646179 2.8535309-5.1785889 5.2219543-13.5304031 2.4071198-22.2104263-2.8152466-8.6800613-9.5013733-13.2546616-9.5013733-13.2546616s-6.8030396-4.809185-7.6244049-10.4394455c-.8209381-5.6302605-6.8876343-12.9144669-16.0365906-15.3777122-9.1493681-2.4632415-25.3423766.6174507-29.501068 13.5860405z" fill="#c14c40"/></g><g><g><path d="m155.0134888 74.5994949c-.9063416 1.0716782.9526978-2.15271-.3392639-2.6724472-1.0115509-.4067612-1.7805939.3568878-2.3351746 1.0747604-.164505.2132568-.164505.8253937-.4025726.7000198-.673172-.3546982-.7654572-3.8838577-3.2259216-2.2319565-.6860962.4607468-1.7159271 2.2038498-1.3084564 3.0774307.1087799.2337875.8653259.5023727.6089783.4756012-1.2879639-.1342926-5.4433899-1.2238159-4.7350006 1.9782715.3798523 1.7163773 2.44664 2.2209778 3.9120178 1.9738083.2550201-.0432739.7315979.0896759.7583466-.1682053.0459137-.441246-2.2108002 1.2987747-2.2874756 1.4098663-.672287.9690552-1.4243774 2.8616638.033432 3.6295013 1.1011658.5795593 3.0217285-1.4196777 3.3382721-1.2175674.4747925.3024979-1.2153015 3.6192398.6004944 4.5124512 1.1426392.5621643 2.9900818-1.3808594 3.3672485-2.2856674.2425232-.5822372-.2715149-1.8341599.3579865-1.8582535.1016541-.0040131 4.303894 3.8115387 5.4273376.0718307.2616882-.8700104-.3557587-1.794899-1.0008545-2.2472992-.2202301-.1543732-.8104858-.1575012-.6994781-.4024353.2616882-.5777817 4.0462036.6286316 3.7408295-1.9171524-.3392639-2.8241882-2.9873962-1.3929062-4.1139832-2.4070282-.4685518-.4220655-.4828187-2.9312666-1.6967622-1.495529z" fill="#ffd394"/></g><g><path d="m150.6248932 71.349678c.0708771.0655823.1350861.1440201.1952667.2230759-.0619659-.0810242-.1221466-.1565552-.1952667-.2230759zm.1952667.2230759c.065094.0858002.1261749.1681137.1809998.2649307-.0543976-.0967254-.1159058-.1786422-.1809998-.2649307zm3.3712463.2230835c.2135468.0026779.4208527.066124.6268158.2091599-.20195-.1403656-.4128265-.2066651-.6268158-.2091599zm.6268158.2091599c.2335968.1620407.2986908.6300659.3067169 1.1154861.0575104-.4367905.0396882-.8749161-.3067169-1.1154861zm.306717 1.1154861c-.0352173.2659149-.0918427.5434189-.1395416.7388382-.050827.210144.0280914.7388382.0280914.7388382s.1225891-.7638245.1114502-1.4776764zm-.1114502 1.4776764s.9669647-.3435364 1.1283569.0557709c-.1613922-.3993073-.4605255-.6455917-.8497314-.3346176-.1230469.0981521-.2786255.2788467-.2786255.2788467zm-.9754334-2.7604752c-.1605072.0183868-.3196564.0427017-.473465.1115417.1524659-.0700912.3143006-.0928954.473465-.1115417zm-.6963806.2927704c-.2563324.1570511-.5291595.3145447-.7106171.5157623-.0405731.0450592-.0895996.1075211-.1390991.167305.211319-.2538604.5332031-.4845275.8497162-.6830673zm-1.9227905.6554108c.0218353.057106.0481567.1276016.0699921.1811371.0503845.1262665.2822113.723671.445816.7388382-.2839813-.2065659-.3927612-.6072235-.5158081-.9199753zm.5158081.9199753c.131073.0124969.1850128-.0811996.2229004-.1949692-.0530396.1374206-.1310578.2618942-.2229004.1949692zm.5153656-.85038c-.0428009.0522003-.0798035.1110992-.1114655.1534805-.048584.0642471-.0735626.1334-.0976257.2092514.047699-.1503601.1110077-.2431564.2090912-.3627319zm-7.384018 1.8823471c-.0294342.0017853-.0543976.0116043-.083374.0138321.2804108-.0218658.5202637.0107117.7939911.0281067-.2492065-.0160599-.4591827-.057106-.7106171-.0419388zm.7106171.0419388c.3909912.0245361.8131714.0410461 1.1145325.0834351-.0887146-.0124969-.1756439-.0307846-.264801-.0419388-.2358399-.0294495-.5568238-.023201-.8497315-.0414963zm-1.6298981.1392059c-.2754974.1052933-.5108948.2552032-.6825409.4880981.1720887-.2333449.4048005-.3819121.6825409-.4880981zm-.6825409.4880982c-.1395416.1882782-.2046204.414032-.2371674.6411285.0320893-.2288818.0962983-.4510727.2371674-.6411285zm-.2371673.6411285c-.0102539.0749512.0017853.1472321 0 .2230759.0022278-.0749512-.0102539-.1485672 0-.2230759zm0 .2230759c-.0031281.1177902-.0267487.233345-.0138245.3484497.0035706.0316849.0236359.053093.0280762.0838852-.0200501-.1418839-.0178223-.2873306-.0142517-.4323349zm.0142517.4323349c.0044708.0321198-.0053406.0660324 0 .0977097.0200806.1191177.0914001.1980896.1252899.3065033-.0423584-.1338425-.1043243-.2560883-.1252899-.404213zm.1252899.4042129c.065979.210144.1252747.4243011.2367249.5996399-.1110077-.1731109-.1711884-.3881607-.2367249-.5996399zm.2367249.5996399c.0780182.1218033.1818848.2172775.2786255.3207932-.0958405-.1044006-.2014924-.1994324-.2786255-.3207932zm.2786254.3207932c.1261749.1369705.2505646.2681351.4039154.3761063-.1520233-.1048432-.2781829-.2418137-.4039154-.3761063zm.4039155.3761063c.131073.0905762.2719421.153923.4181671.2230835-.1435395-.069603-.2902222-.1329575-.4181671-.2230835zm.4181671.2230834c.1667328.0816498.3316956.1552658.5153656.2092438-.1823273-.0535354-.3477326-.1293869-.5153656-.2092438zm.5153656.2092438c.1243744.0365906.2474213.0588989.3762665.0838852-.1274872-.0236511-.2541199-.0477447-.3762665-.0838852zm.3762664.0838852c.1417694.0263214.2710571.0861053.4177399.0977097.1346283.0102539.2692719.0120392.4039001.0138245-.2768554-.0035706-.5514678-.059784-.82164-.1115342zm12.5942536-2.3561706c.2790833.0209732.5648499.039711.835907.069603-.2715149-.0303422-.5554962-.0495225-.835907-.069603zm1.0726318.1253738c.2344971.040596.4542847.0981522.6549072.2092514-.2006225-.1137772-.4248657-.1682053-.6549072-.2092514zm.6549073.2092514c.1172485.0660248.2032776.2168274.3062744.3203354-.1025391-.1044006-.1858979-.2538605-.3062744-.3203354zm.3062744.3203354c.146225.1490173.3040466.2659149.4043427.5157623-.0147095-.0347977-.0115967-.0776291-.0280762-.1115417-.1003113-.2025528-.2478791-.2752762-.3762665-.4042206zm.4738922.7531204c.0378876.1334.0771332.2672501.0971985.4042206-.0017853-.0133896.0022125-.0285568 0-.0419388-.0196228-.1204681-.0637513-.2418213-.0971985-.3622818zm.0971985.4042206c.0463562.2984772.0869141.6348801-.0276489.9199753.0980835-.2440491.0855865-.5385132.0557251-.7946091-.0048981-.0423813-.0213929-.0829849-.0280762-.1253662zm-13.0538941.3765564c-.0521545.0209656-.0811462.0437241-.1252747.069603.1069946-.0531006.3891907-.1338501.3343658-.0138321-.0115966-.099495-.1114653-.0950318-.2090911-.0557709zm-.1252746.069603c-.0383453.0223083-.0953979.0468445-.1114502.0557632-.2420807.1338501-.4551849.313652-.6825562.4742737.2608032-.1856003.5091248-.3886032.7940064-.5300369zm-1.100708.7250061c-.0726776.0535431-.1506958.0994949-.2229156.1534805-.1769867.1325073-.4953003.3198929-.6268158.5157547.1533507-.2288742.6116637-.504158.8497314-.6692352zm-.8497315.6692352c-.2501068.3725433-.4881744.8017502-.6406403 1.2550507.1555939-.452858.3972321-.8923188.6406403-1.2550507zm-.6406402 1.2550507c-.1341858.3881531-.1756439.7785416-.1257172 1.1707153-.0445862-.3903885-.0031281-.7901459.1257172-1.1707153zm-.1257172 1.1707153c.0053558.0468521-.0222931.0932541-.0138245.1396484.0062561.0348053.0330048.0633545.0419159.0977097-.0205078-.0780792-.0178375-.1579361-.0280914-.2373581zm.0280914.2373581c.0044556.0178528-.0053558.0374832 0 .0557709.0075684.0263214.0325317.0437241.0414581.069603-.0142669-.0414964-.0307617-.082985-.0414581-.1253739zm.0414581.1253738c.0276337.0789719.0432434.1637421.0838165.236908.0280762.0508652.0677643.053093.0976257.0977097-.0726622-.1048432-.1381987-.213707-.1814422-.3346177zm.1814423.3346176c.0370026.0535431.0526123.1191254.0976257.1673126.0659943.0713882.1399994.073616.2086487.1253662-.1065521-.0829849-.2144317-.1561508-.3062744-.2926788zm.3062744.2926789c.1235046.0963745.2385254.2016678.3762665.236908-.1324005-.0388108-.2505493-.1418687-.3762665-.236908zm.3762665.2369079c.1368713.0406036.2773132.0352478.4181671.0281143-.1426391.0111542-.2839813.006691-.4181671-.0281143zm.4181671.0281143c.081604-.0062485.1533813.0044632.2367401-.0138321-.0793609.0160599-.1582641.0098115-.2367401.0138321zm.2367401-.013832c.5175934-.1048431 1.0449829-.4234085 1.4903564-.711174-.4333343.2797393-.9740905.5965118-1.4903564.711174zm11.1453553-3.6531525c-.0419006.0026779-.0570679.023201-.0976257.0281143.2313843-.0218658.4649811-.0272217.6963654-.0281143-.1248323.0004501-.3615571-.0138321-.5987397 0zm-.0976258.0281143c-.0695496.0062408-.1404419.000885-.2090912.0138245-.0592957.0111542-.2327118.053093-.2367249.1391983.0659791-.1084137.2572327-.1307221.4458161-.1530228zm-.445816.1530228c-.0071259.153038.1074371.222641.2505493.2650223-.1698608-.0629044-.313858-.1601716-.2505493-.2650223zm.6268158.376564c.2010498.0986023.3838348.280632.5296173.4461594-.0958405-.1084137-.1952515-.200325-.3067169-.2926788-.0530548-.0441743-.1475525-.1164475-.2229004-.1534806zm-8.6791229 1.8404083c.1457977.1017227.0748901.3886032.0552979.5300369.0066681-.0517578.0240631-.1017303.0280762-.1534805.0084685-.114212.027191-.2993698-.0833741-.3765564zm5.2797851 1.0596237c.0811462.0539856.1542511.1017303.2367249.1534805.2224579.1387558.5073395.2453918.7663574.3765564-.3472901-.1775665-.7177735-.3399734-1.0030823-.5300369zm1.0030823.530037c.2206726.1124344.4079285.2413712.6410828.320343-.2318268-.0785217-.423523-.2101364-.6410828-.320343zm.6410827.320343c.1431122.0486298.2866516.0687103.4319916.0977097-.1462402-.0289994-.2879944-.0486298-.4319916-.0977097zm.4319916.0977096c.1359711.0272141.2679291.0780716.4039001.0838776-.1346282-.0062485-.269699-.0566635-.4039001-.0838776zm-7.439743-.6830673c-.0151672.0745087-.0280914.1481247-.0419159.2230759-.0392303.2154999-.0289764.4715958-.0557251.711174.03656-.3194428.0436859-.6558456.097641-.9342499zm-.097641.9342499c-.0347748.3060684-.1007538.5951767-.0695496.8923187-.0312042-.2949066.0361176-.5920486.0695496-.8923187zm-.0695496.8923187c.017395.1659775.0891724.3078537.1395416.4599915-.049942-.150795-.1221465-.2953568-.1395416-.4599915zm.1395417.4599915c.0347748.1057434.0432434.2253189.0971985.3207855-.0543976-.0959168-.0624238-.214592-.0971985-.3207855zm.0971984.3207855c.133728.2360229.3307953.4417038.6129913.5853729-.284439-.1450119-.478363-.3484573-.6129913-.5853729zm.6129914.5853729c.213974.1088562.4404602.1191177.6687164.0838699-.2313843.0374756-.4596405.0227585-.6687164-.0838699zm.6687164.08387c.0521698-.0084763.1011963-.0419388.1533661-.0557709-.0521698.0133819-.1011963.0477447-.1533661.0557709zm.1533661-.0557709c.1841125-.0486298.3539734-.1097488.5291748-.2092438-.1725311.0959244-.3521881.1619568-.5291748.2092438zm.5291748-.2092438c.1382141-.0767365.2197876-.1708755.3486176-.2650146-.1221467.0905609-.2144318.1887207-.3486176.2650146zm.3486176-.2650146c.2028656-.14991.4364624-.2926865.5849152-.4318848.0744476-.0700455.1390839-.14991.2090912-.2230835-.1961671.2052307-.4912873.4341125-.7940064.6549683zm.7940063-.6549683c.0209503-.0218582.0646362-.0495224.083374-.0700455.0481415-.0517578.0891571-.1226959.1395264-.1811447-.0726624.0847778-.1457672.1704407-.2229004.2511902zm.2229004-.2511902c.0383453-.0446167.0878296-.0794067.1252747-.1253662.0164948-.0200806.0254211-.0495224.0419159-.069603-.0543976.0687104-.1105652.1289444-.1671906.1949692zm.1671905-.1949692c.0606232-.0771866.129715-.1499023.1809998-.2230759.1417694-.2021103.3009186-.4350052.3486176-.6835175-.0646363.336403-.3151856.6415712-.5296174.9065934z" fill="#ffd394"/></g></g><g><g><path d="m165.3779297 72.653595c-.246994-.0896225-.9273987.0834351-.8873901-.0444336-.0002441.0023727-.0011902.0044632-.0012207.0069199.0000305-.0028458.001297-.0053101.0016174-.0080643.0038757-.011322.0126343-.0246887.0283051-.041008.0271759-.0282974.0567017-.0537262.0873718-.0778046.0360413-.019043.0752258-.0363541.1096954-.0537262-.0201263.0123749-.0474548.0119629-.0666809.0255661-.0123444.0087128-.0261078.017128-.0401154.0255814.0552216-.0429993.1163635-.0787582.1806335-.1106262-.016861.0124435-.043869.0444641-.0738373.0594788.1801453-.1091461.3888855-.1763306.5959625-.2314529.4360962-.1026688.8935394-.1728821 1.1170959-.5110321 1.6365814-2.4767227-2.6268921-2.1776733-3.2004852-2.5303192-.2868347-.1764297.7274323-.0601578.9779205-.2824783.6522522-.5790939.2560425-1.8439407-.3026123-2.315094-.0490112-.0413437-.0987854-.0760651-.1490326-.1059875.1463776.0835648.2855988.2115631.4136047.3972931-.1292267-.1878128-.2703247-.317131-.4196777-.4008408-.5246887-.3074341-1.1077881-.0195312-1.5730896.3724442-.0399933.027977-.0795441.0578995-.1178284.0927963-.0313568.0285339-.0590973.0613632-.0875702.0932312-.1311951.1272507-.2484131.2570419-.3466949.3750992.0771027-.1390152.1358795-.2766647.1788483-.4124298.0166168-.0452957.0315704-.0902328.0417023-.1332016.0905914-.3810883.0544281-.7366562-.0721741-1.0570755-.3516541-.910965-1.4286804-1.5719757-2.559433-1.6591339-.0088043-.0007019-.0177155-.0018387-.026474-.0024643.0045624.0003281.009079.001091.0136871.0014877-.9169617-.067131-1.8674469.2433853-2.4935913 1.1058655-.2048645.2820816-.2258911 1.0943146-.1126556 1.8731461-1.1520996-.7006989-2.8469238-.4646835-3.5793762.8780899-.2369995.434494-.3422546.7665405-.3522644 1.0256271 0-.0029297-.0003357-.0056381-.0002441-.0085907-.0000916.0029755.0002441.0056915.0002441.0086517-.0262299.6765442.5977478.8548279 1.2279358 1.0548859.1595764.0547333.3170776.1084137.4613037.1681747-.0355988-.0141144-.069809-.030899-.1041107-.0474777.1376648.0513992.2693176.1090012.387558.1788025-.0535736-.023674-.1097412-.0424805-.1633759-.0668793.078125.0364227.1920776.0883102.292572.1527634.0146179.0109634.0289459.0222092.0429688.0337372.0451202.0442581.0872345.0923233.1320801.1356354.0175171.0167847.0358887.0524902.0401611.0772629-.0031281-.0188141-.0099792-.0370636-.018692-.0549698.1988831.3080521-1.0166626.1765213-1.2648315.5332947-.4671783.6723633-.4363861 2.3904648.3158569 2.9256516.9282837.6608353 2.1735229-.1899185 2.8710632-.9148483-.1870728.3731689-.3669739.8052063-.5057831 1.2500763-.0073242.0206146-.0155182.0412292-.0217438.0618286-.0094147.0309525-.0178833.0634613-.0257874.096962-.3964996 1.3790665-.3636017 2.8249741 1.0969086 2.9718781 1.0356445.1038971 2.0563049-.8431778 2.5384216-1.5725632.084198-.127182.1117706-.3542633.1663818-.5208969.0181274-.0428009.0380096-.0814209.0597534-.1139221-.0129547.0148849-.024765.0308533-.0350342.0482864.0319366-.0732193.0740967-.1245041.135849-.1362076-.0375671.0119476-.0709991.0434341-.1008148.0879211.0393829-.0451431.0921783-.0774078.1658936-.0872955.0005646.0001221.0010681.0000229.0016327.0001526.0072937.0016403.0142059.0046539.0214233.0067215.183075.0716019.3155823.2739639.449585.4686813-.0581207-.0894699-.1034241-.1892548-.1735229-.2704849-.0079803-.0092316-.0176697-.0203781-.0282593-.0323181.13591.1452866.259201.3635483.3988647.6035233-.063736-.100563-.1291962-.2023163-.1970825-.3007202.1020203.1565781.1995239.3173981.3007507.4758301.3420105.565834.8089752 1.1771545 1.7585602 1.20681 1.2741241.0400009 3.730484-1.0278931 3.8236694-2.5093307.0589755-.9421316-.4073484-1.9308553-1.3343961-2.26648zm-.5536194-.2948685c.0111237-.005127.0222473-.0102234.0335693-.0150909-.0112762.0048828-.0224456.0099411-.0335693.0150909z" fill="#ffd394"/></g><g><path d="m152.6619263 69.0004578c.0002747-.0175858.0020752-.0361786.003418-.054451-.0013428.0182724-.0030976.03685-.003418.054451z" fill="#ffd394"/></g><g><path d="m152.6653442 68.9460068c.0008545-.0119934.0009766-.0234604.0022736-.0357513-.001297.0122909-.0014191.0237655-.0022736.0357513z" fill="#ffd394"/></g><g><path d="m152.6676178 68.9102554c.0033112-.0308151.0079956-.0625763.014267-.0953674-.0062409.0327759-.0109558.0645447-.014267.0953674z" fill="#ffd394"/></g></g><g><path d="m173.3439789 65.4389572c-.0452423-.1137085-.0940399-.2142029-.1458435-.3030014.0193481.0296173.0373383.0600967.0534363.0917892-.0369873-.0729218-.0773468-.1376495-.1226044-.2005539-.0555573-.0805435-.1140442-.1496048-.1750488-.2082291-.0077515-.0117416-.0160522-.0230331-.0266876-.0325851-.0257416-.0230637-.0522156-.0412598-.07901-.0569763-.6204529-.4626694-1.4529724-.031868-2.0588684-.0350723-.1580353-.0124893-.3095093-.0553131-.4540253-.1474838.141571.0903778.2896729.1340637.4446564.1474075-.1709137-.0021896-.3235321-.0395813-.4477539-.1427002-.3813171-.3166733-2.8848419-7.563652-5.338501-6.2039719-.5078583.2814636-1.1681366 1.677742-1.3500366 2.7508316-.7559967-.546299-1.8642273-.8311272-2.538147.2892036.0582428-.1012993.1241913-.1979675.2018127-.2866402-.2494202.2848625-.4039154.6359177-.5131531.9915581-.0049286.0163765-.006485.033062-.0072479.0498238-.0395508.134407-.0758057.2779961-.1074524.4339752-.1237793.6102448.0213013 1.061554.3100739 1.3861923.0576782.0693588.1241913.1358261.2032928.1981506-.0777588-.0612717-.1435394-.1267929-.2007141-.1953125.4305573.4814529 1.1782379.6827621 1.8356628.7070923-.0371094.0307007-.0717621.0599289-.1027679.0865097-.1047058.0897598-.2298737.2103577-.3640442.3528519-.0012665.0013504-.0025177.0027084-.00383.0040588-.4056702.4316559-.8941803 1.0687256-1.1704254 1.7090683-.0035706.006813-.0076904.0134201-.0106659.0204468-.0025177.0059814-.0039825.0127487-.0063171.0188751-.1446686.3464737-.2243805.6921005-.1934662 1.0053558.0018311.022316.0048065.0446167.0080261.066925.0013885.0090637.0022888.0182571.0038757.0272598.0062256.036499.0138092.072998.024231.1094589-.0102234-.0358124-.0176849-.0717163-.0238342-.1076584.0066833.0376511.0148773.0748367.0251312.1113281-.0003662-.0012512-.0009308-.0024185-.001297-.0036697.000412.001358.0009766.0024796.0013428.00383.0120087.0425034.0267944.0840607.0439453.1248245.0071716.0171509.015686.0324554.0234985.0487366.0104675.0216293.0204468.0434036.0324707.0644608.0105896.0185242.0223999.0354385.033844.0527573.0128632.0196838.0255737.0394211.0399933.0585327.003952.0051117.008194.0098419.0122681.0148468.0192261.0245743.0381927.0492325.0601196.0727692.7204285.7742004 2.0285187.4219666 3.0393677-.0390778.0028381-.0011292.0061798-.0020142.0088654-.0032349.0122223-.0055618.0233459-.0115051.035202-.0172043.3222961-.1492538.6127777-.3081284.8414001-.442955.2281342-.1348114.7271576-.753891.5740967-.5418243-.9833527 1.3608322-.8560791 4.0586624 1.7225189 4.0622711 1.4927521.0019913 4.2067261-1.1094131 3.9274902-2.9504547-.0102234-.067215-.2073669-.4134903-.4820557-.7854156 1.4404756.1190492 3.2057649-.3761901 2.4171754-2.35717zm-12.3669739 2.4364166c.0017853.0171432.0036621.0342484.0061035.0511856-.002243-.0170516-.0046387-.0341033-.0061035-.0511856z" fill="#ffd394"/></g><g><g><path d="m155.4856262 77.7301636c.0650482.1625366.0050201.3481827-.1434784.4266968-.1581726.0835724-.3566742.0140686-.4434204-.1553116-.4779968-.9331131-1.2155762-1.5981522-2.0236359-1.824585-.679657-.1904678-1.3625488-.0603943-1.9748383.3761063-.4708099.3356323-.7796021.9090042-.8471832 1.5731201-.0677795.6659164.1204834 1.322319.5165405 1.8007965.5723724.691658 1.6412354.9308167 2.4332886.5443726.3898315-.1901093.668335-.5575714.7641296-1.0082016.1025543-.4824142-.0114288-.9970932-.3127594-1.4119797-.266861-.3675232-.7455902-.5653305-1.1912689-.492218-.2093506.0343094-.5794525.1622086-.7060852.6330948-.0372009.1382828-.0333557.2655869-.0072784.3781967.0113373-.3322372.2163086-.6462326.5266571-.7563477.3451691-.1225128.7579803.0088196 1.0271759.3267365.2043152.2412415.309906.5716934.2825317.8838654-.056076.6399765-.4096222.8610153-.6153717.9358368-.415802.1511459-.9717102-.0211945-1.3833313-.4288254-.4335022-.429245-.6053467-1.0090942-.459671-1.5509109.1608124-.5980377.6008453-.9980621 1.2072906-1.097496.6811676-.1116486 1.4177704.1974258 1.832962.7691803.4225616.5820084.5817871 1.3059998.4370117 1.986763-.1380005.6490555-.5409088 1.1792145-1.105423 1.4545898-1.0600128.517067-2.4423676.2025528-3.2154541-.7316437-.5197754-.6280441-.7676849-1.4797821-.6804504-2.3371887.0870667-.8556213.4929199-1.600029 1.1134033-2.0423813.7684631-.5478668 1.6334076-.7088852 2.5012512-.4657211.99086.2776947 1.8849792 1.0730438 2.4531403 2.1821365.005295.0102996.0100404.0207519.0142671.0313186z" fill="#ff7061"/></g></g><g><g><path d="m157.9150238 73.2476273c-.1441345-.0665817-.2219696-.2224655-.1753235-.3615417.0497131-.1480942.2216492-.2210388.3841095-.1629181.8950348.3201523 1.7894287.3124847 2.4538269-.0210571.5588531-.2805252.9184265-.7705231 1.0399017-1.4169769.093399-.4970703-.0672302-1.0518112-.4407349-1.5219803-.3745117-.4714432-.9085083-.7845917-1.4650116-.8590698-.8043518-.1077271-1.6452789.3725433-1.9143677 1.093399-.1324768.3547287-.0816193.7581482.1395416 1.1068497.2367706.373291.6337433.6388168 1.0890808.7284012.4033051.0793915.8369293-.0769958 1.07901-.3891525.1137238-.1466141.2725372-.4493408.0585785-.829483-.0628357-.1116409-.1452789-.1917877-.2328796-.2491989.2013855.2218552.2661743.5469589.1347961.8026657-.1460876.2844238-.4953613.4446869-.8690186.3987961-.2835693-.0347977-.5593872-.1860275-.737793-.4044113-.3657684-.4477081-.2761688-.8009033-.1902161-.9716034.1737518-.3449326.6412506-.5636749 1.1632996-.5443192.5497742.02034 1.0250702.2936707 1.271286.7310562.271759.4827728.238678 1.0032654-.090744 1.4280014-.3700409.4770355-1.0401764.7146072-1.6676483.5911102-.6386719-.1257553-1.1963501-.4999161-1.530426-1.0267334-.3185425-.5022583-.3912201-1.084938-.1994019-1.5986786.3601685-.9646606 1.4510345-1.5824127 2.5374298-1.4368973.730423.0977936 1.4256439.501976 1.9078827 1.1089706.4812012.6057434.686554 1.3288956.5634766 1.9840088-.1524353.8113632-.6102142 1.4295731-1.3237762 1.787796-.8147278.4089737-1.8921356.4252853-2.9559937.0447693-.0098875-.0035248-.0195158-.0074769-.0288847-.0118027z" fill="#ff7061"/></g></g><g><g><path d="m164.831955 64.9320831c-.0279999-.0904236.0239105-.1913681.1227112-.2319336.1052399-.0431595.2237701-.0015335.2647705.0930252.2259216.5209274.6347351.8990936 1.1216278 1.0375061.4095154.1164398.8459473.0568314 1.2621002-.1723557.3199921-.1762161.5573273-.4858627.6511078-.8495407.0940399-.3646698.0274963-.7285538-.1825867-.9982948-.3036194-.3899155-.9523315-.5398483-1.4768219-.3412895-.2581482.0976791-.460556.2947197-.5553741.5406342-.1015015.2632446-.0703125.5479813.0855713.7811356.1380615.206543.4215698.3235245.7054749.2910919.1333618-.015213.3743591-.0790634.4899902-.3355637.0339661-.075325.0414581-.1453247.0339203-.2076416-.0328827.1823273-.1852417.3512726-.3875427.4063797-.2250061.0613174-.4725189-.0179977-.6158752-.197319-.1088257-.1360855-.1490631-.3194656-.1077423-.4904938.0847321-.3506126.3226166-.4659119.4568787-.5034523.2713318-.0758171.6049957.0285072.830307.259594.2372894.2433472.29953.564888.1664886.8600235-.1468353.3257599-.4526367.5378952-.8389587.5819931-.4339294.0495224-.8697815-.1330566-1.0845642-.4543762-.2185974-.3270798-.2617645-.7275925-.1184998-1.0990791.1365662-.354187.4292908-.6384544.8031158-.7799454.7019348-.2656746 1.5404968-.0688972 1.9505768.4577484.2757111.3540573.3643188.8262901.2432556 1.2958183-.1208344.4685516-.4320374.8704758-.8537598 1.1027298-.5223083.2876511-1.0747986.3611069-1.5977173.2124557-.5970154-.169754-1.0934448-.6222229-1.3619843-1.241394-.0025177-.0057526-.0046539-.0115738-.0064697-.0174561z" fill="#ff7061"/></g></g><g><path d="m112.3785019 67.6357269c.7261429 2.1339951 1.8467865 4.1516571 3.643486 5.5437088 1.0512772.8389435 2.2594223 1.4364853 3.5322266 1.8835678.1749573.0599442.2679062.2511215.2069168.4257507-.0578384.1657562-.2343674.2566757-.4012756.2126312-2.7877808-.7197037-5.2630386-2.6458817-6.4648361-5.2879791-.1979294-.4351883-.3571472-.887352-.4666672-1.3507843-.1080322-.4643326-.1794052-.936058-.1596298-1.4150543.0058441-.0564193.0873107-.0786437.1097793-.0118408z" fill="#35284c"/></g><g><path d="m116.4240952 74.0240402c-.2650681.7373734-.7982483 1.3207245-1.4617691 1.6610794l-.0008392-.0001831c-1.1104279-.1805496-2.3129578-.524231-3.4580765-1.1430969 0 0-.0054703-.6060867.3465881-1.6370316.1333389-.390274.317276-.8413391.5727768-1.3435745.2030258-.4008942.452507-.8353119.7563324-1.2964554 0 0 1.3896637 2.1491242 3.2449875 3.7592621z" fill="#35284c"/></g><g><path d="m68.8870926 108.2478333c.0638351.8359222 2.3816299 12.1999435 2.3816299 12.1999435l-1.4674301-11.2145691s-.9434662-1.3685226-.9141998-.9853744z" fill="#c14c40"/></g><g><path d="m125.3731461 50.032383c4.3897629-2.1412315 8.6555557-4.0555153 13.6992874-3.8580551 8.8671722.3471451 14.2618866 5.8895836 17.3321838 13.5929375-.6845245-.585598-3.4420471-3.2913284-4.8052063-4.604969-1.9959869-1.9235077-4.2189484-3.6364098-6.6708679-4.9399605-6.2228699-3.3083688-13.2385254-3.2711907-19.555397-.1899529z" fill="#e55e4a"/></g><g><path d="m129.1330261 51.8138542s11.6386566-1.7636871 11.6917114 10.3214226c.0530701 12.0851135 4.5927429 11.341423 4.5927429 11.341423s-2.1197205.5054855-1.6333923-12.7486763c.4423218-12.0546989-14.651062-8.9141693-14.651062-8.9141693z" fill="#e55e4a"/></g><g><path d="m158.327774 86.2168045s3.8212128 15.1530075-.2301178 21.0120392c-7.3977509 10.6986237-8.0011444 12.8045731-3.3286591 19.1655121 5.2115936 7.0948715 7.6075439 21.7550583-.5376282 28.5381851-8.1451874 6.7831421-17.6143341 6.5947113-17.6143341 6.5947113s12.3852692 3.1030731 19.0852203-3.0489502c11.3364563-10.4093628 6.2156067-25.3630981 3.7962952-30.0227966-1.4008942-2.6982117-7.6565704-8.6260529-2.1809692-15.8566895 5.4756013-7.2306289 4.8314057-10.0333786 1.0101929-26.3820114z" fill="#e55e4a"/></g><g><path d="m112.9837036 72.4410858c-.0860367.4004288-.4803543.6552811-.8816376.5690689-.0929413-.0199661-.1773453-.056015-.2520676-.1053467.1333389-.390274.317276-.8413391.5727768-1.3435745.3961335.0902252.6462556.4826813.5609284.8798523z" fill="#fff"/></g></svg>