<svg id="Слой_1" enable-background="new 0 0 230.3999939 230.3999939" height="512" viewBox="0 0 230.3999939 230.3999939" width="512" xmlns="http://www.w3.org/2000/svg"><g><g><path d="m157.1690369 165.4307709c-1.2260437 1.9182892-2.4377289 3.7384644-3.6426239 5.4620056-.2642365.3782501-.5284576.7519226-.7919464 1.121109-.4084167.5707397-.8153381 1.1309052-1.2230072 1.6797485-.2733002.3699188-.5465851.7345734-.8206329 1.0939484-11.7416992 15.4378967-23.2644424 21.8292847-40.6455917 21.6986847-15.9044647-.1200714-30.7905273-7.4589081-40.5036697-21.0132294-.2695236-.3751831-.5345078-.7549438-.79496-1.1399384-.3986206-.5873718-.7874069-1.1860199-1.1663895-1.7960205-.2483826-.3986359-.4922333-.8017731-.7307892-1.2094269-1.6850433-2.8695831-3.1594582-5.9709015-4.3915367-9.2964325-8.1889114-22.0935211-8.3429222-61.6467056-8.3429222-61.6467056l59.0202637-1.0818481 57.3208694-.7723083c-.0000001 0 .9270781 44.6513595-13.2870637 66.9004135z" fill="#d59970"/><g><path d="m110.8171387 107.7727432c-6.1137848 0-11.7982635-.059288-16.8628616-.1468201-21.3174667-.3683701-36.4838333-1.3018417-36.6345253-1.3112259-.3745461-.0233307-.6592522-.3458405-.6359177-.7203674.0233154-.3745422.3458824-.6593628.7203674-.6359177.1504745.0093765 15.2924919.9412308 36.5813408 1.3089371 19.6427078.3393021 48.6838455.2539978 75.4870834-2.0792389.3749237-.0326614.7033081.2441635.7358093.6179657.0325928.3738403-.2440948.7032623-.6179657.735817-19.9497375 1.7366333-41.1336822 2.2308502-58.7733306 2.2308502z" fill="#fff"/></g><g fill="#fff"><path d="m109.7452469 167.0265198c-.1316376-.1242371-.307106-.1907349-.488266-.184906-.1808853.0058136-.3519821.0836029-.4753036.2160797l-11.9123001 12.7940674c-.2557144.2746277-.2403641.7045593.0342865.9602814.2746277.2556763.7045746.240448.9602661-.0342865l11.4462051-12.2934723 13.1783981 12.4349213c.1312714.1238861.2988663.1852722.4661713.1852722.1804962 0 .3606644-.0715179.4943085-.21315.2575378-.2729187.2450409-.7029724-.0278854-.960495z"/><path d="m140.8020325 165.8906708c-.2746582-.255722-.7045593-.2404175-.9602661.0342712l-11.4462128 12.2934723-13.1783981-12.434906c-.2729263-.2575989-.7029877-.2449951-.9604721.0278625-.2575455.272934-.2450485.7029724.0278854.960495l13.6758804 12.9043274c.126297.1191711.2931824.1852722.4662781.1852722.007309 0 .0146484-.0001068.0219879-.0003662.1808777-.0058289.3519745-.0836029.475296-.216095l11.9123077-12.7940674c.2557069-.2746276.2403718-.7045592-.0342864-.960266z"/><path d="m151.5114594 173.693634c-.2733002.3699188-.5465851.7345734-.8206329 1.0939484l-6.6805267-6.3030701-11.4457397 12.2935791c-.2559357.2740326-.6855011.2898865-.9603119.0339508-.2747955-.2559357-.2898865-.6855011-.034729-.9603119l11.912323-12.7940674c.1238098-.1321106.2944336-.2098999.4756165-.2159119.1804199-.0068054.3563385.0603943.4884491.1849518z"/><path d="m153.526413 170.8927765c-.2642365.3782501-.5284576.7519226-.7919464 1.121109l-5.5556335-5.2423553c-.2725525-.2574463-.2854004-.6870117-.0279388-.9602661.2581787-.2725677.6877441-.2853851.9610443-.0279388z"/><path d="m72.2956085 167.4721527-4.7153931 5.0649261c-.2483826-.3986359-.4922333-.8017731-.7307892-1.2094269l4.4511642-4.7810974c.2559204-.2748108.6862411-.2898865.9602966-.0347137.274788.2559357.2906419.6862335.0347215.9603119z"/><path d="m89.6088181 181.512619c-.1336288.1419525-.3140717.2136536-.4944916.2136536-.1675949 0-.3351974-.0618896-.4657974-.1857147l-13.17836-12.4347382-5.9286041 6.367218c-.2695236-.3751831-.5345078-.7549438-.79496-1.1399384l6.1950989-6.6541138c.1230469-.1321259.2944183-.2098694.4748611-.2159119.1811829-.0068207.3570938.060379.4884491.1849365l13.6758652 12.9043274c.2725448.2574464.2853698.6877443.0279388.9602815z"/><path d="m105.1558304 166.5121307c-.2745743-.255722-.7045441-.2403412-.9602737.0342865l-11.4462281 12.2935028-13.1783752-12.434906c-.2729111-.2575989-.7029724-.2450256-.9604797.0278625-.2575378.272934-.2450409.7029724.0278931.960495l13.6758575 12.9043274c.1262894.1191711.29319.1852722.4662781.1852722.0073166 0 .0146484-.0001221.0219879-.0003662.1809006-.0058289.3519821-.0836182.4753036-.216095l11.9123154-12.7941132c.2557144-.2746123.240364-.7045439-.0342789-.960266z"/></g></g><g><path d="m98.9724655 175.3621216c-.2499619.0000305-.4904556-.1384277-.6091156-.3775177-13.2359085-26.667038-19.5543671-47.9291153-18.7798462-63.1955643.54702-10.7824707 4.5943985-18.5204773 12.029686-22.9990845 4.2578964-2.5644073 7.9425583-3.1455078 10.951561-1.7272186 5.173912 2.438736 6.3319168 9.8469009 6.3786774 10.1610794.0552597.3711472-.2008438.7168274-.5719986.7720718-.3712082.0552368-.7168274-.2008514-.7720871-.5719986-.0057678-.0377884-.2818909-1.8124466-1.1267776-3.8253479-.7624512-1.8164825-2.1605759-4.2119827-4.4913864-5.3085938-2.5719604-1.2100677-5.8243942-.6501999-9.6668472 1.6640701-7.0243073 4.231041-10.8509598 11.6005707-11.3736725 21.9038467-.762558 15.0310822 5.508812 36.0666809 18.6399155 62.5225677.1668167.3361511.0295792.7438812-.3065338.9106903-.0970384.0481722-.2001116.0709994-.3015749.0709994z" fill="#434c0f"/></g><g><path d="m78.8518143 181.1525726c-.0441742 0-.0889664-.0043488-.1339417-.0133362-.367981-.0735779-.6066284-.4315186-.5330276-.7994843.0114441-.0576935 1.1420593-5.9301605.1206131-16.4006042-.7118759-7.2971802-4.5038071-19.5718536-7.84935-30.4015808-1.5666656-5.0713806-3.0464401-9.861496-4.155014-13.9263077-1.2142334-4.4521255-1.1938324-10.5223541.0559769-16.6541595 1.3733597-6.7378998 4.099144-12.7704773 7.6752319-16.9864731 2.1363907-2.5186844 4.5693436-4.4058838 7.2312927-5.6091919 2.9321442-1.32547 6.145607-1.8201141 9.5511322-1.4702301 4.468544.4591064 8.2394638 1.7391052 11.2080154 3.8044662 2.393013 1.6649399 4.2673874 3.8360596 5.5710526 6.4531021 2.2116318 4.4397202 2.0081863 8.5809631 1.998436 8.7550659-.0209579.3746872-.3414612.6610947-.7163544.6404343-.3746567-.0209579-.6613922-.3416824-.640419-.7163544.003746-.0755157.1781387-4.0210342-1.883606-8.1244354-1.2053528-2.3989105-2.9333267-4.3885727-5.1359634-5.9136734-2.7726746-1.9198074-6.3188477-3.113121-10.5400467-3.546814-3.1635513-.3250198-6.1419983.1314697-8.8525085 1.3567123-2.4769897 1.1197052-4.7496033 2.8860321-6.7547302 5.249939-3.4306259 4.0445175-6.0515594 9.8612823-7.3799973 16.3788376-1.190979 5.8432083-1.2195816 11.8339233-.0764923 16.0252075 1.102623 4.0429459 2.5791321 8.8225555 4.1423492 13.8828125 3.3646393 10.89151 7.1781921 23.2362213 7.9034805 30.6706848 1.0433807 10.6953583-.0917511 16.5548248-.1405869 16.7990112-.0645904.322983-.3483199.5463411-.6655425.5463716z" fill="#434c0f"/></g><g><path d="m59.7683716 183.766098c-.2172127 0-.4305954-.1039124-.5621185-.2969666-4.735672-6.9506378-7.759201-12.7183075-10.109951-19.285614-2.7858047-7.7827759-4.5523376-16.6255035-5.5593681-27.8285065-.2858696-3.1803589-.035923-7.88797.6857719-12.9157486.6099129-4.2490082 1.8560371-10.7571106 4.3289108-17.6321259 3.7252846-10.356842 10.9557304-23.430397 24.2461739-26.8974838 8.5475235-2.229744 15.9035645-1.5091934 21.8638306 2.1418152 4.9390411 3.0254669 7.9486542 7.535614 9.6036758 10.7864151 1.7893372 3.5145416 2.410965 6.2889023 2.4365463 6.4052734.0805817.3665085-.151207.7289429-.5176926.8095093-.3667145.0805206-.7289429-.1512146-.8095093-.5177002-.0102844-.0460434-.6260376-2.7644043-2.3406448-6.1203842-1.5760269-3.0847397-4.4329605-7.3602905-9.0931702-10.2110443-5.6311035-3.4446869-12.6292725-4.1105194-20.8000336-1.9789886-12.7175026 3.3176193-19.6958046 15.9932327-23.3104668 26.0425262-2.4342232 6.7675171-3.6615486 13.1786728-4.2625008 17.3652344-.6969795 4.8556213-.9502258 9.5662994-.6774445 12.601059.9964371 11.0850372 2.7394295 19.8209076 5.4853287 27.4921722 2.3097038 6.452652 5.2864571 12.128479 9.9535637 18.9784698.2112961.3100891.131176.7328033-.1789322.9440613-.1170767.079773-.2502402.1180268-.3819693.1180268z" fill="#434c0f"/></g><g><path d="m140.0823669 172.4095612c-.2906342 0-.5595856-.1879272-.6493073-.4802094-2.8205719-9.1866455-2.4602814-25.2519836 1.0419312-46.4591751l.0560303-.3395081c1.1909943-7.2390137 1.3530426-13.5787659.4816437-18.8430862-1.3093262-7.9100189-4.9356842-13.2431641-10.7782593-15.8512726-3.8902588-1.7368927-7.5000687-1.9699402-10.7291641-.6928482-5.6821899 2.2472916-8.3530197 8.4756088-8.3793411 8.5382538-.1452179.3457565-.5432663.5087433-.8891068.3638153-.3458862-.1449203-.509079-.5423965-.3644485-.8884048.0291061-.0696335.7297363-1.7282715 2.1961517-3.6996994 1.3606186-1.8292007 3.6667099-4.2809525 6.9262543-5.5733948 3.5847244-1.4213715 7.5526962-1.1819992 11.7936401.7114105 6.2853546 2.8057861 10.1763916 8.4817429 11.5649261 16.8702087.8957367 5.4111252.7337189 11.899765-.4814148 19.285675l-.0561523.3402481c-.4989014 3.0209656-1.8241425 11.0457001-2.4963379 20.0637512-.8427124 11.3053284-.3674011 19.9773407 1.4126892 25.775177.1101532.3587036-.0913849.7388-.4500885.8489532-.0664215.0203859-.1336364.0301058-.199646.0301058z" fill="#434c0f"/></g><g><path d="m161.0706635 162.9077454c-.2453918 0-.4822998-.1333466-.603363-.3660889-2.1208496-4.0781097-2.5142517-11.7772827-2.4708252-17.5179443.0473328-6.2518311.6269226-13.5927429 1.5503998-19.6369247.6833191-4.4723587 1.2111206-11.8870621.6432953-19.2844925-.3421631-4.4570465-1.0420685-8.536026-2.0803528-12.1236267-1.2204437-4.2170181-2.9195862-7.7839737-5.0502167-10.6017761-3.4663086-4.5842361-8.1493073-7.2743454-13.9188995-7.9955673-7.872345-.9840851-14.3751984.5509491-19.3279343 4.5622711-4.4063034 3.5687714-6.7706757 8.4899292-7.9782562 11.9898758-1.3125153 3.8041306-1.5767822 6.7743225-1.5793076 6.8038864-.0318298.3738785-.3607559.6511993-.7346344.6193695-.3739014-.0318298-.6511993-.3607407-.6193695-.7346191.0108566-.1275635.2816544-3.1696167 1.6487198-7.1318588 1.26548-3.6677551 3.7513275-8.831459 8.4075775-12.6026535 5.251091-4.2529755 12.0984421-5.8863602 20.351738-4.8546677 6.1474152.768425 11.1383514 3.6364441 14.8343201 8.5243759 2.2311859 2.9507828 4.0047913 6.6663895 5.2715759 11.0435944 1.0641174 3.6767349 1.7806854 7.8478165 2.1299286 12.3973923.5766296 7.51194.0398407 15.0469284-.6548309 19.59375-.9142761 5.9834747-1.4880371 13.2514954-1.5348969 19.4419556-.0606384 8.0114746.740799 13.8487091 2.3175964 16.8806305.1731415.3329315.0436096.7431793-.2892914.9163208-.1001587.0520933-.2073517.0767973-.312973.0767973z" fill="#434c0f"/></g><g><path d="m176.2475739 183.0505219c-.2805939.0000458-.5431366-.1750946-.6412201-.4548798-1.0035553-2.8633881-1.4652557-6.8135834-1.3722229-11.7408295.0785217-4.1594391.5544281-9.140213 1.4144287-14.8039398 1.5626068-10.2906494 4.0945587-20.9510651 5.7700348-28.0052948.5067139-2.1334915.9443512-3.9760361 1.2582397-5.3978271 1.2231293-5.540535 1.4284973-12.5808563.5634003-19.3157425-.461853-3.5956192-1.2065887-6.9657822-2.2135315-10.0169067-1.0847473-3.286911-2.4506989-6.1236801-4.0598297-8.4314651-13.2481384-19.0007248-29.6231995-24.315731-48.6701813-15.7975464-5.1054077 2.2831268-9.116745 5.2891312-11.9225998 8.9345093-2.2345428 2.9031219-3.7175827 6.22155-4.4079056 9.8630829-1.1780396 6.2143478.3724594 11.2505951.3882523 11.3007431.1127625.3579025-.0859451.7394714-.4438629.8522339-.3580246.1127625-.7394791-.0860062-.8522263-.4438629-.0687103-.2180634-1.6683121-5.4156036-.4272766-11.9622116.7304001-3.8530121 2.3003387-7.3651581 4.6661682-10.438858 2.9446106-3.8256454 7.1316147-6.9701385 12.444664-9.3461533 5.556694-2.4850235 10.9753189-3.843338 16.105278-4.0371475 4.7466888-.1792259 9.3571472.6332855 13.7035065 2.4152069 7.4911194 3.071228 14.3986969 9.0878601 20.5308838 17.8827744 6.89151 9.883522 8.4229584 27.5065613 5.9222412 38.8342896-.3162537 1.4323349-.7550201 3.2797775-1.2631073 5.4189224-1.6703186 7.0324707-4.194458 17.6600494-5.7486572 27.8952637-1.8408508 12.1233826-1.8756104 20.8344727-.1032562 25.8912506.1240845.3541412-.0623627.7418671-.4165039.8659821-.0743104.0260159-.1501771.0384061-.2247162.0384061z" fill="#434c0f"/></g><g><path d="m124.4734039 132.1261749c-.0236435 0-.0474396-.0012665-.0714722-.0037689-.3731995-.0390015-.6441193-.3731537-.6051407-.7463531.0057297-.0550079.5699692-5.5735245.198616-12.016304-.3387299-5.8767548-1.5426254-13.7470093-5.3543015-17.8673096-1.8105621-1.9571533-4.0901489-2.913826-6.7749329-2.8431625-.3745041.0105591-.6872101-.2862396-.6970673-.6613541-.0098648-.3751297.286232-.6872101.6613693-.6970749 3.0934372-.0818481 5.7208786 1.02211 7.8089066 3.2796173 1.8207626 1.9685364 3.2398834 4.8378906 4.2179413 8.5283585.7711487 2.9098129 1.2744293 6.3424606 1.4958878 10.2026062.3757019 6.5491638-.1990433 12.1600266-.2048874 12.21595-.0365294.3491668-.3314513.6087951-.674919.6087951z" fill="#434c0f"/></g><g><path d="m51.3524284 168.3247833s3.7305717-6.6707153 8.7600708-7.3281555c5.0295372-.6575165 7.3708992 3.8096771 7.6265297 6.0232849.2556686 2.2135468-2.8241043 6.0823822-6.5084152 5.2825012-3.6836739-.7994384-7.9584541-4.125-9.8781853-3.9776306z" fill="#5d6a24"/><path d="m51.3524284 168.2350311s1.6108093-2.8803253 3.7824783-3.1641998c2.1716843-.283905 3.1826477 1.6449585 3.293026 2.600769.1103973.95578-1.2194099 2.6262817-2.8102417 2.2809143-1.5905571-.3451995-3.4363479-1.7811279-4.2652626-1.7174835z" fill="#a4b17c"/></g><g><path d="m53.6529846 172.7298584s-6.92062 2.6220856-8.9145699 7.4910736c-1.9940186 4.8689728 1.2783661 7.899292 3.1545334 8.5065155 1.8760948.6072083 6.147541-1.8196106 6.480648-5.5911713.3330003-3.7708282-1.3907241-8.5315246-.7206115-10.4064178z" fill="#5d6a24"/><path d="m53.5960884 172.7298584s-2.2014503.8340759-2.8357277 2.3829041c-.6342964 1.5488281.4066467 2.5127716 1.0034599 2.7059174.5967827.193161 1.9555321-.5788116 2.0614929-1.7785492.1059266-1.1994935-.4423904-2.7138673-.2292251-3.3102723z" fill="#a4b17c"/></g><g><path d="m46.6057396 152.3270264s3.8473053-5.1538391 8.0610428-5.2303925c4.2137833-.0765839 5.6181564 3.8226318 5.5700035 5.6710815-.0481033 1.8484192-3.0330086 4.7527161-5.9701385 3.7523956-2.9366608-.9999084-6.0646363-4.1369323-7.6609078-4.1930846z" fill="#5d6a24"/><path d="m46.6162186 152.2530365s1.6612129-2.2253571 3.480648-2.2584229c1.8194504-.0330658 2.4258385 1.6505585 2.4050484 2.4487-.020771.7981262-1.3096123 2.0521545-2.5778236 1.6202393-1.2680092-.4317475-2.6186257-1.7862702-3.3078728-1.8105164z" fill="#a4b17c"/></g><g><path d="m47.3323936 157.0595703s-7.1959534 1.7287598-9.7877808 6.3075562c-2.5918922 4.5787659.2723846 7.9974213 2.0570412 8.8363037 1.7845802.8388672 6.3278809-1.0301361 7.1337738-4.7296143.8056908-3.698761-.3041496-8.6387787.5969658-10.4142456z" fill="#5d6a24"/><path d="m47.2759476 157.0523987s-2.289032.5499115-3.1134911 2.0064392c-.824482 1.4564972.0866432 2.5439758.6543427 2.8108215.5676765.2668457 2.0129013-.3276825 2.2692528-1.5044861.2562904-1.1765747-.0967484-2.7480011.1898956-3.3127746z" fill="#a4b17c"/></g><g><path d="m44.5363121 136.4381104s3.8473015-5.1538391 8.0610428-5.2303925c4.2137794-.0765991 5.6181526 3.8226166 5.5700035 5.6710815-.0481071 1.8484192-3.0330124 4.7527161-5.9701424 3.7523956-2.9366607-.9999084-6.0646362-4.1369323-7.6609039-4.1930846z" fill="#5d6a24"/><path d="m44.5467911 136.3641052s1.6612091-2.2253571 3.4806442-2.2584076c1.8194504-.0330658 2.4258423 1.6505585 2.4050484 2.4487-.020771.798111-1.3096085 2.0521545-2.5778236 1.620224-1.2680054-.4317475-2.6186219-1.7862702-3.307869-1.8105164z" fill="#a4b17c"/></g><g><path d="m44.0602074 141.4962769s-6.3686905.6308136-9.007782 4.1479492c-2.6391411 3.5171204-.4625244 6.6812592 1.0063477 7.5789795 1.4688072.8976898 5.5576477-.147171 6.576828-3.1333313 1.0189437-2.9855652.491043-7.2181549 1.4246063-8.5935974z" fill="#5d6a24"/><path d="m44.0120621 141.4839783s-2.0258827.2006531-2.8653755 1.319458c-.8395119 1.1188049-.1471291 2.1253052.320118 2.4108734.4672279.2855682 1.7678871-.046814 2.0920906-.9967041.3241233-.949707.1562003-2.2960968.4531669-2.7336273z" fill="#a4b17c"/></g><g><path d="m45.4454536 118.1875839s4.785717-4.2965927 8.9322243-3.542984c4.1465607.7535706 4.7566986 4.8528214 4.345974 6.6557159-.4106712 1.8028641-3.9084396 4.063446-6.5914955 2.5050507-2.6826706-1.5578995-5.1326485-5.2488022-6.6867028-5.6177826z" fill="#5d6a24"/><path d="m45.4702797 118.1170883s2.0664062-1.8552094 3.8568115-1.529808c1.7904243.3253784 2.053875 2.0953827 1.8765297 2.873848-.1773224.77845-1.6876106 1.7545319-2.8461151 1.0816422-1.1583405-.6726762-2.2162056-2.2663575-2.8872261-2.4256822z" fill="#a4b17c"/></g><g><path d="m44.7484932 124.7218552s-6.3683815-.6339569-9.6476097 2.295517c-3.279274 2.9294205-1.7674103 6.459816-.5037651 7.6288681 1.2635841 1.1690216 5.4780617.9486694 7.0645866-1.7787476 1.5861817-2.726883 1.900959-6.9806366 3.0867882-8.1456375z" fill="#5d6a24"/><path d="m44.703701 124.7003326s-2.0257797-.2016602-3.0689011.7302017c-1.0431404.9318542-.5622139 2.0548706-.1602516 2.4267502.401947.3718567 1.7425728.3017731 2.2472496-.5658264.5045624-.8674164.6046944-2.2205352.9819031-2.5911255z" fill="#a4b17c"/></g><g><path d="m48.8974342 106.6658478s-6.2116776-1.5405273-9.8770599.8884811c-3.6654243 2.4289551-2.6753845 6.1396484-1.5924225 7.4778137 1.0829086 1.3381195 5.2854347 1.7243271 7.2466354-.7474213 1.9607811-2.4712753 2.8822289-6.6359405 4.222847-7.6188735z" fill="#5d6a24"/><path d="m48.8561935 106.6381302s-1.9759331-.4900436-3.1418953.2826233c-1.1659698.7726517-.8510361 1.9530258-.506546 2.3786926.344471.4256592 1.6812935.5485077 2.3051529-.2377548.6237259-.7861099.9168396-2.1108933 1.3432884-2.4235611z" fill="#a4b17c"/></g><g><path d="m58.711422 87.8065948s4.785717-4.2966003 8.9322243-3.542984c4.1465607.7535706 4.7566986 4.8528214 4.3459778 6.6557159-.410675 1.8028564-3.9084396 4.0634384-6.5914993 2.5050507-2.6826707-1.5579071-5.1326448-5.2488021-6.6867028-5.6177826z" fill="#5d6a24"/><path d="m58.7362518 87.7360992s2.0664024-1.8552094 3.8568077-1.529808c1.7904243.3253784 2.053875 2.0953827 1.8765297 2.873848-.1773224.7784424-1.6876068 1.7545319-2.8461151 1.0816422-1.1583404-.6726838-2.2162056-2.2663575-2.8872223-2.4256822z" fill="#a4b17c"/></g><g><path d="m57.3267212 89.6320114s-5.3878479-3.4538727-9.639164-2.3307266c-4.2513313 1.123085-4.5054703 4.9551697-3.9096489 6.5702515.5957909 1.6150208 4.4516487 3.330452 7.1027832 1.6195145 2.650589-1.7106324 4.8607521-5.3587342 6.4460297-5.8590394z" fill="#5d6a24"/><path d="m57.2965698 89.592514s-1.7138748-1.0986786-3.0662193-.7414093c-1.3523483.357254-1.4331894 1.5762405-1.24366 2.0899963.1895218.5137405 1.416069 1.0594254 2.2593956.5151749.8431549-.5441513 1.5462074-1.7046127 2.0504837-1.8637619z" fill="#a4b17c"/></g><g><path d="m67.9172058 81.3330765s-1.1873245-6.2887573-4.9225197-8.6089859c-3.7351608-2.320282-6.6960564.1256409-7.4614029 1.6676254-.7653236 1.5419312.6343651 5.5232925 3.6984406 6.2764587 3.0634765.7529831 7.2334022-.1443481 8.685482.6649018z" fill="#5d6a24"/><path d="m67.9252243 81.2840347s-.3776855-2.0004501-1.5658493-2.7385178c-1.1881561-.7380829-2.1300201.0399628-2.3734741.5304718-.2434502.4904861.2017899 1.756958 1.1764755 1.9965439.9744873.2395249 2.3009415-.0459213 2.7628479.2115021z" fill="#a4b17c"/></g><g><path d="m78.4387207 78.6261292s1.9504929-6.0953827-.2292023-9.9142914c-2.1796417-3.8189392-5.9479904-3.0780334-7.3552628-2.0865326-1.4072189.9914627-2.0722427 5.1589661.263504 7.2803116 2.335312 2.1208953 6.4294206 3.3174591 7.3209611 4.7205124z" fill="#5d6a24"/><path d="m78.4691238 78.5868301s.6204529-1.938942-.0729065-3.1537399c-.6933441-1.2148056-1.8920593-.979126-2.3397141-.6637268-.4476318.3153839-.6591797 1.6410675.0838242 2.3158722.7428589.6746521 2.0451966 1.0552826 2.3287964 1.5015945z" fill="#a4b17c"/></g><g><path d="m54.5794983 101.1752319c-.2304955 0-.4620743-.0800476-.6503296-.2434616-.4167175-.3617859-.4631882-.9950867-.1037865-1.4145432l55.9131889-65.2574768c.1848679-.2157555.4521713-.3421936.7351608-.347744.2829056-.0060463.554985.1103134.7480545.3186798l58.8857117 63.5482635c.3753357.4050674.3534088 1.039711-.0490265 1.4175339-.4024048.3778839-1.032959.3558044-1.4082489-.0493393l-58.1280594-62.7305794-55.1876717 64.4107208c-.1970633.2299883-.4752234.3479463-.7549933.3479463z" fill="#d59970"/></g><g><path d="m50.6685562 100.5585556s4.7857132-4.2965927 8.9322243-3.542984c4.1465569.7535782 4.7566948 4.852829 4.345974 6.6557236-.4106712 1.8028564-3.9084396 4.0634384-6.5914955 2.505043-2.6826745-1.5578995-5.1326485-5.2488022-6.6867028-5.6177826z" fill="#5d6a24"/><path d="m50.6933823 100.4880676s2.0664062-1.8552094 3.8568077-1.5298157c1.7904282.325386 2.0538788 2.0953827 1.8765335 2.873848-.1773224.77845-1.6876106 1.7545395-2.8461151 1.0816498-1.1583443-.6726837-2.2162094-2.2663651-2.8872261-2.4256821z" fill="#a4b17c"/></g><g><path d="m58.1848679 181.1525726s.0900917 6.399231 3.3715134 9.3262329c3.2813797 2.927063 6.6182175 1.0257721 7.6369171-.3619385 1.0186691-1.3876495.3232498-5.5502014-2.56604-6.8182068-2.8887254-1.2677154-7.1507951-1.0995635-8.4423905-2.1460876z" fill="#5d6a24"/><path d="m58.1685486 181.1995087s.028656 2.0355988 1.0724792 2.9666748c1.0438042.9311066 2.1052551.3262939 2.4293022-.1151276.3240395-.4414215.1028252-1.7655182-.8162575-2.168869-.9189033-.4032745-2.2746658-.3497772-2.6855239-.6826782z" fill="#a4b17c"/></g><g><path d="m79.318306 177.5423431s-5.5363998 3.2103577-6.4829941 7.5044403c-.9466553 4.2940521 2.3444443 6.273468 4.0531693 6.4826965 1.7086487.2092133 4.998291-2.4343872 4.6900406-5.574585-.3082276-3.1395568-2.5407258-6.7740325-2.2602158-8.4125518z" fill="#5d6a24"/><path d="m79.2693939 177.5510864s-1.7611313 1.0212097-2.0622406 2.3871613c-.3011322 1.3659363.7457657 1.9955902 1.2893066 2.062149.5435257.0665436 1.5899582-.7743835 1.4919052-1.7732849-.0980453-.9986877-.8082046-2.1548157-.7189712-2.6760254z" fill="#a4b17c"/></g><g><path d="m97.2801132 171.5531006s-1.6936569 6.1716919.6439743 9.8960114c2.3375778 3.7243652 6.0716171 2.8263855 7.4361572 1.7768402 1.3644867-1.0494843 1.8544922-5.2411804-.5680008-7.2628937-2.4220352-2.0213013-6.5626449-3.0454407-7.5121307-4.4099579z" fill="#5d6a24"/><path d="m97.2513809 171.5936432s-.5387497 1.9632111.2048492 3.1479187c.7435837 1.1847229 1.9313812.8990784 2.3654404.5652161.4340439-.333847.5899124-1.6672211-.1806793-2.3103333-.7704468-.6429749-2.0875778-.96875-2.3896103-1.4028015z" fill="#a4b17c"/></g><g><path d="m138.6108398 168.6092377s-1.6936646 6.1716766.6439667 9.8960114c2.3375702 3.72435 6.0716095 2.8263702 7.4361572 1.7768402 1.3644867-1.0494995 1.8544922-5.2411804-.5680084-7.2629089-2.4220276-2.0212861-6.5626373-3.0454408-7.5121155-4.4099427z" fill="#5d6a24"/><path d="m138.5820923 168.6497803s-.5387421 1.9632111.2048492 3.1479187c.7435913 1.1847229 1.9313812.8990631 2.365448.5652161.4340363-.333847.58992-1.6672211-.1806793-2.3103333-.7704468-.6429749-2.0875854-.96875-2.3896179-1.4028015z" fill="#a4b17c"/></g><g><path d="m125.6710892 129.1668854s-5.4821777 3.3020935-6.357132 7.6113434c-.8750153 4.3092346 2.4485855 6.2335663 4.160553 6.4143066 1.7118988.1807404 4.9570541-2.5172729 4.5965652-5.6519012-.3604583-3.1340027-2.6531753-6.7308045-2.3999862-8.3737488z" fill="#5d6a24"/><path d="m125.6223221 129.1764374s-1.7438812 1.0503845-2.0222015 2.4211578c-.2783432 1.3707733.7789001 1.9829102 1.3234711 2.04039.5445557.0574951 1.5768433-.8007355 1.4621658-1.7978668-.1146622-.9969177-.8439713-2.1410675-.7634354-2.663681z" fill="#a4b17c"/></g><g><path d="m159.1498108 156.3421326s-2.2366943 5.9962769-.240097 9.914032c1.996521 3.9177856 5.7957001 3.3559875 7.2483063 2.4321747 1.4525452-.9237671 2.3139954-5.0551453.0812225-7.2846222-2.2323609-2.229004-6.2652741-3.61792-7.0894318-5.0615845z" fill="#5d6a24"/><path d="m159.1175842 156.3799438s-.7114868 1.9074249-.0763855 3.153656c.6351013 1.2462463 1.8436279 1.0675507 2.3056946.7736816.4620514-.2938538.736084-1.6080475.0258331-2.3172455-.7101135-.7090453-1.9929809-1.1508483-2.2551422-1.6100921z" fill="#a4b17c"/></g><g><path d="m175.4918976 177.3559723s-2.9423828 5.6833496-1.4320374 9.8130035c1.5102997 4.1296692 5.3494873 4.0293884 6.9027557 3.2871857 1.5532074-.742157 2.9058075-4.7397614.9577026-7.2218475-1.9477385-2.4815674-5.784088-4.3459473-6.4284209-5.8783417z" fill="#5d6a24"/><path d="m175.4553375 177.3896332s-.9359741 1.8078766-.4555206 3.121521c.480423 1.3136444 1.7016754 1.2817535 2.195755 1.0456543.4940796-.236084.9243469-1.5077209.304657-2.2972717-.6195831-.789383-1.8399201-1.3824463-2.0448914-1.8699036z" fill="#a4b17c"/></g><g><path d="m93.379631 162.5762482s3.5087738-6.2741241 8.2392502-6.8924866c4.7305069-.6184082 6.932663 3.5831757 7.1730957 5.6651764.2404709 2.081955-2.6562042 5.7207642-6.12146 4.9684448-3.4646682-.7519226-7.4852905-3.8797455-9.2908859-3.7411346z" fill="#5d6a24"/><path d="m93.379631 162.4918213s1.5150375-2.7090912 3.5575867-2.9760742c2.042572-.2670288 2.9934311 1.5471649 3.0972443 2.4461365.1038361.8989563-1.146904 2.4701385-2.643158 2.1453094-1.4959946-.3246765-3.232048-1.6752319-4.011673-1.6153717z" fill="#a4b17c"/></g><g><path d="m87.2695541 149.5322571s1.4104309-7.0488892 5.7218399-9.0913239c4.3114243-2.0424957 7.6984177 1.2788239 8.5671539 3.1861267.8687668 1.9072418-.7692184 6.2602539-4.2979584 6.6094818-3.5280608.3494111-8.3154525-1.3911743-9.9910354-.7042846z" fill="#5d6a24"/><path d="m87.2436066 149.4519196s.6090012-3.0436096 2.4706039-3.9255066c1.861618-.8819275 3.3240738.5521698 3.6991806 1.3757172.3751221.8235321-.3321381 2.7030945-1.8557968 2.8538818-1.5233688.1508789-3.5904999-.6006928-4.3139877-.3040924z" fill="#a4b17c"/></g><g><path d="m82.4829636 132.9479065s1.5373535-7.0223007 5.8849106-8.9866257c4.3475647-1.964386 7.6740952 1.4174881 8.5082855 3.3401566.8342133 1.9226074-.8820267 6.2453613-4.4164963 6.5308685-3.5337906.2857208-8.2890015-1.5409546-9.9766998-.8843994z" fill="#5d6a24"/><path d="m82.4584656 132.8671112s.6638107-3.032135 2.5410233-3.8802948c1.8772202-.8482056 3.3135681.6120453 3.6737595 1.4422302.360199.8301544-.3808517 2.6966553-1.9069824 2.819931-1.5258409.1233674-3.5790788-.6653594-4.3078004-.3818664z" fill="#a4b17c"/></g><g><path d="m80.6839066 118.8967361s-.2054062-7.1856766 3.5385056-10.1425095c3.743927-2.9568939 7.7891846-.4792557 9.063324 1.1848068 1.2741547 1.6639862.6535416 6.2733841-2.7071457 7.4046631-3.3599778 1.1313096-8.4157029.5080567-9.8946839 1.5530396z" fill="#5d6a24"/><path d="m80.6406021 118.8242569s-.0886917-3.1026764 1.5278854-4.3793945c1.6165695-1.2767487 3.3632584-.2069397 3.913414.5115814.5501633.7184906.2821884 2.7087631-1.1689072 3.1972275-1.4507903.4884872-3.6337813.2193756-4.2723922.6705856z" fill="#a4b17c"/></g><g><path d="m82.4838638 100.664772s3.20298-6.4356079 7.8982468-7.2807388c4.6952972-.8451996 7.0969696 3.2456284 7.4372482 5.313652.3403168 2.0679779-2.378006 5.8418808-5.8754349 5.2570877-3.4968185-.5844268-7.6632156-3.5152816-9.4600601-3.2900009z" fill="#5d6a24"/><path d="m82.479805 100.5804443s1.3830032-2.7788086 3.4103546-3.1437225c2.027359-.3649445 3.0643692 1.401413 3.2112961 2.2943649.1469498.8929214-1.0267868 2.522438-2.5369263 2.2699356-1.50988-.2523498-3.308876-1.5178527-4.0847244-1.420578z" fill="#a4b17c"/></g><g><path d="m90.7998047 155.2402496s-7.1959534 1.7287598-9.7877808 6.3075562c-2.5918884 4.5787506.2723846 7.9974213 2.0570374 8.8363037 1.784584.8388672 6.3278809-1.0301361 7.1337738-4.7296295.8056946-3.6987457-.3041458-8.6387634.5969696-10.4142304z" fill="#5d6a24"/><path d="m90.7433624 155.233078s-2.2890396.5499115-3.1134949 2.006424c-.8244858 1.4565125.086647 2.5439911.6543427 2.8108368.5676727.2668457 2.0129013-.3276978 2.2692566-1.5045013.2562866-1.1765748-.096756-2.7479859.1898956-3.3127595z" fill="#a4b17c"/></g><g><path d="m85.4422836 140.9611359s-7.3431778.9209137-10.4263153 5.1843872c-3.0832062 4.2634277-.615303 7.978363 1.0654373 9.0097961 1.6806564 1.0314178 6.4030533-.3227539 7.6138306-3.9101868 1.2105026-3.5867309.6547775-8.6192932 1.7470474-10.2839965z" fill="#5d6a24"/><path d="m85.3869781 140.9477539s-2.3358612.2929382-3.3166122 1.6491547c-.9807663 1.3562012-.1957245 2.5379181.3389206 2.8660126.5346146.3280945 2.0368118-.1026611 2.4219589-1.2438202.3850632-1.1409455.2082825-2.7418061.5557327-3.2713471z" fill="#a4b17c"/></g><g><path d="m82.0218658 125.536644s-7.3554077-.8174973-11.348053 2.609108c-3.9926987 3.4265594-2.4595032 7.6147156-1.0657501 9.0097809 1.393692 1.3950043 6.3016891 1.1798248 8.3159332-2.0261688 2.0138093-3.2053834 2.6474-8.2287446 4.0978699-9.5927201z" fill="#5d6a24"/><path d="m81.9712143 125.5107269s-2.3397598-.2600479-3.6098175.8299637c-1.2700806 1.0899887-.7823715 2.4222336-.3390121 2.8660049.4433289.4437561 2.0045624.3753052 2.6452942-.644516.6405944-1.019638.8421401-2.6175689 1.3035354-3.0514526z" fill="#a4b17c"/></g><g><path d="m81.5060959 105.6639786s-5.0080566-3.7867279-9.4054489-3.0204315c-4.3974075.766243-5.0963593 4.4848251-4.6853714 6.1065292.410965 1.6216431 4.082634 3.593811 6.9419098 2.1301346 2.8586959-1.4634094 5.4997177-4.8509827 7.1489105-5.2162323z" fill="#5d6a24"/><path d="m81.4804001 105.6231079s-1.5930634-1.2045593-2.9918671-.9607925c-1.398819.2437363-1.6211548 1.4266205-1.4904175 1.942482.1307297.5158463 1.2986832 1.1431885 2.2082214.677597.9093476-.4655075 1.7494584-1.5430984 2.2740632-1.6592865z" fill="#a4b17c"/></g><g><path d="m90.0406265 90.3865662s-2.618866-5.4160767-6.704277-6.6819229c-4.0853882-1.2659073-6.3047791 1.6008911-6.6620941 3.1635818-.3573074 1.5626297 1.9137039 4.8475647 4.9915314 4.847168 3.077217-.0004273 6.80867-1.7371598 8.3748397-1.3288269z" fill="#5d6a24"/><path d="m90.0365524 90.3404922s-.8330612-1.7228546-2.1326294-2.1255188c-1.2995682-.4026871-2.0055542.5092468-2.1192169 1.0063324-.1136551.4970779.6087494 1.5420151 1.5878067 1.5418854.9788666-.0001373 2.1658402-.5525894 2.6640396-.422699z" fill="#a4b17c"/></g><g><path d="m124.5747757 124.2191315s3.0250549-5.343277 7.068306-5.8502731c4.0432892-.5070419 5.905426 3.0915527 6.1014709 4.8709488.1960907 1.7793427-2.2943573 4.8744354-5.2508087 4.2163544-2.9559326-.6577455-6.3761139-3.3473435-7.9189682-3.2370301z" fill="#5d6a24"/><path d="m124.5751572 124.1470261s1.3061752-2.3071594 3.0519943-2.5260696c1.7458344-.2189331 2.549881 1.3348846 2.6345367 2.1032028.0846558.7683029-.9906769 2.1047211-2.2672348 1.8205643-1.276329-.2840043-2.7531204-1.4453355-3.4192962-1.3976975z" fill="#a4b17c"/></g><g><path d="m124.9150162 119.4156952s-3.0250549-5.343277-7.068306-5.8502731c-4.0432816-.5070419-5.905426 3.0915527-6.1014709 4.8709488-.1960907 1.7793427 2.2943573 4.8744354 5.2508011 4.2163544 2.9559402-.6577454 6.3761215-3.3473435 7.9189758-3.2370301z" fill="#5d6a24"/><path d="m124.9146347 119.3435898s-1.3061752-2.3071594-3.0519943-2.5260696c-1.7458344-.2189331-2.549881 1.3348846-2.6345291 2.1032028-.0846634.7683029.9906693 2.1047211 2.2672272 1.8205643 1.276329-.2840043 2.7531204-1.4453355 3.4192962-1.3976975z" fill="#a4b17c"/></g><g><path d="m122.0793381 107.770607s-3.0250549-5.343277-7.068306-5.8502731c-4.0432816-.5070419-5.905426 3.0915527-6.1014709 4.8709488-.1960907 1.7793427 2.2943573 4.8744354 5.2508011 4.2163544 2.9559402-.6577454 6.3761215-3.3473435 7.9189758-3.2370301z" fill="#5d6a24"/><path d="m122.0789566 107.698494s-1.3061752-2.3071518-3.0519943-2.526062c-1.7458344-.2189331-2.549881 1.3348846-2.6345291 2.1032028-.0846634.7683029.9906693 2.1047211 2.2672272 1.8205643 1.276329-.2840043 2.7531204-1.4453355 3.4192962-1.3977051z" fill="#a4b17c"/></g><g><path d="m123.6760559 111.5242386s3.0250473-5.343277 7.0682983-5.8502731c4.0432892-.5070496 5.905426 3.0915451 6.1014709 4.8709412.1960907 1.7793503-2.2943573 4.8744431-5.2507935 4.2163544-2.9559477-.6577455-6.376129-3.3473436-7.9189757-3.2370225z" fill="#5d6a24"/><path d="m123.6764297 111.4521255s1.3061752-2.3071518 3.0519943-2.5260696c1.7458344-.2189331 2.549881 1.3348923 2.6345367 2.1032104.0846558.7682953-.9906769 2.1047134-2.2672272 1.8205566-1.2763365-.2840041-2.7531203-1.4453353-3.4193038-1.3976974z" fill="#a4b17c"/></g><g><path d="m117.6981049 100.0641022s.3373566-6.1308823 3.7348404-8.3807831c3.3974838-2.2499619 6.6640854.1472778 7.629982 1.6545029.9659119 1.507164.1091156 5.3863144-2.8320465 6.1096725-2.9405518.7234421-7.1994172-.1674271-8.5327759.6166077z" fill="#5d6a24"/><path d="m117.66642 99.9993286s.145668-2.6472321 1.612648-3.6187057c1.4669876-.9715042 2.8774643.063591 3.2945251.714386.4170685.6507721.0471115 2.325737-1.2228394 2.6380768-1.2696914.3123702-3.108612-.0722962-3.6843337.2662429z" fill="#a4b17c"/></g><g><path d="m79.4413986 166.9389038s6.6744308-2.6698456 10.7406235-.1746826c4.0662537 2.4951477 3.1349487 7.1465454 2.0121078 8.9162292-1.1227798 1.7696533-5.6635818 2.7760162-7.8840103.0112915-2.2202148-2.764038-3.3779602-7.7247314-4.868721-8.7528381z" fill="#5d6a24"/><path d="m79.4945068 166.8732758s2.8819275-1.1528015 4.6376495-.0754242c1.7557526 1.0773621 1.3536301 3.0857697.8688049 3.8498993-.4848022.7641144-2.4454575 1.1986542-3.4042053.0048828-.9586562-1.1934815-1.458557-3.335434-2.1022491-3.7793579z" fill="#a4b17c"/></g><g><path d="m78.903511 160.2880859s-7.3809738-.5400696-11.2418213 3.0343933c-3.8609009 3.5744019-2.1711578 7.7018738-.7258911 9.0434875 1.4452057 1.341568 6.341629.9418182 8.2337875-2.3377228 1.891739-3.2789 2.3358155-8.3225554 3.7339249-9.740158z" fill="#5d6a24"/><path d="m78.8519135 160.2640991s-2.3478851-.1717987-3.5760269.9652405c-1.2281494 1.1370239-.6906433 2.4499664-.2309036 2.8767395.4597244.4267578 2.0172729.2995911 2.6191711-.7436371.6017608-1.0430145.7430191-2.6473999 1.1877594-3.0983429z" fill="#a4b17c"/></g><g><path d="m74.262886 142.8244019s-7.3809662-.5400696-11.2418175 3.0343781c-3.8609009 3.5744171-2.1711578 7.701889-.7258873 9.0435028 1.4452057 1.341568 6.341629.9418182 8.2337799-2.3377228 1.891739-3.2789155 2.3358231-8.3225556 3.7339249-9.7401581z" fill="#5d6a24"/><path d="m74.2112961 142.800415s-2.3478928-.1717987-3.5760269.9652405c-1.2281494 1.1370239-.6906433 2.4499664-.2309036 2.8767395.4597168.4267426 2.0172729.2995911 2.6191635-.7436371.6017608-1.0430145.7430267-2.6473999 1.187767-3.0983429z" fill="#a4b17c"/></g><g><path d="m68.853569 123.4750671s-7.2723541-1.3723068-11.513092 1.7420197c-4.2407837 3.1142731-3.0292397 7.4065399-1.745163 8.9031525 1.2840118 1.496582 6.1942101 1.6537933 8.4455185-1.3904266 2.250824-3.043625 3.2631149-8.0045548 4.8127365-9.2547456z" fill="#5d6a24"/><path d="m68.8050232 123.4453964s-2.3133392-.4365387-3.6623154.5541306c-1.3489952.990654-.9636002 2.3560181-.5551376 2.8320999.4084473.476059 1.9703751.5260696 2.6865234-.4422989.7159882-.9681778 1.0379944-2.5462494 1.5309296-2.9439316z" fill="#a4b17c"/></g><g><path d="m66.3448486 110.0186157s-5.3820915-2.903656-9.0918121-1.5653381c-3.7097435 1.3382568-3.4061165 4.9689636-2.6388474 6.4530258.7672272 1.4840164 4.5134125 2.8487167 6.685791 1.0611038 2.1719208-1.7872848 3.6729127-5.3728866 5.0448685-5.9487915z" fill="#5d6a24"/><path d="m66.3119125 109.983345s-1.7120438-.9236526-2.8921051-.4979324c-1.180069.4256973-1.0834885 1.5806274-.8394203 2.0527039.2440567.4720688 1.4357185.9061813 2.1267509.3375397.6908875-.5685349 1.1683579-1.7091141 1.6047745-1.8923112z" fill="#a4b17c"/></g><g><path d="m66.8180389 115.8373871s3.7383194-3.3562469 6.9773254-2.7675705c3.2390518.5886459 3.7156525 3.790741 3.3948212 5.1990585-.3207932 1.408287-3.0530396 3.174118-5.1488876 1.9567947-2.0955505-1.2169418-4.0093231-4.1000594-5.223259-4.3882827z" fill="#5d6a24"/><path d="m66.8374329 115.7823257s1.614151-1.4491806 3.0127106-1.1949997c1.3985748.2541656 1.6043701 1.6367874 1.4658356 2.2448807-.1385117.608078-1.3182602 1.3705368-2.2232208.8449173-.9048234-.5254593-1.7311708-1.7703476-2.2553254-1.8947983z" fill="#a4b17c"/></g><g><path d="m69.1814346 96.1488953s3.7383194-3.3562469 6.9773331-2.7675705c3.2390442.5886459 3.7156525 3.790741 3.3948212 5.1990585-.3207932 1.408287-3.0530472 3.1741257-5.1488953 1.9567947-2.0955429-1.2169418-4.0093231-4.1000518-5.223259-4.3882827z" fill="#5d6a24"/><path d="m69.2008286 96.0938339s1.6141586-1.4491806 3.0127106-1.1949997c1.3985825.2541733 1.6043701 1.6367874 1.4658432 2.2448807-.1385193.608078-1.3182678 1.3705444-2.2232208.8449173-.904831-.5254593-1.7311708-1.7703476-2.255333-1.8947983z" fill="#a4b17c"/></g><g><path d="m86.010643 78.2468796s-1.3070755-5.4964218 1.0147934-8.3799744c2.3218613-2.883606 5.7413177-1.6339722 6.960228-.5603333 1.218895 1.0735779 1.4953461 4.7215729-.8333511 6.1380157-2.3281556 1.4163514-6.2046815 1.7578965-7.1416703 2.802292z" fill="#5d6a24"/><path d="m85.9666672 78.1981354s-.5643768-2.3732758.4381714-3.6183548c1.0025482-1.2451019 2.4790268-.7055283 3.0053253-.2419434.5263062.4635544.6456757 2.0387115-.3598251 2.6503067-1.0052643.6115647-2.6790925.7590409-3.0836716 1.2099915z" fill="#a4b17c"/></g><g><path d="m97.5224915 81.083252s-1.3070831-5.4964218 1.0147934-8.3799744c2.3218536-2.883606 5.7413177-1.6339722 6.9602203-.5603333 1.2189026 1.0735779 1.4953537 4.7215729-.8333435 6.1380157-2.3281632 1.4163514-6.204689 1.7578965-7.1416702 2.802292z" fill="#5d6a24"/><path d="m97.478508 81.0345078s-.5643768-2.3732758.438179-3.6183548c1.0025406-1.2451019 2.4790192-.7055283 3.0053253-.2419434.5263062.4635544.645668 2.0387115-.3598251 2.6503067-1.0052719.6115646-2.6791.7590408-3.0836792 1.2099915z" fill="#a4b17c"/></g><g><path d="m111.0664825 88.9062805s-5.0424652 2.5480804-8.3864899.9595413c-3.3440704-1.5885239-2.9229202-5.2047272-2.1617813-6.6396866.7610779-1.4349365 4.2450714-2.5512161 6.1636963-.6152344 1.9184189 1.9354783 3.1510926 5.6266251 4.3845749 6.2953797z" fill="#5d6a24"/><path d="m111.0292816 88.9603806s-2.1772614 1.1002274-3.6211624.4143143c-1.443924-.6858978-1.2620773-2.2473297-.9334335-2.8669205.3286285-.6195908 1.8329697-1.1015778 2.6613998-.2656555.8283463.8357162 1.3606033 2.4295043 1.8931961 2.7182617z" fill="#a4b17c"/></g><g><path d="m112.8832245 82.2623825s-5.4326248-1.5510483-6.8103256-4.9873123c-1.3777618-3.4362793 1.3858948-5.8061981 2.9187927-6.3434448 1.5328522-.5372772 4.8491516 1.0075531 4.9442291 3.7315369.0952606 2.7234725-1.5046768 6.2709045-1.0526962 7.5992202z" fill="#5d6a24"/><path d="m112.819191 82.2768707s-2.3457336-.6697235-2.9406052-2.1534576c-.5948944-1.4837341.5984116-2.5070343 1.2602997-2.739006.6618576-.231987 2.0937881.4350433 2.1348419 1.6112213.0411377 1.1759567-.6496963 2.707695-.4545364 3.2812423z" fill="#a4b17c"/></g><g><path d="m122.2969513 71.9228821s-5.4326248-1.5510483-6.8103333-4.9873123c-1.3777542-3.4362755 1.3859024-5.8061943 2.9188004-6.3434448 1.5328522-.5372734 4.849144 1.0075531 4.9442215 3.7315369.0952682 2.7234725-1.5046768 6.2709044-1.0526886 7.5992202z" fill="#5d6a24"/><path d="m122.2329178 71.9373703s-2.3457336-.6697235-2.9406052-2.15345c-.594902-1.4837418.5984116-2.5070343 1.2602921-2.7390137.6618652-.231987 2.0937958.4350433 2.1348495 1.6112213.0411301 1.1759644-.6496963 2.707695-.4545364 3.2812424z" fill="#a4b17c"/></g><g><path d="m111.239624 99.4413528s-5.0424652 2.5480804-8.3864822.9595413c-3.3440781-1.5885239-2.9229202-5.2047272-2.1617889-6.6396866.7610779-1.4349365 4.2450714-2.5512161 6.1636963-.6152344 1.9184188 1.9354707 3.1510925 5.6266252 4.3845748 6.2953797z" fill="#5d6a24"/><path d="m111.2024307 99.4954529s-2.177269 1.1002274-3.62117.4143143c-1.443924-.6859055-1.2620773-2.2473297-.9334259-2.8669205.3286209-.6195908 1.832962-1.1015854 2.6613998-.2656555.8283386.8357162 1.3605957 2.4295044 1.8931961 2.7182617z" fill="#a4b17c"/></g><g><path d="m134.5364532 66.2117462s-4.4957123-4.5074883-3.9661407-8.6454201c.529541-4.1379776 4.5499268-4.9539986 6.3534088-4.6416397 1.8034363.3123055 4.2196808 3.6524124 2.818573 6.3855324-1.40065 2.7327156-4.9218292 5.3461914-5.2058411 6.9015274z" fill="#5d6a24"/><path d="m134.4654846 66.1908646s-1.9411926-1.9462662-1.7125244-3.7329712c.2286377-1.7867203 1.9645996-2.1390686 2.7433014-2.0041962.7787018.1348495 1.8220062 1.5770607 1.2170258 2.7571831-.6047822 1.1799507-2.1251679 2.3084144-2.2478028 2.9799843z" fill="#a4b17c"/></g><g><path d="m147.272644 64.9355011s-3.0887451-5.5667305-1.4457397-9.4012375c1.6429901-3.8345642 5.7331085-3.5178719 7.3820038-2.7233543 1.6488647.7944565 3.0575409 4.6687508.9612427 6.9134178-2.0957489 2.2444115-6.198227 3.7931671-6.8975068 5.211174z" fill="#5d6a24"/><path d="m147.2101135 64.8959732s-1.3336792-2.4036331-.6242523-4.0593185c.7094116-1.6557121 2.4754791-1.5189705 3.187439-1.1759071.7119598.3430328 1.3202057 2.0158997.4150543 2.9851189-.9049072.9691008-2.6763001 1.6378325-2.978241 2.2501067z" fill="#a4b17c"/></g><g><path d="m161.82901 68.9456253s-.2428589-6.3615913 2.9543457-9.0413094c3.1971893-2.6797829 6.7037811-.5506439 7.8163605.9027138 1.1125946 1.4532967.6204224 5.5462494-2.2634735 6.6027298-2.8832855 1.0564957-7.2430878.5862961-8.5072327 1.5358658z" fill="#5d6a24"/><path d="m161.7910614 68.8821259s-.1048737-2.7468491 1.2756348-3.9039078c1.3805084-1.1570969 2.8946075-.2377625 3.375.3897781.4804077.6275101.2678833 2.3947906-.9773407 2.8509598-1.2449646.4561844-3.1274567.2531586-3.6732941.6631699z" fill="#a4b17c"/></g><g><path d="m175.0843353 81.7055054s-.2428589-6.3615875 2.9543457-9.0413055c3.1971893-2.6797867 6.7037811-.5506439 7.8163605.90271 1.1125946 1.4533005.6204224 5.5462494-2.2634735 6.6027298-2.8832855 1.0564956-7.2430878.586296-8.5072327 1.5358657z" fill="#5d6a24"/><path d="m175.0463715 81.6420059s-.1048584-2.7468414 1.27565-3.9039078c1.3805084-1.1570969 2.8946075-.2377625 3.375.3897781.4804077.6275101.2678833 2.3947906-.9773407 2.8509674-1.2449646.4561768-3.1274567.253151-3.6733093.6631623z" fill="#a4b17c"/></g><g><path d="m181.9950562 94.9404449s2.6970673-5.7666779 6.7664185-6.6849747c4.069397-.9183502 6.2118378 2.5801315 6.5354462 4.3816223.3236389 1.801445-1.9880676 5.2147293-5.0356293 4.8334045-3.0470277-.3810195-6.7076112-2.7953719-8.2662354-2.5300521z" fill="#5d6a24"/><path d="m181.990387 94.8666153s1.1645508-2.4899673 2.9216461-2.8864746c1.7571106-.3965302 2.6821899 1.1140594 2.8219147 1.891922.13974.7778397-.8584137 2.2516479-2.1743164 2.086998-1.3156586-.1645203-2.8962403-1.2070084-3.5692444-1.0924454z" fill="#a4b17c"/></g><g><path d="m183.8886261 109.4921417s6.7992401-2.2771683 10.7096405.079834c3.9104614 2.356987 2.7210693 6.5618134 1.5029602 8.144516-1.2180481 1.582695-5.7982025 2.39608-7.8546906-.1648102-2.0563049-2.5602722-2.9306335-7.0924606-4.3579101-8.0595398z" fill="#5d6a24"/><path d="m183.9452362 109.4337006s2.9358063-.9832458 4.6242676.0344696c1.6884766 1.0177155 1.1749268 2.8332977.6489563 3.5166931-.5259399.6833801-2.5035858 1.0345917-3.3915405-.071167-.8878937-1.105484-1.2654114-3.0624237-1.8816834-3.4799957z" fill="#a4b17c"/></g><g><path d="m180.1421356 133.069809s6.7992401-2.2771759 10.7096405.079834c3.9104614 2.3569794 2.7210693 6.5618134 1.5029449 8.144516-1.2180481 1.5826874-5.7982025 2.3960724-7.8546753-.1648254-2.0563049-2.5602571-2.9306335-7.0924531-4.3579101-8.0595246z" fill="#5d6a24"/><path d="m180.1987305 133.0113678s2.9358215-.9832611 4.6242828.0344696c1.6884766 1.0177155 1.1749115 2.8332977.6489563 3.5166931-.5259399.6833801-2.5035858 1.0345917-3.3915558-.071167-.8878784-1.1054992-1.2653961-3.0624237-1.8816833-3.4799957z" fill="#a4b17c"/></g><g><path d="m176.1927643 155.8966827s6.7992401-2.2771606 10.7096405.079834c3.9104614 2.3569946 2.7210693 6.5618134 1.5029449 8.1445312-1.2180481 1.5826874-5.7982025 2.3960724-7.8546753-.1648254-2.0563049-2.5602722-2.9306335-7.092453-4.3579101-8.0595398z" fill="#5d6a24"/><path d="m176.2493744 155.8382568s2.9358063-.9832611 4.6242676.0344696c1.6884766 1.0177002 1.1749115 2.8332977.6489563 3.5166779-.5259399.6833954-2.5035858 1.0345917-3.3915405-.071167-.8878937-1.105484-1.2654114-3.0624084-1.8816834-3.4799805z" fill="#a4b17c"/></g><g><path d="m179.1393433 142.2737579s-7.0069122-2.3819275-11.6436615.1047211c-4.636795 2.4865723-4.0412598 6.906601-2.980545 8.5690155 1.0606689 1.6623535 5.8998871 2.5089111 8.5571442-.1882477 2.6566924-2.69664 4.3569487-7.4657898 6.0670623-8.4854889z" fill="#5d6a24"/><path d="m179.095459 142.2375488s-2.2288971-.7576904-3.7038574.0333099c-1.4749603.7909851-1.2855225 2.196991-.9481049 2.7257996.3373871.5287933 1.8767548.7980804 2.7220306-.0598755.8450928-.8578033 1.3859406-2.3748626 1.9299317-2.699234z" fill="#a4b17c"/></g><g><path d="m184.218338 122.2250443s-6.6351776-3.2779083-11.5573425-1.4190598c-4.9221802 1.8587723-4.9098511 6.3187256-4.0756836 8.1055908.834137 1.7868042 5.5210724 3.2590027 8.508255.9325562 2.9865723-2.3260117 5.2959747-6.8318024 7.1247711-7.6190872z" fill="#5d6a24"/><path d="m184.1795654 122.183403s-2.1106567-1.0427017-3.6763916-.4514008c-1.5657501.5912781-1.5618286 2.0099869-1.2964783 2.5783844.2653351.5683823 1.7562561 1.0366898 2.7064819.2966537.9500276-.7399062 1.6846467-2.1732024 2.266388-2.4236373z" fill="#a4b17c"/></g><g><path d="m175.6281891 167.9793396s-6.6351776-3.2779083-11.5573425-1.4190674c-4.9221802 1.8587799-4.9098511 6.3187256-4.0756836 8.1055908.834137 1.7868042 5.5210724 3.2590027 8.508255.9325562 2.9865722-2.326004 5.2959747-6.8318024 7.1247711-7.6190796z" fill="#5d6a24"/><path d="m175.5894165 167.9376984s-2.1106567-1.0427094-3.6763916-.4514008c-1.5657501.5912628-1.5618286 2.0099792-1.2964783 2.5783844.2653351.5683746 1.7562561 1.0366821 2.7064819.2966461.9500275-.7398987 1.6846467-2.1732025 2.266388-2.4236297z" fill="#a4b17c"/></g><g><path d="m183.4854584 101.2083282s-6.5026703-.9792404-10.1657562 1.9256821c-3.6631317 2.9048691-2.446106 6.6763229-1.2566528 7.9629974 1.1893768 1.2866364 5.5545807 1.2646637 7.4534607-1.5125351 1.8984679-2.7766647 2.6340941-7.2150421 3.9689483-8.3761444z" fill="#5d6a24"/><path d="m183.4413757 101.1835785s-2.0684967-.3115005-3.2337341.6125565c-1.1652374.9240417-.7781067 2.1237411-.3997345 2.5330276.3783417.4092789 1.7669067.4022903 2.3709412-.4811325.6038971-.8832626.8379059-2.2951126 1.2625274-2.6644516z" fill="#a4b17c"/></g><g><path d="m177.5856171 83.770874s-6.2840424 1.9375992-8.3249969 6.1437073c-2.0410156 4.2060776.6911621 7.0766525 2.3209229 7.7202225 1.6296997.6435623 5.5535431-1.2692719 6.0601959-4.5952072.5065307-3.3252869-.7553865-7.6436081-.0561219-9.2687226z" fill="#5d6a24"/><path d="m177.5351715 83.7676926s-1.9989624.6163483-2.6481934 1.9543076c-.6492462 1.3379517.2198639 2.2510834.7382965 2.4558029.5184021.2047195 1.766571-.4037552 1.9277496-1.461731.1611176-1.0577774-.2402953-2.4314346-.0178527-2.9483795z" fill="#a4b17c"/></g><g><path d="m167.2781677 72.8154373s-6.1622162 1.3513947-8.0292816 4.7206726c-1.8671112 3.3692474.9515533 5.8236389 2.5927734 6.4121094 1.6411438.5884552 5.4625092-.8312988 5.8403015-3.5371094.3776856-2.7052765-1.0365753-6.2905349-.4037933-7.5956726z" fill="#5d6a24"/><path d="m167.2279816 72.8109283s-1.9602051.4298782-2.5541077 1.5016479c-.5939331 1.0717545.3026886 1.8525009.8247528 2.0396881.522049.1871872 1.7376251-.2644348 1.8578033-1.1251526.1201478-.8605498-.3297271-2.0010222-.1284484-2.4161834z" fill="#a4b17c"/></g><g><path d="m152.5541382 64.6838455s-5.0773315 3.7443314-5.4100189 7.5819397c-.3327484 3.8376083 3.2412415 4.9309769 4.9798431 4.7998734 1.7385101-.1310806 4.6501465-2.984314 3.8929901-5.6093521-.7570495-2.6245118-3.509079-5.3227539-3.4628143-6.772461z" fill="#5d6a24"/><path d="m152.5064697 64.7001724s-1.615097 1.1910706-1.720932 2.4118118c-.1058502 1.2207413 1.0310364 1.5685425 1.5840912 1.5268402.5530243-.0416946 1.4792175-.9493103 1.2383575-1.7843323-.2408142-.8348617-1.1162414-1.6931686-1.1015167-2.1543197z" fill="#a4b17c"/></g><g><path d="m129.60495 67.3639755s-1.0727539 6.2167892 1.3434143 9.2167969c2.4161224 3.0000534 5.7523956 1.3153534 6.9164429.0173264 1.1640167-1.2979584 1.2905273-5.3725815-1.0729218-6.7430725-2.3629914-1.3701859-6.2168732-1.4127198-7.1869354-2.4910508z" fill="#5d6a24"/><path d="m129.5818481 67.4087524s-.3412476 1.977562.4273376 2.9318619c.7685699.9543152 1.829834.4184189 2.200119.0055161.370285-.4128876.4105225-1.7090225-.3412933-2.1449738-.7516631-.4358597-1.9775848-.4493866-2.2861633-.7924042z" fill="#a4b17c"/></g><g><path d="m117.7557526 80.5003433s3.1708984 5.4538651 6.9496918 6.2012787c3.7787933.7474747 5.2537537-2.686676 5.3122101-4.4292221.0584564-1.7424774-2.4617462-4.9467087-5.1534805-4.4790497-2.6911927.4676056-5.6723024 2.9103928-7.1084214 2.7069931z" fill="#5d6a24"/><path d="m117.7668076 80.5494995s1.0086594 1.7348709 2.2106934 1.9726257c1.202034.2377701 1.6712265-.8546295 1.6898193-1.4089355.0185928-.5542831-.7830887-1.5735474-1.639328-1.4247818-.8560639.1487427-1.8043595.9257889-2.2611847.8610916z" fill="#a4b17c"/></g><g><path d="m159.1673584 142.9326782s-6.093811-1.6324463-9.3006744.5015411c-3.2069092 2.1339417-1.8318939 5.609314-.6448517 6.8863525 1.1869812 1.2769775 5.2333221 1.7726898 6.8126068-.4566498 1.5789642-2.2289122 1.9710235-6.0630339 3.1329193-6.9312438z" fill="#5d6a24"/><path d="m159.1248627 142.9056091s-1.938446-.5192871-2.9585419.1595306c-1.0201263.6788177-.5827332 1.7843323-.2051392 2.1905518s1.6647186.5639038 2.167099-.1452484c.5022736-.7090301.6269837-1.9286651.9965821-2.204834z" fill="#a4b17c"/></g><g><path d="m160.2919312 122.4374924s-6.0937958-1.6324387-9.3006744.5015488c-3.2069092 2.133934-1.8318939 5.609314-.6448517 6.8863373 1.1869965 1.2769928 5.2333221 1.7727051 6.8126221-.4566345 1.5789489-2.2289201 1.9710082-6.0630418 3.132904-6.9312516z" fill="#5d6a24"/><path d="m160.2494354 122.4104233s-1.9384308-.5192795-2.9585419.1595383c-1.0201111.6788101-.5827179 1.7843246-.2051239 2.1905518.3775787.4062119 1.6647186.5638962 2.167099-.145256.5022584-.7090227.6269684-1.9286577.9965668-2.2048341z" fill="#a4b17c"/></g><g><path d="m161.1770325 104.9663849s-6.0937958-1.6324387-9.3006744.5015411c-3.2069092 2.133934-1.8318939 5.609314-.6448517 6.8863525 1.1869965 1.2769852 5.2333221 1.7726974 6.8126221-.4566422 1.5789489-2.2289199 1.9710082-6.0630416 3.132904-6.9312514z" fill="#5d6a24"/><path d="m161.1345367 104.9393158s-1.9384308-.5192795-2.9585419.1595383c-1.0201263.6788025-.5827179 1.7843246-.2051239 2.1905441.3775787.4062119 1.6647186.5638962 2.1670837-.145256.5022737-.7090149.6269838-1.92865.9965821-2.2048264z" fill="#a4b17c"/></g><g><path d="m156.4195709 87.4952698s-6.0937958-1.6324387-9.3006744.5015488c-3.2069092 2.133934-1.8318939 5.609314-.6448517 6.8863449 1.1869965 1.2769928 5.2333221 1.7727051 6.8126221-.4566345 1.5789489-2.2289201 1.9710083-6.0630494 3.132904-6.9312592z" fill="#5d6a24"/><path d="m156.3770752 87.4682007s-1.9384308-.5192795-2.9585419.1595459c-1.0201263.6788025-.5827332 1.7843246-.2051239 2.1905441.3775787.4062119 1.6647186.5638962 2.1670837-.145256.5022736-.7090149.6269837-1.9286499.9965821-2.204834z" fill="#a4b17c"/></g><g><path d="m144.6747437 75.1547318s-5.9531555 2.0878677-7.3983612 5.6584854c-1.4452515 3.5706024 1.6499634 5.6654968 3.3503723 6.0508423 1.7003479.3853302 5.3215942-1.4868393 5.368866-4.2184906.0472106-2.731102-1.7909089-6.11866-1.3208771-7.4908371z" fill="#5d6a24"/><path d="m144.6243744 75.1563339s-1.893692.6641541-2.3534088 1.7999649c-.4597321 1.1358109.5248566 1.8022003 1.0657501 1.9247742.5408783.1225739 1.6927948-.4729614 1.70784-1.3419037.0150146-.8687591-.5696869-1.9463425-.4201813-2.3828354z" fill="#a4b17c"/></g><g><path d="m159.1741943 132.8852844s4.3650055-3.9394531 8.1919098-3.1768188c3.8269501.7625885 4.4300842 4.5954895 4.0698547 6.2714844-.3601837 1.6759644-3.5592957 3.7345428-6.0462799 2.2421875-2.4866485-1.4919129-4.7803497-4.9703064-6.2154846-5.3368531z" fill="#5d6a24"/><path d="m159.1963501 132.81987s1.8847504-1.7009888 3.5371552-1.3717041c1.65242.3292847 1.9128418 1.9842682 1.757309 2.7079468-.1555176.7236481-1.53685 1.6125183-2.6107025.9681396-1.0737001-.6441803-2.064087-2.1461029-2.6837617-2.3043823z" fill="#a4b17c"/></g><g><path d="m160.5031738 114.7555389s4.3650055-3.9394455 8.1919098-3.1768188c3.8269501.7625961 4.430069 4.5954971 4.0698395 6.271492-.3601685 1.6759567-3.5592804 3.7345505-6.0462799 2.2421875-2.4866333-1.4919052-4.7803345-4.9703064-6.2154694-5.3368607z" fill="#5d6a24"/><path d="m160.5253296 114.6901398s1.8847504-1.701004 3.5371552-1.3717117c1.65242.329277 1.9128418 1.9842758 1.7572937 2.7079468-.1555176.7236557-1.53685 1.6125259-2.6106873.9681396-1.0737-.6441803-2.0640869-2.1461029-2.6837616-2.3043747z" fill="#a4b17c"/></g><g><path d="m159.2744904 98.353775s4.3650055-3.9394455 8.1919098-3.1768188c3.8269501.7625961 4.4300842 4.5954971 4.0698547 6.271492-.3601837 1.6759567-3.5592957 3.7345505-6.0462799 2.2421875-2.4866486-1.4919052-4.7803345-4.9703064-6.2154846-5.3368607z" fill="#5d6a24"/><path d="m159.2966614 98.2883759s1.8847351-1.701004 3.5371399-1.3717117c1.6524353.329277 1.9128571 1.9842758 1.757309 2.7079468-.1555176.7236557-1.53685 1.6125259-2.6107025.9681396-1.0737-.6441803-2.064087-2.146103-2.6837464-2.3043747z" fill="#a4b17c"/></g><g><path d="m138.0179138 157.1617279s4.3650055-3.9394531 8.1919098-3.1768188c3.8269501.7625885 4.430069 4.5954895 4.0698547 6.2714844-.3601837 1.6759644-3.5592957 3.7345581-6.0462799 2.2421875-2.4866485-1.4918977-4.7803497-4.9703065-6.2154846-5.3368531z" fill="#5d6a24"/><path d="m138.0400696 157.0963135s1.8847504-1.7009888 3.5371552-1.3717041c1.65242.3292847 1.9128418 1.9842834 1.757309 2.7079468-.1555176.7236633-1.53685 1.6125336-2.6107025.9681396-1.0737001-.6441803-2.064087-2.1461029-2.6837617-2.3043823z" fill="#a4b17c"/></g><g><path d="m138.3535156 147.2366028s-5.3847351-2.321228-8.7325134-.6702728c-3.3478241 1.6509399-2.6663361 5.1567993-1.7820206 6.5293121.8842697 1.3724976 4.5608749 2.3493347 6.4118881.4050598 1.8508301-1.9437866 2.8734131-5.5745544 4.1026459-6.2640991z" fill="#5d6a24"/><path d="m138.3113861 147.1851196s-2.3250427-1.0022736-3.7705688-.2894135c-1.4455414.7128601-1.1512909 2.2266388-.769455 2.8192596.3818207.5926361 1.9693298 1.0144196 2.7685699.1749115.7991486-.8393096 1.2406922-2.4070128 1.7714539-2.7047576z" fill="#a4b17c"/></g><g><path d="m140.9632568 130.329483s-5.3847351-2.321228-8.7325134-.6702728c-3.3478241 1.6509399-2.6663361 5.1567993-1.7820282 6.5293121.8842773 1.3724976 4.5608826 2.3493347 6.4118958.4050598 1.85083-1.9437866 2.873413-5.5745544 4.1026458-6.2640991z" fill="#5d6a24"/><path d="m140.9211273 130.2779999s-2.325058-1.0022736-3.7705688-.2894135c-1.4455566.7128601-1.1512909 2.2266388-.769455 2.8192749.3818054.5926208 1.9693146 1.0144043 2.7685547.1748962.7991638-.8392944 1.2407074-2.4070129 1.7714691-2.7047576z" fill="#a4b17c"/></g><g><path d="m142.5219421 110.8034744s-5.3847351-2.321228-8.7324982-.6702728c-3.3478394 1.6509323-2.6663513 5.1567993-1.7820282 6.5293121.8842621 1.3724976 4.5608826 2.3493271 6.4118805.4050522 1.8508301-1.943779 2.8734284-5.5745392 4.1026459-6.2640915z" fill="#5d6a24"/><path d="m142.4798279 110.7519989s-2.325058-1.0022736-3.7705841-.2894135c-1.4455414.7128448-1.1512909 2.2266312-.769455 2.8192596.3818207.5926285 1.9693298 1.0144119 2.7685699.1748962.7991639-.8392943 1.2407075-2.4070052 1.7714692-2.7047423z" fill="#a4b17c"/></g><g><path d="m138.615448 96.1201706s-5.3847351-2.321228-8.7325134-.6702728c-3.3478241 1.6509399-2.6663361 5.1567993-1.7820129 6.5293121.8842621 1.3724976 4.5608673 2.3493347 6.4118805.4050598 1.85083-1.9437866 2.873413-5.5745468 4.1026458-6.2640991z" fill="#5d6a24"/><path d="m138.5733185 96.0686951s-2.3250427-1.0022736-3.7705688-.2894135c-1.4455414.7128448-1.1512909 2.2266312-.769455 2.8192596.3818207.5926285 1.9693298 1.0144119 2.7685699.1749039.7991638-.839302 1.2406922-2.4070129 1.7714539-2.70475z" fill="#a4b17c"/></g><g><path d="m138.6951141 143.1546783s5.5343475 1.9376221 8.7580109.0558014c3.2237244-1.8818054 2.2978821-5.3312073 1.3194275-6.6382751-.9784088-1.3070526-4.7145081-2.023468-6.4245148.0459137-1.7098541 2.0688629-2.4751282 5.7624359-3.6529236 6.53656z" fill="#5d6a24"/><path d="m138.7407379 143.203064s2.3896637.8366394 3.7815857.0240936c1.3919678-.8125305.9922028-2.3019409.5697174-2.8663025-.4224548-.5643768-2.0356598-.8737183-2.7740173.0198212-.7382813.8933105-1.0687256 2.4881439-1.5772858 2.8223877z" fill="#a4b17c"/></g><g><path d="m141.6238708 122.3767166s5.5343475 1.9376221 8.7580109.0558014c3.2237244-1.8818054 2.2978821-5.3311996 1.3194275-6.6382675-.9784088-1.3070602-4.7144928-2.0234756-6.4244995.0459061-1.7098694 2.0688705-2.4751434 5.7624435-3.6529389 6.53656z" fill="#5d6a24"/><path d="m141.6694946 122.4251099s2.3896637.8366394 3.781601.0240936c1.3919525-.8125381.9921875-2.3019333.5697021-2.8663101-.4224548-.5643692-2.0356598-.8737106-2.7740173.0198212-.7382813.8933105-1.0687256 2.4881439-1.5772858 2.8223953z" fill="#a4b17c"/></g><g><path d="m141.4672852 104.65522s5.5343628 1.9376221 8.7580261.0557938c3.2237091-1.8818054 2.2978668-5.3311996 1.3194122-6.6382675-.9783936-1.3070526-4.7144928-2.0234756-6.4244995.0459061-1.7098541 2.0688705-2.4751282 5.7624511-3.6529388 6.5365676z" fill="#5d6a24"/><path d="m141.5129242 104.7036133s2.3896484.8366318 3.7815857.0240936c1.3919525-.8125381.9921875-2.3019409.5697021-2.8663177-.4224548-.5643692-2.0356445-.873703-2.7740021.0198288-.7382964.8933029-1.0687255 2.4881439-1.5772857 2.8223953z" fill="#a4b17c"/></g></g></svg>