<svg id="Слой_1" enable-background="new 0 0 230.3999939 230.3999939" height="512" viewBox="0 0 230.3999939 230.3999939" width="512" xmlns="http://www.w3.org/2000/svg"><g><g><path d="m129.2168427 128.9715729s18.7992706-1.071434 28.3560791-21.3074646c6.3984528-13.5483627-2.4825745-23.4035187-10.029953-27.0500488-7.548172-3.6462479-28.4860535.7387695-27.0950851 25.7593155-.0000001-.0000001.3944778 11.6705093 8.768959 22.5981979z" fill="#d4be54"/></g><g><path d="m125.9283981 117.2238541s-20.1676178-10.0157394-20.8441315-30.182518c-.676506-20.1676254 11.7755051-20.8441391 16.3774719-20.5735245 4.6019592.2705994 21.6559525 3.5186996 17.8657913 26.6638107.0000001 0-2.1656646 11.6402054-13.3991317 24.0922318z" fill="#5a6b10"/></g><g fill="#969105"><path d="m121.0546494 72.1324997c-.0119629-.0033646-.0239258.0038605-.0272827.0158234-.074646.2818375-.1380692.5661774-.2079086.8491898-.1700287.695694-.3480988 1.389946-.5092697 2.0871277-.3100281 1.33992-.589592 2.6862488-.857933 4.0350876-.4023666 2.0212097-.7720871 4.052269-1.0312271 6.0967255-.2292252 1.803978-.3777924 3.618248-.4385605 5.4351883-.1077728 3.2007294.0145187 6.4183426.4554749 9.5920486.3701935 2.6639633.9835358 5.2912445 1.7681351 7.863266.7669144 2.5160751 1.7050934 4.9768982 2.866806 7.3384171-1.1750412-2.410614-2.0952682-4.9352264-2.7214508-7.5439453-.5983429-2.4941406-.9445419-5.0356903-1.1882095-7.5864639-.2512054-2.6328125-.3627319-5.2809525-.357254-7.9249725.0030212-1.8075485.0646057-3.6138382.1521683-5.4189453.1678314-3.4625015.4536591-6.9232635 1.0747833-10.3370438.1494751-.820282.3189392-1.6357727.5044785-2.4483948.1550751-.6813507.321991-1.3577347.532135-2.0242691.0033032-.0111467-.0037311-.0255358-.0148852-.0288393z"/><path d="m127.3898544 76.0974884c-.0559616.8338089-.1851044 1.6575546-.4557953 2.4506073-.3017197.8858719-.7737427 1.695755-1.2874222 2.4734268-.4646378.7034149-.9700546 1.3835602-1.5245209 2.0185547-.6253815.7175217-1.3022614 1.3874741-1.9930496 2.042099-.449501.425499-.9071808.8437576-1.4009018 1.2175827-.4113083.3123322-.8463745.5923309-1.2987442.8391571-.1675034.0921326-.3374786.1802292-.5107346.2626572.6502686-.2879868 1.2956238-.5848923 1.9327011-.9020309.7601318-.3781052 1.5111923-.774826 2.1948929-1.2815628.6618729-.4903336 1.2622528-1.0647278 1.79319-1.6954956.5792618-.6887817 1.0816956-1.4476852 1.4488449-2.2714691.3287354-.7398376.549118-1.5252304.7174683-2.3151321.1990357-.9363328.3305894-1.8819505.3840714-2.8383943z"/><path d="m132.1720428 79.5490646c-.1808167 1.2382507-.5002441 2.4462814-1.0190277 3.5876465-.4881897 1.0720291-1.1432953 2.0579071-1.8625488 2.9883194-.7166443.9281769-1.5011215 1.8063278-2.3518906 2.6141968-.9632187.914093-2.0025024 1.7473907-3.0715637 2.533577-.6942749.5103455-1.4019928 1.004982-2.1451721 1.4414902-.6202469.3636932-1.2647934.6831512-1.9273605.9613037-.2727432.1142502-.5492172.2241364-.8297501.3231354.8061447-.2703705 1.6058197-.5624084 2.3952179-.8796844.9314957-.3747711 1.8581314-.7710953 2.743721-1.2479858.5252533-.2830124 1.03405-.5958023 1.5232239-.9394379 1.6336288-1.1460114 3.0784912-2.6022873 4.1392212-4.296669.6391449-1.0221329 1.1184845-2.1380081 1.5019684-3.2783813.4163513-1.2396852.7243957-2.5113146.9039611-3.8075106zm-13.2073135 14.4496689c-.2797318.0990448-.5642471.1863174-.854126.2479248-.0115814.0023651-.0174484.0149536-.014267.0266037.0023651.0115891.0148849.0182495.026535.0150757.151947-.0477753.298111-.1049728.4493637-.1544342.1319505-.0419846.2611619-.0906982.3924943-.13517z"/><path d="m134.0954285 86.2188034c-.1809998 1.1877213-.4959412 2.3480377-1.0027008 3.439003-.5701904 1.2270279-1.3685608 2.3281403-2.2511139 3.3478317-.791275.9134827-1.6543732 1.7652054-2.578598 2.5429916-1.0645065.8965225-2.2019119 1.702713-3.3644867 2.4654236-.6357727.4170761-1.2809372.8187561-1.946991 1.1846237-.7178726.3936539-1.4637909.7387238-2.2285767 1.0326309-.2938004.1126328-.589035.2227097-.8898773.3209457.9483185-.2863083 1.8903427-.5967255 2.8215942-.9364853.8255844-.3006363 1.6443253-.618103 2.4390182-.9936218.5655594-.2668762 1.1159058-.5691376 1.6471939-.898941 1.752121-1.087204 3.3461914-2.4920731 4.5477142-4.1740036.5843201-.8177795 1.0621033-1.7016068 1.464447-2.621376.655533-1.4998932 1.1077272-3.0887603 1.3423769-4.7090225zm-14.3717347 14.3682175c-.3005981.0949936-.6051178.177475-.9142456.2351608-.0116501.0031662-.0206833.0146942-.0175095.0263443.0023041.0124054.0147095.0206833.0263596.0175171.1523209-.0420532.2999649-.0975037.4515381-.140419.1516419-.0437317.3020859-.0932617.4538574-.1386032z"/><path d="m137.309494 92.4674683c-.0480957.3075104-.1171417.6117706-.1844788.9153519.0713959-.3032685.1339417-.6080323.1844788-.9153519zm-.1844787.9153518c-.1948242.8167953-.4687042 1.6128464-.844574 2.3684616-.699707 1.4068909-1.6983795 2.6017609-2.827179 3.6880341-.9334564.8976517-1.9437714 1.7144318-3.0068512 2.4546509-1.1800842.8208237-2.4244385 1.5454636-3.6855774 2.2337799-.9669495.5284576-1.9479752 1.0387344-2.9614639 1.4731827-.6865387.2934113-1.3872833.5490799-2.0994263.7729111-.6712036.2106781-1.3522644.4116364-2.0502014.5143585-.0123367.0014877-.0198669.0147629-.0175095.0263519.0023727.0115891.0123367.0196838.0239258.0173111.1609192-.0373077.3201599-.0845261.4803925-.1235275.3851852-.0933762.7706985-.1802063 1.1545868-.2777634.8666458-.2200928 1.7277374-.4634094 2.5854187-.7151413.935173-.2742844 1.868042-.5609665 2.7766724-.9138718.6424942-.2503662 1.2729645-.5350571 1.8854218-.8504715 1.8798981-.969017 3.6495209-2.2202606 5.0776215-3.7869873.7776337-.8526077 1.43396-1.8017197 1.9859619-2.8134384.6978911-1.2774887 1.2075194-2.6492996 1.5227813-4.0678406z"/><path d="m115.4755096 75.9263611c-.0120697-.0029755-.0262146.0045319-.0283356.0158234-.0113678.0734863-.0171585.1496582-.0276794.222374-.0292511.2027893-.0779419.4039154-.1160431.6046906-.0868149.4580078-.1711349.9144897-.2635651 1.3706131-.1435776.7132416-.283844 1.4250107-.3004761 2.1544113-.0131149.5750656.0339432 1.1503525.1252441 1.7178268.0880356.5494308.2235565 1.0912018.4193573 1.6120529.2540436.6754379.6190414 1.3053665 1.0137634 1.906517.4038467.6153641.8263702 1.2128525 1.306778 1.7697906-.4519119-.5394287-.8334427-1.1261673-1.0947952-1.7832336-.2966003-.7431793-.4364014-1.538826-.5791702-2.3223877-.1067505-.5860367-.2011795-1.1747894-.2776489-1.7651825-.0633011-.4832993-.111145-.9667435-.1679077-1.4505768-.0661926-.5655441-.1518478-1.131958-.1894379-1.7003098-.0290985-.4476547-.0215225-.8969498.0208664-1.3430786.0324936-.3319244.0699539-.6660767.1733551-.9835052.0021592-.0120926-.0022048-.0236664-.0143051-.0258255z"/><path d="m110.955986 82.7406235c-.0122681.0006866-.0204926.0122757-.0197449.023735.0137634.0857773.0325241.1703262.0462875.2561111.0381165.2351151.0595398.4754562.0902557.711647.0649643.4897232.1316147.9787674.1949005 1.4691925.0954285.7291489.1889954 1.4614105.3827209 2.1728592.1924973.7064743.4649124 1.3905869.7977066 2.0418701.3420105.6690903.749115 1.3073502 1.2404633 1.8779602.4839249.5610657 1.0492172 1.0493774 1.6361237 1.5002441.6515732.4998398 1.3291245.9584961 2.0556488 1.3418961-.63414-.3453369-1.2222977-.7588272-1.7299576-1.2761002-.6723175-.6855545-1.1717453-1.521553-1.643959-2.3513794-.3336639-.5869904-.6480713-1.1806412-.941864-1.7881775-.3345947-.6913452-.6354218-1.3980026-.9514465-2.0976791-.2192841-.4853134-.4400024-.9731827-.6196594-1.4758148-.154808-.4339218-.2772217-.8759232-.3712158-1.3271637-.0725708-.3485641-.1392212-.6999283-.1427078-1.0570221-.0006867-.0122756-.012085-.0229338-.023552-.0221785z"/><path d="m108.2425842 91.6309814c-.0109024.0040588-.0158844.015892-.0118332.0267944.0351944.08255.0761871.1639099.1130676.2457657.1016617.2245331.1879425.4584656.283699.6857986.198288.47229.4032974.9418411.6066895 1.4112625.3154144.7289658.632431 1.4580612 1.0495758 2.1353836.404129.6559448.886055 1.2641144 1.4184494 1.8199615.5278473.5514069 1.1077194 1.0514374 1.7477112 1.4689102.6966782.4536133 1.4614487.7951431 2.2382507 1.0862885.8093185.302597 1.6334.5509338 2.4804688.7228317-.7741776-.1662827-1.5218277-.4128113-2.217514-.7946548-.7926178-.4349365-1.4846191-1.0234146-2.1508331-1.6294632-.531456-.4832687-1.0475998-.9857254-1.535759-1.5129089-.6092072-.6586838-1.182785-1.3464203-1.7605972-2.0320282-.3449402-.4086304-.6878204-.8227997-.9981232-1.2580795-.283699-.3998413-.5381165-.8202438-.7637024-1.2555313-.1843948-.3563461-.3616943-.7203064-.4695206-1.1082306-.0040512-.0109023-.0183105-.0160827-.0300293-.0121002z"/><path d="m107.254921 100.4651413c-.0102768.0065384-.0139618.0225449-.0074234.0328217.0577545.0753174.1216049.1454086.1810455.220047.1649628.2065811.3211365.4214554.486908.6281052.337532.4202728.6837234.8338776 1.0343323 1.2429428.5105896.5957108 1.0383759 1.1797104 1.6451492 1.6793518.6029205.4969101 1.264595.9185028 1.9590912 1.2733688.7148132.3662033 1.4685593.6604538 2.248848.8532867.7762985.1917038 1.5737839.2775116 2.3694077.3452377.8604126.072731 1.7227554.1203308 2.5869598.1224747-.7836533-.0114212-1.5622635-.0778427-2.3276062-.2532272-.9367828-.2130203-1.8268433-.5886383-2.7021332-.9761581-.6310806-.2791061-1.2551193-.575592-1.8632126-.8993683-.7950516-.42453-1.5641861-.8894196-2.3291397-1.3662033-.4835587-.3011627-.9666901-.6079865-1.4180984-.9563751-.3990784-.3085098-.7721176-.6484222-1.1159973-1.0178604-.2648849-.2843323-.5255432-.5813828-.718605-.9204788-.0065386-.0102769-.0192491-.0145189-.0295259-.0079652z"/></g><path d="m105.9416656 136.7216949c-.0790024.0050354-.1596756.0251923-.2344666.0630188-.297493.1504211-.4176712.5134735-.2672424.8118134.1546326.3075867.2949829.6218872.4328079.937027.2218475.5075989.432785 1.0227661.6327972 1.5395966.5815582 1.4984131 1.0799026 3.0270844 1.5051422 4.5767517 1.3336945 4.8582916 1.9446564 9.9770966 1.4421082 15.0042725-.1395111 1.3874817-.3722992 2.7606812-.6832352 4.1204224-.0781631.3437195.1369781.6857758.4806976.763916.3437119.0781555.6857605-.1369934.7639084-.4806976.3529663-1.5496674.6067657-3.1170044.7437439-4.7011261.4361649-5.0507355-.2218552-10.1577759-1.5706787-15.0294952-.4210358-1.5211029-.9143448-3.0237122-1.478241-4.4985962-.2294235-.5983582-.4706192-1.1908264-.7277832-1.7782593-.1470642-.3353119-.2975006-.6706238-.4622116-.9975433-.1126097-.2235414-.3428725-.3462374-.5773467-.3311007z" fill="#5a6b10"/><path d="m90.1632996 145.2649841c-.1546326-.002533-.3084259.053772-.4277573.1705933-.238678.2327881-.2462387.6143188-.0126114.8529968.137825.1403351.2638855.2949677.3882599.4470825.2008591.2453918.3916245.4975128.5748215.7563477.5647507.7916412 1.0605698 1.6337128 1.4975815 2.5026703 1.4463043 2.8808441 2.202652 6.0869446 2.3371124 9.3014221.0437012 1.0395508.0142899 2.0799561-.0605087 3.1178284-.0252151.3512878.2420349.6546631.5933228.6798706.3521118.0252228.6554947-.2395172.6807098-.5907898.1050491-1.4908447.1100845-2.9859009-.0269012-4.4750671-.2731247-2.980011-1.0849304-5.9104462-2.4371185-8.5828705-.4664154-.9219055-.9983826-1.8127136-1.5992508-2.6547852-.3319626-.4655762-.6815643-.9328308-1.0815887-1.3446198-.1168062-.1193389-.2706072-.1790008-.4260713-.1806793z" fill="#5a6b10"/><g><path d="m80.6957855 136.8276672s-12.00914 21.749588-37.4458733 14.4673004c0 0-9.9415359-4.2305603-6.478096-16.0088959 3.4635277-11.7791824 20.4300728-9.0523682 26.8690453-6.4651489 6.4393005 2.588089 17.054924 8.0067444 17.054924 8.0067444z" fill="#969105"/></g><g fill="#d4be54"><path d="m39.8275299 137.5621185c-.0045166.0077667-.0005379.0168915.0085526.020752.2147675.087677.4332428.1679993.6496849.2525482.5322914.2066956 1.0622101.4187012 1.5970421.6195221 1.0278664.3861389 2.0654907.7522278 3.1068306 1.1109619 1.5603943.537735 3.1336479 1.0543823 4.7344322 1.496994 1.4124107.3909607 2.8453178.7279663 4.2937012 1.0051727 2.5513611.4888306 5.1511955.8222198 7.7641792.9315796 2.1933098.0917511 4.3941078.0121613 6.5765724-.1919403 2.134903-.1992188 4.2514725-.5229492 6.322319-1.0127106-2.1122513.4925232-4.2772751.7956848-6.465126.8864899-2.091713.0865631-4.1831818-.0057526-6.2664795-.1695251-2.1502609-.1692352-4.2916107-.4361725-6.4118958-.7827148-1.4496117-.2364349-2.8893204-.5128174-4.3241425-.8068542-2.7522507-.5639038-5.4851875-1.2084351-8.1295319-2.0766144-.6353645-.2087555-1.2638512-.4305878-1.8875961-.6630707-.5230598-.1945953-1.0403328-.3966522-1.5431442-.6270447-.0084457-.0037079-.0210533-.0007477-.0253982.0064544z"/><path d="m43.9701157 133.735672c.660408.1464386 1.3016434.3417206 1.896759.6300049.6648674.321579 1.2429199.7499847 1.7888145 1.2027588.4937668.4095459.9626694.8440094 1.3879051 1.3062286.4806862.5214996.9153862 1.0721283 1.3356705 1.6302948.2731133.3631439.5391769.7309418.7641144 1.1176758.1881256.3223114.3466988.6566925.4760323.9986267.0484848.126709.0933571.2545929.1331825.3839874-.1323204-.4828644-.2725334-.9635162-.4302368-1.4411316-.1879311-.5698242-.3921776-1.135849-.6949043-1.6699829-.292881-.5170441-.662529-1.0028687-1.0879478-1.44841-.4646225-.4861908-.9971695-.9288177-1.6022949-1.2871704-.5436172-.3211517-1.1402283-.5739746-1.7483559-.7917328-.7209397-.2577667-1.4595681-.4705048-2.2187386-.6311493z"/><path d="m47.4650612 130.9066925c.9659119.2844238 1.8865395.6599121 2.723423 1.1633301.7859039.473465 1.4773483 1.0501251 2.1145706 1.663559.6358147.6113434 1.2212029 1.2626801 1.7401466 1.9503174.5870895.7784576 1.0978127 1.5985565 1.5662193 2.4329529.3040123.5418396.5933876 1.0908661.8307495 1.6566467.1976051.4721069.3560371.9551392.4785957 1.4451447.0502434.2016907.0964279.405365.1332588.6103973-.0945168-.5873718-.2074013-1.1731262-.3420906-1.7551117-.1592407-.6867981-.3365135-1.3730774-.5846443-2.0416565-.1473007-.3965759-.3209915-.7857208-.5224037-1.1654205-.6713715-1.267868-1.6202888-2.4466095-2.8185539-3.3930359-.72295-.5704346-1.5453758-1.0435333-2.4020004-1.4541168-.9313049-.4459992-1.9046859-.82193-2.9172706-1.1130067zm9.5869636 10.922348c.0369949.2044983.0638161.4107513.0692329.6173401.0001373.008255.0093422.0139008.0191727.0132294.009655-.0001221.0169029-.0078278.0161247-.0162201-.0152626-.1103058-.0389557-.217865-.0556755-.3279114-.0136527-.0958404-.0331153-.1906891-.0488548-.286438z"/><path d="m53.1077194 130.4536438c.9253502.2779999 1.8083801.6442261 2.6066551 1.1328735.8977966.5497437 1.6599464 1.2395172 2.3439941 1.9763947.6126976.6605682 1.1649513 1.3623505 1.6486092 2.0964203.5576172.8455811 1.0316925 1.7293854 1.4670715 2.6248016.2380753.4896698.4623756.9837799.6547737 1.4875641.2068214.5428772.3704033 1.0986786.4900856 1.6607666.0457535.2159119.089241.4324646.1223793.6513214-.0857201-.6868591-.1917343-1.3725281-.3229332-2.0546265-.1158447-.6046143-.2462311-1.2067261-.4268456-1.7998962-.1282349-.4220886-.2871704-.8383484-.4710922-1.2451172-.606205-1.3414154-1.4912376-2.6157227-2.6581268-3.6570129-.5673447-.5063629-1.203846-.9483185-1.8806305-1.3432159-1.1037482-.6436158-2.3097381-1.1594392-3.5739402-1.5302735zm9.3448525 11.7095947c.0305748.2182617.0505142.4376068.0498619.6568756.0007744.0083923.0086517.0160828.0184784.0154114.0102997.0000305.0188255-.0074005.0180511-.0157928-.0106125-.1098022-.0326805-.2181549-.0440979-.3275604-.0120659-.1095734-.0289573-.2190705-.0422935-.3289338z"/><path d="m58.6085205 129.0617065c.2393913.0728302.4729958.1595764.7063179.2450714-.2324562-.0882263-.4674454-.1706085-.7063179-.2450714zm.7063179.2450715c.6256828.2393799 1.2227211.5302429 1.7718391.8857269 1.0224266.6618195 1.82938 1.5009613 2.5294609 2.4152069.5784111.7559204 1.0802803 1.5540314 1.512722 2.3783722.4793472.9149475.8717651 1.8614655 1.2325058 2.8147736.2771454.7310028.5375824 1.4693146.7322464 2.2200165.1311646.5084229.2298889 1.0216827.3013382 1.53862.0671158.4871979.1249466.9798737.1013947 1.4713745-.000679.0086517.0088272.0155334.018486.0154114.0096512-.0001221.017662-.0059052.0175171-.0141449-.0055008-.1150818-.0192108-.2303162-.0261688-.3451538-.0164337-.2760162-.0275726-.5514069-.047554-.8270721-.0449982-.6223145-.1094666-1.2438354-.1812134-1.8641052-.0780716-.6762848-.1664429-1.3526001-.3116074-2.0209045-.1033173-.4726562-.2360001-.9415283-.3960495-1.4020538-.4919891-1.4136353-1.2271271-2.7882996-2.2672043-3.9698944-.5659409-.6433258-1.2277069-1.2160645-1.9555397-1.7254333-.9188918-.6437839-1.9420394-1.1708224-3.0321731-1.57074z"/><path d="m42.0241089 141.8765259c-.0042152.0078735-.0003395.0185394.0083961.0214691.0572319.0173035.1174545.0311432.1741905.0477905.1582489.0463257.3122063.1057587.4674873.1578979.354248.118866.7076569.2358246 1.059536.3582916.5503883.1908417 1.1001015.3792267 1.6827202.485199.4593468.0835419.9280014.125885 1.3971062.1369019.4541397.0109253.9093361-.0116882 1.3568993-.0783081.5804291-.0864868 1.1411819-.2548828 1.6833687-.4473877.5549736-.1969147 1.0984421-.4089355 1.6181679-.6658783-.5013542.2396851-1.0299759.4250183-1.5967712.5188904-.6412277.1068573-1.3007393.0994873-1.9510117.0957184-.4863434-.0028381-.9729958-.0144806-1.4582367-.0386353-.3973274-.0192871-.7924194-.0491943-1.1891861-.0730286-.4637451-.0279694-.9311409-.0427246-1.3928032-.0906525-.3635368-.0381165-.7228241-.1015625-1.0742912-.1884308-.2613449-.0653076-.5237236-.1342926-.7626762-.2462921-.0093766-.0030516-.0193254-.0015563-.0228959.0064546z"/><path d="m46.8046112 145.8565369c-.0013084.0084839.0067368.015625.0160484.0166016.0709038.0016937.1415749-.0001984.2124863.0014954.1944046.004364.3904686.0208435.5846062.030426.4027367.0189819.8051796.0367279 1.2082214.0569458.5994301.0291595 1.2010803.0599976 1.8012352.0195007.5959778-.0402832 1.1861458-.1382294 1.7591476-.2817993.5886917-.147583 1.1625214-.34375 1.6948738-.6064148.5235672-.2588196 1.0011292-.5828094 1.4519272-.9264679.499897-.3816223.9707069-.786377 1.3885765-1.234436-.3733063.3897095-.7943115.7390594-1.2863541 1.0198212-.6520348.3717499-1.3985176.6055298-2.1359215.8214874-.521553.1524963-1.0455246.2909393-1.5775146.4134674-.6054077.1396027-1.2179832.2540894-1.8272629.3798981-.4226189.087326-.8475113.175293-1.2780113.2332153-.3716049.0498047-.7447777.0763702-1.121048.0822601-.2906418.0045319-.5826378.0046539-.8696404-.0392609-.0099524-.0011292-.0202292.00531-.0213698.0132599z"/><path d="m53.5248146 148.8682709c.0015984.0079956.0103378.0129395.0196991.0115814.0715637-.0134125.143055-.0309448.214325-.0456085.1955605-.0405426.396328-.0693207.5932312-.1054535.408989-.0746155.8168068-.1542053 1.2242661-.2326965.6326828-.1215973 1.2657089-.2442627 1.872406-.4422455.5875702-.1918488 1.1486244-.4431915 1.6753654-.7358856.5224876-.2901611 1.0116577-.6226196 1.4437218-1.0069885.4696655-.4185028.8597565-.8982086 1.2112465-1.3926849.3656158-.5152588.6899452-1.0476685.9564362-1.6057587-.250927.5088654-.5621986.989151-.9741364 1.4162903-.4692459.4866638-1.0463943.884491-1.633728 1.2623596-.4683723.3014679-.94981.5899658-1.4468422.8560638-.620903.3320007-1.259697.6358185-1.8974304.9428101-.3801804.1833496-.764492.3645782-1.1607971.5207367-.3638306.1425323-.7397156.2623444-1.1231613.3604736-.3138657.0801239-.6327591.1544189-.9603386.1779938-.0093614.0013732-.0156785.0104675-.0142633.0190124z"/><path d="m60.4619102 150.6903381c.003685.0078888.0159683.0124817.0252037.0093384.0691948-.0298004.1351166-.0644684.2040138-.0955048.190773-.0862427.3868561-.16539.5778046-.2521667.3883934-.1767731.7727585-.3603363 1.1541519-.5475159.5554047-.2725983 1.1040344-.5584869 1.596981-.9094391.4901657-.3486633.9288254-.7473297 1.3189392-1.1771545.4022903-.442276.7527771-.9205475 1.0259323-1.4301605.2716446-.507019.4615402-1.0422821.6366653-1.5786285.1889572-.5800629.3580627-1.1647186.4909744-1.756546-.1281281.5354309-.299614 1.0602722-.5565033 1.5619049-.3131027.614212-.7495499 1.1753387-1.1933136 1.7247925-.3197098.3961945-.652298.7853088-1.0043564 1.1599579-.4612656.4896851-.9509773.9563751-1.4495964 1.4186707-.3150101.2922516-.6344986.5834808-.9825172.8475952-.308075.233429-.6373978.4449463-.9859734.6326599-.2683182.1446228-.5461884.2846832-.8475304.3730011-.0092389.0031432-.0145681.0113066-.0108755.0191954z"/></g><g><path d="m139.1056061 128.1209717s-12.3167191-56.0348587 22.0626984-59.8246689c0 0 10.5569458-2.7070618 17.5951843 9.0684509 7.0382538 11.7756805-.2705994 30.0473862-7.3088379 35.0560989-7.0382538 5.007866-24.7687531 13.8050461-32.3490448 15.7001191z" fill="#969105"/></g><g fill="#d4be54"><path d="m168.8306122 77.3718109c-.010025-.0098572-.0258179-.0092163-.0356598.0008163-.2275543.2387161-.445343.4860153-.6687622.7285156-.5475769.5969925-1.1023407 1.1881714-1.6419525 1.7914581-1.0373535 1.1593323-2.0480042 2.3416138-3.0488892 3.532486-1.500061 1.7843628-2.9731445 3.596283-4.3439026 5.4817276-1.210083 1.6633606-2.3458252 3.380867-3.3959808 5.1488647-1.8506927 3.1140976-3.4825134 6.3702927-4.7745209 9.7565689-1.0844421 2.8424225-1.9078674 5.7809677-2.5314178 8.7580338-.6105957 2.9119797-1.0213318 5.8624878-1.1563721 8.8363571.1485748-3.0297928.6118622-6.0337601 1.4124451-8.9608917.7657471-2.7983856 1.8072815-5.5064011 2.9554749-8.1676941 1.1854095-2.7467194 2.5176392-5.4325333 3.9636078-8.0505219.987793-1.7901382 2.032959-3.5471268 3.103241-5.2887878 2.0528412-3.3408813 4.2216949-6.6157379 6.6973267-9.6613388.5950775-.7316971 1.2073669-1.4477463 1.8340302-2.1521988.5249481-.5909195 1.0589142-1.1704636 1.6303711-1.7166977.0093534-.0092544.0102232-.0273436.0009611-.0366973z"/><path d="m172.9503479 84.75383c-.5097504.796051-1.0865784 1.5422592-1.7869873 2.1809082-.7817383.7137604-1.6908875 1.259407-2.6237946 1.7504425-.8438263.4441299-1.7153931.8429718-2.6109924 1.1703415-1.010849.3705521-2.0468445.6658783-3.0882568.9384308-.6774139.1768875-1.3589783.3421478-2.052063.4437103-.5778961.0855255-1.1617126.1260452-1.7446289.1242523-.2162323.0000687-.432724-.0052032-.6493835-.0178909.8015137.0688019 1.6029968.1260986 2.4073181.1588211.9595032.0393295 1.9201508.0552673 2.8739777-.0745544.9232483-.1254501 1.8313446-.3677292 2.7013092-.7037277.9494781-.3671722 1.8610077-.845726 2.6737823-1.4622879.7289429-.5542831 1.3753052-1.2127609 1.9725647-1.9040527.7074279-.8197328 1.3530273-1.6854249 1.9271545-2.6043931z"/><path d="m175.810318 90.7807846c-.8538666 1.1289368-1.8286896 2.1524048-2.964798 3.0011749-1.0680084.7966995-2.2545166 1.4170609-3.4744263 1.9474945-1.216095.5296326-2.472168.9727249-3.7556763 1.3100281-1.4528503.3813324-2.9370728.6411362-4.4251404.8380051-.9662781.1276398-1.9373169.2323761-2.9118347.2601776-.8129883.0225906-1.6259766-.0119019-2.4343109-.0971603-.3326111-.035347-.6665497-.0770493-.9985657-.1317596.9464264.171196 1.8982391.3173904 2.8536072.4329681 1.1275635.1360016 2.2620544.2479935 3.3997498.2577591.6748657.0056305 1.3496399-.0272293 2.021759-.1013489 2.2437744-.2459793 4.4694519-.9023514 6.4440918-2.0040512 1.1904449-.6649933 2.2735901-1.5099792 3.2750244-2.4314804 1.0881501-1.0020295 2.086319-2.0947495 2.9705201-3.281807zm-20.9647522 7.1279602c-.3312531-.0542221-.6608429-.1227188-.9817505-.2195816-.0127716-.0039749-.0254364.0053101-.0286407.0185928-.0039673.0127716.0048065.0261993.0180969.0294037.176651.0354233.3526917.0583649.5295868.0917358.1536712.0302659.3082886.0523835.4627075.0798493z"/><path d="m174.0830688 98.4402847c-.8265228 1.0787582-1.7708893 2.0573654-2.86763 2.8627167-1.2337189.9056778-2.625061 1.5622177-4.0554657 2.0921783-1.282074.474411-2.6016998.848465-3.9416199 1.1159286-1.5436859.3087311-3.1103973.4881973-4.6783905.6108475-.8574524.0670547-1.7158508.1137314-2.5754242.1135254-.9260864-.0008926-1.8535004-.0652313-2.7717438-.190567-.3526154-.0484161-.705246-.1001587-1.0569916-.1666794 1.0960388.2328568 2.1989746.4383926 3.3072205.608963.9821777.1517868 1.9667511.283165 2.9591064.3438873.7060242.0435867 1.4162598.043808 2.1226044.00634 2.3291779-.1231308 4.6747589-.6472473 6.7821655-1.6598892 1.0247803-.4923019 1.9799347-1.1081085 2.8798828-1.8006516 1.4670106-1.1296614 2.7809297-2.4583052 3.8962861-3.9365996zm-22.0746459 6.4128113c-.3497314-.069603-.6965332-.1537552-1.0343933-.2649994-.0132751-.0031967-.0285034.0033035-.0317078.0165787-.0044708.0135498.0033112.0285187.0165863.031723.1739044.0413055.3504791.0667801.5241089.1068192.1741333.0392685.3502655.0721435.5254059.1098785z"/><path d="m173.8646698 106.3855896c-.2152252.2786179-.4494324.5426102-.6815948.8068619.2360076-.261734.4640655-.5297547.6815948-.8068619zm-.6815948.8068619c-.6381378.7035217-1.343338 1.3434143-2.1276093 1.8876648-1.4601135 1.0133972-3.1010742 1.6537476-4.8118744 2.1155472-1.4143829.3812485-2.8609009.6404572-4.3179932.7950287-1.6170044.1707306-3.2453308.2110825-4.8704834.2062988-1.2464294-.0029755-2.4969177-.0316391-3.738266-.1531601-.8404236-.0831909-1.6743469-.2115326-2.5022278-.377655-.7801361-.1568451-1.564743-.3286972-2.312561-.6071243-.0130463-.005249-.0277405.0038071-.0317078.0165787-.0039673.0127792.0014954.0262375.0142822.0301971.1798401.0506821.3634186.0906372.5435028.1392822.4327087.1172943.8621521.2412567 1.2958527.3536987.9790039.2540131 1.9651489.4819641 2.9524994.699707 1.0764618.2376175 2.1573944.4616928 3.2503662.6069107.7733002.1018677 1.5533905.1631546 2.3323517.1841736 2.391449.063652 4.8273621-.2125397 7.0966034-.9875336 1.2353821-.4215012 2.4030914-1.0047455 3.5014954-1.7069016 1.3878174-.8861159 2.6403961-1.968315 3.7257691-3.2027129z"/><path d="m161.2331085 78.0929108c-.0103302-.0095139-.0284424-.0097809-.0367126.0002518-.0513.066658-.0985413.1390076-.1485901.2053528-.1394806.1850891-.2973175.357933-.4444733.5362015-.3356018.4067078-.6678925.8132782-1.0080261 1.215065-.5309143.6287918-1.0577545 1.2579422-1.4716339 1.9719162-.3263092.562912-.5931091 1.1588135-.8117676 1.7710876-.2120819.5926056-.3729095 1.2034836-.4625854 1.8264771-.1161804.8079605-.0975647 1.6312485-.0338135 2.442215.0650635.8300247.158371 1.6525116.3311462 2.4663391-.154068-.7809372-.2126007-1.5704346-.113678-2.3641663.1108856-.8982925.4057922-1.7631683.6911774-2.617691.2134705-.6390839.4406281-1.2741547.6864929-1.901062.2005615-.5135727.4165344-1.0188599.6238708-1.5294037.2425079-.5966797.4662018-1.2048187.7385864-1.7887039.2150574-.4596024.4673615-.9008484.7524414-1.3199997.2130585-.3113251.4322357-.6221466.7076874-.8804779.0087281-.010811.0107118-.024666-.000122-.0334016z"/><path d="m153.04039 82.3853989c-.0125275-.0059967-.0270081.0009995-.0325012.0127716-.0330963.0925369-.0605621.1865616-.0936584.2790985-.0903015.25383-.2000122.5037537-.2982483.7546158-.2024231.5208511-.4028015 1.0419464-.607254 1.5625687-.3026733.7747803-.6088867 1.5516434-.8044586 2.362442-.1940918.8051834-.2967682 1.631752-.3217163 2.4586716-.0255127.8495941.030304 1.7040939.2064819 2.5374222.1740112.8198318.468338 1.6118774.8044739 2.3785782.3735657.8504715.7953339 1.6742859 1.3066254 2.4501724-.4404602-.6878204-.7982025-1.4181519-1.0196075-2.2075043-.2929535-1.0458755-.33255-2.1466904-.3485413-3.2265625-.0109406-.7636566.0008392-1.5234299.0406036-2.2857361.0449829-.8676071.1317902-1.7320099.1997375-2.5977631.0470276-.6005554.0940399-1.204422.1898041-1.8005524.0829468-.5144806.2024231-1.0193253.3550873-1.5178452.117981-.3850555.2433319-.7696762.434433-1.1255569.0060119-.0125427.0005187-.0293197-.0112611-.0348205z"/><path d="m145.5069275 89.7199097c-.0130157-.001915-.0244141.0070953-.0263367.0201187-.0100708.1009979-.0137787.2039795-.0218201.3052216-.0215454.2779617-.0634766.5568695-.0924072.8343811-.0607605.5762024-.1133575 1.1533585-.1674957 1.7295074-.0845032.894455-.1674805 1.7899094-.1230011 2.6885986.0432281.8704071.1896057 1.7358475.4145203 2.5769043.2228241.8341904.5252075 1.6457901.9321747 2.4083023.4434509.8292313 1.0154877 1.5844574 1.6268921 2.2962875.6373901.7408981 1.318985 1.436058 2.0650177 2.067955-.6768341-.5866241-1.2836456-1.2383423-1.7652283-1.9958878-.5487366-.8629837-.914093-1.8233566-1.2442932-2.7870941-.2635345-.7686081-.5014191-1.5478897-.6981049-2.336441-.2450256-.9848557-.4389038-1.9790955-.6381378-2.9735336-.1192932-.5929947-.2335358-1.1903687-.3039856-1.7909164-.0633698-.5509186-.0865326-1.1062775-.0729828-1.6606674.0113525-.4537048.0338898-.911087.1383667-1.3543854.0019226-.0130157-.0093994-.0259094-.0231781-.0283508z"/><path d="m139.7147675 97.9389343c-.0137482.0008774-.0261078.01474-.025238.0284958.0162201.1061249.0413208.2103958.0595856.3167648.0509644.2946548.0887146.5927429.1404572.8879089.1056061.600502.2234344 1.1991196.348114 1.7956467.1815796.8686981.3865814 1.7351608.7158508 2.5610352.3269348.8210602.7531281 1.5994797 1.24823 2.329628.5090637.7524567 1.095932 1.4548111 1.7643585 2.0710831.6650848.6129913 1.4088593 1.1325378 2.1606445 1.6331558.8132935.540863 1.6421814 1.0578842 2.4976807 1.5308533-.7705994-.4382782-1.5062408-.9283295-2.169342-1.5191727-.812561-.7215424-1.4902191-1.5788116-2.1467438-2.4398346-.4735107-.6205063-.9305725-1.2544022-1.3569641-1.9066696-.5568237-.8539886-1.0659637-1.7338715-1.5644836-2.6232681-.3152618-.5619965-.6270142-1.129364-.8846741-1.720665-.2275085-.5232391-.4121094-1.0634308-.551712-1.6170044-.107666-.426178-.2041931-.8626404-.2108307-1.3039703-.0008852-.0137482-.0111696-.0248795-.024933-.0239869z"/></g><g><path d="m101.7101059 136.6939545s-50.0461693 5.9675903-51.8066101-11.6116333c-1.7604446-17.5792313 20.8946381-11.2855682 31.4574661-6.0768509 10.5628357 5.208725 17.7086563 12.9133987 20.349144 17.6884842z" fill="#d4be54"/></g><g><path d="m102.5126801 114.3816605s-43.7183075-19.4902649-23.8216248-41.4168167c13.4268646-14.7977143 27.2050247 11.2334594 25.9873047 23.8216247-1.2185593 12.5873261-2.1656799 17.595192-2.1656799 17.595192z" fill="#969105"/></g><g><path d="m85.9351959 125.22435s-38.6053848.9538345-33.6804619-28.2782059 30.1852989-14.2983551 33.9981346 3.1775131c3.8128357 17.4750137 8.1021652 25.2595215 8.1021652 25.2595215z" fill="#5a6b10"/></g><g><path d="m77.3346634 127.3848495c.2259674 2.420372-22.5676575 1.4037247-24.327301.9702682-24.2153873-5.9649963-16.968132-44.0483551 9.3231506-35.3780823 19.61689 6.4692079 15.0041428 30.4950792 15.0041504 34.4078141z" fill="#d4be54"/></g><g><path d="m148.0414734 166.0337677c-.5883636 2.3527222-5.2946014 2.5882416-5.2946014 2.5882416l-1.357132 7.1928406-.1031799.5482025-.6419525 3.4050293-1.2405548 6.5753479-.5300903 2.8119202v.0007935l-.6505737 3.4451904-1.71315 9.0840149s-.3528748 8.5893402-13.0600891 10.118988c-12.707222 1.5296173-30.356163-.8231049-30.356163-.8231049s-8.5901489-1.2949066-10.2371445-11.7667694c-.3906784-2.4850464-.8286133-5.5072632-1.2689056-8.6712646-.1756439-1.2681274-.3520966-2.5583038-.5261612-3.8469086v-.0007782c-.1197281-.8821869-.2370682-1.7619934-.3536377-2.6331482-.3032532-2.2770996-.5923157-4.490387-.8506927-6.4941864-.1551437-1.203537-.3000793-2.3314514-.429245-3.3522491-.0228424-.1740723-.0441132-.3442078-.0653839-.5112-.3828049-3.0088348-.6246185-4.9653473-.6246185-4.9653473s-5.5301132-.2347412-5.6474762-3.0584717c-.0582809-1.3925629.7711182-2.8709869 1.6265182-4.0122986.9309921-1.2429199 2.4653397-1.8793488 4.0004959-1.6469879 5.8065567.8766632 14.2612381 3.3561859 32.9664383 3.5412903 16.9849701-.0669556 21.9739685-1.8935242 29.0919952-3.5286865 2.3243561-.5340271 4.7440338.4197998 6.0578308 2.410202.8191679 1.2405548 1.4548186 2.5984955 1.2074736 3.5893402z" fill="#6767a8"/></g><path d="m111.5745773 48.6176376c-.079834.0139503-.1529465.0533638-.2227097.0945435-.0462112.0273972-.0840378.0687447-.1210098.1076546-.127739.1345482-.1680756.3693466-.2151413.5436478-.0201721.0730286-.0378113.1475677-.0579834.2206001-.0201645.0730324-.0403366.1449661-.0605011.2179947-.0394974.1460571-.0781631.2925415-.1176605.4385986-.4353256 1.6064873-.870636 3.2125473-1.3059616 4.8190346-1.838768 6.791172-3.6783829 13.5830116-5.5171509 20.3741875-7.7433243 28.5883102-15.4900208 57.1749268-23.2392273 85.7615509-.0874023.3218842.0999985.6529846.4227066.740387.3218765.0874023.6555023-.103363.7429123-.4252319 6.7415848-24.86203 13.4806442-49.7232208 20.2272797-74.584404 2.2690506-8.3601761 4.5380936-16.7203445 6.8071365-25.0803566.7529984-2.7744598 1.5051422-5.547905 2.2581253-8.3224449.1714401-.6299553.3412018-1.2609177.5126343-1.890873.0756378.2943077.1529541.588192.2285919.8824081.7370224 2.871521 1.4740372 5.7451401 2.2110519 8.6165771 2.1841736 8.5112724 4.3674927 17.0210381 6.5525055 25.5316505 6.5474625 25.504921 13.1007996 51.006485 19.6516266 76.5097198.0882416.3412018.4361572.5471039.777359.4597015.3411865-.0874023.5445709-.4361572.4571686-.777359-7.4979401-29.174057-14.9933472-58.3481216-22.4963303-87.5213242-1.7572556-6.8323593-3.5136642-13.6626091-5.2709122-20.4947052-.4117889-1.6004372-.825264-3.2003632-1.2370529-4.8007965-.0378189-.1468163-.0747986-.2943077-.1126099-.4412041-.0193329-.0737038-.0361404-.1468163-.0554733-.22052-.0437012-.172699-.0823517-.4077568-.2042084-.5436478-.0353012-.0386581-.0697556-.0796661-.1134491-.1076546-.066391-.0426025-.1353073-.0858002-.212616-.1024399-.0941237-.020252-.1941374-.0218504-.2891005-.0052946z" fill="#427022"/><path d="m124.137825 28.8752613c-.1163864 4.2220058-4.1029663 7.4170475-6.5975113 10.489687-4.5372925 5.5887909-4.3865128 9.8732986-4.5372925 9.9957199-.1166992.0947456-1.2733536-.4092522-1.4219666-.3866959-.8068619.122467-1.611908.2541389-2.4171829.3866959.9263687-1.3494873 1.2124176-3.0271492 1.876976-4.5230408 1.7899704-4.0291061 4.8587112-6.530941 7.2507172-10.1346169 1.4920349-2.2478333 3.0850906-4.4903717 2.5041809-7.1149864-.6673431-3.0209446-2.3936234-5.6015167-5.5452576-6.4424915-2.43116-.6487274-5.1385651.0591545-7.0412598 1.6774826-.8925705.7591743-1.6600723 1.7749977-2.0680008 2.8783283-.530777 1.4357433-.3716965 3.2685604-1.8779297 4.1344795-.4431229.2547474-1.2061539.5027084-1.7200775.3299541-1.6396942-.55196.1584396-4.10396.5602341-4.9701958 1.0393143-2.2407074 2.2819901-4.2955418 4.4621353-5.6072369 5.1158829-3.0779533 11.9866486-1.2732849 14.992981 3.8179245 1.0787202 1.8268472 1.6288224 3.6703779 1.5792542 5.4689924z" fill="#6767a8"/><path d="m83.1484222 194.8395081c-.2256088.0214386-.4268799.1578979-.4966812.3622284-.0933151.2714996.0819702.5579987.3903656.6401672.7742233.2064667 1.5622406.3765259 2.3486252.5429688 1.1775665.248642 2.3616333.4715576 3.5505447.67659 3.3768845.5815887 6.7862167 1.0138397 10.2101593 1.3167572 9.1145554.8080444 18.3483963.700882 27.4256134-.4036713 3.4531631-.4200897 6.8795395-.9930878 10.271019-1.7011261.3311157-.0693054.5348206-.3607941.4561005-.652298-.0779114-.2915039-.4090271-.4736786-.7401428-.4043732-2.3567505.4936829-4.7297363.9237823-7.1189423 1.2774353-9.9504471 1.4718018-20.1394958 1.7232819-30.1767883.8509216-3.3874283-.2950592-6.7634811-.7180176-10.1038361-1.2931671-1.2148972-.2086029-2.4241104-.4379578-3.6268311-.6944427-.7214661-.1536255-1.446991-.310791-2.1579132-.5001221-.0771026-.0207214-.1558227-.0250092-.2312927-.017868z" fill="#fff"/><path d="m91.4013062 193.5914001-10.6931686-9.5290375c-.3032532-2.2770996-.5923157-4.490387-.8506927-6.4941864l11.3879013 10.204834z" fill="#fff"/><path d="m91.3359375 184.8248291-11.9077377-10.608902c-.0228424-.1740723-.0441132-.3442078-.0653839-.5112l6.3870697 2.1975555 5.5088501 4.5778351z" fill="#fff"/><path d="m86.577713 192.9715271-4.9897766-2.4283295c-.1756439-1.2681274-.3520966-2.5583038-.5261612-3.8469086z" fill="#fff"/><g><g><path d="m94.7531586 177.7998657-.0681992 2.6981354 5.0542145-2.3917084z" fill="#fff"/></g><g><path d="m94.8163376 183.0552826.0419159 3.8450928 14.8657837-8.1525879-6.187973-.4178314z" fill="#fff"/></g><g><path d="m94.6450348 189.9321136.0355377 4.2904816 14.3286285-7.7793121.1500397-4.7288971z" fill="#fff"/></g><g><path d="m99.3566437 194.8002777 9.4484177-4.6730499-.2149658 5.3335876z" fill="#fff"/></g></g><path d="m105.2825928 120.4786758c-.036972.0142899-.0731125.0302505-.1100845.0445404.036972-.015129.0731124-.0294113.1100845-.0445404z" fill="#427022"/><g><path d="m107.78022 47.8629723h8.193779c.283226 0 .5126495.2293396.5126495.5123863v1.6344681c0 .282959-.2294235.5123825-.5126495.5123825h-8.193779c-.2832031 0-.5126343-.2294235-.5126343-.5123825v-1.6344681c.0000001-.2830467.2294312-.5123863.5126343-.5123863z" fill="#6767a8"/></g><g><path d="m114.1823044 47.8629723h.1773148v.1773186h-.1773148z" fill="#7db951"/></g><path d="m140.6446075 179.7680817-1.2405548 6.5753479-10.4615936 8.3270721.2914276-5.7664032z" fill="#fff"/><path d="m141.38974 175.8148499-.1031799.5482025-12.0739441 9.6070251.1788025-4.3084717 5.6112365-4.1430511z" fill="#fff"/><path d="m138.8739624 189.1561432-.6505737 3.4451904-4.4470978 1.8052979z" fill="#fff"/><g><g><path d="m127.2670746 178.5057983-.1383286 2.6727753-4.6577911-2.5294952z" fill="#fff"/></g><g><path d="m126.8100128 183.7055359-.3302841 3.8045044-13.6154556-8.5464478 5.9551315-.2149811z" fill="#fff"/></g><g><path d="m126.4550552 190.5176697-.3577881 4.2455444-13.1294174-8.1597443.2132263-4.6854248z" fill="#fff"/></g><g><path d="m121.5773773 195.1849365-8.6921082-4.9285736-.196701 5.2860413z" fill="#fff"/></g></g><g fill="#5a6b10"><path d="m110.2333221 136.7216949c-.0790024.0050354-.1596756.0251923-.2344742.0630188-.297493.1504211-.4176712.5134735-.2672348.8118134.1546249.3075867.2949753.6218872.4328003.937027.2218552.5075989.4327927 1.0227661.6328049 1.5395966.5815506 1.4984131 1.079895 3.0270844 1.5051346 4.5767517 1.3336945 4.8582916 1.9446564 9.9770966 1.4421082 15.0042725-.1395035 1.3874817-.3722916 2.7606812-.6832352 4.1204224-.0781631.3437195.1369858.6857758.4806976.763916.3437195.0781555.6857605-.1369934.7639084-.4806976.3529739-1.5496674.6067734-3.1170044.7437439-4.7011261.4361649-5.0507355-.2218552-10.1577759-1.5706787-15.0294952-.4210358-1.5211029-.9143448-3.0237122-1.478241-4.4985962-.2294235-.5983582-.4706116-1.1908264-.7277756-1.7782593-.1470718-.3353119-.2975006-.6706238-.4622116-.9975433-.1126098-.2235414-.3428802-.3462374-.5773468-.3311007z"/><path d="m102.3958664 147.1929169c-.1546326-.0025177-.3084259.0537872-.4277573.1705933-.238678.2328033-.2462387.6143188-.0126038.8529968.137825.1403503.2638779.2949677.3882523.4470825.2008591.2454071.3916245.4975128.5748291.7563477.564743.7916565 1.0605621 1.6337128 1.4975739 2.5026855 1.4463043 2.8808441 2.202652 6.0869293 2.3371124 9.3014069.0437012 1.0395508.0142899 2.0799713-.0605087 3.1178284-.0252151.3513031.2420349.6546631.5933228.6798859.3521194.0252075.6554947-.2395172.6807098-.5908051.1050491-1.4908447.1100845-2.9858856-.0269012-4.4750519-.2731247-2.980011-1.0849304-5.9104614-2.4371185-8.5828857-.4664078-.9219055-.9983826-1.8127136-1.5992508-2.6547852-.3319626-.4655762-.6815643-.9328156-1.0815887-1.3446198-.1168062-.119339-.2705995-.1790009-.4260713-.1806793z"/><path d="m118.1380005 130.838974c-.0781479-.0058899-.159668.002533-.2395096.0285797-.3168259.1050415-.4874191.4454041-.3832092.7622223.1386642.4201965.2571487.8488007.3731232 1.2765503.172287.6353302.3302765 1.2748718.4781876 1.9169159.4227066 1.8421326.7521439 3.706955 1.0025787 5.5801849.3706131 2.7707672.5563354 5.5675659.541214 8.3618469-.018486 3.3355103-.3285904 6.6735229-.9950256 9.9434662-.2647171 1.2975769-.5941467 2.5791626-.968956 3.849823-.1000137.3378296.0949631.6933136.4328003.7933197.3386688.0991821.6907959-.0957947.7907944-.4336395.5252457-1.7849731.9530106-3.5934906 1.2656326-5.4280701.9697952-5.6936188.9185333-11.5368347.1420212-17.2489471-.2537994-1.8698578-.5882721-3.727951-1.0059433-5.5675659-.164711-.7235718-.3428726-1.4463043-.5386963-2.1614838-.1151276-.422699-.2327881-.844574-.3697662-1.2605743-.0789949-.2378235-.2907716-.3932953-.5252458-.4126282z"/><path d="m143.0630646 124.1318359c-.1546326.0092468-.3042145.0773239-.4151611.2025375-.329422.3714523-.6370087.7639084-.9395447 1.1580582-.4924622.6403732-.9664459 1.2967148-1.4210968 1.9639816-1.2051086 1.7673416-2.295105 3.6119919-3.2749939 5.5121078-3.0884247 5.9894409-5.0700531 12.5654755-5.5751343 19.2952881-.2680817 3.5691223-.103363 7.1559143.4437256 10.6914062.0537872.3479309.3790131.5865936.726944.5328217.3487549-.0538025.5874329-.381546.5336456-.7303009-.1916199-1.2294922-.3445587-2.4640198-.4361572-3.7052765-.1571503-2.1261749-.1672363-4.2599182-.026062-6.3869324.4420471-6.6667938 2.3648529-13.2050171 5.4154663-19.1398315.9975433-1.9404602 2.1110535-3.8212433 3.3506165-5.6171494.4269257-.6176834.8681183-1.2278061 1.3286591-1.820282.2512665-.3235474.5059052-.6470947.777359-.9529953.2218628-.2504349.2000122-.6328201-.0495911-.8538437-.1252137-.1109236-.2840425-.1588286-.438675-.1495894z"/><path d="m79.595314 137.6620789c-.1546402-.0084076-.3117905.0411835-.4361649.1521149-.2479095.222702-.2697601.605072-.0470581.8538208.263031.2933044.5092697.6025696.7538223.9109955.3512802.4420471.6916428.8916473 1.0244293 1.3471375.958046 1.3126831 1.8505402 2.6757965 2.6783142 4.0733643 2.3984756 4.0456238 4.2960663 8.4063873 5.5390015 12.9444885.2966614 1.0824127.549614 2.1749115.7723083 3.2749939.0697632.3453827.4050751.5689392.750473.499176.3462372-.0706024.5697861-.4084167.4991913-.75383-.3949814-1.9429779-.8941727-3.860733-1.5152206-5.7432098-1.279068-3.8825836-3.0337982-7.6029816-5.1473694-11.098999-.8429108-1.3941956-1.745491-2.7556152-2.7127762-4.0674744-.5529709-.7504578-1.1185608-1.4984131-1.7412796-2.1934052-.1109389-.1243745-.2630385-.1907654-.4176711-.199173z"/><path d="m94.8122101 148.4896393c-.1537857-.0184937-.3126221.0235291-.4445724.1260529-.2621994.2059021-.3084106.5857544-.1016846.8488007.3983459.5075836.7555084 1.0513153 1.1051178 1.5942078.5613708.8697968 1.0857697 1.764801 1.5731964 2.6783142 1.5849762 2.9724579 2.8153 6.1331482 3.6506424 9.3963776.0874023.3420258.4353256.5470886.777359.4596863.3412018-.0874023.5445786-.4361572.4571762-.777359-.8983765-3.48172-2.2413177-6.8348694-3.9842834-9.979599-.4983444-.8983765-1.0252686-1.7807922-1.5891647-2.6396637-.3302765-.5033875-.6672745-1.0042572-1.039566-1.478241-.1033708-.1311037-.2512742-.2100984-.4042207-.2285768z"/></g><g><path d="m111.4527206 138.9327393s.1420212-2.0572662 7.8030014-7.660965c7.6601334-5.6037064 7.872757-14.8244324 8.7240677-20.7819443.8513107-5.9583511-2.6245422-23.6913681-21.6332626-21.776123-19.0095596 1.9152451-20.4987335 20.4281387-20.1440887 26.0318451.3546447 5.6028595-1.2059632 19.5759811 25.2502822 24.1871872z" fill="#d4be54"/></g><g fill="#fff"><path d="m105.0992279 91.5709763c-.0130463-.0026093-.0252304.0060883-.027832.0191345-.0565414.3070831-.1009064.6159058-.1522293.923851-.1244049.7568283-.2575073 1.5127792-.3723297 2.2704697-.2209625 1.4562454-.4088669 2.9168243-.5845795 4.3791504-.2635803 2.1913071-.4915009 4.3904495-.6002426 6.5948105-.0965576 1.9451218-.1061325 3.8945999-.0217438 5.8397293.1478806 3.42659.5428238 6.8523026 1.2744217 10.2049561.6141586 2.8141632 1.4849396 5.5691833 2.53405 8.2511215 1.0256271 2.6236572 2.2295837 5.1742401 3.6640854 7.6004333-1.4527664-2.4775085-2.6427994-5.0976868-3.5257645-7.8318329-.8438187-2.6140823-1.4223022-5.2994995-1.8920593-8.0031967-.4845505-2.7906799-.8212051-5.6091995-1.0325851-8.4329376-.1452789-1.9303436-.2279205-3.8641586-.2827225-5.7988434-.1052704-3.7110519-.0843887-7.4299316.2983704-11.1261902.0922165-.8881836.2061691-1.7728882.337532-2.6558533.1096039-.7402802.2322693-1.4762344.4018936-2.2052231.0026169-.0121841-.0060807-.0269623-.0182648-.0295791z"/><path d="m112.1897278 95.2843018c.0087433.8949356-.0614777 1.7851486-.2853699 2.6542053-.2493896.9707184-.686882 1.8742905-1.1714935 2.7468948-.4383469.7892838-.9221573 1.5570602-1.4620438 2.2806625-.6088257.8175583-1.2765503 1.5885391-1.9603958 2.3442993-.445015.4912796-.8993683.975502-1.3958511 1.4152298-.4135284.3673019-.8550873.702034-1.3178558 1.0027542-.1712875.1121445-.3455429.2201767-.5237808.3224335.6707001-.3609467 1.3354111-.7309952 1.9896317-1.1219864.7806015-.4661865 1.5499878-.9515152 2.2384109-1.5487823.6664658-.5779572 1.2603531-1.2406158 1.7754669-1.9577637.5619507-.7830734 1.0360947-1.6347122 1.3604584-2.5445175.2902374-.8170013.4610367-1.6737518.5759048-2.531044.1355972-1.0161667.1983795-2.0366974.176918-3.0623855z"/><path d="m117.5797119 98.5769958c-.0913391 1.3370514-.3331833 2.6532364-.7933578 3.9146118-.4332123 1.1848145-1.0517349 2.2913589-1.743309 3.3439484-.6889725 1.0499802-1.4544907 2.052124-2.2965698 2.9846649-.9534225 1.0552063-1.9947052 2.0303879-3.0716629 2.9577103-.6994095.6019821-1.4144745 1.1883011-2.1721802 1.7154617-.6324158.4393158-1.2944183.8333817-1.9790497 1.1848373-.2818527.1443939-.5680466.2844467-.8594666.413208.8385849-.3549347 1.6684875-.7324753 2.4853363-1.136116.9638596-.4767075 1.9207687-.9760361 2.8272171-1.5580139.5376129-.3453522 1.0552063-.7211533 1.5493088-1.1282806 1.650238-1.357933 3.07341-3.0316391 4.0668488-4.9280548.5985031-1.1439438 1.0186768-2.3748627 1.3344574-3.624054.3427352-1.3579406.5671844-2.7410965.6524276-4.1399231zm-12.915596 16.5144425c-.2905579.128746-.5871887.2453079-.8916626.3349152-.0121765.0034714-.0174026.0173874-.0130463.0295715.0034714.0121765.0173874.0182648.0295715.0139236.1583176-.0635071.3096924-.1365891.4671402-.201828.1374436-.0556793.2714158-.118309.4079972-.1765823z"/><path d="m120.1814804 105.5409164c-.0956879 1.2831192-.3366547 2.5479736-.7881393 3.7545471-.5080261 1.3570633-1.2700729 2.5984268-2.1286774 3.759758-.7698746 1.0404282-1.621521 2.020813-2.5444946 2.9272614-1.0630341 1.0447693-2.211319 1.9990616-3.3900528 2.9089966-.6446075.4975891-1.3005142.9795151-1.9816666 1.4249115-.7341995.4793167-1.5023422.9090652-2.2948303 1.2857285-.3044662.1444092-.6106796.2862091-.9238434.4158249.98909-.3836365 1.9694824-.7924881 2.9359512-1.2318039.8568649-.3888474 1.7050323-.7950974 2.5227509-1.2613754.5819778-.3314285 1.1448059-.6994019 1.6850204-1.0952148 1.7815857-1.3048706 3.3683167-2.9359589 4.5131149-4.8306274.5567398-.9212341.9943161-1.9042435 1.3483658-2.919426.5767518-1.655449.9290696-3.3891908 1.0465012-5.1385805zm-14.165657 16.5231324c-.3131714.1261368-.6315613.2392273-.9569092.3262177-.0121765.0043488-.020874.017395-.0165329.0295792.0034866.0130463.0174026.020874.0295868.0165329.1591873-.0574188.312294-.1287613.4706116-.1870346.1583328-.0591585.3149108-.124405.4732437-.1852952z"/><path d="m124.1268463 111.949173c-.0261002.3323135-.0748215.6628723-.121788.992569.0513229-.3296967.0930786-.6602555.121788-.992569zm-.121788.9925689c-.1409225.8881836-.3679733 1.760704-.7072372 2.5984344-.6315613 1.559761-1.5997772 2.9176941-2.7158661 4.1703568-.9229889 1.035202-1.9347 1.9903641-3.0090408 2.8681107-1.1926498.9734268-2.4618454 1.8494415-3.7519379 2.6880341-.98909.6437302-1.9947052 1.2692032-3.041214 1.8163681-.7089767.3697128-1.4362259.7002869-2.1782608.9977951-.6994095.2801208-1.4101334.5506592-2.1469421.7176819-.0130539.0026093-.0200043.017395-.0165329.0295715.003479.0121918.0147934.0200195.0269699.0165253.1687546-.0530548.3349152-.1165619.5028152-.1713715.4036255-.1313477.808136-.2557373 1.2100372-.391449.9073257-.306221 1.8068161-.6367798 2.7019577-.9760437.9760361-.3697205 1.9486084-.7524796 2.8898468-1.2039642.6654892-.3201294 1.3153076-.6759186 1.9433823-1.0630417 1.9277344-1.1891632 3.7145386-2.6706238 5.1107407-4.460907.7603073-.9743042 1.3831635-2.0416946 1.8894653-3.1673508.6402511-1.4214401 1.0717239-2.9281311 1.2918167-4.46875z"/><path d="m99.4535294 96.0804291c-.0131302-.002182-.0276184.0069962-.0289612.0192261-.0060959.0794144-.0060196.1612167-.0112839.2397308-.0145721.2189407-.0500336.437706-.0742264.65522-.0550766.4961929-.107605.9905548-.1688232 1.4851913-.0947189.7733994-.1860123 1.5449524-.1438522 2.3251724.0332489.6151276.1307526 1.2255554.2748718 1.8239975.1391449.5794601.3283615 1.1468201.5802383 1.6868973.3267593.7003632.7682495 1.3430099 1.2391281 1.9524918.481781.623909.9820404 1.2271881 1.5407791 1.7824249-.5268631-.5388794-.9824753-1.1340561-1.3155289-1.8142014-.3777618-.7691956-.5924225-1.6072922-.8092422-2.432251-.1621323-.6170044-.3113403-1.237915-.4414978-1.8620529-.1072998-.5108643-.1981049-1.0231552-.2984695-1.5351257-.1171417-.5984573-.2551422-1.196228-.34198-1.8000336-.0678482-.4756088-.0966721-.955986-.0880661-1.4358521.007431-.3571014.0199814-.71698.1043091-1.0644302.0013122-.0130843-.0042954-.025093-.017395-.0264052z"/><path d="m95.1874313 103.7280197c-.0130386.0017395-.020874.0147858-.0191345.0269699.0217514.0904617.0487213.1791992.0704727.2696686.0600128.2479248.1026382.5028.1548462.7524796.1095963.5175934.2209473 1.034317.3288193 1.5527954.1618042.7707367.3218689 1.5449677.5871887 2.2887344.263588.7385559.6106796 1.4466629 1.0195465 2.1147614.420166.6863632.9073181 1.3344421 1.4788513 1.9033737.5628357.5593491 1.2065735 1.0343246 1.8703156 1.4675446.7368164.4801941 1.4979858.9142761 2.3052673 1.2639847-.7055054-.3166504-1.3675079-.7098541-1.9520874-1.2204895-.7742233-.676796-1.3761978-1.5284424-1.9486084-2.3757401-.4045105-.5993729-.7890091-1.2074432-1.1526337-1.8320312-.4140778-.7107239-.7933655-1.4405823-1.1882935-2.1617355-.274025-.5001984-.5497894-1.0030136-.7829208-1.5249557-.2009583-.4506226-.3679886-.9125443-.5054245-1.3866501-.1061325-.3662262-.2061691-.735939-.2392273-1.1169662-.0017471-.0130465-.0147933-.0234911-.0269775-.021744z"/><path d="m93.0204849 113.4440765c-.0113068.0052185-.0156631.0182724-.010437.0295792.0443649.0852509.0948181.1687622.1409302.2531357.1269989.2313995.2383499.4741135.3592682.7089844.2505417.4880219.5080261.9725647.7637787 1.4571075.3966827.7524719.795105 1.5049515 1.2961731 2.193924.4854202.6672211 1.0499878 1.2770309 1.6641464 1.8268204.6089401.5454254 1.2692108 1.0317154 1.9868851 1.4249115.7811813.427124 1.6258621.728981 2.4792557.9760437.8890457.2566223 1.7894058.4540939 2.7080307.5680466-.840332-.1139526-1.6589203-.3157654-2.4331436-.6663437-.8820953-.3992996-1.6693573-.9708252-2.4305344-1.5632324-.6072006-.4723663-1.1996155-.9664841-1.7641907-1.4893036-.7046204-.6532898-1.3735962-1.3405228-2.0469055-2.0251465-.4019012-.4079971-.8020554-.8220749-1.1691589-1.2613754-.3357849-.4036407-.6419983-.8316422-.9186325-1.2779083-.2261734-.3653564-.4453964-.7394257-.5924072-1.1447983-.0052262-.0113069-.0208741-.0156633-.0330583-.0104448z"/><path d="m92.691658 122.9583282c-.010437.0078201-.0130539.0252151-.0052261.0356522.0678558.0756836.1417999.1452789.2113953.2200928.1931152.2070389.3775406.423645.5715256.6306915.3949432.4210281.7985916.8342438 1.2065811 1.2422333.5941467.5941467 1.2057037 1.1743851 1.8946609 1.6580505.6846237.4810638 1.4257965.8768768 2.1965332 1.1987457.7933655.3322983 1.6223907.5845718 2.4714279.7263718.8446808.1409302 1.7032852.1670227 2.5584183.1739807.9247208.0069733 1.8494339-.0130463 2.7724152-.0817566-.8377304.0521851-1.6745834.0452271-2.5062256-.0791779-1.0177994-.1504822-1.9990616-.4784393-2.9655304-.8203278-.6968079-.2461777-1.3875122-.5114975-2.0634308-.8072739-.8838348-.3879852-1.7433167-.8211975-2.5993042-1.2674637-.5410843-.2818527-1.0821762-.5697861-1.5928192-.9047165-.4514771-.2966309-.877739-.6289444-1.2752838-.9951706-.3062134-.2818527-.6089401-.5776291-.8429489-.923851-.0078278-.0104368-.0217515-.0139235-.0321885-.0060805z"/></g><g><path d="m137.7135162 130.7399292s16.9645081 11.8766327 35.8756256 5.3924561c18.911087-6.4850006 23.1356049-20.8477859 19.6701202-28.6043472-3.4654694-7.7573929-17.3719788-16.6234589-34.061264-3.2955704-16.6900939 13.3287582-21.4844818 26.5074615-21.4844818 26.5074615z" fill="#d4be54"/></g><path d="m75.2406769 126.3951111c-.1546402-.0084-.3117905.0411758-.4361725.1521149-.2479095.222702-.2697601.605072-.0470505.8538284.263031.2933044.5092697.602562.7538223.9109879.3512726.4420471.6916351.8916473 1.0244293 1.3471375.9580383 1.3126831 1.8505325 2.6757965 2.6783142 4.0733643 2.398468 4.0456238 4.2960587 8.4063873 5.5389938 12.9444885.2966614 1.0824127.5496216 2.1749115.772316 3.2749786.0697556.3453979.4050674.5689545.7504654.4991913.3462448-.0706024.5697861-.4084167.4991989-.75383-.394989-1.9429779-.8941727-3.860733-1.5152206-5.7432098-1.279068-3.8825836-3.0337982-7.6029816-5.147377-11.098999-.8429108-1.3941956-1.7454834-2.7556152-2.7127686-4.0674744-.5529709-.7504578-1.1185608-1.4984055-1.7412872-2.1934052-.1109313-.1243821-.2630386-.1907731-.4176635-.199173z" fill="#5a6b10"/><path d="m111.5745773 48.6176376c-.079834.0139503-.1529465.0533638-.2227097.0945435-.0462112.0273972-.0840378.0687447-.1210098.1076546-.127739.1345482-.1680756.3693466-.2151413.5436478-.0201721.0730286-.0378113.1475677-.0579834.2206001-.0201645.0730324-.0403366.1449661-.0605011.2179947-.0394974.1460571-.0781631.2925415-.1176605.4385986-.4353256 1.6064873-.870636 3.2125473-1.3059616 4.8190346-1.838768 6.791172-3.6783829 13.5830116-5.5171509 20.3741875-7.7433243 28.5883102-15.4900208 57.1749268-23.2392273 85.7615509-.0874023.3218842.0999985.6529846.4227066.740387.3218765.0874023.6555023-.103363.7429123-.4252319 6.7415848-24.86203 13.4806442-49.7232208 20.2272797-74.584404 2.2690506-8.3601761 4.5380936-16.7203445 6.8071365-25.0803566.7529984-2.7744598 1.5051422-5.547905 2.2581253-8.3224449.1714401-.6299553.3412018-1.2609177.5126343-1.890873.0756378.2943077.1529541.588192.2285919.8824081.7370224 2.871521 1.4740372 5.7451401 2.2110519 8.6165771 2.1841736 8.5112724 4.3674927 17.0210381 6.5525055 25.5316505 6.5474625 25.504921 13.1007996 51.006485 19.6516266 76.5097198.0882416.3412018.4361572.5471039.777359.4597015.3411865-.0874023.5445709-.4361572.4571686-.777359-7.4979401-29.174057-14.9933472-58.3481216-22.4963303-87.5213242-1.7572556-6.8323593-3.5136642-13.6626091-5.2709122-20.4947052-.4117889-1.6004372-.825264-3.2003632-1.2370529-4.8007965-.0378189-.1468163-.0747986-.2943077-.1126099-.4412041-.0193329-.0737038-.0361404-.1468163-.0554733-.22052-.0437012-.172699-.2739639-.6233139-.3176575-.6513023-.066391-.0426025-.1353073-.0858002-.212616-.1024399-.0941237-.0202521-.1941374-.0218505-.2891005-.0052947z" fill="#6767a8"/><g><path d="m104.6932068 151.5066833s-29.3504562 1.6770325-28.8165741-8.743866c.5338974-10.4208984 17.0390091-9.9912415 21.9907684-5.5312653 4.9528427 4.4592439 6.7749481 9.6072389 6.8258057 14.2751313z" fill="#969105"/></g><g><path d="m119.8372726 148.2357941s2.9537735-24.9219742 18.6453323-20.6752853c15.6915894 4.245552-1.1579436 22.1355361-18.6453323 20.6752853z" fill="#5a6b10"/></g><path d="m129.7856445 143.8412628c.1546326-.0029144.3084259.0623779.4277649.1978455.238678.2699738.2462311.7124329.0126038.989212-.1378326.1627502-.2638855.3420715-.3882599.5184784-.2008514.2845917-.3916321.5769653-.5748291.8771362-.564743.9180756-1.0605621 1.8946075-1.4975739 2.9023438-1.4463043 3.3408966-2.202652 7.0589752-2.3371124 10.7868042-.0437012 1.2055511-.0142899 2.4121094.0605087 3.6157227.0252151.4073944-.2420349.7592163-.5933228.7884521-.3521118.0292358-.6554947-.277771-.6807098-.6851349-.1050491-1.7289276-.1100845-3.462738.0269012-5.1897125.2731247-3.4559021 1.0849304-6.8543243 2.4371262-9.9535217.4664078-1.0691223.9983749-2.1021881 1.5992432-3.0787354.331955-.5399323.6815643-1.0817871 1.0815887-1.5593414.1168061-.1383972.2705994-.2075959.4260712-.209549z" fill="#5a6b10"/><g fill="#fff"><path d="m186.6447601 112.0199814c-.0014496-.01194-.0123596-.0199203-.024292-.0184555-.2794342.0385056-.5569153.0879517-.8356018.1311874-.684433.1077347-1.3705902.2077637-2.0530548.3239594-1.3117523.2230835-2.6178436.4757538-3.9219818.7393799-1.9543457.3947983-3.905304.8224182-5.8269653 1.3537445-1.6958466.4683151-3.3707886 1.0124817-5.0153656 1.6360092-2.8973541 1.0977631-5.7239532 2.4072113-8.3925018 3.984726-2.2399139 1.3241959-4.356369 2.8517609-6.3596191 4.5115814-1.9599152 1.6231766-3.8066101 3.3786011-5.4812927 5.2965393 1.7135162-1.9481506 3.6238708-3.7113495 5.7189636-5.243454 2.0032196-1.4645004 4.142807-2.7216187 6.3288727-3.8906555 2.2565002-1.2063599 4.5787811-2.2937622 6.9410248-3.275177 1.6146393-.6715775 3.2500153-1.2903976 4.8940125-1.8855972 3.1534424-1.1418152 6.3493347-2.1776428 9.6283722-2.896637.7879791-.1725616 1.5791626-.3254929 2.373764-.4630051.6660614-.1157379 1.3321075-.2190475 2.0054779-.2801056.0111845-.0012054.0214079-.0128555.0201872-.0240402z"/><path d="m185.4686279 119.154213c-.7651825.2610855-1.5486908.4530869-2.3575897.5072861-.9033203.0611191-1.8023529-.0581207-2.6881714-.2265625-.8012238-.1523666-1.5968933-.3498154-2.3705597-.6078873-.8737946-.2905884-1.7243347-.6448975-2.5663605-1.0173416-.5475159-.2425232-1.0915985-.4950485-1.6094666-.7963257-.432251-.2506485-.8444824-.5345612-1.233551-.8463058-.1447296-.1151505-.2867889-.2340164-.4250031-.357933.4996643.4730453 1.0054321.9383698 1.5261841 1.3887634.6210632.5374908 1.2553711 1.0599365 1.9627533 1.4812164.6846008.4079132 1.4212952.7295837 2.1824036.9682312.8309326.2601471 1.6958008.4255524 2.5681152.4459915.7830505.0174637 1.5663452-.0787888 2.334259-.2231598.9100648-.1716156 1.8032533-.4069291 2.6769868-.7159729z"/><path d="m184.171463 124.7106171c-1.1727905.3004913-2.3703003.4659882-3.5826721.4286652-1.1390686-.0358887-2.2634888-.2529068-3.3623352-.5478821-1.095871-.2934799-2.1723938-.6661682-3.210907-1.1242523-1.175293-.518837-2.3068237-1.1357117-3.4074097-1.7967453-.7145538-.4293747-1.4200897-.8766098-2.0869751-1.377182-.5560303-.4179993-1.0816345-.8741913-1.5770874-1.3618698-.2037201-.2008514-.404953-.406662-.5979614-.6201553.5420685.6187592 1.101059 1.2236557 1.6787415 1.8099594.6820221.6917038 1.3814697 1.3710327 2.1375275 1.9836731.4485626.3632965.917572.700798 1.4067993 1.0092697 1.6324005 1.0307693 3.4713287 1.777298 5.3795166 2.0921021 1.1508331.1892548 2.3257446.2008896 3.4867554.1178055 1.2619323-.0907747 2.5119628-.2901613 3.7360076-.6133882zm-17.8253479-6.3994217c-.1927643-.2127533-.3768005-.434166-.5399323-.6699448-.0064392-.0094681-.0198517-.0100021-.029068-.0028152-.0094604.006424-.0107422.0200958-.0035553.0293121.0993195.1178055.204895.226944.305481.3435135.0867005.1021194.1783905.199295.2670746.2999344z"/><path d="m178.9351501 128.9155579c-1.1277466.2814941-2.2809906.433197-3.4438934.3877869-1.3079987-.0512543-2.5887451-.3531799-3.8282013-.7606049-1.1105957-.3655853-2.1928558-.8183212-3.2319183-1.3531952-1.1973877-.6158142-2.3413086-1.3303909-3.4558258-2.0836563-.6094818-.4119415-1.2087097-.8380127-1.7837677-1.2960892-.6191864-.4939651-1.2054596-1.0310974-1.7530975-1.6041489-.210144-.220253-.4185486-.4427338-.618454-.6746368.6093292.7397232 1.2378235 1.4648361 1.888504 2.1693802.5763397.6248169 1.1651306 1.2372437 1.7967987 1.8065491.4491882.405304.9243011.7838211 1.4169006 1.1350555 1.6240845 1.1584702 3.4727936 2.057373 5.4223938 2.5025024.9479675.2165375 1.9151459.3133392 2.8862762.3293915 1.5834199.0256653 3.1704255-.1633758 4.7042847-.5583343zm-18.1869964-7.4692231c-.1969299-.2328873-.3841553-.4739532-.5509644-.7283859-.0071716-.0092163-.0208282-.0129776-.0300446-.0057983-.0102081.0066833-.0129852.0208435-.0058136.0300598.0943604.120285.1989441.2313995.2937927.3506927.0955964.1190491.1959382.2348709.2930299.3534317z"/><path d="m174.5561981 134.1155701c-.29245.0717773-.589798.123642-.8859253.1767731.297348-.0493928.5927277-.1072388.8859253-.1767731zm-.8859253.176773c-.8017883.1307831-1.614563.1832581-2.4292755.1296082-1.5168762-.0997772-2.9560242-.5455322-4.3467712-1.1479492-1.1495056-.4983978-2.2554932-1.0955811-3.3128204-1.7684174-1.1729126-.7472229-2.2839661-1.5876923-3.3688354-2.4566956-.832428-.6660156-1.6538849-1.351387-2.4197693-2.0940247-.5180206-.5033951-1.0076294-1.0335464-1.4730988-1.5857468-.438446-.5205688-.8718872-1.0535507-1.223938-1.6382523-.0059204-.0104523-.0205841-.0122299-.0300446-.0057983-.0094604.0064392-.01297.0183563-.0065308.0278168.093338.1297226.1948853.2542496.2894592.3827438.2270508.3090057.4483643.6207428.6786499.9270325.5197601.6915207 1.0581665 1.3694153 1.602829 2.0411224.593689.7324677 1.1975861 1.4582596 1.8515625 2.1377182.4631653.4801331.9524689.9367218 1.4624939 1.3657837 1.5662689 1.3166199 3.3433228 2.4295349 5.2745972 3.1199036 1.0511627.3760986 2.1432343.6079407 3.2522583.7232666 1.4006958.1464387 2.8153687.0896302 4.199234-.1581115z"/><path d="m181.1769562 108.4549484c-.0018463-.011879-.0138245-.0217056-.024704-.0193939-.0698395.0172729-.1399841.0405197-.2088318.0582504-.191925.0495377-.3896179.0811005-.5830688.1219864-.4412231.0933533-.8801575.1883698-1.3217926.2760086-.6902466.1378937-1.3779297.2781982-2.0352478.5354385-.518219.2028122-1.0142059.4594116-1.4867096.7526093-.4576111.2835388-.8906708.6066055-1.2825623.9756851-.5081787.4787369-.9343262 1.0395279-1.3237152 1.6161346-.3986511.5900421-.7743988 1.190094-1.0923462 1.8266907.3129578-.6046219.6943817-1.1640701 1.1834259-1.6424789.5527649-.5419846 1.2108459-.9635849 1.8570404-1.3833237.4833221-.3139038.9736481-.6178207 1.4721375-.9063187.4078064-.2367859.8215027-.4598312 1.2322388-.6909866.4801331-.2700577.9537964-.5578079 1.4471283-.8033829.3887329-.1929626.7926331-.3537979 1.2066803-.4823837.3084259-.0948105.6206818-.1860199.9426117-.2121277.0115966-.0025863.0202941-.0107955.0177154-.0224075z"/><path d="m173.4082336 106.9625015c-.005188-.0106888-.0186157-.01371-.0285645-.0087662-.0714417.0442886-.1399078.0925674-.2113495.1368561-.1956635.121727-.4022064.2305145-.6015778.3460388-.4129333.2406693-.8246155.4825974-1.2387848.7220306-.6152802.3571777-1.2340393.7138596-1.7968597 1.1521835-.5588226.4353714-1.0678864.9337387-1.525116 1.4737625-.469696.5548859-.8875732 1.1563873-1.2136383 1.8078461-.3203278.6412735-.5453491 1.3280411-.7288818 2.020134-.203125.7680893-.3598022 1.5440063-.4310303 2.3355637.0717163-.6948929.2214203-1.3741608.4937897-2.0202866.3611755-.8558807.9211273-1.6135559 1.485733-2.344635.3995056-.5168076.812149-1.0189133 1.244873-1.5078049.4923248-.556572 1.01091-1.0887146 1.5175934-1.631813.3514252-.3767853.7045898-.755806 1.0862427-1.1036682.3295898-.3000565.6784973-.5742111 1.0462341-.8264465.2840729-.1948013.5728455-.385376.8903198-.5216904.0106966-.0051956.0159609-.0193481.011017-.0293045z"/><path d="m164.4599915 107.8567581c-.0076752-.0082169-.0201111-.008255-.0283356-.0005722-.0605469.0622177-.1178894.1291504-.1772003.1926117-.1625061.1745071-.3391418.3387909-.5063477.5090637-.3476257.3531876-.6903076.7113495-1.0334625 1.0680161-.5330505.5534821-1.0656281 1.1084518-1.5146332 1.7334747-.4347839.6054382-.7978973 1.2625046-1.0954742 1.9450912-.2953186.6768875-.5253601 1.3810425-.6592865 2.1080627-.1450348.7911072-.1646271 1.6011887-.1347504 2.4032135.0317993.8353195.1175232 1.6635818.2800598 2.4838409-.1403503-.7531052-.1991882-1.5124588-.1178436-2.2759094.0925751-.8697815.3597412-1.707016.6522217-2.5277939.233139-.654686.4891205-1.3028564.7776184-1.9352722.3607178-.7895279.7606659-1.5580826 1.157135-2.3296204.2360992-.4603424.4779053-.9209213.7507172-1.3602829.2510834-.4024048.5314484-.7863388.8358612-1.1500778.2493134-.2975311.5080719-.591568.8141327-.8325272.0082244-.0076902.0075225-.0223463-.000412-.0313185z"/><path d="m156.2057037 110.2705307c-.0096741-.0067368-.0253448-.0040512-.032074.0056229-.0457001.0796509-.0844421.162796-.128891.2436905-.122879.2243195-.256424.4438858-.3790436.6689529-.2492523.4580688-.4893341.9213867-.7236938 1.3869629-.3412933.6779938-.6657257 1.3669815-.8853912 2.0950012-.2186584.7235641-.348175 1.4714737-.4058838 2.2238007-.0602417.7746887-.0417328 1.5572968.0772095 2.3257599.118454.7644806.3393402 1.5083694.5756836 2.2438507.2560425.7951813.5352173 1.5827103.8556976 2.35495-.2821503-.7037964-.5133057-1.4235992-.6422272-2.1722183-.1593018-.9156799-.1560211-1.8503189-.1366119-2.776207.0137329-.6674576.0456085-1.3351059.1077881-1.9987106.0823822-.8680725.2104492-1.7280579.350708-2.5887604.0884552-.5439911.1821136-1.0897141.3247223-1.6226349.1265259-.4713135.2907867-.9311142.4922943-1.3758926.1549988-.3425217.322937-.6860046.5536041-.9848328.0067444-.0096741.0057831-.0225983-.003891-.0293351z"/></g><g fill="#fff"><path d="m44.1588821 102.846962c.0030785-.0099411.0135994-.0150604.0235329-.0119781.2320328.0757828.4607162.1605835.6913872.2402725.5662804.197052 1.1352005.3877945 1.698494.5917435 1.0827293.3917923 2.1560936.8079071 3.2261124 1.2330475 1.6035309.6368866 3.199131 1.3011932 4.7538261 2.0493088 1.3720894.6597214 2.7147026 1.3808136 4.0192528 2.1648254 2.2984238 1.3805923 4.5040321 2.9305649 6.5337906 4.6845016 1.7037201 1.4722672 3.2710342 3.098732 4.7215805 4.8204041 1.4192886 1.6837921 2.7218094 3.4627914 3.8528442 5.353714-1.1594696-1.9226227-2.5149918-3.7180405-4.0634155-5.3450775-1.4805679-1.555336-3.1091766-2.9550552-4.7909241-4.2869034-1.7359695-1.3744812-3.5462685-2.6577682-5.4069061-3.8569565-1.2716675-.8203201-2.5691032-1.5988998-3.8775253-2.358696-2.5097198-1.4575043-5.0718994-2.8312836-7.753624-3.9480515-.6444817-.2681885-1.2946968-.5201416-1.9502106-.759491-.5493927-.2010345-1.1006813-.3914871-1.6647186-.547081-.0093423-.0027542-.0162469-.014244-.0134965-.0235824z"/><path d="m46.2323303 110.1248169c.6317253.2410889 1.2839546.4435654 1.9534645.5491714.7459869.116806 1.5079346.1090164 2.2555618.0153122.6848602-.0861206 1.361702-.2467041 2.0074463-.4887466.6672096-.2499237 1.2877464-.5972366 1.8993301-.9593964.5127525-.303421 1.0150452-.6218643 1.5133133-.9478226-.1367607.084259-.2760124.16362-.4169769.239418-.3792915.2056122-.7740211.3839645-1.1806679.5309067-.4873581.1768875-.9895477.3082199-1.493103.4305115-.7743568.1876144-1.5531654.3584747-2.3419724.4714966-.6985397.1007385-1.4064903.1464691-2.1122437.1529465-.7802544.0071564-1.5641937-.0296173-2.3240395-.2206497-.6805-.1706009-1.3181725-.4546585-1.9296112-.7947083.6965029.3975983 1.4209101.7353974 2.1694986 1.0215607z"/><path d="m47.3997231 115.1316681c.9759026.2493744 1.9782181.4202271 2.9873543.4361267 1.6734047.0255051 3.354248-.327301 4.9029427-.9539337.4640732-.1874161.9153976-.4026642 1.3532791-.6430283.7380905-.4053879 1.4382401-.8762741 2.1254539-1.3603821.5821495-.410408 1.1512413-.8395157 1.708046-1.2830353-.1972122.1521072-.400238.2964096-.6046257.4361038-.4969482.3390732-1.0147285.6466904-1.552536.917099-.6449127.3236771-1.3145485.5959778-1.9890976.8516846-1.0389366.3935928-2.0974312.7448196-3.1780968 1.0058289-.9548569.2303162-1.928936.3820648-2.9073067.4633865-.9811363.0821228-1.9720535.0939331-2.9475746-.0507507-1.0381699-.1547394-2.0324821-.4799118-2.9849625-.9162445.9926338.4635773 2.0264587.8256912 3.0871239 1.0971451zm13.3506584-4.0185776c.1035805-.0837936.2102814-.1604919.3129921-.2455368.0075302-.0067444.0085487-.0185776.0014801-.0255051-.0067444-.0075378-.0182533-.0091476-.0251884-.0020752-.17519.1756821-.3659782.3359222-.5628662.487442.091011-.0720596.1840362-.1407012.2735824-.2143249z"/><path d="m52.0449295 119.6202087c.8294487.1357422 1.6679764.2021103 2.5085602.163559 1.7287064-.0791168 3.4413185-.560173 5.002594-1.2968216.4735146-.2233124.936348-.4725571 1.3812294-.7485886.6254959-.3876266 1.2211266-.8185654 1.8080521-1.2619781.6624985-.4998627 1.309269-1.0206528 1.9419746-1.556839-.205925.1667252-.4176178.3241272-.630455.4793549-.5545311.4037399-1.1364288.7709503-1.7397118 1.0963364-.5601768.3016129-1.1360207.5722504-1.7184105.829277-1.0649872.4699936-2.1490746.9025116-3.2634811 1.2427063-.9671326.2956161-1.958416.5146484-2.9604187.655098-1.1181679.1562653-2.2552719.2163391-3.3770256.0587463-.9972801-.1402512-1.9560165-.4468689-2.8730736-.8600845 1.2454414.572319 2.5678062.9774703 3.920166 1.1992339zm13.0205231-5.0176162c.0991287-.0869904.2052765-.1655273.3041306-.2534409.0075302-.0067444.0073547-.0192261-.0003128-.0264893-.0067444-.0075302-.0189514-.0064316-.0264816.0003204-.1811905.1909943-.3777161.3674774-.5812454.5354996.1009215-.0860214.2041777-.1692199.3039092-.2558898z"/><path d="m51.7809753 123.8097382c-.2439919-.0908051-.4892311-.1807327-.7272301-.2868423.2389756.1043166.4816132.1990279.7272301.2868423zm3.5516358.7807006c.9621658.0724106 1.9278145.0429993 2.8808289-.1155548 1.750843-.2907639 3.4353638-.9650879 4.9717178-1.8453217.5003395-.286911.9872742-.6004486 1.4555664-.9380569.661438-.4779892 1.2873764-1.0031433 1.9056396-1.5355606.5671539-.4882126 1.1299515-.9826584 1.6789551-1.4915695.2432251-.2253952.47966-.4568176.7205429-.6850281.1003189-.0948639.2059555-.1852875.3053894-.281395.0069427-.0070724.0057907-.0177612-.0012817-.0246964-.0070648-.0069351-.0198212-.0076752-.0264816.0003204-.3897552.4437485-.8408661.8309402-1.2943268 1.2067795-.4813309.3986359-.9798431.7747726-1.4984283 1.1237488-.7664566.5145798-1.571434.9718399-2.382782 1.4109344-1.0575485.5731049-2.1329994 1.117897-3.246788 1.5737457-1.0039139.4103012-2.0376205.7486877-3.0931854.9962616-1.2770195.2990341-2.5711403.4572067-3.878231.3088074-.7020454-.0796585-1.3861046-.2493896-2.0487709-.4841156 1.140354.4238741 2.3363112.6899034 3.5516356.7807008z"/><path d="m49.3636284 100.6523056c.0034027-.0098343.0151138-.0163574.0240135-.0127106.0568199.0254517.1129837.0560379.1688728.0817261.1558266.0717163.3193245.1290131.4777603.1935883.3613739.1473846.7205467.2958298 1.0831528.4384079.5665779.2236176 1.1306076.4489059 1.6507797.7690887.4101067.2524414.7929916.5472717 1.1502533.8696365.3460732.3118668.6651497.6536102.9420967 1.0282059.3590927.4858627.6357155 1.0289841.8785858 1.5799103.2487144.5638046.4763603 1.1326065.6491776 1.7236328-.1734772-.5630341-.4122238-1.0981293-.7550774-1.5807724-.3873329-.5465851-.8828773-1.0068588-1.3685837-1.4637146-.3632812-.3416672-.7340736-.6759186-1.114193-.998291-.3108482-.264389-.62883-.5179749-.9430275-.7780151-.3673325-.3038406-.7264175-.6217575-1.1087379-.9067764-.3013573-.2241364-.6205597-.4232407-.953373-.5964432-.2480545-.1281891-.4999275-.2538986-.7700577-.3256683-.0094832-.0039826-.0156325-.0123139-.0116423-.0218049z"/><path d="m56.2089043 100.5766144c.0060616-.0083008.017952-.0088196.0256691-.0030746.0540161.0487061.1048965.1003571.1589241.1490631.1478882.1337662.307045.2581787.4590569.3872299.3146095.2684784.6279678.5378418.9438286.8054581.4690056.3988266.9410477.7977676 1.35289 1.2576294.408905.4567184.765728.9594421 1.07201 1.4896545.3146095.5447922.5779228 1.1213074.7553673 1.7262421.1741142.5953751.2600784 1.2148285.3098907 1.8324432.0548058.6853333.0688477 1.3701859.0077209 2.0552216.045845-.6027908.0228653-1.2042694-.1096725-1.796402-.1758804-.7844162-.5361595-1.5157776-.90448-2.2252121-.260704-.5015717-.5348473-.9926376-.8281326-1.4755402-.3336143-.5497131-.6933594-1.0826569-1.0412827-1.6231003-.241291-.3749313-.4837227-.7520294-.7552147-1.1069794-.2345085-.3062286-.4894409-.5933762-.7637901-.8647461-.2119408-.2095947-.4285431-.4163132-.6779175-.5812378-.0083122-.0060729-.0106125-.0189285-.0048675-.0266494z"/><path d="m63.6914139 102.7148514c.0078125-.0058136.0184021-.0039368.0242195.0038757.0419922.062294.0805206.1281204.1212692.1912842.1115341.1736069.2366829.340683.3528709.5114136.2416916.3542404.4784012.7119675.7157516 1.0684967.3687897.5533447.7369308 1.1078796 1.0231323 1.7092133.2771072.5824661.4852295 1.197876.6336288 1.8249359.1473389.6218491.2349014 1.2568893.2370911 1.8966064.0017929.6959991-.1061554 1.3888626-.2549973 2.0672455-.1555786.7064514-.3560181 1.3985901-.620636 2.0720978.2353973-.6197357.4023285-1.2573318.4505157-1.9199753.054985-.7549286-.0437241-1.5090103-.1665115-2.2529602-.0978088-.5933838-.2160721-1.1847305-.3644485-1.7676697-.1857147-.7278366-.4080582-1.4438553-.6269836-2.1618729-.1302185-.4283447-.265274-.8577652-.4299927-1.2738876-.1519165-.3813019-.3315964-.7513885-.5348663-1.1079788-.1665344-.2917252-.3416405-.5819321-.5652046-.8342133-.0058173-.0078125-.0029639-.0201874.0051614-.0266113z"/><path d="m70.3492126 106.0403137c.0092697-.0042496.0221939.0004501.0264435.0097198.0266571.0748596.0468597.1516266.0722656.2273483.0701294.2099304.1500702.4174576.2198715.6279831.141777.4284286.2749329.8599167.4028854 1.2924423.1863251.6298752.3566055 1.2665176.4316559 1.9202805.0748825.6498108.0701065 1.3066406.0034943 1.9561768-.0678787.6689758-.2040482 1.3325729-.4235687 1.9686813-.2184906.6327896-.5210419 1.2322769-.8354568 1.8222427-.3403778.6377563-.6992874 1.2654495-1.0910034 1.873764.3485413-.5559235.6561356-1.1333313.8811035-1.7509995.276535-.7552643.4175415-1.5516815.5434647-2.343132.0909958-.5705032.1665726-1.1439667.2157135-1.7186356.0634079-.7519073.0866547-1.503952.0996323-2.2584839.0083771-.47686.0125732-.9560013-.0268784-1.4317551-.0352249-.4208298-.1043701-.8376541-.2075348-1.2474213-.0792999-.3155289-.1694565-.6338654-.3199234-.9238358-.0042496-.0092694-.001442-.0201336.0078353-.0243756z"/></g><g fill="#969105"><path d="m140.6018372 131.8912506c-.0010529-.0053711-.0065613-.0079498-.0122833-.0060577-.1337738.046463-.2662811.0977783-.3995514.146347-.3272705.1199951-.6556091.2365875-.9816742.3603058-.6267242.2376556-1.2498474.4884491-1.8716888.7441101-.9318848.3829956-1.8611603.7808533-2.7731934 1.2237244-.8048706.3905792-1.5973816.8141327-2.3728485 1.2713318-1.3662262.8051147-2.6919708 1.7010193-3.9333801 2.7048798-1.0420074.8426514-2.0183258 1.7668304-2.9360275 2.7406616-.8978653.9524231-1.7371216 1.954483-2.4884491 3.0141907.7691879-1.0776672 1.6389313-2.089859 2.604805-3.0139465.9235229-.8833771 1.9190903-1.6846924 2.9397278-2.4499664 1.0535431-.7897797 2.142395-1.5312042 3.2537079-2.2276459.7595978-.4763794 1.5307617-.9304504 2.3068085-1.3744659 1.4885712-.8517609 3.0007935-1.6587677 4.5626373-2.3275909.3753357-.1606293.7528076-.3124847 1.1323853-.45755.3181458-.1218109.636673-.2378845.9599915-.3351135.0053708-.0017093.0099637-.0081485.009033-.0132144z"/><path d="m140.2471008 135.3155212c-.3616791.1992645-.7342529.3684387-1.12323.4763794-.4343567.1208344-.8720245.1576996-1.3047943.1704254-.3914337.0115051-.7815399.0015717-1.1628265-.0386963-.430603-.0450745-.8518829-.1220398-1.2696075-.2082672-.2716217-.0562286-.5418854-.1174469-.8009491-.2039185-.2162018-.0717926-.4237366-.1610565-.6209259-.265564-.0733337-.0385132-.145462-.0789948-.2159119-.1222229.2554016.1678772.5135193.3315582.7784424.4868011.3159485.1852875.6378479.3622589.9920044.4848938.3427582.1187897.7080841.1922913 1.0827332.2248535.4089966.0353546.8315582.0233765 1.2533875-.0565186.3786163-.072113.7539673-.1969147 1.1204529-.3424225.4343108-.1726835.8585661-.3731382 1.2712248-.6057432z"/><path d="m139.7867737 138.0214844c-.557312.2592926-1.1306.4585724-1.7171326.5654755-.5510864.1000519-1.1005096.1147156-1.6399231.0906677-.5379181-.0236664-1.0688782-.0859833-1.5840302-.1917572-.5830078-.1198883-1.1478119-.2896576-1.6990051-.4830475-.3578491-.1256561-.7118988-.260498-1.0488739-.423996-.2809753-.1366272-.5484009-.2940521-.8022156-.4691467-.1043701-.0721436-.2076874-.1468353-.3072662-.2259369.2802277.2310181.568222.4538879.8646851.6662292.3500061.250473.7080383.4934235 1.0914154.6996918.2274475.1222839.4640045.230545.7094574.323288.8190155.3101349 1.7292786.4674988 2.6600952.4178314.5613403-.0302277 1.1290131-.1451874 1.687149-.3025818.6066285-.1712799 1.2042695-.3916473 1.7856446-.6667175zm-8.7984467-1.1377411c-.0994415-.0787811-.1949158-.1624603-.2807312-.2549438-.0033875-.0037231-.0098877-.002594-.0141144.0016785-.0043793.003952-.0045929.0104065-.0008545.0139313.0514832.0443878.1057281.0841217.1577759.1277924.0449219.0384215.0920868.0740202.1379242.1115416z"/><path d="m137.3840027 140.5050964c-.5361328.2458649-1.0884705.4342346-1.6513519.5323181-.6331177.1102295-1.2605591.101593-1.8712311.0398712-.5471802-.055542-1.0832977-.1543579-1.6010132-.2956238-.5965729-.1625366-1.1702881-.3762817-1.730957-.6109467-.3066101-.1283417-.6086884-.2642822-.9000397-.417511-.3137512-.165329-.6128845-.3540192-.894455-.5633087-.1080475-.0804596-.2153168-.1621552-.3187866-.2490692.31633.2801514.6414795.5515747.9767151.8111877.2969666.2303162.5995789.4536133.9216003.6525574.2290039.1416779.4697266.2683105.7180786.3805084.8188324.3701324 1.7383728.5970459 2.6930695.6035004.4642029.0031738.9341125-.0510559 1.4035187-.1430969.7653503-.150299 1.526001-.4003905 2.2548523-.7403869zm-9.0050507-1.5961303c-.1020508-.087677-.1996613-.18013-.2878113-.2808685-.0037384-.00354-.010437-.0038757-.014679.0003967-.0047302.0041351-.0056458.0109711-.0019073.0145111.0491638.0460358.1029816.0867767.1523438.132309.0497131.0453338.1016235.0886993.1520538.1336517z"/><path d="m135.424942 143.3616791c-.1390686.0631866-.2810974.1176758-.4225006.1726074.1421051-.0533295.2830048-.1103821.4225006-.1726074zm-.4225006.1726074c-.383255.1426849-.7741394.2502289-1.1691437.3088379-.7354279.1091614-1.4436646.0501404-2.1332092-.0863953-.5699463-.1130524-1.1218262-.2763214-1.6524811-.4796143-.5886841-.2258911-1.1502838-.5013123-1.7001038-.7926178-.4218445-.2231598-.8389816-.4564209-1.2309799-.7218781-.2651825-.1800537-.5174408-.375412-.7586975-.5834656-.2272644-.1961517-.4524841-.3985748-.639946-.6332855-.0031738-.0042419-.0103073-.0035553-.0146866.0003815-.0043716.003952-.0057144.0098419-.0023193.0135498.0489426.0505219.1016998.0977936.151207.1475983.118866.1198425.2350464.2415466.3554001.359787.2716293.2670135.5518723.5257874.834938.7810669.3085556.2783813.6218491.5526428.9579315.8003082.2379913.1748962.4878998.3362274.746994.4826813.795639.4492798 1.6869659.7826538 2.6401367.904541.5188141.0664978 1.0530701.0620117 1.5920258.0018311.6807251-.0756531 1.3621216-.2468567 2.022934-.5033264z"/><path d="m137.8551025 130.8003693c-.0012512-.0053101-.0073242-.0086365-.0124969-.0064545-.0332184.015152-.066391.0330963-.0991058.0483551-.0912018.0426025-.1857147.0774689-.2778931.1162262-.2102661.0884094-.4193726.1773834-.6300049.2631989-.3291779.134552-.6570435.2699585-.9667511.4564056-.2441711.1470032-.4759979.3166351-.6953888.5008087-.2124939.1781769-.4119568.3721466-.5901489.5832062-.2310791.2737427-.4200897.5770874-.5908813.8839874-.1748657.3140717-.3383636.6304474-.4728699.9578094.1330414-.3120422.3005066-.610199.5223541-.8818207.2507172-.3076172.5558777-.5702515.8553619-.8308258.223999-.1948547.4516754-.3858185.6837616-.5704803.1898346-.1514282.3829346-.2970886.5743561-.4462128.2237701-.1742249.4438934-.3560028.6747589-.5202484.1819458-.1291809.3721619-.2450256.5682526-.3469849.1460876-.0755005.2941437-.1497192.4488068-.1947784.0055236-.0023956.0094909-.00708.0078887-.0121917z"/><path d="m134.0592651 130.9049377c-.0028229-.0044098-.0093994-.0044403-.0140533-.0011292-.0331726.0278168-.0647888.0571899-.0979614.085022-.0908356.076416-.1873322.1479492-.2801514.2218628-.1921844.1537476-.3837433.3079529-.5765839.4612427-.2864227.2284393-.5745392.4569855-.8332062.7176208-.2568359.2588501-.4877472.5417786-.6923828.8386841-.2102203.305069-.3940277.6264191-.5320129.9615021-.1355133.3297882-.2236481.6708679-.2915802 1.0101624-.0751343.3765106-.1276093.7518768-.1383514 1.1257324.0138702-.3291473.0658569-.6590424.1780701-.9861603.148819-.4333344.3965607-.841568.6473541-1.2379456.1774597-.2802582.3617096-.5550385.5560455-.8257599.2210999-.3081665.4555969-.6077118.6840363-.9111176.158432-.2104797.317627-.4221649.4915314-.6223602.150177-.1727142.3104553-.3354034.480484-.4898682.1313477-.1193085.2651062-.2371521.4143219-.3327942.0050048-.0034941.0071258-.0105894.0044402-.0146941z"/><path d="m129.7651978 132.2355804c-.003952-.003006-.009964-.0017548-.0137024.0026398-.0273743.0350189-.0530548.0718842-.0798035.1073456-.0732574.0974579-.1536407.1916351-.2292938.2876129-.1573029.1991577-.3120575.400116-.4671021.6004333-.24086.3109131-.4814301.622467-.6795654.957901-.1918488.3249054-.3475571.6663666-.4708481 1.0129547-.1223755.3437042-.21241.6933594-.2553482 1.0437469-.0463943.3812103-.0316544.7583618.0067444 1.126709.0403061.3835754.1064529.7583466.2094498 1.1215515-.0902786-.3343811-.1413803-.6799927-.1249161-1.0418701.0187149-.4122772.1227036-.8273621.2394028-1.2374115.0930176-.3270569.197258-.6534271.3176498-.9758453.1506042-.4025726.320755-.7994537.4891357-1.1973419.1002502-.2373657.2032471-.4754181.3218536-.7068329.1092072-.2120667.2331238-.4185791.3692474-.6182098.1114807-.1633148.2276459-.3259735.3682251-.4689178.0037385-.0043946.0029603-.0111237-.001129-.0144654z"/><path d="m125.8516159 134.1988373c-.0048752-.0021362-.012352.0007172-.0153198.0058746-.0196762.0415649-.0359039.0840454-.0549545.1260529-.0526276.1164703-.1105499.2318268-.1630402.3486176-.1066666.2376556-.2087402.4768066-.3079987.7164154-.1445389.3489227-.2806091.7012177-.3649216 1.0608521-.0839615.3574829-.1241531.7170868-.1295319 1.0713959-.0059433.3649139.0263748.7254486.1067734 1.0691223.08004.3419037.208931.6637573.3450241.9801483.1473923.3420105.3057327.6781158.483551 1.0029144-.1572647-.2970276-.29039-.6066895-.3750153-.940155-.1042786-.4077301-.1306305-.8408813-.1489182-1.2716522-.0133133-.3104858-.0178757-.6229401-.0076752-.936615.0138397-.4104309.0499802-.8218079.0919876-1.2347565.0264511-.2609711.0553741-.5232849.1083069-.7846832.0470123-.2312164.1125946-.460968.1966019-.6875763.0646057-.1744995.135437-.350769.2378922-.5127716.0029604-.0051729.0021135-.0110627-.0027617-.0131837z"/></g><path d="m133.5027771 136.7848663c.07901.0050354.1596832.0252075.2344666.0630341.2975006.1504211.4176788.5134735.2672424.8118134-.1546326.3075867-.2949677.6218872-.4328003.937027-.2218475.5075989-.432785 1.0227509-.6327972 1.5395966-.5815582 1.4984131-1.079895 3.0270844-1.5051422 4.5767517-1.3336945 4.8582764-1.9446564 9.9770813-1.4421082 15.0042725.1395111 1.3874817.3722992 2.7606812.6832275 4.1204224.0781708.3437195-.1369781.6857605-.4806976.763916-.3437042.0781555-.6857605-.1369934-.7639008-.4806976-.3529663-1.5496674-.6067657-3.1170044-.7437439-4.7011261-.4361725-5.0507355.2218475-10.1577759 1.5706787-15.0294952.4210358-1.5211029.9143372-3.0237122 1.478241-4.4985962.2294159-.5983582.4706116-1.1908417.7277832-1.7782593.1470642-.3353271.2975006-.670639.462204-.9975433.1126099-.2235415.3428802-.3462374.5773468-.331116z" fill="#5a6b10"/><g fill="#d4be54"><path d="m82.0682602 139.8039398c-.0003128-.0054779.0043793-.0093536.0103836-.0089264.1411362.0115967.2822571.0282288.423439.0420074.3468628.0345459.6939011.0655518 1.0405197.1039886.6662064.0737762 1.3321915.1611786 1.9981537.2536011.9979782.138382 1.9971237.2917938 2.9908066.4931183.8768616.1773987 1.7499847.3898315 2.6150055.6390991 1.5239029.4387817 3.0312424.9755859 4.4838486 1.63797 1.2192917.556015 2.3953247 1.2073822 3.5269699 1.9214478 1.1071014.6982727 2.1698303 1.459259 3.1617966 2.2980042-1.0137405-.8516846-2.1085281-1.6148682-3.2744141-2.2687531-1.1147156-.6250153-2.2787247-1.1525879-3.4580231-1.6390076-1.2172623-.5019531-2.456665-.9482574-3.706604-1.3453979-.8544235-.2718048-1.7144928-.519104-2.5767822-.7554626-1.6539993-.4534149-3.3197632-.8576202-4.9990768-1.1156006-.4035416-.0619049-.8069534-.1147766-1.2107239-.160553-.3384933-.0385895-.6758957-.0715027-1.0132599-.0850067-.0056229-.0003052-.0116654-.0054016-.0120392-.0105286z"/><path d="m84.6482849 143.300827c.3912048.049469.78582.0766754 1.1704712.0520477.4284058-.0278931.8405914-.1217194 1.2278366-.2580109.3546753-.125.6901169-.287323.9923935-.4878693.3123627-.2071228.5799255-.4588165.839653-.7170715.217804-.2164154.4269257-.4393311.6323624-.6656342-.0574265.0594482-.1171875.1166534-.1785889.1722412-.1648712.1504059-.3435745.28862-.5350266.4120789-.2292938.1483765-.4757462.2750854-.7247467.3973083-.382988.1877289-.7717438.3673706-1.1774902.5184479-.3591843.1341248-.7344666.2410736-1.116394.3276062-.4222565.0956421-.8552856.1691437-1.3060532.1605072-.4036026-.0074921-.8066101-.0783386-1.2065735-.181076.4576493.122284.9184952.2105561 1.3821564.2694245z"/><path d="m86.2825699 145.7370605c.5797424.0131683 1.1581421-.0171509 1.7092819-.1279297.913765-.1841431 1.7559738-.5636292 2.4717178-1.0683136.2145462-.1510468.4166107-.3148956.6063614-.4900818.3197861-.2953949.6058884-.6199951.8823166-.9498596.2341156-.2795868.4573898-.5672607.6711273-.8609009-.0766983.1014404-.1581116.1995544-.2411804.2954559-.2021027.2328949-.4217911.4520569-.6597977.6544647-.2855148.2424011-.5947266.461319-.9099197.6722717-.4855042.3247986-.9900894.630127-1.5247498.8916779-.4724731.230957-.9710846.4237823-1.4860916.5809021-.5163498.1578827-1.052063.2807465-1.6106873.3213654-.5946426.0428162-1.1995316-.0071411-1.8039093-.1191711.6316224.1213074 1.2653504.1855927 1.8955308.200119zm6.4465332-3.6395111c.039505-.0552826.0821228-.1072845.120903-.1631012.002739-.004364.0009232-.0105591-.0042953-.0132904-.0051651-.0030823-.0117416-.0025482-.0140915.0018921-.0600281.1109772-.1316147.2158356-.2082443.316925.0350189-.0477599.0718154-.0940246.1057281-.1424255z"/><path d="m89.7017593 147.4969177c.4775162-.0279999.9460983-.0927277 1.3948364-.2116241.9228821-.2444305 1.7567291-.6936035 2.4573212-1.2563171.2125015-.1706238.4140167-.353302.600441-.5476379.2621994-.272995.499527-.564743.7296295-.8618622.2598648-.3350525.5070114-.6790161.7434387-1.0292206-.0785065.1099854-.1620026.2158508-.2465591.3207245-.2204437.2729187-.4630508.5302734-.7256241.7686615-.2439117.2210693-.5025253.4280853-.7674103.6288605-.4843826.3671417-.9866257.7172699-1.5237885 1.0235138-.4660873.2659607-.9605942.4954071-1.4766235.6857147-.5759506.2121277-1.1813965.3770447-1.8219986.4282532-.5695496.0454559-1.151413.0008545-1.7319412-.1034698.7906342.1473997 1.5896302.1997984 2.3682785.1544035zm6.0676575-4.1141662c.0364456-.0564117.078392-.1092834.1145096-.1661377.002739-.0043488.0001526-.0107422-.0054626-.0135803-.0051651-.003067-.0115814-.0010681-.0143204.0032806-.0602264.1195526-.1316757.2334442-.2086258.343811.0376129-.0561218.0770645-.1110687.1138992-.1673736z"/><path d="m90.3955078 149.6817169c-.1506271-.0179291-.3017654-.0352478-.4522018-.0617371.1506118.0254517.3012848.0455475.4522018.0617371zm2.0845413-.0173187c.5369263-.0761871 1.055397-.2051392 1.541214-.3989716.8926163-.3558502 1.6725845-.901062 2.3309555-1.5346527.2143631-.2064667.4161301-.4250488.6029587-.6537933.2636566-.3236847.4986115-.6674347.7279587-1.0140076.2104187-.3178253.4172287-.6383362.6136551-.9646759.0870438-.1445312.1691818-.2913666.2543869-.4370728.0355225-.0605927.0748138-.1195374.1096039-.1806641.0023575-.0044403-.0004044-.0097961-.0056305-.0125427-.0052185-.0027161-.0122986-.0016022-.0143127.0032959-.1229782.2740479-.2905731.5262756-.4617081.772934-.1817169.2616577-.3772583.5137787-.589119.754303-.3133774.3548737-.6591187.6848145-1.0119553 1.0061798-.4597473.4192657-.9348679.8260956-1.4485779 1.1917114-.46315.3292694-.9568481.625061-1.4805603.8767548-.6336746.304245-1.3047867.5381012-2.0441895.6158905-.3971329.0417938-.8024902.0351868-1.2092209-.00737.7039109.0834809 1.4064714.0792694 2.0845414-.0173187z"/><path d="m84.4559631 138.0622406c-.0001221-.0054626.0049362-.0101929.010498-.0093689.0359344.0063934.0725479.0154877.1080246.02211.0989456.0184937.199173.0286865.2981033.0431976.2256775.0331726.4503708.0671387.6757507.097702.3523407.048172.7036209.0974884 1.0500488.2007751.2731323.0814362.5399475.187851.7983475.3114624.2502289.1195221.4917755.2575989.7170029.417511.2920685.2074432.5507889.4540405.7927475.7086182.2477036.2605133.4849625.5260773.6968918.8095398-.2066956-.2689972-.4432526-.5159302-.725853-.7236176-.3195343-.235321-.6805801-.4135284-1.0355988-.5911255-.2655334-.1328125-.5336609-.2609406-.8044739-.3818512-.2216187-.0992737-.4449539-.1921539-.6675186-.2887878-.26017-.1128998-.5186768-.2339935-.783226-.3354492-.2084198-.0796967-.4215317-.1444244-.6368561-.1942291-.1603088-.0366669-.3221893-.0715942-.4832153-.0766449-.0059431-.0009308-.010948-.0045013-.0106734-.0098419z"/><path d="m88.1578445 137.2164459c.0016327-.0049744.007988-.0066528.0133286-.0046082.0390625.0186768.0770111.0392303.1160812.0578918.1070251.0513458.2183075.0965424.3266373.1449585.2244797.1009369.4484482.2024689.673439.3028107.3343582.1497345.6703873.2991638.9859009.48703.3132858.1865845.6074905.4029541.8797379.6394196.279686.2429657.5378571.5083008.7550735.7983551.2135086.2855377.3839569.5938416.5344009.9054718.1666946.3458405.3111572.6962433.4148331 1.055603-.0955429-.3152771-.2281952-.6217651-.4184799-.9105377-.2522278-.3825073-.5939941-.7160187-.9357376-1.0372925-.2417755-.2271118-.4887543-.4472351-.7444992-.6609039-.2909851-.2432709-.5928116-.474823-.8897171-.7116394-.2059326-.1642914-.4129181-.3295746-.6312637-.4800415-.1885223-.129776-.3843231-.247345-.5875168-.3545074-.1569672-.0827637-.3158798-.1634979-.4842453-.2188873-.0057297-.0021362-.0095444-.0084686-.0079728-.0131226z"/><path d="m92.6481094 137.4336548c.0030746-.0039215.009201-.0041962.0139236-.0008698.0352478.0270691.0693207.056366.1040649.0840302.095253.0761108.1965942.1472473.2937927.2213135.2020187.1536102.4020309.3096008.60215.4649048.3108063.2409821.6215057.4826508.8970718.7580414.2668457.2667694.5028152.5585938.7086868.8634491.2042542.3023071.3786774.6184387.5076828.9470367.1400452.3575745.2198563.7264709.2745819 1.0927582.0566711.3815002.0861206.7609253.0770035 1.1383514.0039978-.3463287-.032753-.6937714-.1389847-1.0401001-.1209793-.3945618-.3252487-.7705841-.5405655-1.1385498-.171669-.2935028-.3540421-.5835571-.5510864-.8657227-.2462692-.3522797-.5100555-.6941376-.7723999-1.0374451-.1562958-.2048492-.3154297-.409668-.4880142-.6041718-.1586761-.1781158-.3301849-.3471832-.5118103-.5065308-.1487122-.1303406-.3017807-.2588806-.473587-.3622131-.0047225-.0033263-.0056456-.0100249-.00251-.0142821z"/><path d="m96.9277496 138.3583679c.0041885-.0032806.012146-.0023804.016304.0018768.0294266.0353394.0557404.0724182.0846634.1083527.0800247.0996552.1649017.1969147.2448654.2969055.16259.203537.321106.4096527.477005.6169128.2270279.3018341.4466858.6090393.6180649.936264.1704941.3252258.2991409.6634369.392746 1.005188.0968018.3518982.1554565.7090912.163353 1.0619659.0077896.3510437-.0367203.6948853-.0895691 1.0352325-.0574036.3679657-.1268768.7329407-.2180328 1.0918274.0781784-.3268585.129837-.6599426.1285858-1.0039825-.0007477-.4208527-.0833054-.8468781-.1730652-1.2685852-.0645752-.3040009-.1381149-.6076965-.2262497-.9089203-.1158066-.3939972-.2534485-.7833405-.3971481-1.1727448-.0907364-.2461243-.1841888-.4929199-.3006668-.7328491-.1032104-.2121735-.2240448-.4183044-.3619308-.6167908-.1061096-.1528473-.2186661-.3058777-.3583069-.4371948-.0041581-.0042723-.0048066-.0101774-.0006181-.0134581z"/></g><circle cx="141.109" cy="163.633" fill="#fff" r="2.021"/><circle cx="80.607" cy="163.496" fill="#fff" r="2.021"/></g></svg>