<svg id="Слой_1" enable-background="new 0 0 230.3999939 230.3999939" height="512" viewBox="0 0 230.3999939 230.3999939" width="512" xmlns="http://www.w3.org/2000/svg"><path d="m114.6706848 143.6059418c-.2451782-1.1277924-.745636-2.2267761-1.0956573-3.3538208-.0052872-.0359497-.010788-.0718689-.0162582-.1077728l.0007477.0577393c-.0151825-.0495758-.0300064-.0992432-.044548-.148941.0096207-.0037689.0188828-.0082855.0281143-.0128784.005455.0346527.0104065.0693817.015686.1040802l-.0014191-.1111908c.3252487-.1797485.4167557-.8714752.5244675-1.2823334.1334152-.5068207-.0851212-2.4474945-.1464462-2.9428101-.4516296-3.6121979-.8833084-7.0748901-.8833084-10.7399979l-.4105377 4.5997696c-.7897873-7.8317108-1.5769196-15.8400345-4.8107681-23.0547791-3.2340775-7.215271-8.1301498-13.5219727-13.1245728-19.6715927-.4137955-.5095139-1.2398682-.2392273-1.2683563.4165268-.0764694 1.7602234-.3393478 4.0190506-.2610474 4.7469788.2863922 2.6624603.9323654 5.2870026 1.9109879 7.77948.534729 1.3619232 1.1911545 2.6063309 1.9237671 3.783165-1.1551361-1.3379517-2.2699356-2.659523-3.2746506-3.9662857-.9944077-1.2933807-1.9985733-2.5970993-3.2395172-3.6562576-3.0250931-2.581955-7.1691971-3.742218-10.6609116-5.5521851-3.6408234-1.8872452-6.9880371-4.1891861-10.4799728-6.3252411-.8831482-.5398026-2.123764-1.8018875-2.3539505-1.6178589-.3632889.290596.3077011.8779297.4413452 1.3241806.1607132.5352097.341362 1.0681.4414291 1.6178665.3968735 2.1829605.7031097 2.9857559 2.3539581 4.7079086 4.3786774 4.5705948 8.9932251 8.5246048 14.2935867 11.9916 9.3193054 6.0958252 16.3381271 13.9856873 21.924881 23.1821823-1.4557724-.9455566-3.26194-1.6839447-4.5865479-2.5121765-7.8240051-4.8896255-17.3985062-7.0449829-26.4826126-7.6499557-2.2557297-.1510468-7.5479736-1.2367783-9.5630112-2.2074966-1.2995834-.625679-2.4494896-1.5465546-3.531002-2.5011673-.3389854-.2990417-.5932388-1.3770981-.8826942-1.0297623-.4093704.4914932-.0133362 1.2935333.147068 1.9130707.1874733.7230453.5269928 1.4024048.8827705 2.0595093 1.047699 1.9345322 2.1545868 3.9587784 3.8252029 5.443222 2.4323883 2.1622543 5.1771545 4.5131378 8.2389755 5.7384186 2.2182312.8871384 4.7625732 1.268219 7.0615387 1.9123001 3.1598053.8848419 6.347229 2.0863419 9.4165649 3.2364883 5.0536957 1.8954163 8.8683167 3.2901611 12.946701 6.91539 1.3173065 1.1708374 2.60009 1.9790039 3.5309296 3.5309143 1.4537735 2.4237213 3.0172043 5.960022 5.0023346 7.944397.3197479.3197327.5781403.9109039 1.0297699.8825378.5581818-.0345154 1.0496826-.542099 1.324173-1.0297699.4117585-.7314606.0191651-3.646698-.1472091-4.4134521zm-2.5962295-11.1572266c.0339203.1305389.0671387.2605591.100502.3907318-.0360108-.1298523-.0694351-.2601166-.100502-.3907318z" fill="#989302"/><g><path d="m101.0831528 53.0979576c-1.1979446-1.4787827-1.0741196-4.1623611-.7555618-5.8657837.4047623-2.1644058 1.5538254-4.4072723 3.6964111-5.2766037 2.3543243-.9551125 6.0832138.9216919 7.9187012 2.3548622.7767334.6064415 1.462822 1.8513184 1.7928848 2.7671585 1.1967163 3.3236237-3.0731125 8.0827637-3.5276031 11.4911957-.4030151 3.0259857.9490738 4.0257492 2.3805466 6.2923813.5007858.7940445.2407227.9320374.6790848 1.8379364.3604889.7455902.7057419.6749191.8246078 1.4881897.1993027 1.3602371-.3338776 2.5164795-.8226929 3.7177811-1.0783997 2.6548386-2.903717 4.3534164-4.7292023 6.6213226-1.5749969 1.9567032-2.3539276.9228287-3.6530914-.7826004-1.0883484-1.4286957-2.3932266-2.9267654-3.313942-4.4443512-.5659409-.9328156-.9184265-2.5182953-.8669434-3.5990295.0884933-1.8706894.4466705-3.6261673 1.2650757-5.3300552 1.2808685-2.6667252 2.7368698-5.068924 3.2525635-8.023365.0147934-.0847397.0292664-.1739502.0006332-.2550697-.0360107-.1020584-.1316757-.1689568-.2217712-.2289238-1.0990753-.7315521-2.198143-1.4631042-3.2972107-2.1946564-.2388992-.1590081-.4451752-.3515016-.6224899-.5703889z" fill="#f85040"/></g><path d="m164.952774 31.9352856c.8267975.7168713-.8426819 4.6326008-1.2287445 5.4128284-.4472198.9013329-.8369141 2.1234283-1.7715149 2.6912613-3.2798157 1.9918785-8.5510101 1.9604416-11.08078-1.0502625-1.7874756-2.1273193 2.3994598-6.393074 2.3994598-6.393074-.0945587.025177-.1869965.0534286-.2773285.0857697 1.5213013-1.698967 5.0813751-2.5940781 7.0580444-2.2593613 1.188797.2024918.8312683.5411797 1.9167786 1.0206738.6633759.2931366 1.3865051.4895306 2.1143799.571188.289856.0322418.6555176-.2646886.8697052-.0790234z" fill="#ff776d"/><path d="m151.0288696 19.6282921c1.8194733 1.7508411 4.8540344 5.0891762 3.0820923 7.7306538-1.4692841 2.1923542-5.3930511 1.7468052-7.6362152 1.1668186-.3627014-.0931339-.6798553-.3573551-1.0565491-.375494-.5379791-.0253315-1.103241.4599743-1.5944061.2503643-1.2516022-.5344944-1.4562988-2.272316-1.6421204-3.5496922-.3616638-2.4896049 1.8775177-5.1625519 3.7523651-6.6465988.5253448-.4157314 1.838501-1.4388065 2.5282593-1.5059662 1.4792786-.1431713 1.7878723 2.1801491 2.5665741 2.9299145z" fill="#f85040"/><path d="m140.9621887 59.4124527c.0946655 1.3737068-.7238922 2.5089149-1.0135803 3.7871742-.6540222 2.8806267-2.2428131 5.8455238-4.9229584 7.5354118-2.3415985 1.4779358-3.9035034 2.6379471-6.7759857 1.8119965-.8006744-.2299194-1.5606689-.2581558-2.2082977-.8436584-1.5714645-1.4184494-.4190979-4.3067703-.8844528-6.0734024-.7172546-2.7126808-3.7245102-3.9172859-4.3514404-6.6623077-.5255356-2.2997475.3433914-4.0560188.2745132-6.2400703-.0747223-2.3994942-.9275894-4.5166054-1.9374466-6.7211075l2.0002289 1.9269257c1.7846909-1.630497 4.8053131-1.4466858 7.0531845-.8127937 5.9720001 1.684326 12.327713 5.9123915 12.7662353 12.2918318z" fill="#f85040"/><g><path d="m88.207222 32.7332687c-.1347198-.1777992-.2467041-.3659592-.3200378-.571373-.1361313-.3813171-.1201859-.7983398-.1932831-1.1966496-.313385-1.7075348-2.3465729-3.3563118-3.8361282-4.0640469-1.1697311-.5557766-2.2669525-.8812313-3.0016403-2.0567627-.315239-.5043926-.7548141-2.3161755-1.6167068-2.1124744-.3591614.0848866-2.2063141 3.3821373-2.5307846 3.9007225-2.7303314 4.3555794-1.3584213 8.4664745.6024704 12.7500935.2562561.5594826 1.9588013 2.8948784 2.5250397 3.1117935 1.0718231.410862 2.6503754-.1763191 3.682251-.3793869 1.5122528-.2978668 2.9465179-.2256927 4.2912369-1.2265282 1.3520355-1.0062752 2.7142563-2.4432755 2.6744232-4.2454643-.018837-.852047-.3654556-1.6462364-.8372955-2.3423767-.3800967-.5607719-1.0200503-1.013935-1.4395449-1.5675468z" fill="#f85040"/></g><g><path d="m78.2404861 37.0004845c-1.8937607-1.4631805-3.9967346-1.1680145-6.2668228-1.4503632-.3720779-.0463104-.7718811-.3488083-1.1093674-.1855545-.5508499.2664337-.1162262 1.5104561-.1089706 1.7944031.0467606 1.844738-.7094421 5.3317986 1.1963043 6.600647 1.0222092.680584 2.4142532.0596504 3.5045395.1313667.9342422.0614471 2.250206.9693985 3.1568604.5544243 1.0599518-.4850311 1.2103729-1.3842888 1.4846497-2.3750191.5764999-2.0796738-.2221223-3.8063507-1.8571931-5.0699043z" fill="#f85040"/></g><g><path d="m78.7409973 44.4470863c-.969841-.4034386-1.7108002-1.181736-2.6728592-1.5743294-2.8835297-1.1765976-5.042511.0967674-5.599144 3.0908775-.0731812.3933601-.0959702.7959099-.1012115 1.1959457-.0126266.9642944 1.252655 2.7978668 1.0667419 3.4346771-.1933441.6623764-.9634094 1.0076027-1.3038025 1.6077995-.8122559 1.4320908-.61763 4.0801964.0982208 5.5600243.4992599 1.0320969 1.4385147 1.054451 2.2007294 1.7391739.8674088.7792702 1.8203278 1.8875465 2.3559875 2.9384766 1.0222931 2.0056877.1837845 5.535778 2.3902435 6.8727837.6825027.413765 1.0207367.3560333 1.6280289-.23526 1.4676971-1.4299088 2.1852875-3.7536469 3.490509-5.3419304.4776535-.5814095 1.1179657-1.0765839 1.3914948-1.7776794 1.3826523-3.5449066 3.1880569-7.4353218 2.2850952-11.2585068-.2634277-1.1176834-.2181702-2.1303062-1.0721054-3.0072136-.7953262-.8160362-1.9371948-1.3464317-2.8827209-1.9191284-.9062271-.5494041-.241539-.57864-1.3567886-.872982-.6346817-.1676063-1.3115082-.2003174-1.9184189-.4527283z" fill="#f85040"/></g><g><path d="m112.1343689 35.0267143c.1927719-.8166542.4863358-1.8264847.4569778-2.667305-.0954742-2.7741051-3.3903503-5.0983543-5.6182022-6.1236858-1.7885895-.8231659-3.6387482-1.3496933-5.361496-2.3396091-2.1333847-1.2258797-4.0535812-2.7793007-6.0905533-4.1418037-.4017715-.2687721-.6311646-.9599247-1.1137924-.9291439-.2081528.0132713-1.6632309 2.7484074-1.869339 3.0709286-1.7617188 2.7647953-4.3357773 4.6759262-5.7288055 7.7338181-1.5475235 3.3954887-.9391403 7.8401184 1.1249924 10.7782707.6663513.9491158 1.0758667 2.0799065 1.9319534 2.909687 4.3751678 4.2422523 13.5533447 2.3937607 16.0798111-3.0959396" fill="#ff776d"/></g><g><path d="m91.3309631 38.9049644c-2.2091064-.7685776-4.4691467.1419067-6.6232376.7575111-1.6486511.4711533-3.4434738.7606773-5.1474152.9174652-.7268906.0668945-3.5836792-.0505829-3.9436646.3000908-.396553.3863029.227066 3.2606468.3019333 3.8028984.2044754 1.4777069.5953217 3.1620178 1.5605621 4.3821373.3095093.3906708 1.0163651.6313705 1.3957748.8624458 1.3876343.8444366 3.1138458 1.4894447 4.3282471 2.5893364 1.0163956.9210091 1.2925797 2.4020157 2.7013855 3.2010994 2.1158371 1.2001419 4.7225571.1113586 6.8288498-.4030113 2.3745575-.5796547 5.0685043-1.4652634 6.8664703-3.2165184.4892349-.4766617.7752762-1.0860214 1.2170334-1.6021576 1.5225525-1.7793159 2.7891922-3.5045471 2.8211212-5.9427757.0162354-1.239872-1.1235504-2.395237-1.6427689-3.4687271" fill="#ff776d"/></g><g><path d="m85.2658234 47.2714844c-.8306427.7018089-1.7046204 1.007328-2.4381332 1.8482056-1.5191422 1.7415085-2.1088257 5.6414757-1.1359177 7.7620087.5363617 1.1688271.8162842 1.9617081.7319336 3.3425751-.0713577 1.1722527-.6309586 2.3480148-.7355881 3.4941902-.1942139 2.1425514.973732 4.4809914 2.5959549 5.8453331 1.0950241.920723 1.9236908.9394302 3.2604065 1.1536942.9827423.1575089 1.2333603.4079742 2.23526.456543 2.4347916.1181335 4.8796768-.5347748 7.2530518-.9305038 1.8045883-.3009186 3.4824753-.4077759 5.2584-.0166473 1.0229187.2252274 2.5052261 1.2257004 3.6102066.8164062 1.0496292-.3890076 2.7706985-3.2937393 3.4167633-4.2282181 3.2692719-4.7268372 3.9231186-10.248085 3.4830704-15.8501053-.2696304-3.4319382-.3814468-7.2253189-2.8018875-9.8646393-.4288559-.467968-.6103897-1.1474037-1.099823-1.5526772-.4349442-.3594933-1.0511093-.424942-1.5421906-.7038231" fill="#ff9593"/></g><g><path d="m119.0753555 36.7782364c-3.6298447-.021389-3.781044-5.1756191-2.9742508-7.9134731.439476-1.4926281 1.5879517-2.8593349 2.1113739-4.3706131.2578201-.7445908.6224518-2.7132053 1.320549-3.3135643.816452-.7020626 2.3133316-.1063766 3.0911789.1271763 1.0087051.3030682 1.7826843.2583847 2.7929535.4253769 1.3390579.2213268 2.2716904 1.2661476 3.4677887 1.7089043 1.4257812.5276661 2.7517853 1.1368313 3.6126404 2.5266438 1.2229919 1.9744396 2.6928253 6.9705486 1.7990875 9.3219814-.534317 1.4053497-1.9056396 2.3984528-2.8952789 3.4948807-2.8968658 3.2098961-8.4987946 4.6705437-11.8548355 1.6710892-1.4473343-1.2936287-2.1155167-3.2126617-2.5101852-5.0245285" fill="#ff776d"/></g><g><path d="m137.4235992 39.9134636c-.0557251-.5734634-.1190491-1.6135597-.4004364-2.0577278-1.0397339-1.6399384-5.5999908-3.0335197-7.4102631-2.3204727-.9189148.3622437-3.1184692 1.7146912-3.8786163 2.3436699-.8579636.7102051-1.3913269 1.6479454-2.3389053 2.2783585-.8453674.5625763-1.8039627.8136139-2.6685715 1.3333511-1.972641 1.1859093-2.6121521 3.5393944-1.6121521 5.5376282.1841202.3675499.3756714.7488327.6713257 1.0350342.9410706.9123306 3.0716705.9285011 4.2600174 1.1675034 1.5788879.3174019 3.1773834.9419975 4.5085068 1.8549461 1.997818 1.370079 3.7984619 6.3960457 6.5931702 5.9015808 1.7188416-.3041611 2.6813049-2.0719948 2.5274353-3.6441879-.2264404-2.3130188-2.8995514-3.8908539-3.1668396-6.2843208-.2584534-2.3124466 2.0930939-4.0436554 2.5598907-6.1238518.012146-.0548439-.1438751-1.6947136-.14711-1.7977562-.0509186-1.4624367-.7742157-2.3686409-2.0988464-3.0206566-.9310303-.4584618-.5454559-.3491974-1.5348816-.3621559" fill="#ff776d"/></g><g><path d="m131.9247742 41.8938637c2.4112854-.7076149 6.1673126-.4962387 7.8175659-2.7196999 1.2307129-1.6581993.2136383-3.9229889 1.7805176-5.3643951 1.4944-1.3747025 5.1751251-2.8000832 5.7060394-4.7142792.3454285-1.2470627-.1441956-2.4860916-.3791656-3.6822796-.3977509-2.0203476-1.5492706-4.2688389-3.2153778-5.5292873-1.4083862-1.0654602-3.1347809-1.5586624-4.7694855-2.1577549-1.7384796-.6371231-3.3278809-1.331049-5.2395477-1.2090454-1.2320557.0786304-2.9523315.3294163-3.1886749 1.8397312-.1718445 1.0996513.5667114 2.1651402 1.0119476 3.1100445.4714508 1.0005913.726532 1.9913979.7315216 3.1041851.0108337 2.4125462-1.0253754 4.5879402-2.7195435 6.2632122-1.6056366 1.5877361-3.5261841 3.3307247-2.3415146 5.7800274.5963593 1.2331886 1.0347824 1.5529518 2.2840347 1.9112892z" fill="#ff776d"/></g><g><path d="m143.3677216 30.0488987c3.2564545-3.9596157 10.3705902-4.6533031 15.1552582-4.0893764.400589.0472145.8152924.1104984 1.1506805.3346138.8792419.5875378.7819061 1.9068851.447052 2.9099503-.7749176 2.3213177-2.2717285 4.3886871-2.7556 6.7876205-.1175995.5830383-.1456757 1.2646484.2686462 1.6913795.5485535.5649796 1.4725342.3406563 2.2585907.2933693 1.9418945-.1168251 3.8635101 1.3119774 4.3108215 3.2052612.5167084 2.1871033-.7562408 4.587719.0690613 6.6780014.8859253 2.2438126 3.8200378 3.1556358 4.6784821 5.4101067.8690491 2.2823677-.9981079 4.9086151-3.3388062 5.6054382-2.3407135.6968231-4.8717651-.0592842-7.0616455-1.1404228-2.1898956-1.0811386-4.2331238-2.4961662-6.5595398-3.2393036-3.2945709-1.0524025-6.8706055-.6708336-10.2726746-1.2935143-3.1095886-.5691452-6.2089539-2.1358757-7.7854919-4.8759384-2.8830109-5.0107269.8106537-9.4804382 4.4868774-12.6122932 1.5901337-1.3550148 2.9339294-2.7481461 4.3324432-4.3046589" fill="#ff9593"/></g><g><path d="m135.1098633 50.1026154c-.51828 3.1602325 2.2246246 6.1558037 2.5707092 9.3979034.2734222 2.5638885-.9661865 4.669693 1.7955017 6.5229416 3.002594 2.0145569 6.4983368 1.2168503 9.8098297 1.9243698 2.5913086.5537186 5.21138 1.0627899 7.7582245 1.8119431.5911713.1738205 2.1304779.8381653 2.5664825-.0519409.1166382-.2390594.1134186-2.1469879.1166382-2.3929367.0364075-2.7794647-1.8320465-5.0694962-2.7223663-7.6467972-1.0437164-3.024437-1.5183716-6.1623268-3.735321-8.6007538-2.3859253-2.6240082-9.7189636-4.2675858-13.1198578-3.8491669-1.3261719.1632614-4.8245392 1.567791-5.0398407 2.8844376z" fill="#ff776d"/></g><path d="m101.3855667 50.877636c.9205551-1.2850571 1.8924866-2.528244 2.9469147-3.7063599.1703339-.1908264.1562653-.4849319-.0344391-.6557426-.1496124-.1339226-.3619537-.1514816-.5291977-.0611725-.0343781-.0492096-.077446-.0923843-.1287689-.1253242-.050766-.0325966-.1063766-.0544586-.1696167-.065506-2.1129379-.3647881-4.2469635-.5695152-6.3844986-.7172623-1.2392807-.0858269-2.4780807-.1563301-3.7178421-.2340889-.4110107-.0256348-.8245697-.0456696-1.2355423-.0757675-.5589752-.0409317-1.117775-.0953331-1.676239-.1415024-.3784866-.0311203-.75811-.0530396-1.136116-.0936966-.3199921-.0344048-.6392441-.0832176-.9580688-.1253548-.3818588-.0504036-.7642517-.1019402-1.1465225-.1532974.0440521-.197876.0846786-.3967705.1310043-.5936699.0447617-.1864929-.0316391-.3728294-.1773224-.4798164-.0481186-.0354195-.1032791-.0623741-.1652145-.0769768-.2490768-.0592117-.4990921.0957336-.5581284.3448181-.0591736.2470741-.1115341.4967575-.1793289.741909-.1593857.0635071-.2809219.2088966-.3053589.3908882-.014595.1109314.0097885.2178688.0618362.3078918-.0763016.2086678-.1486435.4186172-.2215576.6283989-.0876312.2555656.0495987.5345345.3049774.6216927.2560501.087574.5348587-.0492287.6218643-.3052559.0704498-.2094841.1453323-.4189606.2168427-.6294212.4584503.0605545.916687.1212883 1.3756638.181427.2978973.039196.595993.0854149.894783.1173134.3860168.0409775.775589.0615273 1.1621857.0927658.5622635.0458946 1.1230774.097084 1.6852493.1358109.4738617.0328979.9481812.056221 1.4219742.0833397 1.6481857.0943375 3.2998734.1727867 4.9461517.3024445 1.2955856.1021385 2.5871582.2390366 3.8717728.4293213-2.6072922 1.1386337-5.1022034 2.5184402-7.6889648 3.7039032-.4060364.1863518-.8159332.3627625-1.235878.5157928-.7432175.2705231-1.5061798.4878349-2.2238235.824192-.4814835.225174-.9289169.507-1.3408051.8408546-.103241-.0157471-.2090225-.0200539-.3137207-.0274963-.1726913-.0121536-.3443756-.0303192-.5160599-.0528679-.2536697-.0342178-.4871368.1424675-.521553.3958931-.033783.2538452.1424637.4875946.3961258.5217857.1710358.0236168.344696.0444756.5161209.0615845.0762711.0076637.1680984.0136948.2480011.0316162.1483536.2024078.2971573.4040756.4558487.598629.1719818.2083435.4827728.2370338.6907883.064682.2086411-.171875.2380676-.4788551.0660934-.6871986-.0783234-.0934563-.1541901-.1888847-.2294235-.284668.2522125-.1893997.5185089-.357235.8016357-.500782.6728973-.3405762 1.4032516-.5508156 2.1113892-.8029556.5116577-.1819725 1.0085754-.393013 1.5008621-.6214905 2.3364182-1.0833549 4.5880814-2.3395767 6.9287415-3.4136467.1623383-.0743332.3250732-.1473808.4881897-.2193069-.4105911.5022163-.809967 1.0136337-1.1983719 1.5335503-2.5273132 3.3822632-4.6649323 7.0389404-7.2636566 10.3694-.0786667-.0077248-.1581192-.0113792-.2371292-.0173187-.1721649-.0130081-.3427048-.0344887-.5134964-.0570412-.2536087-.0342751-.4870834.1453285-.5208969.3992462-.0344162.2534256.1431198.4850578.3967514.5193214.1692352.0235863.3371964.0462875.5064163.0640297.0905838.0095291.1892624.014801.279335.0368614.0033264.0034142.0072784.005867.0105591.0093765.0088425.0092278.0158005.0200043.0245209.0294189.0131607.0140038.0271912.0280647.03965.041729.0347824.0377922.0690155.0750465.1038437.1127701.1107635.1207352.2238693.2376633.3403625.3535576.1927795.1894836.5027771.1872063.6924591-.0054703.1889877-.1929932.1864395-.5027046-.0056686-.6918411-.0944443-.0916977-.185997-.1854362-.2773895-.2793922.8182831-1.0554543 1.5954361-2.1424179 2.3479767-3.2455559 1.418884-2.0790787 2.7582013-4.2118149 4.2237088-6.2589683z" fill="#69351b"/><path d="m152.1589813 44.3351517c-.1695099-.3963318-.1972504-.8421669-.2274475-1.2667236-.0206146-.2694778-.2556458-.4731255-.5249329-.4527168-.0671082.0051231-.1313934.0249634-.1880493.0541611-.1698914.0875435-.2793274.2711716-.2636719.473217.0117493.1440506.025238.2876167.0430145.4303856-1.9724884-.0909843-3.9452515-.1688538-5.9195099-.1791039-2.7270813-.0139656-5.4556274.0966301-8.1627655.430191.9835052-1.1426315 2.1490631-2.1258011 3.3298187-3.0579758 2.2214661-1.7539406 4.5991211-3.313961 6.6865082-5.232193.1034393.0973587.2094574.1921463.3123016.2885895.1861572.1754837.4795685.165432.6552734-.0207901.1756897-.1862221.1685638-.477932-.0176086-.653492-.2102814-.199234-.4514465-.3937607-.5989685-.647438-.0954895-.1641045-.1418152-.3473244-.1758423-.5326233-.0509186-.2654991-.3082733-.4386749-.5739288-.3874626-.2648926.0510712-.4386139.3082542-.3869324.5735512.0415955.2087708.0969391.412571.1842499.6046867-1.0579987.981308-2.1983795 1.8629799-3.3491821 2.7318306-1.3002777.9816246-2.6143341 1.9443169-3.8727112 2.9792938-1.3354187 1.0981941-2.6281891 2.2816887-3.6409912 3.6920166-.0987396.137661-.109375.3107262-.0459137.4556656-.0074158.1632614.0701904.3249245.2204437.4156418.8572083.5179977 1.8398285.7606583 2.7225494 1.2266426.5898285.3115005 1.168045.6488724 1.7462463.9807739 1.0906067.625061 2.1698151 1.2687187 3.2274628 1.9479065.543808.3491135 1.0943909.6912651 1.5780487 1.1222534.4826202.4302292.9188385.9101715 1.4027252 1.3392105.3586121.3177605.738739.5978928 1.1582947.828125-.0611877.1582031-.1131897.3203049-.1566467.485527-.0652161.2472763.0824585.5014648.3299713.5669403.2474823.0654144.499527-.0819435.564743-.3292198.0429077-.1604958.0954132-.3186417.1663666-.4691734.1660919-.3521614.4252625-.6500282.6986237-.9223099.1909485-.1919479.1900635-.5031433-.0014496-.693718-.1439972-.1427917-.3524628-.177887-.5293579-.1055031-.0589905.0240631-.1139832.061306-.1617279.1092987-.1560669.1589355-.3058929.3234978-.4398193.500988-.164856-.090168-.3249664-.187439-.4778748-.2976379-.6497803-.4675903-1.1819153-1.0782013-1.7700348-1.6172981-.2279968-.2097893-.466156-.4104004-.7177887-.5914154-.3637695-.260994-.7457733-.4993401-1.1241302-.7390404-1.1156769-.7082901-2.2582855-1.3746071-3.4095917-2.0242653-.5471649-.3093376-1.0943756-.6241608-1.6515656-.915863-.3079224-.1614037-.6227112-.3027229-.9452057-.4321136-.2337189-.0936775-.4694214-.1817741-.7029572-.274353 1.1441193-.1380615 2.291748-.2366714 3.443634-.2965126 3.5470428-.1844444 7.1043091-.0396996 10.6488037.1315498.1135559.2764549.2647705.5350952.4414368.7772522.1504517.2070961.439743.2531166.6465302.1030083.2075195-.1503525.25354-.4398918.1030884-.6469688-.1053923-.1460992-.201721-.2968789-.2735289-.4627953z" fill="#69351b"/><path d="m122.9340286 124.1563034c-.057045.6577682-.0989914 1.3172226-.1300354 1.9766617-.2248535 4.7805786.1359177 9.5888214-.311264 14.3542938-.1157837 1.2316437.3381042 3.3358307-.1468201 4.4424591-.5361176 1.2240906-2.961647 2.1201324-4.2671051 2.2208099-1.82061.1409454-1.6335144-.1585693-2.9423523-1.1754303-.0721512-.0562134-.1409454-.1115723-.2055435-.1661224-1.4346848-1.2131805-1.0680389-2.0882416-1.2652054-4.0145569-.1031952-1.0067902-.1954803-2.0144196-.2785416-3.0228882-.2097473-2.5648041-.3565674-5.1346283-.4522171-7.7052917-.0276794-.7223816-.0503387-1.4455872-.0696335-2.1679535-.026001-.9816284-.045311-1.9640808-.0587311-2.945694-.0041962-.3087463-.0083923-.6183395-.0109024-.9270935-.0084-.8557663-.0125961-1.7115326-.0125961-2.5673065 0-.4236832.005043-.8473816.0151062-1.2702332.0377579-1.6041489.1384354-3.2041016.2475128-4.8032227.1275253-1.8927689.2667923-3.7855225.3255157-5.6850052.0520248-1.7081833.1006851-3.4172058.1451416-5.1253891.237442-8.9990158.3825836-18.0005417.4815903-27.001236.0453033-4.1068497-.1359177-8.3462753-.2491837-12.599968 2.4666443.6552505 4.9735336 1.1368256 7.281601.7039185.1619263-.0302048.3741837-.0746689.6216965-.1325684-.0008392.0822296-.0016785.1636124-.0016785.2450027-.0184555 6.777359.6552429 13.4515228 1.2559738 20.1970215.2416229 2.7032242.294487 5.4223862.294487 8.1457443v.0117569c0 .5394669-.0016785 1.0797729-.0050354 1.6192474-.016777 2.9935226-.0662842 5.9895554.0327072 8.9713287.0730057 2.1914444.1233368 4.3778534.1350861 6.5609055 0 0-.0008392 0 0 .0008392.0209733 3.9583514-.0872573 7.9058078-.429573 11.8599704z" fill="#6e6700"/><g><path d="m115.7333069 132.652298c0-12.3622437-3.9283905-24.4040451-6.0320969-36.4870453-.4348221-2.50383-1.4423828-4.9487-1.3778839-7.4785919.0832672-3.2614517 2.0533905-6.683075 1.5824661-9.8092651-.464035-3.080452-3.2571487-5.6608582-5.0596924-8.0174026-.6371689-.8336945-1.298111-1.6502914-1.9122849-2.501091-.3212814-.4444885-.9699554.1925354-1.0297623 1.0298386-.0383377.5381088.1058121 1.0894089-.0000076 1.6184158-.6218262 3.1071243-1.7384491 6.0224152-1.822319 9.237587-.0602722 2.3104324.8199463 4.734993 1.9695435 6.6520081 1.2850876 2.1423187 2.9681244 3.1858749 3.3837128 5.8849182 1.0040665 6.5253067.4234009 13.3100281 1.1588669 19.8978271.315773 2.8284302 2.5695801 24.4906998 6.3446274 24.2390518.5198669-.0345154.7705841-.7245941 1.029747-1.1769867.338913-.5926971.5643463-1.2513428.7353287-1.9122925.4769211-1.839447.9063034-3.45961 1.471405-5.2967682z" fill="#414c00"/></g><path d="m162.4152222 74.2675629c-.1341858-.4937973-.9761047.3105316-1.4714355.4408875-1.6362457.4309158-3.137558.990654-4.7078857 1.6186218-5.9816132 2.3920517-12.4466095 2.9432297-18.2629395 5.8462219-15.6608582 7.8164902-22.5570221 24.7674713-25.5795517 41.0863037-.6264343 3.382164-.4155731 7.0518799-.2944412 10.4455414.0909271 2.5491791.0124893 4.9899292.2063599 7.433075-1.5675507.5027466-2.9579849 1.3078308-3.9250641 2.4098969-1.7084656 1.9477844-3.6890182 6.9745941-1.5050354 9.2203522 2.5503769 2.6224213 14.8746796 1.2864532 17.8723755-.2914886.0015869-.0008392.0029602-.0015564.0043259-.0022736 2.2700348-1.2026672.165329-7.1365967-1.6154404-9.5406036.0590439-.3695679.1039658-.7089996.1441269-.9901276 1.3681107-9.6173401 11.883461-17.4577942 18.5374374-23.8341904 1.9650726-1.8830872 3.5299683-3.970871 5.4436951-5.8845978.6624756-.6624832 1.5810547-1.1072083 2.0595245-1.9123001.4922638-.8288651 1.0404816-1.8816299.736084-2.7956009-.1671448-.5006943-.9760895.4056091-1.471405.5888672-.4370575.1602554-.881012.2998047-1.3242035.4408798-12.2584534 3.901947-22.6276627 12.7203674-28.5417328 24.1282043-.39814.767868-.8052902 1.5322113-1.19561 2.3024445.0138931-.8162079.0631638-1.633255.1649704-2.449173 1.2510757-10.0266037 4.4064484-20.4328384 10.8469849-28.5416565 7.2136993-9.0822525 18.7912445-12.5704117 26.522522-21.038765 1.6930389-1.8548355 3.5738983-3.483429 5.296814-5.296814.384903-.4056168.7391357-.8465042 1.0297546-1.3241959.3994901-.6555786 1.2321775-1.3188171 1.0297697-2.0595092z" fill="#d6c054"/><g><path d="m110.868042 46.5845337s7.7233734-.9960251 9.8369293.902668c1.128685 1.013752 2.0791702 2.1970291 2.7676086 3.5537758.3995361.7879219.3838882 1.6919899.5297241 2.5395164.3857574 2.2473793.340126 4.5105934.6846848 6.7626152.1130219.73526.1935959 1.4470139.5352554 2.117466.2347031.4598541.9234085 1.5061646.8880768 2.0517693-.0922089 1.3974915-3.5543594 2.5961914-4.611084 2.8943176-3.6029892 1.0165482-7.9906311-.4693985-11.665741-.9266129-1.2640762-.1572647-2.9557495.166832-4.0722122-.6160812-.4710464-.3303223-1.060791-1.3700027-1.383812-1.7769241-.7089691-.8938332-.8247299-.7218056-1.2447357-1.6343231-2.7718505-6.0220337 2.2629243-13.5216179 7.7353059-15.868187" fill="#ff776d"/></g><g><path d="m102.832756 38.2572174c-.0025177.9833069-.692482 2.1528893.2728653 3.0070763.5212555.4608688 1.3769379.2005768 2.0467834.3854065 2.2404633.6190872 4.2450714 2.1564598 5.5660172 4.0177803 1.3514557 1.9043159.667923 4.6505127 2.5044785 6.3088188 2.4395676 2.2030296 8.2377548-1.1672974 8.5282593-4.1918983.2342377-2.4378281-1.2294235-4.8968506-.9740753-7.3645897.0346069-.3316498.4697266-1.7472382.6513596-2.0535851.5098724-.8590508 1.6939316-1.2568321 1.281601-2.4936104-.7120056-2.1358109-3.8848267-1.930603-5.5891342-2.3145676-1.3270645-.2990417-2.55793-1.1314087-3.9061661-1.3960609-2.8426285-.5581188-6.9660034 1.1900368-8.7852783 3.3815689-.5972444.7191544-1.5941011 1.723629-1.5967104 2.7136612z" fill="#f85040"/></g><path d="m76.8494263 151.6147003c-.5869598.7650146.00811 4.0285492.0631638 5.0155182.1099014 1.9700928.3175278 3.9378204.6056976 5.895401.5374069 3.6507568 1.473671 7.2674561 2.4022293 10.8515778 2.1793213 8.4118958 4.7466507 16.9246063 8.1392441 24.9733734 2.6269608 6.2323303 6.7556152 11.7758789 13.5451813 13.7398071 5.9649048 1.7255096 12.1847763 1.9893341 18.2951279 1.7117462 5.1028595-.2318268 11.3287659-.044754 15.9820557-2.2653046 7.5091095-3.5833282 9.584671-12.7184143 11.47789-20.0875397.8177185-3.1828613 9.3167114-40.1572723 7.0737762-40.1482086-.0125733.0000458-77.584137.313324-77.5843659.3136292z" fill="#df9568"/><g fill="#fff"><path d="m92.9852371 163.0419006c1.7073288-.7660065 3.4230652-1.5135498 5.1312561-2.2778778.2667923-.1208038.3876266-.4354248.2667923-.703064-.0897522-.200531-.2886047-.3162994-.4949951-.3121033-.0688019.0016785-.1401062.0176239-.2072296.0469971-1.704834.7718658-3.401268 1.5588226-5.1069412 2.32901-.2533798.1132812-.3657913.412796-.2517014.6653442.1132736.2533723.4094391.3657838.6628189.2516938z"/><path d="m98.2079544 156.8988037c.2751923.4740295.5679932.937149.8733826 1.3927155.9212112 1.3742828 1.9623871 2.670517 3.1193619 3.8535004 2.0874176 2.1335449 4.5834122 3.9080048 7.4015732 4.9298859 1.1662064.4220276 2.3785477.712326 3.6110153.8591461 3.4533005.41362 7.0450058-.2861023 10.1669083-1.7820282 2.8257141-1.354126 5.3149948-3.3484039 7.3990555-5.6766052.7609406-.849884 1.4724274-1.7467804 2.1209717-2.6847687.3431244-.4966736.6804047-1.002594.9673615-1.5336761.1392517-.2583923.0436096-.5822601-.214798-.7215271-.2575684-.1392822-.5789032-.0427856-.7181702.2156067-.2894592.5411682-.6418304 1.0571442-.9942169 1.5596924-.5998688.8574524-1.2526093 1.6788177-1.9506531 2.4590912-1.9892426 2.2258453-4.367775 4.1370697-7.065979 5.4349823-2.7963409 1.3457184-5.9870224 2.0186005-9.0921326 1.7568359-1.2215729-.1023407-2.4305496-.3540497-3.5917206-.7475281-2.8777466-.9732361-5.4039307-2.7787476-7.4963913-4.9575958-1.0848083-1.130127-2.0622253-2.3659515-2.9255524-3.673111-.2793884-.4228516-.5478592-.8507233-.7995605-1.2895355-.1451416-.2525177-.2877655-.5067291-.4144592-.7685089-.0906143-.187088-.2844238-.2936554-.4798965-.2835693-.0654449.0033417-.1292114.0201263-.1912918.0503235-.2500153.1208191-.3540497.4211731-.2332458.6711884.1543882.3188322.3305586.6292417.5084379.9354856z"/><path d="m104.0573959 157.147995c.4597626.5277252.9413452 1.036972 1.442215 1.5261078 1.5185852 1.4833374 3.2250748 2.8097839 5.1362991 3.7494507 1.4288101.70224 2.9809418 1.1796265 4.5775375 1.2559662 3.4465866.1644592 6.7178116-1.5236053 9.3572693-3.6026154.4606018-.3632965.9086151-.7408447 1.3423843-1.1351624.5176544-.4698181 1.0168457-.9606476 1.4942474-1.4707489.2667923-.2844086.5319061-.5755463.776062-.8784332.1837463-.2281952.147644-.5612793-.0813904-.7450104-.2282104-.1837311-.5629654-.1493378-.7466965.0788574-.2701569.336441-.5654831.6552582-.8624878.9673615-.4496841.4723511-.9178467.9279327-1.4027863 1.3633575-1.6074982 1.4439087-3.4172134 2.7208405-5.4249115 3.5422211-1.3918915.5696869-2.8919983.9136505-4.4021759.8465576-1.4564972-.0637665-2.8743896-.5017242-4.1790237-1.1376801-1.9078598-.9296112-3.6043015-2.2753601-5.0993881-3.7704163-.453064-.4530792-.8884964-.9237366-1.3054733-1.4103546-.2458191-.286087-.490799-.5764008-.7131424-.8809357-.0822144-.1116028-.2005081-.1795654-.3280334-.1988525-.127533-.0201416-.262619.0092316-.3750305.0914612-.2240219.1644287-.2718277.4790497-.1073914.703064.281891.3834229.5889741.7475434.9019166 1.1058045z"/><path d="m87.0551758 161.908493c.612442.9388275 1.447258 1.7148895 2.3651047 2.3491669.2625961.1820679.5386276.3414612.8129807.5034027-.0025177.098999-.005043.1971436-.0025177.2961578.0067139.3960114.0385895.7911682.0939713 1.1829681.2290421 1.6192627.8792648 3.2032928 2.053009 4.3677979.7693481.7626495 1.7266541 1.3054657 2.7552567 1.6335144.3523712.1124268.7114639.200531 1.0747299.2676239.0796967.0142822.1594162.0260162.2391205.0394287.0041962.0084076.0067215.0176392.0100555.0260162.0990143.2131042.2080688.4211731.3255386.6233826.3297195.5696564.724884 1.1041107 1.1771088 1.5814972 1.1955643 1.2626801 2.7510529 2.0655975 4.4785233 2.293808.7458725.0989838 1.5026474.0922699 2.2493362.0058441.15522-.0184479.3095856-.0461273.4639664-.0712891.020134.0318604.0394287.0654449.0604019.0973053.1795349.2701569.3825836.526886.6023941.7651672.6502151.7047577 1.4539719 1.2635345 2.3391113 1.6309967.3607712.1501923.7341232.2684784 1.1141891.3565674 2.3206406.5361176 4.7151184-.0713196 6.8587494-.9749146.0219345-.0092621.0425797-.0202637.0625916-.0320129 2.208046.9004974 4.6653748 1.4804077 7.0293961.8861237.3372574-.0847321.6669922-.1929779.9883118-.3246918.9346466-.3842468 1.783699-.9740601 2.4624481-1.7224579.2147827-.2374268.4110947-.490799.5872955-.7584229.0108948-.0167999.020134-.0352631.0310516-.0520325.0226288.0033569.0461273.0067139.068779.0100708.2433243.0377502.4882965.0687866.7332764.0897675.7248993.0612335 1.4573364.0494995 2.1763611-.0604095 1.7417297-.2659607 3.3039398-1.1032715 4.5020142-2.3911285.4480286-.4815674.8398285-1.0176849 1.1661835-1.589035.112442-.1946564.2156372-.3934784.3096161-.5973816.0838928-.0134125.1661072-.026825.249176-.0419464.3724976-.0687714.7424927-.1560364 1.1040955-.2701416 1.052948-.3322449 2.0379181-.8834686 2.829071-1.6595306 1.2022858-1.1804504 1.8717957-2.7896423 2.1075592-4.4391022.0570526-.3985138.0897675-.7987213.0973206-1.200592.0016785-.1015167-.0008392-.2030334-.0025177-.3045502.2835846-.1661072.5688324-.3297272.841507-.5159912.940506-.6434937 1.7979431-1.4304657 2.4280396-2.3860779.2902832-.4404755.5277252-.9136505.7047577-1.4103546.5906372-1.6620178.4144592-3.4818115-.2357635-5.0968628-.2072296-.5142975-.4538879-1.0302887-.7710266-1.4866943-.0788727-.11409-.1980133-.1845703-.3246918-.2072296-.1266937-.022644-.2617645.0041962-.3750305.0839081-.2282104.1585693-.2844086.4698334-.1258545.6972046.0981598.1375885.1812134.2902832.2617798.4379425.151001.2751923.2844086.5587616.4010162.8498993.5235291 1.3004303.7114716 2.7602844.3070831 4.1211243-.2684631.903595-.7844543 1.7115326-1.4338379 2.3886108-.5042419.5252075-1.0839691.9723969-1.6964417 1.3633575-.1006775.0637665-.2038727.127533-.3070526.1887665-.0704956.0419464-.140976.0847473-.2122803.1258545-.0780334.0444641-.212265.1015167-.2802277.1627502-.0293427.025177-.0688019.0436401-.0838928.0780487-.0536957.1191254-.0788574.2458191-.1182861.3699799-.0084076.0276947.0066986.1417847.0075378.1812286.0041962.113266.0050354.2273712.0033569.3406219-.0066986.3599396-.0377502.7190247-.0897675 1.0747528-.1820679 1.2559662-.640152 2.495163-1.4682312 3.4717407-.7265778.8574371-1.7065125 1.4539795-2.7737122 1.7878876-.351532.1099243-.7097778.1929779-1.0722198.2542267-.0654449.0108948-.1317291.0192871-.1971741.0285339-.0839081.0125732-.1937866.0150909-.2751923.0452881-.0360718.0134277-.0788574.0151062-.1073761.0419464-.0889435.0813904-.1585846.1829071-.2382812.2751923-.0159302.0184479-.0461426.1090698-.0604095.1409607-.0402679.0914307-.0830536.1837311-.1283569.2726746-.1342468.264267-.2852783.5193329-.4513855.7659912-.5579224.8297729-1.2786255 1.5563354-2.1285095 2.0865784-1.1175537.6980286-2.4221802 1.0168457-3.7335205 1.0067902-.461441-.0033569-.9228821-.0444794-1.3792877-.1149597-.0654449-.0100555-.1308899-.0201263-.1963348-.0318604-.0855789-.0142822-.1963272-.0528717-.2835693-.0469971-.0469894.0033569-.1006927-.0092316-.1409607.0159302-.1283722.0771942-.2332458.186264-.3490143.2802429 0 0-.0058823.0083771-.0084.0134125-.0041962.0083923-.0083771.0176086-.0125732.0260162-.0109177.0201263-.0226593.0411072-.0343933.0603943-.0293732.050354-.0595856.0998383-.0914612.149353-.1006699.1551971-.2105865.3053741-.3280334.4480286-.4085999.5008698-.9052734.9295807-1.4573364 1.2643433-.3280411.1988525-.6753922.3641205-1.0361633.4950104-2.347496.8532562-4.9265518.2089081-7.1439972-.7181702-.1767273-.0738678-.3702316-.0455475-.5148849.0578918-.0690918 0-.1392288.0134583-.2066574.0419312-2.1822128.9220581-4.7436371 1.5638885-7.0449982.6628265-.3095856-.1208344-.6099548-.2684937-.8935165-.4429932-.536972-.3289032-1.0168686-.7500763-1.4137115-1.240036-.1132507-.1401215-.2198029-.2852631-.3171387-.4379425-.0352325-.0553894-.0696259-.112442-.102356-.1703186-.0092163-.0167847-.0192947-.0327301-.028511-.0495148-.0033646-.0067139-.0042038-.011734-.0075607-.0184479-.0008392-.0016785-.0016785-.0033722-.0025177-.0050507 0 0 .0025177.0084076-.0033569-.0025177-.1140976-.0939484-.2189713-.2038574-.3456573-.2810516-.0411072-.0251617-.0964966-.0117493-.1443024-.0151062-.0855789-.0066986-.1938095.0293732-.27771.0444641-.0318909.0050354-.0654449.0100861-.0973206.0151215-.0629196.0108948-.1250229.022644-.1887665.0318604-.4388123.0646057-.8826218.0981598-1.3264542.0964966-1.2459106-.0033569-2.4792175-.3179779-3.5371933-.9849854-.8490524-.5361023-1.5638733-1.2735901-2.110054-2.1134186-.1535416-.2357635-.2928085-.4799042-.4169769-.7315979-.0402756-.0822144-.0797043-.1652679-.1157913-.249176-.0117416-.0285339-.0301971-.0964661-.0444489-.1124268-.0788803-.0922852-.1468277-.1938019-.2357635-.2751923-.0285339-.0268402-.072998-.0310364-.1099091-.0452881-.0797043-.0293732-.1870956-.0293732-.2701569-.0419464-.0318909-.0042114-.0629196-.0100861-.0948181-.0151215-.0310287-.0050201-.0629196-.0083771-.093956-.0134125-.3523712-.0604095-.7030792-.1434631-1.0436935-.251709-1.038681-.3288727-1.98423-.9128113-2.687294-1.7518005-.806282-.9606628-1.2517853-2.1763458-1.4288025-3.4079895-.0503464-.3498535-.0805435-.7055817-.0864182-1.0588074-.0025177-.1233368-.0016785-.2449799.0025177-.3674774.0008392-.0302124.0142593-.1216431.0075607-.1417847-.0386124-.1224823-.0621033-.2516937-.1149521-.3691559-.0159378-.0352325-.0553665-.0536957-.0839005-.0788727-.072998-.0654449-.192131-.1115875-.2751923-.1602325-.0352325-.0201416-.0679626-.0427856-.102356-.0629272-.0343857-.0201416-.0679626-.0394287-.1023483-.0604095-.033577-.0201263-.0662842-.0419464-.0998383-.062912-.0654449-.0402832-.1317291-.0805664-.1963348-.1225128-.5956879-.3842468-1.1603241-.8255615-1.6494446-1.3398743-.6317596-.666153-1.1343155-1.4589844-1.3944092-2.3441315-.401886-1.3667145-.201355-2.8307495.3322372-4.1320343.113266-.2751923.2424774-.5444946.3859406-.8054199.0696411-.1266785.1409454-.2558899.2256851-.3742065.1568985-.2290344.0998306-.5428162-.1283722-.7005463-.1149292-.0788574-.2516937-.1015015-.3775406-.0780334-.1266937.0226593-.2441406.0923004-.3230057.2064056-.3288956.4782257-.5814285 1.0210419-.7894974 1.5605164-.6015549 1.565567-.753418 3.3140106-.1912918 4.9156494.1719969.4891358.4043959.9530793.6871489 1.3868561z"/><path d="m144.9607086 174.6283417c1.3524475-1.4396973 2.093277-3.355957 2.419632-5.2805939.0881042-.5142975.1468353-1.0336456.1762085-1.554657.0100555-.1862488.0167694-.3741913.0184479-.5612793 0-.0016785 0-.0033569 0-.0050354.286087-.2483368.5713654-.4958344.8389893-.7659912.8054504-.8146515 1.5001068-1.7425842 2.0286713-2.7602844 1.2777863-2.4607544 1.4791565-5.287323.8868256-7.9704132-.1266937-.5721893-.2869263-1.1351624-.4849396-1.6863708-.0998383-.2760315-.2055511-.5529022-.3330841-.8180084-.0914459-.187088-.2819061-.2928009-.4773712-.2827454-.0654449.0033569-.1317291.0192871-.1938171.0494995-.2500153.1216583-.3548889.4211731-.2332458.6711884.1518707.311264.2676392.6426697.3775482.9698792.1719971.5151367.3104248 1.0411835.4161377 1.5731201.3918304 1.9674225.3305817 4.0414124-.3691406 5.9333344-.2357635.6367798-.541153 1.2492523-.9044342 1.8222809-.4547272.7156677-1.0009155 1.3725891-1.6100159 1.9615479-.1845856.177887-.3741913.349884-.5688477.5159912-.0713196.0612488-.1459808.1183014-.2147827.1812286-.0226593.0201263-.052002.0377502-.0629272.0654297-.0444641.1090851-.073822.2240143-.1107483.3356018.0083923.2651215-.0033417.5294037-.0209808.7945251-.0310211.4966736-.0914307.991684-.1803741 1.4816437-.3641205 1.9984894-1.225769 4.0120697-2.8659821 5.2856445-.8306122.6443634-1.8206329 1.0554657-2.8500519 1.2551422-.3649597.0713043-.7349548.1174622-1.1066437.1417847-.088913.0058899-.2483368-.0033569-.3322296.0260162-.0469971.0167847-.1031952.0218201-.139267.0553741-.0931396.088089-.1585846.1988525-.2382812.2986755-.0125732.0159454-.0276947.0813904-.036911.1074066-.0243378.0712891-.0495148.1400909-.0763397.2097473-.0486755.1275177-.1006927.2550354-.1543884.3808746-.2047119.4740448-.4438324.9321289-.7131348 1.3734436-.9237366 1.5135345-2.2224884 2.820694-3.8358612 3.5841675-1.2442322.588974-2.619339.8297729-3.9902496.7894745-.4941559-.0150909-.9858093-.0670929-1.4741211-.1443024-.0427856-.0075378-.088089-.011734-.1308594-.0184479-.0923004-.0159454-.2433167-.0629272-.3381195-.0578918-.0436249.0025177-.0906143-.011734-.1283646.0108948-.1334076.0797272-.2466583.1921387-.3700104.287796-.1501617.2886047-.3380966.5554047-.5428238.8079376-.4379501.5402985-.9665146 1.0101471-1.5546494 1.3818054-.3607483.2282104-.7441788.4186554-1.1426926.5713654-2.670517 1.0227203-5.627121.2156219-8.1256332-.9044342-.1502457-.0675659-.3159256-.0590057-.4534378.0090027-.1049576-.0212708-.2170639-.0116272-.3217926.0354614-2.4179535 1.0839691-5.2814407 1.865921-7.8663788.8759003-.3850861-.1476593-.7542496-.3330688-1.1032639-.5537109-.5680008-.3591003-1.078949-.8121643-1.5026245-1.3340149-.2013702-.249176-.3641281-.5067291-.5243683-.7819214-.1225128-.0956573-.2357635-.2055664-.3691711-.2852783-.0377502-.022644-.0855789-.0083771-.1283646-.0108948-.0931168-.0041962-.2407837.036911-.3305588.0528564-.0419464.0067139-.0847397.014267-.1258469.0209656-.041954.0067291-.0813828.0142822-.1233292.0209808-.4312515.0637665-.8675232.102356-1.3029556.1149445-1.3272934.0402679-2.6587601-.1904449-3.8618774-.7601318-1.5974426-.7559204-2.8752213-2.0605621-3.7729416-3.568222-.2483368-.4178162-.4690018-.8507233-.6586151-1.2979126-.0595627-.1426239-.1182861-.2869263-.1702957-.4329224-.0134354-.0369263-.0394516-.1468201-.0570679-.1703186-.0805359-.099823-.1459808-.2139435-.2390976-.3011932-.0360947-.0343933-.0923004-.0385895-.138443-.0553741-.0830612-.0285339-.2374268-.0201263-.3255234-.0260162-.0377502-.0025177-.0755234-.0050354-.1124344-.0075531-.3892822-.0310364-.7777405-.0864105-1.1594849-.1711426-1.0294495-.2273712-2.0018234-.6820984-2.8022232-1.3734283-1.4648743-1.265213-2.2250061-3.1587982-2.5463486-5.0289154-.0788574-.461441-.1325455-.9270782-.1593933-1.3944092-.0134201-.2298737-.0226593-.4597626-.0159378-.6896515-.036911-.1115875-.0654449-.2265167-.1099167-.3355865-.0092392-.0218201-.0511856-.0545349-.073822-.073822-.0645981-.0562286-.1308823-.1115875-.1963272-.1678009-.2189865-.187088-.4320908-.3817444-.6368027-.5847778-.5554047-.5478516-1.0554352-1.1544495-1.4740906-1.8139038-.3515549-.5545807-.6452026-1.1452179-.8725662-1.7618866-.6930084-1.8717804-.7416763-3.9264679-.3330765-5.8678894.1107559-.5285645.2533798-1.0520935.4320755-1.5622101.0914536-.26091.1879349-.5226898.3096008-.7710266.1216507-.2500153.016777-.5529022-.2332382-.6737061-.062088-.0301971-.1258545-.0461578-.1912918-.0503387-.1954956-.0100708-.3893051.0964813-.4799042.2835693-.1510239.311264-.2709885.6401367-.3825836.9673615-.1795349.5235291-.3272018 1.0579529-.4404678 1.5991211-.5403061 2.5656281-.3263626 5.2537537.8910141 7.5987244.5134506.9883423 1.1871643 1.8877258 1.9691086 2.6789093.2575531.2600861.5344315.4983521.8104553.7374573 0 .0176392-.0008392.036087 0 .0545502.0016861.1636047.0067215.3271942.0150986.490799.0285339.5050659.0864182 1.0076294.1711578 1.5068359.3179779 1.8734589 1.0370026 3.7200775 2.3458176 5.1262207.9287643.9958954 2.1419449 1.6813507 3.4533005 2.0320435.3909988.1042786.7878799.1776428 1.18853.2280121-.2184067.224823-.4476166.4391022-.6801224.6495819-.5008698.4547272-1.0286026.8817596-1.5756073 1.2802887-1.7551804 1.276123-3.7595215 2.2761841-5.9300003 2.5589142-.2911224.0377808-.4975128.3037262-.4589233.5948486.0377502.2902985.3037262.4966888.5948486.4589386 2.5429916-.3322449 4.8820877-1.5529785 6.8897858-3.109314-.2172852.4983826-.4194946 1.005127-.6023941 1.517746-1.1192169 3.1311188-1.5680695 6.4946136-1.2635193 9.8086243.0922928 1.0126801.2550507 2.0228271.5033951 3.0094757.0495071.1980133.1015091.3943176.1594162.5898132.0360718.1199646.0755005.2407837.1157684.3590851.005043.0159454.0243378.0939636.0360718.1048737.1225128.1090851.2290421.2407837.3674927.3280487.0478287.0302124.1132507.01091.1703186.0134125.0729752.0025177.1577148-.0335541.2282028-.0528412.0469818-.0125885.0947952-.0234985.1417847-.036911.0461426-.0126038.0922928-.0285339.138443-.0419617.0469666-.0134277.0931168-.0251617.139267-.0394287.0461502-.0134277.0906143-.0276947.1359024-.0419464.7618103-.2324066 1.5085068-.5143127 2.2342453-.841507 2.820816-1.2701721 5.307045-3.2046661 7.3854523-5.4884796-.3111496.6283112-.5989151 1.2680664-.8622971 1.9177246-1.3205719 3.2552948-2.0479736 6.7614441-1.9926071 10.2801666.020134 1.2828064.1451416 2.5647888.3699875 3.8282928.1082306.6099548.2450027 1.2131958.3951645 1.8139191.0721588.2844086.3607712.4572449.645195.3851013.2844086-.0713196.4572449-.3599396.3859253-.6443634-.3934784-1.5605164-.6485367-3.1478882-.7215195-4.7562256-.1661148-3.6672363.543663-7.3462219 1.9430923-10.7340546.438797-1.0630035.9430313-2.1016693 1.517746-3.0984039.0111389-.0193329.0226822-.03862.0338669-.0579529-.0248032.2889099-.0454178.5781403-.0573654.8675995-.138443 3.3492432.4480133 6.7286987 1.8013153 9.8002472.4220123.9598083.9178467 1.8910675 1.4992676 2.7636261.1191483.1778564.2399597.3523712.367485.5243683.0545273.073822.1132507.1485138.1703186.2206573.011734.014267.031868.0520172.0494843.0603943.1292114.0595856.2475204.1485138.3859482.1804047.0679626.0159302.1392593-.0234985.2072296-.0419617.0738373-.0192871.2038651-.1392517.2667923-.1887665.0276871-.0209808.0545425-.0419464.081398-.0629272.0276718-.0218048.0562057-.0411072.0839005-.0629272.053688-.0419464.1065292-.0855713.1602402-.1283569.0805359-.0637665.1585617-.1266937.2382812-.1912994.9329453-.7584534 1.827301-1.5621948 2.6696548-2.4204712 2.2939453-2.3370361 4.1973953-5.1494293 5.2149887-8.2769165.0303802.6266479.0580521 1.2534332.0832443 1.8804321.0973206 2.3886261.1568832 4.7772217.1652832 7.167511.0050354 1.4178925-.0142822 2.8366241-.0654449 4.2528381-.0486679 1.3507843-.1334076 2.7049103-.3305588 4.0430908-.0427856.2902832.1585617.5604553.4480057.6032257.2902908.0419464.5613022-.1585541.6032486-.4488373.201355-1.3767853.2877731-2.7703552.3356018-4.1605682.052002-1.4766083.0604019-2.9532471.0478058-4.4315338-.0184555-2.0530243-.077179-4.1068726-.1577225-6.1582031-.0222321-.5663605-.0462265-1.1327972-.0713806-1.6992188 1.1780548 3.0701752 3.1798859 5.8047638 5.5508347 8.0671692.8918381.8507233 1.8331833 1.6435699 2.813118 2.3886108.0839005.0637512.1678009.1266785.2517014.1887665.056221.0419464.1115875.0822144.1677933.1233215.0579071.0419617.1157913.0847473.1736755.1258545.0276947.0209808.0578918.0402679.0864182.0604095.0562057.0411072.1233292.1057129.1912994.1208038.0696411.0159454.1434631.0553741.212265.036911.1384277-.0385895.2533722-.1350708.3800659-.2021942.0176163-.0092316.057045-.0780182.0679398-.0939636.0612488-.0864105.1208344-.1719818.1787186-.2600861.1283646-.1946411.2516937-.3909607.3691483-.5923309.54702-.9304504 1.0025864-1.9154205 1.3843307-2.9230499 1.2190552-3.217514 1.6570129-6.6993256 1.3768005-10.1232452-.0488892-.598999-.1285706-1.1939545-.2229767-1.7873383.5732574 1.0616608 1.102066 2.1477509 1.5863342 3.2530518 1.6528015 3.7720947 2.8164825 7.7824707 3.282959 11.8792725.1082306.9547577.1736755 1.9129028.2072296 2.8735352.0100861.2928162.2542114.5218506.5478668.5109558.2928009-.0100708.5210114-.2542114.5109558-.5478668-.0562286-1.5882111-.2072296-3.1680298-.463974-4.7377777-.600708-3.6672363-1.7392273-7.2421722-3.2620087-10.6283417-.0579987-.1291046-.1170807-.2577209-.1762238-.3863068 2.1344452 2.1276245 4.6336365 3.9060974 7.4284821 5.0477448.7962036.3246918 1.6158905.5965271 2.4490051.8104553.0948029.0243378.189621.047821.2852478.0704803.0486755.011734.0964966.0226593.1443024.0343933.0721741.0159607.1602631.047821.2332458.0419464.0587311-.0050201.1258545.0142822.1736755-.0184479.1342468-.0939636.2340851-.2315674.351532-.3464966.0151215-.0151215.0377502-.1266937.0444794-.1493378.0310516-.1116028.0612335-.223175.0889282-.3356018.0595703-.2399597.1115875-.4832611.1602478-.7265625.2022095-1.0277557.3171387-2.0731659.3641205-3.1193848.1518707-3.4054413-.4446716-6.8293762-1.7039948-9.994873-.2164612-.5419922-.4555664-1.0730743-.7080994-1.5991364.0092163.0067291.0192871.014267.0285339.0209808 2.1016541 1.5227661 4.5313721 2.6914978 7.1423187 2.9263916.2919617.0260162.5503845-.1904297.5764008-.4832458.0259857-.2919769-.1879578-.5503693-.4799347-.5763855-2.3047028-.2063904-4.4558563-1.2165375-6.3368683-2.5245361-.5034027-.3506927-.9900208-.7257233-1.4573364-1.1225586-.1180573-.1003876-.235199-.2025299-.351059-.3060913.3096161-.0482483.6167297-.1109467.9198914-.1922607 1.3524475-.3607792 2.5891113-1.0688786 3.5497741-2.0916294zm-41.7079162 9.3757324c-.0075531.0025177-.0260086.0469818-.031868.0570679-.033577.0612335-.0671234.1216431-.102356.1812134-.1342468.2307129-.274353.4572449-.4194946.6812592-.081398.1266785-.1652985.2508698-.2491989.3750305-.1216507.1812134-.2474976.3607483-.3750305.5377808-1.5747833 2.1981659-3.4960632 4.1731415-5.7101517 5.7311554-1.234169.8691864-2.5656433 1.6041412-3.9692688 2.1629181-.4555893.1820526-.9178543.3448181-1.3868561.4882812-.0553665.0167999-.1124344.0302124-.1678009.0469971-.0562057-.1946564-.1199646-.3867645-.1677933-.5822601-.1426239-.5830994-.2525406-1.1745911-.3355942-1.7694397-.2785568-1.9850464-.2634583-4.0128784.0209732-5.9962616.281044-1.9640808.8289108-3.8862152 1.6150589-5.7076569.2877655-.6669922.6074219-1.3214111.9539185-1.9590302.0255432-.0466766.0518036-.0925446.0774231-.1389313.2960052.6284332.6459427 1.2324219 1.0476761 1.7992706 1.2601624 1.7753143 3.0044327 3.1185455 5.1102829 3.7066803 1.1561356.3238373 2.3684692.4060516 3.5631943.3070679.2198257-.0184631.4387894-.0436401.6577759-.073822.0457077-.0059967.0909882-.013031.1362534-.0196686-.089119.0593261-.1772996.1317596-.2671433.172348zm12.2778015 2.9884949c-.0671234 1.1200409-.2861099 2.2292023-.6158295 3.3005981-1.0663528 3.4658508-3.2619858 6.4761658-5.8788147 8.9436188-.5453415.5143127-1.1108246 1.0084686-1.6930771 1.4816589-.1258469.101532-.2558975.1996918-.3834229.3012085-.1996689-.2777252-.3867645-.5638123-.563797-.8549347-.4043808-.6678314-.7626343-1.3667145-1.0772552-2.081543-1.2492676-2.8408051-1.8097076-5.9610291-1.7174072-9.0585785.0385895-1.2903595.1887741-2.5765381.4354324-3.8434143.0427856-.2189789.0880966-.4379578.1359024-.6552582.003212-.0142517.0065613-.0281219.0098953-.0421448.0877457.1061554.1776199.210556.2711716.3114777.7215195.7802429 1.6108627 1.3952332 2.5958328 1.7962646.3993607.1627655.8154984.2902832 1.2375107.3825836 2.4606018.5413818 4.9812164-.0989075 7.2513123-1.073288.0008011.0188293.0019073.0375671.0026016.056427.0151138.3448335.0100784.6904909-.0100555 1.0353243zm12.3516159 11.1694641c-.3305588.9363251-.7265549 1.8499908-1.198082 2.7242126-.1677933.3096008-.3506927.6166534-.5428238.914505-.1610794-.1191254-.3255386-.2349243-.4849396-.3565674-.5856094-.4438324-1.1536102-.9111633-1.7039948-1.3969421-2.7284012-2.4087372-5.049881-5.3711853-6.2924271-8.8202972-.4178162-1.1578064-.7139816-2.3634186-.8364716-3.5892029-.0360718-.3574066-.0553665-.7190247-.0553665-1.0780945 0-.1411438-.002037-.2863464.0090866-.4292603 2.2164612.8675079 4.6381378 1.370636 6.9855652.7992554.3750305-.0914612.744194-.2080688 1.1016083-.3540497 1.0445404-.4253845 1.9884033-1.0881653 2.7426529-1.9271698.158432-.1761475.3078232-.3606873.4482193-.551712.0051727.0083008.0100098.0167389.0157471.024826.0514374.0729218.1018677.1467438.1521301.2207336-.0009613.0016022-.0018311.0033569-.0027924.0049591-.0058746.0100708.0033569.022644.0050507.0343933.0050049.026001.011734.0528564.0184479.0780334.0184631.0696259.036911.1375885.0553741.2072296.0796967.3053894.1518555.6124725.2198181.9203644.036911.164444.0721436.3305664.1048737.4958344.0436096.2156372.0830536.4304199.1208038.6477051.0461578.2642975.0881042.5310822.1258545.7970428.5042421 3.5598451.2097474 7.2362977-.9883345 10.6342012zm14.4725876-12.8608704c.4027252 2.1360779.5075989 4.3350677.2827301 6.4971466-.062088.6015472-.1501617 1.201416-.2693024 1.7937469-.0360718.175354-.087265.3465118-.1292114.5218506-.1040344-.026825-.2080688-.0536804-.3121033-.0813751-.4799042-.1308899-.9555969-.2827301-1.4229279-.4538879-1.4078217-.5143127-2.7485352-1.2006073-4.0011444-2.0211334-2.3248444-1.5227661-4.3610687-3.4851685-6.051651-5.6866913-.1367493-.1786957-.2718353-.3607483-.4035339-.5428162-.0642242-.0890198-.1268921-.1792603-.1902161-.2690125-.2521362-.4284668-.5127106-.852829-.791214-1.2636871.1329803.0135651.2659302.0256195.3991547.0351105 1.2232513.0880737 2.4624481-.0100708 3.6420746-.3532257 2.1242981-.6191711 3.882843-1.9934235 5.1572723-3.7888794.4379425-.6166534.8171692-1.2761078 1.1326294-1.9640656.0167847-.0365601.0322876-.0737762.0487518-.1104889.3754578.6394653.7243042 1.2938538 1.0419464 1.9646454.8607941 1.8189393 1.4934083 3.7452546 1.8667451 5.7227631z"/><path d="m134.0791168 161.4938507c1.699295.7837219 3.3901672 1.585907 5.0887299 2.3713684.2663879.1217499.5829315.0060883.7052917-.260849.0921936-.1994324.0488129-.4253845-.0899811-.5782166-.046463-.0507507-.1053314-.0940399-.1715851-.1253357-1.7020416-.7779846-3.4099579-1.5397186-5.1112976-2.3194275-.2518768-.1165771-.5515289-.0045013-.6669312.2474365-.116577.2518769-.0067138.5489961.2457734.6650239z"/><path d="m129.0746155 166.0185852c-.1963654-.1961365-.5162964-.1940613-.7113495.0027924-.1961365.1963501-.1952362.5131378.0018921.7089844 1.3257599 1.3206635 2.6372528 2.6557617 3.9617462 3.9778137.2082062.2059784.5452271.2063446.7519836-.0021667.1551819-.1555328.192215-.3826141.114502-.5738678-.0261536-.0636597-.0665283-.1245575-.1179504-.1767426-1.3303223-1.3162232-2.6717682-2.619217-4.000824-3.9368134z"/><path d="m121.8885345 169.3657532c-.2493515.1218872-.3515396.4217224-.2288208.6710358.8241043 1.6800842 1.6300278 3.3691711 2.4524841 5.0501404.1298904.2624969.4484634.372467.711792.2425385.1973343-.0965881.3062286-.2992859.29496-.5054169-.0040436-.0686951-.0224075-.1394196-.0540771-.2054901-.8298721-1.6773529-1.6745377-3.3458252-2.5027542-5.0240784-.1218948-.249344-.4251098-.3514252-.673584-.2287293z"/><path d="m114.802803 170.227005c-.0318222.0610046-.0523758.131134-.0591507.2040863-.149498 1.8654327-.2817307 3.7308502-.4330978 5.5962067-.0234985.2765503.184227.5198669.4604416.5422211.2765427.0234985.5182343-.1812897.5410004-.4582367.155838-1.8648071.3319092-3.7280121.4896317-5.5927429.0233917-.2919464-.1934891-.5499268-.4861603-.5737-.2189255-.0184784-.4164506.0995025-.5126649.2821655z"/><path d="m107.2272263 169.1657257c-.0492706.0480347-.090683.1082458-.1198883.1754456-.7240372 1.7256775-1.431694 3.4567108-2.1574936 5.1817322-.1085968.2554169.0128479.5514069.2682877.6588135.2554092.1085968.5489273-.0105591.6569672-.266571.7298889-1.7230988 1.4784851-3.4383698 2.2101288-5.1607971.1132965-.2700806-.0122528-.58284-.2828979-.6967468-.2022249-.0858614-.4267275-.0354006-.5751039.1081236z"/><path d="m101.3895416 165.30896c-.0649414.0227356-.1279068.0598297-.1827469.1083984-1.3851395 1.2584229-2.7576523 2.5286407-4.1440964 3.7857208-.2063065.1856537-.2212372.5052338-.0350494.710495.1856384.2062988.5020218.2222595.7080765.0358276 1.3893204-1.2536163 2.7923126-2.4922485 4.1829605-3.7445221.2167511-.1969604.2350464-.5334778.0378342-.7510376-.147049-.1632385-.3718567-.2122955-.5669785-.1448821z"/></g></svg>