<svg xmlns="http://www.w3.org/2000/svg" version="1.1" xmlns:xlink="http://www.w3.org/1999/xlink" xmlns:svgjs="http://svgjs.dev/svgjs" width="100%" height="100%" viewBox="0 0 1000 600"><rect width="1000" height="600" x="0" y="0" fill="#533549"/><g><rect width="333.3333333333333" height="333.3333333333333" y="204.81183085609229" fill="#f6b042" transform="matrix(0.6845953238261793,0,0,0.6845953238261793,0,45.68754973188443)" x="182.58961486816406"/><path d="M350.4430442613733 387.7560991427344L315.1041099278972 387.7560991427344L315.1041099278972 446.47850743816235L295.3248556367725 446.47850743816235L295.3248556367725 296.47850341406274L350.648162454022 296.47850341406274Q375.26234557186604 296.47850341406274 389.23968527092745 309.04931836353313Q403.18772237103906 321.62013331300346 403.18772237103906 342.3370707705222L403.18772237103906 342.3370707705222Q403.18772237103906 364.1675069881339 389.53271126042563 375.97645436490905Q375.87770014981214 387.7560991427344 350.4430442613733 387.7560991427344L350.4430442613733 387.7560991427344ZM315.1041099278972 312.77074843015953L315.1041099278972 371.5810645224369L350.648162454022 371.5810645224369Q366.50086848587154 371.5810645224369 374.96931958236786 364.10890179023426Q383.4084680799144 356.6367390580316 383.4084680799144 342.5421889631709L383.4084680799144 342.5421889631709Q383.4084680799144 329.15090124310575 374.96931958236786 321.09268653190685Q366.50086848587154 313.0637744196577 351.79096381306476 312.77074843015953L351.79096381306476 312.77074843015953L315.1041099278972 312.77074843015953Z " fill="#533549" transform="matrix(0.6845953238261793,0,0,0.6845953238261793,0,45.68754973188443)"/><path d="M639.9353518833254 369.9214095515794L613.8540372339421 369.9214095515794L613.8540372339421 413.26050951622636L599.256286497347 413.26050951622636L599.256286497347 302.5554931893662L640.0867359650383 302.5554931893662Q658.252825770579 302.5554931893662 668.5685696244395 311.8331747686245Q678.8626871809125 321.1108563478827 678.8626871809125 336.4006486008794L678.8626871809125 336.4006486008794Q678.8626871809125 352.5122401546029 668.784832598315 361.22763800178495Q658.7069780157175 369.9214095515794 639.9353518833254 369.9214095515794L639.9353518833254 369.9214095515794ZM613.8540372339421 314.5797145368431L613.8540372339421 357.9836933936527L640.0867359650383 357.9836933936527Q651.786562851702 357.9836933936527 658.0365627967035 352.46898755982784Q664.2649364443174 346.954281726003 664.2649364443174 336.55203268259226L664.2649364443174 336.55203268259226Q664.2649364443174 326.66881477648263 658.0365627967035 320.72158299490684Q651.786562851702 314.79597751071856 640.9301615631528 314.5797145368431L640.9301615631528 314.5797145368431L613.8540372339421 314.5797145368431ZM710.5668391510585 296.4785036234651L710.5668391510585 413.26050951622636L696.5097458491521 413.26050951622636L696.5097458491521 296.4785036234651L710.5668391510585 296.4785036234651ZM798.607495815768 413.26050951622636L783.8583609974598 413.26050951622636Q782.6472883437572 410.81673791143334 781.890367935193 404.5883642638194L781.890367935193 404.5883642638194Q772.0720289212461 414.77435033335473 758.4690878644781 414.77435033335473L758.4690878644781 414.77435033335473Q746.2934824352884 414.77435033335473 738.508015375771 407.89718776411434Q730.7225483162536 401.020025194874 730.7225483162536 390.4447657723628L730.7225483162536 390.4447657723628Q730.7225483162536 377.59874512415905 740.4760084380379 370.48369328365567Q750.2510948572098 363.39026774053974 767.9630324176119 363.39026774053974L767.9630324176119 363.39026774053974L781.65247866393 363.39026774053974L781.65247866393 356.9240048216628Q781.65247866393 349.5494374125088 777.2407139968701 345.18092534022406Q772.8289493298103 340.81241326793923 764.2433092669536 340.81241326793923L764.2433092669536 340.81241326793923Q756.7173577760867 340.81241326793923 751.6135515926253 344.59701531076024Q746.5313717065515 348.40324365096876 746.5313717065515 353.8098179978559L746.5313717065515 353.8098179978559L732.3877732150947 353.8098179978559Q732.3877732150947 347.64632324240455 736.7562852873796 341.9153544347042Q741.1247973596644 336.16275932961634 748.6291225531436 332.8106832345464Q756.1118214492353 329.4802334368639 765.0867348650679 329.4802334368639L765.0867348650679 329.4802334368639Q779.2952122486872 329.4802334368639 787.3618211742428 336.57365897997977Q795.4068038024108 343.6887108204832 795.731198263224 356.1670844130986L795.731198263224 356.1670844130986L795.731198263224 394.0347311386958Q795.731198263224 405.3452846723836 798.607495815768 412.04943686252363L798.607495815768 412.04943686252363L798.607495815768 413.26050951622636ZM760.5235861162953 402.5338660120023L760.5235861162953 402.5338660120023Q767.141233116885 402.5338660120023 773.0668386010733 399.1169110247697Q778.9924440852615 395.69995603753705 781.65247866393 390.22850279848734L781.65247866393 390.22850279848734L781.65247866393 373.338364538812L770.6230669962804 373.338364538812Q744.77964161816 373.338364538812 744.77964161816 388.4767727100959L744.77964161816 388.4767727100959Q744.77964161816 395.0944197106857 749.1914062852198 398.814142861344Q753.6031709522797 402.5338660120023 760.5235861162953 402.5338660120023ZM817.7683953011358 330.9940742539923L831.068568194478 330.9940742539923L831.5227204396166 341.33144440524046Q840.9517861005876 329.4802334368639 856.1550731640341 329.4802334368639L856.1550731640341 329.4802334368639Q882.2363878134174 329.4802334368639 882.4742770846806 358.8919978839297L882.4742770846806 358.8919978839297L882.4742770846806 413.26050951622636L868.3955574853865 413.26050951622636L868.3955574853865 358.82711899176707Q868.3306785932239 349.91708446809713 864.3298135765274 345.67833018013766Q860.3505748572186 341.4179495947906 851.9163188760747 341.4179495947906L851.9163188760747 341.4179495947906Q845.0607826042218 341.4179495947906 839.8920975285978 345.05116755589876Q834.7234124529737 348.7060118143944 831.8254886030422 354.6316172985827L831.8254886030422 354.6316172985827L831.8254886030422 413.26050951622636L817.7683953011358 413.26050951622636L817.7683953011358 330.9940742539923ZM908.7069758157767 311.07625436006026L922.7640691176832 311.07625436006026L922.7640691176832 330.9940742539923L938.1187402628425 330.9940742539923L938.1187402628425 341.87210183992914L922.7640691176832 341.87210183992914L922.7640691176832 392.8885373771557Q922.7640691176832 397.8193331815168 924.8185673695002 400.30635738108487Q926.8730656213173 402.77175528326535 931.8038614256784 402.77175528326535L931.8038614256784 402.77175528326535Q934.2476330304713 402.77175528326535 938.5080136158183 401.8634507929884L938.5080136158183 401.8634507929884L938.5080136158183 413.26050951622636Q932.9500551872184 414.77435033335473 927.7164912194316 414.77435033335473L927.7164912194316 414.77435033335473Q918.2874255584607 414.77435033335473 913.4863875384249 409.0866341204295Q908.7069758157767 403.37729161011674 908.7069758157767 392.8885373771557L908.7069758157767 392.8885373771557L908.7069758157767 341.87210183992914L893.7199517262056 341.87210183992914L893.7199517262056 330.9940742539923L908.7069758157767 330.9940742539923L908.7069758157767 311.07625436006026ZM969.8228922329884 330.9940742539923L969.8228922329884 413.26050951622636L955.7657989310819 413.26050951622636L955.7657989310819 330.9940742539923L969.8228922329884 330.9940742539923ZM954.6196051695418 309.173140189956L954.6196051695418 309.173140189956Q954.6196051695418 305.7561852027234 956.7173560161341 303.39891878748057Q958.8151068627262 301.04165237223776 962.902477068973 301.04165237223776Q967.0114735726072 301.04165237223776 969.1524770139744 303.39891878748057Q971.2718541579542 305.7561852027234 971.2718541579542 309.173140189956Q971.2718541579542 312.59009517718863 969.1524770139744 314.8824827002688Q967.0114735726072 317.15324392596136 962.902477068973 317.15324392596136Q958.8151068627262 317.15324392596136 956.7173560161341 314.8824827002688Q954.6196051695418 312.59009517718863 954.6196051695418 309.173140189956ZM992.3358678134261 330.9940742539923L1005.6360407067685 330.9940742539923L1006.090192951907 341.33144440524046Q1015.519258612878 329.4802334368639 1030.7225456763247 329.4802334368639L1030.7225456763247 329.4802334368639Q1056.803860325708 329.4802334368639 1057.041749596971 358.8919978839297L1057.041749596971 358.8919978839297L1057.041749596971 413.26050951622636L1042.963029997677 413.26050951622636L1042.963029997677 358.82711899176707Q1042.8981511055144 349.91708446809713 1038.897286088818 345.67833018013766Q1034.918047369509 341.4179495947906 1026.4621650909776 341.4179495947906L1026.4621650909776 341.4179495947906Q1019.6282551165123 341.4179495947906 1014.4595700408883 345.05116755589876Q1009.2908849652642 348.7060118143944 1006.3929611153327 354.6316172985827L1006.3929611153327 354.6316172985827L1006.3929611153327 413.26050951622636L992.3358678134261 413.26050951622636L992.3358678134261 330.9940742539923ZM1143.7848284184277 413.26050951622636L1129.0356936001194 413.26050951622636Q1127.8246209464169 410.81673791143334 1127.0677005378527 404.5883642638194L1127.0677005378527 404.5883642638194Q1117.2493615239057 414.77435033335473 1103.6464204671377 414.77435033335473L1103.6464204671377 414.77435033335473Q1091.470815037948 414.77435033335473 1083.6853479784306 407.89718776411434Q1075.8998809189131 401.020025194874 1075.8998809189131 390.4447657723628L1075.8998809189131 390.4447657723628Q1075.8998809189131 377.59874512415905 1085.6533410406973 370.48369328365567Q1095.4284274598695 363.39026774053974 1113.1403650202715 363.39026774053974L1113.1403650202715 363.39026774053974L1126.8298112665896 363.39026774053974L1126.8298112665896 356.9240048216628Q1126.8298112665896 349.5494374125088 1122.4180465995298 345.18092534022406Q1118.0062819324698 340.81241326793923 1109.420641869613 340.81241326793923L1109.420641869613 340.81241326793923Q1101.8946903787464 340.81241326793923 1096.790884195285 344.59701531076024Q1091.708704309211 348.40324365096876 1091.708704309211 353.8098179978559L1091.708704309211 353.8098179978559L1077.5651058177546 353.8098179978559Q1077.5651058177546 347.64632324240455 1081.9336178900392 341.9153544347042Q1086.302129962324 336.16275932961634 1093.8064551558032 332.8106832345464Q1101.289154051895 329.4802334368639 1110.2640674677275 329.4802334368639L1110.2640674677275 329.4802334368639Q1124.4725448513468 329.4802334368639 1132.5391537769024 336.57365897997977Q1140.5841364050702 343.6887108204832 1140.886904568496 356.1670844130986L1140.886904568496 356.1670844130986L1140.886904568496 394.0347311386958Q1140.886904568496 405.3452846723836 1143.7848284184277 412.04943686252363L1143.7848284184277 412.04943686252363L1143.7848284184277 413.26050951622636ZM1105.7009187189547 402.5338660120023L1105.7009187189547 402.5338660120023Q1112.3185657195447 402.5338660120023 1118.244171203733 399.1169110247697Q1124.169776687921 395.69995603753705 1126.8298112665896 390.22850279848734L1126.8298112665896 390.22850279848734L1126.8298112665896 373.338364538812L1115.8003995989397 373.338364538812Q1089.9569742208196 373.338364538812 1089.9569742208196 388.4767727100959L1089.9569742208196 388.4767727100959Q1089.9569742208196 395.0944197106857 1094.3687388878795 398.814142861344Q1098.7805035549393 402.5338660120023 1105.7009187189547 402.5338660120023ZM1202.7164887994968 330.5399220088538L1202.7164887994968 343.62383192832056Q1199.5157967861396 343.0831744936318 1195.7960736354812 343.0831744936318L1195.7960736354812 343.0831744936318Q1181.9552433074505 343.0831744936318 1177.0028212057018 354.8695065698457L1177.0028212057018 354.8695065698457L1177.0028212057018 413.26050951622636L1162.9457279037952 413.26050951622636L1162.9457279037952 330.9940742539923L1176.6351741501135 330.9940742539923L1176.851437123989 340.5096451045136Q1183.7718522880045 329.4802334368639 1196.4664888544953 329.4802334368639L1196.4664888544953 329.4802334368639Q1200.5754853581298 329.4802334368639 1202.7164887994968 330.5399220088538L1202.7164887994968 330.5399220088538ZM1223.391229101993 330.9940742539923L1243.9145853227765 392.65064810589274L1263.0754848081444 330.9940742539923L1278.1273877898782 330.9940742539923L1245.0607790843167 425.95514608271725Q1237.3834435117367 446.47850230350065 1220.6446893337745 446.47850230350065L1220.6446893337745 446.47850230350065L1217.984654755106 446.2622393296252L1212.7510907873193 445.267429649798L1212.7510907873193 433.87037092655993L1216.5573191275278 434.1731390899856Q1223.6939972654188 434.1731390899856 1227.6948622821153 431.27521524005414Q1231.674101001424 428.39891768751016 1234.2692566879298 420.7215821149305L1234.2692566879298 420.7215821149305L1237.3834435117367 412.35220502594933L1208.0365579568336 330.9940742539923L1223.391229101993 330.9940742539923Z " fill="#f6b042" transform="matrix(0.6845953238261793,0,0,0.6845953238261793,0,45.68754973188443)"/></g></svg>