<svg id="Capa_1" enable-background="new 0 0 512 512" height="512" viewBox="0 0 512 512" width="512" xmlns="http://www.w3.org/2000/svg"><g><g><path d="m399.411.095c-16.86.891-32.108 8.228-44.41 16.812l-2.832 12.821 10.427 9.558 17.386-1.015c6.552-3.664 13.73-6.32 21.092-6.709 11.407-.603 21.975 4.529 32.305 15.69 11.632 12.568 13.591 27.995 10.607 43.464l2.269 13.652 13.396 11.551 10.897-3.167c14.654-42.63 1.187-70.447-14.044-86.905-16.846-18.2-36.055-26.864-57.093-25.752z" fill="#71aa52"/><g><g><g><path d="m462.058 132.766c3.511-7.009 6.307-13.675 8.487-20.016l-26.565-22.036c-1.424 7.384-3.967 14.777-7.128 21.873v20.692h24.945c.085-.172.174-.341.261-.513z" fill="#68994b"/></g><g><path d="m338.209 30.765v20.267h24.432c4.976-4.528 11.074-9.31 17.812-13.012l-25.452-21.112c-6.323 4.412-11.864 9.151-16.45 13.515z" fill="#68994b"/></g></g></g><path d="m215.119 137.848s-22.742-46.654 2.089-82.874c.331-.483.861-.76 1.364-.981 1.51-.664 3.351-.377 4.594.866l45.438 45.438-11.012 29.692-30.106 11.426z" fill="#ffc265"/><path d="m218.941 53.874c-.641.212-1.244.566-1.732 1.101-42.427 46.481-4.961 101.679-4.961 101.679h14.441l.798-15.239c-7.432-16.268-26.423-57.084-8.546-87.541z" fill="#ffb541"/><path d="m103.025 304.557c-17.522-15.87-49.362-13.058-52.443-12.744-.159.016-.803 27.188 17.623 43.877s48.631-1.949 48.631-1.949c-1.314-9.656-4.887-21.102-13.811-29.184z" fill="#aee295"/><path d="m132.021 304.557c17.522-15.87 49.362-13.058 52.443-12.744.159.016.803 27.188-17.623 43.877s-48.631-1.949-48.631-1.949c1.313-9.656 4.887-21.102 13.811-29.184z" fill="#aee295"/><path d="m184.706 291.839s-.098-.011-.242-.026c-1.315 9.652-4.882 21.084-13.801 29.161-17.568 15.911-50.22 12.744-53.141 12.744-2.962 0-35.573 3.167-53.141-12.744-8.919-8.078-12.487-19.509-13.801-29.161-.144.015-.241.026-.241.026s-4.384 31.028 14.042 47.716c13.139 11.9 34.318 13.294 45.396 13.116v46.343c0 4.276 3.466 7.742 7.742 7.742s7.742-3.466 7.742-7.742v-46.343c11.077.179 32.261-1.215 45.401-13.116 18.428-16.688 14.044-47.716 14.044-47.716z" fill="#98db7c"/><path d="m173.229 433.739 13.896 9.581-11.592 52.487c-2.089 9.458-10.474 16.193-20.161 16.193h-37.85-37.85c-9.687 0-18.071-6.735-20.161-16.194l-11.592-52.487 13.896-9.581h111.414z" fill="#dd8858"/><path d="m191.229 414.519h-147.412v10.219l.001.001h-.001l4.104 18.58h139.204l4.104-18.58h-.001l.001-.001z" fill="#d97f4a"/><path d="m194.12 411.728h-153.195c-4.796 0-8.684-3.888-8.684-8.684v-4.397c0-4.796 3.888-8.684 8.684-8.684h153.195c4.796 0 8.684 3.888 8.684 8.684v4.397c0 4.796-3.888 8.684-8.684 8.684z" fill="#ffc265"/><path d="m194.12 407.401h-153.195c-4.796 0-8.684-3.888-8.684-8.684v17.337c0 4.796 3.888 8.684 8.684 8.684h153.195c4.796 0 8.684-3.888 8.684-8.684v-17.337c0 4.796-3.888 8.684-8.684 8.684z" fill="#ffb541"/><path d="m287.537 269.419-136.966-31.199-7.914-10.4-10.216-10.31 12.394-13.207 96.682-12.364 40.316 25.571 18.182 44.952z" fill="#71aa52"/><path d="m137.407 241.261 5.25-13.441 2.177-23.516s-5.772-17.959-34.322-22.377c-2.943-.455-5.674 1.632-5.964 4.596l-5.4 55.273 4.144 11.361z" fill="#ffc265"/><path d="m99.149 241.795-1.244 12.733c-.279 2.86 1.826 5.386 4.687 5.645 9.253.838 28.607.427 38.514-15.601l9.464-6.352-7.913-10.4c-13.211 19.253-40.413 14.58-43.508 13.975z" fill="#ffb541"/><path d="m141.106 244.572 179.138 42.277 1.118-15.565-21.347-8.822-157.358-34.642z" fill="#68994b"/><path d="m470.529 185.262-89.822 89.822-7.211 7.32c-13.122 13.122-34.686 12.12-46.534-2.164l-99.475-120.402-.048-18.377 110.731-110.729 130.195 107.996c14.284 11.848 15.286 33.412 2.164 46.534z" fill="#aee295"/><path d="m335.472 271.694-107.997-130.195-15.227 15.155 107.996 130.195c11.848 14.283 33.412 15.286 46.534 2.164l13.929-13.929c-13.208 11.816-33.77 10.432-45.235-3.39z" fill="#98db7c"/></g></g></svg>